<?xml version="1.0" standalone="yes"?>
<svg xmlns="http://www.w3.org/2000/svg" width="461" height="371">
<path style="fill:#ffffff; stroke:none;" d="M0 0L0 371L461 371L461 0L0 0z"/>
<path style="fill:#000000; stroke:none;" d="M171 149C181.261 161.416 205.931 177.288 221 183L221 184L170 184C162.338 184 152.335 185.683 145 183.301C117.149 174.257 95.2064 148.141 67 140C67 163.693 65 187.304 65 211C65 216.169 62.4861 231.668 67.5486 234.914C71.0825 237.179 79.2121 223.754 82 221.465C96.9022 209.229 117.059 201.321 135 194.681C155.977 186.919 179.827 190 202 190C210.476 190 221.915 188.007 230 190.702C243.516 195.207 257.984 208.064 270 215.865C285.533 225.949 299.913 238.098 315 248.859C319.247 251.888 327.212 259.543 332.851 258.574C340.152 257.32 329.813 247.782 328 246.09C315.743 234.647 306.085 222.556 306.001 205C305.982 201.211 304.824 194.584 307.742 191.603C311.838 187.42 326.468 190 332 190L401 190L401 184L308 184L328.671 142L354 110L322 126.719L248 168C248 130.022 271.099 105.25 290 75C277.835 77.8586 265.583 89.2331 255 95.8079C226.952 113.233 199.841 132.943 171 149z"/>
<path style="fill:#ffffff; stroke:none;" d="M264 97C238.997 115.178 209.926 135.789 182 149L214 172L227 179.306L243 172C239.921 155.414 245.42 137.045 252.309 122C255.284 115.503 265.009 103.918 264 97M328 130L249 175C249.885 177.711 250.593 182.012 253.419 183.397C261.997 187.598 280.436 184 290 184C293.228 184 298.675 185.003 301.437 182.972C304.94 180.396 306.009 171.939 307.604 168C310.975 159.679 315.253 151.58 320.053 144C322.729 139.775 327.406 135.013 328 130M73 150L71 222L137 187L110 170.719L73 150M243 178L237 183L246 184L243 178M247.667 190.333L248.333 190.667L247.667 190.333M256 190L274.961 209.439L311 238C301.551 222.304 298.705 208.157 301 190L256 190z"/>
</svg>
