<?xml version="1.0" standalone="yes"?>
<svg xmlns="http://www.w3.org/2000/svg" width="558" height="371">
<path style="fill:#ffffff; stroke:none;" d="M0 0L0 371L558 371L558 0L0 0z"/>
<path style="fill:#000000; stroke:none;" d="M438 82L243 82L182 82L153 81.581L135 71.0532L97 46.6674L75 34C75 59.3561 73 84.6494 73 110C73 115.447 70.3295 132.295 75.5733 135.762C78.6559 137.801 88.8257 121.701 92.0039 119.095C108.001 105.977 132.654 92.1259 153 87.5286C174.275 82.7214 201.168 87 223 87L370 87L421 87C426.056 87 436.33 85.0483 440.363 88.6034C444.436 92.194 446.96 100.107 449.139 105C458.807 126.708 455 152.565 455 176L383 175L383.843 145L417 96C387.739 96 358.248 94.7313 329 94.0146C313.891 93.6444 297.918 95.8643 283 94.2816C272.179 93.1336 260.879 93.9993 250 94C247.022 94.0002 240.152 92.8675 238.662 96.3896C237.386 99.4047 241.099 100.842 243.019 102.07C248.416 105.521 252.68 110.751 256.254 116C268.988 134.706 272 149.968 272 172L246 171.211L178 141L156 132C159.803 152.472 161.325 173.434 164.753 194C165.497 198.462 165.828 212.75 171.184 214.248C174.998 215.316 176.63 209.271 178.418 207.09C183.297 201.14 191.272 198.064 198 194.756C222.05 182.932 245.544 178 272 178L272 266L277 266L277 178L321 179L321 266L327 266L327 179L377 180L377 266L383 266L383 180L455 182L455 296C385.423 283.037 314.944 273.272 245 262.424C224.658 259.27 204.306 256.137 184 252.753C174.998 251.253 164.597 251.081 156 247.972C149.341 245.564 144.222 239.104 139 234.576C122.849 220.573 105.447 197.908 86 189C84.0142 213.953 76.3702 239.26 72.2469 264C71.3954 269.109 66.2254 285.454 70.6003 289.338C73.8139 292.191 86.3101 277.654 90 275.453C103.426 267.444 119.095 263.277 134 259C140.799 257.049 148.855 253.995 156 254.518C183.319 256.515 210.927 263.377 238 267.576C310.278 278.785 382.448 292.783 455 302L455 340L461 340L461 186L461 139C461 132.276 459.501 123.443 461.563 117C464.251 108.601 472.258 100.187 477.28 93C491.044 73.3018 508.735 52.6987 519 31C488.154 27.1017 455.107 28 424 28C419.248 28 396.311 25.5164 395.466 32.0394C394.944 36.0663 407.143 40.1038 409.985 42.4676C422.411 52.8019 429.729 68.486 438 82z"/>
<path style="fill:#ffffff; stroke:none;" d="M410 34L410 35C431.168 49.9114 449.899 84.3422 457 109L472.576 89L508 36L410 34M81 44L79 122C99.5108 107.565 118.781 93.2439 143 85L143 83L81 44M252 100L274 136L276 136L292.29 113L295.828 104.228L285 100.039L252 100M325 137L349 102L318 100L307.376 102.318L310.646 112L325 137M358 100L380 138L381 138L406 101L358 100M353 107L327.703 144L327 173L377 174C377 154.365 376.324 141.529 366.769 124C363.385 117.791 359.548 110.193 353 107M301 110L277.51 145L277 172L321 173C321 150.88 320.608 125.133 301 110M163 141L172 203L207 184.424L236 174L163 141M90 200L76 277C97.5482 264.737 120.995 253.37 146 250L121 226.834L90 200z"/>
</svg>
