<?xml version="1.0" standalone="yes"?>
<svg xmlns="http://www.w3.org/2000/svg" width="488" height="371">
<path style="fill:#ffffff; stroke:none;" d="M0 0L0 371L488 371L488 0L0 0z"/>
<path style="fill:#000000; stroke:none;" d="M50 126C55.2282 144.148 66.802 162.11 75.2469 179C78.1428 184.792 82.9924 191.489 84.3696 197.83C85.9552 205.131 67.925 215.397 73.071 222.381C75.4145 225.562 87.1235 219.116 91 219.015C108.246 218.563 126.713 222.435 143 228.043C155.612 232.386 166.878 245.506 177 253.919C199.274 272.432 221.75 290.705 244 309.247C254.306 317.835 268.224 334.738 282 336L347.6 254L363.813 235.455L381.039 213.843L406 205L448 191C444.932 184.941 438.114 180.633 433 176.272C421.82 166.739 410.472 157.377 399 148.2C395.99 145.792 385.873 135.313 381.658 139.647C379.72 141.639 385 159.57 385 164L384 164C378.23 152.876 365.083 138.421 355 131L355 130L365 118C360.907 119.295 355.376 124.29 351.004 123.335C346.633 122.38 342.912 116.128 340.075 113C331.137 103.146 314.081 89.561 309.6 77C304.706 63.2859 308 42.49 308 28L275 42.2191L245.144 56.9661L237.942 65.0957L171 105.4L129 130.182L108 130.004L50 126z"/>
<path style="fill:#ffffff; stroke:none;" d="M262 58L262 59L303 75L302 37C287.605 41.1453 274.651 50.2555 262 58M118 156L126 148L134 173C167.68 158.904 201.459 138.427 233 120C223.055 137.208 208.697 149.705 204 170C236.002 156.676 268.056 137.478 298 120C287.731 136.417 273.659 149.34 269 169L345 129C340.471 121.164 333.327 114.82 327.424 108C309.913 87.7669 285.415 63.9247 256 63.4329C245.057 63.2499 228.266 78.2407 219 83.8002L163 117.4C144.577 128.453 128.83 136.567 118 156M60 133L89 193L91 193L124 137L60 133M351 136C330.181 161.15 320.697 214.633 361 228C370.852 213.104 386.357 192.88 382.997 173C382.186 168.201 377.323 164.465 374.285 161C367.011 152.704 360.018 142.406 351 136M341 137L274 173L274 175L337 216C326.487 198.537 324.42 181.518 330.745 162C333.017 154.991 342.018 143.979 341 137M211 138L142 176L206 218C194.868 199.508 193.278 181.363 200.695 161C203.277 153.911 210.781 145.381 211 138M276 138L207 176L270 217C260.744 199.591 257.498 183.118 264.436 164C267.37 155.914 275.2 146.238 276 138M390 150C392.42 169.146 385.836 187.465 382 206C399.508 203.414 419.836 195.165 436 188C426.158 175.131 404.819 156.605 390 150M116 158L117 159L116 158M122 161C114.661 171.209 104.887 180.841 99.0502 192C96.6843 196.523 99.2114 205.173 96.2276 208.534C93.9031 211.153 91.3163 207.669 90 206L88 206L83 214C103.075 210.273 124.757 216.58 144 222L124 161L122 161M267 177C265.001 192.82 268.093 206.94 279.289 218.91C282.439 222.278 298.565 231.349 296.654 236.639C295.654 239.409 291.64 237.482 290 236.671C284.11 233.758 278.519 229.863 273 226.308C249.813 211.373 226.899 191.779 202 180C199.196 195.115 205.293 209.408 216.004 219.985C219.02 222.964 233.423 231.74 231.654 236.639C230.655 239.405 226.636 237.489 225 236.668C219.104 233.71 213.602 229.671 208 226.192C183.725 211.119 160.949 192.89 136 179C139.105 192.101 144 212.914 151.702 223.961C158.721 234.027 172.472 242.316 182 250C200.505 264.924 218.614 280.353 237 295.424C247.037 303.652 256.995 311.983 267 320.25C269.787 322.553 274.891 328.737 278.961 327.655C286.22 325.725 294.804 309.745 299.4 304C317.454 281.431 340.6 259.031 355 234L267 177z"/>
</svg>
