<?xml version="1.0" standalone="yes"?>
<svg xmlns="http://www.w3.org/2000/svg" width="660" height="371">
<path style="fill:#ffffff; stroke:none;" d="M0 0L0 371L496 371L617 371C626.413 371 651.994 375.445 658.397 367.517C662.603 362.309 660 348.43 660 342L660 272L660 0L0 0z"/>
<path style="fill:#000000; stroke:none;" d="M547 103L519 103L535 75C508.414 70.0645 479.871 74.1582 453 73.5448C432.621 73.0796 412.047 75.1368 392 74.9807C375.367 74.8512 358.659 72.7499 342 74.7145C328.621 76.2922 313.601 74 300 74C296.562 74 288.249 72.575 286.327 76.4151C284.773 79.5207 289.099 81.3062 291.004 82.6837C297.784 87.5874 301.73 95.0248 306 102L246 72.7523L216 59C216 66.297 216.885 77.2234 214.142 84C212.078 89.0991 206.959 92.9307 203.424 97C194.564 107.201 185.224 116.975 176.17 127C170.138 133.678 162.667 146.201 154 149.397C143.464 153.281 126.229 150 115 150C115.845 159.614 125.356 170.588 124.019 179.995C122.793 188.618 102.156 187.609 96 185.258C90.0612 182.989 85.4788 176.322 81 172.039C69.7138 161.247 56.1095 143.58 42 137C42 163.287 40 189.701 40 216C40 219.797 38.0355 240.442 44.0039 240.248C47.505 240.135 47.9205 234.379 48.966 232C52.0741 224.929 58.5184 219.272 64 214.039C72.3312 206.086 85.6846 194.601 97 191.499C103.664 189.672 112.116 191 119 191C116.511 195.264 104.721 212.648 109.032 217.149C111.401 219.623 118.764 214.142 122 214.083C131.088 213.92 144.416 217.819 151.985 222.818C161.484 229.09 169.038 241.402 176.424 250C187.885 263.341 203.549 276.805 212.397 292C215.369 297.104 213.607 309.821 213.965 316C214.106 318.454 213.779 323.336 217.184 323.824C220.641 324.319 222.525 319.111 224.27 317.008C228.338 312.104 236.316 307.138 242.001 304.248C266.676 291.702 296.018 278 324 278L324 312L329 312L329 278L379 278L379 312L385 312L385 278L436 278L436 310L442 310L442 278L492 278L492 310L498 310L498 278L551 278L551 272L498 272L498 180C498 168.126 494.623 150.068 499.074 139C501.825 132.158 510.364 112.579 517.213 109.603C521.511 107.736 528.386 109 533 109C537.234 109 545.136 107.472 548.062 111.318C551.471 115.799 551.431 124.605 552.651 130C556.14 145.443 557.926 162.016 563 177L525 177C521.879 177 514.226 175.703 512.662 179.39C510.857 183.645 523.323 186.975 526 188.927C538.141 197.78 549.748 212.524 556.442 226C561.082 235.342 558 251.709 558 262L558 347L563 347L563 263C563 253.474 559.748 236.587 564.028 228C573.906 208.18 599.592 198.179 609 178C599.052 178 578.913 181.639 570.314 175.972C565.63 172.885 565.084 159.219 564.003 154C560.689 137.994 557.543 121.93 553.881 106C552.426 99.6697 548.406 89.3659 549.992 83C555.36 61.448 578.681 45.4755 585 24C560.702 28.712 536.122 32.5738 512 38.1188C508.343 38.9595 488.885 40.7092 490.752 46.7261C491.595 49.446 495.836 48.9478 498 49.3248C504.227 50.4097 509.871 53.6516 515 57.2053C524.094 63.5064 536.628 72.1073 542.012 82C545.185 87.8318 545.74 96.5049 547 103z"/>
<path style="fill:#ffffff; stroke:none;" d="M507 45L507 46L547 75L573 33L507 45M221 68L221 78L222 78L227 70L221 68M219 143C243.904 125.666 270.172 115.38 299 106C285.856 95.1093 265.323 88.9085 250 81.2469C245.32 78.9068 237.25 72.6284 232 75.6466C212.903 86.625 219 124.142 219 143M421.214 80.0278C413.816 84.43 422.02 97.5013 426.61 101.397C430.572 104.759 452.066 104.879 456.39 101.972C463.275 97.3446 467.706 85.127 458.995 80.6883C452.37 77.3118 427.718 76.1575 421.214 80.0278M525 80C513.328 80 501.716 79 490 79C486.081 79 479.807 77.8233 476.614 80.6034C470.972 85.5167 477.638 99.692 483.39 102.397C486.574 103.893 491.568 103 495 103C499.663 103 506.453 104.234 510.815 102.397C517.034 99.7765 522.441 85.9388 525 80M299 80C302.184 85.1131 309.498 100.992 315.213 102.682C325.109 105.609 343.473 105.172 348.719 95.9992C350.153 93.4919 352.824 90.1036 351.748 87.0432C349.949 81.9284 343.481 81.3078 339 80.7184C325.89 78.9936 312.216 80 299 80M410 87C403.001 77.3862 385.811 80 375 80C369.581 80 362.838 79.1286 361.35 86.0046C357.421 104.156 387.951 106.869 398.895 102.397C404.118 100.262 406.858 91.3995 410 87M468 80L469 81L468 80M356 81L357 82L356 81M413 92L407 103L420 103L413 92M469 92L464 103L475 103L469 92M356 94L352 103L362 103L358 94L356 94M213 96C189.303 119.762 153.116 150.313 150 186L227 186L227 191L151 191L157.848 218L189.845 256L214 283L216 227C236.355 235.475 256.243 246.439 276 256.248C292.6 264.489 305.216 272 324 272L324 186L323.482 143L310 109C285.813 112.572 256.89 125.145 236 137.604C228.838 141.876 225.606 146.862 220.201 152.663C218.97 153.984 217.254 154.711 215.738 153.338C212.949 150.812 213.697 143.492 213.285 140C211.693 126.498 218.378 108.817 213 96M317 109L326 133L328 133L341 109L317 109M329 272L379 272C379 230.668 379.201 189.331 378.999 148C378.949 137.689 373.875 127.295 369.694 118C368.386 115.092 367.182 110.345 363.775 109.318C346.034 103.968 333.462 127.364 329.498 142C326.14 154.401 329 171.154 329 184L329 272M372 109L382 134L383 134L396 109L372 109M385 272L436 272L436 150C435.999 138.996 432.14 130.06 427.989 120C426.638 116.726 425.303 111.168 421.775 109.603C403.139 101.338 390.024 126.415 385.649 141C381.995 153.181 385 170.298 385 183L385 272M430 109L439 133L440 133L453 109L430 109M442 272L492 272C492 230.668 492.201 189.331 491.999 148C491.95 137.887 487.231 128.161 483.281 119C481.864 115.715 480.662 110.465 476.787 109.318C458.859 104.012 445.747 125.564 442.39 141C439.518 154.209 442 170.482 442 184L442 272M486 109L495 132L508 109L486 109M47 150L46 223L88 189L62 162.961L47 150M143 156L146 172L154 155L143 156M123 156L129 172L138 156L123 156M138 168C134.02 177.51 128.412 185.989 143 186L138 168M530 183L560 220C572.36 214.236 588.167 195.12 596 184L530 183M118 208L137 210C135.916 206.036 132.952 193.072 128.625 191.752C123.56 190.206 119.002 204.522 118 208M136 191L139 200L140 200L142 191L136 191M146 198C145.492 204.433 142.774 211.809 150 215L146 198M221 236L219.758 289L230 303L258 290.011L299 275L272 260.753L221 236M219 299L219 312L226 307L219 299z"/>
<path style="fill:#000000; stroke:none;" d="M659 367L655 371L660 371L659 367z"/>
</svg>
