<?xml version="1.0" standalone="yes"?>
<svg xmlns="http://www.w3.org/2000/svg" width="535" height="371">
<path style="fill:#ffffff; stroke:none;" d="M0 0L0 371L535 371L535 0L0 0z"/>
<path style="fill:#000000; stroke:none;" d="M115 338C117.082 324.516 140.993 317.799 152 313.4C163.411 308.839 175.813 303.316 188 301.325C198.542 299.602 210.325 301 221 301L285 301C285.858 282.269 309.511 268.838 324 260.424C333.515 254.899 344.359 247.657 355 244.637C366.795 241.29 382.758 244 395 244L480 244L480 238L393 238L354 237.436L323 215.127L298 196.127L289.252 186.985L297.015 175.001L328 152.281L357 137.637L397 137L483 137L483 131L395 131L356 130.272L336 115.873L282 76L282 80L220 80L189 79.6104L151 62L173 28C141.97 28 111.057 26 80 26C74.0919 26 53.577 22.8479 50.0864 28.4985C47.3962 32.8533 61.3539 37.8591 63.9992 40.1852C77.3925 51.9619 85.3561 68.7706 94 84C109.154 110.698 107.335 135.402 106.039 165C104.817 192.913 104 221.068 104 249C104 273.221 105.095 296.681 104.039 321C103.6 331.133 102.844 343.159 115 338z"/>
<path style="fill:#ffffff; stroke:none;" d="M65 32L90.5509 65L106 93L109 41C117.376 45.889 126.324 49.9103 135 54.2469C137.712 55.6024 141.716 58.5668 144.907 57.5818C151.207 55.6364 159.272 39.7404 162 34L65 32M114 51L112 107L113 107L141 64L114 51M119 108L179 83L156 70.7531L147.184 68.2407L138.656 79L119 108M115 121L161 144.247L187 156.61L218 157L280 157L282 86L220 86C209.659 86 198.208 84.6242 188 86.3256C176.29 88.2773 163.987 93.8049 153 98.1998C141.175 102.93 120.849 108.724 115 121M287 87L286 177L287 177C302.636 156.479 327.402 146.606 349 134C332.059 116.724 307.553 99.7992 287 87M115 128L115 188C134.518 175.966 156.473 165.211 179 160L179 159L115 128M116 196L185 229.363L215 230L278 230L280 163C250.502 163 217.083 158.573 188 163.325C176.161 165.259 164.091 170.577 153 175C140.775 179.875 124.077 185.059 116 196M285 195L283 285L284 285C298.709 265.695 323.829 251.23 346 242L346 240L285 195M115 202L115 258L147 243L176 232L115 202M120 262L120 263L184 294.363L215 295L278 295L278 235L218 235C207.972 235 196.885 233.685 187 235.465C163.43 239.706 141.381 252.018 120 262M115 267L115 325C135.05 313.88 155.138 305.114 177 298L177 297L115 267z"/>
</svg>
