<?xml version="1.0" standalone="yes"?>
<svg xmlns="http://www.w3.org/2000/svg" width="586" height="371">
<path style="fill:#ffffff; stroke:none;" d="M0 0L0 371L586 371L586 0L0 0z"/>
<path style="fill:#000000; stroke:none;" d="M411 139L326 139C314.403 139 298.024 141.973 287 138.298C273.108 133.667 259.018 120.309 247 112.025C237.506 105.482 219.568 98.1765 214 88L151 88C142.821 88 130.613 90.2571 123 87.0656C96.4994 75.9554 76.427 47.7399 49 39C49 69.9824 46.988 100.939 47 132C47.016 173.437 48.7517 215.511 45.9105 257C44.6509 275.394 42.3496 296.717 44.2894 315C44.6892 318.769 43.424 329.546 46.588 331.953C50.1494 334.663 59.9192 317.945 63 315.3C77.6389 302.733 103.514 286.019 123 283.21C147.744 279.643 177.001 281.93 201.999 283.019C207.553 283.261 209.183 291.59 212.831 290.94C215.674 290.433 216.39 286.094 217.557 283.999C220.272 279.127 224.663 275.086 229 271.669C244.719 259.283 264.966 248.261 284 241.954C295.523 238.137 311.904 241 324 241L411 241L411 342L417 342L417 189L417 142L417.43 119L432.141 96L465 47C480.768 65.2358 487.006 88.6302 497 110C486 110 474.999 109.948 464 110.001C461.052 110.015 454.04 109.442 452.971 113.259C452.079 116.441 466.787 126.573 469.254 130C481.97 147.663 490.45 169.554 497.561 190C502.378 203.851 499 223.41 499 238L499 342L505 342L505 237L505.279 189.576L515.719 171L549 112L505 111C521.316 88.1528 537.123 60.4402 549 35C530.222 31.514 510.044 33.7946 491 32.9606C460.046 31.605 429.022 30 398 30L362 30C359.058 30.0049 351.636 29.3383 351.636 33.9753C351.636 37.6231 358.53 38.9883 361 40.4792C368.386 44.938 373.857 52.125 378.848 59C395.715 82.2342 411 110.112 411 139z"/>
<path style="fill:#ffffff; stroke:none;" d="M367 35C371.063 42.6116 379.194 48.7686 384.279 56C395.823 72.4154 405.742 91.293 413 110L415 110C430.31 88.6238 449.765 65.7492 461 42C451.494 37.1244 444.25 37.8057 434 36.8302C412.053 34.7417 389.05 35 367 35M469 41L469 42C483.568 58.8368 495.131 83.5429 501 105L502 105L539 40C522.358 40 505.63 38.081 489 38.0008C482.37 37.9688 474.239 36.3728 469 41M54 49L53 129L54 129C67.6939 111.398 95.1988 98.083 116 91L116 90L54 49M55 140L102 171.333L122 184.298L150 185L211 185L213 94L153 94C143.421 94 132.404 92.4977 123 94.3789C110.766 96.8261 97.733 105.027 87 111.15C75.764 117.561 57.6968 126.062 55 140M218 101L216 181L240 162.425L279 142L279 141C260.109 128.256 239.266 109.06 218 101M466 116C480.286 136.361 495.13 158.229 501 183L502 183L539 118C529.765 117.271 506.895 112.566 500 119C495.186 112.325 473.835 116 466 116M411 235L411 145L329 145L288 145.379L259 158.247L228.015 177.755L219.748 188.96L228 197.576L256 216.333L284 234.49L324 235L411 235M54 146L52 227L73 210.054L115 188L115 187L54 146M56 234L100 263.344L120 276.298L148 277L208 277L210 191L152 191C142.775 191 132.022 189.49 123 191.529C111.276 194.178 99.4643 201.54 89 207.231C77.6404 213.409 60.9262 221.284 56 234M216 197L214 277L215 277C228.96 257.236 256.529 248.913 277 238C261.162 222.832 235.829 206.381 216 197M53 240L51 274L50 319L51 319C64.671 299.646 92.3551 289.782 113 280L76 254L53 240z"/>
</svg>
