<?xml version="1.0" standalone="yes"?>
<svg xmlns="http://www.w3.org/2000/svg" width="1224" height="371">
<path style="fill:#ffffff; stroke:none;" d="M0 0L0 371L1224 371L1224 0L0 0z"/>
<path style="fill:#000000; stroke:none;" d="M187 203C170.834 185.396 157.267 164.857 142.576 146C134.774 135.986 122.736 124.73 117.84 113C110.614 95.6909 110.354 70.6139 108 52C95.3641 60.9009 84.6131 75.2886 74.5795 87C69.8442 92.5271 64.4166 97.3903 64 105C68.3923 104.775 72.5985 102.83 77 103.479C116.207 109.26 136.641 149.435 158.651 178C166.638 188.365 183.635 203.22 186.686 216C188.362 223.019 187 231.798 187 239L187 286C167.564 264.884 150.223 241.335 132.197 219C123.913 208.737 111.745 197.993 106.136 186C97.5461 167.635 99.758 141.756 95 122C80.459 128.781 66.2434 148.998 55.7153 161C53.0268 164.065 44.6601 170.683 46.6613 175.551C48.0005 178.808 58.6296 175.178 62 175.806C74.4535 178.124 89.857 183.887 99.9853 191.61C108.799 198.33 115.702 209.381 122.6 218C135.482 234.096 148.61 250.001 161.611 266C168.868 274.93 182.558 286.358 186.436 297.17C190.321 308.001 187 325.487 187 337L193 337L193 186L193 138L193.419 115L205.333 96L236.28 51L251 27C219.958 27 189.039 25 158 25C152.004 25 131.84 21.8965 128.086 27.5733C125.184 31.9633 135.674 34.5875 138 36.1088C149.015 43.3118 156.785 55.9122 163.396 67C171.783 81.067 183.375 98.7715 186.621 115C188.441 124.098 187 134.734 187 144L187 203M1069 180L1017 180C1009.75 180 999.854 181.731 993 179.157C965.603 168.871 944.879 140.884 917 132C915.898 157.679 915 183.234 915 209C915 213.718 912.399 231.439 917.299 233.824C921.312 235.778 923.822 227.251 925.533 225C932.726 215.539 944.579 208.638 955 203.258C967.27 196.925 981.346 188.109 995 185.379C1017.85 180.809 1045.67 185 1069 185L1069 340L1074 340L1074 185L1188 185L1188 180L1074 180L1074 138L1074.51 118L1090.97 93L1133 31C1101.94 28.5489 1070.17 28 1039 28C1033.38 28 1012.1 25.0705 1009.26 31.2731C1007.36 35.4004 1016.69 37.5954 1019 39.1088C1028.75 45.4871 1036.18 56.2132 1042.19 66C1051.8 81.643 1064.33 100.931 1068.47 119C1072.72 137.541 1069 160.967 1069 180M479 101C445.33 110.555 411.453 119.738 378 130.025C360.444 135.423 338.345 145.556 320 146.235C310.163 146.6 298.505 141.75 289 139.373C269.389 134.471 249.456 130.47 230 125C234.187 139.534 244.502 153.817 251.86 167C254.526 171.776 260.212 178.342 260.219 184C260.227 190.463 254.095 199.299 251.247 205C243.892 219.72 237.053 234.87 230.579 250C228.95 253.806 219.815 269.716 224.607 272.914C228.11 275.251 237.378 266.367 241 264.926C255.752 259.058 274.286 258.025 290 258C315.235 257.959 334.082 267.831 357 277.719C385.355 289.953 413.669 302.287 442 314.576C452.661 319.2 463.318 323.85 474 328.421C480.744 331.307 486.732 332.759 487 341C489.225 341.599 492.448 343.968 494.761 343.253C498.642 342.054 503.727 327.614 507.09 324.001C517.182 313.159 532.967 300.263 547 294.994C558.314 290.746 575.965 294 588 294L678 294L678 342C692.707 341.817 691.11 331.92 700.174 322.015C709.807 311.486 725.39 298.817 739 293.969C750.778 289.774 768.541 293 781 293L874 293L874 345L879 345L879 192L879 145L879.51 123L892.999 102L922.344 59L937 36C928.782 33.5709 919.497 35.4924 911 34.9105C888.447 33.3661 865.631 33 843 33C838.128 33 814.909 30.1962 814.037 37.0355C813.686 39.7892 817.093 40.7337 819.015 41.5293C825.443 44.19 830.237 48.8605 834.826 54C849.823 70.7953 862.749 94.7067 870 116L780 116L740 115.397L706 86L706 85L722.026 63L742 33C710.752 31.6581 679.3 30 648 30C640.689 30 633.254 29.572 626 30.5764C623.535 30.9177 618.898 30.7076 618.466 34.0394C618.07 37.0973 634.201 46.1492 636.985 49C651.245 63.5994 662.196 84.2551 670 103L582 103L544 102.397L518 81L518 80L532.72 60L551 32C520.143 28.1002 487.117 29 456 29C448.734 29 441.191 28.4133 434.001 29.5911C431.908 29.9339 427.636 30.2072 427.636 33.1705C427.636 36.7151 443.791 44.6682 446.829 48.0038C460.351 62.8483 471.302 82.511 479 101z"/>
<path style="fill:#ffffff; stroke:none;" d="M143 31L143 32C166.037 49.5546 177.976 80.6255 190 106L191 106L224.667 57L240 33L143 31M1024 34L1024 35C1046.48 52.1284 1060.51 83.431 1071 109L1091 82L1122 36L1024 34M443 35C454.264 49.7311 466.053 62.1671 474.742 79C477.929 85.1761 480.907 96.7818 488 99L489 55L513 76L514 76C522.966 64.6942 534.879 50.511 540 37L443 35M633 36L633 37C650.08 49.0313 661.002 70.7748 670.244 89C673.798 96.0096 678.476 103.297 680 111C684.676 108.049 684 103.014 684 98C684.001 87.6364 685 77.3885 685 67L702 82L731 38L633 36M829 39L829 40C851.489 57.1349 865.502 88.4125 876 114L895.026 88L927 41L829 39M103 65L75 97L111 110C108.48 96.4763 109.439 77.1119 103 65M494 67L493 106L494 106C497.649 100.59 509.417 88.5647 508.887 82.0008C508.447 76.5668 498.125 69.903 494 67M690 80L690 98L691 98L698 86L690 80M514 86L494 117L506 126.079L515 120.898L536 107C532.469 99.4339 521.53 89.5114 514 86M702 91C698.588 96.9895 692.901 102.405 690.702 109C686.292 122.23 689 140.19 689 154L732 120C726.96 109.192 711.723 97.7685 702 91M487 327L487 165L487 126C486.998 120.58 486.839 112.58 482.301 108.643C478.95 105.735 471.635 109.385 468 110.421L429 121.579C407.319 127.76 385.67 134.064 364 140.291C350.891 144.058 333.746 146.25 322 153.225C315.879 156.859 310.99 163.008 306 168C297.411 176.592 285.182 188.272 283.344 201C282.509 206.787 286.66 211.489 289.667 216C296.815 226.724 304.725 245.391 315.326 252.786C332.156 264.527 356.205 270.557 375 278.86C397.259 288.695 419.741 298.026 442 307.86C456.587 314.305 471.688 322.59 487 327M511 131L535 154.285L546 163.397L586 164L678 164L678 127C677.991 121.753 677.6 114.435 673.351 110.603C670.4 107.942 664.657 109 661 109L631 109L572 109C563.342 109 552.373 107.205 544 109.499C532.13 112.752 520.691 123.817 511 131M684 170L684 255L685 255L685 238C698.902 248.593 710.805 261.962 724 273.424C728.704 277.511 733.109 283.757 739 286.142C749.834 290.528 768.342 287 780 287L874 287L874 166L874 135C874 131.878 875.046 126.221 872.972 123.603C871.109 121.251 866.617 122.001 864 122L841 122L773 122C762.835 122 749.827 119.837 740 122.498C725.24 126.496 708.072 141.895 698.174 153C693.733 157.982 691.271 170.628 684 170M497 128L497 136L502 131L497 128M90 134C79.9347 144.065 64.0252 156.08 58 169L99 183C97.2369 169.061 97.225 146.042 90 134M241 134L277 198L278 198C284.743 178.196 304.732 168.731 313 151L241 134M506 136C497.484 144.696 490.786 167.807 497.028 179.985C499.094 184.017 503.777 186.915 507 190L508 190L540 167L540 166L506 136M922 142L920 221L921 221C936.149 199.672 964.567 195.569 985 182L922 142M512 195C522.773 203.208 533.173 219.73 546 224.397C556.839 228.341 574.469 225 586 225L678 225L678 170L585 170C573.075 170 558.64 167.78 547 170.394C535.653 172.941 518.656 185.746 512 195M497 189L497 201L498 201L503 195L503 194L497 189M265 191L232 262C255.167 252.498 281.259 252 306 252C300.057 236.32 286.493 221.341 276.514 208C272.425 202.533 269.917 195.767 265 191M507 198C495.01 214.189 489.432 237.524 506 252L507 252L539 229C533.838 217.937 516.959 205.016 507 198M511 256L511 257C520.918 266.135 534.253 283.852 547 288.4C557.921 292.297 575.408 289 587 289L678 289L678 231L589 231C576.182 231 559.365 228.111 547 231.499C534.372 234.96 520.43 247.32 511 256M690 251L689 325L690 325C701.409 310.025 717.16 299.696 733 290L704 262.576L690 251M497 252L497 262L498 262L502 257L502 256L497 252M496 327L497 327C507.183 312.108 524.22 300.4 540 292C536.421 286.961 531.407 283.303 527 279C522.897 274.995 512.932 262.428 507.039 262.346C501.703 262.271 498.252 271.851 497.468 276C494.408 292.187 496 310.539 496 327z"/>
</svg>
