<?xml version="1.0" standalone="yes"?>
<svg xmlns="http://www.w3.org/2000/svg" width="447" height="371">
<path style="fill:#ffffff; stroke:none;" d="M0 0L0 371L447 371L447 0L0 0z"/>
<path style="fill:#000000; stroke:none;" d="M32 68C32 130.787 31 193.298 31 256C31 271.82 28.5165 288.318 30.5756 304C31.0212 307.394 29.5797 315.698 32.7269 317.914C36.7098 320.717 42.1067 303.742 44.0432 301C56.5784 283.253 76.7107 270.183 95 259.062C106.522 252.055 122.942 255 136 255L227 255C237.951 255 258.362 251.093 268 256.514C286.687 267.024 303.216 285.772 320 299.2C323.96 302.368 333.974 313.328 339.677 311.289C344.502 309.564 338.53 302.783 336.906 301C326.571 289.656 318.683 277.871 318 262C333.241 276.037 349.79 289.091 366 301.996C368.516 303.999 381.032 315.895 383.744 309.677C385.271 306.176 379.857 301.266 377.83 299C369.25 289.41 365.52 280.806 361 269C376.417 279.733 390.254 293.305 405 304.997C408.064 307.426 417.002 316.584 421.392 313.716C424.323 311.801 421.309 307.73 419.852 306C414.059 299.122 408.103 293.347 404.312 285C391.457 256.69 398.935 220.35 408 192L412.045 194.566C428.174 204.092 412.678 183.28 412.389 180.576C411.921 176.203 415.974 170.327 417 166L408 177L407 177C392.567 146.086 394.367 115.584 403.424 83C406.709 71.1844 412.248 59.8907 415 48L397.79 69L358 121C358.074 94.1361 371.603 71.5532 376 46L355.627 71L315 124C315.018 96.6927 325.41 71.3922 334 46C326.623 49.7462 321.82 59.5833 316.79 66C305.692 80.1592 294.924 94.6096 284.127 109C279.404 115.294 274.276 124.836 267.826 129.397C259.928 134.981 238.528 131 229 131L137 131C127.095 131 108.657 134.522 100 129.436C80.7438 118.123 64.7571 96.4944 48 81.7145C42.7689 77.1006 38.387 70.9784 32 68z"/>
<path style="fill:#ffffff; stroke:none;" d="M316 77L284.13 119L274.033 134.999L284 145.753L318 173C309.156 151.728 307.281 131.817 310.282 109C311.563 99.2546 317.208 86.5414 316 77M358 78L326.873 119L316.331 134.91L326 145.13L360 173C356.868 162.044 354.613 145.647 345 139L345 138C355.651 129.294 353.015 106.847 355.6 94C356.58 89.1293 359.46 82.8075 358 78M397 80C387.496 93.2307 377.427 106.142 367.424 119C363.644 123.86 356.726 130.346 357.233 137C357.713 143.293 363.587 147.075 368 150.753C378.515 159.516 388.701 169.274 400 177C389.607 156.686 388.353 134.306 391.425 112C392.765 102.272 398.212 89.5696 397 80M38 82L36 182L37 182C48.8689 161.368 73.5816 145.325 94 134L67 107.961L38 82M101 136.699C83.4501 142.419 63.5466 159.92 51.0394 173C47.0708 177.15 39.2732 184.638 39.6582 190.985C39.981 196.309 49.4164 202.49 53 205.985C61.7767 214.546 71.2707 222.392 80 231.004C85.4837 236.414 92.0794 244.512 99 247.972C109.068 253.005 129.78 249 141 249L231 249C241.518 249 259.104 252.411 268.826 248.397C273.751 246.363 277.272 239.053 280.424 235C289.687 223.093 298.765 211.026 307.87 199C310.633 195.351 319.474 187.074 317.745 182.09C316.061 177.235 307.832 172.775 304 169.586C291.758 159.397 279.033 144.935 265 137.434C254.925 132.048 234.329 136 223 136L139 136C127.63 136 111.835 133.168 101 136.699M315 144L325 174L327 174L336 163C334.334 167.318 330.022 174.32 330.932 179C331.56 182.226 345.636 199.54 331.045 191.334L327 189C320.058 204.681 317.002 224.939 317 242L318 242L346.651 204L362 182L315 144M359 151L368 174L370 174L376 166L376 165L359 151M377 167C375.818 170.494 372.872 175.24 373.789 179C374.568 182.197 388.25 199.545 374.025 191.424C372.329 190.456 370.819 189.698 369 189L360 239L361 239L401 185L377 167M361 194L362 195L361 194M318 195L285.873 237L275.907 252.91L287 263.92L320 291C311.635 269.434 309.709 250.87 312.166 228C313.262 217.798 319.259 204.945 318 195M360 196L317 252L317 253L363 291C359.192 281.841 357.096 262.347 348 258L353.487 247L357.084 214L360 196M399 198C388.991 210.417 379.558 223.32 369.884 236C366.371 240.605 359.568 246.922 359.315 253C359.033 259.786 364.392 263.34 369 267.272C379.185 275.961 389.369 286.309 401 293C392.645 272.629 390.641 252.816 393.285 231C394.514 220.867 400.258 207.938 399 198M38 200L36 301L37 301C48.394 281.002 73.33 262.662 94 253L63 222.83L38 200M317 261L318 262L317 261z"/>
</svg>
