<?xml version="1.0" standalone="yes"?>
<svg xmlns="http://www.w3.org/2000/svg" width="906" height="371">
<path style="fill:#ffffff; stroke:none;" d="M0 0L0 371L906 371L906 0L0 0z"/>
<path style="fill:#000000; stroke:none;" d="M812 131L718 131C727.133 121.867 741.522 111.747 747 100C711.856 100 677.081 100.126 642 100.985C634.066 101.18 610.805 96.6605 610 107C622.586 109.245 629.778 121.63 637 131L615 119L562 87L560 136C555.124 132.285 550.366 128.019 546.789 123C526.31 94.2604 551.848 61.8463 563 36C551.365 40.9189 541.071 51.5694 531 59.1266C508.397 76.0873 486.205 93.5458 464 111C454.694 118.315 443.884 129.418 433 134.062C423.068 138.301 405.754 135 395 135L323 135C312.771 135 298.758 137.481 289 134.301C272.829 129.03 259.654 114.746 244 108L244 106L284 90.3256L347 90L474 90L474 85L345 85C325.692 85 301.817 88.8316 283 84.6065C276.313 83.1049 269.863 77.827 264 74.4244C249.334 65.9125 234.568 55.7083 219 49C219 68.3377 217.486 87.6915 217.015 107C216.928 110.529 215.979 123.926 220.275 125.248C223.673 126.295 232.394 114.085 236 112L235 138C207.967 138 180.962 137.675 154 137.015C144.311 136.777 128.848 140.682 120 137.143C101.405 129.705 90.0749 106.472 71 100L70 138L63.9954 138C43.312 138.009 66.2653 149.167 69.2577 157C71.2606 162.243 66.7071 177.954 72.4144 180.824C76.6262 182.942 78.3286 174.504 79 172L80 172L82 219L48 196C48 216.631 46.0013 237.375 46 258C45.9998 261.392 44.5983 276.364 50.0401 276.364C53.58 276.364 56.0427 269.288 58.108 267.004C64.678 259.739 73.431 254.561 82 250L82 263L87 263C87 258.692 85.7654 252.048 88.0278 248.213C94.062 237.985 112.118 239 122 239L122 263L128 263L128 239L155 239L155 262L161 262L161 239L235 239L235 252L221 243C220.998 261.951 219.092 281.056 219.001 300C218.98 304.337 217.391 316.055 221.581 318.914C225.086 321.305 231.708 309.232 234.004 307.093C243.775 297.988 262.481 285.873 276 284.185C297.324 281.522 320.5 284 342 284L476 284L476 278L336 278L294 278L273 277.487L248 262C266.033 238.635 298.994 240 325 240L383 240C392.195 240 402.999 238.445 412 240.39C419.462 242.004 426.981 246.835 434 249.85C452.994 258.008 471.511 267.508 490 276.753C510.811 287.158 531.836 297.114 553 306.769C557.426 308.789 570.605 317.037 575.214 312.972C579.403 309.277 570.293 304.172 568 302.692C554.52 293.99 542.695 285.444 536.453 270C520.088 229.511 543.725 185.688 559 149L560 149C560 179.369 558.357 209.613 557.996 240C557.942 244.596 554.547 267.697 561.04 268.534C564.161 268.936 565.284 265.072 566.529 262.996C569.551 257.955 574.255 254.372 579 251.036C594.459 240.167 619.675 225.162 639 225L639 298L645 298L645 225L674 225L674 297L680 297L680 225L711 225L711 297L716 297L716 225L814 225L814 342L820 342L820 257C820 247.485 816.742 230.572 821.028 222C830.592 202.869 853.89 190.711 866 173L818 172L818 107C818 99.1699 815.51 86.1035 819.027 79C828.876 59.111 853.193 46.1806 866 28C841.91 28 815.921 29.1064 792 26.2855C788.205 25.838 770.089 25.0745 768.752 29.26C767.539 33.054 774.765 34.2642 777 35.3279C786.957 40.0671 794.352 49.4145 800.87 58C804.509 62.7945 809.37 68.2163 811.298 74C813.185 79.6614 812 87.0925 812 93L812 131z"/>
<path style="fill:#ffffff; stroke:none;" d="M785 32L785 33C798.723 42.5544 807.025 57.0227 817 70L818 70L853 33L785 32M542 58C529.954 69.0622 515.871 78.1217 503 88.2099C496.493 93.31 488.964 97.4472 487 106L547 134C536.756 118.446 531.911 104.812 535.081 86C536.377 78.311 543.97 65.1019 542 58M225 60L223 113L272 88L272 86L225 60M567 97L566 131L571 129C569.112 131.609 565.793 135.378 566.736 138.896C567.37 141.262 581.748 152.666 569.157 149.978C568.137 149.76 566.967 149.303 566 149L566 166C584.998 153.446 603.156 141.39 625 134L625 132L567 97M702 110L702 111L713 126L733 106C722.349 106 710.372 102.259 702 110M666 111L666 112L677 127L693 110C684.517 104.481 673.633 103.942 666 111M626 107L641 127C643.774 125.707 645.777 124.123 648.002 121.981C649.677 120.367 651.385 118.733 652.937 117C664.259 104.36 632.176 107 626 107M477 109C459.482 121.584 431.548 136.578 423 157C439.955 166.896 461.145 178.568 480 184C471.599 167.113 466.169 155.435 469.435 136C470.883 127.385 477.263 117.399 477 109M483 111C476.471 133.84 465.888 159.584 485.093 179.985C488.447 183.548 495.604 190.927 501 190.698C505.735 190.497 511.643 182.867 515 179.83C527.497 168.523 543.29 156.784 553 143L502 119.139L483 111M77 112L76 138L109 138C101.424 128.633 87.7074 117.525 77 112M242 114L241 145L242.603 155.596L253 151.204L281 138L281 137L242 114M697 115L682 131L709 131L697 115M661 116L648 131L673 131L661 116M635 219C631.18 209.124 620.919 198.118 610 197C611.562 187.207 630.351 191 638 191L638 136C619.756 137.603 596.982 151.34 582 161.333C576.828 164.783 568.089 169.95 567.542 176.96C567.092 182.734 577.971 186.781 582 189.319C593.246 196.402 604.603 203.361 616 210.2C622.056 213.834 627.752 218.608 635 219M644 136L644 191L673 190L673 136L644 136M679 136L679 191L710 190L710 136L679 136M715 136L715 190L747 190L720 219L812 219C805.972 206.258 795.225 192.726 784 184.239C781.313 182.208 769.207 178.437 769.207 175.015C769.207 171.104 776.634 172.001 779 172L812 172L812 136L715 136M249 160L249 162C257.952 168.431 267.661 179.436 278 183.262C285.811 186.152 295.921 183.013 304 183C319.722 182.975 335.306 182 351 182C362.854 182 374.238 182.966 384 175.424C390.369 170.502 406.616 162.622 407 154L425 142C412.355 136.694 389.777 141 376 141L317 141C307.734 141 297.098 139.559 288 141.379C274.385 144.102 260.962 153.367 249 160M158 168L178 144C171.346 143.982 147.278 138.568 149.157 152C149.906 157.351 155.689 163.057 158 168M161 234L235 234L235 143L202 143L187.171 143.603L174.919 157L161.564 175L161 194L161 234M68 144L70 146L70 144L68 144M76 144L80 161L102 147C95.2034 141.942 84.0667 144 76 144M112 147L126 169C129.215 164.663 138.948 156.57 138.808 151.015C138.519 139.546 117.555 144.737 112 147M143.667 144.333L144.333 144.667L143.667 144.333M122 234L122 192C122 184.123 123.021 176.141 119.134 169C117.135 165.327 111.803 153.207 106.946 153.207C103.471 153.207 100.486 158.67 98.5756 161C89.4586 172.118 87 177.772 87 192C87 200.406 84.383 214.03 87.6034 221.826C93.0185 234.935 110.765 234 122 234M143 156L128.564 176L128 195L128 234L155 234C155 211.006 162.874 172.425 143 156M547 157L511.167 191L508.269 200.357L501 201.692L492 208.424L449 248L449 250L547 297C541.884 289.651 535.522 283.346 531.876 275C521.7 251.71 525.355 223.695 532.141 200C535.068 189.781 538.845 179.855 542.8 170C544.389 166.041 547.709 161.258 547 157M413 160C395.247 175.362 369.263 187.363 355 206L418 236C409.171 221.82 402.949 209.313 405.428 192C406.664 183.371 415.152 167.76 413 160M90 161L84 168L90 161M420 163C408.34 184.895 405.377 215.798 425.001 233.907C428.759 237.375 437.548 244.931 443 244.698C447.839 244.491 452.628 237.259 456 234.285C467.47 224.168 487.528 210.878 494 197L420 163M243 166L242 206L272 187C264.664 179.52 252.994 169.315 243 166M785 177L785 178C798.394 188.205 806.914 201.878 817 215L818 215L853 178L785 177M565 186L563 256C582.584 242.217 601.252 232.173 623 222L623 221L565 186M250 211L287 233.49L323 234L399 234L399 233L344 207L344 205L368 188C360.656 184.925 347.176 188 339 188C316.109 188 285.877 184.502 266 196.95C259.961 200.732 253.131 204.342 250 211M702 200L702 201L713 216L733 196C722.662 196 709.959 192.641 702 200M666 201L666 202L677 217L693 200C684.517 194.481 673.633 193.942 666 201M626 197L641 217C647.359 214.034 654.034 207.359 657 201C647.882 195.068 636.49 197 626 197M697 205L684 219L708 219L697 205M53 207L52 263C58.1575 258.79 63.6049 253.731 70 249.811C73.2964 247.79 78.8362 245.96 80.9722 242.61C90.9808 226.913 64.1636 211.696 53 207M650 219L671 219C665.119 205.088 657.703 208.064 650 219M245 215C238.515 227.606 241 243.156 241 257L279 236L245 215M87 231L87 240L95 237L87 231M226 254L225 306L265 281C259.297 275.201 249.975 267.874 242 266C237.776 277.466 235.667 262.238 233.972 259.465C232.232 256.617 228.961 255.14 226 254M548 297L549 298L548 297z"/>
</svg>
