<?xml version="1.0" standalone="yes"?>
<svg xmlns="http://www.w3.org/2000/svg" width="720" height="371">
<path style="fill:#ffffff; stroke:none;" d="M0 0L0 371L720 371L720 0L0 0z"/>
<path style="fill:#000000; stroke:none;" d="M633 133L511 133C493.469 133 470.997 136.786 454 132.581C447.064 130.865 440.015 124.815 434 121.05C417.732 110.867 399.999 96.5898 382 90L380 139C375.25 135.131 370.531 131.146 367.105 126C347.471 96.5095 370.623 65.4788 383 39C371.698 43.3473 361.643 53.8939 352 61.1266C332.984 75.39 313.458 89.4426 295.17 104.627C282.549 115.105 267.991 130.045 253 136.86C243.407 141.221 226.459 138 216 138L142 138C132.167 138 118.307 140.497 109 137.182C92.8277 131.422 80.1795 116.924 64 111L64 109L103 93.3287L166 93L294 93L294 87L164 87C144.611 87 120.926 90.7254 102 86.6096C79.4601 81.7079 60.697 59.898 39 52C39 71.2655 38.3974 90.7923 37.0895 110C36.8567 113.419 36.2117 126.997 40.2747 128.248C43.7145 129.308 53.0021 116.442 56 114L55 254L41 246C41 264.954 39.4787 284.057 39.0147 303C38.9145 307.087 37.7757 319.268 41.5849 321.914C45.1094 324.362 50.7855 312.69 53.0903 310.59C63.3349 301.259 80.9807 289.333 95 287.213C116.019 284.034 139.726 287 161 287L296 287L296 281L158 281C138.351 281 113.044 285.293 94 280.581C83.8817 278.077 76.6932 267.729 67 264L67 263C80.9694 257.125 92.9305 246.47 108 242.61C116.285 240.487 126.48 242 135 242L190 242C202.604 242 218.833 239.283 231 242.634C259.229 250.41 285.52 268.532 312 280.691C333.104 290.381 353.696 301.156 375 310.424C378.73 312.047 392.423 320.422 395.762 315.397C398.846 310.755 388.835 305.925 386 304.203C371.218 295.223 359.284 284.133 354.428 267C342.332 224.323 367.814 189.829 379 151L380 151C380 181.059 378 210.925 378 241C378 246.66 374.893 267.381 379.588 270.953C383.598 274.004 390.294 260.652 393.004 258.3C407.631 245.608 427.212 237.886 445 230.8C462.317 223.902 486.501 228 505 228L633 228L633 341L639 341L639 185L639 139C639 132.31 637.463 123.362 639.728 117C642.572 109.009 649.95 100.894 654.859 94C668.376 75.016 688.757 52.7406 697 31C665.338 31 633.731 29 602 29C597.432 29 573.636 26.2935 573.636 32.9753C573.636 36.5595 579.621 37.2502 582 38.5579C588.711 42.2466 594.18 49.0069 598.764 55C614.904 76.1021 633 106.074 633 133z"/>
<path style="fill:#ffffff; stroke:none;" d="M588 34C606.716 57.2117 625.142 80.0493 635 109C641.877 105.486 645.755 96.16 650.141 90C661.787 73.6443 678.89 54.7571 686 36L588 34M363 60C350.634 71.3557 336.197 80.6303 323 91C316.659 95.9825 309.571 99.9542 307 108C325.011 118.512 346.259 129.278 366 136C356.535 118.998 351.83 105.719 355.612 86C357.15 77.9788 363.654 67.8622 363 60M45 62L43 116C58.4118 106.402 73.9629 95.2842 92 91L77 80.2809L45 62M387 100L386 134L391 131C389.344 133.811 385.752 138.32 386.736 141.79C387.373 144.035 401.838 155.765 389.157 152.848L386 152L386 169C404.382 156.433 423.099 142.99 445 137L428 124.601L387 100M243 160L300 187C297.109 180.471 292.528 174.998 290.44 168C284.682 148.702 291.025 129.983 298 112C290.594 115.131 284.401 121.324 278 126.127C264.972 135.902 249.5 144.471 243 160M303 114C295.67 135.668 287.46 159.527 302.761 179.999C306.265 184.688 314.505 193.456 321 193.289C326.24 193.153 331.335 185.608 335 182.424C347.501 171.565 363.468 159.53 373 146L330 125.742L303 114M62 117L61 147L62.6034 158.169L72 154.464L101 140L62 117M633 222L633 139L508 139C484.776 139 460.662 135.854 439 145.15C424.835 151.229 410.348 157.503 398 166.899C394.147 169.831 386.935 175.178 387.532 180.816C388.004 185.275 395.679 188.186 399 190.203C410.359 197.1 421.736 203.999 433 211.05C438.513 214.501 444.708 219.686 451 221.49C466.595 225.961 488.756 222 505 222L633 222M69 163L69 165L99 186.436L123 186L171 185L197 183.062L228 160L227 157L246 144C233.355 138.694 210.777 143 197 143L139 143C129.722 143 119.096 141.578 110 143.518C95.7935 146.548 80.9827 155.071 69 163M368 159L327 197L327 198C331.321 205.019 318.149 205.523 313 210.17C298.729 223.048 280.366 236.557 269 252C300.483 270.376 335.359 286.994 369 301C361.895 292.084 354.827 284.84 350.453 274C340.341 248.942 347.184 218.753 354.721 194C357.883 183.614 368.112 169.523 368 159M234 162L175 207L175 209L237 238C229.903 223.735 223.225 212.781 225.286 196C226.626 185.091 234.326 172.394 234 162M240 165C230.801 188.718 223.322 218.69 246.001 237.674C249.836 240.885 257.683 247.495 263 247.093C268.804 246.653 274.02 238.771 278 235.17C290.024 224.29 305.647 213.241 315 200L240 165M64 168C60.7896 178.861 59.7709 198.076 63 209L92 189L64 168M385 189L383 259L384 259C396.345 242.859 424.716 230.274 444 225L444 224L385 189M69 212L69 213L107 236.301L142 237L219 237L219 236L164 210L187 190C167.68 190 148.297 191.513 129 191.985C119.672 192.214 107.979 189.955 99 192.649C88.0152 195.944 77.9708 205.24 69 212M65 218C59.2191 228.611 58.5585 248.357 62 260C73.7323 252.272 85.2751 243.924 99 240C91.7658 231.247 75.6551 221.901 65 218M46 256L45 309L85 284L85 283L63 268C57.2583 279.129 56.5728 266.75 53.9722 262.3C52.2705 259.388 48.8238 257.61 46 256z"/>
</svg>
