<?xml version="1.0" standalone="yes"?>
<svg xmlns="http://www.w3.org/2000/svg" width="605" height="371">
<path style="fill:#ffffff; stroke:none;" d="M0 0L0 371L605 371L605 0L0 0z"/>
<path style="fill:#000000; stroke:none;" d="M177 40L194.688 64L219 126L146 126C135.818 126 121.693 128.526 112 125.298C88.3959 117.437 70.2993 91.7074 46 86C46 108.002 44 130.01 44 152C44 158.949 41.6777 171.274 51 172C54.1505 159.536 77.9435 138.785 85.3966 159C87.5809 164.924 86 173.738 86 180L86 226L92 226L92 178L93.0278 158.174L106 147.373L122 137.519L137 149L145.397 159L146 180L146 226L152 226L152 180L152.603 159.09L167 146.627L188 131.728L219 131L219 253L146 253C135.637 253 121.976 255.35 112 252.49C88.0322 245.618 69.5293 221.614 46 213C46 234.328 44.0014 255.692 44 277C43.9997 281.809 41.931 295.624 46.5841 298.762C50.563 301.446 54.1609 292.156 56.108 290.004C64.4251 280.811 76.853 274.427 88 269.309C127.242 251.29 176.38 259 219 259L219 328C219 333.064 216.6 347.691 221.545 350.914C224.907 353.105 231.716 340.295 234.004 338.004C243.921 328.07 262.455 313.533 277 312.105C301.172 309.732 326.701 312 351 312L500 312L500 338L506 338C506 330.949 503.639 318.756 508 313L508 312C501.746 299.005 506 276.333 506 262L506 166C506 153.193 502.74 135.195 506.699 123C516.083 94.096 540.559 70.3029 549 41C525.649 41 502.389 39 479 39C474.185 39 458.894 36.5265 456.137 41.4151C454.123 44.9859 467.69 53.7996 469.957 57C482.249 74.3559 489.196 95.2609 496.576 115C503.67 133.977 500 157.941 500 178L500 302C481.113 280.312 469.142 255.595 462 228L478 237C471.976 224.005 458.885 219.924 465.069 204C468.514 195.127 475.903 188.896 482.999 182.92C485.383 180.912 490.903 177.312 489.338 173.448C487.591 169.133 480.309 173.687 478 175.015C470.578 179.283 463.255 183.775 456 188.319C453.827 189.68 450.197 192.737 447.498 191.122C443.186 188.541 440.834 178.501 439.333 174C433.019 155.062 432.569 134.918 446.301 119.004C452.689 111.601 466.202 106.584 467 96C454.66 96.2901 442.147 106.924 432 113.319C408.887 127.885 385.642 146.343 361 158C358.026 141.981 361.252 126.378 372.3 114.039C376.014 109.892 393.117 100.777 391.248 94.3217C390.341 91.1856 385.944 92.7943 384 93.6458C377.027 96.6998 370.495 101.26 364 105.203C336.017 122.19 308.138 139.693 281 158L281 160L320 183L320 184L275 211L275 134C275 122.964 272.579 108.654 275.499 98C281.245 77.0374 303.413 61.8091 310 41L230 39.9606L177 40z"/>
<path style="fill:#ffffff; stroke:none;" d="M190 45C201.356 67.8282 215.113 88.5538 221 114C230.968 107.471 237.422 84.6625 242.753 74C244.69 70.1259 248.982 64.4594 248.799 60C248.617 55.5727 243.355 50.9692 239.999 48.6528C228.093 40.4354 203.847 45 190 45M263 45L257.488 59L271 89L273 89L300 47L263 45M469 45C483.054 67.5672 494.425 89.652 503 115L504 115L539 47C517.412 41.8604 491.173 45 469 45M247 46L252 53L253 53L256 47L247 46M253 66L233.753 104L224.39 124L224 154L224 215L224 253L225.028 268.91L239 281.119L269 304L269 267L267.972 252.529L240 234C247.108 230.638 265.221 222.164 268.397 214.79C272.593 205.045 269 186.617 269 176C269 142.362 278.236 92.9551 253 66M52 96L51 127L101 127L101 126L52 96M364 112L292 158L292 160C302.15 164.745 313.877 177.328 325 178.789C332.162 179.729 339.286 170.489 345.995 168.677C353.056 166.771 349.927 173.628 346.98 176.196C345.699 177.312 344.328 178.338 343.002 179.398L336 185L336 186C344.373 192.083 360.517 205.568 371 202L354.09 152L357.465 126L364 112M439 116L367 162C372.207 168.119 391.755 182.164 400 182.164C404.7 182.164 410.095 177.292 414 175.012C415.94 173.879 426.264 167.055 427.079 172.271C428.049 178.486 413.701 184.681 411 190C422.192 196.874 429.481 204.932 442 198C438.622 179.05 427.654 164.486 429.09 144C429.823 133.532 437.883 125.494 439 116M50 133L50 159L71 144L71 142C64.4766 137.368 58.1118 133.663 50 133M69 133L69 134C78.4487 140.216 81.0753 138.132 91 134L69 133M82 144L89 152L90 152L114 134C104.863 130.203 90.4855 140.708 82 144M129 133L129 134L149 152L150 152L174 134C162.299 129.09 141.742 133 129 133M363 168L376 197L394 187L363 168M323 188C312.482 195.647 300.981 202.088 290 209.053C285.773 211.734 278.575 214.724 276.028 219.185C273.215 224.109 273.072 245.145 276.603 249.621C280.463 254.512 288.756 257.668 294 260.95C308.094 269.772 322.736 280.423 338 287C324.932 263.439 312.034 242.023 314.09 214C314.732 205.255 323.664 195.699 323 188M331 190C319.389 203.659 319.654 217.246 320 234C332.458 227.064 350.914 217.994 360 207L331 190M380 202L390 216L400 191L380 202M456 209L457 209L465 191C453.897 194.538 450.633 198.901 456 209M405 194C399.639 203.677 393.631 214.602 397 226C406.448 222.419 420.56 213.793 427 206L405 194M439 207L454 216L446 203L439 207M372 208L378 211L375 206L372 208M402 230L403 232L403 233L398 233L398 234C424.856 252.117 452.755 275.165 482 289C474.454 275.394 466.408 262.736 461.054 248C458.506 240.988 459.036 230.44 455.012 224.329C452.026 219.794 438.507 211.319 433 211.502C423.298 211.825 410.403 225.322 402 230M328 237L414 289C409.014 275.845 399.757 264.595 395.079 251C392.984 244.913 392.971 237.485 387 234C393.568 224.825 374.911 212.399 366 212.668C361.701 212.798 357.417 216.745 354 218.997C345.655 224.496 334.4 229.275 328 237M268 223L251 234L269 245L268 223M52 224C47.4938 242.927 50 266.52 50 286C67.2336 274.218 83.9607 262.821 104 256C91.0372 244.697 68.372 229.217 52 224M322 241C327.922 259.201 336.76 275.624 348.155 291C351.834 295.965 357.003 304.174 363.001 306.397C368.914 308.588 377.746 307 384 307L431 307L431 306L358 261.8L322 241M398 241C403.144 259.118 412.037 275.84 423.155 291C426.72 295.862 431.53 303.99 437.285 306.397C442.368 308.522 450.553 307 456 307L497 307L497 306L398 241M275 257L275 307L358 307L308 276L275 257M226 279L225 337L265 310C256.733 298.775 238.483 285.218 226 279z"/>
</svg>
