<?xml version="1.0" standalone="yes"?>
<svg xmlns="http://www.w3.org/2000/svg" width="906" height="371">
<path style="fill:#ffffff; stroke:none;" d="M0 0L0 371L906 371L906 0L0 0z"/>
<path style="fill:#000000; stroke:none;" d="M168 11L105 70.2855L80 92.8256L33 100C38.4049 109.488 50.9887 120.347 53.3032 131C54.5257 136.626 43.2127 144.18 47.071 149.239C49.4635 152.376 56.0236 147.91 59 147.559C67.045 146.608 79.267 150.263 87 152.725C95.3545 155.384 101.532 162.969 108 168.576C122.14 180.831 136.043 193.372 150 205.834C154.423 209.783 166.448 224.297 172.851 222.048C177.452 220.432 174.828 213.602 175.304 210C176.587 200.293 181.623 188.166 186.966 180.001C192.413 171.677 202.493 165.163 210 158.729C225.361 145.563 241.12 132.706 256 119L256 284C247.845 283.391 241.227 275.914 235 271.119C220.172 259.7 204.245 242.29 187 235C187 261.033 186 286.942 186 313C186 317.744 183.394 335.378 188.274 337.824C191.8 339.592 197.905 325.519 200.174 323.004C212.626 309.199 232.065 298.184 249 290.797C253.529 288.821 256.5 290.872 261 290.416C273.011 289.2 284.822 289 297 289L405 289L405 336L411 336L411 183L411 144C411 139.415 409.645 132.193 412.603 128.329C418.146 121.088 431.705 119.144 440 117.13C465.753 110.875 493.556 107.643 520 106.985C530.099 106.734 540.95 104.22 551 105.177C582.07 108.136 614.686 120.145 645 127.626C687.6 138.139 730.4 147.861 773 158.374C795.88 164.021 820.518 173.082 844 175L844 176L776 191.349L615 229C616.959 204.213 628.56 180.292 642.344 160C648.159 151.439 655.848 143.923 661 135L632 151.319L581 182L612 135C596.03 139.698 580.216 153.167 566 161.797C535.672 180.208 505.23 198.431 475 217C480.11 223.183 489.507 229.16 497 232L497 233L422 214C422 246.143 424.113 279.006 427.17 311C427.898 318.619 428.253 326.488 429.809 333.999C430.343 336.581 431.256 340.985 434.83 340.534C438.561 340.063 439.123 333.665 440.554 331C444.229 324.159 450.297 318.321 456 313.17C471.641 299.042 489.402 287.472 507 276C514.758 270.943 524.096 263.046 533 260.358C538.172 258.797 543.966 264.71 548 267.308C560.661 275.463 573.127 283.978 586 291.797C589.012 293.627 601.598 303.334 604.712 298.393C607.542 293.902 597.674 287.786 595 285.611C582.461 275.416 571.748 264.192 568 248C589.154 262.271 610.384 276.493 632 290.05C634.715 291.753 652.627 304.63 653.534 296.866C654.284 290.447 639.105 281.996 635 277.985C622.962 266.224 615.352 252.077 615 235C637.484 232.096 659.907 224.721 682 219.651C722.018 210.467 762.138 201.463 802 191.626C816.623 188.017 831.321 184.717 846 181.349C849.2 180.614 859.138 179.937 858.534 175.089C857.884 169.875 840.293 168.334 836 167.349C811.275 161.675 786.61 155.526 762 149.373C713.766 137.315 665.272 126.287 617 114.374C597.412 109.54 571.97 107.889 554 98.6968C544.609 93.8933 536.401 83.3659 529 76.0008C516.642 63.7026 503.339 52.3192 491 40C483.899 32.9105 476.184 23.2818 467 19L443 58L442 58L459 26C425.641 26 389.003 18.8731 356 25C356.591 32.6513 366.718 36.1455 371.331 42C380.96 54.2198 389.887 70.9633 394 86L329 86C321.17 86 308.104 88.4905 301 84.973C284.164 76.6364 274.673 54.8466 257 48L256 106L206 69.8734L182.728 51.8264L168 11z"/>
<path style="fill:#ffffff; stroke:none;" d="M166 22L142 47L175 51L166 22M469 28L436.576 79L413 119C456.566 108.676 498.77 100 544 100L507 63.9105L469 28M370 30C385.832 53.9388 397.632 77.1233 408 104L409 104L449 32L370 30M154 200L139 178C151.877 177.447 172.26 177.429 184 172.076C192.443 168.227 200.08 159.245 207 153.155C221.862 140.077 236.77 125.299 253 114C248.332 104.808 234.167 98.2394 226 92.1266C201.58 73.8497 171.666 44.6332 138 53.2855C126.903 56.1376 119.026 65.1854 111 73.0146C102.372 81.4315 87.3031 91.1777 83.446 103C81.5157 108.916 85.795 117.359 87.6667 123C90.332 131.033 91.5518 141.671 96.0887 148.83C100.623 155.985 109.631 161.924 116 167.424C128.21 177.967 140.03 191.925 154 200M441 58L437 66L438 66L441 58M263 61C263 74.5083 256.791 98.5881 265 110L266 110L294 89C287.351 79.5674 273.457 65.8766 263 61M436 67L434 71L435 71L436 67M433 72L434 73L433 72M430 77L431 78L430 77M405 142C404.999 137.087 402.672 132.484 402.688 127.961C402.725 118.023 407.546 100.635 396.501 93.0278C390.561 88.937 374.116 92 367 92C343.211 92 309.316 85.5435 289 99.0038C284.424 102.035 273.8 107.337 272.346 113.015C271.428 116.597 275.725 119.433 278.001 121.424C284.845 127.414 291.845 136.744 300 140.821C307.864 144.753 322.322 142 331 142L405 142M44 104L58 126L60 126L78 100L44 104M78 115L72 143L89 147C86.7664 137.345 83.9493 122.953 78 115M266 119C260.832 128.226 261.811 140.695 262.005 151C262.083 155.163 263.649 161.046 269.001 160.922C276.126 160.756 287.771 148.826 294 145L294 143L266 119M69 122L70 123L69 122M68 124C64.5989 128.815 62.8512 131.603 66 137L67 137L68 124M58 138L56 142L62 142L60 138L58 138M405 192L405 147L337 147L303 147.275L281.001 160.156L275.207 166.925L281.001 174.035L302 191.436L334 192L405 192M637 155C614.485 171.357 576.613 181.056 569.375 210C568.159 214.862 561.869 236.764 568.318 239.306C571.458 240.544 576.849 238.275 580 237.576C589.626 235.438 599.224 232.316 609 231C609.782 212.778 616.171 195.152 624.247 179C627.762 171.97 636.102 162.576 637 155M587 156C555.167 177.064 520.562 200.844 486 217C501.123 235.299 535.952 250.695 559 242L524 217C537.817 210.542 558.822 200.285 569.502 189.39C573.603 185.207 575.554 178.081 578.424 173C581.188 168.109 587.011 161.681 587 156M263.333 166.667L263.667 167.333L263.333 166.667M294 195C291.945 190.941 288.297 188.15 285 185.035C282.073 182.27 278.977 179.692 276 176.98C260.752 163.09 261.996 195.596 262 204C262.001 206.881 261.118 213.081 265.148 213.824C268.462 214.435 271.718 210.47 274 208.615C280.211 203.567 287.007 198.893 294 195M150 183C154.154 191.742 161.484 202.881 169 209L180 179L150 183M580 182L581 183L580 182M271 221L301 246.4L333 247L405 247L405 197L335 197C324.718 197 312 194.977 302 197.418C291.942 199.874 275.34 211.7 271 221M565 199L535 217L560 235L565 199M428 221L430.961 278L435 327L436 327C450.402 301.966 481.478 285.333 505 270C512.648 265.014 523.053 260.943 529 254C499.991 234.43 461.424 230.485 428 221M266 224C259.08 238.829 262 258.963 262 275L294 251C289.39 241.141 274.863 230.244 266 224M576 244L591 256L625 278C617.221 264.344 610.278 253.17 609 237L576 244M193 247L191 323C208.397 309.697 223.252 295.638 244 287C232.16 272.362 209.367 256.325 193 247M531 248L532 249L531 248M542 254L542 256L576 278L562 248L542 254M533 249L533 250L537 251L533 249M264 284L405 284L405 253L335 253C324.552 253 311.069 250.744 301 253.638C287.758 257.444 270.065 271.824 264 284z"/>
</svg>
