<?xml version="1.0" standalone="yes"?>
<svg xmlns="http://www.w3.org/2000/svg" width="583" height="371">
<path style="fill:#ffffff; stroke:none;" d="M0 0L0 371L583 371L583 0L0 0z"/>
<path style="fill:#000000; stroke:none;" d="M52 28C52 48.389 51 68.6153 51 89C51 93.4222 48.8588 105.942 52.7269 108.953C56.8542 112.166 61.2546 100.339 63.3009 98.0394C72.6808 87.5004 87.967 78.5887 101 73.3518C105.734 71.4495 110.998 72 116 72C121.279 72 129.171 70.556 133.985 73.0278C140.299 76.2694 143.263 85.0309 146.247 91C157.013 112.536 157 130.409 157 154L121 154C115.755 154 108.987 155.107 104 153.262C85.8268 146.537 70.514 126.284 54 116C51.4785 126.591 53.4344 138.181 52.9606 149C51.8992 173.24 51 197.727 51 222C51 229.997 50.892 238.003 51.0039 246C51.0379 248.435 50.7848 253.086 54.1196 253.534C57.8385 254.034 60.4929 245.404 62.4684 243.015C69.8081 234.138 81.1063 228.014 91 222.424C110.135 211.614 135.545 216 157 216L157 297L120 297L103 296.143L53 259C52.9431 279.62 51 300.368 51 321C51 324.959 49.1875 338.658 54.2562 340.248C57.8306 341.37 59.7996 334.064 61.3943 332C67.3856 324.246 75.6947 318.46 84 313.45C106.993 299.579 130.922 303 157 303L157 310L163 310L163 303L202 303L202 309L207 309L207 303L245 303L245 310L250 310L250 303L289 303L289 310L295 310L295 303L373 303L373 328L379 328L379 303L501 303L501 327L507 327L507 188C507 167.359 503.034 142.151 507.39 122C513.531 93.5931 540.89 70.6673 546 42C524.3 42 502.693 40 481 40C476.866 40 462.341 37.9164 460.752 43.26C459.821 46.3879 464.078 48.1852 466.001 49.6335C471.459 53.7448 475.323 59.7961 478 66L408 66L418 44C396.529 41.2866 373.64 41.1037 352 41.0008C348.231 40.9828 333.125 39.9188 332.466 45.0401C332.031 48.4191 336.842 49.8824 338.91 51.5571C343.591 55.3457 346.674 61.0706 350 66L325 66L325 63C276.828 63 228.105 58.9327 180 61.0394C164.516 61.7175 148.373 59.4002 133.004 61.1744C122.856 62.3458 115.546 68.4427 104 65.686C98.2195 64.3059 92.5892 58.3873 88 54.7901C76.8498 46.0504 64.9519 33.7712 52 28z"/>
<path style="fill:#ffffff; stroke:none;" d="M58 40L57 95L95 69C86.1886 58.1756 70.1298 46.9111 58 40M473 46L504 112C517.94 95.1765 528.603 68.1691 537 48L473 46M344 47C347.419 52.0046 352.172 61.8503 357.329 64.9722C364.463 69.2913 381.737 66 390 66C393.057 66 397.707 66.8265 400.363 64.9722C404.524 62.0669 407.1 53.5632 409 49L344 47M143 72L160 107L161 107L181 72L143 72M189 72L204 101L206 101L223 73L189 72M231 73L247 107C255.207 101.981 265.863 81.3416 268 72L231 73M276 72L292 103L293 103L313 72L276 72M295 154L373 154C373 131.072 370.384 113.458 361.8 92C359.733 86.8334 357.474 76.1662 352.606 73.0278C348.449 70.347 339.779 72 335 72C330.761 72 324.099 70.7639 320.326 73.0278C316.942 75.0578 314.793 79.8099 312.667 83C307.306 91.0404 297.209 101.44 295.278 111C292.591 124.301 295 140.422 295 154M360 72L375 113L382.309 102L397 72L360 72M379 154L501 154C501 131.405 498.917 114.296 490.95 93C488.911 87.5498 486.303 76.4788 481.363 73.0278C474.873 68.4948 455.857 72 448 72L418 72C414.309 72 408.807 70.9968 405.39 72.6034C399.986 75.1447 396.307 86.8931 393.753 92C389.108 101.289 381.59 111.823 379.39 122C377.248 131.91 379 143.869 379 154M184 78L163.649 114L163 154L202 154L201.471 110L186 78L184 78M272 78L250.649 116L250 154L289 154C289 127.372 292.147 99.0539 272 78M227 79C220.857 88.1052 211.182 98.5613 207.702 109C203.492 121.629 207 140.694 207 154L245 154C245 128.46 245.993 99.2873 227 79M59 128C59 140.369 58 152.61 58 165C58 168.385 56.7392 176.328 61.1481 177.655C64.4642 178.653 68.5759 174.032 71 172.298C79.071 166.524 87.8274 160.839 97 157L97 156L59 128M67 182C73.7341 190.779 91.3919 205.993 102 209.436C117.312 214.405 140.869 210 157 210L157 160C140.624 160 118.746 156.168 103 160.637C89.7201 164.406 78.2584 174.56 67 182M163 160L163 210L202 210L202 160L163 160M207 160L207 210L245 210L245 160L207 160M250 160L250 210L289 210L289 160L250 160M295 160L295 210L373 210L373 160L295 160M379 160L379 210L501 210L501 160L379 160M57 239L95 213L71 193.375L61.51 189.737L57.0154 203L57 239M163 216L163 297L202 297L202 216L163 216M207 216L207 297L245 297L245 216L207 216M250 216L250 297L289 297L289 216L250 216M295 216L295 297L373 297L373 216L295 216M379 216L379 297L501 297L501 216L379 216M58 271L57 326L96 299L58 271z"/>
</svg>
