<?xml version="1.0" standalone="yes"?>
<svg xmlns="http://www.w3.org/2000/svg" width="593" height="371">
<path style="fill:#ffffff; stroke:none;" d="M0 0L0 371L593 371L593 0L0 0z"/>
<path style="fill:#000000; stroke:none;" d="M500 91L254 92L181 92L147 91.4861L131 80L94 51L90 294C66.3355 294 50.5497 264.684 32 252C32 274.649 31 297.294 31 320C31 326.882 27.8108 340.284 37 341C41.3564 320.172 69.4557 300 90 300C90.0288 302.438 89.598 307.518 93.0394 307.963C96.7827 308.447 98.527 300.858 103.005 300.148C116.011 298.087 130.823 300 144 300L319 300L319 330C319.001 332.466 318.097 338.238 321.26 339.248C325.582 340.63 327.157 329.571 328.493 327C333.178 317.984 344.642 300.915 355 298.318C369.829 294.6 389.689 298 405 298L511 298L511 327L517 327L517 185C517 163.847 512.766 137.611 517.394 117C519.092 109.434 525.438 101.607 529.4 95C540.55 76.4053 557.46 55.6585 564 35C538.139 34.4661 511.813 33.8555 486 32.0895C481.93 31.811 462.636 31.0685 462.636 36.8341C462.636 39.9774 475.104 47.0396 477.535 50C487.056 61.5909 495.167 76.8077 500 91z"/>
<path style="fill:#ffffff; stroke:none;" d="M476 38C484.742 50.5584 493.612 62.0129 500.219 76C502.609 81.0599 504.34 90.0316 510 92L514 108L535.4 73L554 40L476 38M99 63L98 103L100 121L101 121L139 95C128.408 83.854 112.655 70.0463 99 63M463 98L480 140L481 140L501 97L463 98M106 125C118.124 133.684 132.881 148.544 147 153.297C153.186 155.379 161.532 154 168 154L212 154L358 154C356.62 138.195 346.333 106.866 331.424 99.2284C326.547 96.73 319.331 98 314 98L274 98L188 98C175.091 98 159.619 95.6625 147 98.3904C133.577 101.292 114.223 114.255 106 125M395 141C401.428 133.242 405.135 122.122 409.309 113C410.783 109.778 413.693 105.697 411.929 102.059C406.451 90.7608 385.604 98.8118 384.742 110C383.999 119.648 393.526 131.161 395 141M436 140L456 99L431 98L422.472 100.318L424.22 111L436 140M342 99L361 142C367.658 133.964 383.568 108.767 370.674 101.028C364.061 97.0581 349.588 99 342 99M378 100L380 104L381 104L382 100L378 100M505 103L483.39 149L483 196L483 293L511 293L511 158C511 141.447 515.526 117.068 505 103M459 105L438.39 149L438 196L438 293L477 293L477 169C477 149.249 474.043 119.884 459 105M417 111C410.42 122.274 401.157 137.204 398.39 150C395.272 164.427 398 182.235 398 197L398 293L432 293L432 177C432 155.206 431.857 128.934 417 111M380 118L364.39 151L364 197L364 293L392 293L392 177C392 157.857 392.879 133.941 380 118M101 130C96.1653 142.971 92.5465 168.801 104 178L105 178C115.13 170.214 127.618 161.567 140 158C134.9 148.537 111.444 132.476 101 130M110 181L110 182L146 206.487L167 207L212 207L358 207L358 160L220 160C197.602 160 169.808 155.525 148 160.529C134.678 163.587 121.154 173.476 110 181M97 180L97 185L98 185L97 180M139 210C131.883 202.763 122.255 197.463 114 191.579C111.114 189.522 106.948 185.436 103.188 187.711C93.6447 193.487 96.755 209.013 95.5756 218C94.9858 222.494 94.0711 229.377 100.019 230.783C103.928 231.707 108.035 227.331 111 225.355C119.918 219.411 129.783 215.38 139 210M107 235L107 236C117.352 244.829 133.083 258.949 146 263.297C160.968 268.335 184.195 264 200 264L320 264L320 249L331.464 262.972L358 264L358 213L211 213C190.936 213 166.605 209.221 147 213.39C133.3 216.303 117.937 226.594 107 235M101 240C91.9878 253.795 95 277.857 95 294L139 267C130.816 257.097 112.849 244.984 101 240M37 265L36 325L72 297L72 296L37 265M105 293L105 294L319 294L319 270L200 270C183.336 270 161.024 266.089 145 270.637C130.947 274.626 116.727 284.601 105 293M325 270L325 319C330.463 314.012 342.523 302.885 344.745 296C346.764 289.739 330.948 270.999 325 270M336 270C340.536 277.963 348.004 292.673 358 293L358 270L336 270z"/>
</svg>
