<?xml version="1.0" standalone="yes"?>
<svg xmlns="http://www.w3.org/2000/svg" width="468" height="371">
<path style="fill:#ffffff; stroke:none;" d="M0 0L0 371L468 371L468 0L0 0z"/>
<path style="fill:#000000; stroke:none;" d="M375 90C314.897 90 254.94 89 195 89C177.78 89 160.213 88.2856 143 89.0394C131.895 89.5257 119.986 91.7054 109 88.8148C84.1684 82.2812 64.1564 58.844 40 50C40 120.667 34.2098 191.423 36.9599 262C37.5737 277.753 36 294.125 36 310C36 313.757 34.1848 324.472 37.7377 326.914C41.0348 329.179 50.9588 315.196 54 313.043C68.3849 302.859 92.1682 289.791 110 288.104C139.435 285.32 170.421 288 200 288L382 288L382 282L272 282L272 219L382 219L382 213L272 213L272 156L386 156L386 327L392 327L392 185C392 163.847 387.766 137.611 392.394 117C394.092 109.434 400.438 101.607 404.4 95C415.55 76.4052 432.46 55.6585 439 35C413.139 34.4661 386.813 33.8555 361 32.0895C356.93 31.811 337.636 31.0685 337.636 36.8341C337.636 40.0109 349.315 46.2287 351.7 49.0008C361.959 60.9244 368.33 75.9229 375 90z"/>
<path style="fill:#ffffff; stroke:none;" d="M351 38C366.838 60.7511 377.292 82.9699 389 108L410.4 73L429 40L351 38M46 60C45.9916 72.678 46.0324 86.3676 44.8302 99C44.3722 103.813 42.015 111.198 47.1481 114.272C51.8568 117.091 55.994 113.615 60 111.204C69.9184 105.234 80.5725 100.935 91 96C90.8491 92.0029 92.0697 90.6425 96 90L96 89L46 60M105 97L125 137C131.241 130.356 135.618 120.899 140.15 113C141.729 110.246 144.858 106.384 144.172 103.004C141.953 92.0634 112.601 93.7925 105 97M169 137C176.973 131.882 182.659 117.206 187.28 109C189.093 105.78 191.952 101.834 188.667 98.5725C183.002 92.9489 155.362 91.5282 153.974 102.001C153.46 105.873 156.957 109.798 158.691 113C162.738 120.469 166.664 128.829 169 137M217 137L240 97C230.4 94.6349 220.814 94.9956 211 95C207.331 95.0016 202.694 94.3505 200.617 98.1481C198.538 101.947 201.439 105.749 203.281 109C208.253 117.778 210.992 129.054 217 137M248 96L269 137L270 137L294 96C279.595 96 261.903 91.8905 248 96M272 150L386 150C386 135.01 390.044 108.051 377.351 96.6034C371.775 91.5747 352.301 95 345 95C333.68 95 312.63 90.8792 302.379 95.6034C298.116 97.5681 295.281 105.135 293.011 109C286.181 120.627 272.407 136.251 272 150M148.667 96.3333L149.333 96.6667L148.667 96.3333M58 119L58 121C79.2523 130.934 97.801 150 122 150C121.702 137.279 113.481 122.846 107.28 112C105.182 108.33 102.468 101.944 97.9599 100.789C94.4333 99.8847 90.118 102.664 87 104.001C77.0133 108.283 67.0854 113.008 58 119M244 102C237.439 117.226 219.877 133.135 219 150L266 150C265.241 135.213 254.144 112.601 244 102M195 107C187.797 118.767 172.922 136.129 172 150L213 150C212.713 136.547 203.769 117.093 195 107M149 109C142.025 120.395 128.327 136.427 128 150L167 150C165.918 137.683 157.448 118.023 149 109M45 120L46 121L45 120M101 152C89.0828 144.972 77.029 138.12 65 131.281C61.6151 129.356 55.2118 123.922 51.0941 125.302C40.4553 128.87 44 156.502 44 165C44 168.245 42.6369 175.924 46.3179 177.677C50.2334 179.541 56.8543 173.103 60 171.204C72.9158 163.404 88.4276 159.949 101 152M54 183C75.9662 194.57 96.5913 213 122 213L122 156C104.08 156 88.9212 162.793 73 170.753C66.2925 174.106 58.8635 177.115 54 183M128 156L128 213L167 213L167 156L128 156M172 156L172 213L213 213L213 156L172 156M219 156L219 213L266 213L266 156L219 156M41 245L67 229.259L99 215C86.7917 207.8 74.292 201.064 62 194C58.788 192.154 52.1769 186.587 48.2739 188.242C43.8918 190.099 42.081 197.849 42.0046 202C41.7406 216.358 41 230.658 41 245M48 249C73.1546 259.839 93.7329 282 122 282L122 219C102.639 219 86.2234 226.141 69 234.753C61.5659 238.47 53.1695 242.302 48 249M128 219L128 282L167 282L167 219L128 219M172 219L172 282L213 282L213 219L172 219M219 219L219 282L266 282L266 219L219 219M44 253C38.5739 271.35 41 295.899 41 315C59.4756 302.791 77.827 292.163 99 285C85.1751 272.055 61.1843 261.023 44 253z"/>
</svg>
