<?xml version="1.0" standalone="yes"?>
<svg xmlns="http://www.w3.org/2000/svg" width="577" height="371">
<path style="fill:#ffffff; stroke:none;" d="M0 0L0 371L577 371L577 0L0 0z"/>
<path style="fill:#000000; stroke:none;" d="M104 45C92.8019 59.6972 79.2762 72.9214 67.2716 87C60.9526 94.4107 51.6549 106.98 68 102C55.565 114.697 43.8951 128.424 32.4244 142C29.26 145.745 21.5046 152.349 22.4267 157.848C23.2228 162.595 33.461 157.97 37 158.673C49.6719 161.188 66.0825 167.896 75.9097 176.379C82.6125 182.165 87.5797 190.942 92.8735 198L125.873 242C136.606 256.31 152.462 271.726 159.86 288C164.637 298.507 161 317.523 161 329C161 332.434 159.648 340.971 164.184 342.248C167.753 343.253 169.215 338.164 170.698 335.999C174.56 330.365 180.27 326.002 186 322.425C208.36 308.469 237.083 295.014 263 289.518C272.104 287.587 282.716 289 292 289L348 289L524 289L524 283L347 283L291 283L264 282.606L214 257L214 255C241.337 242.222 267.92 224.897 298 218.518C306.8 216.652 317.027 218 326 218L382 218L558 218L558 212L381 212L325 212C316.115 212 305.698 213.491 297 211.61C287.846 209.63 278.16 202.384 270 197.861C247.456 185.364 221.75 167.13 197 160L195 219L194 219L173.873 191L135.627 140L117.442 115L113.754 95L106 45L104 45z"/>
<path style="fill:#ffffff; stroke:none;" d="M101 58C90.5919 68.8749 75.2813 82.2871 69 96L110 111L105 76L101 58M71 102L77.5756 149L81.7647 172L106.627 206L161 279L162 279L163 230L194 246C194.014 240.979 195.969 234.817 194.435 230C190.052 216.239 174.033 201.546 165.373 190C153.653 174.373 142.092 158.626 130.373 143C124.71 135.448 119.305 125.545 111.91 119.61C100.837 110.722 84.7558 104.839 71 102M65 114L33 152L74 167L69 131L65 114M203 170C201.021 176.697 202.264 184.073 201.961 191L200.039 233C199.795 238.591 197.672 250.213 205.019 251.886C211.166 253.285 221.531 243.536 227 240.756C246.837 230.672 267.767 224.011 288 215L249 193.691L203 170M169 240L166 329C174.171 325.212 181.046 317.98 189 313.427C208.862 302.06 232.64 291.173 255 286C246.018 278.551 233.397 273.532 223 268.244C219.036 266.227 214.488 262.392 210.015 261.786C204.037 260.977 202.221 273.685 197.302 271.079C192.519 268.545 195.685 257.619 192.973 253.39C189.236 247.562 175.427 242.034 169 240M200 256L200 260L201 260L200 256z"/>
</svg>
