<?xml version="1.0" standalone="yes"?>
<svg xmlns="http://www.w3.org/2000/svg" width="547" height="371">
<path style="fill:#ffffff; stroke:none;" d="M0 0L0 371L547 371L547 0L0 0z"/>
<path style="fill:#000000; stroke:none;" d="M286 24C274.396 31.8217 264.552 31 251 31C246.444 31 236.083 29.1083 232.647 32.7377C227.295 38.3931 249.183 44.5878 241.718 52.3912C230.77 63.8362 212.198 71.5513 199 80.3333C161.535 105.262 122.746 128.013 85 152.656C72.714 160.677 60.4354 168.789 48 176.576C42.1796 180.22 34.2071 183.723 31 190C61.6602 207.466 88.9911 231.164 119 249.808C126.035 254.178 132.7 259.196 140 263.133C142.189 264.314 146.999 266.937 148.673 263.551C151.617 257.595 132.767 245.886 129.289 241.985C126.548 238.911 123.933 235.577 121.88 232C109.273 210.04 131.045 203.025 148 195L148 232L154 232L154 192L175 191L175 232L181 232L181 191L202 191C202 201.117 205.396 218.503 201.397 227.79C199.469 232.266 191.896 235.404 188 238C176.227 245.845 164.359 254.119 152 261L152 263C179.04 281.394 205.785 300.19 233 318.333C243.415 325.276 257.114 338.303 270 339L270 342L276 342L276 275C276 265.666 273.706 252.718 277.363 244C284.972 225.866 305.991 213.117 322 203.192C327.888 199.541 334.278 194.57 341 192.638C357.251 187.968 380.082 192 397 192L517 192L517 186L393 186L357 186C351.789 186 344.94 187.143 340 185.258C330.023 181.45 319.99 168.878 312 161.845C303.349 154.23 294.619 146.702 286 139.05C282.17 135.65 276.986 132.445 276.148 127C274.627 117.118 281.747 106.615 285.691 98C295.224 77.181 307.962 55.0758 314 33L282 32L286 24z"/>
<path style="fill:#ffffff; stroke:none;" d="M244 37L250 47L266 38L244 37M273 109L274 109L305 39C299.549 37.3886 282.341 35.0953 277.464 38.0285C272.524 40.9993 269.298 48.2735 266.319 53C263.824 56.9576 259.397 62.0483 259.742 67C260.724 81.0527 270.907 94.8251 273 109M262 47C257.027 50.0685 254.04 51.7877 255 58L262 47M169 107L169 109L211 137.157L228 139L223 146L249 163C240.886 143.45 233.707 130.066 237.615 108C240.421 92.1545 254.799 72.0628 249 57L225 70.8079L169 107M255 74C237.559 104.647 234.172 151.868 269 172C269 145.141 271.072 122.115 263.424 96C261.357 88.941 259.428 79.9197 255 74M158 108L136 139L200 138C190.2 126.142 171.124 116.099 158 108M135 127C106.194 149.142 72.7747 170.377 41 188L66 206.424L122 244C117.87 236.551 112.975 229.383 110.899 221C105.951 201.023 112 180.214 112 160L118 162L135 127M276 139L277 180L281 179C271.237 192.383 276 216.88 276 233L277 233C289.281 215.04 313.1 198.575 333 190L333 188L276 139M198 143L205 159L214 146L198 143M142 144L151 160L162 146L142 144M170 145L178 160L189 145L170 145M132 145L123 166L148 180C148 166.983 145.342 151.239 132 145M193 150C184.264 162.843 181 169.45 181 185L202 185C202 172.116 202.47 160.115 193 150M165 151C161.404 157.313 145.835 176.084 155.603 183.821C159.595 186.983 170.116 185 175 185C175 171.3 173.42 163.189 167 151L165 151M208 185L269 185C263.413 174.22 242.138 165.426 232 158.667C228.978 156.652 223.126 150.971 219.184 152.306C206.993 156.434 208 175.303 208 185M120 172L116 205L148 189C143.92 181.757 128.013 173.833 120 172M208 191L208 225L260 192L243 191L208 191M268 196C247.151 223.124 224.575 268.917 241.373 303C247.49 315.41 258.844 325.172 270 333C270 300.902 268.798 268.959 268.015 237C267.733 225.496 272.34 206.344 268 196M256 201L196 240.053L163 261C167.116 269.055 179.603 274.683 187 279.67C205.867 292.387 224.102 306.922 244 318C226.744 290.012 227.607 262.983 240.427 233C244.317 223.903 255.716 210.548 256 201z"/>
</svg>
