<?xml version="1.0" standalone="yes"?>
<svg xmlns="http://www.w3.org/2000/svg" width="405" height="371">
<path style="fill:#ffffff; stroke:none;" d="M0 0L0 371L405 371L405 0L0 0z"/>
<path style="fill:#000000; stroke:none;" d="M137 107C142.654 87.077 152.133 69.113 163.67 52C168.733 44.4897 175.861 38.0215 180 30L135 56.1998L43 112C52.0917 123.001 69.1097 131.073 81 139C97.9547 150.303 114.871 161.659 132 172.692C140.642 178.258 149.299 185.448 159 189L159 191L120 213.6L44 260L44 261C76.0945 282.832 108.023 305.32 141 325.808C148.657 330.565 156.074 335.823 164 340.134C166.223 341.343 171.852 344.551 173.338 340.678C174.59 337.416 171.114 334.454 168.981 332.615C162.584 327.102 155.843 322.253 150.093 316C135.546 300.181 135.14 282.025 136 262C165.39 284.59 197.845 304.241 229 324.308C236.516 329.149 244.036 334.424 252 338.506C254.092 339.579 258.986 341.911 260.338 338.552C262.946 332.071 244.9 321.729 241.004 317.961C225.638 303.096 222 285.513 222 265C252.889 285.838 283.892 306.488 315 326.997C322.151 331.711 329.467 336.474 337 340.557C339.14 341.717 343.834 344.278 345.762 341.393C349.159 336.312 336.06 328.462 333 325.999C317.69 313.677 308.351 297.79 307.09 278C305.367 250.959 321.602 221.256 336.671 200.019C338.919 196.85 342.73 196.15 344.801 193.401C347.741 189.499 350.65 182.554 353 178C349.008 179.174 344.138 183.607 340 183.194C336.052 182.799 331.845 178.187 329 175.711C318.358 166.451 310.543 154.924 307.666 141C302.142 114.262 314.801 85.2894 328.684 63C335.601 51.8956 346.631 41.7211 352 30L317 50.1998L226 105C230.046 85.4474 240.929 66.1168 252.427 50C257.692 42.6208 264.85 36.0417 269 28L226 53.1891L137 107z"/>
<path style="fill:#ffffff; stroke:none;" d="M244 49L174 91.8002L143 112L232 171L217.286 135L216 114L233.248 70L244 49M155 51C123.144 72.0789 88.5896 95.8315 54 112L80 130.859L144 173C140.248 166.261 135.364 160.322 132.695 153C124.375 130.174 129.381 106.856 138.201 85C142.086 75.3711 155.019 60.9188 155 51M327 51L227 112L227 114L287 154L316 172C297.848 144.439 297.419 116.349 310.012 86C313.272 78.1417 317.273 70.32 321.603 63C323.724 59.4162 327.4 55.2536 327 51M135 114C134.523 137.121 135.256 155.592 153.001 172.985C156.491 176.407 162.724 183.658 168 183.787C172.307 183.893 176.995 179.466 181 178C176.837 182.769 175.584 189.073 172.09 193.401C170.316 195.598 166.998 195.83 165.04 198.148C152.037 213.544 144.15 234.099 138 253L167 236.2L247 188L247 187C206.904 168.032 174.959 132.903 135 114M223 118C223 138.316 225.617 156.071 241.004 170.961C244.426 174.273 250.802 181.447 256 181.198C260.055 181.003 264.637 177.059 268 175C265.903 178.171 262.382 181.339 261.243 185C260.592 187.093 261.727 189.679 260.269 191.513C258.053 194.3 253.592 193.805 251.04 197.059C237.873 213.849 229.717 234.705 224 255L331 191L331 189L223 118M142 258L142 259L200 298L232 318C226.36 309.437 221.241 302.025 218.428 292C208.83 257.794 228.107 225.655 244 197L203 220.95L142 258M157 198L86 241.4L55 261L110 298L144 320C140.905 312.642 135.619 306.719 133.004 299C125.67 277.35 130.216 254.706 138.604 234C143.033 223.066 155.676 209.177 157 198M329 198C297.606 221.955 256.78 235.121 227 261C256.322 280.781 286.006 305.864 318 321C297.804 290.438 298.712 262.327 313.001 229C316.806 220.124 328.698 207.212 329 198z"/>
</svg>
