<?xml version="1.0" standalone="yes"?>
<svg xmlns="http://www.w3.org/2000/svg" width="590" height="371">
<path style="fill:#ffffff; stroke:none;" d="M0 0L0 371L590 371L590 0L0 0z"/>
<path style="fill:#000000; stroke:none;" d="M447 46C406.744 73.135 364.844 102.192 322 125C326.841 107.299 338.469 89.7098 349.152 75C353.929 68.4232 360.619 62.3821 364 55L321 81.3079L228 140C234.621 120.6 240.455 102.622 251.425 85C257.906 74.5896 270.116 64.429 274 53L220 83.7191L129 136C135.995 102.11 156.572 78.8593 175 51C157.393 55.0287 138.607 70.5176 123 79.5756C90.5463 98.4109 56.3197 115.341 25 136L25 137L96 184.344L133 208L133 209L83 237C91.7431 247.739 107.525 255.016 119 262.667C143.944 279.296 168.798 296.075 194 312.308C202.848 318.007 211.772 323.894 221 328.96C223.349 330.25 229.099 333.224 230.248 328.838C231.145 325.416 227.194 322.628 224.995 320.754C217.672 314.509 209.653 309.192 203.171 302C187.88 285.037 183.196 264.183 186 242C220.376 266.621 256.164 290.137 292 312.576C300.918 318.16 309.625 324.412 319 329.215C321.184 330.334 327.429 333.423 328.079 328.848C329.068 321.885 312.417 313.003 308 308.91C294.259 296.176 283.828 280.221 283 261C314.904 278.762 344.134 302.36 375 321.947C382.519 326.718 389.958 332.006 398 335.875C400.184 336.926 405.295 338.902 405.824 334.848C406.818 327.231 387.872 317.125 383.289 311.985C370.136 297.234 363.348 277.674 367 258C397.041 281.091 430.281 300.948 462 321.656C469.42 326.5 477.024 331.851 485 335.726C487.177 336.784 492.001 339.162 493.338 335.678C495.208 330.804 486.993 325.878 484 323.424C472.974 314.386 462.764 304.78 457.864 291C446.753 259.753 461.574 227.419 476 200L477 200C486.232 210 502.217 217.748 514 224.576C516.272 225.892 526.801 232.965 527.534 226.768C528.196 221.165 518.673 215.597 515 212.611C506.468 205.675 490.463 191.606 491.325 179C491.807 171.946 501.357 164.826 505 159L488 168C488 135.028 500.524 106.482 518.054 79C524.312 69.1898 534.299 60.5482 539 50C527.714 54.8697 517.41 63.0578 507 69.5756C471.991 91.4944 437.307 119.351 400 137C403.062 114.277 416.517 91.7313 429 73C433.349 66.4745 447.631 53.667 447 46z"/>
<path style="fill:#ffffff; stroke:none;" d="M316 142C330.665 151.894 345.28 161.853 360 171.667C364.466 174.644 372.346 182.378 378 181.763C382.778 181.244 392.297 175.049 392.762 169.96C393.543 161.434 391.086 152.683 392.439 144C396.828 115.84 410.425 93.3827 424 69C413.124 72.4656 402.561 81.4465 393 87.6566C375.786 98.8383 358.215 109.474 341 120.657C332.365 126.266 318.391 131.129 316 142M151 70L68 118.15L36 137L103 181.667L140 205C135.373 196.877 129.432 189.868 126.066 181C116.781 156.539 122.281 130.383 132.012 107C135.428 98.7903 139.608 90.6099 144.204 83C146.576 79.0719 150.847 74.6618 151 70M514 72L403 143C415.706 155.27 433.351 164.456 448 174.33C452.199 177.161 459.573 184.376 465 183.023C469.455 181.913 480.769 175.318 482.307 170.816C483.725 166.665 481.743 160.486 482.17 156C483.232 144.833 485.22 133.587 489.054 123C493.481 110.774 498.984 99.3444 505.309 88C508.045 83.0914 513.34 77.6053 514 72M250 73L136 139C146.821 149.363 161.542 157.028 174 165.333C178.353 168.235 184.648 174.402 190 174.88C194.072 175.243 198.647 171.191 202 169.281C210.479 164.45 227.911 158.271 217 147C223.711 144.189 223.215 135.326 224.884 129C228.485 115.353 234.431 102.23 241.427 90C244.116 85.2997 250.472 78.4788 250 73M339 77L229 147L229 149C240.978 157.148 252.952 165.286 265 173.333C268.706 175.809 274.207 181.542 279 180.728C285.352 179.649 302.572 170.155 305.976 164.671C310.609 157.207 310.445 143.618 302 140L302 138C317.674 131.237 321.112 109.089 329.15 95C332.165 89.7167 338.291 82.985 339 77M321 125L322 126L321 125M128 142C125.185 157.165 127.69 174.565 135.465 188C137.623 191.73 141.255 199.299 146.015 200.003C149.633 200.539 154.036 196.843 157 195.15C165.913 190.063 174.703 184.34 184 180L163 164.667L128 142M398 148L399 169L414 160L414 158L398 148M314 149L313 161L324 156L324 154L314 149M271 186L271 184C260.598 178.203 250.921 170.614 241 164C238.348 162.232 232.8 156.921 229.318 158.306C225.436 159.849 227.428 167.076 227.921 170C229.326 178.338 233.886 195.811 242.326 199.867C248.337 202.757 265.623 189.171 271 186M372 187C362.65 178.045 349.772 171.518 339 164.333C335.716 162.143 330.26 156.592 326.039 158.748C309.902 166.987 314.16 185.687 321.616 198C323.919 201.804 327.976 209.473 333.001 209.887C336.866 210.205 341.932 205.649 345 203.657C353.724 197.99 362.603 191.446 372 187M457 189L457 187C447.319 180.469 437.709 173.818 428 167.333C425.12 165.41 419.937 160.393 416.17 161.447C413.364 162.231 411.164 165.882 409.424 168C399.815 179.701 403.081 186.868 412.44 198C415.247 201.339 420.121 207.773 425 207.734C434.871 207.654 448.071 193.224 457 189M221 167C217.145 171.456 208.977 179.654 208.817 185.907C208.733 189.22 212.639 190.931 215.001 192.424C221.638 196.62 229.912 205.025 238 205L221 167M208 172L196 180C202.093 183.641 208.642 179.447 208 172M306 172L284 185L295 193L306 172M392 180L383 187L388 189L392 180M479 181L470 187L470 189C475.165 190.725 479.01 186.18 479 181M308 182L300 197L325 213L308 182M151 205C154.221 211.61 161.686 215.291 166.995 220.171C168.745 221.779 172.636 224.838 171.654 227.667C169.869 232.81 158.297 224.121 156 222.681C151.314 219.743 144.717 213.709 139 213.488C134.25 213.305 128.939 217.736 125 220C115.102 225.688 105.34 232.172 95 237C99.7557 246.308 115.411 252.941 124 258.667C148.71 275.14 173.054 293.555 199 308C195.052 300.266 188.94 294.048 185.312 286C177.32 268.272 177.489 247.474 182.71 229C185.755 218.226 189.753 208.019 194.753 198C196.588 194.324 199.533 190.196 195.809 186.765C190.634 181.999 186.172 184.9 181 187.85C171.004 193.551 161.18 199.638 151 205M397 185L392 193L409 203L397 185M485 185L479 195L501 209L485 185M248 206L248 207C251.193 210.055 254.55 212.839 258 215.6C260.341 217.474 262.693 219.334 264.999 221.25C269.082 224.642 275.421 235.558 265 230.657C257.171 226.975 243.615 213.083 235 213.927C230.307 214.386 225.018 218.857 221 221.15C211.318 226.677 201.307 231.861 192 238L238 269.667L297 308C289.662 296.896 282.132 287.246 278.898 274C276.879 265.73 279.223 255.616 270 252C278.709 244.487 278.237 236.627 281.291 226C284.071 216.327 288.19 207.286 292 198C287.784 195.653 282.872 190.657 278 190.093C270.033 189.169 254.349 201.466 248 206M337 215L337 216C339.452 217.677 341.714 219.512 344.002 221.414C345.658 222.792 347.361 224.137 348.952 225.59C351.746 228.143 354.786 234.796 347.984 233.292C340.976 231.743 334.279 222.169 327 222.788C318.277 223.529 306.347 234.825 299 239.424C295.585 241.562 283.241 247 283.921 251.867C284.808 258.206 301.99 265.993 307 269.333C330.803 285.202 353.988 303.075 379 317C370.374 304.383 362.737 293.693 360.95 278C360.187 271.305 363.536 255.992 358 252C364.62 245.496 365.542 235.513 368.681 227C372.923 215.499 379.323 205.23 384 194C370.314 186.657 349.39 208.404 337 215M430 212L430 214C432.12 215.621 438.924 220.007 436.248 223.381C432.756 227.785 423.255 218.17 418 220.243C400.885 226.995 384.697 241.358 369 251L369 252C399.847 274.093 431.837 297.537 465 316C460.377 306.716 453.848 299.251 450.91 289C441.238 255.261 458.14 225.844 471 196C457.075 188.412 442.387 205.406 430 212M204 193C196.447 204.453 189.844 219.32 188 233L229 210L229 208L204 193M389 198C379.71 212.087 374.18 228.075 369 244L415 215L389 198M297 202C290.313 213.501 284.584 228.605 284 242L321 219L321 217L297 202z"/>
</svg>
