<?xml version="1.0" standalone="yes"?>
<svg xmlns="http://www.w3.org/2000/svg" width="536" height="371">
<path style="fill:#ffffff; stroke:none;" d="M0 0L0 371L536 371L536 0L0 0z"/>
<path style="fill:#000000; stroke:none;" d="M224 45L226 40C201.67 40 177.39 38 153 38C148.439 38 131.389 35.467 129.752 41.1736C128.729 44.7375 140.085 50.2845 142.384 53.0146C153.011 65.6299 157.857 80.9965 166 95C154.253 101.061 144.134 112.461 134 120.92C112.238 139.084 90.7412 157.565 69 175.754C57.8364 185.093 37.269 196.834 31 210C67.5731 234.879 103.188 261.125 140 285.667C148.818 291.545 168.644 299.167 173.972 308.213C175.987 311.633 175 317.174 175 321L181 321C181 315.577 183.705 309.901 183.478 304.961C182.891 292.217 181 279.236 181 266C181 258.835 179.105 248.455 182.653 242C193.441 222.368 224.321 209.439 244 201.001C267.3 191.009 294.901 195 320 195L464 195L464 189L322 189L276 189C269.591 189 261.099 190.443 255 188.272C246.973 185.415 239.088 178.061 232 173.333C219.262 164.837 206.501 156.265 194 147.424C189.393 144.166 182.12 141.168 181.148 134.996C179.266 123.04 187.993 111.699 193.8 102C207.981 78.3164 226.425 56.8259 240 33L224 45z"/>
<path style="fill:#ffffff; stroke:none;" d="M143 44C153.381 58.7947 164.874 73.2081 170 91C186.498 79.5149 207.906 63.7832 216 45L143 44M223 45L222 47L223 45M198 75C192.126 79.7797 175.474 89.4658 173.932 97.0394C173.123 101.015 176.595 106.378 178 110L179 110C184.332 99.9823 196.908 86.2373 198 75M167 101L40 208L85 240.424L166 295C159.186 285.327 151.08 278.199 146.288 267C134.831 240.227 141.494 207.518 150.333 181C154.41 168.769 158.925 156.726 164.309 145C171.012 130.398 180.899 115.369 167 101M174 137C155.63 184.348 120.787 255.811 175 294L173.039 188L174.09 154L174 137M181 147L181 233L182 233C195.63 214.481 226.649 200.27 248 193L221 173.33L181 147M167 295L168 296L167 295z"/>
</svg>
