<?xml version="1.0" standalone="yes"?>
<svg xmlns="http://www.w3.org/2000/svg" width="484" height="371">
<path style="fill:#ffffff; stroke:none;" d="M0 0L0 371L484 371L484 0L0 0z"/>
<path style="fill:#000000; stroke:none;" d="M101 340L107 340L107 185L107 139C107 132.234 105.544 123.473 107.702 117C109.987 110.145 115.918 103.886 119.975 98C132.079 80.4381 150.359 60.8644 158 41L159 41C158.588 60.9834 157 80.982 157 101C157 105.51 155.017 118.403 160.259 120.744C163.22 122.066 172.04 108.154 175 105.899C190.819 93.8458 211.754 83.087 231 77.7855C248.405 72.9911 271.95 77 290 77L416 77L416 71L289 71C271.659 71 247.59 75.3486 231 70.3511C204.86 62.4765 185.259 35.7269 159 28C152.677 32.7903 137.588 30.1808 130 29.2855C110.961 27.0391 90.1832 28 71 28C65.2609 28 45.7138 25.1715 42.0864 30.598C39.7512 34.0914 57.9612 43.9332 60.7106 47.0146C76.8826 65.1394 88.3578 88.8154 97.8495 111C106.418 131.027 101 161.373 101 183L101 340z"/>
<path style="fill:#ffffff; stroke:none;" d="M56 34L56 35C80.7843 52.4584 89.4941 84.0526 104 109L105 109L137.025 62L154 36L56 34M165 38L163 108L164 108C177.403 90.4868 203.774 82.9935 223 74C207.724 59.6501 183.524 47.8589 165 38z"/>
</svg>
