<?xml version="1.0" standalone="yes"?>
<svg xmlns="http://www.w3.org/2000/svg" width="338" height="371">
<path style="fill:#ffffff; stroke:none;" d="M0 0L0 371L338 371L338 0L0 0z"/>
<path style="fill:#000000; stroke:none;" d="M65 18L64 41C59.782 41 42.2217 39.111 41.466 45.0432C40.9975 48.7215 47.5844 51.7039 49.6991 54.0432C54.9996 59.9068 60.0425 68.3582 62.2114 76C64.2246 83.0933 62.9878 91.682 63 99C63.0043 101.597 62.3466 106.135 64.7377 107.953C68.9482 111.154 71.1464 103.587 72 101C82.2591 124.144 80 148.286 80 173L80 285L61 271C61 294.056 60 316.948 60 340C60 344.472 57.6488 359.427 62.4144 361.824C66.2724 363.764 71.0699 351.406 73.1852 349.001C83.4202 337.361 99.6334 327.125 114 321.352C125.572 316.702 143.614 320 156 320C188.744 320 221.602 321.043 254 322L254 187C254 165.739 251.01 142.002 254.213 121C256.181 108.1 266.437 93.6198 272.247 82C274.445 77.603 276.479 70.7538 280.39 67.6034C283.22 65.3248 287.607 66.0004 291 66L291 61L283 61L292 41C285.86 39.185 279.335 40.3443 273 39.9105C258.433 38.9129 243.609 38 229 38C225.089 38 210.818 36.3304 209.921 42.0424C209.487 44.8056 213.254 46.3063 214.99 47.6335C219.483 51.0679 222.611 55.9502 225 61L160 61L130 60.49L119 55L123 44L102 41.9143L65 18z"/>
<path style="fill:#ffffff; stroke:none;" d="M70 29L70 42L89 42L89 41L70 29M222 44C224.298 48.6193 228.344 57.0129 232.634 59.9722C239.032 64.3851 257.296 61 265 61C268.057 61 272.707 61.8265 275.363 59.9722C279.115 57.3522 281.294 50.0968 283 46L222 44M53 47L62 62L63 62L64 47L53 47M70 47C67.238 61.8776 69.424 74.9605 74 89C88.9477 82.7124 107.073 71.9989 110 55C97.4012 47.2252 84.7607 47.1222 70 47M112.667 49.3333L113.333 49.6667L112.667 49.3333M115 60L112 67L120 64L120 62L115 60M248 314L248 209L178 209C164.443 209 151.795 207.096 140 214.692C130.395 220.878 119.25 228.455 114.046 239C113.115 240.886 111.117 247.998 107.727 245.248C103.846 242.101 106 229.513 106 225C106 204.941 107 185.039 107 165L149 201.976L178 203L248 203C248 175.616 251.11 146.169 247.816 119C246.246 106.055 239.419 92.0457 234.6 80C233.01 76.0239 231.432 69.4663 227.61 67.0278C221.284 62.9926 205.406 66 198 66C171.886 66 130 57.9488 108.39 75.9661C102.008 81.2876 98.4658 94.5746 94.7531 102C91.6186 108.269 86.8794 115.112 85.3904 122C82.467 135.523 85 152.163 85 166L85 236C85 251.558 81.1527 272.877 85.3179 287.829C87.5523 295.851 106.772 308.727 114 312.567C123.495 317.612 142.356 314 153 314L248 314M235 66L251 110L252 110L273 66L235 66M77 95L82 112C89.195 107.091 94.6308 90.0924 98 82L77 95M69.3333 93.6667L69.6667 94.3333L69.3333 93.6667M113 178L112 230L143 206C135.743 195.727 123.299 185.226 113 178M67 283L66 347L67 347C76.1879 333.993 94.5276 323.236 109 317C103.29 309.941 93.2998 301.699 85 298L85 325L80 325C80 307.837 83.8565 292.732 67 283z"/>
</svg>
