<?xml version="1.0" standalone="yes"?>
<svg xmlns="http://www.w3.org/2000/svg" width="262" height="371">
<path style="fill:#ffffff; stroke:none;" d="M0 0L0 371L262 371L262 0L0 0z"/>
<path style="fill:#000000; stroke:none;" d="M79 340L85 340L85 187L85 140L85.51 117L96.9992 99L129 51L131 51C142.056 73.2255 160.076 93.3494 166.39 118C168.288 125.409 167 134.387 167 142L167 189L167 340L173 340L173 185L173 139L173.702 117L188.656 94L231 31C179.075 24.4377 126.098 31.2422 74 28.9606C60.6551 28.3762 47.4054 27.9361 34 28.0008C30.5455 28.0174 22.3882 27.487 20.0471 30.5872C17.3334 34.1808 34.2112 43.1968 36.9961 46.0008C54.1011 63.2226 64.8424 87.1429 74.6944 109C84.0855 129.834 79 159.388 79 182L79 340z"/>
<path style="fill:#ffffff; stroke:none;" d="M34 34L34 35C55.7456 50.3179 72.5784 84.2675 81 109L83 109L126 46C116.824 34.0381 103.577 35.0009 90 35C71.3881 34.9988 52.6843 34 34 34M170 109L171 109C186.919 85.4034 207.834 61.7162 220 36C199.341 36 178.642 34.0013 158 34C149.009 33.9994 139.904 32.1498 135.602 42C132.947 48.0788 140.851 55.2292 143.997 60C154.271 75.5823 160.665 93.0041 170 109M125 36L130 40L132 36L125 36z"/>
</svg>
