<?xml version="1.0" standalone="yes"?>
<svg xmlns="http://www.w3.org/2000/svg" width="782" height="371">
<path style="fill:#ffffff; stroke:none;" d="M0 0L0 371L782 371L782 0L0 0z"/>
<path style="fill:#000000; stroke:none;" d="M464 21L463 124L391 124L357 123.501L303 92L319 49C311.725 46.8792 309.034 53.7474 305.291 59L278.86 96C252.376 132.959 226.022 170.011 199.579 207C187.958 223.255 170.083 241.318 163 260C200.961 275.804 237.781 294.3 276 309.6C284.867 313.15 293.79 316.991 303 319.572C305.69 320.326 310.843 322.087 312.953 319.257C316.276 314.799 307.78 309.868 305 308.001C289.889 297.848 279.056 287.975 273.721 270C262.941 233.682 272.502 191.684 281.884 156C284.755 145.081 289.357 134.168 291 123L292 123C292 128.995 292.132 135.007 291.985 141C291.887 145.03 290.968 148.96 291.019 153C291.06 156.301 290.704 167.975 295.04 168.534C298.728 169.01 303.482 159.444 306.004 157.093C312.511 151.028 333.51 135.609 343 138.068C349.789 139.827 360.164 150.471 362.411 157C364.404 162.788 363 170.927 363 177L363 221L369 221L369 175C369 169.522 367.417 161.008 370.028 156.04C372.959 150.462 390.65 136.457 397 135.983C404.142 135.45 418.155 149.92 420.397 156C422.486 161.667 421 170.015 421 176L421 221L427 221L427 175C427 169.671 425.354 160.948 428.028 156.174C433.363 146.647 453.318 134.822 463 130C464.43 131.964 466.757 133.318 468.488 130.551C471.165 126.271 471.309 120.512 474.069 116C483.059 101.303 497.129 88.9714 511 79L504 68C523.338 78.0331 533 109.935 533 130L533 298L509 298L509 297L517 293L484 260.83L463 242L463 246L391 246C380.558 246 367.084 248.265 357 245.501C333.72 239.119 316.108 215.315 293 208C293 227.185 293.961 247.959 291.715 267C291.146 271.819 289.153 286.579 293.588 289.953C297.638 293.034 301.156 284.161 303.108 282.004C311.326 272.924 323.152 267.507 334 262.258C372.002 243.871 421.5 252 463 252C463 274.643 462 297.298 462 320C462 323.785 459.783 340.281 465.039 340.963C468.885 341.462 471.428 330.624 473.301 328C481.77 316.133 494.102 308.027 506 300C507.013 304.727 514.015 303 518 303L555 303L715 303L715 328L720 328L720 190C720 169.359 716.034 144.151 720.39 124C722.344 114.964 728.948 106.095 733.219 98C742.499 80.4124 752.359 62.3534 760 44C738.826 41.324 716.341 41.2577 695 41.0038C690.886 40.9549 676.533 39.5714 674.662 44.2994C673.111 48.2194 685.437 56.8535 688 60L550 60L514 60L498 62C489.65 48.6485 476.498 30.5652 464 21M71 173L37 173C34.0194 173.001 27.8478 172.096 26.1759 175.414C24.1126 179.509 36.4969 182.997 39 184.789C51.0257 193.396 62.3283 207.867 69.0841 221C74.086 230.724 71 247.254 71 258L71 344L77 344L77 261C77 250.335 73.91 234.017 77.6034 224C80.0057 217.484 88.1924 211.808 93 207C99.2048 200.795 105.079 194.376 111.09 188.002C113.077 185.894 115.764 182.495 119 182.693C129.802 183.354 141.579 203.19 147.14 211C158.205 226.54 156 241.642 156 260L156 344L161 344L161 259C161 249.485 157.742 232.571 162.028 224C171.663 204.73 200.045 194.46 207 174L175 174C171.403 174 165.44 175.034 162.603 172.258C158.639 168.377 161 155.204 161 150L161 100C161 93.9221 159.256 84.545 162.028 79C171.923 59.2063 197.629 49.2153 207 29C160.976 29 114.954 28 69 28L36 28C33.2321 28.0013 26.5414 27.1004 25.9213 31.0895C25.339 34.8351 37.313 38.4145 40 40.5185C51.5758 49.5829 63.5612 63.519 69.7253 77C73.318 84.8574 71 97.4761 71 106L71 173z"/>
<path style="fill:#ffffff; stroke:none;" d="M43 34L43 35C55.8489 44.7899 65.6161 58.3508 74 72C85.7614 62.5166 101.427 48.1011 109 35L43 34M128 34L158 71C170.469 65.1853 186.107 46.2056 194 35L128 34M156 173L156 109C156 99.7472 157.952 87.9436 155.501 79C153.729 72.536 148.306 66.2914 144.37 61C139.535 54.4991 127.647 35.8643 118 37.0224C110.915 37.8729 103.574 50.1754 98.9606 55C92.5464 61.708 82.206 68.6436 78.0278 77C75.5878 81.8799 77 89.6713 77 95L77 137L77 162C77 164.91 76.0883 169.948 78.0278 172.397C81.001 176.151 93.6192 174 98 174C117.314 174 136.629 173 156 173M469 37L468 113L469 113C476.722 99.1464 489.479 87.5058 502 78C497.001 65.0751 480.142 45.2016 469 37M686 47C689.677 52.5817 693.959 61.8615 701 63C699.017 69.3446 702.221 74.1943 704.719 80C709.337 90.733 711.838 104.208 718 114L751 49L686 47M515 67C522.539 79.1075 531.173 91.0089 535 105C543.025 99.8527 553.882 80.2345 556 71C544.116 65.0263 528.035 67 515 67M580 101C585.554 95.2003 589.862 87.6667 594.343 81C595.978 78.5685 599.038 75.2956 597.252 72.2137C593.475 65.6942 580.271 66.9871 574 67C571.04 67.0061 566.245 66.411 565.237 70.1481C564.298 73.6294 567.707 77.2674 569.388 80C573.455 86.613 577.838 93.4959 580 101M624 106L644 72C635.759 67.4612 627.152 67.9812 618 68C614.428 68.0074 609.232 67.614 608.083 72.0586C607.185 75.5278 610.362 79.2119 611.988 82C616.412 89.5833 618.756 99.0708 624 106M668 101C676.202 92.9329 685.54 79.6027 690 69L663 68L653.287 70.3179L656.001 79L668 101M302 74L294 86L298 88L302 74M694 74C687.459 84.5989 675.039 96.0605 671.513 108C666.536 124.854 671 149.395 671 167L671 298L715 298L715 182L714.674 125L696 74L694 74M560 77C553.693 88.8502 542.049 101.047 538.499 114C533.862 130.92 538 154.432 538 172L538 298L577 298L577 150C577 123.792 579.773 97.6459 560 77M648 78C640.959 88.6404 630.326 101.744 626.649 114C621.666 130.61 626 154.643 626 172L626 298L665 298L665 151C665 124.936 667.674 98.56 648 78M603 79C596.479 86.6507 586.316 98.2563 583.51 108C578.621 124.978 583 149.302 583 167L583 298L620 298L620 152C620 126.883 621.717 98.9917 603 79M292 88L211.291 201L172 257L231 283.86L297 311L297 310C245.02 274.928 264.346 196.648 278.424 146C281.888 133.539 285.912 121.267 290 109C292.161 102.516 294.795 94.6612 292 88M300 97C295.199 115.147 297 137.205 297 156L321 140.001L334 132C330.544 131.447 326.49 127.868 332.063 126.318C336.561 125.067 342.35 126 347 126L347 125L300 97M349 134C353.747 137.617 360.038 147.241 366 148.093C372.423 149.011 383.941 136.634 389 133C381.199 129.727 356.071 129.416 349 134M404 131L404 132L424 150L448 133C437.169 128.455 415.945 131.008 404 131M43 179L43 180C56.04 189.935 64.9541 203.591 74 217C86.3527 208.275 101.282 192.377 110 180L43 179M127 179L127 180C139.355 188.703 151.52 203.303 158 217C170.794 207.988 184.998 192.78 194 180L127 179M299 218L297 278L349 249C335.106 236.926 315.269 226.661 299 218M469 256L468 323L507 292C497.91 279.097 481.965 265.026 469 256M298 311L299 312L298 311z"/>
</svg>
