<?xml version="1.0" standalone="yes"?>
<svg xmlns="http://www.w3.org/2000/svg" width="303" height="371">
<path style="fill:#ffffff; stroke:none;" d="M0 0L0 371L303 371L303 0L0 0z"/>
<path style="fill:#000000; stroke:none;" d="M73 175C70.6508 175.021 59.2631 176.629 65.3372 180.825C70.6531 184.497 81.6369 184.031 88 186.425C107.76 193.859 134.604 207.989 147.682 225.015C153.232 232.24 150 249.214 150 258L150 346L156 346L156 258C156 250.231 152.602 231.6 157.603 225.39C161.734 220.262 171.297 217.302 177 214.139C192.299 205.653 207.7 197.347 223 188.861C229.842 185.066 238.868 181.987 244 176L230 176L230 108C230 100.197 227.494 87.0671 231.028 80C240.757 60.5425 265.984 50.3073 276 31C213.104 31 149.626 30.7489 87 30.0038C72.0047 29.8254 56.9965 30 42 30C38.8164 30 28.6664 28.4024 27.9213 33.0394C27.3269 36.7384 39.3893 40.2344 42 42.3148C53.4026 51.4011 65.9196 65.4619 71.7755 79C75.3424 87.2462 73 100.12 73 109L73 175z"/>
<path style="fill:#ffffff; stroke:none;" d="M147 73C159.574 64.1426 173.149 49.5654 182 37C167.462 33.5388 149.942 35 135 35C132.126 35 121.207 33.4386 121.207 38.1481C121.207 42.1344 127.408 46.3097 129.829 49C136.348 56.2434 142.261 64.4881 147 73M45 36L45 37C58.1296 46.2487 66.3968 60.5065 76 73L77 73C87.2217 62.7783 103.297 51.47 109 38C89.379 32.4862 65.3085 36 45 36M196 36L226 73C238.759 67.0499 253.932 48.453 262 37L196 36M149 175L224 176L224 115C224 95.1443 225.701 80.6057 213.37 64C208.646 57.637 198.824 41.2687 190 40.8318C182.543 40.4626 170.13 57.7578 165.576 63C160.803 68.4937 152.157 74.0744 149.603 81C146.663 88.9753 149 101.533 149 110L149 175M79 175L143 175L143 105C143 91.7586 144.988 79.3678 137.33 68C133.076 61.6856 124.152 45.4386 115.999 44.1759C108.911 43.0781 98.5001 59.4773 93.9992 64C89.4565 68.5648 81.8824 73.8188 79.6034 80C76.6629 87.9753 79 100.533 79 109L79 175M93 181L93 182C108.195 187.174 122.171 196.704 135 206.154C139.84 209.72 146.847 218.425 153 219.042C158.844 219.629 167.997 212.053 173 209.306C189.05 200.491 205.096 190.039 222 183L195 181.83L93 181z"/>
</svg>
