<?xml version="1.0" standalone="yes"?>
<svg xmlns="http://www.w3.org/2000/svg" width="509" height="371">
<path style="fill:#ffffff; stroke:none;" d="M0 0L0 371L509 371L509 0L0 0z"/>
<path style="fill:#000000; stroke:none;" d="M397 68L329 68L299 67.3966L279 51L279 68L194 68L152 67.6211L128 58.4244L58 31C56.1168 54.8628 54.3791 79.0103 55.0147 103C55.4382 118.987 57.3897 134.613 55.8302 151C54.8821 160.964 54.7645 170.973 55.0147 181C55.0807 183.646 54.9863 189.309 58.2886 190.248C61.4983 191.162 64.1734 186.938 66.0895 185.089C71.1251 180.228 77.5872 177.222 84 174.603C107.902 164.842 137.131 154.113 163 152L163 209L169 209L169 152L221 152L221 209L227 209L227 152L279 152L278.996 190L279 261L255 238C255 263.595 253.124 289.41 253.001 315C252.976 320.21 250.812 337.574 255.584 340.914C259.884 343.923 261.742 333.178 262.832 331C268.958 318.749 281.311 309.209 292 301.13C305.72 290.759 319.48 293 336 293L415 293L415 339L421 339L421 189C421 166.503 416.644 138.959 421.39 117C422.997 109.567 428.297 102.673 431.742 96C442.529 75.1003 458.494 52.5842 465 30C441.198 28.1215 416.888 27 393 27C388.766 27 371.252 24.9338 370.466 31.0401C369.99 34.737 377.677 37.7801 379.91 40.044C387.73 47.9724 391.491 58.5619 397 68z"/>
<path style="fill:#ffffff; stroke:none;" d="M383 33L405.576 73L419 107L456 35L383 33M63 40L61 101C87.717 88.364 113.458 79.0997 142 71L104 55.5756L63 40M285 64L285 68L289 68L285 64M163 147C161.526 136.904 149.425 128.032 141 123.349C138.554 121.989 129.207 120.387 129.207 117.001C129.207 113.909 133.971 114.043 136 114.005C144.327 113.848 152.671 114 161 114L265 114C257.656 122.274 246.838 128.245 238 134.873C233.455 138.283 227.962 141.04 227 147L279 147L279 74L196 74C182.345 74 167.52 72.3685 154 74.3001C140.557 76.2208 126.949 80.9937 114 84.9753C99.7283 89.3636 75.2438 94.0967 65.3372 106.181C59.4466 113.367 81.2452 118.347 86 120.189C101.933 126.361 118.029 132.119 134 138.192C143.246 141.708 152.998 146.911 163 147M285 74C285 85.4914 279.92 103.157 287 113L288 113L313 93C307.705 81.6451 297.184 74 285 74M305 74L320 88.3966L347 89L406 89L398.606 74.6034L371 74L305 74M292 117L292 118C299.643 125.643 309.777 140.628 320 144.397C327.975 147.337 340.533 145 349 145L415 145C415 131.448 418.631 107.401 408.005 96.6034C403.179 91.6991 383.665 95 377 95L339 95C333.092 95 325.661 93.815 320 95.7021C309.454 99.2173 299.648 109.357 292 117M63 118L61 180C85.3399 165.294 116.631 153.82 145 150L123 140.192L63 118M146 119L146 120C151.997 123.751 159.185 135.12 166 136.093C172.423 137.011 183.941 124.634 189 121C178.274 116.499 157.807 119 146 119M205 119L224 138L248 121C237.274 116.499 216.807 119 205 119M169 147L221 147C220.39 138.914 205.918 123.032 197 123.528C191.213 123.849 184.451 131.302 180 134.626C175.239 138.181 169.975 140.736 169 147M287 123L284 147L312 147C306.209 138.78 296.163 127.273 287 123M284 152C284.022 158.312 285.593 161.445 290 166L291 166L307 153L284 152M415 195L415 152C384.229 152 351.579 148.84 321 152.108C315.237 152.724 296.207 163.526 296.207 170.09C296.207 172.835 299.273 175.232 301.005 177C306.247 182.354 313.496 192.801 321 194.682C329.996 196.938 341.73 195 351 195L415 195M285 170L286 171L285 170M290 175C283.217 184.537 279.814 209.01 287 219L288 219L314 198L290 175M415 251L415 201L349 201C340.022 201 327.499 198.764 319 201.819C313.084 203.945 293.207 216.098 293.207 223.004C293.207 229.788 307.428 238.84 312 243.09C322.696 253.031 333.063 251 347 251L415 251M288 228C282.991 236.941 283.931 250.876 284.001 261C284.024 264.414 284.194 270.684 289.019 270.808C296.292 270.994 307.104 257.277 314 254L288 228M260 251L259 324L260 324C268.773 309.975 283.501 299.183 297 290L289 282C287.509 284.372 284.754 293.904 281.26 293.218C275.924 292.17 278.644 274.838 277.682 271C275.833 263.624 265.447 256.036 260 251M415 287L415 256L351 256C341.814 256 329.851 253.972 321 256.51C315.178 258.179 293.758 271.017 295.331 278C298.073 290.172 315.122 287 324 287L415 287M284 277L285 278L284 277z"/>
</svg>
