<?xml version="1.0" standalone="yes"?>
<svg xmlns="http://www.w3.org/2000/svg" width="624" height="371">
<path style="fill:#ffffff; stroke:none;" d="M0 0L0 371L624 371L624 0L0 0z"/>
<path style="fill:#000000; stroke:none;" d="M203 133C226.597 147.562 248.486 168.992 274 180L274 181L228 180.471L139 148C139 165.698 137 183.271 137 201C137 205.612 135.117 215.864 138.738 219.377C141.764 222.313 145.043 217.995 147.09 216.074C154.19 209.41 163.923 206.096 173 203.003C191.276 196.776 211.726 189.238 231 187.174C248.281 185.322 266.616 187 284 187L284 188C264.93 195.335 246.81 213.334 230 224.975C217.937 233.329 201.348 241.682 192 253C214.55 266.916 235.526 283.352 258 297.424C262.15 300.023 276.361 312.562 281.392 308.929C285.125 306.233 279.962 301.215 277.981 299.425C265.128 287.814 258.58 277.711 259.015 260C259.498 240.337 270.814 220.167 281.053 204C284.752 198.16 289.141 189.887 296.17 187.549C302.214 185.539 310.672 187 317 187L360 187L360 188C352.033 191.064 345.013 197.517 338 202.341C322.536 212.979 307.28 223.959 292 234.859C284.557 240.168 272.225 245.73 268 254C289.987 268.832 311.515 284.496 334 298.576C338.082 301.131 352.293 313.231 357.214 308.968C361.132 305.572 353.094 300.012 350.999 298.246C338.997 288.128 332.982 275.806 334.09 260C335.456 240.501 345.814 221.166 356.053 205C359.883 198.953 364.251 190.869 371.17 187.899C377.918 185.002 388.738 187 396 187L451 187L437 200C470.888 220.913 502.492 245.725 536 267.308C543.88 272.383 551.762 277.651 560 282.134C562.402 283.442 566.721 286.008 569.392 283.957C574.403 280.11 564.392 272.93 562 270.87C547.271 258.182 536.471 244.059 535.089 224C532.421 185.248 553.853 145.391 574.344 114C581.876 102.462 593.437 91.4839 599 79L565 102.873L495 154.63L460 180.062L434 181L374 181L376 177C372.94 178.004 369.309 180.938 366 180.267C352.395 177.51 345.039 156.88 345.001 145C344.925 121.464 358.025 97.8381 371.025 79C376.12 71.6174 382.926 64.9812 387 57C377.539 60.1369 369.142 68.3366 361 73.9753C342.907 86.5053 324.93 99.2372 307 112C298.595 117.982 283.747 124.707 279 134C301.331 149.065 323.633 168.473 348 180L348 181L298 181L301 176C298.011 177.147 294.301 180.47 291 179.954C277.621 177.864 270.054 156.289 270.001 145C269.892 122.143 281.403 99.5164 294.029 81C299.657 72.7455 307.948 65.0913 312 56C302.975 59.4715 294.869 67.0062 287 72.5756C272.024 83.1757 257.031 93.7586 242 104.28C229.645 112.928 212.609 121.365 203 133z"/>
<path style="fill:#ffffff; stroke:none;" d="M285 81L236 116L214 133L271 171C262.143 149.697 262.892 131.506 271.604 110C274.745 102.247 285.688 88.9834 285 81M361 81C339.285 99.5197 313.29 117.008 289 132L313 149.67L347 172C335.648 150.421 338.322 128.811 348.309 107C351.84 99.2872 360.172 89.2653 361 81z"/>
<path style="fill:#000000; stroke:none;" d="M167 96L30 196L30 198C59.0616 215.934 86.3799 236.971 115 255.656C121.458 259.872 128.051 264.358 135 267.726C137.176 268.781 142.003 271.164 143.338 267.678C144.75 263.991 140.329 260.617 137.995 258.579C130.758 252.26 123.984 246.575 119.312 238C109.469 219.931 113.324 198.59 119.515 180C126.688 158.465 138.416 138.751 151.001 120C155.085 113.914 167.37 103.343 167 96z"/>
<path style="fill:#ffffff; stroke:none;" d="M571 106L447 198L447 199C477.843 222.772 511.935 247.106 546 266C540.804 256.878 534.647 249.345 531.746 239C523.539 209.727 534.192 176.298 547.248 150C552.138 140.15 557.147 130.44 562.8 121C565.475 116.534 570.388 111.164 571 106M140 123C108.259 148.19 74.477 174.72 40 196L71 218.667L120 251C101.481 220.349 107.111 188.304 122.258 157C126.726 147.768 139.677 132.867 140 123M145 157L143 210C167.291 198.659 191.565 189.456 218 184L187 171.95L145 157M274 201L225 236L203 253L260 291C251.008 269.374 252.001 250.716 261.012 229C264.347 220.961 274.017 209.522 274 201M350 201L278 252L302 269.667L336 292C324.673 270.468 327.338 248.775 337.309 227C340.84 219.287 349.172 209.265 350 201z"/>
</svg>
