<?xml version="1.0" standalone="yes"?>
<svg xmlns="http://www.w3.org/2000/svg" width="539" height="371">
<path style="fill:#ffffff; stroke:none;" d="M0 0L0 371L539 371L539 0L0 0z"/>
<path style="fill:#000000; stroke:none;" d="M273 178L273 138C273 132.069 271.843 124.694 273.699 119C283.818 87.9559 314.132 64.1717 324 33C296.646 33 269.395 31 242 31C236.547 31 218.408 28.1322 215.238 33.4151C212.67 37.6934 220.662 39.6574 223 41.419C231.749 48.0109 237.563 57.7072 242.988 67C252.01 82.4526 263.578 103.23 266.671 121C269.798 138.963 267 159.757 267 178C259.91 178 248.43 180.187 242 176.972C236.941 174.443 233.085 168.894 229 165.09C214.732 151.798 199.26 130.954 182 122L181 165C155.343 137.939 179.269 94.8614 196.721 70C201.645 62.9852 208.104 56.6312 212 49L183 68.2801L109 120L129 88C109.019 87.8346 89.0152 86 69 86C64.3843 86 51.9789 83.8843 49.0864 88.4946C46.7541 92.2121 58.3372 97.6458 60.561 100.09C71.0258 111.594 79.0476 127.525 84.5324 142C89.4435 154.961 86 174.234 86 188L86 288L92 288L92 189L92.5633 145L104 126C122.811 140.499 143.245 153.163 163 166.333C166.643 168.762 181.608 175.565 180.248 180.856C178.904 186.09 167.229 191.582 163 194.576C146.705 206.109 130.412 217.659 114 229.025C110.045 231.764 94.2068 239.854 94.2068 245C94.2068 249.645 106.54 255.681 110 257.999C127.018 269.401 143.773 281.212 161 292.308C164.267 294.412 178.34 305.649 181.953 301.215C184.4 298.21 179.924 294.077 177.981 292.285C169.928 284.861 162.583 278.048 159.9 267C153.726 241.58 170.887 221.161 179 199L180 199L181 241C188.139 240.444 187.445 234.288 190.468 229C193.989 222.839 198.995 217.949 204 213.004C214.24 202.885 229.918 188.874 244 184.649C250.908 182.576 259.83 184 267 184L267 343L273 343L273 184L339 184C330.728 191.055 315.818 197.14 311 207C342.131 226.452 370.485 252.445 400 274.37C406.806 279.427 413.693 284.86 421 289.171C423.123 290.423 427.879 293.339 429.917 290.392C431.772 287.711 428.525 283.971 426.811 282.17C420.333 275.364 412.707 269.881 407.359 262C389.96 236.36 397.908 211.811 402 184L436 184L436 341L441 341C441 287.681 441.821 234.245 441.821 181C441.821 161.469 437.079 138.215 441.394 119C443.041 111.661 449.168 104.387 453 98L479.4 54C483.738 46.7724 490.097 39.295 492 31C465.013 31 438.061 29 411 29C405.628 29 387.532 26.1538 384.047 30.7377C381.406 34.2121 398.691 45.6443 401.331 49C412.221 62.8413 419.556 79.9117 426.421 96C428.563 101.02 433.302 108.358 433.154 113.91C433.046 117.918 427.834 120.394 425 122.421L399 141.14C387.302 149.523 375.707 158.051 364 166.421C359.068 169.947 353.745 175.221 348 177.272C341.121 179.729 331.244 178 324 178L273 178z"/>
<path style="fill:#ffffff; stroke:none;" d="M396 34L396 35C420.493 52.3014 423.543 85.7231 439 109L483 36L396 34M229 37C245.961 61.1013 257.508 84.2947 270 111L287.2 84L314 39L229 37M185 74C162.972 91.469 138.423 110.087 114 124L114 126L171 164C161.99 142.329 163.057 123.764 172.011 102C175.302 94.0001 185.017 82.3855 185 74M62 92L89 137L90 137L119 93L62 92M108 120L107 122L108 120M435 120C424.148 137.586 408.597 157.112 405 178L436 178L436 139L435 120M187 135C187 146.596 183.208 165.786 191 175L192 175L201 169L186.564 189.004L186 223L187 223C198.365 206.361 217.743 190.637 236 182L236 180L187 135M416 136C399.023 150.689 374.266 160.728 360 178L387 178L397.49 176.972L408.248 154L416 136M321 205L321 207L405 270C388.356 240.104 388.463 216.877 396 184C382.761 184 362.385 180.137 350 184.843C339.703 188.756 329.93 198.604 321 205M174 194C151.991 211.454 127.399 230.101 103 244L103 246L160 284C152.178 262.472 151.569 245.814 160.204 224C163.596 215.431 174.018 202.871 174 194z"/>
</svg>
