<?xml version="1.0" standalone="yes"?>
<svg xmlns="http://www.w3.org/2000/svg" width="498" height="371">
<!-- <path style="fill:#ffffff; stroke:none;" d="M0 0L0 371L498 371L498 0L0 0z"/>
--><path style="fill:#000000; stroke:none;" d="M252 128C226.329 128 200.591 127.002 175 127C165.563 126.999 149.621 130.496 141 127.258C122.248 120.215 110.824 97.2803 92 90L91 128L83.9985 128C64.1518 128.041 87.142 139.59 90.142 147C92.18 152.034 87.817 168.178 93.2631 170.744C97.1714 172.585 99.0943 164.346 100 162C105.831 174.117 102 194.653 102 208L69 186C65.8783 210.701 63.4386 242.43 68 267C74.5888 266.487 75.1871 260.523 79.3009 256.171C85.7054 249.395 94.1382 244.813 102 240L102 253L108 253C108 248.692 106.765 242.048 109.028 238.213C115.18 227.784 132.95 229 143 229L143 253L149 253L149 229L176 229L176 252L182 252L182 229L254 229L254 260L252.397 272.397L239 275C249.703 293.538 267.427 309.857 281.424 326C284.332 329.353 292.458 340.745 297.681 339.248C301.027 338.29 298.218 324.581 299.156 321C303.381 304.86 311.984 286.044 322.529 273.039C334.057 258.822 355.132 247.938 370 237.29C399.132 216.426 427.372 194.154 457 174C453.435 165.408 437.8 159.308 430 154.601C406.499 140.418 383.333 125.652 360 111.192L338 97.5764C335.406 95.9604 330.456 93.9206 329.418 90.7901C328.299 87.4133 332.057 82.2726 333 79L310 78L290 20C282.745 22.4617 276.811 29.0639 271 33.9197C259.214 43.7682 247.486 53.7532 236 63.9498C232.387 67.1572 220.77 74.3394 221.582 79.892C222.11 83.5041 231.591 88.6344 234.076 92C241.946 102.662 247.234 115.714 252 128z"/>
<path style="fill:#ffffff; stroke:none;" d="M236 73L303 77L287 30L268 44.5756L236 73M234 81L257 124L258 124L281 84C267.288 79.0025 248.542 81 234 81M289 83L306 120L319 93C309.316 87.0529 300.048 85.1425 289 83M316 84L316 85L322 88L324 84L316 84M285 90C277.313 102.557 264.39 117.802 260.499 132C256.877 145.219 260 163.291 260 177L260 273L303 269L303 209C303 199.16 304.659 187.577 302.24 178C299.116 165.63 294.125 151.847 287.381 141C285.625 138.176 277.411 132.261 277.921 129.124C278.814 123.639 296.919 126 301 126C298.39 114.718 293.443 98.1874 285 90M324 97L310 126L333 127L308.637 177L308 207L308 268C323.259 267.685 335.199 254.945 347 246.424C368.742 230.726 390.178 214.587 412 199C423.186 191.011 438.615 182.932 447 172L363 120.319L324 97M97 101L97 128L130 128L130 127L97 101M289 132L306 169L324 133C318.098 132.747 309.005 129.447 305 135C300.444 130.975 294.776 132 289 132M179 158L198 134C191.028 133.119 170.185 129.115 170.024 141C169.954 146.155 176.411 153.61 179 158M182 224L254 224L254 133C241.041 133 220.108 128.948 208.039 133.603C202.796 135.626 199.006 142.814 195.576 147C191.39 152.108 185.061 157.724 182.738 164C180.699 169.509 182 177.196 182 183L182 224M89 134L91 136L91 134L89 134M97 134L101 151L122 136L97 134M133 137L146 158L161 141C154.166 132.099 142.417 132.266 133 137M163 134L164 136L165 136L166 134L163 134M127 141C121.481 148.446 111.961 156.293 108.738 165C105.084 174.872 108 190.507 108 201C108 204.948 107.073 210.321 109.603 213.675C117.999 224.801 130.724 224 143 224C143 196.435 150 161.429 127 141M164 146L149.6 165L149 184L149 224L176 224C176 200.848 183.73 162.789 164 146M105 159L106 159L110 153L105 159M96.3333 155.667L96.6667 156.333L96.3333 155.667M74 197L73 253C80.0943 248.022 96.5148 239.753 100.972 232.621C111.006 216.566 85.1967 202.297 74 197M108 221L108 230L115 227L115 225L108 221M313 273L251 280C260.728 295.555 276.994 316.423 292 327C293.627 314.405 298.892 302.162 304.781 291C307.386 286.061 313.826 278.66 313 273z"/>
</svg>
