<?xml version="1.0" standalone="no"?>
<!DOCTYPE svg PUBLIC "-//W3C//DTD SVG 20010904//EN"
 "http://www.w3.org/TR/2001/REC-SVG-20010904/DTD/svg10.dtd">
<svg version="1.0" xmlns="http://www.w3.org/2000/svg"
 width="320.000000pt" height="371.000000pt" viewBox="0 0 320.000000 371.000000"
 preserveAspectRatio="xMidYMid meet">
<metadata>
Created by potrace 1.16, written by Peter Selinger 2001-2019
</metadata>
<g transform="translate(0.000000,371.000000) scale(0.100000,-0.100000)"
fill="#000000" stroke="none">
<path d="M1120 3440 c-25 -3 -200 -4 -390 -2 -283 3 -348 2 -363 -10 -26 -20
-12 -45 31 -53 96 -17 235 -155 371 -364 l41 -64 0 -478 0 -478 -220 -3 c-140
-2 -223 -7 -230 -14 -17 -17 -1 -42 33 -50 107 -23 258 -171 386 -380 l31 -51
0 -602 0 -601 25 0 25 0 0 601 0 601 142 147 c78 80 161 166 185 191 l45 45
75 -80 c41 -44 108 -130 149 -191 l74 -111 0 -602 0 -602 23 3 22 3 3 605 3
605 188 195 188 195 48 -39 c58 -48 151 -160 227 -275 l58 -86 0 -602 0 -603
25 0 25 0 0 604 0 604 230 239 231 238 -188 6 c-104 4 -209 7 -235 8 l-48 1 0
475 0 476 235 242 235 242 -177 7 c-234 8 -1445 15 -1503 8z m33 -72 c15 -6
27 -12 27 -15 0 -7 -333 -353 -340 -353 -3 0 -14 15 -24 33 -43 74 -159 218
-231 286 l-76 72 308 -6 c173 -4 320 -11 336 -17z m740 8 c15 -7 -11 -37 -155
-185 -95 -97 -176 -177 -179 -179 -4 -2 -36 38 -70 89 -35 51 -99 130 -142
176 -114 120 -123 116 237 111 160 -2 299 -8 309 -12z m644 5 l142 -6 -181
-188 -180 -188 -67 98 c-36 54 -108 141 -158 193 -51 52 -93 96 -93 98 0 4
394 0 537 -7z m-513 -92 c65 -59 134 -144 202 -249 l49 -75 -3 -487 -2 -488
-355 0 -355 0 0 473 0 472 196 203 c108 111 200 202 204 202 5 0 33 -23 64
-51z m-716 -44 c39 -42 101 -120 137 -174 l66 -97 -1 -489 c0 -269 -2 -490 -3
-491 -1 0 -147 -4 -324 -8 l-323 -6 0 481 0 481 182 189 c100 104 185 189 189
189 4 0 39 -34 77 -75z m-183 -1321 c69 -10 67 -13 -109 -198 -93 -97 -171
-176 -175 -176 -3 0 -33 42 -66 92 -34 52 -104 136 -160 193 l-100 102 290 -4
c160 -2 304 -6 320 -9z m767 0 c12 -7 -22 -47 -162 -193 l-178 -183 -15 29
c-27 52 -138 196 -205 265 -99 103 -103 102 254 96 160 -3 298 -9 306 -14z
m596 7 l194 -6 -182 -188 -182 -187 -50 72 c-77 111 -142 190 -208 251 -33 31
-60 58 -60 61 0 7 224 6 488 -3z"/>
</g>
</svg>
