<?xml version="1.0" standalone="no"?>
<!DOCTYPE svg PUBLIC "-//W3C//DTD SVG 20010904//EN"
 "http://www.w3.org/TR/2001/REC-SVG-20010904/DTD/svg10.dtd">
<svg version="1.0" xmlns="http://www.w3.org/2000/svg"
 width="314.000000pt" height="371.000000pt" viewBox="0 0 314.000000 371.000000"
 preserveAspectRatio="xMidYMid meet">
<metadata>
Created by potrace 1.16, written by Peter Selinger 2001-2019
</metadata>
<g transform="translate(0.000000,371.000000) scale(0.100000,-0.100000)"
fill="#000000" stroke="none">
<path d="M1845 2848 c-341 -347 -621 -634 -623 -637 -1 -4 16 -16 38 -27 l41
-19 -521 -550 c-286 -303 -520 -553 -520 -556 0 -11 973 -447 1248 -560 185
-75 208 -82 227 -63 25 25 4 45 -126 119 -197 113 -298 226 -360 407 -78 231
-62 556 48 918 35 114 81 240 89 240 2 0 147 -68 321 -151 175 -83 344 -163
376 -178 l60 -26 -363 -368 c-209 -211 -359 -372 -354 -377 21 -19 1037 -499
1267 -597 146 -62 190 -71 195 -36 3 23 -6 31 -204 153 -31 19 -87 67 -124
106 -152 160 -218 398 -192 688 10 104 33 251 47 293 3 9 23 4 67 -16 35 -16
91 -39 126 -51 60 -22 64 -22 80 -6 16 16 15 19 -15 46 -17 16 -75 54 -128 85
-95 56 -96 57 -89 88 13 65 88 256 150 386 35 74 64 136 64 139 0 2 -85 -83
-189 -189 -216 -221 -195 -214 -250 -84 -48 113 -64 210 -63 380 0 294 93 647
254 969 27 54 48 99 46 101 -2 2 -282 -281 -623 -627z m428 315 c-42 -108 -92
-279 -118 -398 -70 -326 -54 -590 50 -801 l44 -89 -32 -32 c-17 -18 -36 -33
-42 -33 -11 0 -206 91 -642 300 l-132 63 35 69 c62 123 60 129 -18 45 -67 -71
-94 -88 -111 -71 -5 5 979 1014 989 1014 2 0 -9 -30 -23 -67z m-993 -1169
c-49 -139 -94 -325 -116 -474 -22 -154 -15 -390 15 -505 43 -164 136 -313 255
-408 36 -28 43 -37 26 -32 -27 8 -634 278 -937 415 l-182 83 82 88 c159 172
892 946 894 944 1 0 -15 -51 -37 -111z m1193 -11 c-14 -38 -35 -96 -46 -130
-12 -35 -24 -63 -27 -63 -3 0 -24 18 -45 40 l-39 40 89 90 c49 50 91 90 92 90
1 0 -10 -30 -24 -67z m-133 -208 c29 -30 51 -57 48 -60 -3 -3 -40 11 -83 30
l-78 36 23 24 c13 14 26 25 30 25 3 0 30 -25 60 -55z m-44 -81 c58 -27 74 -39
70 -52 -11 -39 -36 -183 -46 -262 -30 -246 13 -492 114 -658 37 -61 118 -151
176 -195 l35 -27 -65 29 c-357 161 -1070 503 -1070 513 0 6 152 164 338 353
243 247 342 341 355 338 9 -2 51 -20 93 -39z"/>
</g>
</svg>
