<?xml version="1.0" standalone="no"?>
<!DOCTYPE svg PUBLIC "-//W3C//DTD SVG 20010904//EN"
 "http://www.w3.org/TR/2001/REC-SVG-20010904/DTD/svg10.dtd">
<svg version="1.0" xmlns="http://www.w3.org/2000/svg"
 width="714.000000pt" height="371.000000pt" viewBox="0 0 714.000000 371.000000"
 preserveAspectRatio="xMidYMid meet">
<metadata>
Created by potrace 1.16, written by Peter Selinger 2001-2019
</metadata>
<g transform="translate(0.000000,371.000000) scale(0.100000,-0.100000)"
fill="#000000" stroke="none">
<path d="M2778 3328 c-190 -296 -366 -582 -492 -798 l-26 -45 0 222 0 222 151
211 c83 116 149 213 147 216 -2 2 -139 6 -304 10 -257 5 -302 4 -319 -9 -16
-13 -17 -17 -6 -31 7 -9 19 -16 27 -16 42 0 132 -116 208 -267 l46 -93 0 -420
0 -420 -134 0 c-106 0 -136 -3 -146 -15 -10 -12 -10 -18 0 -30 7 -8 18 -15 26
-15 20 0 69 -46 57 -53 -17 -11 -116 76 -152 132 -128 200 -56 467 215 800
l27 33 -35 -18 c-106 -57 -858 -500 -858 -507 0 -4 162 -115 361 -247 l361
-239 -34 -20 c-18 -12 -178 -105 -355 -208 -178 -104 -323 -191 -323 -194 0
-7 649 -438 748 -497 58 -36 87 -40 96 -16 4 11 -7 28 -36 53 -114 98 -150
138 -179 196 -73 149 -36 357 104 573 38 59 51 72 73 72 24 0 26 3 21 30 -4
17 -3 30 1 30 11 0 76 -106 126 -207 l46 -93 0 -490 0 -490 -548 0 -547 0 -78
41 -77 40 0 963 0 963 231 314 231 314 -103 6 c-189 12 -823 20 -854 11 -19
-5 -31 -16 -33 -30 -3 -17 4 -23 36 -31 104 -28 230 -188 371 -470 l61 -121 0
-940 c0 -517 -2 -940 -4 -940 -3 0 -121 63 -263 140 -142 77 -261 140 -264
140 -10 0 -22 -322 -23 -603 -1 -210 1 -249 14 -257 21 -14 33 -8 49 26 47
100 235 209 580 336 l133 49 567 -1 c822 -1 731 -4 731 25 0 25 -1 25 -80 25
l-80 0 0 496 0 497 145 203 c80 112 145 205 145 208 0 3 -33 6 -73 6 -41 0
-108 3 -150 6 l-77 7 0 124 0 123 33 30 c137 128 547 204 1332 245 l110 6
1465 -355 c806 -195 1462 -355 1458 -355 -11 -1 -2572 -601 -2585 -606 -10 -3
-13 13 -13 60 l0 63 127 174 c190 261 196 268 191 274 -11 10 -1109 14 -1128
4 -32 -17 -23 -38 24 -59 54 -23 116 -98 190 -231 80 -140 86 -160 86 -261 0
-78 -2 -89 -17 -88 -10 0 -261 64 -558 142 l-540 142 -3 -50 c-7 -106 46 -946
69 -1105 13 -90 24 -112 50 -108 15 2 26 18 38 55 10 29 30 71 46 93 62 89
240 239 480 402 109 75 420 268 430 268 3 0 5 -169 5 -375 l0 -375 25 0 25 0
0 393 0 392 45 24 c25 13 116 41 203 61 l157 37 3 -453 2 -454 25 0 25 0 0
459 c0 429 1 460 18 465 25 7 2663 624 2687 628 13 2 21 12 23 28 l3 25 -1533
370 -1533 369 -414 396 c-227 217 -417 396 -421 398 -4 2 -55 -70 -112 -160z
m500 -277 c205 -195 370 -356 368 -358 -2 -2 -79 -8 -172 -13 -507 -31 -891
-92 -1096 -174 l-57 -23 14 27 c73 142 552 903 565 898 4 -2 174 -162 378
-357z m-866 259 l57 0 -111 -156 -111 -155 -48 90 c-56 106 -79 142 -128 195
l-36 39 160 -7 c88 -3 186 -6 217 -6z m-1174 -29 l93 -6 -187 -255 c-102 -140
-190 -259 -194 -263 -4 -5 -35 45 -70 110 -85 162 -180 305 -250 374 l-58 59
287 -6 c157 -4 328 -9 379 -13z m617 -576 c-24 -42 -56 -115 -71 -163 -25 -75
-29 -103 -29 -202 0 -109 2 -119 33 -184 l32 -68 -27 18 c-193 125 -492 328
-489 331 8 8 581 342 588 343 3 0 -13 -34 -37 -75z m462 -652 l150 -6 -110
-154 -110 -154 -47 89 c-26 49 -62 111 -80 137 -28 41 -31 51 -21 67 11 17 10
18 -9 8 -16 -9 -24 -8 -36 5 -14 13 -9 15 49 15 35 0 131 -3 214 -7z m-437
-234 c-127 -214 -154 -451 -69 -598 11 -18 19 -35 17 -36 -2 -1 -119 75 -261
170 l-257 172 292 171 c161 94 296 171 300 172 4 0 -6 -23 -22 -51z m1846 25
c17 -2 39 -12 47 -22 15 -17 10 -28 -90 -164 l-107 -147 -47 88 c-52 99 -97
168 -146 222 l-33 37 172 -5 c95 -2 187 -6 204 -9z m554 -1 c0 -9 -231 -323
-238 -323 -4 0 -26 37 -49 83 -24 46 -63 112 -87 147 -40 57 -43 65 -31 84 14
20 21 21 209 18 108 -2 196 -5 196 -9z m-371 -193 c86 -146 101 -184 101 -264
l0 -74 -171 -41 c-252 -60 -239 -65 -239 79 l0 107 113 156 112 156 23 -27
c12 -15 40 -56 61 -92z m-929 -300 c600 -157 570 -148 570 -168 0 -12 -41 -42
-117 -87 -164 -98 -425 -271 -546 -362 -121 -92 -265 -228 -306 -290 l-29 -43
-6 47 c-12 94 -26 292 -41 558 -8 149 -17 317 -21 374 -6 97 -5 103 12 97 11
-3 228 -60 484 -126z m-2265 -497 c127 -69 254 -139 284 -155 l53 -31 -128
-48 c-179 -68 -379 -168 -459 -230 l-68 -51 7 188 c3 104 9 255 12 336 l6 147
32 -16 c17 -9 135 -72 261 -140z"/>
</g>
</svg>
