<?xml version="1.0" standalone="no"?>
<!DOCTYPE svg PUBLIC "-//W3C//DTD SVG 20010904//EN"
 "http://www.w3.org/TR/2001/REC-SVG-20010904/DTD/svg10.dtd">
<svg version="1.0" xmlns="http://www.w3.org/2000/svg"
 width="534.000000pt" height="371.000000pt" viewBox="0 0 534.000000 371.000000"
 preserveAspectRatio="xMidYMid meet">
<metadata>
Created by potrace 1.16, written by Peter Selinger 2001-2019
</metadata>
<g transform="translate(0.000000,371.000000) scale(0.100000,-0.100000)"
fill="#000000" stroke="none">
<path d="M536 2266 c-11 -83 -27 -436 -29 -621 -2 -195 5 -235 39 -235 8 0 24
15 35 34 59 101 395 228 952 361 l148 35 1524 0 1525 0 0 30 0 30 -1532 0
-1533 0 -562 203 -562 204 -5 -41z m524 -201 c250 -90 473 -171 495 -178 l39
-14 -114 -28 c-293 -71 -618 -173 -760 -238 -30 -13 -79 -41 -109 -61 l-54
-37 6 248 c9 337 18 473 31 473 5 0 215 -74 466 -165z"/>
</g>
</svg>
