<?xml version="1.0" standalone="yes"?>
<svg xmlns="http://www.w3.org/2000/svg" width="479" height="371">
<!-- <path style="fill:#ffffff; stroke:none;" d="M0 0L0 371L479 371L479 0L0 0z"/>
--><path style="fill:#000000; stroke:none;" d="M382 136L252 136C252.009 124.487 259.034 115.61 264.8 106C275.554 88.0772 291.698 67.9062 298 48C279.783 48 261.17 48.1548 243 46.9105C230.552 46.058 215.189 43.5727 203 47.1049C189.878 50.9076 177.052 63.7526 166 71.5756C142.548 88.1751 116.863 103.366 95 122L116 88C95.9765 88 76.0561 87 56 87C51.8221 87 38.752 84.8668 36.0864 88.7377C33.4552 92.5587 44.778 97.8561 46.9097 100.04C57.7064 111.102 64.8224 126.901 70.7153 141C76.3223 154.415 73 173.624 73 188L73 289L79 289L79 246C100.204 262.299 123.328 277.381 146 291.576C149.066 293.495 166.984 307.069 169.288 300.693C170.521 297.279 166.109 294.019 163.985 292.13C157.954 286.769 152.158 281.577 148.88 274C140.126 253.771 150.31 228.894 160.143 211C163.488 204.912 166.712 196.44 173 193C173 218.995 172 244.954 172 271C172 274.649 169.834 294.364 175.12 294.364C178.211 294.364 178.942 290.174 179.809 287.999C182.177 282.061 186.532 277.442 191.001 273.004C205.048 259.055 225.699 243 246 243L246 331L252 331L252 243L382 243L382 329L388 329L388 243L432 243L432 237L388 237L388 141L432 141L432 136L388 136C388 111.765 411.502 85.661 423.281 65C426.738 58.9365 431.663 52.931 433 46C407.965 46 383.015 44 358 44C354.2 44 335.636 42.1107 335.636 48.0903C335.636 51.556 340.762 52.7551 343 54.429C347.782 58.0057 351.664 63.0465 354.921 68C367.009 86.3846 381.998 113.654 382 136z"/>
<path style="fill:#ffffff; stroke:none;" d="M349 50C364.101 71.6928 374.263 92.8924 385 117L403.8 86L423 52L349 50M173 87C196.162 103.124 216.367 136 246 136C245.997 112.172 228.535 77.4903 212.561 60.0934C208.899 56.1053 203.768 54.659 200 51C188.739 56.7056 178.241 75.7881 173 87M213 52L235.742 87L250 119L288 54L213 52M172 75L101 125L101 126C117.568 138.77 138.424 156.58 158 164C148.152 142.227 150.24 121.765 159.862 100C163.217 92.4099 171.211 83.1252 172 75M49 92L76 137L77 137L105 94L49 92M168 96C159.58 116.252 146.759 148.696 168 166L169 117L168 96M175 96C175 115.051 174 133.944 174 153C174 159.532 172.028 169.131 177 174C187.546 159.028 207.576 146.668 224 139C212.831 123.276 190.837 107.024 175 96M79 245C102.934 233.627 125.409 213.26 147 197.859C151.826 194.416 166.844 187.312 167.534 180.95C168.123 175.513 157.666 171.414 154 168.997C138.56 158.818 123.225 148.468 108 137.975C104.327 135.443 95.0869 126.202 90.3248 128.828C79.0336 135.055 79 150.21 79 161L79 245M246 237L246 141C224.94 141 205.388 153.987 190.015 168.171C186.56 171.358 176.849 181.023 176.751 186.039C176.642 191.607 189.16 199.125 193 202.424C208.719 215.928 224.344 237 246 237M252 141L252 237L382 237L382 141L252 141M90 245L90 246C106.566 258.734 127.454 276.591 147 284C132.342 251.594 146.468 224.183 162 195L134 213.859L90 245M179 198L177 279L178 279C188.269 261.235 210.061 250.369 227 240L227 239L179 198z"/>
</svg>
