<?xml version="1.0" standalone="yes"?>
<svg xmlns="http://www.w3.org/2000/svg" width="289" height="371">
<path style="fill:#ffffff; stroke:none;" d="M0 0L0 371L289 371L289 0L0 0z"/>
<path style="fill:#000000; stroke:none;" d="M126 97L107 96.5008L56 67C55.9576 131.021 53.9959 194.963 54 259L54 305C54 308.921 52.2649 318.521 56.2747 320.914C59.158 322.634 72.1208 308.444 76 306.312C96.9781 294.783 113.465 292 137 292L137 342L142 342L142 292L231 292L231 287L142 287L142 242L231 242L231 236L142 236L142 194L232 194L232 188L142 188L142 149L231 149L231 143L142 143C142 129.375 140.12 114.107 152.465 104.603C157.268 100.905 168.21 103 174 103L232 103L232 97L157 97L201 32C169.718 31.9138 138.304 29.002 107 29C99.5842 28.9995 92.3702 29.0774 85 29.831C82.4731 30.0894 77.9031 29.5898 77.466 33.0903C77.0176 36.6828 92.0649 44.0457 94.9853 47.0038C108.4 60.5922 118.697 79.4596 126 97z"/>
<path style="fill:#ffffff; stroke:none;" d="M92 35L92 36C105.834 46.5405 114.521 62.1564 122.999 77C125.978 82.2154 128.659 92.4967 133.637 95.9722C137.288 98.5208 147.927 97.8586 150.96 94.6821C158.123 87.1786 163.503 76.5834 169.344 68C176.189 57.9406 184.777 47.993 190 37L92 35M61 77L60.0147 106L61.6034 115.864L71 112.452L98 99L61 77M69 120L69 122L105 142.501L137 143C137 132.235 139.748 111.454 129.351 104.028C126.016 101.646 118.903 103 115 103C97.9048 103 83.6983 112.177 69 120M136 103L139 110L141 110L145 103L136 103M63 125C59.6106 134.23 59.98 143.306 60 153C60.0057 155.757 59.3419 161.218 63.1481 161.84C66.7191 162.422 71.0807 158.49 74 156.862C81.4333 152.715 89.3249 149.633 97 146L97 145L63 125M70 167L105 187.351L137 188L137 149C115.142 149 85.875 148.481 70 167M63 171C58.9683 180.515 58.0544 200.035 61 210L98 191C89.6009 183.701 73.9487 173.111 63 171M67 213C75.9738 220.798 93.4131 232.753 105 235.582C114.712 237.953 127.012 236 137 236L137 194C127.102 194 115.715 192.436 106 194.379C92.5851 197.062 78.2638 205.547 67 213M62 218L60 259L97 240C91.6226 231.201 71.6365 221.528 62 218M66 262L66 263C76.7254 270.792 93.0874 283.429 106 286.582C115.418 288.881 127.316 287 137 287L137 242C110.203 242 88.1494 245.1 66 262M61 267L60 309L97 290L97 288L61 267z"/>
</svg>
