<?xml version="1.0" standalone="no"?>
<!DOCTYPE svg PUBLIC "-//W3C//DTD SVG 20010904//EN"
 "http://www.w3.org/TR/2001/REC-SVG-20010904/DTD/svg10.dtd">
<svg version="1.0" xmlns="http://www.w3.org/2000/svg"
 width="786.000000pt" height="371.000000pt" viewBox="0 0 786.000000 371.000000"
 preserveAspectRatio="xMidYMid meet">
<metadata>
Created by potrace 1.16, written by Peter Selinger 2001-2019
</metadata>
<g transform="translate(0.000000,371.000000) scale(0.100000,-0.100000)"
fill="#000000" stroke="none">
<path d="M3629 2902 l-305 -377 -1089 -3 -1090 -2 -413 236 c-227 130 -415
234 -417 233 -2 -2 -8 -126 -14 -276 -14 -347 -14 -698 -1 -724 17 -31 39 -22
59 24 51 118 289 259 696 413 l90 34 1064 0 c1057 0 1064 0 1046 -20 -9 -10
-15 -25 -12 -33 3 -7 123 -105 267 -218 145 -112 274 -213 288 -225 l25 -21
-254 -314 -255 -314 -592 -3 -592 -2 0 312 1 313 198 225 198 225 -36 7 c-50
9 -1318 18 -1361 9 -54 -11 -48 -41 13 -62 83 -30 169 -120 279 -297 l68 -107
0 -312 0 -313 -169 0 -169 0 -418 239 -419 240 -7 -32 c-10 -52 -31 -843 -23
-904 9 -72 13 -83 34 -83 12 0 29 21 47 58 24 46 44 68 109 114 95 68 303 174
505 255 l145 58 183 3 182 3 0 -245 0 -246 25 0 25 0 0 245 0 245 270 0 270 0
0 -245 0 -245 25 0 25 0 0 245 0 245 572 0 571 0 -24 -26 -24 -26 30 -24 c106
-87 557 -436 625 -485 46 -33 90 -58 99 -57 34 7 23 40 -30 94 -53 54 -53 54
-37 82 44 76 288 216 593 338 l170 69 1063 3 c584 1 1062 -1 1062 -5 0 -4 -9
-17 -21 -29 l-21 -22 144 -114 c388 -309 576 -448 606 -448 45 0 32 31 -52
120 -120 126 -158 214 -176 405 -10 106 2 268 31 413 21 105 85 322 95 322 3
0 25 -14 50 -31 88 -60 111 -16 34 66 l-52 54 16 43 16 43 -29 -33 -29 -33
-20 28 c-34 48 -70 127 -89 194 -14 51 -18 99 -17 239 0 150 4 193 27 303 29
137 79 300 127 418 17 40 29 73 27 75 -1 2 -140 -167 -308 -374 l-305 -377
-1084 -3 -1085 -2 -411 235 c-226 129 -416 235 -421 235 -10 0 -15 -103 -30
-605 l-6 -230 -19 43 c-40 90 -50 176 -45 357 5 130 12 197 31 284 32 143 76
286 121 392 20 45 34 83 32 85 -1 1 -140 -167 -308 -374z m126 -3 c-42 -159
-58 -283 -58 -439 1 -161 19 -252 73 -368 l30 -63 -38 28 c-202 156 -452 356
-452 362 0 3 12 21 28 38 15 18 119 147 231 287 113 141 206 254 208 252 2 -2
-8 -45 -22 -97z m3538 -16 c-47 -175 -65 -324 -60 -488 5 -166 25 -257 77
-353 16 -30 24 -49 17 -44 -167 129 -312 242 -390 305 -104 84 -102 78 -60
127 8 8 108 133 225 278 116 144 212 262 213 262 1 0 -9 -39 -22 -87z m-6223
-390 c-3 -4 -68 -33 -146 -64 -254 -102 -452 -210 -544 -297 l-43 -42 7 303
c3 166 9 350 13 408 l6 106 356 -203 c196 -112 354 -207 351 -211z m3194 168
l357 -204 -98 -37 c-252 -95 -475 -210 -585 -303 l-71 -60 7 214 c15 504 19
600 26 597 4 -2 168 -95 364 -207z m2528 -254 c-12 -13 -22 -26 -22 -30 0 -8
263 -219 463 -372 64 -49 117 -93 117 -97 0 -5 -113 -148 -251 -318 l-251
-310 -1087 0 -1086 0 -413 236 c-227 130 -415 234 -417 232 -5 -5 -25 -505
-28 -703 l-2 -140 -18 40 c-64 141 -72 383 -21 633 15 78 64 254 83 305 l11
28 45 -31 c45 -31 85 -36 93 -13 2 7 -21 39 -52 71 l-56 58 23 32 c54 79 304
220 577 327 80 31 154 60 165 65 11 5 499 9 1084 9 l1064 1 -21 -23z m-5024
-83 l33 -20 -136 -155 c-75 -85 -139 -155 -143 -156 -4 -2 -20 21 -37 49 -47
80 -171 244 -213 278 l-37 31 250 -3 c233 -3 253 -4 283 -24z m637 14 c6 -5
-135 -172 -293 -348 -2 -3 -9 3 -16 13 -69 111 -135 205 -175 249 l-50 55 22
22 c22 21 26 22 264 19 133 -2 245 -6 248 -10z m-473 -180 c27 -37 72 -105 99
-150 l49 -83 0 -307 0 -308 -270 0 -270 0 0 309 0 310 148 169 147 169 23 -21
c13 -11 46 -51 74 -88z m1817 -467 c-82 -329 -76 -619 17 -803 14 -27 24 -51
22 -53 -3 -3 -458 351 -480 373 -4 4 3 21 17 37 14 17 120 148 236 293 117
144 213 262 214 262 1 0 -10 -49 -26 -109z m3535 -31 c-41 -156 -57 -276 -58
-425 -1 -163 17 -258 70 -373 l33 -73 -37 29 c-388 302 -453 356 -448 368 7
17 458 576 462 572 1 -2 -9 -46 -22 -98z m-6561 -165 c191 -109 347 -200 347
-204 0 -3 -56 -28 -125 -55 -245 -95 -468 -215 -566 -303 l-42 -38 6 386 c6
365 10 424 26 415 3 -1 162 -92 354 -201z m3880 -235 c4 -4 -52 -31 -125 -60
-269 -106 -458 -207 -559 -297 l-52 -48 6 325 c4 178 10 361 13 406 l7 81 351
-200 c193 -110 355 -203 359 -207z"/>
</g>
</svg>
