<?xml version="1.0" standalone="yes"?>
<svg xmlns="http://www.w3.org/2000/svg" width="558" height="371">
<!-- <path style="fill:#ffffff; stroke:none;" d="M0 0L0 371L558 371L558 0L0 0z"/>
--><path style="fill:#000000; stroke:none;" d="M47 208C92.4797 238.686 137.278 270.336 183 300.667C193.759 307.805 204.56 315.198 216 321.219C218.761 322.672 225.577 327.011 227.863 322.678C229.523 319.532 225.879 316.031 223.956 314.004C218.428 308.174 211.798 303.506 206 297.961C184.66 277.548 180 253.304 180 225C220.635 248.148 257.786 279.056 297 304.656C311.063 313.837 330.671 331.845 348 332C347.543 317.92 326.791 308.116 318.464 298C301.958 277.95 294.954 248.394 301 223C340.508 254.332 384.616 282.009 427 309.308C436.904 315.687 446.816 322.059 457 327.988C459.98 329.723 465.936 333.713 469.392 330.968C475.223 326.338 459.876 315.482 457 313C435.832 294.731 422.344 272.625 422.004 244C421.33 187.346 453.289 130.951 483.344 85C492.261 71.3676 503.968 59.0966 512 45C503.185 48.3907 495.522 56.2294 488 61.8734C471.898 73.9554 455.89 86.2151 440 98.5756C395.708 133.03 346.314 164.06 305 202C313.428 161.275 336.522 121.217 359.333 87C368.615 73.0782 381.441 59.8072 389 45L366 61.3488L327 91.1157L184 200C192.348 159.554 212.931 120.336 235.344 86C245.929 69.7844 259.464 54.737 269 38C251.373 43.9438 233.85 63.4408 219 74.6258C180.486 103.635 142.55 133.414 104 162.373C90.9262 172.195 78.0786 182.313 65 192.127C58.9598 196.659 50.4755 201.14 47 208z"/>
<path style="fill:#ffffff; stroke:none;" d="M240 66L57 206L57 207L150 271.333L208 309C193.167 289.605 178.572 276.775 175 251C173.564 240.637 178.49 220.505 167 216L176.486 204.961L186.344 170L212.78 112L230.667 82L240 66M359 74C316.75 110.561 269.638 143.004 225 176.626C213.956 184.944 202.882 193.26 192 201.79C187.95 204.965 181.562 208.196 181.248 214C180.987 218.813 185.604 221.017 189 223.424C197.599 229.521 206.394 235.339 215 241.424C251.61 267.314 288.758 295.235 328 317C323.504 310.749 317.03 306.121 312.211 300C302.137 287.205 295.743 271.262 294.17 255C293.13 244.256 299.706 220.265 289 215C300.83 204.095 302.383 187.904 307.692 173C315.509 151.057 326.279 130.158 337.85 110C342.524 101.857 347.478 93.8233 352.667 86C355.046 82.4138 358.856 78.3878 359 74M482 74C439.341 110.914 391.409 142.401 347 177.21C336.115 185.742 325.047 194.053 314 202.374C310.462 205.039 302.988 209.014 302.466 213.921C302.053 217.809 307.393 220.281 310 222.141C318.93 228.513 327.968 234.749 337 240.975C374.132 266.57 411.15 295.786 451 317C440.998 303.411 429.068 294.379 422.453 278C403.29 230.552 428.058 173.352 449.247 131C455.948 117.607 463.663 104.705 471.576 92C474.831 86.7751 481.275 80.1165 482 74M329 317L330 318L329 317M453 318L454 319L453 318z"/>
</svg>
