<?xml version="1.0" standalone="yes"?>
<svg xmlns="http://www.w3.org/2000/svg" width="465" height="371">
<path style="fill:#ffffff; stroke:none;" d="M0 0L0 371L465 371L465 0L0 0z"/>
<path style="fill:#000000; stroke:none;" d="M157 108L117 107.362L51 71C45.009 96.1638 49.429 126.247 49.429 152C49.429 188.322 48.5656 224.809 48.9961 261C49.1707 275.67 47.6584 290.418 48.0147 305C48.0871 307.965 47.7969 318.173 51.2739 319.248C54.6021 320.278 56.6761 314.945 58.2739 313C63.757 306.326 71.4016 302.074 79 298.248C90.9427 292.234 104.675 284.546 118 282.326C130.407 280.258 144.425 282 157 282L157 347L163 347L163 282L213 282L213 346L218 346L218 282L266 282L266 348L272 348L272 282L322 282L322 347L328 347L328 282L409 282L409 276L328 276L328 226L409 226L409 220L328 220L328 169L409 169L409 164L328 164L328 114L409 114L409 108L328 108C328 102.367 326.903 95.3962 328.702 90C335.882 68.4615 358.111 52.761 365 31C302.397 31 239.623 27.6861 177 29.1157C162.696 29.4423 148.314 29 134 29C130.675 29 121.26 27.3653 119.662 31.2739C118.44 34.2621 132.97 46.3734 135.302 50C145.632 66.0692 156.998 88.6765 157 108z"/>
<path style="fill:#ffffff; stroke:none;" d="M131 34L131 35C146.533 48.5756 150.701 70.5394 160 88C168.552 78.1572 174.274 64.3376 180.719 53C182.764 49.4031 187.057 44.3179 184.353 40.108C181.314 35.3753 175.009 35.0252 170 35.0008C156.95 34.937 144.025 34 131 34M215 81C223.612 73.8821 229.194 61.2876 235.333 52C237.923 48.0814 240.804 44.2943 236.836 40.2238C229.269 32.4611 216.661 35.3794 207 34.9606C202.085 34.7476 196.333 33.3092 195.248 40.0046C194.519 44.4987 199.244 49.3833 201.396 53C206.67 61.8661 211.27 71.3858 215 81M253 35C243.232 49.5551 265.157 73.7819 269 90C277.914 79.3522 283.689 64.9473 290.799 53C293.187 48.9889 297.464 43.6159 292.836 39.6489C283.113 31.3143 264.677 37.7801 253 35M325 82L326 82L355 37C343.008 36.7524 331.053 36.0193 319 36C314.897 35.9934 308.762 34.2565 306.014 38.1628C302.82 42.7032 306.634 47.1042 308.997 51C315.065 61.0039 319.247 71.8906 325 82M242 36L243 38L244 38L245 36L242 36M190 48C179.242 66.2429 163 86.4382 163 108L213 108C213 84.5428 202.79 68.274 192 48L190 48M300 49C288.777 64.7154 272 88.4961 272 108L322 108C322 88.4074 315.183 62.9161 300 49M243 50L218.699 89L218 108L266 108C266 87.3804 254.413 67.8909 245 50L243 50M56 81L54 128L63 131.739L77 124.259L109 111C95.7305 99.8907 72.494 86.2195 56 81M69 135L69 137L116 163.301L157 164L157 114C144.108 114 129.718 112.202 117 114.326C100.456 117.088 83.6444 127.295 69 135M163 114L163 164L213 164L213 114L163 114M218 114L218 164L266 164L266 114L218 114M272 114L272 164L322 164L322 114L272 114M56 136L57 137L56 136M54 185C62.6517 190 66.963 185.295 75 181.248C85.5749 175.922 96.5342 170.136 108 167C99.6922 157.302 83.0605 151.352 72 145C67.2905 142.295 62.7468 138.901 58.419 144.063C50.432 153.591 56.1668 173.329 54 185M68 193L115 219.351L157 220L157 169L119 169.326L89 180.694L68 193M163 169L163 220L213 220L213 169L163 169M218 169L218 220L266 220L266 169L218 169M272 169L272 220L322 220L322 169L272 169M108 223C97.965 214.599 84.3885 208.755 73 202.281C69.403 200.236 64.3179 195.943 60.108 198.647C52.473 203.551 52.7423 229.693 54.1481 237.896C54.6574 240.868 57.1499 242.975 60.0046 243.792C64.7363 245.147 70.0293 240.308 74 238.258C85.0954 232.531 96.7227 228.275 108 223M68 248L99 266.421L117 275.725L157 276L157 226C144.281 226 129.477 223.899 117 226.379C100.358 229.687 82.4707 239.466 68 248M163 226L163 276L213 276L213 226L163 226M218 226L218 276L266 276L266 226L218 226M272 226L272 276L322 276L322 226L272 226M54 307L83 289.309L108 278C97.0936 271.568 85.9982 265.428 75 259.15C71.7299 257.284 66.0022 252.392 62.0154 253.446C56.9879 254.775 55.2579 261.561 55.0401 266C54.3701 279.657 54 293.311 54 307z"/>
</svg>
