<?xml version="1.0" standalone="no"?>
<!DOCTYPE svg PUBLIC "-//W3C//DTD SVG 20010904//EN"
 "http://www.w3.org/TR/2001/REC-SVG-20010904/DTD/svg10.dtd">
<svg version="1.0" xmlns="http://www.w3.org/2000/svg"
 width="619.000000pt" height="371.000000pt" viewBox="0 0 619.000000 371.000000"
 preserveAspectRatio="xMidYMid meet">
<metadata>
Created by potrace 1.16, written by Peter Selinger 2001-2019
</metadata>
<g transform="translate(0.000000,371.000000) scale(0.100000,-0.100000)"
fill="#000000" stroke="none">
<path d="M2706 3438 c-3 -29 -9 -251 -12 -493 -5 -378 -4 -443 8 -459 21 -26
45 -15 53 26 9 40 117 150 193 196 l54 33 -6 -188 c-4 -103 -7 -282 -8 -398
-1 -249 -3 -764 -3 -923 0 -61 -1 -112 -2 -112 -1 0 -61 41 -133 91 -72 50
-134 88 -138 84 -10 -10 -20 -339 -21 -686 -1 -233 2 -299 12 -314 19 -25 34
-13 61 48 46 104 199 216 486 356 l155 76 893 3 892 2 0 -225 0 -225 25 0 25
0 0 1118 0 1118 291 424 290 425 -31 6 c-52 11 -1021 32 -1103 25 -77 -8 -104
-22 -94 -50 3 -8 22 -18 42 -22 41 -7 114 -60 167 -119 73 -82 173 -246 276
-455 l107 -215 3 -117 4 -118 -786 0 -786 0 -267 192 c-148 105 -277 199 -287
209 -18 17 -15 19 90 72 60 30 153 73 206 96 l97 41 745 0 746 0 0 30 0 30
-750 0 -751 0 -337 217 c-185 119 -351 225 -368 235 l-31 18 -7 -52z m382
-248 c166 -106 302 -196 302 -200 0 -3 -17 -12 -37 -19 -81 -28 -343 -162
-431 -220 -51 -33 -113 -82 -139 -107 l-46 -47 7 364 c7 386 11 445 30 431 6
-5 147 -96 314 -202z m2283 194 c180 -4 332 -10 339 -14 9 -6 -55 -107 -225
-356 -131 -192 -245 -357 -253 -366 -13 -16 -19 -7 -66 95 -117 253 -256 477
-362 584 -61 60 -62 62 -36 66 15 2 83 2 152 0 69 -2 272 -6 451 -9z m-2094
-850 c120 -86 233 -168 251 -182 l34 -24 -129 -68 c-152 -79 -268 -155 -340
-223 l-53 -50 0 200 c0 197 10 503 16 503 2 0 102 -70 221 -156z m1913 -614
l0 -380 -785 0 -786 0 -267 192 c-147 105 -271 194 -275 198 -14 12 54 80 142
144 44 31 154 95 243 141 l163 85 783 0 782 0 0 -380z m-2070 -85 c25 -18 134
-96 243 -175 l199 -142 -122 -64 c-155 -81 -278 -161 -346 -226 l-54 -51 0
200 c0 287 11 504 24 496 6 -3 31 -21 56 -38z m2070 -675 l0 -330 -895 0 -895
0 -175 122 c-153 105 -175 124 -169 142 27 85 188 204 448 332 l129 64 778 0
779 0 0 -330z m-2077 -194 c125 -87 227 -159 227 -161 0 -3 -47 -27 -104 -54
-197 -93 -370 -203 -455 -291 l-44 -45 7 390 c4 214 10 393 13 397 2 5 32 -11
66 -35 34 -24 164 -114 290 -201z"/>
<path d="M1988 3061 c-362 -220 -658 -395 -658 -389 0 5 14 51 31 102 60 181
191 409 334 585 37 46 63 82 58 80 -27 -11 -1343 -815 -1343 -820 0 -8 899
-611 1057 -709 90 -55 101 -65 85 -75 -9 -6 -268 -163 -575 -349 -306 -186
-557 -341 -557 -345 0 -14 962 -654 1154 -768 95 -56 120 -63 130 -37 8 22 -8
39 -126 136 -193 158 -262 296 -261 524 0 61 3 116 6 122 4 6 201 -119 474
-302 463 -308 726 -476 749 -476 6 0 17 7 24 15 16 20 -8 47 -130 146 -246
199 -311 436 -214 777 30 107 142 336 223 459 55 83 64 91 84 84 12 -4 28 -6
35 -4 15 6 16 35 1 50 -13 13 -6 25 48 91 l27 34 -60 -36 c-32 -20 -62 -36
-66 -36 -16 0 -167 133 -200 177 -173 228 -169 520 12 888 68 138 162 283 256
397 36 43 64 78 62 78 -1 0 -299 -180 -660 -399z m397 130 c-66 -101 -148
-270 -183 -377 -101 -303 -78 -540 72 -742 l47 -63 -60 38 c-222 143 -870 579
-868 586 2 8 1030 635 1035 632 2 -2 -18 -35 -43 -74z m-894 -28 c-155 -251
-235 -489 -235 -698 0 -170 45 -304 141 -422 l45 -55 -54 35 c-256 163 -887
592 -881 598 13 12 1028 627 1031 624 1 -1 -20 -38 -47 -82z m305 -868 c230
-155 470 -313 533 -353 l113 -71 -33 -21 c-19 -11 -266 -161 -549 -333 -283
-173 -516 -313 -517 -312 -9 6 67 200 117 300 84 168 167 289 202 293 28 3 45
29 29 45 -7 7 5 28 35 64 25 29 42 53 37 53 -4 0 -33 -16 -63 -35 -30 -18 -59
-30 -65 -26 -184 136 -270 246 -311 398 -16 61 -22 251 -10 291 8 23 8 23 35
5 15 -10 216 -144 447 -298z m608 -532 c-213 -323 -310 -657 -260 -893 22
-103 53 -174 111 -254 49 -68 51 -73 23 -56 -73 44 -898 596 -898 600 0 6
1022 628 1034 629 4 1 0 -11 -10 -26z m-866 -15 c-237 -367 -325 -711 -247
-964 28 -90 48 -128 110 -211 29 -37 46 -63 38 -57 -8 5 -220 147 -471 314
-252 168 -458 307 -458 310 1 5 1031 630 1039 630 2 0 -3 -10 -11 -22z"/>
</g>
</svg>
