<?xml version="1.0" standalone="no"?>
<!DOCTYPE svg PUBLIC "-//W3C//DTD SVG 20010904//EN"
 "http://www.w3.org/TR/2001/REC-SVG-20010904/DTD/svg10.dtd">
<svg version="1.0" xmlns="http://www.w3.org/2000/svg"
 width="391.000000pt" height="371.000000pt" viewBox="0 0 391.000000 371.000000"
 preserveAspectRatio="xMidYMid meet">
<metadata>
Created by potrace 1.16, written by Peter Selinger 2001-2019
</metadata>
<g transform="translate(0.000000,371.000000) scale(0.100000,-0.100000)"
fill="#000000" stroke="none">
<path d="M910 3414 l0 -39 -269 3 c-289 3 -334 -2 -339 -35 -3 -17 6 -24 48
-38 132 -44 307 -286 487 -675 l58 -125 3 -1123 3 -1122 24 0 25 0 0 1098 c0
603 4 1103 8 1110 7 9 16 7 43 -11 61 -41 143 -202 223 -439 l46 -137 0 -810
0 -811 25 0 25 0 0 815 0 815 78 155 77 156 115 59 c63 32 156 75 205 97 l90
38 865 5 865 5 0 25 0 25 -865 5 -865 5 -255 159 c-140 87 -256 160 -258 161
-4 4 114 59 215 101 l82 34 975 0 976 0 0 25 0 25 -980 0 -980 0 -127 81 c-71
45 -131 85 -136 89 -4 3 24 52 63 108 38 57 70 104 70 106 0 2 -111 6 -247 10
-270 8 -240 2 -345 70 l-28 18 0 -38z m-14 -97 c3 -2 2 -154 -2 -336 l-7 -332
-87 168 c-124 241 -213 373 -319 471 l-46 43 228 -4 c126 -3 230 -7 233 -10z
m268 -89 c80 -51 146 -96 146 -100 0 -8 -345 -516 -362 -533 -11 -10 -2 658 9
703 10 42 52 28 207 -70z m265 76 c2 -2 -16 -32 -40 -67 l-44 -64 -36 23 c-21
13 -72 45 -114 72 l-77 49 154 -5 c84 -2 155 -6 157 -8z m47 -276 c63 -40 114
-76 114 -79 0 -3 -30 -19 -67 -34 -38 -16 -99 -44 -136 -62 l-68 -34 -33 21
c-18 11 -36 20 -40 20 -3 0 -6 -17 -6 -39 0 -37 -3 -40 -81 -90 -45 -28 -83
-50 -84 -49 -2 4 278 417 284 418 2 0 55 -33 117 -72z m109 -436 c138 -85 252
-156 254 -158 2 -2 -5 -7 -15 -10 -10 -4 -82 -36 -158 -70 -77 -35 -141 -62
-144 -60 -2 2 20 50 48 106 28 56 49 105 46 108 -3 3 -77 8 -163 13 -87 4
-159 8 -160 8 -2 1 -3 50 -3 110 0 78 4 111 13 114 15 5 -13 22 282 -161z
m-350 1 l-7 -63 -121 0 -121 0 35 36 c18 20 75 63 124 96 l90 59 3 -33 c2 -18
1 -61 -3 -95z m-6 -270 c0 -122 -3 -152 -11 -133 -42 98 -111 233 -133 259
l-27 31 86 0 86 0 -1 -157z m299 138 c21 -13 -87 -222 -130 -252 -18 -12 -52
-40 -75 -63 l-43 -40 0 182 0 182 118 0 c64 0 123 -4 130 -9z m-185 -411 c-20
-44 -40 -80 -45 -80 -12 0 -10 48 3 73 10 19 69 87 75 87 2 0 -14 -36 -33 -80z"/>
</g>
</svg>
