<?xml version="1.0" standalone="yes"?>
<svg xmlns="http://www.w3.org/2000/svg" width="499" height="371">
<!-- <path style="fill:#ffffff; stroke:none;" d="M0 0L0 371L499 371L499 0L0 0z"/>
--><path style="fill:#000000; stroke:none;" d="M234 93L129 93C116.845 93 96.4079 96.9759 85.1698 92.3966C79.8785 90.2405 75.395 83.1746 71.7145 79C62.2141 68.2239 49.888 49.2796 37 43C37 69.6587 36 96.2893 36 123C36 127.743 33.3493 146.276 38.2631 148.593C42.4881 150.584 45.3394 137.647 46.8765 135C54.6071 121.689 69.4804 108.167 83 100.803C91.908 95.9511 108.036 99 118 99L200 99C208.17 99 229.174 95.2518 235.582 100.603C246.596 109.803 245 132.425 245 145L245 263L158 263L158 205L158.843 179L190 134C172.689 134 155.37 133 138 133C134.2 133 123.276 131.142 121.176 135.263C119.414 138.721 127.055 141.554 128.996 143.214C137.511 150.494 142.972 161.235 148.111 171C153.51 181.259 152 192.76 152 204L152 263L105 263L85 261.972L71.9645 249L37 212C37 238.99 36 265.957 36 293C36 297.196 33.5661 316.763 38.2631 318.248C42.7093 319.654 44.0891 309.572 45.3781 307C51.2538 295.277 62.8622 285.604 73 277.662C92.8528 262.109 127.614 269 152 269L152 289L158 289L158 269L245 269L245 334L250 334L250 190C250 168.757 245.882 142.732 250.39 122C252.114 114.073 258.422 105.99 262.421 99C273.322 79.9451 289.385 58.9026 296 38C271.027 37.9836 246.06 36 221 36C216.919 36 198.76 33.6121 197.921 39.0934C197.363 42.7417 208.333 48.2763 210.7 51.0038C221.377 63.3108 226.083 79.0881 234 93z"/>
<path style="fill:#ffffff; stroke:none;" d="M210 41L210 42C232.268 58.3916 234.234 90.227 248 112L272.281 69L286 43L210 41M42 57L41 131L42 131C51.1837 117.554 64.1805 105.606 78 97C71.8554 83.8049 53.876 65.3712 42 57z"/>
<path style="fill:#000000; stroke:none;" d="M253 130C253 164.377 246.72 203.176 253 237C260.382 236.411 261.717 224.602 265.746 219C273.531 208.177 288.698 191.344 302 187.51C316.73 183.264 337.655 187 353 187L463 187L463 181L350 181C336.512 181 314.601 185.24 302.039 180.397C296.489 178.257 291.391 170.392 287.576 166C278.151 155.151 265.799 136.48 253 130z"/>
<path style="fill:#ffffff; stroke:none;" d="M134 138L155 172L156 172L179 139L134 138M259 145L258 218L259 218C267.543 204.342 281.817 192.995 295 184C285.855 171.016 271.883 154.266 259 145M42 226L41 301L42 301C50.4221 286.36 65.0295 276.295 78 266L78 265L42 226z"/>
</svg>
