<?xml version="1.0" standalone="yes"?>
<svg xmlns="http://www.w3.org/2000/svg" width="632" height="371">
<!-- <path style="fill:#ffffff; stroke:none;" d="M0 0L0 371L632 371L632 0L0 0z"/>
--><path style="fill:#000000; stroke:none;" d="M169 76L183.356 47L196 28L96 83C102.093 61.5293 113.942 46.2317 126 28C113.4 30.2739 100.157 40.9505 89 47.1389C65.6797 60.0736 41.973 72.4521 19 86L19 88C47.3305 105.486 73.7981 127.179 101 146.424C107.491 151.017 114.036 156.033 121 159.891C123.021 161.011 127.102 162.886 128.338 159.679C130.588 153.842 114.58 143.615 111.004 140C97.3187 126.167 94 110.771 94 92C121.58 107.714 147.111 129.705 173 148.141C179.118 152.498 185.364 157.208 192 160.749C194.011 161.822 198.076 163.719 199.338 160.562C201.594 154.92 185.475 144.509 182.004 141C167.828 126.671 165 111.325 165 92C189.321 110.746 214.834 128.135 240 145.72C245.753 149.74 251.559 154.705 257.999 157.583C259.802 158.388 264.379 159.86 264.94 156.681C266.084 150.197 249.493 140.39 245.59 135.961C234.223 123.06 230 108.918 230 92C261.429 119.193 298.389 142.098 333 165C300.831 180.218 270.822 205.187 241 224.656C231.34 230.962 212.293 238.647 207 249C237.751 271.089 267.798 294.196 299 315.659C306.279 320.666 313.382 326.054 321 330.546C323.176 331.83 327.693 334.89 330.238 332.929C335.169 329.132 322.386 319.648 320 317.576C301.652 301.637 292.412 281.363 294.09 257C295.661 234.181 306.078 211.375 317.604 192C322.171 184.323 335.802 171.73 336.253 163C336.606 156.167 328.438 151.622 324 147.715C315.342 140.092 307.408 131.154 303.749 120C296.235 97.0908 304.901 71.7101 317.065 52C321.886 44.1884 329.298 37.306 333 29C298.04 43.555 263.707 65.8922 231 85C234.995 70.8158 240 57.603 247.814 45C252.122 38.0521 258.29 32.2672 262 25L224 45.1396L169 76M334 34L333 122C330.499 122 313.367 120.672 317.086 126.534C319.268 129.972 325.865 131.071 328.941 134.105C334.142 139.235 330.678 148.352 339 149L339 145L352.501 166L353 195L353 256L335 243C332.55 251.288 334.014 261.386 334 270C333.978 283.956 333 297.975 333 312C333 316.472 330.649 331.427 335.414 333.824C339.158 335.707 344.722 322.491 347.093 320.09C358.639 308.393 376.437 297.374 392 291.966C405.714 287.201 426.507 291 441 291L548 291L548 328L554 328L554 185L554 141L554.649 120L568.576 97L605 39C578.055 35.5947 549.166 36 522 36C517.571 36 497.878 33.9016 496.921 40.0903C496.356 43.7459 507.238 48.0722 509.714 50.4398C520.972 61.207 527.22 75.8072 535 89L426 89C414.517 89 392.236 93.304 382.039 87.9722C376.831 85.2487 372.779 78.3812 369 74C357.923 61.1584 347.468 44.2998 334 34z"/>
<path style="fill:#ffffff; stroke:none;" d="M511 42C526.513 64.0264 543.386 85.3665 551 112L552 112L594 44L511 42M240 43L167 84L167 86L237 136C224.147 114.726 221.435 94.9307 228.721 71C231.16 62.9873 240.752 50.9275 240 43M30 87L30 88L100 138C96.4845 130.567 91.9139 124.146 89.8989 116C83.4801 90.0513 95.1101 68.9514 105 46L77 60.6944L30 87M175 46C153.399 61.3802 125.461 76.762 101 87L101 89L171 139C165.481 128.63 159.935 119.058 159.09 107C158.579 99.7177 162.27 89.091 155 85L155 83C164.691 80.0891 166.566 65.3549 170.753 57C172.457 53.6009 175.363 49.8246 175 46M237 90L307 140C303.484 132.567 298.914 126.146 296.899 118C290.553 92.347 301.474 70.5447 312 48C293.86 53.2359 275.447 67.1316 259 76.4244C251.924 80.4226 242.312 83.8036 237 90M339 49L338 122C346.61 121.721 350.263 114.553 356.001 109.039C360.061 105.138 373.343 97.6098 374.079 91.9097C374.605 87.8356 368.401 82.7839 366 80C357.208 69.8079 349.182 57.815 339 49M352 122L396 123C386.339 136.769 365.399 149.265 359.603 165C355.537 176.042 359 194.233 359 206L359 244C359 248.993 357.648 256.417 360.028 260.961C362.38 265.452 368.11 268.399 372 271.424C377.708 275.864 384.169 282.734 391 285.262C398.06 287.874 408.534 286 416 286L548 286L548 162C548 140.429 551.217 117.344 539.176 98.1481C536.423 93.7599 530.492 95 526 95L491 95L416 95C405.865 95 391.657 92.43 382 95.564C371.378 99.0111 358.245 113.134 352 122M338.333 128.667L338.667 129.333L338.333 128.667M356 158L357 158L384 128C374.875 128 342.404 122.652 342.704 137C342.833 143.133 352.381 153.022 356 158z"/>
<path style="fill:#000000; stroke:none;" d="M31 247L31 249C63.3098 268.942 92.7534 294.386 124 316.025C131.268 321.058 138.423 326.361 146 330.931C148.134 332.218 152.804 335.212 154.953 332.381C158.744 327.389 146.929 319.783 144 317.271C128.831 304.263 120.648 288.75 118.285 269C113.52 229.151 142.591 194.168 162 163C147.278 166.46 131.639 181.404 119 189.656C89.6937 208.788 60.0141 227.427 31 247z"/>
<path style="fill:#ffffff; stroke:none;" d="M138 184C108.528 206.654 74.475 228.92 42 247C46.2456 255.31 58.5971 261.13 66 266.63C86.0738 281.542 106.265 298.619 128 311C111.816 281.93 108.437 255.97 120.054 224C123.438 214.686 127.718 205.796 132.258 197C134.288 193.067 138.423 188.496 138 184M314 184L246 228.667L217 249L304 311C285.424 280.898 284.53 251.948 297.601 219C301.777 208.473 312.942 194.891 314 184M340 255L339 319C353.992 308.44 366.647 296.226 384 289C378.011 281.192 362.965 268.109 353 267C351.307 261.229 345.362 257.27 340 255z"/>
</svg>
