<?xml version="1.0" standalone="yes"?>
<svg xmlns="http://www.w3.org/2000/svg" width="382" height="371">
<!-- <path style="fill:#ffffff; stroke:none;" d="M0 0L0 371L382 371L382 0L0 0z"/>
--><path style="fill:#000000; stroke:none;" d="M140 287C128.257 286.992 120.636 280.179 111 274.192C92.7507 262.854 74.7206 247.509 55 239C55 264.67 53 290.285 53 316C53 321.198 50.3177 337.854 55.4151 340.914C58.9168 343.015 68.0315 327.845 71 325.3C86.969 311.61 108.45 302.003 128 294.619C144.898 288.236 170.992 293 189 293L326 293L326 287L280 287L280 161L280 124C280 118.493 278.78 111.256 280.589 106C283.193 98.4345 291.701 91.1126 296.75 85C310.373 68.5066 329.282 51.0368 339 32C307.998 32 277.044 30 246 30C240.091 30 218.506 26.7838 215.137 32.4946C213.1 35.9475 230.2 43.3777 233 46.0401C249.051 61.3047 261.13 80.3813 271.215 100C278.72 114.598 274 139.799 274 156L274 287L145 287L145 158L145 121L145.938 104L161.576 84L204 31C194.818 28.286 183.544 30.1097 174 29.9962C153.114 29.7477 130.746 30.7333 110 28.2855C102.609 27.4134 95.3739 28.9382 88 29.0008C85.6193 29.021 81.4922 28.6013 80.2562 31.2739C78.7397 34.553 96.1931 42.4892 99 45.0903C115.251 60.1491 129.102 81.825 138.201 102C144.799 116.63 140 142.042 140 158L140 287z"/>
<path style="fill:#ffffff; stroke:none;" d="M96 34L96 35C116.131 47.5918 132.999 75.3864 142 97L166.611 68L192 36L96 34M232 36L232 37C252.568 52.6717 264.276 76.1992 277 98L302.611 68L327 37L232 36M60 249L59 327C79.9178 312.323 99.8401 300.961 123 290C106.256 273.964 80.2699 260.285 60 249z"/>
</svg>
