<?xml version="1.0" standalone="no"?>
<!DOCTYPE svg PUBLIC "-//W3C//DTD SVG 20010904//EN"
 "http://www.w3.org/TR/2001/REC-SVG-20010904/DTD/svg10.dtd">
<svg version="1.0" xmlns="http://www.w3.org/2000/svg"
 width="409.000000pt" height="371.000000pt" viewBox="0 0 409.000000 371.000000"
 preserveAspectRatio="xMidYMid meet">
<metadata>
Created by potrace 1.16, written by Peter Selinger 2001-2019
</metadata>
<g transform="translate(0.000000,371.000000) scale(0.100000,-0.100000)"
fill="#000000" stroke="none">
<path d="M351 3428 c-38 -20 -36 -35 8 -62 21 -14 51 -40 64 -58 67 -89 165
-329 248 -605 l42 -137 -13 -618 c-6 -339 -8 -623 -3 -630 4 -7 10 -231 13
-498 l5 -485 25 0 25 0 5 495 c3 272 9 502 14 510 77 129 278 295 532 439 l90
51 144 0 143 0 -23 -25 -23 -24 47 -55 c54 -63 554 -551 635 -620 61 -52 101
-61 101 -23 0 13 -25 57 -56 98 -64 84 -96 147 -119 234 -18 70 -31 269 -20
311 l7 29 96 -102 c142 -149 508 -500 553 -530 32 -21 42 -23 54 -13 8 7 15
17 15 23 0 6 -27 48 -60 93 -101 139 -139 250 -140 404 l0 75 233 -231 c300
-298 373 -364 403 -364 23 0 29 9 24 39 -1 7 -25 46 -55 85 -109 146 -138 241
-137 456 0 74 7 182 16 239 45 295 171 679 340 1034 35 75 63 137 61 137 -2 0
-192 -239 -421 -531 -230 -292 -420 -527 -422 -521 -5 16 56 247 105 392 55
165 131 353 212 524 34 71 60 130 59 131 -2 2 -201 -249 -443 -557 -242 -307
-448 -569 -458 -581 l-18 -22 7 30 c61 300 201 700 344 985 28 56 50 103 48
105 -2 1 -210 -261 -464 -584 l-460 -586 -165 -3 -165 -2 -317 276 -317 276 0
73 0 73 185 412 c102 227 185 416 185 420 0 8 -190 18 -520 26 -193 4 -250 3
-269 -8z m572 -55 c75 -3 137 -10 137 -14 0 -8 -308 -700 -314 -707 -2 -1 -27
71 -56 160 -84 262 -174 471 -229 533 -47 53 -62 52 462 28z m2462 -745 c-88
-229 -174 -541 -191 -690 l-7 -58 -210 0 c-203 0 -209 1 -204 20 4 15 645 840
652 840 2 0 -17 -51 -40 -112z m-481 -40 c-66 -179 -117 -354 -154 -527 -41
-192 -27 -182 -269 -179 l-194 3 333 423 c182 232 333 422 335 422 1 0 -21
-64 -51 -142z m-520 -33 c-63 -168 -127 -388 -159 -540 -15 -72 -28 -131 -29
-133 -2 -1 -92 -1 -200 0 l-197 3 312 397 c172 219 314 396 316 395 1 -2 -18
-57 -43 -122z m-1306 -459 c144 -126 262 -232 262 -236 0 -3 -51 -37 -112 -73
-155 -93 -278 -185 -375 -283 l-83 -83 0 470 0 470 23 -18 c13 -10 141 -121
285 -247z m2098 -409 c1 -164 15 -249 59 -344 13 -29 21 -53 18 -53 -4 0 -116
109 -250 242 -201 200 -243 247 -243 270 l0 28 208 3 c114 1 207 3 207 5 0 1
0 -67 1 -151z m-1000 131 c4 -6 8 -88 9 -182 2 -184 14 -254 60 -349 13 -28
23 -52 22 -54 -2 -1 -126 121 -276 271 l-273 273 17 27 17 26 209 0 c148 0
210 -3 215 -12z m494 -23 l33 -34 3 -113 c4 -123 27 -235 68 -325 14 -29 24
-53 23 -53 -1 0 -128 126 -282 280 l-280 280 201 0 200 0 34 -35z"/>
</g>
</svg>
