<?xml version="1.0" standalone="yes"?>
<svg xmlns="http://www.w3.org/2000/svg" width="674" height="371">
<path style="fill:#ffffff; stroke:none;" d="M0 0L0 371L674 371L674 0L0 0z"/>
<path style="fill:#000000; stroke:none;" d="M612 26C591.998 40.8271 572.51 56.5324 553 72.0031C544.782 78.5193 534.37 90.2187 524.424 93.6373C514.129 97.1765 497.698 93.8221 487 93.0895C463.688 91.4931 439.342 92 416 92C365.996 92 315.941 91.598 266 91.0038C241.802 90.716 214.861 94.6589 191 90.6744C151.104 84.0121 115.044 55.914 75 50C72.8044 61.8264 73.9871 74.098 72.4244 86C71.3421 94.2425 71.9591 102.705 71.1698 111C70.5614 117.392 67.8302 141.22 74.4174 144.863C77.9733 146.83 89.1449 134.167 93 132.12C112.608 121.705 134.781 116.313 156 110.29C162.39 108.477 179.012 101.156 184.79 105.492C193.053 111.692 197.496 127.74 201.2 137C208.861 156.154 208 173.639 208 194L208 263C193.118 262.99 178.871 255.204 165 250.343C134.936 239.808 105.294 227.857 75 218C71.9871 241.84 71 266.968 71 291C71 296.167 68.8638 310.862 74.3125 313.914C78.1698 316.074 80.9609 310.313 83.1289 308.184C89.3799 302.045 98.0141 298.77 106 295.601C127.682 286.998 150.39 280.778 173 275.127C184.214 272.324 196.413 268.24 208 268L208 314L214 314L214 268L258 268L258 314L264 314L264 268L314 268L314 315L320 315L320 268L366 268L366 315L372 315L372 268L416 268L416 315L422 315L422 268L472 268L472 316L478 316L478 268L515 268L510 272L510 274C537.166 289.856 566.704 302.567 595 316.258C599.241 318.31 619.228 330.811 622.914 325.397C625.787 321.175 616.523 316.76 614 315.192C600.816 307 589.934 296.657 586.425 281C578.869 247.281 600.626 221.678 613 193C603.469 197.029 595.071 205.597 587 211.997C572.747 223.299 558.215 234.251 544 245.6C537.312 250.94 529.912 258.686 522 262.062C510.641 266.91 490.331 263 478 263L478 190C478 179.551 475.744 166.07 478.638 156C480.939 147.994 486.885 140.358 490.745 133C496.708 121.631 503.524 99.0511 518 99L510 108C539.228 120.169 567.631 136.165 596 150.248C602.471 153.46 609.135 157.002 616 159.296C618.441 160.112 623.364 161.155 623.364 157.031C623.364 151.014 605.36 143.279 601.089 139.41C588.804 128.279 583.336 111.3 585.286 95C587.342 77.808 593.52 62.3457 601.248 47C604.121 41.2935 612.922 32.3529 612 26z"/>
<path style="fill:#ffffff; stroke:none;" d="M592 49L545 86.1188L521 106C543.151 120.608 570.511 132.804 595 143C579.98 121.013 575.982 102.162 582.884 76C585.084 67.6635 592.116 57.4129 592 49M80 58L77 135C105.381 116.308 144.201 103.551 178 99L178 98L175 92L112 68.9969L80 58M191 101L201.576 122L212 146C217.923 135.852 223.161 125.279 228.861 115C230.662 111.752 234.602 107 232.867 103.059C230.84 98.4526 225.125 99.0019 221 99C210.699 98.9954 201.173 99.6862 191 101M261 146L262 146L286 100C276.04 97.056 263.366 98.9953 253 99C249.774 99.0015 244.302 98.18 242.991 102.148C241.692 106.08 246.071 111.638 247.753 115C252.817 125.122 256.93 135.45 261 146M294 99L316 146C325.133 140.817 330.849 122.075 336 113C337.777 109.87 342.29 104.003 338.639 100.742C335.591 98.02 329.744 99 326 99L294 99M370 147C375.556 137.49 380.519 127.631 385.861 118C387.794 114.516 392.121 109.26 391.184 105.005C389.053 95.3353 368.167 99 361 99C358.232 99 352.065 97.8921 350.234 100.603C348.006 103.901 352.611 109.261 354.138 112C360.168 122.816 362.698 137.24 370 147M419 147L420 147L444 101C434.308 96.9104 421.376 98.9786 411 99C407.014 99.0082 401.582 98.8076 400.927 104.019C400.373 108.438 404.764 113.269 406.63 117C411.422 126.583 415.568 136.854 419 147M452 100L475 148C484.939 136.005 496.299 114.855 501 100C485.901 99.3516 466.673 95.6628 452 100M290 106L264.498 154L264 189L264 263L314 263L314 195C314 174.703 314.845 157.116 307.2 138C303.067 127.667 298.765 113.263 290 106M448 107L422.637 155L422 190L422 263L472 263L472 192C472 180.852 473.798 167.922 471.482 157C467.755 139.422 458.272 122.706 450 107L448 107M345 109C336.713 121.565 323.577 140.263 320.39 155C317.988 166.111 320 179.639 320 191L320 263L366 263L366 193C366 173.535 367.061 156.339 359.796 138C356.122 128.726 352.163 116.087 345 109M238 110L214.637 154L214 189L214 263L258 263L258 193C258 173.513 259.015 156.37 251.797 138C248.177 128.788 244.856 117.323 238 110M396 111L372.638 155L372 190L372 263L416 263L416 193C416 174.762 417.074 158.286 410.681 141C407.132 131.402 403.376 118.298 396 111M592 216L520 272L545 285.247L594 309C581.173 286.699 575.843 269.895 582.478 244C584.683 235.395 592.093 224.591 592 216M80 226L77 304C110.05 285.6 149.159 271.096 187 266L187 265L80 226z"/>
</svg>
