<?xml version="1.0" standalone="no"?>
<!DOCTYPE svg PUBLIC "-//W3C//DTD SVG 20010904//EN"
 "http://www.w3.org/TR/2001/REC-SVG-20010904/DTD/svg10.dtd">
<svg version="1.0" xmlns="http://www.w3.org/2000/svg"
 width="466.000000pt" height="371.000000pt" viewBox="0 0 466.000000 371.000000"
 preserveAspectRatio="xMidYMid meet">
<metadata>
Created by potrace 1.16, written by Peter Selinger 2001-2019
</metadata>
<g transform="translate(0.000000,371.000000) scale(0.100000,-0.100000)"
fill="#000000" stroke="none">
<path d="M3438 3289 c-30 -17 -20 -39 25 -58 73 -31 142 -122 235 -307 51
-102 132 -289 132 -305 0 -5 -153 -9 -347 -9 l-346 0 21 23 c35 37 25 40 -22
7 l-45 -30 -370 2 -370 3 185 319 c101 176 183 321 181 322 -8 9 -571 25 -745
22 -152 -2 -195 -6 -201 -17 -14 -23 -4 -35 50 -59 64 -30 124 -109 213 -282
56 -109 136 -288 136 -304 0 -3 -222 -6 -493 -6 l-493 0 -329 199 -330 200 -7
-27 c-11 -39 -23 -786 -13 -808 4 -11 9 -167 10 -349 0 -181 2 -469 2 -638 1
-217 5 -312 13 -322 8 -10 11 -98 10 -303 -1 -248 1 -291 14 -302 22 -18 43
-6 51 29 16 72 189 188 451 302 l149 64 507 3 507 3 3 -103 c3 -102 3 -103 28
-103 25 0 25 1 28 102 l3 103 799 0 800 0 0 -95 c0 -95 0 -95 25 -95 l25 0 0
1018 0 1017 221 383 c122 211 219 385 216 388 -19 19 -898 31 -929 13z m807
-58 l41 -6 -190 -328 -189 -328 -53 132 c-100 249 -194 419 -277 508 l-42 43
335 -7 c184 -4 353 -10 375 -14z m-1856 -11 c128 -5 235 -11 237 -13 3 -2 -72
-137 -165 -298 -167 -290 -170 -294 -202 -294 -32 0 -34 2 -71 95 -84 209
-185 393 -263 479 l-37 41 133 0 c74 0 239 -5 368 -10z m-1521 -480 l254 -152
-129 -55 c-145 -61 -285 -136 -359 -192 -44 -33 -53 -36 -69 -25 -16 12 -17
31 -10 301 4 158 9 292 12 296 3 4 15 2 26 -6 12 -8 136 -83 275 -167z m1338
-215 c11 -27 14 -86 14 -267 l0 -233 -65 -42 -65 -43 -451 0 -451 0 -209 125
c-114 69 -240 145 -279 169 l-71 44 68 45 c87 57 184 106 353 178 l135 58 503
0 503 1 15 -35z m444 -209 l-365 -244 -3 210 c-2 198 -1 212 19 244 l21 34
346 0 346 0 -364 -244z m1218 205 c9 -27 12 -209 12 -625 l0 -586 -635 0 -635
0 0 104 c0 121 17 220 61 363 l32 103 581 2 581 3 0 25 0 25 -568 5 -568 5 69
135 c72 143 182 322 257 420 l46 60 378 0 378 0 11 -39z m-924 -88 c-82 -124
-150 -244 -205 -358 l-64 -134 -198 -1 -198 0 3 35 c3 34 12 41 338 259 184
124 337 225 339 225 2 1 -5 -11 -15 -26z m-1816 -517 c1 -2 -39 -20 -90 -41
-127 -52 -259 -119 -341 -172 l-69 -44 -31 19 -32 18 3 254 c2 140 8 262 13
271 8 16 40 0 277 -142 147 -89 268 -162 270 -163z m1092 34 c0 -5 -7 -10 -16
-10 -8 0 -12 5 -9 10 3 6 10 10 16 10 5 0 9 -4 9 -10z m-236 -79 c-5 -5 -98
-68 -207 -140 -109 -73 -195 -136 -192 -140 2 -5 93 -69 201 -142 l196 -134
-388 -3 -387 -2 -263 157 c-145 87 -263 160 -264 163 -1 17 254 148 410 211
l95 39 404 0 c232 0 401 -4 395 -9z m236 -276 l0 -285 -70 0 -69 0 -202 138
c-111 76 -200 142 -199 147 2 6 94 71 204 147 l201 136 68 1 67 1 0 -285z
m430 282 c0 -2 -11 -37 -25 -78 -41 -119 -67 -264 -68 -381 l-2 -108 -137 0
-138 0 0 285 0 285 185 0 c102 0 185 -1 185 -3z m-1764 -434 c134 -82 244
-151 244 -154 0 -4 -21 -14 -47 -24 -81 -30 -305 -139 -364 -177 l-56 -36 -47
27 -48 26 6 214 c6 193 9 217 27 243 11 15 25 28 31 28 6 0 120 -66 254 -147z
m1255 -235 l78 -53 1 -222 0 -223 -496 0 -497 0 -251 151 c-138 84 -253 154
-256 156 -15 13 177 114 369 194 l116 48 429 1 429 0 78 -52z m79 32 c0 -17
-3 -19 -17 -11 -47 27 -49 31 -15 31 26 0 32 -4 32 -20z m354 -22 c16 -97 97
-249 184 -342 35 -38 36 -38 7 -20 -16 11 -132 87 -257 169 l-228 150 0 43 0
42 144 0 143 0 7 -42z m1306 -233 l0 -275 -425 0 -425 0 -98 82 c-130 111
-186 170 -232 248 -35 60 -80 175 -80 207 0 11 111 13 630 13 l630 0 0 -275z
m-1345 -40 c127 -83 258 -169 293 -190 34 -21 62 -39 62 -41 0 -2 -137 -4
-305 -4 l-305 0 0 201 c0 158 3 199 13 192 6 -4 116 -75 242 -158z m-1607
-115 c122 -73 222 -136 222 -139 0 -4 -37 -22 -82 -40 -140 -57 -329 -158
-407 -217 l-74 -57 6 273 6 273 33 34 c28 29 34 31 52 20 12 -8 121 -73 244
-147z"/>
</g>
</svg>
