<?xml version="1.0" standalone="yes"?>
<svg xmlns="http://www.w3.org/2000/svg" width="534" height="371">
<path style="fill:#ffffff; stroke:none;" d="M0 0L0 371L534 371L534 0L0 0z"/>
<path style="fill:#000000; stroke:none;" d="M53 140C53 162.357 50 184.64 50 207C50 212.157 47.9402 225.4 52.7346 228.953C54.6346 230.361 56.724 229.083 58.1397 227.682C64.0826 221.802 69.2212 217.809 77 214.424C103.897 202.723 133.359 195.134 162 189C195.227 181.883 234.021 187 268 187L473 187L473 181L270 181L170 180.816L141 171.053L87 151.576L53 140z"/>
<path style="fill:#ffffff; stroke:none;" d="M59 148L56 219C87.9038 201.305 121.885 193.089 157 184L157 183L59 148z"/>
</svg>
