<?xml version="1.0" standalone="yes"?>
<svg xmlns="http://www.w3.org/2000/svg" width="307" height="371">
<!-- <path style="fill:#ffffff; stroke:none;" d="M0 0L0 371L307 371L307 0L0 0z"/>
--><path style="fill:#000000; stroke:none;" d="M47 208C92.149 238.463 136.523 270.021 182 300.003C192.816 307.134 203.595 314.513 215 320.691C217.908 322.267 224.275 326.636 227.353 323.381C232.472 317.966 215.374 306.164 212 303.271C187.459 282.227 179.63 257.455 180.004 226C180.647 171.932 215.086 116.366 244 73C251.9 61.1511 261.971 50.3376 269 38C251.373 43.9438 233.85 63.4408 219 74.6258C180.486 103.635 142.55 133.414 104 162.373C90.9262 172.195 78.0786 182.313 65 192.127C58.9598 196.659 50.4755 201.14 47 208z"/>
<path style="fill:#ffffff; stroke:none;" d="M240 66L57 206L57 207L150 271.333L208 309C198.234 296.23 186.884 287.549 180.604 272C161.368 224.371 184.238 166.663 206.258 124C213.112 110.721 220.601 97.5684 228.692 85C232.178 79.5855 239.194 72.382 240 66z"/>
</svg>
