<?xml version="1.0" standalone="no"?>
<!DOCTYPE svg PUBLIC "-//W3C//DTD SVG 20010904//EN"
 "http://www.w3.org/TR/2001/REC-SVG-20010904/DTD/svg10.dtd">
<svg version="1.0" xmlns="http://www.w3.org/2000/svg"
 width="488.000000pt" height="371.000000pt" viewBox="0 0 488.000000 371.000000"
 preserveAspectRatio="xMidYMid meet">
<metadata>
Created by potrace 1.16, written by Peter Selinger 2001-2019
</metadata>
<g transform="translate(0.000000,371.000000) scale(0.100000,-0.100000)"
fill="#000000" stroke="none">
<path d="M2825 3316 c-381 -178 -399 -188 -400 -226 0 -8 -240 -158 -570 -356
l-570 -341 -383 25 c-210 14 -385 22 -388 19 -3 -3 74 -167 171 -365 l177
-359 -57 -79 c-79 -110 -87 -127 -71 -149 12 -17 16 -16 62 11 46 27 56 29
149 28 108 -1 255 -26 427 -73 l107 -28 128 -106 c70 -58 362 -299 648 -535
286 -237 524 -428 530 -424 5 4 15 7 21 7 6 0 187 219 403 486 215 268 400
489 411 492 11 3 20 14 20 25 0 10 34 62 76 115 l77 96 338 113 c187 62 339
116 339 119 0 14 -541 462 -603 500 -31 18 -57 16 -57 -6 0 -7 9 -33 20 -59
16 -35 20 -62 18 -113 l-3 -67 -147 166 c-82 92 -148 170 -148 174 0 4 21 32
47 62 26 30 43 53 38 51 -6 -2 -37 -18 -71 -36 l-61 -32 -211 240 -212 240 0
249 c0 138 -3 250 -7 249 -5 0 -116 -51 -248 -113z m205 -162 c0 -153 -3 -195
-12 -191 -7 3 -59 27 -116 53 -57 25 -146 61 -198 78 l-96 32 119 71 c102 62
273 150 296 152 4 1 7 -87 7 -195z m-354 -105 c100 -32 321 -128 362 -158 13
-9 112 -118 222 -241 l198 -224 -282 -151 c-154 -83 -329 -177 -389 -209
l-108 -58 24 64 c48 126 116 242 207 348 63 75 69 86 39 69 -13 -6 -203 -108
-421 -225 -219 -117 -420 -225 -447 -238 l-49 -25 10 37 c28 105 143 299 243
410 26 28 44 52 41 52 -4 0 -225 -117 -491 -260 -267 -143 -488 -260 -493
-260 -4 0 -26 54 -47 120 -21 66 -42 120 -45 120 -3 0 -28 -29 -54 -65 -26
-35 -52 -68 -58 -71 -14 -9 51 91 122 188 l58 80 604 363 c380 229 613 364
630 364 15 1 71 -13 124 -30z m-1756 -684 c157 -9 293 -20 302 -23 14 -6 1
-30 -78 -147 -52 -77 -119 -192 -150 -255 -74 -152 -81 -164 -93 -168 -9 -3
-229 432 -292 576 l-18 42 22 -4 c12 -3 150 -12 307 -21z m2755 -185 c66 -74
130 -147 143 -161 l24 -27 -17 -83 c-9 -46 -30 -134 -46 -195 -29 -107 -33
-114 -105 -202 l-76 -92 -31 22 c-67 47 -174 163 -199 218 -73 157 -59 329 44
535 23 44 54 100 71 124 l29 43 23 -23 c12 -13 75 -85 140 -159z m-281 93
c-146 -256 -162 -501 -44 -687 17 -26 24 -44 16 -39 -50 28 -636 419 -636 424
0 6 689 378 702 379 3 0 -14 -34 -38 -77z m-1329 -57 c-131 -259 -139 -470
-25 -650 17 -26 25 -44 18 -40 -98 59 -638 427 -633 432 4 5 650 356 701 381
1 1 -27 -55 -61 -123z m703 102 c-46 -71 -91 -164 -120 -248 -30 -87 -32 -105
-33 -220 0 -141 15 -198 76 -287 l33 -48 -29 19 c-17 11 -167 109 -334 219
l-303 201 33 17 c19 10 180 96 359 193 179 96 327 175 329 176 2 0 -3 -10 -11
-22z m1390 -305 c116 -97 212 -179 212 -182 0 -4 -120 -46 -267 -95 -148 -49
-273 -91 -279 -93 -7 -2 0 40 17 105 41 160 59 275 59 380 l0 93 23 -16 c12
-8 118 -95 235 -192z m-2721 -519 c-2 -3 -58 9 -123 25 -164 41 -334 65 -416
58 -38 -3 -68 -3 -68 -1 0 3 12 23 28 45 26 37 42 49 42 31 0 -17 41 -51 54
-46 11 4 14 24 14 78 -1 41 5 82 12 96 7 14 68 96 134 183 l120 159 104 -312
c57 -171 102 -313 99 -316z m1556 238 c171 -114 367 -243 435 -286 67 -44 121
-83 120 -87 -2 -4 -173 -220 -382 -478 -335 -417 -380 -469 -395 -458 -10 6
-298 244 -642 529 l-624 516 -77 232 c-67 203 -74 230 -55 217 12 -8 182 -120
377 -249 370 -245 534 -348 555 -348 12 0 25 21 25 40 0 4 -35 35 -78 68 -135
105 -198 186 -226 297 -16 58 -22 176 -10 188 3 3 133 -79 288 -182 340 -227
549 -362 606 -391 39 -20 44 -21 59 -5 18 18 27 7 -139 155 -85 75 -123 130
-150 219 -26 82 -28 231 -3 231 2 0 144 -94 316 -208z"/>
</g>
</svg>
