<?xml version="1.0" standalone="yes"?>
<svg xmlns="http://www.w3.org/2000/svg" width="714" height="371">
<!-- <path style="fill:#ffffff; stroke:none;" d="M0 0L0 371L714 371L714 0L0 0z"/>
--><path style="fill:#000000; stroke:none;" d="M288 21L249.319 82L227 121L226 121L226.563 80L257 35C241.013 35 225.041 34 209 34C205.479 34 195.364 32.2762 193.086 35.588C190.745 38.9927 197.107 41.7192 199 43.2739C206.63 49.5421 211.411 58.3205 215.753 67C221.41 78.3063 220 89.5643 220 102L220 160C213.386 160 194.425 156.694 192 164C172.557 142.825 181.63 116.598 195.695 95C200.365 87.8287 207.451 81.7475 211 74L120 126L120 128C142.926 143.469 166.562 164.025 192 175C172.366 191.254 144.104 206.2 121 217L121 219C142.696 231.091 163.289 246.886 184 260.667C187.009 262.669 203.065 275.239 205.824 269.642C207.537 266.167 202.143 262.414 199.999 260.59C192.291 254.035 185.143 247.217 182.677 237C177.435 215.285 191.33 198.331 200 180C203.314 180.499 204.38 179.941 206 177C222.12 196.473 221 216.224 221 240L221 302L139 302C125.385 302 111.364 303.876 100.148 294.363C95.2858 290.239 97 281.714 97 276L97 228L97 142C97 130.428 94.002 114.018 97.564 103C99.6644 96.5033 106.066 90.5082 110 85C121.11 69.4456 134.537 54.6081 144 38C119.011 37.7932 94.0509 36 69 36C64.1732 36 46.7096 33.3769 44.1759 38.4144C42.4811 41.7841 57.3754 49.3593 59.8295 52.0146C72.0375 65.224 85.3991 85.5118 90.3627 103C95.2305 120.151 91 144.157 91 162L91 290C74.9363 279.406 55.0806 267.58 37 261C37 282.666 35 304.28 35 326C35 330.81 32.6162 345.035 37.4151 347.914C41.3784 350.291 46.4604 339.823 49.0401 337.619C60.9541 327.438 76.6288 321.548 91 315.8C115.277 306.09 137.191 307 163 307L243 307L243 302L227 302L227 235L227.728 204L257 161L226 160L226 134C234.66 131.575 241.857 124.446 251 121.721C276.415 114.146 303.683 111.755 330 109.91C344.019 108.928 358.938 106.487 373 107.633C394.947 109.423 418.612 118.28 440 123.627C486.568 135.269 533.433 145.732 580 157.373C606.981 164.119 636.29 174.737 664 177L664 178L572 199.349L407 238C407 214.32 430.321 201.529 439 181C409.347 181 379.693 180 350 180C345.681 180 323.753 177.484 323.037 183.04C322.643 186.099 337.119 196.539 339.561 200C350.028 214.834 354 227.141 354 245C317.889 234.753 279.188 221.008 242 216C242.665 248.195 244.728 280.942 247.83 313C248.321 318.067 247.51 341.699 254.184 342.534C257.85 342.993 258.859 338.528 259.925 335.999C263.336 327.911 269.831 322.032 276 316.015C298.532 294.036 327.35 278.313 354 262L354 337L360 337L360 280C360 274.309 357.862 263.053 361.603 258.39C368.527 249.759 390.635 247.396 401 246L401 337L407 337L407 244C453.119 237.79 499.701 222.624 545 211.884C589.407 201.356 636.799 194.653 680 180L680 175L472 124.884L404 108.627L374 100.86L358 86.4244L310 40.9105L288 21z"/>
<path style="fill:#ffffff; stroke:none;" d="M289 30L233 122C273.309 106.366 320.976 102 364 102L322 60.9105L289 30M205 39L224 70C232.541 63.0466 241.1 49.8509 246 40L205 39M59 42L94 95L95 95L133 43L59 42M187 94L131 127L131 128L181 161C175.118 146.853 172.545 135.13 177.036 120C179.166 112.825 188.01 100.924 187 94M205 165L205 166L210 166L205 165M212 165C207.578 173.925 220.366 187.272 224 196C232.541 189.047 241.1 175.851 246 166L212 165M194 166L194 167L201 171L194 166M205 175L206 176L205 175M188 185L132 218C145.437 230.871 164.746 241.985 181 251C177.145 236.906 174.128 225.708 178.158 211C180.204 203.534 189.222 192.342 188 185M337 186L358 219C364.431 210.048 375.213 199.745 378 189C365.967 183.384 350.058 186 337 186M404 219C412.176 210.534 422.419 197.836 427 187L398 186L388.161 188.318L391.566 197L404 219M382 195L360.564 226L360 247L401 240C401 224.264 395.167 205.162 382 195M248 224L250.09 263L255 330L256 330C270.078 305.292 300.583 287.913 324 273.053C331.668 268.187 352.408 260.413 354 251C319.459 243.082 283.312 226.884 248 224M42 271L41 336L75 315.861L104 304C86.3234 292.342 62.3338 276.858 42 271z"/>
</svg>
