<?xml version="1.0" standalone="no"?>
<!DOCTYPE svg PUBLIC "-//W3C//DTD SVG 20010904//EN"
 "http://www.w3.org/TR/2001/REC-SVG-20010904/DTD/svg10.dtd">
<svg version="1.0" xmlns="http://www.w3.org/2000/svg"
 width="720.000000pt" height="371.000000pt" viewBox="0 0 720.000000 371.000000"
 preserveAspectRatio="xMidYMid meet">
<metadata>
Created by potrace 1.16, written by Peter Selinger 2001-2019
</metadata>
<g transform="translate(0.000000,371.000000) scale(0.100000,-0.100000)"
fill="#000000" stroke="none">
<path d="M5762 3414 c-49 -11 -36 -57 19 -68 125 -25 318 -294 498 -693 48
-107 51 -117 51 -198 l0 -85 -897 0 -896 0 -342 210 c-188 115 -349 212 -357
215 -12 5 -16 -13 -21 -107 -4 -62 -7 -165 -7 -228 0 -138 -6 -151 -48 -122
-122 87 -184 259 -161 444 17 140 98 344 188 478 17 24 29 46 27 48 -4 3 -591
-445 -1080 -824 l-200 -154 -727 0 -726 0 -226 138 c-125 75 -227 140 -227
143 0 8 199 101 297 138 l82 31 961 0 960 0 0 25 0 25 -959 0 -959 0 -303 175
c-167 96 -306 175 -309 175 -9 0 -20 -321 -20 -551 0 -131 3 -180 13 -194 17
-23 32 -14 57 35 17 33 87 100 105 100 10 0 8 -1188 -3 -1323 l-7 -88 -65 46
-65 46 -8 -153 c-4 -84 -6 -254 -5 -378 l3 -225 25 0 c19 0 26 6 28 24 9 60
187 193 380 284 l67 32 1025 5 1025 5 0 25 0 25 -1025 5 -1025 5 -119 84 -119
85 32 27 c38 31 217 125 310 163 l64 26 624 0 624 0 110 -50 c60 -28 131 -59
157 -69 26 -11 220 -105 432 -209 212 -104 477 -232 590 -284 309 -144 356
-158 348 -106 -2 17 -34 43 -113 95 -132 87 -182 132 -234 213 -130 201 -132
506 -6 885 44 130 118 306 169 400 l27 50 -6 -250 c-17 -794 -18 -931 -6 -953
19 -35 39 -26 66 32 27 57 87 110 202 180 77 46 257 131 379 180 l91 36 902 0
901 0 2 -567 3 -568 25 0 25 0 3 1124 2 1123 281 410 c154 225 282 415 285
422 4 10 -33 14 -168 19 -237 10 -998 17 -1026 11z m966 -63 l143 -6 -251
-365 c-137 -201 -253 -366 -257 -367 -5 -1 -51 87 -104 195 -115 234 -215 390
-316 491 l-74 74 358 -8 c197 -4 422 -10 501 -14z m-3110 -308 c-108 -278 -98
-504 28 -659 l44 -54 -52 24 c-61 27 -509 241 -551 262 l-28 15 21 37 c15 26
101 98 293 244 150 114 273 208 273 208 1 0 -12 -34 -28 -77z m-2910 -97 c122
-70 222 -131 222 -135 0 -3 -28 -17 -62 -30 -164 -62 -349 -161 -410 -219
l-28 -26 0 95 c0 52 3 178 7 282 6 187 6 187 27 174 12 -7 121 -71 244 -141z
m3749 -594 c2 -4 -30 -20 -70 -36 -108 -43 -318 -149 -389 -197 -35 -23 -82
-60 -105 -82 l-43 -41 0 101 0 102 40 -14 c35 -12 41 -12 55 2 15 14 15 17 0
33 -8 9 -31 26 -50 36 -42 22 -45 46 -13 101 l22 38 -22 -19 -22 -19 0 75 c0
41 3 122 6 180 l7 105 291 -179 c160 -99 292 -182 293 -186z m-1492 194 c-43
-98 -76 -242 -77 -341 -2 -141 31 -247 109 -342 l34 -43 -113 53 c-257 122
-483 231 -489 236 -4 3 10 33 30 66 32 52 65 81 281 246 135 103 246 186 248
184 1 -1 -9 -28 -23 -59z m148 0 c437 -207 622 -296 621 -302 -1 -4 -117 -114
-259 -245 l-257 -238 -31 15 c-111 56 -201 165 -232 278 -21 79 -16 248 10
336 20 67 67 190 72 190 2 0 37 -15 76 -34z m-2270 -131 l178 -108 -56 -23
c-83 -34 -230 -110 -282 -146 -73 -49 -75 -44 -74 167 1 99 4 195 7 213 6 31
8 32 28 19 11 -7 101 -62 199 -122z m5487 -510 l0 -415 -913 0 -913 0 -320
196 c-175 108 -320 197 -322 199 -2 1 5 21 14 44 37 93 234 217 558 351 l91
38 903 1 902 1 0 -415z m-3870 371 c0 -2 -39 -34 -87 -71 -49 -37 -88 -73 -88
-80 0 -8 -71 -68 -158 -134 l-157 -119 -73 -6 c-39 -3 -262 -10 -494 -16
l-423 -11 -145 111 c-79 61 -147 114 -149 119 -8 13 145 100 276 157 l123 53
688 1 c378 0 687 -2 687 -4z m1214 -197 c-121 -239 -214 -595 -214 -817 0
-217 78 -418 207 -532 25 -22 43 -40 40 -40 -20 0 -1033 498 -1026 504 7 5
442 408 486 449 38 36 44 39 71 29 37 -13 67 4 56 31 -3 9 -10 17 -15 17 -5 0
-9 4 -9 9 0 9 416 401 426 401 2 0 -7 -23 -22 -51z m-1329 -6 c-38 -97 -77
-237 -87 -315 -10 -82 -9 -107 5 -178 18 -95 51 -168 102 -228 l37 -42 -94 43
c-244 114 -568 272 -567 277 0 7 592 458 603 459 4 1 5 -7 1 -16z m351 -151
c159 -76 328 -156 377 -177 82 -37 86 -40 70 -56 -10 -9 -115 -105 -233 -214
-118 -109 -229 -211 -245 -227 l-31 -28 -79 46 c-193 114 -272 273 -244 494
12 103 74 300 93 300 2 0 133 -62 292 -138z m-1912 3 c69 -53 128 -100 130
-104 3 -5 -22 -26 -57 -47 -61 -37 -134 -89 -192 -137 -16 -14 -33 -23 -37
-20 -10 5 -11 374 -2 398 4 9 13 14 20 11 7 -3 69 -48 138 -101z m3376 -285
c146 -89 269 -166 273 -170 5 -4 -38 -27 -95 -51 -208 -87 -379 -185 -471
-268 l-40 -36 7 310 c4 171 9 332 13 358 5 46 6 47 27 34 11 -8 140 -87 286
-177z m-2290 157 c-8 -8 -64 -51 -123 -97 l-109 -83 184 -88 c100 -49 228
-111 283 -138 l100 -50 -569 0 -569 -1 -183 116 c-101 63 -186 119 -189 124
-8 14 81 84 189 149 l101 60 320 9 c520 14 582 14 565 -1z m-1045 -365 c83
-52 156 -99 163 -105 9 -7 -17 -23 -93 -58 -58 -26 -144 -73 -191 -104 -47
-32 -88 -54 -91 -51 -4 3 -5 81 -4 172 2 137 6 174 22 211 13 30 23 42 31 37
7 -4 81 -50 163 -102z m-314 -312 c33 -22 37 -30 42 -79 6 -54 19 -74 43 -64
7 2 15 15 18 29 4 13 11 24 16 24 8 0 196 -127 224 -151 5 -4 -34 -29 -85 -55
-122 -61 -223 -126 -276 -177 l-43 -41 0 129 c0 169 11 416 19 413 3 -2 22
-14 42 -28z"/>
</g>
</svg>
