<?xml version="1.0" standalone="yes"?>
<svg xmlns="http://www.w3.org/2000/svg" width="470" height="371">
<path style="fill:#ffffff; stroke:none;" d="M0 0L0 371L470 371L470 0L0 0z"/>
<path style="fill:#000000; stroke:none;" d="M118 52L118 53L84 72.5756L26 108C34.9627 119.009 51.2337 126.489 63 134.333L111 166.333C120.103 172.402 129.694 180.227 140 184L140 186L96 211.95L25 255C33.0829 264.928 47.3981 271.599 58 278.667C79.2975 292.865 100.25 307.68 122 321.192C129.952 326.132 137.654 331.682 146 335.956C148.046 337.004 153.204 339.325 154.248 335.681C155.821 330.191 144.427 323.582 141 320.75C128.5 310.42 119.884 298.092 116.805 282C109.936 246.106 135.308 220.173 148 190C157.584 192.176 153.824 184.684 158 179L159 328L165 328L165 273C165 265.335 163.153 254.919 166.97 248C177.309 229.256 204.683 218.581 223 209.742C248.586 197.394 276.069 201 304 201L448 201L448 196L309 196L263 196C256.178 196 247.588 197.387 241 195.49C232.112 192.931 223.615 184.419 216 179.333C203.286 170.842 190.719 162.146 178 153.667C173.664 150.776 166.077 147.641 165.148 141.96C162.68 126.861 169.999 116.457 177.15 104C188.014 85.0721 201.575 66.1295 210 46L149 44L163 26C151.1 28.7295 142.608 39.8684 131 43.3511C126.282 44.7667 118.408 42.1138 114.623 45.8542C111.634 48.8076 115.583 51.1109 118 52z"/>
<path style="fill:#ffffff; stroke:none;" d="M129 52L134 56L137 50L129 52M162 117L163 117L200 52C191.031 50.335 182.042 51.5297 173 50.9105C164.76 50.3462 154.224 48.0694 146.104 50.3179C142.235 51.3892 137.851 58.0503 137.837 62C137.818 67.4953 143.751 74.2528 146.216 79C152.36 90.8315 158.479 104.126 162 117M37 108L67 129.667L127 169C106.286 135.732 106.443 96.0896 130 63L130 62L125 56L98 71.1998L37 108M133 68C120.944 96.9573 106.741 129.784 127.039 159C130.965 164.65 142.958 180.621 150.999 178.686C161.036 176.271 158.997 158.009 159 150C159.011 122.573 151.766 89.5986 133 68M165 153L165 239C186.863 223.614 206.912 209.293 232 199L206 180L165 153M137 194C105.148 215.077 70.5863 238.833 36 255L36 257L126 316C107.683 286.317 106.605 259.321 120.427 227C124.463 217.564 136.706 203.884 137 194z"/>
</svg>
