<?xml version="1.0" standalone="yes"?>
<svg xmlns="http://www.w3.org/2000/svg" width="804" height="378">
<!-- <path style="fill:#ffffff; stroke:none;" d="M0 0L0 378L804 378L804 0L0 0z"/>
--><path style="fill:#000000; stroke:none;" d="M169 75L182.692 48L196 28C161.815 42.308 128.02 64.2937 96 83L110.695 49L126 27L84 49.6944L19 86C25.8041 94.817 37.9496 101.257 47 107.709C65.0118 120.551 82.8661 133.609 101 146.28C107.468 150.8 114.033 155.839 121 159.552C122.935 160.584 127.083 162.655 128.338 159.551C130.79 153.489 114.612 143.641 111.015 139.996C97.0905 125.887 94 110.033 94 91C119.367 111.131 146.629 129.081 173 147.859C179.082 152.189 185.376 157.014 192 160.477C194.067 161.557 198.322 163.262 199.248 159.812C200.931 153.546 183.014 142.301 179.174 138C167.023 124.392 165 109.464 165 92C190.376 109.261 214.936 127.851 240 145.576C245.719 149.62 251.707 154.343 257.999 157.441C259.941 158.398 264.174 159.848 265.029 156.682C266.664 150.632 249.796 139.93 246.039 136C234.169 123.584 230 108.787 230 92L291 136.14L333 164L333 165C300.95 179.982 270.457 204.696 241 224.333C231.198 230.868 212.429 238.374 207 249C238.588 268.671 267.311 293.548 298 314.659C305.314 319.69 312.545 324.828 320 329.655C322.419 331.222 326.599 334.579 329.667 332.867C336.003 329.332 323.314 320.193 321 318.155C302.314 301.704 292.35 282.257 294.09 257C295.664 234.14 306.048 211.386 317.604 192C322.31 184.106 335.342 172.011 336.127 163C336.734 156.017 328.536 151.458 324 147.572C315.542 140.325 308.074 131.639 304.345 121C295.647 96.1843 305.62 70.2762 318.814 49C323.122 42.0523 329.29 36.2671 333 29L296 48.6944L231 85C237.651 61.3892 250.08 45.7209 262 25L236 38.2307L169 75M386 25C367.794 51.9868 350.06 79.7633 333.85 108C330.969 113.019 317.27 130.605 322.032 136.377C323.938 138.688 327.157 136.517 329 135.319C335.716 130.952 342.207 127.288 350 125.152C381.03 116.646 413.202 115.196 445 112.17C478.201 109.01 509.875 120.976 542 128.349C592.784 140.003 643.301 152.865 694 164.884C716.407 170.197 739.176 177.926 762 181L762 182C726.913 184.866 690.334 198.469 656 206.349C623.63 213.777 591.316 221.454 559 229.116C541.172 233.342 522.35 236.115 505 242C505 218.94 527.219 204.661 537 185C507.399 185 477.678 184 448 184C440.552 184 421.768 180.149 421 190C443.963 195.994 452 229.161 452 249L388 231.849L340 220C343.987 251.547 343.684 284.232 345.91 316C346.305 321.628 345.319 344.411 352.103 346.248C355.424 347.148 356.57 343.31 357.449 340.995C360.315 333.447 366.119 326.944 372.039 321.576C395.84 299.993 423.626 281.101 452 266L452 340L458 340L458 283C458 277.079 455.865 266.108 460.318 261.529C469.254 252.341 487.522 253.33 499 249L499 340L505 340L505 274L506.028 249.43L524 243.626L575 231.627L723 196.884L778 184L778 179C753.016 170.526 725.691 166.207 700 160.116C649.963 148.253 599.887 136.345 550 123.873C525.602 117.774 495.852 115.355 473 104.925C464.72 101.146 458.457 92.2139 452 86.0394C438.362 72.9986 424.382 60.3177 411 47.0008C403.833 39.868 395.138 29.2613 386 25z"/>
<path style="fill:#ffffff; stroke:none;" d="M387 34L331 126C371.337 109.451 419.726 106 463 106L432 75.9606L387 34M241 42C219.416 57.3687 191.444 72.7692 167 83L167 86L236 135C226.068 113.728 220.777 96.4179 228.025 73C230.942 63.579 240.723 51.3552 241 42M30 88L99 137C96.013 128.792 91.2348 121.729 89.4498 113C84.4103 88.3535 94.9078 67.6159 105 46L55 72.6944L30 88M175 46L101 87L101 89L170 138C164.935 124.166 158.927 114.361 159.001 99C159.029 93.1386 161.436 87.6986 155 85L155 83C164.561 79.4536 165.964 66.521 170.108 58C171.95 54.2119 175.046 50.2814 175 46M311 47C288.453 61.8698 261.909 77.5743 237 88L237 90L306 139C299.057 119.92 292.118 106.01 296.888 85C298.762 76.7449 301.571 68.6212 305.258 61C307.257 56.8691 311.437 51.6123 311 47z"/>
<path style="fill:#000000; stroke:none;" d="M31 247C38.1128 256.217 50.6752 262.703 60 269.63C81.1253 285.323 102.575 300.577 124 315.859C131.407 321.142 139.045 326.697 147 331.123C149.002 332.238 153.977 335.145 155.338 331.667C157.544 326.031 146.381 319.065 143.001 316.05C131.083 305.419 121.786 292.083 119.296 276C112.544 232.371 140.47 197.457 162 163C147.009 166.438 130.766 181.489 118 190C89.1533 209.231 59.744 227.609 31 247z"/>
<path style="fill:#ffffff; stroke:none;" d="M334 163L335 164L334 163M138 184L42 247L42 249L127 310C123.705 302.06 118.413 295.343 115.746 287C109.607 267.795 112.67 245.771 119.004 227C122.4 216.935 127.003 207.475 131.753 198C133.875 193.767 138.01 188.768 138 184M314 184L217 247L245 268.884L304 311C285.734 281.374 284.447 252.489 297.203 220C301.444 209.199 312.887 195.116 314 184M434 189L455 222L457 222C460.821 215.293 465.915 209.263 470.424 203C472.061 200.727 475.618 197.306 475.093 194.214C474.458 190.468 468.896 190.102 466 190.015C455.363 189.699 444.606 189.007 434 189M502 222C511.389 214.357 520.015 200.507 526 190L496 189.985L486.172 192.163L489.796 201L502 222M480 199C471.718 212.298 449.968 230.686 458.603 248.696C460.108 251.834 464.177 251.372 467 250.83C474.731 249.346 482.319 247.134 490 245.424C492.782 244.805 496.993 244.642 498.397 241.697C504.565 228.751 488.217 209.083 482 199L480 199M346 227L348.09 265L353 334L354 334C366.112 309.685 398.696 291.54 421 277.576C428.309 273 435.604 268.44 443 264C445.419 262.548 450.365 260.653 451.248 257.679C452.721 252.721 430.736 249.065 427 248.127C399.958 241.333 373.173 233.23 346 227z"/>
</svg>
