<?xml version="1.0" standalone="no"?>
<!DOCTYPE svg PUBLIC "-//W3C//DTD SVG 20010904//EN"
 "http://www.w3.org/TR/2001/REC-SVG-20010904/DTD/svg10.dtd">
<svg version="1.0" xmlns="http://www.w3.org/2000/svg"
 width="562.000000pt" height="371.000000pt" viewBox="0 0 562.000000 371.000000"
 preserveAspectRatio="xMidYMid meet">
<metadata>
Created by potrace 1.16, written by Peter Selinger 2001-2019
</metadata>
<g transform="translate(0.000000,371.000000) scale(0.100000,-0.100000)"
fill="#000000" stroke="none">
<path d="M4033 3303 c-84 -6 -97 -50 -22 -72 50 -15 112 -71 167 -150 l42 -59
-753 -251 c-669 -223 -757 -250 -783 -241 -16 6 -35 13 -43 16 -11 3 -10 9 5
25 27 30 5 39 -101 39 -80 0 -105 5 -228 46 -76 25 -140 44 -142 42 -2 -2 0
-20 4 -41 l9 -37 -57 -1 c-147 -2 -194 -31 -109 -68 l43 -20 -435 0 -435 0
-191 213 -191 214 -7 -82 c-3 -44 -6 -125 -6 -178 l0 -98 -217 0 c-120 0 -224
-4 -231 -9 -24 -15 -8 -42 32 -56 62 -22 139 -107 224 -249 l42 -70 0 -466 c0
-257 3 -469 6 -473 4 -3 6 -91 5 -194 -1 -205 5 -248 34 -248 14 0 23 12 33
48 23 83 170 219 352 327 l66 40 556 -2 555 -3 -55 -140 c-62 -159 -69 -198
-34 -203 12 -2 22 1 22 7 0 22 69 77 137 108 87 40 217 76 373 102 l115 20
843 -272 842 -271 0 -38 c0 -34 3 -38 25 -38 l25 0 0 973 0 973 255 404 c141
221 253 405 251 407 -11 12 -916 34 -1023 26z m909 -71 c27 -7 27 -7 -188
-347 -119 -187 -219 -346 -223 -353 -4 -8 -24 26 -51 90 -106 252 -225 460
-324 565 l-61 66 410 -7 c226 -3 422 -10 437 -14z m-612 -413 c38 -75 92 -191
119 -257 l51 -120 0 -897 c0 -714 -3 -896 -12 -892 -7 2 -317 102 -688 222
-371 119 -742 239 -825 266 l-150 48 -174 276 c-96 151 -178 275 -181 275 -4
0 -32 -60 -63 -132 l-56 -133 -1 251 c0 243 1 252 20 257 14 4 20 14 20 34 0
74 89 203 245 357 l101 100 754 251 c517 172 758 249 763 241 4 -6 39 -72 77
-147z m-3326 -150 c75 -83 136 -154 136 -158 0 -4 -21 -23 -47 -42 -72 -54
-162 -138 -205 -192 l-38 -49 0 76 0 77 85 97 c47 53 85 100 85 105 0 4 -38 7
-85 7 l-85 0 0 54 c0 54 11 176 15 176 2 0 64 -68 139 -151z m1266 -55 c0 -2
-7 -4 -15 -4 -8 0 -15 4 -15 10 0 5 7 7 15 4 8 -4 15 -8 15 -10z m-61 -91 c5
-21 12 -51 16 -68 l7 -30 -23 30 c-12 17 -38 47 -58 68 l-35 37 42 0 c39 0 42
-2 51 -37z m277 20 l52 -16 -106 -124 c-71 -82 -109 -119 -113 -110 -4 7 -21
70 -37 140 l-29 127 90 0 c56 0 110 -6 143 -17z m-1753 0 l67 -6 0 -68 c0 -68
0 -68 -56 -133 -51 -61 -74 -79 -74 -57 0 18 -103 166 -152 217 l-51 54 99 0
c54 0 129 -3 167 -7z m156 -40 c-18 -21 -35 -40 -36 -42 -2 -2 -3 14 -3 37 0
42 0 42 37 42 l37 0 -35 -37z m1770 -19 c2 -2 -42 -52 -99 -111 -56 -59 -123
-140 -150 -180 -26 -39 -51 -69 -54 -66 -3 4 -6 28 -6 55 0 49 2 51 120 188
l121 139 32 -11 c18 -6 34 -12 36 -14z m-486 -66 c26 -35 62 -92 80 -128 l32
-65 0 -460 0 -460 -571 -3 -570 -2 -217 196 -217 196 0 263 0 263 45 49 44 48
1 -116 c0 -87 4 -119 14 -128 18 -15 46 11 46 42 0 63 123 209 264 315 l69 52
467 0 467 0 46 -62z m441 -991 c74 -118 138 -221 141 -229 5 -13 -12 -19 -92
-33 -133 -24 -295 -70 -368 -105 -33 -16 -61 -27 -63 -26 -6 6 90 237 104 251
8 7 14 22 14 32 0 14 121 322 127 323 1 0 62 -96 137 -213z m-1701 12 l178
-161 -58 -36 c-99 -61 -202 -140 -265 -205 l-61 -62 6 49 c4 27 7 167 7 312 0
145 4 264 8 264 4 0 88 -72 185 -161z"/>
</g>
</svg>
