<?xml version="1.0" standalone="no"?>
<!DOCTYPE svg PUBLIC "-//W3C//DTD SVG 20010904//EN"
 "http://www.w3.org/TR/2001/REC-SVG-20010904/DTD/svg10.dtd">
<svg version="1.0" xmlns="http://www.w3.org/2000/svg"
 width="456.000000pt" height="371.000000pt" viewBox="0 0 456.000000 371.000000"
 preserveAspectRatio="xMidYMid meet">
<metadata>
Created by potrace 1.16, written by Peter Selinger 2001-2019
</metadata>
<g transform="translate(0.000000,371.000000) scale(0.100000,-0.100000)"
fill="#000000" stroke="none">
<path d="M2930 3393 c-97 -5 -112 -10 -108 -35 2 -16 16 -27 51 -39 26 -10 68
-34 92 -54 58 -47 157 -180 233 -313 l62 -107 -964 -3 -964 -2 -374 239 c-247
159 -375 236 -379 228 -9 -17 -31 -851 -23 -912 10 -89 13 -97 36 -93 15 2 26
15 36 46 35 106 255 252 604 401 l95 41 980 0 980 0 51 -107 c88 -188 82 -156
82 -449 l0 -264 -610 0 -610 0 -366 235 c-201 129 -369 235 -374 235 -8 0 -23
-453 -24 -767 -1 -105 -3 -189 -6 -186 -3 2 -59 88 -125 191 -66 102 -124 186
-130 185 -10 0 -300 -589 -380 -772 -26 -57 -45 -113 -43 -125 5 -33 34 -30
72 7 72 73 204 97 551 103 l270 5 882 -404 c697 -319 889 -403 913 -399 l30 4
0 819 c0 812 0 819 20 819 15 0 20 7 20 25 0 18 -5 25 -20 25 -20 0 -20 7 -20
275 l0 275 290 423 289 422 -77 7 c-42 3 -214 9 -382 12 -168 4 -370 8 -450
10 -80 1 -174 1 -210 -1z m763 -63 c137 -4 251 -10 253 -13 8 -7 -493 -732
-502 -727 -5 3 -32 56 -60 117 -112 244 -241 449 -350 561 l-71 72 241 0 c133
-1 353 -5 489 -10z m-2745 -305 c172 -110 312 -202 312 -205 0 -4 -17 -12 -37
-19 -74 -25 -359 -171 -437 -222 -44 -29 -102 -74 -130 -101 -27 -26 -50 -48
-50 -48 -1 0 2 132 5 292 4 161 7 342 8 401 0 60 5 107 9 105 5 -1 149 -93
320 -203z m879 -876 c172 -111 311 -204 309 -206 -2 -3 -67 -33 -143 -67 -222
-100 -358 -182 -453 -272 l-55 -52 6 306 c4 169 7 349 8 400 0 50 4 92 8 92 3
0 147 -91 320 -201z m1593 -1025 c0 -722 -1 -796 -16 -790 -9 3 -406 184 -882
402 l-867 395 -92 145 c-50 79 -88 146 -82 149 5 4 18 28 30 55 25 58 79 111
186 181 83 54 329 178 453 228 l75 30 598 1 597 0 0 -796z m-2031 328 c111
-172 201 -314 201 -315 0 -1 -84 -3 -187 -4 -260 -1 -436 -26 -555 -78 -14 -6
-12 6 13 61 61 134 319 657 323 653 2 -2 94 -145 205 -317z"/>
</g>
</svg>
