<?xml version="1.0" standalone="no"?>
<!DOCTYPE svg PUBLIC "-//W3C//DTD SVG 20010904//EN"
 "http://www.w3.org/TR/2001/REC-SVG-20010904/DTD/svg10.dtd">
<svg version="1.0" xmlns="http://www.w3.org/2000/svg"
 width="289.000000pt" height="371.000000pt" viewBox="0 0 289.000000 371.000000"
 preserveAspectRatio="xMidYMid meet">
<metadata>
Created by potrace 1.16, written by Peter Selinger 2001-2019
</metadata>
<g transform="translate(0.000000,371.000000) scale(0.100000,-0.100000)"
fill="#000000" stroke="none">
<path d="M1525 3396 c-27 -19 -12 -43 34 -56 73 -19 155 -98 250 -237 l42 -63
-387 0 -386 0 16 24 c16 25 16 25 -27 30 -78 10 -766 27 -832 20 -66 -7 -92
-22 -82 -48 3 -8 20 -17 37 -21 90 -20 230 -245 364 -588 l47 -118 -1 -1021
c0 -739 3 -1024 11 -1034 15 -18 49 0 49 25 0 57 120 169 288 269 l97 57 533
3 532 3 0 -171 0 -170 25 0 25 0 1 778 c0 427 0 930 -1 1117 l-1 340 291 424
c160 233 289 425 288 427 -8 7 -627 24 -899 24 -233 0 -299 -3 -314 -14z
m1020 -53 l102 -6 -251 -368 c-138 -202 -253 -368 -256 -368 -3 0 -48 88 -102
197 -114 234 -214 390 -315 491 l-74 74 397 -7 c219 -3 443 -9 499 -13z
m-1527 -297 c3 -4 -203 -364 -217 -379 -5 -4 -48 25 -97 66 l-89 75 -7 -82
c-3 -44 -7 -117 -8 -161 l-1 -80 -20 50 c-79 194 -172 368 -250 464 l-52 64
369 -7 c202 -3 369 -8 372 -10z m976 -278 c83 -165 110 -230 114 -268 l5 -50
-535 0 -534 0 -102 85 -102 86 16 30 c8 17 37 68 63 113 27 44 67 114 90 154
l42 72 417 -2 417 -3 109 -217z m-1255 -131 l33 -27 -59 -101 c-68 -117 -69
-115 -58 68 l7 123 22 -18 c12 -9 37 -29 55 -45z m167 -138 c46 -39 84 -74 84
-78 0 -4 -12 -13 -27 -20 -48 -21 -217 -138 -247 -170 -37 -39 -56 -27 -56 37
0 35 11 63 52 136 67 119 97 166 104 166 3 0 43 -32 90 -71z m1204 -359 l0
-250 -526 0 -526 0 -164 137 c-90 75 -164 140 -164 144 0 15 113 99 215 160
l100 59 533 0 532 0 0 -250z m-1265 -139 l155 -130 -63 -37 c-88 -53 -185
-122 -234 -167 l-43 -40 0 226 c0 150 4 235 12 252 6 14 13 25 15 25 2 0 73
-58 158 -129z m1265 -431 l0 -270 -528 0 -528 0 -169 141 c-94 78 -171 147
-173 154 -5 22 142 133 278 209 l65 36 528 0 527 0 0 -270z m-1257 -169 c75
-63 137 -117 137 -120 0 -3 -19 -17 -43 -30 -82 -46 -178 -113 -232 -163 l-55
-50 0 240 c0 132 3 247 6 256 7 19 -9 30 187 -133z m1257 -431 l0 -280 -531 0
-530 0 -177 147 c-97 80 -179 148 -181 150 -7 6 60 72 112 110 27 20 92 62
145 94 l97 59 533 0 532 0 0 -280z m-1268 -175 l155 -129 -62 -37 c-91 -53
-153 -96 -217 -151 l-58 -49 0 256 c0 211 2 255 13 248 8 -4 84 -66 169 -138z"/>
</g>
</svg>
