<?xml version="1.0" standalone="yes"?>
<svg xmlns="http://www.w3.org/2000/svg" width="467" height="371">
<path style="fill:#ffffff; stroke:none;" d="M0 0L0 371L467 371L467 0L0 0z"/>
<path style="fill:#000000; stroke:none;" d="M140 287C128.257 286.992 120.636 280.179 111 274.192C92.7507 262.854 74.7206 247.509 55 239C55 264.67 53 290.285 53 316C53 321.198 50.3177 337.854 55.4151 340.914C58.7587 342.92 68.8717 327.031 72 324.465C87.4409 311.798 112.188 297.342 132 293.379C140.792 291.62 151.047 293 160 293L216 293L390 293L390 287L370 287L370 218L370.649 186L382.719 164L415 107L373 105L403.808 58L415 39C390.656 39 366.33 37 342 37C334.73 37 319.773 34.0717 319 44C343.525 49.8932 351.918 85.9413 363 105C352.326 104.912 341.743 103.751 331 104.015C328.028 104.087 321.035 103.893 319.662 107.273C318.067 111.199 328.604 116.561 330.96 119.004C340.664 129.063 346.976 143.278 352.421 156C356.765 166.148 362.46 177.124 364.621 188C366.674 198.331 365 210.476 365 221L365 287L253 287L253 188C253 174.108 249.683 155.348 253.51 142C259.826 119.97 283.015 103.919 290 82C270.015 82 249.982 80 230 80C225.417 80 213.085 78.0843 210.086 82.5702C207.645 86.2222 218.798 91.7899 220.907 94.0154C231.647 105.351 238.62 121.684 244.396 136C250.186 150.353 247 169.698 247 185L247 287L145 287L145 158L145 121L145.938 104L161.576 84L204 31C194.818 28.286 183.544 30.1097 174 29.9962C153.114 29.7477 130.746 30.7333 110 28.2855C102.609 27.4134 95.3739 28.9382 88 29.0008C85.6193 29.021 81.4922 28.6013 80.2562 31.2739C78.7397 34.553 96.1931 42.4892 99 45.0903C115.251 60.1491 129.102 81.825 138.201 102C144.799 116.63 140 142.042 140 158L140 287z"/>
<path style="fill:#ffffff; stroke:none;" d="M96 34L96 35C116.131 47.5918 132.999 75.3864 142 97L166.611 68L192 36L96 34M333 43L353.576 72L368 101C379.726 83.6178 396.564 64.618 404 45L333 43M223 86C233.31 101.602 243.168 116.391 250 134L251 134L280 87L223 86M332 110L353.691 144L368 177C381.174 157.027 395.765 134.065 405 112C396.831 111.999 373.683 106.496 368 113C357.855 107.419 343.337 110 332 110M60 249L59 327C79.9178 312.323 99.8401 300.961 123 290C106.256 273.964 80.2699 260.285 60 249z"/>
</svg>
