<?xml version="1.0" standalone="yes"?>
<svg xmlns="http://www.w3.org/2000/svg" width="560" height="371">
<path style="fill:#ffffff; stroke:none;" d="M0 0L0 371L560 371L560 0L0 0z"/>
<path style="fill:#000000; stroke:none;" d="M72 24C72 49.9865 70 75.9469 70 102C70 106.162 67.5645 125.189 73.1736 126.079C76.8152 126.656 78.4999 120.27 79.9691 118C85.0262 110.186 93.7939 105.539 101 100L100 261L72 242C71.9301 267.314 70 292.617 70 318C70 323.238 67.25 340.535 71.7377 343.953C76.0756 347.257 81.6915 333.54 84.0934 331.039C96.9723 317.629 116.203 308.341 133 300.861C152.003 292.398 175.493 296 196 296L320 296L320 341L326 341L326 273C351.14 292.324 379.125 309.596 406 326.424C416.127 332.766 427.607 343.709 440 344C439.355 335.439 431.04 331.524 425 326.536C418.318 321.018 412.877 313.905 409.313 306C392.689 269.124 424.421 235.087 443 207C430.168 209.474 416.34 220.681 405 227.15C378.706 242.15 352.073 256.624 326 272L326 173C326 156.477 321.944 133.857 326.51 118C328.071 112.579 332.592 108.091 335 103C360.815 120.415 386.607 138.051 413 154.576C419.196 158.455 425.374 163.074 432 166.174C434.087 167.151 438.119 168.77 439.338 165.693C440.84 161.901 435.385 158.372 432.999 156.449C424.36 149.486 415.443 142.131 410.377 132C398.845 108.94 408.446 81.5125 421 61C430.095 80.2301 445.016 98.0197 450.39 119C452.288 126.409 451 135.387 451 143L451 190L451 342L457 342L457 189L457 142L457.51 119L470.999 98L500.344 55L515 32C483.664 32 452.398 30 421 30C415.841 30 393.511 27.0422 391.752 33.1736C390.853 36.3045 407.027 44.9308 410 47L410 48L351 81C361.532 65.3882 377.331 48.5953 384 31C352.715 30.7411 321.311 28 290 28C282.569 28 275.387 28.2692 268 28.9151C265.663 29.1194 261.411 28.9288 260.921 32.0903C260.32 35.9767 271.358 39.4462 274 41.5185C283.531 48.9935 291.845 61.1014 297 72L196 72C181.826 72 162.613 75.4097 149 71.49C142.06 69.4917 135.034 63.2628 129 59.3434C111.692 48.1004 91.6533 30.2627 72 24z"/>
<path style="fill:#ffffff; stroke:none;" d="M77 34L76 112L77 112C89.6644 94.7932 119.788 80.7781 140 75L119 60.3079L77 34M276 34C294.146 58.7513 311.65 80.7443 323 110L324 110C326.393 105.702 331.836 100.335 326 97C345.598 80.885 361.248 58.3864 374 36L276 34M407 36L416 45L417 45L431 37C424.362 34.0202 413.91 33.9575 407 36M454 111L474.424 82L504 38C490.512 34.0131 471.148 36 457 36C451.692 36 444.081 34.6242 439.09 36.6034C434.296 38.504 425.372 49.6987 425.262 55C425.15 60.3976 431.967 67.449 434.573 72C441.821 84.6627 447.762 97.8363 454 111M339 97L339 98L382 127L411 145C394.726 115.652 397.172 83.852 417 56C411.714 51.0079 402.21 59.3189 397 62.2809C379.219 72.3899 352.75 81.8443 339 97M297 72L297 77L197 77L149 77.5286L107 96L107 98C121.04 105.998 133.84 116.913 147 126.291C152.125 129.943 157.897 135.684 164 137.487C178.073 141.643 198.314 138 213 138L320 138C320 116.184 313.35 88.1747 297 72M350 81L351 82L350 81M107 105L105 174C122.127 161.937 137.276 149.212 157 141L157 140L107 105M109 180C120.999 188.619 133.1 197.128 145 205.884C150.652 210.043 157.162 216.519 164 218.49C178.17 222.574 198.242 219 213 219L320 219L320 144L212 144C196.926 144 178.729 141.206 164 144.39C145.907 148.302 119.534 165.046 109 180M107 186L105 255L157 222C143.262 208.733 123.68 195.295 107 186M320 290L320 225L210 225C190.545 225 169.738 221.885 152 230.753C139.515 236.995 126.305 243.492 116.001 253.09C113.159 255.737 107.321 260.43 107.998 264.907C108.628 269.074 115.887 272.374 119 274.576C131.306 283.278 139.663 290 155 290L320 290M419 226L338 272L338 274L411 322C400.55 299.905 395.664 282.168 404.436 258C407.776 248.798 419.019 235.237 419 226M77 253L76 330L77 330C91.6313 311.621 115.458 304.363 135 293C119.915 278.551 95.8611 261.962 77 253z"/>
</svg>
