<?xml version="1.0" standalone="no"?>
<!DOCTYPE svg PUBLIC "-//W3C//DTD SVG 20010904//EN"
 "http://www.w3.org/TR/2001/REC-SVG-20010904/DTD/svg10.dtd">
<svg version="1.0" xmlns="http://www.w3.org/2000/svg"
 width="447.000000pt" height="371.000000pt" viewBox="0 0 447.000000 371.000000"
 preserveAspectRatio="xMidYMid meet">
<metadata>
Created by potrace 1.16, written by Peter Selinger 2001-2019
</metadata>
<g transform="translate(0.000000,371.000000) scale(0.100000,-0.100000)"
fill="#000000" stroke="none">
<path d="M3455 2853 c-165 -217 -303 -397 -307 -399 -9 -6 -2 86 18 216 17
114 73 332 110 427 14 37 32 86 40 108 l14 40 -25 -30 c-14 -16 -159 -207
-323 -422 l-297 -393 -845 0 -845 0 -330 309 -330 309 -8 -32 c-4 -17 -10
-572 -13 -1233 -4 -1097 -3 -1203 12 -1218 22 -22 40 -5 52 50 29 135 231 332
527 514 l99 61 838 0 839 0 212 -178 c375 -315 479 -394 502 -385 33 12 22 37
-50 113 -86 93 -134 183 -160 303 -10 43 -15 80 -12 83 3 3 88 -64 188 -148
361 -302 439 -361 465 -351 29 11 12 46 -58 121 -45 48 -85 102 -104 142 -31
64 -60 157 -53 164 2 3 96 -72 209 -166 277 -229 358 -290 384 -286 38 6 27
32 -50 117 -132 145 -174 270 -174 518 0 76 7 183 15 238 14 91 71 344 81 354
2 2 25 -11 50 -29 35 -25 51 -31 62 -23 29 18 24 32 -28 88 l-52 55 26 70 c14
39 26 74 26 77 0 4 -20 -19 -44 -51 l-45 -57 -25 43 c-50 87 -73 166 -86 303
-21 226 38 568 145 840 19 49 33 90 31 92 -2 2 -129 -161 -281 -362 -153 -201
-280 -364 -282 -361 -6 6 17 185 38 284 25 123 70 275 113 386 20 50 35 91 33
92 -1 1 -137 -175 -302 -393z m-296 35 c-51 -191 -84 -491 -67 -591 24 -136
43 -207 69 -266 16 -35 28 -65 27 -67 -2 -1 -104 83 -228 186 -176 148 -225
194 -225 212 1 14 85 134 220 311 120 158 219 287 221 287 1 0 -7 -33 -17 -72z
m437 45 c-20 -51 -67 -328 -73 -423 -6 -102 -8 -114 -35 -147 -15 -20 -28 -38
-28 -40 0 -2 15 -17 34 -33 26 -24 35 -40 40 -79 7 -54 44 -169 71 -221 l17
-33 -58 46 c-159 125 -409 345 -408 358 1 14 432 589 442 589 2 0 1 -8 -2 -17z
m373 -75 c-66 -257 -83 -552 -41 -721 12 -48 35 -115 52 -149 22 -44 26 -57
13 -47 -10 8 -109 90 -220 182 l-203 169 0 46 c0 46 6 55 207 320 113 149 207
272 209 272 1 0 -6 -33 -17 -72z m-3261 -257 l239 -225 -131 -86 c-198 -130
-330 -243 -414 -355 l-45 -60 8 499 c4 275 9 505 12 512 6 17 21 5 331 -285z
m2210 -482 c152 -127 277 -235 277 -240 0 -5 -112 -157 -250 -338 l-250 -330
-848 -1 -848 0 -308 287 c-246 230 -308 292 -304 308 10 41 78 132 153 205 86
84 234 196 373 282 l92 57 818 0 818 1 277 -231z m472 -38 c96 -80 190 -158
208 -172 l34 -26 -227 -299 c-125 -164 -231 -303 -235 -308 -10 -11 -3 90 16
214 13 85 70 329 79 338 2 2 22 -10 46 -27 47 -35 61 -38 79 -16 10 12 2 24
-41 70 l-53 57 21 61 c12 34 25 71 29 82 4 11 -14 -6 -39 -38 l-45 -57 -21 29
c-31 43 -56 108 -75 188 -23 105 -22 110 17 77 17 -15 111 -93 207 -173z m291
52 c43 -38 79 -71 79 -74 0 -3 -16 -28 -36 -54 l-37 -48 -24 39 c-39 65 -86
204 -69 204 4 0 43 -30 87 -67z m222 -186 c59 -49 107 -93 105 -98 -2 -6 -253
-339 -403 -534 -14 -18 -14 -15 -9 40 13 136 70 421 93 463 5 9 18 4 49 -19
23 -17 50 -29 59 -27 35 7 26 39 -26 92 l-51 52 27 66 c16 42 30 65 37 61 6
-4 60 -47 119 -96z m-713 -193 c-32 -82 -77 -385 -81 -534 -3 -129 45 -333 97
-417 22 -34 46 -53 -230 178 -114 96 -215 179 -223 186 -9 7 -12 17 -7 25 16
26 445 588 449 588 3 0 0 -12 -5 -26z m409 -69 c-32 -138 -49 -242 -56 -355
-5 -97 -8 -108 -36 -144 l-31 -39 36 -31 c30 -27 37 -40 47 -102 7 -39 27
-105 46 -147 18 -42 28 -74 21 -70 -40 23 -456 380 -454 389 3 13 442 593 446
589 1 -1 -7 -42 -19 -90z m391 -5 c-67 -258 -83 -544 -41 -715 12 -49 34 -116
50 -147 15 -32 26 -58 24 -58 -5 0 -279 227 -365 303 -64 56 -68 61 -68 103 0
41 11 58 208 317 114 151 208 273 209 273 1 -1 -7 -35 -17 -76z m-3325 -227
c151 -141 275 -260 275 -264 0 -3 -42 -33 -92 -65 -198 -125 -390 -291 -463
-399 l-27 -40 7 499 c6 459 9 526 21 526 3 0 128 -116 279 -257z"/>
</g>
</svg>
