<?xml version="1.0" standalone="no"?>
<!DOCTYPE svg PUBLIC "-//W3C//DTD SVG 20010904//EN"
 "http://www.w3.org/TR/2001/REC-SVG-20010904/DTD/svg10.dtd">
<svg version="1.0" xmlns="http://www.w3.org/2000/svg"
 width="357.000000pt" height="371.000000pt" viewBox="0 0 357.000000 371.000000"
 preserveAspectRatio="xMidYMid meet">
<metadata>
Created by potrace 1.16, written by Peter Selinger 2001-2019
</metadata>
<g transform="translate(0.000000,371.000000) scale(0.100000,-0.100000)"
fill="#000000" stroke="none">
<path d="M562 3431 c-27 -17 -8 -43 39 -55 102 -26 252 -179 373 -380 l36 -60
0 -473 0 -473 -214 0 c-118 0 -221 -3 -230 -6 -19 -7 -21 -43 -3 -48 107 -31
180 -83 269 -192 70 -87 158 -216 152 -225 -2 -4 3 -12 11 -19 13 -11 15 -93
15 -611 l0 -599 25 0 25 0 0 580 c0 319 3 580 6 580 4 0 106 -64 228 -143 231
-150 509 -323 563 -350 17 -9 39 -14 47 -11 32 12 15 44 -57 103 -95 77 -134
122 -166 191 -24 51 -26 65 -26 190 0 126 3 141 32 227 18 51 47 121 64 155
l32 63 76 -81 c42 -44 109 -128 149 -187 l72 -108 0 -604 0 -605 25 0 25 0 0
600 c0 330 2 600 4 600 3 0 121 -75 263 -166 310 -201 527 -332 561 -341 29
-7 45 13 31 38 -5 10 -35 38 -67 62 -167 129 -226 275 -192 477 30 180 147
423 289 605 58 73 69 91 51 80 -16 -10 -424 -289 -545 -373 l-80 -56 74 80 74
79 -189 6 c-104 4 -208 7 -231 8 l-43 1 0 478 0 479 231 239 231 239 -148 6
c-82 4 -296 7 -475 8 -279 1 -328 -1 -339 -14 -16 -19 3 -45 34 -45 70 0 227
-148 346 -326 l70 -105 0 -480 0 -479 -115 0 c-135 0 -133 -10 -31 123 34 45
66 88 71 96 7 13 -67 -36 -250 -165 -34 -23 -77 -49 -98 -57 -20 -9 -37 -20
-37 -25 0 -5 -48 -42 -107 -82 -60 -41 -137 -94 -173 -119 l-65 -45 72 79 c39
44 92 100 117 125 25 24 46 48 46 52 0 4 -57 8 -127 8 -71 0 -172 3 -225 7
l-98 6 0 481 1 481 229 235 228 235 -146 6 c-226 10 -795 10 -810 0z m641 -48
l196 -6 -182 -190 c-154 -160 -183 -186 -192 -172 -48 80 -154 215 -226 288
l-88 87 148 0 c81 0 236 -3 344 -7z m1127 -2 l144 -6 -183 -187 -183 -188 -47
73 c-65 99 -161 213 -227 270 l-56 47 204 -1 c112 -1 268 -4 348 -8z m504
-1401 c-69 -117 -131 -281 -155 -408 -25 -133 2 -287 67 -385 l26 -40 -38 24
c-73 44 -549 350 -556 358 -17 16 109 118 385 308 160 111 295 202 299 202 4
1 -8 -26 -28 -59z m-1627 -49 l192 -6 -182 -189 -182 -189 -53 79 c-69 105
-165 218 -230 271 l-53 43 158 -1 c87 -1 244 -4 350 -8z m1078 0 l190 -6 -125
-128 c-144 -148 -270 -245 -270 -208 0 18 -148 207 -209 266 -33 33 -61 65
-61 72 0 14 129 15 475 4z m-555 -31 c0 -4 -15 -40 -34 -81 -79 -173 -115
-349 -96 -473 11 -71 56 -184 88 -220 20 -22 -48 20 -370 227 -131 83 -236
157 -235 162 2 6 136 101 297 211 273 187 296 201 322 192 15 -6 28 -13 28
-18z"/>
</g>
</svg>
