<?xml version="1.0" standalone="yes"?>
<svg xmlns="http://www.w3.org/2000/svg" width="972" height="371">
<!-- <path style="fill:#ffffff; stroke:none;" d="M0 0L0 371L972 371L972 0L0 0z"/>
--><path style="fill:#000000; stroke:none;" d="M663 70L661 124L593 124L561 123.351L537 109.85L471 72L469 124L402 124C392.504 124 380.129 126.09 371 123.351C362.997 120.95 355.205 114.606 348 110.424C325.96 97.6329 302.911 79.7541 279 71L277 126L209 126C199.342 126 186.219 128.306 177 125.301C169.683 122.916 162.641 117.279 156 113.424C133.971 100.639 110.914 82.7053 87 74C82.5939 129.829 84.3556 186.067 82.9853 242C82.6589 255.326 81.9785 268.611 82 282C82.0055 285.421 81.2306 293.713 85.2701 295.338C89.4489 297.019 93.6918 286.469 96.0432 284.004C106.568 272.968 121.283 265.607 135 259.309C148.228 253.235 163.584 244.838 178 242.329C188.476 240.505 200.374 242 211 242L275 242L275 280C275 283.428 273.891 290.768 277.498 292.863C281.758 295.337 285.071 285.286 287.109 283C296.813 272.114 310.173 265.661 323 259.247C337.811 251.841 355.53 242.076 372 239.326C382.206 237.621 393.66 239 404 239L467 239C467 252.93 464.848 267.107 466.17 281C466.466 284.112 466.028 292.239 469.299 293.824C473.391 295.807 477.807 284.427 480.094 282.039C490.278 271.407 504.93 264.583 518 258.258C531.566 251.694 548.084 242.925 563 240.329C573.164 238.56 584.692 240 595 240L658 240L658 277C658.001 280.16 657.055 287.086 661.184 288.248C664.478 289.176 674.591 273.492 678 270.899C695.511 257.578 716.716 249.088 737 241C756.867 233.079 776.882 235 798 235L892 235L892 229L795 229C781.908 229 763.464 232.348 751 228.301C742.973 225.694 735.273 219.645 728 215.424C708.398 204.048 688.809 189.967 668 181C674.79 161.415 700.508 151.58 718 143.694C730.077 138.25 743.879 130.613 757 128.329C771.531 125.799 788.249 128 803 128L895 128L895 123L800 123L755 122.362L727 106.799L663 70z"/>
<path style="fill:#ffffff; stroke:none;" d="M668 80L666 169L703 143.969L746 125C721.063 109.738 694.838 91.5646 668 80M285 81L283 169L329 140.258L362 126L285 81M476 82L474 171L475 171C490.562 149.091 528.319 136.045 553 128L553 126L476 82M92 84L90 172L121 150.309L169 129L133 107.15L92 84M282 184L341 218.281L368 233.362L400 234L467 234L469 129C437.995 129 403.661 124.8 373 129.21C362.606 130.705 351.585 136.586 342 140.719C317.653 151.217 296.11 161.104 282 184M473 184L473 185L534 220.011L560 234.502L592 235L658 235L661 130L596 130C585.473 130 573.316 128.33 563 130.518C537.758 135.871 504.465 151.435 485.004 168.3C479.721 172.878 477.883 179.508 473 184M90 187L149 221.281L174 235.351L206 236L275 236L276.039 208L277 132L212 132C201.34 132 189.522 130.572 179 132.326C163.62 134.889 146.857 143.842 133 150.753C115.358 159.551 97.4522 167.687 90 187M666 187L664 275L665 275C681.586 251.94 718.264 243.017 743 232L714 214.397L666 187M283 192L281 279L325 251.309L360 236L309 206.15L283 192M474 192L472 281L473 281C492.54 255.884 526.81 252.926 552 237L474 192M90 194L88 282C112.123 265.023 137.514 246.988 167 240L144 224.85L90 194z"/>
</svg>
