<?xml version="1.0" standalone="yes"?>
<svg xmlns="http://www.w3.org/2000/svg" width="609" height="371">
<!-- <path style="fill:#ffffff; stroke:none;" d="M0 0L0 371L609 371L609 0L0 0z"/>
--><path style="fill:#000000; stroke:none;" d="M367 190L367 150L367.699 130L379.192 111L409 64C399.709 62.2752 390.368 63.5521 381 62.9105C346.886 60.5743 312.149 62 278 62L248 62C245.297 62.0045 238.988 61.2177 238.466 65.1204C237.953 68.9565 247.497 72.7042 249.91 75.0934C258.782 83.8791 264.251 95.9884 269.753 107C283.108 133.726 280 160.776 280 190L237 190C230.912 190 222.743 191.402 217 189.146C203.151 183.705 189.85 169.3 178 160.374C167.668 152.592 149.216 144.54 150.043 130C150.686 118.701 161.392 106.354 167.192 97C173.178 87.3459 183.535 76.6082 187.296 66C188.427 62.8094 186.042 60.1652 186.726 57C187.922 51.4615 192.394 46.5738 194 41C171.044 36.7383 144.359 38 121 38C117.295 38 97.9285 36.2996 98.9213 42.9259C99.4669 46.5676 108.07 50.0986 110.535 53.0154C119.656 63.8067 125.523 77.1222 131 90C132.549 93.6421 137.148 100.473 135.068 104.424C129.123 115.718 113.169 125.272 104 134.039C76.5755 160.261 47.8339 185.166 21 212L21 213C48.4431 234.152 77.1755 254.117 106 273.333C112.869 277.913 119.734 282.617 127 286.557C129.392 287.854 133.665 290.105 136.242 287.968C139.713 285.09 134.913 280.088 132.956 278C124.001 268.443 116.159 260.249 113.45 247C105.24 206.849 132.601 174.098 143 138L144 138L144 338L150 338L150 272C150 263.498 147.682 250.897 151.09 243C155.914 231.82 170.026 222.65 180 216.425C191.131 209.478 205.025 199.195 218 196.39C236.949 192.294 260.592 196 280 196L280 322L286 322L286 196L362 196L362 322L367 322L367 196L395 196L395 197C387.408 200.276 374.833 206.498 371 214C405.883 233.44 438.673 259.224 472 281.333C479.761 286.481 487.726 291.932 496 296.215C499.252 297.898 503.226 300.122 506 297L507 297L507 338L513 338L513 190C513 168.143 508.311 140.026 517 120L514 121L548.667 67L566 39C537.671 39 509.395 37 481 37C475.836 37 455.823 34.1271 453.176 39.4151C452.044 41.6761 454.36 43.2928 456.059 44.2153C462.468 47.6932 467.367 51.2234 471.996 57.0008C482.635 70.2784 489.998 85.7379 497.255 101C500.197 107.186 505.17 115.158 506.063 121.985C506.635 126.357 502.119 128.344 499 130.319C490.662 135.599 482.383 140.984 474 146.192C458.592 155.765 443.212 165.462 428 175.343C420.968 179.911 412.536 187.453 404.424 189.733C393.615 192.771 378.26 190 367 190z"/>
<path style="fill:#ffffff; stroke:none;" d="M467 42L484.575 64L510 114L511 114L556 44L467 42M111 44L111 45C125.947 57.0905 134.986 81.222 141 99C160.881 89.729 176.824 65.633 185 46L111 44M252 68C265.597 84.565 273.056 102.347 283 121C296.326 107.086 307.625 85.8394 317 69L271 68L252 68M334 68C345.78 84.9216 357.253 101.178 364 121L376.333 104L398 69L352 68L334 68M324 69L297.576 110L286.699 128L286 148L286 190L362 190C362 171.238 365.604 148.291 361.471 130C358.964 118.904 352.303 108.087 347.247 98C341.842 87.2184 335.085 74.7506 324 69M160 90L144 105L147 115L148 115L160 90M31 213L123 277C117.791 269.576 112.299 263.831 109.355 255C99.6729 225.954 112.868 191.798 124.012 165C129.124 152.705 141.807 136.986 143.397 124C143.921 119.721 141.105 115.05 140 111C131.332 115.018 125.064 123.484 118 129.715C98.5251 146.892 80.2522 165.41 61 182.83C51.5259 191.403 36.4523 201.308 31 213M506 134C481.193 165.281 452.726 217.822 472.259 258C480.212 274.357 495.931 281.001 506 295L507 295L507 182C507 168.485 511.206 146.407 506 134M492 142L416 190.308L381 213C411.838 235.087 443.848 258.543 477 277C473.267 268.611 467.138 261.929 464.079 253C456.27 230.208 461.926 204.617 470.861 183C474.728 173.644 479.343 164.75 484.424 156C486.905 151.728 491.418 146.91 492 142M150 148L150 232C169.79 218.06 187.16 202.509 210 193L210 192L150 148z"/>
</svg>
