<?xml version="1.0" standalone="yes"?>
<svg xmlns="http://www.w3.org/2000/svg" width="718" height="371">
<path style="fill:#ffffff; stroke:none;" d="M0 0L0 371L718 371L718 0L0 0z"/>
<path style="fill:#000000; stroke:none;" d="M204 97C206.891 102.93 213.923 107.662 220 110L220 111L137 111L100 110.411L67 83L66 126C62.3062 125.708 46.8779 122.349 45.9213 128.264C45.3824 131.596 51.447 135.568 53.2114 138.004C57.7647 144.29 62.0926 153.356 63.6211 161C68.2519 184.157 64 212.356 64 236L49 224C49 238.673 48 253.283 48 268C48 274.241 45.9525 282.373 54 283C61.1947 254.536 94.6837 257 117 257L181 257C189.26 257 201.25 254.81 209 257.854C216.461 260.785 223.602 267.848 230 272.626C242.875 282.24 255.917 291.671 269 301C282.949 310.946 296.745 321.163 311 330.667C314.627 333.085 321.881 339.582 326.667 337.378C330.483 335.62 326.594 330.906 324.891 329.17C318.03 322.171 310.117 316.823 304.015 309C282.94 281.978 290.463 244.514 304.258 216C309.613 204.932 317.687 194.395 322 183C328.608 184.782 331.554 172.785 334 167C330.945 168.428 327.405 171.467 324 171.748C317.812 172.26 309.102 161.355 305.669 157C302.745 153.29 295.761 146.128 300.253 141.532C305.359 136.309 315.189 134.576 322 132.873C341.362 128.034 361.234 126.719 381 124.83C392.367 123.744 404.579 122.029 416 123.171C436.06 125.176 456.361 132.842 476 137.349C517.073 146.775 558.115 156.665 599 166.873C617.405 171.469 637.08 178.494 656 180L656 181L503 216.651L445 230C445.014 211.31 465.111 199.377 472 183C447.297 183 422.621 182.009 398 182C393.897 181.998 375.205 179.586 374.466 185.12C373.999 188.621 385.887 196.734 388.218 200C396.503 211.606 400 221.966 400 236L307 212C307 238.914 308.069 267.308 311.576 294C312.173 298.546 311.149 318.364 317.95 318.364C321.473 318.364 322.206 313.403 323.427 311C326.355 305.235 331.324 300.446 336 296.09C354.478 278.878 377.739 263.848 400 252L400 313L406 313L406 266C406 261.073 404.359 252.472 407.603 248.38C413.612 240.8 430.192 240.28 439 238L439 313L445 313L445 236C456.8 235.061 468.472 230.985 480 228.424C506.4 222.561 532.686 216.123 559 209.884C595.814 201.156 636.624 196.346 672 183L672 178L499 136.374L443 122.873L418 116.57L402 102.17L368 70L345 50L313.319 100L294 134L293 134C288.842 101.804 296.285 74.2205 312.427 46C318.806 34.8486 329.059 24.6871 334 13L291 40.3079L204 97z"/>
<path style="fill:#ffffff; stroke:none;" d="M311 34L214 98L243 120.374L300 161C295.951 152.827 290.83 145.849 288.029 137C281.336 115.857 285.786 92.2566 293.425 72C296.665 63.4098 300.495 55.1175 304.781 47C306.905 42.9771 310.863 38.5955 311 34M346 59L301 133C336.548 123.297 370.726 121.584 407 117C395.926 101.279 378.232 87.7079 364 74.8302C358.188 69.5711 353.181 62.3488 346 59M72 96L72 126L92 114L72 96M225 115C218.338 120.047 202.216 117 194 117L119 117C106.393 117 93.921 115.206 85 126L150 128L131.39 165L131 194L131 251L181 251L205 250.351L242 227L314 180L314 178L262 141.116L225 115M57 131L67 152L68 152L78 133C73.1889 135.501 66.5843 148.657 66.0154 135.045C65.9593 133.702 66.0009 132.343 66 131L57 131M86 132L96 156L97 156L108 133L86 132M117 132L128 156L129 156L140 133L117 132M113 138L99.3904 165L99 194L99 251L125 251L125 183C125 167.908 123.959 149.815 113 138M82 139C78.2136 145.187 72.9497 152.095 70.6991 159C68.754 164.968 70 172.78 70 179L70 221C70 227.334 68.0886 237.461 71.6034 242.999C76.8517 251.269 84.3468 251 93 251L93 182C93 167.473 92.3429 150.544 82 139M387 188L404 214C407.153 209.61 420.213 196.828 418.542 191.279C417.681 188.418 413.405 188.162 411 188.04C403.039 187.637 394.972 188 387 188M428 190L428 191L443 214L460 189C450.17 188.578 437.037 185.177 428 190M310 189L214 252L247 277.424L301 316C283.062 286.933 281.236 259.225 293.053 227C296.189 218.449 299.976 210.011 304.309 202C306.415 198.105 310.428 193.519 310 189M424 196L406.564 221L406 238L439 232C439 218.903 433.956 205.125 424 196M313 220L318 305C325.357 300.744 331.356 291.893 338 286.275C350.466 275.734 364.24 266.781 378 258.053C384.269 254.077 397.598 249.275 400 242L313 220M54 236L54 268L74 254L74 253L54 236z"/>
</svg>
