<?xml version="1.0" standalone="no"?>
<!DOCTYPE svg PUBLIC "-//W3C//DTD SVG 20010904//EN"
 "http://www.w3.org/TR/2001/REC-SVG-20010904/DTD/svg10.dtd">
<svg version="1.0" xmlns="http://www.w3.org/2000/svg"
 width="400.000000pt" height="371.000000pt" viewBox="0 0 400.000000 371.000000"
 preserveAspectRatio="xMidYMid meet">
<metadata>
Created by potrace 1.16, written by Peter Selinger 2001-2019
</metadata>
<g transform="translate(0.000000,371.000000) scale(0.100000,-0.100000)"
fill="#000000" stroke="none">
<path d="M2792 3341 c-27 -17 -8 -43 40 -56 93 -23 208 -134 338 -325 56 -84
70 -111 70 -142 l0 -38 -1082 0 -1083 1 -280 266 -280 266 -7 -139 c-3 -77 -8
-327 -10 -556 -2 -329 0 -420 10 -430 20 -20 44 2 56 53 30 115 190 273 434
426 l85 53 1079 0 1078 0 0 -410 0 -410 -213 0 c-164 0 -217 -3 -232 -14 -22
-16 -14 -46 12 -46 31 -1 103 -39 154 -81 58 -49 153 -164 226 -276 l53 -81 0
-296 0 -296 -465 0 -465 0 0 418 0 417 156 213 c86 117 154 216 151 219 -4 3
-271 8 -594 10 -493 3 -591 2 -607 -10 -23 -17 -15 -33 27 -51 64 -26 143
-128 228 -292 l49 -94 0 -415 0 -415 -259 0 -259 0 -339 209 -338 210 -7 -32
c-10 -44 -23 -806 -14 -840 10 -43 43 -36 65 16 35 79 139 156 346 257 66 32
160 75 209 94 l90 36 253 0 253 0 0 -115 0 -115 25 0 25 0 0 115 0 115 240 0
240 0 0 -115 0 -115 30 0 30 0 0 115 0 115 465 0 465 0 0 -280 0 -280 25 0 25
0 0 603 0 604 225 233 c124 128 225 237 225 241 0 5 -74 9 -164 9 -89 0 -191
3 -225 6 l-61 7 0 478 0 478 230 238 231 238 -178 6 c-272 10 -766 10 -781 0z
m661 -50 l178 -6 -182 -188 -181 -187 -50 72 c-79 115 -144 192 -215 258 l-66
60 169 -1 c93 -1 249 -4 347 -8z m-2684 -288 c108 -102 211 -201 230 -219 l34
-32 -59 -38 c-159 -101 -344 -257 -402 -339 l-21 -30 -1 271 c0 271 9 574 18
574 2 0 93 -84 201 -187z m1213 -979 c7 -5 -217 -316 -231 -322 -4 -1 -19 24
-35 55 -41 85 -94 170 -144 231 l-44 54 224 -7 c122 -4 226 -9 230 -11z m537
0 c2 -2 -111 -160 -225 -312 -9 -12 -19 1 -54 64 -54 99 -114 189 -154 232
l-31 34 230 -7 c127 -4 232 -9 234 -11z m-394 -154 c23 -36 61 -102 84 -147
l41 -83 0 -415 0 -415 -240 0 -240 0 0 413 0 412 132 179 132 179 24 -29 c13
-16 43 -58 67 -94z m1503 -35 c2 -2 -79 -87 -180 -190 -156 -160 -184 -185
-193 -170 -46 78 -154 215 -227 288 l-88 89 343 -8 c188 -3 343 -8 345 -9z
m-2695 -920 l208 -128 -88 -37 c-209 -88 -372 -180 -455 -258 l-51 -47 7 334
c4 184 10 340 13 347 3 9 27 -1 81 -35 43 -26 171 -105 285 -176z"/>
</g>
</svg>
