<?xml version="1.0" standalone="yes"?>
<svg xmlns="http://www.w3.org/2000/svg" width="357" height="371">
<!-- <path style="fill:#ffffff; stroke:none;" d="M0 0L0 371L357 371L357 0L0 0z"/>
--><path style="fill:#000000; stroke:none;" d="M100 172L66 172C63.1094 172 56.812 170.962 55.2562 174.263C53.3721 178.26 65.5559 181.541 68 183.221C79.6125 191.199 91.0697 205.34 97.2855 218C102.738 229.106 100 244.898 100 257L100 342L106 342L106 226C126.966 240.144 148.324 253.967 170 267C172.828 268.7 190.225 281.359 192.029 274.682C193.111 270.68 187.53 267.345 184.999 265.339C177.983 259.777 171.379 253.525 168.069 245C159.907 223.982 170.018 204.172 178 185C188.293 195.293 202.995 208.54 207.351 223C210.683 234.059 208 249.473 208 261L208 342L214 342L214 223C234.433 236.52 255.17 249.669 276 262.576C280.066 265.095 293.493 275.85 298.377 271.957C301.945 269.113 295.919 264.579 293.995 263.001C284.299 255.047 275.78 246.896 273.311 234C268.968 211.318 281.254 186.486 293.344 168C298.286 160.443 305.745 153.416 309 145L249 185L260 173L214 172L214 104L215.028 76L229 61L260 28C236.852 28 212.054 29.0241 189 26.8302C184.055 26.3596 166.319 23.9679 163.086 28.5841C160.325 32.5269 168.927 34.3375 171 35.3781C181.725 40.7608 190.189 51.3691 196.964 61C200.564 66.1174 205.528 71.9473 207.351 78C210.015 86.8417 208 98.803 208 108L208 172L186 172L202 148L132 195L152 173L106 172L106 105C106 97.1968 103.494 84.0671 107.028 77C116.689 57.6774 142.875 47.5681 152 28C129.034 28 103.805 29.4052 81 26.7145C76.3784 26.1692 58.1259 24.2738 55.2878 28.5841C52.4874 32.8372 61.8345 34.4096 64 35.5432C74.469 41.0235 82.8033 51.5712 89.5718 61C101.602 77.7582 100 92.1172 100 112L100 172z"/>
<path style="fill:#ffffff; stroke:none;" d="M72 32L103 70C115.911 60.9052 129.91 45.9037 139 33L72 32M179 32L179 33C191.175 42.2761 203.412 56.075 210 70L223.015 58L247 33L179 32M285 168C268.285 179.37 251.762 191.031 235 202.33C230.603 205.294 219.437 210.686 219.346 216.896C219.284 221.11 228.964 225.319 232 227.333C245.646 236.385 259.953 247.508 275 254C264.208 233.486 265.522 213.259 274 192C276.916 184.688 284.244 175.555 285 168M71 177L71 178C84.7407 187.089 93.9428 201.574 103 215C116.054 205.804 129.828 191.073 139 178L71 177M181 178L181 180C192.872 188.363 201.004 201.147 209 213C223.064 205.162 237.763 191.113 247 178L203 177.996L181 178M108 220L168 258C153.407 230.266 161.672 208.208 173 181C165.637 177.543 159.998 183.666 154 187.667C139.152 197.57 120.5 207.29 108 220M131 195L130 197L131 195z"/>
</svg>
