<?xml version="1.0" standalone="no"?>
<!DOCTYPE svg PUBLIC "-//W3C//DTD SVG 20010904//EN"
 "http://www.w3.org/TR/2001/REC-SVG-20010904/DTD/svg10.dtd">
<svg version="1.0" xmlns="http://www.w3.org/2000/svg"
 width="674.000000pt" height="371.000000pt" viewBox="0 0 674.000000 371.000000"
 preserveAspectRatio="xMidYMid meet">
<metadata>
Created by potrace 1.16, written by Peter Selinger 2001-2019
</metadata>
<g transform="translate(0.000000,371.000000) scale(0.100000,-0.100000)"
fill="#000000" stroke="none">
<path d="M5176 3428 c-27 -21 -15 -44 31 -58 118 -39 240 -190 400 -497 l75
-143 -959 0 -959 0 -194 126 c-107 70 -199 130 -204 134 -5 5 51 95 124 201
73 106 134 198 137 205 10 26 -1193 42 -1219 16 -20 -20 1 -42 61 -64 37 -14
71 -38 111 -79 72 -73 177 -226 164 -238 -10 -10 -1364 -401 -1387 -401 -8 0
-20 7 -27 15 -18 22 -30 18 -30 -9 0 -13 -7 -27 -16 -30 -9 -4 -212 41 -450
99 -238 58 -438 105 -444 105 -7 0 -9 -7 -6 -17 11 -29 294 -538 374 -673 87
-148 108 -173 132 -160 14 7 16 19 12 65 -4 47 0 65 27 119 38 77 168 234 278
333 l81 74 -1 -768 c0 -422 -3 -776 -6 -785 -5 -13 -65 52 -239 257 -128 151
-237 275 -242 275 -19 0 -397 -657 -402 -699 -2 -13 4 -28 14 -34 14 -9 23 -6
45 15 60 58 191 83 513 99 129 7 252 9 272 5 35 -6 37 -9 43 -54 9 -66 12 -72
34 -72 13 0 23 11 31 34 6 19 17 39 24 45 9 7 230 -64 807 -262 l794 -272 7
-69 c4 -38 11 -73 17 -79 16 -16 39 -1 54 35 36 87 214 188 567 322 l135 51
1003 3 1002 2 0 -135 0 -135 25 0 25 0 0 1119 0 1118 290 424 291 424 -98 6
c-54 4 -323 10 -598 14 -432 6 -503 5 -519 -7z m803 -48 c168 -6 307 -12 309
-14 4 -5 -469 -700 -493 -725 -11 -11 -18 -2 -41 50 -110 252 -277 525 -385
632 l-69 67 188 0 c103 0 324 -5 491 -10z m-2611 -19 l172 -6 -110 -160 c-61
-88 -114 -161 -119 -163 -4 -1 -67 36 -140 84 -73 47 -135 84 -137 81 -4 -4
-22 -398 -24 -512 0 -26 -66 95 -168 307 -2 4 29 16 68 28 39 12 69 24 67 28
-2 4 -7 15 -10 24 -5 15 -10 15 -69 -3 -35 -10 -70 -19 -78 -19 -8 1 -40 40
-70 87 -30 47 -90 122 -133 166 l-78 79 328 -7 c180 -4 406 -10 501 -14z
m-178 -319 c47 -30 87 -56 89 -58 3 -3 -80 -129 -179 -270 l-36 -52 3 152 c5
216 12 298 26 289 7 -4 50 -31 97 -61z m-297 -269 l102 -208 3 -112 4 -113
-612 0 -611 0 -175 119 c-96 66 -176 123 -177 126 -2 8 1312 392 1346 394 13
1 42 -49 120 -206z m631 52 l185 -120 -32 -14 c-272 -122 -507 -259 -580 -341
l-37 -40 0 127 1 128 131 193 c73 106 135 191 139 190 4 -2 91 -57 193 -123z
m-2660 -180 c192 -47 350 -85 351 -85 1 0 -46 -48 -105 -107 -149 -152 -212
-239 -257 -353 -9 -23 -13 -19 -65 70 -48 81 -129 227 -285 508 -33 61 -34 63
-11 57 13 -3 180 -44 372 -90z m4867 -30 l29 -65 0 -950 0 -950 -997 0 -998 0
-355 188 -355 188 -3 572 c-2 475 0 576 12 595 7 12 16 34 20 49 20 87 261
246 591 390 l110 47 958 1 958 0 30 -65z m-4036 -281 l29 -22 -94 -47 c-51
-26 -111 -58 -132 -71 l-38 -24 -60 40 -60 41 0 98 c0 54 3 125 6 158 l7 60
156 -106 c86 -58 170 -116 186 -127z m1305 -219 l0 -165 -608 0 -609 0 -137
92 c-113 76 -134 94 -123 105 7 7 67 40 133 73 l119 59 613 1 612 0 0 -165z
m-1622 -5 c-18 -16 -33 -27 -34 -27 0 1 1 23 4 49 l4 48 30 -21 29 -21 -33
-28z m239 -111 l113 -77 -53 -22 c-28 -12 -88 -42 -131 -66 l-80 -45 -63 43
c-62 42 -63 44 -63 90 0 65 14 96 67 146 53 49 26 58 210 -69z m1383 -269 l0
-160 -606 0 -605 0 -135 92 c-157 107 -158 92 11 174 l110 54 613 0 612 0 0
-160z m-1608 47 l28 -22 -42 -34 c-39 -33 -41 -34 -35 -10 4 13 7 39 7 57 0
38 6 39 42 9z m205 -138 c68 -45 123 -85 123 -89 0 -4 -24 -17 -52 -29 -29
-12 -91 -44 -137 -70 l-84 -49 -54 35 -53 36 0 54 c0 29 6 68 14 86 13 33 90
107 110 107 6 0 66 -37 133 -81z m1403 -294 l0 -175 -606 0 -605 0 -145 98
c-79 53 -144 100 -144 104 0 4 64 38 141 77 l142 71 608 0 609 0 0 -175z
m-1989 -132 l202 -238 -84 -2 c-282 -8 -511 -34 -609 -68 l-42 -15 38 68 c74
132 287 492 291 492 1 0 93 -107 204 -237z m383 158 c3 -5 -5 -16 -19 -25
l-25 -16 0 35 c0 32 2 35 19 25 11 -5 22 -14 25 -19z m200 -131 c69 -47 126
-87 126 -90 0 -3 -55 -33 -123 -67 -67 -34 -146 -81 -176 -103 -29 -23 -59
-39 -67 -36 -11 4 -14 33 -14 130 0 69 5 137 11 153 14 39 89 114 105 105 7
-4 69 -45 138 -92z m1406 -177 c0 -77 -22 -667 -25 -671 -3 -4 -1528 519
-1537 527 -11 10 83 69 222 138 l125 63 608 0 607 0 0 -57z m497 -330 l202
-106 -142 -53 c-184 -69 -410 -181 -469 -233 -25 -23 -50 -41 -55 -41 -4 0 -2
4 5 9 11 6 13 73 12 335 l-1 326 123 -65 c68 -36 214 -113 325 -172z"/>
</g>
</svg>
