<?xml version="1.0" standalone="no"?>
<!DOCTYPE svg PUBLIC "-//W3C//DTD SVG 20010904//EN"
 "http://www.w3.org/TR/2001/REC-SVG-20010904/DTD/svg10.dtd">
<svg version="1.0" xmlns="http://www.w3.org/2000/svg"
 width="485.000000pt" height="371.000000pt" viewBox="0 0 485.000000 371.000000"
 preserveAspectRatio="xMidYMid meet">
<metadata>
Created by potrace 1.16, written by Peter Selinger 2001-2019
</metadata>
<g transform="translate(0.000000,371.000000) scale(0.100000,-0.100000)"
fill="#000000" stroke="none">
<path d="M546 2818 c-11 -79 -22 -802 -14 -898 4 -52 2 -272 -4 -488 -11 -403
-7 -512 18 -533 19 -16 41 3 50 44 20 92 259 251 588 391 l107 46 458 0 c450
0 459 0 464 -20 10 -38 43 -24 62 27 23 59 83 119 187 187 92 59 274 153 420
215 l95 41 652 0 651 0 0 25 0 25 -651 0 -651 0 -370 238 c-204 130 -373 245
-376 255 -4 16 -35 17 -474 17 l-471 0 -356 229 c-196 125 -361 231 -368 235
-8 4 -14 -7 -17 -36z m414 -278 c140 -90 259 -167 264 -172 6 -4 -18 -20 -55
-35 -224 -95 -451 -227 -543 -315 l-49 -47 7 391 c4 215 9 395 12 399 3 5 28
-6 57 -24 29 -19 167 -107 307 -197z m1257 -382 c-4 -95 -10 -296 -13 -445
l-7 -273 -455 0 -454 0 -344 221 c-189 122 -344 226 -344 232 0 22 54 88 104
126 109 83 302 188 501 272 l90 38 464 1 464 0 -6 -172z m411 -113 c154 -99
281 -182 282 -185 0 -4 -17 -12 -37 -19 -75 -26 -360 -170 -435 -220 -42 -28
-102 -75 -133 -103 l-57 -51 6 164 c3 90 9 271 12 401 l6 238 37 -23 c21 -12
164 -103 319 -202z m-1720 -422 c169 -109 309 -202 310 -207 2 -5 -32 -24 -75
-43 -222 -96 -410 -205 -509 -295 l-54 -50 0 214 c0 227 10 578 17 578 2 0
142 -89 311 -197z"/>
</g>
</svg>
