<?xml version="1.0" standalone="no"?>
<!DOCTYPE svg PUBLIC "-//W3C//DTD SVG 20010904//EN"
 "http://www.w3.org/TR/2001/REC-SVG-20010904/DTD/svg10.dtd">
<svg version="1.0" xmlns="http://www.w3.org/2000/svg"
 width="593.000000pt" height="371.000000pt" viewBox="0 0 593.000000 371.000000"
 preserveAspectRatio="xMidYMid meet">
<metadata>
Created by potrace 1.16, written by Peter Selinger 2001-2019
</metadata>
<g transform="translate(0.000000,371.000000) scale(0.100000,-0.100000)"
fill="#000000" stroke="none">
<path d="M4637 3366 c-25 -26 -21 -35 26 -55 63 -27 101 -63 161 -154 49 -74
186 -339 186 -361 0 -4 -19 -6 -42 -2 -41 6 -195 6 -668 1 -118 -1 -807 -5
-1530 -9 l-1315 -7 -252 206 c-139 113 -254 205 -256 205 -8 0 -17 -269 -18
-515 0 -137 -7 -437 -15 -665 -8 -228 -14 -512 -14 -630 1 -118 2 -304 1 -412
l-1 -198 -64 0 -65 0 -223 207 -223 207 -6 -174 c-4 -96 -7 -290 -8 -431 -1
-216 1 -259 14 -269 20 -17 45 -5 45 20 0 69 114 192 284 305 112 75 113 75
179 75 66 0 67 0 67 -27 1 -63 45 -72 65 -13 l12 35 1106 3 1107 2 0 -183 c0
-141 3 -188 14 -202 19 -26 42 -7 50 43 12 77 98 205 209 310 l56 52 795 0
795 0 3 -142 3 -143 25 0 25 0 3 1060 2 1060 234 395 235 395 -77 6 c-42 4
-264 10 -492 14 -387 8 -417 7 -433 -9z m845 -55 l67 -6 -202 -341 c-111 -188
-205 -340 -208 -338 -13 7 -51 127 -46 145 3 12 0 19 -9 19 -7 0 -23 24 -36
53 -72 171 -186 366 -262 446 l-41 43 335 -7 c184 -4 365 -10 402 -14z m-4274
-395 c100 -81 182 -150 182 -154 0 -4 -21 -18 -47 -32 -75 -39 -223 -138 -281
-187 -80 -68 -82 -65 -82 144 0 98 3 229 7 291 5 102 8 111 22 99 9 -8 98 -80
199 -161z m3769 -176 l42 0 -101 -207 c-55 -115 -103 -212 -108 -216 -4 -5
-18 22 -30 60 -34 101 -103 262 -134 311 l-26 42 114 0 c73 0 117 4 122 11 4
7 21 9 43 5 20 -3 55 -6 78 -6z m-1648 -26 c18 -9 48 -37 66 -63 57 -77 185
-398 185 -463 l0 -28 -1051 0 -1051 0 -214 152 -213 152 37 33 c54 48 184 134
282 187 l85 46 921 0 c826 0 924 -2 953 -16z m793 -15 l20 -26 -93 -192 -93
-192 -36 103 c-20 57 -46 125 -58 152 -27 60 -27 56 5 128 l26 59 105 -3 c100
-3 106 -4 124 -29z m432 22 c5 -7 -182 -402 -197 -417 -2 -3 -21 44 -41 103
-21 59 -55 144 -75 189 -35 75 -37 83 -24 107 l14 27 159 0 c87 0 161 -4 164
-9z m-837 -23 c11 -10 28 -35 40 -55 l21 -38 -82 -163 -82 -164 -43 119 c-48
131 -100 240 -138 292 l-26 33 146 -3 c119 -4 148 -7 164 -21z m102 -10 c-6
-13 -13 -24 -14 -26 -1 -1 -7 9 -13 23 -11 23 -10 25 14 25 22 0 24 -2 13 -22z
m1266 -71 l25 -67 0 -885 0 -885 -140 0 -140 0 0 727 0 727 112 228 c61 125
113 227 114 225 2 -2 15 -33 29 -70z m-440 -40 c24 -52 64 -154 89 -228 l46
-135 0 -717 0 -717 -200 0 -200 0 0 723 0 722 107 222 c60 122 109 223 111
223 2 0 23 -42 47 -93z m-361 -238 l46 -136 0 -712 0 -711 -175 0 -175 0 0
720 0 720 96 197 96 198 34 -70 c18 -38 53 -131 78 -206z m-400 0 l46 -135 0
-712 0 -712 -145 0 -145 0 0 715 0 715 82 165 83 165 16 -33 c10 -18 38 -94
63 -168z m-2663 -59 c101 -72 185 -134 186 -138 1 -4 -44 -29 -99 -56 -55 -27
-136 -73 -180 -103 -43 -29 -82 -53 -84 -53 -3 0 -21 12 -40 26 l-34 26 0 107
c1 195 25 339 55 327 6 -2 94 -63 196 -136z m2359 -405 l0 -235 -1064 0 -1065
0 -173 123 c-95 67 -176 126 -178 130 -7 12 118 90 253 158 l118 59 1055 0
1054 0 0 -235z m-2584 24 c3 -6 -1 -18 -10 -27 -15 -15 -16 -14 -16 11 0 27
13 36 26 16z m207 -146 c84 -59 162 -115 175 -124 l24 -18 -104 -52 c-108 -54
-248 -140 -268 -164 -10 -12 -17 -11 -47 8 l-35 22 5 149 c3 85 10 153 16 159
6 6 11 18 11 27 0 15 56 100 66 100 3 0 74 -48 157 -107z m2377 -428 l0 -255
-135 0 -135 0 -52 72 -53 73 -3 -73 -3 -72 -872 0 -872 0 -185 131 c-102 72
-191 136 -198 143 -11 11 -1 22 60 62 40 27 129 77 198 111 l124 63 1063 0
1063 0 0 -255z m-2327 -175 l147 -103 -120 -63 c-127 -67 -251 -147 -290 -189
-13 -14 -27 -25 -32 -25 -9 0 -9 226 1 376 5 84 10 106 31 137 l24 36 46 -33
c25 -17 111 -78 193 -136z m-608 -332 l79 -75 -59 -38 c-92 -58 -218 -159
-265 -212 l-43 -48 7 235 c3 129 6 270 6 314 l0 78 98 -90 c53 -49 133 -123
177 -164z m2555 145 c0 -32 -3 -88 -7 -125 l-6 -68 -1075 0 -1075 0 44 33 c65
49 150 99 278 161 l114 56 863 0 864 0 0 -57z m178 -76 l94 -128 -79 -82 c-43
-45 -94 -104 -112 -130 -18 -27 -34 -47 -36 -45 -2 2 -1 119 2 261 5 228 8
258 22 255 9 -2 58 -61 109 -131z m202 13 l0 -120 -32 0 c-30 1 -39 10 -108
107 -41 59 -79 112 -83 120 -6 10 14 13 108 13 l115 0 0 -120z"/>
</g>
</svg>
