<?xml version="1.0" standalone="no"?>
<!DOCTYPE svg PUBLIC "-//W3C//DTD SVG 20010904//EN"
 "http://www.w3.org/TR/2001/REC-SVG-20010904/DTD/svg10.dtd">
<svg version="1.0" xmlns="http://www.w3.org/2000/svg"
 width="632.000000pt" height="371.000000pt" viewBox="0 0 632.000000 371.000000"
 preserveAspectRatio="xMidYMid meet">
<metadata>
Created by potrace 1.16, written by Peter Selinger 2001-2019
</metadata>
<g transform="translate(0.000000,371.000000) scale(0.100000,-0.100000)"
fill="#000000" stroke="none">
<path d="M266 3481 c-3 -4 -9 -199 -12 -432 -7 -431 -4 -477 29 -466 6 2 25
30 42 63 30 59 117 142 195 188 l33 19 -6 -249 c-4 -137 -12 -447 -18 -690 -7
-242 -9 -457 -5 -478 4 -20 13 -39 21 -42 12 -5 13 -56 8 -317 -3 -172 -7
-313 -8 -315 -2 -2 -72 40 -155 93 -84 53 -154 94 -157 92 -6 -7 -22 -473 -23
-675 0 -108 4 -191 10 -203 17 -31 39 -22 59 24 43 98 214 212 504 337 l118
50 854 0 c563 0 855 -3 855 -10 0 -5 14 -10 30 -10 l30 0 0 575 0 575 58 29
c31 16 110 52 175 80 l118 51 925 0 c890 0 924 -1 915 -18 -8 -16 21 -41 222
-188 128 -94 298 -217 379 -275 l147 -104 1 -357 0 -358 25 0 25 0 0 339 0
340 41 -24 c85 -48 94 0 14 73 l-55 51 0 624 0 625 241 386 c133 213 240 388
238 390 -9 8 -883 28 -943 21 -62 -6 -94 -23 -82 -43 3 -5 30 -21 60 -36 104
-51 213 -216 352 -530 l53 -120 -27 -31 c-15 -18 -169 -193 -342 -389 -266
-302 -316 -353 -322 -336 -7 20 -13 20 -937 20 l-930 0 -176 111 -175 111 0
222 0 221 235 378 c129 207 235 381 235 385 0 18 -931 41 -985 25 -19 -6 -31
-17 -33 -30 -2 -16 7 -24 42 -37 43 -16 126 -89 147 -128 9 -17 -28 -18 -726
-18 l-735 0 -108 78 c-342 250 -472 341 -476 333z m296 -266 l236 -170 -118
-61 c-142 -74 -257 -151 -327 -217 l-53 -50 0 89 c0 194 14 584 20 582 4 -2
113 -79 242 -173z m5158 20 c178 -3 326 -7 328 -9 2 -2 -90 -153 -204 -335
l-207 -332 -48 113 c-102 236 -205 416 -295 517 -42 47 -43 50 -22 54 13 2 46
3 73 1 28 -2 196 -6 375 -9z m-2783 -14 l121 -6 -203 -325 c-112 -179 -207
-325 -210 -325 -4 0 -33 59 -64 130 -99 227 -194 390 -288 495 l-47 52 285 -7
c156 -4 339 -10 406 -14z m-499 -348 c39 -76 88 -180 110 -230 l41 -93 -727 0
-727 0 -255 165 c-140 91 -256 169 -258 173 -1 4 49 33 110 64 l113 57 761 0
761 1 71 -137z m-1376 -337 c14 -10 2 -18 -80 -54 -123 -54 -283 -147 -345
-202 l-48 -43 6 254 c3 140 8 273 11 296 l5 42 217 -141 c119 -77 225 -146
234 -152z m4548 -645 l-1 -596 -29 35 c-41 49 -105 182 -126 265 -26 98 -26
401 -1 530 23 116 61 249 99 349 l31 79 13 -33 c11 -26 14 -146 14 -629z
m-3000 404 l0 -205 -37 23 c-21 14 -85 54 -142 91 -58 36 -108 66 -112 66 -3
0 -10 -101 -14 -225 l-7 -225 -627 0 -628 0 -214 160 c-118 89 -215 168 -217
176 -13 57 206 204 463 310 l80 34 728 0 727 0 0 -205z m2821 -36 c-40 -157
-54 -283 -48 -453 3 -107 11 -183 22 -226 20 -73 73 -195 105 -240 12 -17 19
-30 16 -30 -3 0 -68 45 -143 99 -298 214 -448 328 -448 338 0 10 507 592 513
588 1 -1 -7 -35 -17 -76z m-2939 -155 l118 -76 0 -197 0 -196 -57 -34 c-66
-39 -124 -81 -170 -125 l-33 -30 0 210 c0 229 10 524 18 524 3 0 58 -34 124
-76z m-1700 -159 c103 -77 187 -142 187 -145 1 -3 -29 -21 -66 -40 -99 -52
-238 -145 -292 -195 l-47 -44 3 252 c4 252 8 321 21 315 4 -2 91 -66 194 -143z
m2037 -54 c72 -46 128 -87 124 -92 -4 -4 -37 -19 -73 -34 -36 -15 -95 -43
-132 -61 -37 -19 -70 -34 -73 -34 -3 0 -5 72 -5 160 0 131 2 160 13 153 8 -4
73 -46 146 -92z m-534 -336 c0 -186 2 -216 17 -231 21 -22 30 -15 62 50 15 31
45 69 69 89 43 35 152 107 162 107 3 0 5 -101 5 -225 l0 -225 -732 0 -733 0
-267 173 c-147 94 -267 176 -268 181 0 17 91 97 164 144 39 25 116 70 171 99
l100 53 625 0 625 0 0 -215z m-1473 -286 c112 -73 216 -141 231 -152 l29 -20
-139 -67 c-159 -76 -234 -123 -298 -181 l-45 -42 0 94 c0 119 12 499 16 499 2
0 94 -59 206 -131z m1788 -469 l0 -270 -852 0 -852 0 -146 91 c-80 50 -146 93
-148 94 -2 2 3 16 11 32 40 75 191 174 419 274 l113 49 728 0 727 0 0 -270z
m-2020 -133 c129 -81 236 -151 237 -155 2 -4 -18 -16 -45 -26 -88 -35 -298
-142 -368 -188 -39 -25 -90 -64 -113 -86 l-44 -41 7 272 c4 150 9 305 12 345
l6 72 37 -22 c20 -12 142 -89 271 -171z"/>
</g>
</svg>
