<?xml version="1.0" standalone="yes"?>
<svg xmlns="http://www.w3.org/2000/svg" width="570" height="371">
<!-- <path style="fill:#ffffff; stroke:none;" d="M0 0L0 371L570 371L570 0L0 0z"/>
--><path style="fill:#000000; stroke:none;" d="M249 28L231.189 75L218 111L132 111C121.545 111 104.645 114.224 95 110.062C75.2966 101.559 64.5688 76.1126 45 67C45 90.6989 44 114.275 44 138C44 142.512 41.5625 158.462 46.2739 160.824C50.2255 162.805 54.0486 150.478 55.9028 148C64.7222 136.216 78.9878 126.087 92 119.327C102.266 113.994 118.666 117 130 117L215 117C210.665 128.237 206.353 139.529 202.671 151C201.857 153.534 199.172 160.832 202.6 162.593C205.54 164.103 217.115 153.713 221 152.345C238.972 146.018 258.983 142.872 278 142.039C292.864 141.388 306.749 146.564 321 150.127C345.021 156.132 368.996 162.296 393 168.374C404.755 171.351 416.878 176.01 429 177L429 178L335 200.13L298 208.736L273 203.13L213 189C215.674 208.843 223.889 232.703 232 251L172 251L172 202L172.857 180L205 137C174.715 137 144.355 136 114 136C109.448 136 87.3657 133.35 85.7515 138.39C84.5857 142.03 92.8903 145.214 94.9992 147.108C103.441 154.688 109.616 164.971 114.741 175C119.229 183.783 118 193.391 118 203L118 251C113.046 251 106.728 252.039 102 250.411C96.4136 248.488 91.4612 242.803 87 239.08C74.778 228.883 61.4632 213.625 47 207C46.9841 230.965 45 255.008 45 279C45 282.766 42.9075 300.364 49 300.364C51.9319 300.364 52.6693 296.008 53.669 293.999C56.3282 288.656 60.4814 284.258 65 280.439C81.1949 266.752 96.7065 257 118 257L118 286L124 286L124 257L166 257L166 286L172 286L172 257L218 257C222.434 257 230.837 255.348 233.914 259.318C237.216 263.578 238.245 270.901 239.709 276C243.15 287.984 246.41 300.02 249.859 312C250.911 315.656 252.92 328.364 257.96 328.364C260.862 328.364 264.749 311.226 266.616 308C273.495 296.113 282.7 286.239 291.715 276C296.372 270.709 301.43 263.643 308 260.652C317.085 256.516 328.345 255.537 338 253.127C357.983 248.137 377.927 242.955 398 238.349C443.46 227.916 488.32 214.429 534 205C532.942 195.532 522.705 195.235 515 193.151C495.198 187.795 475.084 182.145 455 178L455 177C475.237 176.118 497.299 167.655 517 162.87C523.624 161.262 534.361 161.207 535 153C516.05 152.607 495.245 144.087 477 139.151C442.119 129.716 407.052 120.648 372 111.873C356.629 108.026 341.323 103.913 326 99.8843C319.173 98.0893 309.93 97.4583 304.09 93.2971C296.291 87.741 290.344 77.4303 284.4 70C273.322 56.1523 260.781 42.7895 251 28L249 28z"/>
<path style="fill:#ffffff; stroke:none;" d="M251 39C247.789 47.3245 236.615 66.3251 239.043 75C240.393 79.8236 245.782 84.2408 248.92 88C251.593 91.203 254.725 96.6729 259.09 97.6428C269.566 99.9708 284.127 94.2245 295 94C284.336 75.4624 266.506 53.735 251 39M51 80L50 144L88 115C82.0865 102.581 62.2828 87.8543 51 80M235 81L226 108L251 100L235 81M263 103C267.299 112.645 280.899 130.446 290.17 135.697C299.74 141.117 314.339 142.208 325 144.873C347.702 150.549 370.298 156.697 393 162.373C407.81 166.077 427.789 175.27 443 174.211C467.931 172.477 492.202 160.339 517 157L493 149.626L445 137.127L345 111.127L302 100.174L263 103M209 151C231.833 141.494 256.224 137.064 281 136C276.798 127.857 269.434 121.023 263.586 114C261.249 111.193 258.638 106.83 254.961 105.694C250.892 104.437 244.843 107.222 241 108.516C220.281 115.49 215.236 131.868 209 151M100 142L121 173C128.375 165.992 138.737 154.676 142 145C130.328 138.882 112.9 142 100 142M169 173C177.419 165 188.275 152.601 193 142L162 142L152.482 144.318L156.573 153L169 173M124 251L166 251L166 203C166 191.972 167.083 181.975 161.691 172C159.313 167.599 152.839 152.207 147 152.207C142.075 152.207 134.658 165.414 131.801 169C122.587 180.564 124 190.831 124 205L124 251M268 246C279.134 248.553 291.559 254.884 303 254.921C321.869 254.981 343.645 245.236 362 240.884C396.392 232.731 430.708 224.199 465 215.627C483.651 210.964 502.959 204.564 522 202C513.671 196.913 501.389 196.185 492 193.576C476.879 189.373 456.705 180.734 441 181.264C431.158 181.596 420.522 185.749 411 188.127C392.723 192.69 374.362 197.135 356 201.349C338.847 205.285 318.048 207.422 302 214.651C290.042 220.038 275.45 235.423 268 246M221 197L233.139 234.49L246 239.579L260.961 243.072L270.015 235L292 214L221 197M52 219L51 285L94 254C84.6833 241.819 65.6321 226.034 52 219M237 243L244 269L245 269L257 249L237 243M257 313L298 260C289.19 258.177 272.66 249.094 264.039 251.697C259.836 252.966 256.916 258.548 254.698 262C245.383 276.497 248.162 298.533 257 313z"/>
</svg>
