<?xml version="1.0" standalone="no"?>
<!DOCTYPE svg PUBLIC "-//W3C//DTD SVG 20010904//EN"
 "http://www.w3.org/TR/2001/REC-SVG-20010904/DTD/svg10.dtd">
<svg version="1.0" xmlns="http://www.w3.org/2000/svg"
 width="382.000000pt" height="371.000000pt" viewBox="0 0 382.000000 371.000000"
 preserveAspectRatio="xMidYMid meet">
<metadata>
Created by potrace 1.16, written by Peter Selinger 2001-2019
</metadata>
<g transform="translate(0.000000,371.000000) scale(0.100000,-0.100000)"
fill="#000000" stroke="none">
<path d="M815 3406 c-24 -18 -13 -44 22 -51 136 -28 318 -235 502 -571 l61
-111 0 -917 0 -916 -52 0 c-52 0 -61 5 -421 236 -202 130 -370 235 -372 232
-8 -8 -28 -896 -21 -951 8 -60 24 -79 50 -58 7 6 16 24 19 39 18 92 243 244
570 386 l128 56 979 0 980 0 0 30 0 30 -230 0 -230 0 0 914 0 914 291 357
c160 196 289 358 287 360 -9 10 -1117 27 -1168 19 -46 -8 -56 -13 -58 -31 -3
-18 4 -24 40 -33 64 -18 90 -34 159 -97 103 -96 207 -242 333 -469 l66 -119 0
-907 0 -908 -650 0 -650 0 0 921 0 920 291 356 c159 195 288 357 285 360 -8 9
-539 22 -877 23 -250 0 -319 -3 -334 -14z m1066 -55 l46 -6 -246 -302 c-135
-166 -249 -302 -252 -302 -3 -1 -39 58 -80 129 -121 213 -264 400 -363 472
l-41 30 445 -7 c245 -4 466 -10 491 -14z m1221 -10 l176 -6 -245 -300 c-134
-165 -248 -304 -252 -308 -5 -5 -32 35 -60 88 -97 178 -207 333 -316 442
l-103 102 312 -5 c171 -4 390 -9 488 -13z m-2181 -2322 c173 -111 316 -203
318 -205 2 -2 -7 -8 -21 -13 -77 -29 -267 -121 -358 -174 -125 -72 -158 -95
-228 -161 l-54 -51 6 205 c14 482 18 600 21 600 2 0 144 -90 316 -201z"/>
</g>
</svg>
