<?xml version="1.0" standalone="no"?>
<!DOCTYPE svg PUBLIC "-//W3C//DTD SVG 20010904//EN"
 "http://www.w3.org/TR/2001/REC-SVG-20010904/DTD/svg10.dtd">
<svg version="1.0" xmlns="http://www.w3.org/2000/svg"
 width="411.000000pt" height="371.000000pt" viewBox="0 0 411.000000 371.000000"
 preserveAspectRatio="xMidYMid meet">
<metadata>
Created by potrace 1.16, written by Peter Selinger 2001-2019
</metadata>
<g transform="translate(0.000000,371.000000) scale(0.100000,-0.100000)"
fill="#000000" stroke="none">
<path d="M2289 3103 c-123 -126 -239 -247 -258 -270 l-34 -43 -324 0 -323 0
-366 235 c-202 130 -368 234 -370 232 -3 -2 -9 -116 -14 -253 -13 -334 -13
-720 0 -745 18 -33 39 -21 63 34 51 114 258 251 600 396 l98 42 332 -3 c299
-3 336 -5 369 -21 81 -40 214 -197 319 -374 l49 -84 0 -629 0 -630 -557 0
-558 0 -368 236 c-202 130 -370 234 -372 232 -3 -3 -10 -139 -16 -304 -12
-349 -9 -688 7 -704 16 -16 43 -1 50 29 9 33 49 89 95 129 87 76 331 209 541
296 l87 36 448 -1 c421 -1 442 -2 349 -15 -54 -7 -100 -15 -102 -16 -4 -4 286
-425 370 -538 45 -60 79 -96 92 -98 27 -4 38 22 23 50 -18 33 -4 141 31 252
32 100 121 308 156 365 10 17 259 247 551 511 460 415 531 483 521 498 -6 9
-219 172 -474 361 -255 190 -464 346 -464 349 0 2 20 27 45 54 25 28 43 53 40
57 -3 3 -59 8 -123 11 l-116 5 -81 267 c-44 147 -83 270 -86 273 -3 3 -107
-97 -230 -222z m276 -92 c35 -118 62 -217 59 -220 -2 -3 -55 5 -117 17 -158
30 -294 45 -351 38 l-50 -6 54 58 c147 155 335 341 337 335 2 -5 32 -104 68
-222z m-1567 -56 c160 -103 292 -190 292 -194 0 -3 -21 -14 -48 -25 -102 -40
-332 -158 -417 -214 -49 -32 -112 -80 -139 -106 l-49 -48 7 338 c4 187 9 367
13 402 6 61 6 62 27 49 12 -8 153 -99 314 -202z m1665 -240 c18 -9 46 -28 64
-43 l32 -27 -151 -168 -151 -169 -41 68 c-65 106 -181 258 -237 308 l-51 46
252 0 c206 0 258 -3 283 -15z m145 6 c10 -6 10 -10 -3 -21 -14 -11 -19 -10
-38 8 l-21 22 24 0 c14 0 31 -4 38 -9z m901 -788 c-4 -15 -1031 -938 -1050
-943 -11 -3 -55 -4 -99 -2 l-80 4 0 632 0 632 161 181 160 181 455 -338 c250
-187 454 -343 453 -347z m-2761 -768 l312 -200 -33 -14 c-17 -8 -108 -51 -202
-97 -187 -91 -303 -163 -378 -235 l-50 -48 7 317 c7 339 15 484 26 480 3 -2
146 -93 318 -203z m1647 -333 c-61 -138 -104 -264 -124 -361 l-18 -84 -59 84
c-158 221 -274 399 -262 400 7 0 112 13 233 28 121 16 232 29 247 30 l27 1
-44 -98z"/>
</g>
</svg>
