<?xml version="1.0" standalone="no"?>
<!DOCTYPE svg PUBLIC "-//W3C//DTD SVG 20010904//EN"
 "http://www.w3.org/TR/2001/REC-SVG-20010904/DTD/svg10.dtd">
<svg version="1.0" xmlns="http://www.w3.org/2000/svg"
 width="770.000000pt" height="371.000000pt" viewBox="0 0 770.000000 371.000000"
 preserveAspectRatio="xMidYMid meet">
<metadata>
Created by potrace 1.16, written by Peter Selinger 2001-2019
</metadata>
<g transform="translate(0.000000,371.000000) scale(0.100000,-0.100000)"
fill="#000000" stroke="none">
<path d="M2777 2834 c-4 -92 -7 -204 -7 -248 0 -45 -3 -91 -6 -103 l-6 -23
-496 0 -496 0 -449 261 c-246 144 -450 259 -452 258 -8 -9 -25 -614 -25 -889
0 -168 -4 -404 -10 -525 -5 -121 -9 -342 -10 -491 0 -220 3 -274 14 -290 19
-25 47 -9 58 33 11 43 82 113 175 174 97 64 333 179 523 256 l145 58 497 3
497 3 3 -230 c3 -198 5 -233 20 -247 22 -22 30 -15 63 51 33 69 105 129 254
213 116 66 327 162 489 223 l102 39 544 0 544 0 10 43 c29 112 277 269 683
431 l165 66 707 0 707 0 0 30 0 30 -708 0 -708 0 -414 241 c-228 132 -422 249
-432 260 -16 18 -35 19 -545 19 l-528 0 -440 256 c-242 141 -445 258 -451 261
-7 3 -13 -49 -17 -163z m455 -150 l389 -227 -163 -66 c-295 -121 -497 -233
-600 -333 l-51 -50 6 309 c8 356 18 593 25 593 3 0 180 -102 394 -226z m-1914
-24 l384 -222 -139 -55 c-278 -109 -515 -238 -625 -341 l-51 -47 6 330 c9 431
17 577 31 566 6 -4 183 -108 394 -231z m3388 -312 c-11 -149 -26 -806 -19
-868 l6 -60 -522 0 -522 0 -414 241 -414 241 15 36 c51 123 308 278 734 443
l125 48 508 1 509 0 -6 -82z m-1946 -110 c0 -95 -5 -332 -12 -525 l-12 -353
-496 0 -497 0 -432 251 c-388 226 -430 253 -418 268 8 9 17 29 21 44 25 105
324 280 786 460 l65 25 498 1 497 1 0 -172z m2428 -96 c194 -113 349 -208 345
-212 -4 -4 -62 -29 -128 -55 -266 -104 -520 -243 -620 -339 l-48 -46 7 378 c3
207 9 410 13 450 l6 72 36 -21 c20 -12 195 -114 389 -227z m-1606 -753 c-4 -3
-56 -25 -117 -49 -270 -106 -529 -247 -636 -347 l-49 -46 0 59 c0 111 21 819
25 831 2 7 161 -79 394 -215 214 -125 387 -230 383 -233z m-2291 174 l390
-227 -118 -46 c-336 -134 -584 -272 -669 -373 l-27 -32 6 340 c7 339 16 565
24 565 2 0 180 -102 394 -227z"/>
</g>
</svg>
