<?xml version="1.0" standalone="no"?>
<!DOCTYPE svg PUBLIC "-//W3C//DTD SVG 20010904//EN"
 "http://www.w3.org/TR/2001/REC-SVG-20010904/DTD/svg10.dtd">
<svg version="1.0" xmlns="http://www.w3.org/2000/svg"
 width="405.000000pt" height="371.000000pt" viewBox="0 0 405.000000 371.000000"
 preserveAspectRatio="xMidYMid meet">
<metadata>
Created by potrace 1.16, written by Peter Selinger 2001-2019
</metadata>
<g transform="translate(0.000000,371.000000) scale(0.100000,-0.100000)"
fill="#000000" stroke="none">
<path d="M1019 2787 c-393 -227 -726 -419 -739 -428 -23 -15 -15 -21 518 -376
l541 -360 -250 -143 c-137 -79 -249 -145 -249 -149 0 -3 229 -158 508 -343
884 -587 938 -619 956 -572 9 22 -1 32 -141 146 -171 139 -258 261 -297 419
-18 74 -23 309 -6 309 6 0 205 -130 443 -288 849 -567 963 -635 979 -589 9 23
-4 37 -121 131 -150 120 -211 189 -266 301 -63 127 -83 248 -66 397 6 59 23
146 37 194 28 99 92 254 104 254 5 0 91 -53 192 -118 325 -210 359 -226 366
-175 3 17 -15 36 -75 84 -188 151 -272 266 -308 422 l-16 69 27 36 c15 21 49
62 74 92 80 94 77 94 -67 8 l-33 -20 0 30 c0 61 31 202 66 303 70 201 220 466
367 645 36 43 64 80 63 82 -2 1 -304 -189 -672 -422 -368 -234 -670 -421 -672
-417 -6 17 38 167 73 257 70 173 198 385 320 528 36 42 63 76 61 76 -3 0 -321
-182 -708 -403 -387 -222 -713 -409 -725 -415 l-21 -12 13 58 c51 217 203 505
379 716 59 70 72 88 64 85 -2 0 -325 -186 -719 -412z m466 157 c-113 -171
-218 -417 -250 -586 -21 -110 -21 -279 1 -366 22 -90 81 -215 133 -279 31 -39
37 -53 25 -53 -20 0 -1035 672 -1031 683 2 8 1160 676 1165 672 1 -1 -18 -33
-43 -71z m991 -36 c-110 -170 -198 -373 -236 -543 -14 -64 -29 -106 -41 -116
-16 -15 -17 -18 -4 -29 9 -7 15 -30 15 -55 l0 -43 -151 -86 c-84 -47 -155 -86
-158 -86 -4 0 -129 83 -279 184 l-272 184 583 335 c320 184 585 336 589 336 4
1 -17 -36 -46 -81z m870 -61 c-155 -251 -248 -497 -264 -701 l-7 -89 -149 -85
-148 -85 -249 168 c-137 93 -248 172 -247 177 3 7 1116 718 1125 718 1 0 -26
-47 -61 -103z m-1507 -937 c-8 -5 -97 -56 -199 -114 l-185 -106 -31 36 c-50
59 -93 136 -121 216 -20 58 -26 99 -30 200 -3 70 -3 134 0 143 5 12 68 -25
293 -176 202 -135 283 -194 273 -199z m680 90 c110 -74 200 -137 201 -140 0
-3 -65 -43 -146 -89 l-145 -84 -17 23 c-48 64 -95 152 -113 210 -39 123 -36
246 6 222 8 -4 104 -68 214 -142z m-269 -95 c17 -54 73 -162 104 -204 24 -32
26 -51 6 -51 -7 0 -272 171 -289 186 -4 4 50 91 103 164 l40 55 11 -55 c6 -30
17 -73 25 -95z m-181 33 c-23 -35 -43 -65 -45 -67 -2 -2 -19 7 -39 19 l-37 23
74 43 c40 24 77 43 81 44 4 0 -11 -28 -34 -62z m957 -34 c-88 -143 -73 -133
-139 -89 -32 21 -55 40 -53 42 10 10 241 141 244 139 1 -2 -22 -43 -52 -92z
m78 -48 c11 -57 83 -190 134 -247 l47 -53 -40 24 c-22 13 -88 56 -147 95
l-107 71 45 77 c25 43 49 75 53 72 5 -2 12 -20 15 -39z m-1154 -2 c22 -15 40
-31 40 -36 0 -4 -20 -48 -44 -97 -98 -194 -148 -384 -149 -561 -1 -190 55
-348 172 -487 l61 -72 -73 46 c-192 122 -1017 675 -1017 681 0 4 101 65 225
136 l224 128 104 -65 c159 -100 204 -122 222 -107 8 7 15 19 15 26 0 8 -52 55
-115 106 -63 50 -115 94 -115 98 0 8 382 229 398 229 7 1 30 -11 52 -25z m903
-80 c38 -25 66 -51 64 -57 -101 -244 -134 -361 -143 -506 -14 -216 48 -400
186 -554 30 -34 48 -57 40 -52 -41 23 -720 471 -893 589 l-198 134 68 40 c217
126 371 212 380 212 5 0 31 -14 59 -32 230 -147 294 -178 307 -144 8 21 -8 39
-133 139 -62 51 -114 96 -114 102 -1 10 281 175 299 175 6 0 41 -21 78 -46z
m-655 -84 c56 -36 101 -68 99 -72 -3 -10 -419 -249 -424 -244 -12 12 94 289
143 374 l25 43 28 -18 c15 -10 73 -47 129 -83z m243 -87 c13 -15 12 -15 -8 -4
-24 12 -29 21 -14 21 5 0 15 -7 22 -17z"/>
</g>
</svg>
