<?xml version="1.0" standalone="yes"?>
<svg xmlns="http://www.w3.org/2000/svg" width="399" height="371">
<!-- <path style="fill:#ffffff; stroke:none;" d="M0 0L0 371L399 371L399 0L0 0z"/>
--><path style="fill:#000000; stroke:none;" d="M51 24C51 50.0245 49 75.9966 49 102C49 106.429 46.6955 125.071 53.0394 126.079C56.1259 126.569 57.2905 121.98 58.4128 119.999C61.7738 114.066 67.5339 109.354 73 105.428C94.4465 90.0246 120.525 77 147 77C152.722 77 165.879 74.5696 170.351 78.6034C174.218 82.0907 175.976 90.2039 177.657 95C183.214 110.856 185 123.225 185 140L185 290L142 290C135.561 290 127.037 291.445 121 288.914C95.4879 278.219 76.8313 251.936 51 242C51 268.351 49 294.659 49 321C49 328.373 45.8987 344.213 56 345C59.3378 330.954 73.3539 322.236 85 315.204C96.4635 308.282 110.72 299.035 124 296.379C142.88 292.602 165.73 296 185 296L185 341L191 341L191 296L300 296L300 341L306 341L306 187L306 140L306.51 117L323.576 91L364 31L270 28L248 28.831L240.466 32.0401L253 41.3295L277 72L214 72L235 29C210.876 27.096 186.212 26 162 26C157.818 26 140.838 24.0864 139.921 30.0934C139.376 33.6636 147.755 37.7683 149.96 40.0154C158.767 48.9899 162.771 61.3284 169 72C156.989 72 138.123 75.5777 127 70.9143C108.304 63.0761 89.9991 47.7525 73 36.6559C66.2541 32.2523 58.9075 25.8582 51 24z"/>
<path style="fill:#ffffff; stroke:none;" d="M152 32L167.752 56L175.649 70.9722L189 72L205.61 71.3966L211.861 62L226 34L152 32M57 34L55 112C75.5108 97.5654 94.7815 83.2438 119 75L119 73L57 34M255 34L255 35C277.172 51.8935 292.102 83.4868 302 109L304 109L353 36L255 34M277 73L277 77L230 77C224.785 77 215.836 75.3005 211.213 78.0278C206.74 80.6666 204.471 88.5515 202.247 93C194.542 108.408 191 117.677 191 135L191 290L300 290L300 155C300 127.086 298.594 94.3636 277 73M178 77L188 107L189 107L204 77L178 77M57 253L55 330C73.6462 316.867 91.3678 300.52 114 294L96 279.656L57 253z"/>
</svg>
