<?xml version="1.0" standalone="yes"?>
<svg xmlns="http://www.w3.org/2000/svg" width="411" height="371">
<!-- <path style="fill:#ffffff; stroke:none;" d="M0 0L0 371L411 371L411 0L0 0z"/>
--><path style="fill:#000000; stroke:none;" d="M251 37L219.285 69L198.7 90.9722L170 92L137 91.49L114 77.6559L61 44C57.7017 70.0979 61.7988 96.9814 58.4244 123C57.9185 126.9 57.1714 145.906 62.0401 146.534C65.9801 147.042 68.0768 139.502 69.9282 137.015C75.4658 129.574 84.1708 124.488 92 119.8C105.424 111.762 122.51 101.476 138 98.3789C149.239 96.1313 162.545 98 174 98C184.622 98 197.546 95.9573 207 101.815C220.803 110.367 238.177 132.034 242.502 148C245.705 159.829 243 175.75 243 188L243 272L168 272L133 271.301L115 260.424L57 224C55.8832 250.012 55 275.9 55 302C55 306.536 52.4613 324.252 57.3897 326.338C61.5885 328.115 64.5488 318.406 66.4792 316.004C74.378 306.174 87.1613 299.869 98 293.861C108.477 288.054 122.125 280.396 134 278.329C158.51 274.062 187.098 278 212 278L212 279L203 280C209.77 297.862 226.018 315.485 237.14 331C239.309 334.025 246.439 347.093 251.394 343.762C254.111 341.935 251.929 337.415 251.553 335C250.61 328.938 253.002 321.767 254.721 316C261.016 294.879 269.823 277.963 286 263.086C308.459 242.432 331.099 221.877 354 201.715C359.519 196.855 377.179 185.444 378.079 178C378.916 171.071 359.894 161.28 355 157.626C338.348 145.19 321.625 132.841 305 120.373C300.512 117.008 288.956 111.31 287.192 105.826C285.937 101.924 292.428 96.4327 294 93C288.023 93 275.483 95.3921 270.43 91.9722C266.67 89.4272 265.776 81.0985 264.576 77C261.237 65.5985 258.839 45.8941 251 37z"/>
<path style="fill:#ffffff; stroke:none;" d="M213 86L263 92L250 49C237.132 55.0007 220.505 74.0022 213 86M66 55L64 133L88 115.011L128 95L128 94C108.978 81.1677 87.4454 63.1165 66 55M214 98L245 139L247 139L275 107C263.149 91.5519 231.422 98 214 98M277 99L277 100L281 100L277 99M280 110C270.668 119.41 253.479 133.598 248.742 146C244.826 156.254 248 173.053 248 184L248 272L266 271.4L291 250.17L342 204.089L371 177L280 110M62 234L60 313C81.2524 298.029 100.329 284.572 125 275L125 274L62 234M213 284L245 332L246 332C246.163 312.328 257.991 296.314 263 278L213 284z"/>
</svg>
