<?xml version="1.0" standalone="no"?>
<!DOCTYPE svg PUBLIC "-//W3C//DTD SVG 20010904//EN"
 "http://www.w3.org/TR/2001/REC-SVG-20010904/DTD/svg10.dtd">
<svg version="1.0" xmlns="http://www.w3.org/2000/svg"
 width="242.000000pt" height="371.000000pt" viewBox="0 0 242.000000 371.000000"
 preserveAspectRatio="xMidYMid meet">
<metadata>
Created by potrace 1.16, written by Peter Selinger 2001-2019
</metadata>
<g transform="translate(0.000000,371.000000) scale(0.100000,-0.100000)"
fill="#000000" stroke="none">
<path d="M1120 3440 c-25 -3 -200 -4 -390 -2 -283 3 -348 2 -363 -10 -26 -20
-12 -45 31 -53 96 -17 235 -155 371 -364 l41 -64 0 -478 0 -478 -220 -3 c-140
-2 -223 -7 -230 -14 -17 -17 -1 -42 33 -50 107 -23 258 -171 386 -380 l31 -51
0 -602 0 -601 25 0 25 0 0 601 0 601 142 147 c78 80 161 166 185 191 l45 45
75 -80 c41 -44 108 -130 149 -191 l74 -111 0 -602 0 -602 23 3 22 3 5 607 5
607 227 234 227 234 -142 6 c-78 4 -186 7 -239 7 l-98 0 0 473 0 472 238 245
237 245 -75 6 c-109 10 -787 17 -840 9z m33 -72 c15 -6 27 -12 27 -15 0 -7
-333 -353 -340 -353 -3 0 -14 15 -24 33 -43 74 -159 218 -231 286 l-76 72 308
-6 c173 -4 320 -11 336 -17z m691 16 l76 -7 -177 -181 c-98 -100 -181 -182
-184 -184 -4 -2 -36 38 -70 89 -35 51 -99 130 -142 176 -110 116 -115 113 183
113 130 0 271 -3 314 -6z m-536 -139 c39 -42 101 -120 137 -174 l66 -97 -1
-489 c0 -269 -2 -490 -3 -491 -1 0 -147 -4 -324 -8 l-323 -6 0 481 0 481 182
189 c100 104 185 189 189 189 4 0 39 -34 77 -75z m-183 -1321 c69 -10 67 -13
-109 -198 -93 -97 -171 -176 -175 -176 -3 0 -33 42 -66 92 -34 52 -104 136
-160 193 l-100 102 290 -4 c160 -2 304 -6 320 -9z m667 9 l127 -6 -182 -189
c-152 -156 -184 -185 -192 -172 -45 74 -143 201 -204 266 -101 108 -101 108
138 108 102 0 243 -3 313 -7z"/>
</g>
</svg>
