<?xml version="1.0" standalone="no"?>
<!DOCTYPE svg PUBLIC "-//W3C//DTD SVG 20010904//EN"
 "http://www.w3.org/TR/2001/REC-SVG-20010904/DTD/svg10.dtd">
<svg version="1.0" xmlns="http://www.w3.org/2000/svg"
 width="615.000000pt" height="371.000000pt" viewBox="0 0 615.000000 371.000000"
 preserveAspectRatio="xMidYMid meet">
<metadata>
Created by potrace 1.16, written by Peter Selinger 2001-2019
</metadata>
<g transform="translate(0.000000,371.000000) scale(0.100000,-0.100000)"
fill="#000000" stroke="none">
<path d="M4521 3284 c-211 -147 -260 -183 -306 -226 -31 -29 -175 -132 -580
-414 -402 -280 -570 -400 -583 -416 -7 -9 -10 -23 -6 -32 5 -13 15 -15 54 -10
74 10 162 -23 342 -129 l88 -51 167 -248 c92 -136 165 -249 162 -252 -2 -2
-46 -29 -96 -59 l-93 -55 -455 -7 c-250 -4 -455 -10 -455 -14 0 -3 67 -78 149
-166 82 -87 149 -162 148 -166 -5 -20 666 -709 690 -709 6 0 16 7 24 16 10 13
10 20 -4 44 -48 80 10 261 164 510 66 108 82 125 157 166 51 28 54 28 67 11 9
-13 20 -17 34 -12 22 7 28 29 10 40 -5 4 -9 11 -7 16 6 19 383 236 390 225 7
-11 51 21 44 33 -2 3 196 125 440 270 244 145 444 267 444 271 0 3 -6 14 -12
23 -12 15 -39 1 -263 -133 -137 -83 -256 -149 -262 -148 -7 2 -60 72 -118 157
-95 139 -103 155 -87 166 86 58 366 215 371 208 3 -5 50 -75 105 -155 89 -132
100 -145 117 -135 11 7 19 15 19 19 0 4 -45 74 -100 155 -91 133 -99 148 -85
163 23 25 9 50 -26 47 -27 -2 -39 14 -229 293 l-200 295 0 121 c0 166 -12 424
-19 424 -3 0 -93 -61 -200 -136z m168 -292 l1 -83 -42 26 c-77 47 -202 108
-256 125 -29 9 -53 20 -54 25 0 4 76 61 168 126 l169 118 6 -127 c4 -70 7
-164 8 -210z m-400 -250 c1 -68 -2 -122 -6 -120 -5 2 -48 25 -98 53 -49 27
-114 59 -145 72 -50 20 -55 25 -55 52 0 27 13 39 145 131 l145 100 7 -82 c3
-46 6 -138 7 -206z m143 249 c36 -16 113 -56 170 -90 l103 -62 195 -291 c107
-159 195 -294 195 -299 0 -11 -366 -229 -375 -224 -4 2 -91 129 -193 282
l-187 278 -2 218 c-3 187 -1 217 12 217 8 0 45 -13 82 -29z m-502 -446 l0
-185 -42 27 c-71 44 -240 123 -281 129 -48 8 -46 11 106 116 135 94 138 96
185 97 l32 1 0 -185z m143 130 c40 -19 108 -56 151 -82 l79 -48 183 -270 c101
-148 183 -274 183 -280 0 -5 -73 -53 -163 -106 l-163 -96 -174 258 -174 259
-6 67 c-11 116 -10 333 1 333 6 0 43 -16 83 -35z m-560 -342 c4 -75 7 -164 7
-199 l0 -63 -92 55 c-51 29 -133 68 -181 85 -55 20 -84 36 -79 41 28 28 306
214 321 215 16 1 19 -12 24 -134z m170 102 c45 -20 124 -61 175 -93 l92 -57
175 -259 175 -260 -191 -113 c-105 -62 -194 -113 -198 -113 -3 1 -81 112 -172
248 l-167 247 -4 218 c-5 253 -14 238 115 182z m1146 -669 c51 -76 89 -142 84
-146 -29 -26 -316 -189 -324 -184 -12 7 -209 301 -209 311 0 5 73 51 162 104
161 96 162 96 179 75 9 -12 57 -83 108 -160z m-394 -200 c58 -85 105 -158 105
-163 -1 -8 -380 -237 -384 -231 -61 81 -217 323 -210 325 5 2 90 53 189 112
99 60 183 110 187 110 4 1 55 -68 113 -153z m-437 -253 c54 -82 102 -153 105
-160 5 -8 -18 -27 -64 -54 l-71 -43 -220 -4 -220 -5 35 69 c19 38 60 107 90
153 51 78 62 89 144 138 48 29 91 53 95 53 4 0 52 -66 106 -147z m-368 22 c0
-2 -15 -28 -34 -57 -18 -29 -54 -92 -80 -139 l-46 -86 -98 -6 c-53 -4 -128 -7
-167 -7 l-70 0 -134 143 -135 142 245 5 c413 9 519 10 519 5z m284 -362 c-110
-165 -202 -371 -211 -476 l-6 -59 -113 113 c-86 85 -112 118 -108 132 3 10 -2
34 -11 54 -21 43 -16 105 16 200 l21 63 215 0 215 0 -18 -27z m-474 8 c0 -5
-7 -28 -16 -52 -8 -24 -18 -68 -22 -97 l-7 -52 -105 105 -105 105 128 0 c70 0
127 -4 127 -9z"/>
<path d="M973 3399 c-42 -16 -28 -46 30 -65 73 -24 190 -144 277 -284 71 -116
190 -347 239 -463 l31 -76 0 -315 0 -316 -92 0 -93 0 -374 240 c-206 132 -375
239 -377 238 -5 -6 -24 -676 -23 -818 1 -165 6 -194 35 -198 17 -2 25 7 39 44
10 26 38 67 61 91 84 83 302 208 546 312 90 38 104 41 187 41 l91 0 0 -771 0
-770 23 3 22 3 3 768 2 767 420 0 420 0 2 -767 3 -768 23 -3 22 -3 0 770 0
771 415 0 415 0 0 25 0 25 -415 0 -415 0 0 325 0 325 291 426 c160 234 290
426 288 428 -21 19 -2049 34 -2096 15z m657 -48 c218 -6 260 -10 290 -26 46
-24 100 -65 100 -76 0 -5 -100 -156 -222 -334 l-222 -324 -86 177 c-133 273
-234 429 -349 540 l-55 52 144 -1 c80 0 260 -4 400 -8z m1187 -10 l161 -6
-255 -373 -255 -374 -38 84 c-86 193 -207 408 -294 522 l-44 59 35 54 36 53
246 -6 c135 -4 319 -9 408 -13z m-737 -8 c0 -5 -6 -15 -13 -24 -11 -15 -15
-15 -40 7 l-28 24 40 0 c23 0 41 -3 41 -7z m63 -239 c37 -54 118 -200 180
-323 l112 -224 3 -334 3 -333 -421 0 -420 0 0 328 0 327 228 332 c125 183 232
331 237 330 6 -2 40 -48 78 -103z m-1148 -1037 c154 -99 286 -184 293 -189 9
-8 -18 -24 -98 -59 -217 -94 -394 -198 -494 -290 l-59 -53 7 234 c3 129 9 311
12 403 l7 168 26 -18 c14 -9 152 -97 306 -196z"/>
</g>
</svg>
