<?xml version="1.0" standalone="no"?>
<!DOCTYPE svg PUBLIC "-//W3C//DTD SVG 20010904//EN"
 "http://www.w3.org/TR/2001/REC-SVG-20010904/DTD/svg10.dtd">
<svg version="1.0" xmlns="http://www.w3.org/2000/svg"
 width="596.000000pt" height="371.000000pt" viewBox="0 0 596.000000 371.000000"
 preserveAspectRatio="xMidYMid meet">
<metadata>
Created by potrace 1.16, written by Peter Selinger 2001-2019
</metadata>
<g transform="translate(0.000000,371.000000) scale(0.100000,-0.100000)"
fill="#000000" stroke="none">
<path d="M2246 3269 l-168 -130 -39 25 c-21 14 -41 26 -44 26 -3 0 -5 -27 -5
-59 l0 -59 -882 -673 c-486 -370 -885 -674 -887 -676 -6 -4 -28 11 409 -291
643 -447 1189 -808 1315 -869 52 -26 56 -26 73 -10 16 17 16 20 0 46 -15 27
-15 29 2 34 10 3 21 18 25 37 15 68 164 184 371 289 l101 51 621 0 622 0 0
-164 c0 -90 3 -171 6 -180 12 -32 41 -17 58 29 32 82 168 186 383 294 l83 41
645 0 645 0 0 25 0 25 -650 0 -651 0 -182 137 c-100 75 -184 138 -186 140 -11
8 141 108 258 169 l94 49 656 5 656 5 0 25 0 25 -649 3 -648 2 -205 151 -204
152 33 34 c45 47 172 131 292 192 l99 51 649 0 648 0 0 25 0 25 -648 0 -647 0
-187 138 c-103 75 -187 140 -188 144 0 13 183 128 283 179 l99 49 644 0 644 0
0 25 0 25 -652 0 -651 0 -247 185 c-136 102 -249 185 -252 185 -3 0 -9 -85
-13 -190 l-7 -190 -634 0 -635 0 -160 120 c-104 79 -157 125 -152 133 20 34
114 162 175 240 38 48 65 87 61 86 -5 0 -84 -59 -177 -130z m-92 -154 c-9 -14
-21 -22 -27 -18 -6 4 -1 13 12 25 31 24 35 23 15 -7z m1881 -160 c107 -80 195
-147 195 -149 0 -2 -37 -22 -82 -46 -89 -46 -240 -143 -259 -166 -9 -12 -16
-11 -40 7 -29 20 -29 22 -29 117 0 112 12 382 16 382 2 0 91 -65 199 -145z
m-1937 103 c7 -9 0 -27 -24 -63 l-34 -50 0 52 c0 39 4 55 18 62 23 14 28 13
40 -1z m202 -153 c77 -58 140 -107 140 -110 0 -2 -44 -27 -97 -55 -54 -28
-134 -77 -179 -109 l-81 -58 -26 22 c-26 20 -27 24 -27 126 0 103 1 106 36
165 20 32 45 74 56 92 11 17 24 32 29 32 5 0 73 -47 149 -105z m-316 18 c-6
-72 -11 -87 -69 -188 -227 -400 -376 -797 -415 -1109 -17 -136 -9 -338 19
-446 46 -177 148 -337 289 -455 122 -100 101 -89 -183 94 -374 243 -1316 891
-1312 903 3 10 1659 1276 1670 1277 4 1 5 -34 1 -76z m1786 -408 l0 -255 -633
0 -634 0 -187 141 -187 140 38 31 c48 38 200 128 284 168 l64 30 628 0 627 0
0 -255z m-1787 -828 c2 -928 0 -1044 -13 -1033 -87 72 -204 181 -243 226 -60
69 -140 232 -162 330 -54 237 -17 542 109 895 44 121 293 642 303 632 2 -3 5
-475 6 -1050z m2081 691 c91 -68 165 -125 166 -129 0 -3 -21 -15 -47 -28 -95
-45 -209 -117 -285 -178 l-78 -63 1 183 c0 100 4 207 8 238 7 62 35 113 56
105 8 -3 88 -60 179 -128z m-1793 -8 c90 -67 165 -125 167 -129 1 -4 -28 -22
-65 -40 -88 -43 -247 -147 -297 -194 -21 -20 -41 -37 -44 -37 -3 0 -2 104 1
231 6 212 8 233 28 265 12 20 27 33 34 30 7 -2 86 -59 176 -126z m1499 -308
c0 -82 -3 -217 -7 -300 l-6 -152 -625 0 -625 0 -215 161 -214 161 28 30 c48
50 150 118 277 184 l122 63 633 1 632 0 0 -148z m294 -327 c114 -86 155 -122
145 -128 -8 -4 -58 -32 -112 -62 -54 -29 -129 -76 -166 -103 l-68 -50 -28 22
-28 23 6 205 c4 113 11 218 17 233 l10 27 33 -24 c17 -14 103 -78 191 -143z
m-1814 4 c104 -78 190 -144 190 -148 0 -3 -43 -28 -95 -54 -52 -27 -132 -75
-177 -107 -61 -44 -86 -56 -98 -50 -41 22 -42 30 -34 269 4 127 11 231 15 231
5 0 94 -64 199 -141z m1510 -429 l0 -250 -630 0 -629 0 -185 137 c-102 75
-182 141 -180 145 11 17 157 110 256 163 l103 55 633 0 632 0 0 -250z m288
-121 l174 -131 -106 -59 c-134 -74 -209 -125 -265 -179 l-44 -42 5 234 c4 222
5 236 27 271 12 20 25 37 28 37 4 0 85 -59 181 -131z m-1770 -28 c89 -67 162
-124 162 -126 0 -3 -28 -19 -62 -36 -106 -53 -235 -137 -294 -192 l-57 -52 7
234 c4 135 11 242 18 255 19 37 40 56 52 47 6 -4 84 -63 174 -130z"/>
</g>
</svg>
