<?xml version="1.0" standalone="yes"?>
<svg xmlns="http://www.w3.org/2000/svg" width="602" height="371">
<path style="fill:#ffffff; stroke:none;" d="M0 0L0 371L602 371L602 0L0 0z"/>
<path style="fill:#000000; stroke:none;" d="M171 33C171 52.3327 169.007 71.6893 169 91C168.998 97.0193 171.376 109.592 167.397 114.471C161.685 121.476 149.606 126.229 142 131.053L84 167.947C75.7469 173.181 60.5601 179.201 56 188C82.0061 205.547 107.894 223.262 134 240.667C144.137 247.425 160.785 254.032 168.397 263.518C171.542 267.438 169.396 273.518 169.09 278C168.32 289.235 169 300.739 169 312C169 316.016 167.416 325.366 171.495 327.914C174.916 330.049 183.097 315.248 186.015 312.755C201.956 299.131 222.602 289.788 242 282.204C255.427 276.955 273.732 280 288 280L383 280C396.54 280 419.68 275.553 432 281.278C451.258 290.226 468.79 305.742 487 316.797C490.85 319.134 502.976 328.884 507.377 324.381C512.462 319.179 496.315 307.724 493 304.87C472.031 286.814 460.011 264.014 460 236C459.98 183.233 487.83 130.28 515.692 87C525.705 71.4459 541.877 55.8271 549 39L523 57.5756L482 88.8704L327 207L327 209L395 255.67L422 273L422 274L303 274C286.477 274 263.857 278.056 248 273.49C240.993 271.472 234.063 265.302 228 261.344C210.796 250.114 190.538 232.226 171 226L170 249C131.437 209.62 158.642 135.003 201 109.45C214.656 101.212 232.212 90.537 248 87.3789C271.154 82.7472 299.359 87 323 87L443 87L443 81L307 81L267 81C260.805 81 252.934 82.274 247 80.2979C219.257 71.0591 198.381 43.3779 171 33z"/>
<path style="fill:#ffffff; stroke:none;" d="M176 44L175 110L202 94L193 107L239 84L205 61.3079L176 44M519 68L433 133.884L337 207L337 208C359.405 224.047 382.311 239.388 405 255.025C416.916 263.238 428.007 273.998 443 274C443.099 282.364 448.547 284.7 455 289C466.255 296.5 477.769 305.215 490 311L490 310C428.587 263.249 459.186 178.326 488.258 122C494.943 109.049 502.377 96.2054 510.344 84C513.201 79.6235 519.462 73.3705 519 68M177 116L175 120L176 120L177 116M168 122L67 186L67 188L163 252C146.192 225.01 141.342 202.134 150.721 171C153.937 160.326 158.587 149.845 163.781 140C166.798 134.282 170.766 128.595 168 122M176 237C176 242.305 174.553 250.157 177.028 254.985C179.734 260.265 186.148 262.404 189.458 267.165C194.28 274.104 183.994 271.648 181.005 269.999C179.017 268.903 177.083 267.898 175 267L175 314C195.805 299.358 214.952 286.33 239 277C228.641 264.825 208.571 256.073 195 247.576C188.928 243.773 183.085 238.625 176 237z"/>
</svg>
