<?xml version="1.0" standalone="no"?>
<!DOCTYPE svg PUBLIC "-//W3C//DTD SVG 20010904//EN"
 "http://www.w3.org/TR/2001/REC-SVG-20010904/DTD/svg10.dtd">
<svg version="1.0" xmlns="http://www.w3.org/2000/svg"
 width="560.000000pt" height="371.000000pt" viewBox="0 0 560.000000 371.000000"
 preserveAspectRatio="xMidYMid meet">
<metadata>
Created by potrace 1.16, written by Peter Selinger 2001-2019
</metadata>
<g transform="translate(0.000000,371.000000) scale(0.100000,-0.100000)"
fill="#000000" stroke="none">
<path d="M717 3320 c-15 -334 -19 -815 -8 -842 18 -46 43 -35 74 32 22 48 41
70 99 115 40 31 84 63 99 70 l26 14 -3 -801 c-2 -441 -6 -803 -8 -805 -2 -3
-63 37 -136 87 -72 51 -133 90 -135 88 -6 -6 -25 -610 -25 -800 0 -173 8 -222
36 -216 18 3 25 14 45 67 31 84 196 203 464 337 l169 84 898 0 898 0 0 -220 0
-220 25 0 25 0 0 1121 0 1121 47 68 47 68 295 -198 c351 -233 586 -386 664
-430 47 -26 60 -30 72 -20 8 7 15 19 15 26 0 8 -42 47 -94 88 -150 120 -215
211 -246 345 -34 147 17 384 123 570 l25 43 51 -83 c55 -89 169 -310 217 -419
l29 -65 5 -1125 5 -1125 25 0 25 0 3 1123 2 1122 285 416 c157 228 285 419
285 423 0 15 -1086 40 -1172 27 -78 -12 -74 -51 8 -74 23 -7 62 -31 88 -53 39
-34 45 -44 34 -54 -11 -10 -502 -290 -586 -334 -21 -11 -23 -11 -13 6 5 10 84
126 175 258 l164 240 -106 8 c-59 4 -333 8 -610 10 -423 2 -504 0 -511 -12
-15 -24 -1 -40 43 -52 114 -30 257 -210 416 -523 127 -250 140 -288 140 -400
l0 -96 -790 0 -791 0 -232 167 c-128 92 -256 185 -286 206 l-54 40 99 50 c54
27 150 72 212 98 l114 49 744 0 744 0 0 25 0 25 -748 0 -749 0 -339 218 c-186
119 -355 227 -375 240 l-36 22 -6 -150z m418 -174 c143 -92 264 -171 268 -175
4 -4 -14 -16 -40 -26 -93 -34 -329 -155 -418 -213 -49 -32 -114 -81 -144 -107
l-54 -49 7 239 c3 132 9 313 12 402 l7 161 51 -33 c28 -18 168 -108 311 -199z
m2523 205 l83 -6 -180 -265 c-123 -179 -192 -270 -214 -284 -17 -10 -43 -26
-56 -34 l-24 -15 21 -16 22 -16 -36 -53 c-20 -30 -37 -52 -39 -50 -2 2 -49 93
-104 203 -118 237 -219 393 -314 489 l-70 69 414 -8 c228 -4 451 -10 497 -14z
m672 5 c0 -3 -38 -26 -85 -51 l-86 -47 -52 48 c-29 26 -54 49 -56 51 -2 2 59
3 137 3 78 0 142 -2 142 -4z m425 -11 c159 -4 291 -8 293 -9 1 -2 -112 -170
-252 -375 l-254 -371 -33 72 c-54 119 -155 312 -215 409 l-56 90 37 56 c20 30
55 75 77 99 36 39 44 43 77 39 20 -2 166 -7 326 -10z m-628 -272 c-89 -172
-127 -308 -127 -452 0 -144 36 -256 114 -356 l31 -40 -30 19 c-199 126 -725
483 -725 492 0 22 46 51 398 250 416 236 416 236 339 87z m-2798 -590 l248
-178 -120 -62 c-157 -83 -277 -162 -350 -231 l-60 -57 7 259 c3 143 6 301 6
353 0 60 4 93 11 93 6 0 122 -80 258 -177z m1881 -588 l0 -375 -791 0 -790 0
-269 193 c-148 105 -269 197 -270 203 0 18 106 112 185 163 39 25 133 78 210
118 l140 72 793 1 792 0 0 -375z m-1884 -221 c134 -96 244 -178 243 -182 0 -4
-50 -32 -111 -62 -145 -72 -275 -157 -351 -228 l-60 -57 7 259 c3 143 6 301 6
353 0 59 4 93 11 93 5 0 120 -79 255 -176z m1884 -544 l0 -330 -893 0 -893 0
-174 121 c-96 66 -177 125 -179 130 -7 22 24 72 75 118 77 70 177 135 341 218
l143 73 790 0 790 0 0 -330z m-2117 -164 c141 -98 257 -181 257 -185 0 -5 -37
-25 -82 -45 -189 -85 -422 -235 -489 -314 l-31 -37 6 260 c4 143 9 324 12 403
l6 143 32 -24 c17 -13 147 -103 289 -201z"/>
<path d="M3842 1313 c-465 -264 -571 -328 -560 -338 21 -21 754 -507 919 -610
152 -95 184 -108 196 -80 7 20 -14 43 -112 122 -44 35 -97 85 -118 111 -154
186 -157 444 -7 742 44 88 132 223 189 290 57 68 75 90 70 89 -2 0 -262 -147
-577 -326z m327 71 c-121 -198 -176 -384 -167 -567 6 -119 34 -206 92 -287 21
-29 36 -53 34 -55 -4 -4 -752 492 -755 502 -3 8 829 484 835 479 1 -2 -16 -34
-39 -72z"/>
</g>
</svg>
