<?xml version="1.0" standalone="yes"?>
<svg xmlns="http://www.w3.org/2000/svg" width="485" height="371">
<!-- <path style="fill:#ffffff; stroke:none;" d="M0 0L0 371L485 371L485 0L0 0z"/>
--><path style="fill:#000000; stroke:none;" d="M54 84C54 107.352 52.009 130.689 52 154C51.9896 180.901 53.9342 207.063 52.0895 234C51.2752 245.891 51.9808 258.081 52 270C52.005 273.086 51.2449 280.085 55.2346 281.248C59.2006 282.405 60.8976 275.296 62.5687 273C68.3763 265.019 77.5674 259.151 86 254.284C99.3019 246.607 115.795 236.42 131 233.379C148.045 229.969 168.607 233 186 233C194.201 233 216.65 229.112 221 237C228.933 236.387 234.333 223.077 241 218.156C257.461 206.005 278.365 194.9 298 188.904C310.319 185.143 327.155 188 340 188L428 188L428 182L339 182C326.588 182 309.93 184.925 298 181.49C284.869 177.709 271.587 165.007 260 157.808C249.67 151.39 228.849 142.69 223 132L159 132C150.24 132 138.353 134.082 130 131.298C102.28 122.058 81.4099 94.3739 54 84z"/>
<path style="fill:#ffffff; stroke:none;" d="M60 95L58 173L59 173C74.5455 153.473 100.835 146.284 122 135L122 134C102.87 121.341 81.4065 103.114 60 95M60 183L108 213.344L129 226.298L158 227L220 227L222 138L161 138C151.159 138 139.621 136.355 130 138.529C117.714 141.305 105.011 148.762 94 154.692C81.9576 161.178 64.4686 169.006 60 183M227 145L226 223L227 223C241.391 202.992 269.627 196.594 290 185L254 161.308L227 145M60 190L58.9606 217L58 267C78.9467 252.303 98.817 240.972 122 230L99 214.308L60 190z"/>
</svg>
