<?xml version="1.0" standalone="yes"?>
<svg xmlns="http://www.w3.org/2000/svg" width="529" height="371">
<path style="fill:#ffffff; stroke:none;" d="M0 0L0 371L529 371L529 0L0 0z"/>
<path style="fill:#000000; stroke:none;" d="M396 29C396.592 36.6219 407.685 40.8807 412.239 47C421.922 60.0104 428.61 76.0247 434.6 91C447.188 122.468 442 159.457 442 193L356 193C356 178.758 352.301 158.547 356.699 145C363.86 122.943 382.992 105.147 390 83L254 81L222 81L211.752 83.4151L216.965 89.8349L229.247 107L244.674 145L245 174L212 155C208.329 174.776 210 196.892 210 217C210 220.681 207.897 234.86 213.174 235.534C216.975 236.02 219.173 229.675 221.329 227.428C227.996 220.482 236.84 216.763 245 212L245 300L251 300L251 235C251 228.676 248.553 215.829 252.028 210.39C254.164 207.047 259.53 205.788 263 204.4C274.174 199.93 282.993 198 295 198L295 300L301 300L301 198L351 198L351 301L356 301L356 198L442 198L442 303L294 303C271.766 303 244.72 307.229 223 302.61C188.248 295.221 157.639 270.209 123 262L121 295C114.683 289.182 108.08 283.97 104.327 276C94.3314 254.772 106.381 227.59 117.001 209C121.674 200.82 127.216 188.185 136 184L143 171L134 177L133 177C126.811 168.396 117.884 163.539 114.09 153C100.479 115.186 137.244 80.1271 154 51C143.951 54.2076 134.553 63.1963 126 69.2909C108.73 81.5972 91.4337 93.9022 74 105.975C65.5532 111.825 50.708 118.729 46 128L99 164L127 181L127 182C118.329 185.288 110.526 192.347 103 197.709C88.7212 207.884 74.4141 218.043 60 228.025C52.295 233.361 39.2978 239.537 35 248C54.3657 261.067 73.5579 274.372 93 287.333C100.762 292.508 113.409 297.547 119.397 304.61C122.077 307.771 120.519 312.33 120.17 316C119.451 323.557 119.964 331.412 120.001 339C120.016 342.248 119.457 349.846 123.296 351.338C126.823 352.709 128.754 348.247 130.553 346.169C134.895 341.154 141.167 338.145 147 335.248C170.59 323.528 199.027 314.053 225 309.464C252.338 304.633 284.216 309 312 309L488 309L488 303L448 303L448 169C448 150.613 443.565 125.654 448.638 108C456.709 79.9119 483.737 58.0913 492 30C460.817 30 426.916 23.2607 396 29z"/>
<path style="fill:#ffffff; stroke:none;" d="M410 34L445 100L466.85 63L482 35L410 34M128 75L56 126L74 139.72L113 165C102.464 141.707 106.427 120.963 116.424 98C119.539 90.8462 127.233 82.6577 128 75M223 86C233.686 101.643 241.177 117.314 248 135C255.968 126.49 261.095 113.228 266.694 103C268.721 99.299 271.873 95.0552 268.664 91.1335C265.241 86.9525 259.908 87.0079 255 87C244.279 86.9828 233.701 86 223 86M298 135C307.785 123.312 317.787 104.326 323 90C313.001 85.3513 301.761 87.2268 291 86.9854C286.318 86.8803 280.953 85.9117 279.785 92.0046C278.873 96.7657 283.603 102.042 285.68 106C290.569 115.318 293.733 125.419 298 135M331 88L353 135L355 135L380 89C366.824 86.554 343.813 84.2126 331 88M327 95C320.134 110.935 306.627 125.403 301.649 142C297.246 156.678 301 177.672 301 193L351 193L350.674 146L339.306 116L327 95M275 100C263.236 119.221 251 137.202 251 160C251 164.661 249.331 173.378 252.028 177.39C255.946 183.219 269.582 189.099 276 191.786C281.647 194.15 288.985 193 295 193C295 162.358 297.96 124.524 275 100M217 165L215 224C221.377 219.64 227.244 214.996 234 211.15C236.874 209.514 241.979 207.995 243.972 205.301C245.861 202.748 245 197.981 245 195C245 191.012 246.124 184.878 243.972 181.329C239.786 174.424 224.215 168.369 217 165M251 185L251 202L269 196C265.607 190.804 256.825 186.843 251 185M117 195L45 246L65 261.025L102 285C91.476 261.733 95.4469 240.917 105.424 218C108.544 210.835 116.102 202.632 117 195M128 270L126 341C153.316 323.006 182.921 317.348 213 306L185 293.719L128 270z"/>
</svg>
