<?xml version="1.0" standalone="no"?>
<!DOCTYPE svg PUBLIC "-//W3C//DTD SVG 20010904//EN"
 "http://www.w3.org/TR/2001/REC-SVG-20010904/DTD/svg10.dtd">
<svg version="1.0" xmlns="http://www.w3.org/2000/svg"
 width="507.000000pt" height="371.000000pt" viewBox="0 0 507.000000 371.000000"
 preserveAspectRatio="xMidYMid meet">
<metadata>
Created by potrace 1.16, written by Peter Selinger 2001-2019
</metadata>
<g transform="translate(0.000000,371.000000) scale(0.100000,-0.100000)"
fill="#000000" stroke="none">
<path d="M3845 2375 l-700 -445 -880 0 -880 0 -355 280 -355 281 -6 -78 c-14
-162 -22 -1047 -10 -1076 16 -42 43 -31 61 24 8 24 25 61 38 82 59 93 273 252
503 371 l126 66 866 0 867 0 337 -229 c358 -242 752 -500 869 -569 74 -44 111
-52 121 -27 7 21 -13 42 -130 137 -196 162 -267 305 -267 543 0 177 41 330
144 542 92 189 220 383 344 526 8 9 13 17 11 17 -2 0 -319 -200 -704 -445z
m469 218 c-154 -235 -254 -457 -300 -669 -25 -118 -23 -289 4 -387 29 -102 70
-181 132 -256 l51 -61 -118 76 c-65 42 -286 189 -490 327 -355 238 -372 251
-366 276 3 14 11 29 17 33 6 4 252 160 546 347 294 187 537 340 539 341 2 0
-5 -12 -15 -27z m-3151 -553 c86 -68 157 -127 157 -130 0 -3 -21 -16 -47 -29
-86 -41 -276 -158 -359 -219 -44 -33 -111 -93 -149 -133 l-68 -72 7 369 c3
203 9 413 12 466 l6 96 142 -112 c77 -61 212 -168 299 -236z"/>
</g>
</svg>
