<?xml version="1.0" standalone="yes"?>
<svg xmlns="http://www.w3.org/2000/svg" width="506" height="371">
<!-- <path style="fill:#ffffff; stroke:none;" d="M0 0L0 371L506 371L506 0L0 0z"/>
--><path style="fill:#000000; stroke:none;" d="M91 21C75.1982 49.3831 55.8688 76.0694 39.2006 104C36.3262 108.817 22.2864 127.795 27.0316 133.214C29.0242 135.489 32.2135 133.136 34 131.873C40.269 127.44 46.648 124.304 54 122.025C82.3248 113.249 114.498 110.331 144 109.039C154.849 108.564 166.145 107.011 177 108.174C200.107 110.649 223.318 119.538 246 124.576C297.159 135.938 348.12 148.818 399 161.374C420.591 166.703 443.841 175.19 466 177L466 178L336 208.651L256 227C265.932 213.173 282.816 197.241 288 181L170 180.957L126 181C126.568 188.125 138.217 193.936 142.572 200C152.948 214.448 158 227.391 158 245L45 216C50.6936 246.668 48.7229 280.787 50.9105 312C51.3064 317.649 50.4318 341.255 57.1836 343.029C60.3957 343.873 61.5957 340.275 62.4236 337.985C65.4429 329.632 71.587 323.065 78 317.09C100.596 296.034 129.951 275.111 158 262L158 337L163 337L163 280C163 274.475 160.836 263.048 164.603 258.61C172.185 249.678 193.128 248.244 204 246L204 337L210 337L210 244L251 235L251 337L256 337L256 263L257.028 235.303L272 230L313 220.374L417 196.116L483 181L483 175L411 157.884L274 124.873L210 109.424L177 101.012L152 78L114 41.9105L91 21z"/>
<path style="fill:#ffffff; stroke:none;" d="M92 31L36 122C78.7674 109.774 122.259 102.37 167 102C155.237 85.3014 136.45 72.3793 122 57.9992C113.308 49.349 103.149 36.1989 92 31M140 186L160 219C168.556 212.035 176.544 199.576 182 190C169.376 183.646 153.772 186 140 186M208 219C212.804 212.292 217.757 205.696 222.576 199C224.143 196.822 227.668 193.196 226.669 190.228C225.696 187.338 221.5 186.998 219 186.591C213.758 185.738 195.704 183.236 191.948 187.603C189.604 190.33 192.285 193.686 193.861 196C198.863 203.345 202.362 212.202 208 219M253 219C262.353 211.386 271.136 197.522 277 187C267.305 187 257.722 185.996 248 186C244.916 186.001 238.82 185.132 237.748 189.148C236.908 192.292 240.068 195.61 241.646 198C246.028 204.64 249.941 211.653 253 219M232 195C222.826 209.731 210 219.874 210 238L251 229C247.831 217.412 240.591 203.45 232 195M185 196L163.728 226L163 247C176.061 249.389 191.13 242.496 204 240C204 226.071 198.881 203.093 185 196M52 224L58 330L59 330C75.6451 305.606 103.235 288.186 128 272.808C135.537 268.128 156.432 260.141 158 251L52 224z"/>
</svg>
