<?xml version="1.0" standalone="yes"?>
<svg xmlns="http://www.w3.org/2000/svg" width="452" height="371">
<!-- <path style="fill:#ffffff; stroke:none;" d="M0 0L0 371L452 371L452 0L0 0z"/>
--><path style="fill:#000000; stroke:none;" d="M309 178C270.553 165.49 232.189 152.602 194 139.344C179.115 134.177 157.968 131.315 145.039 122.298C139.089 118.148 134.694 110.617 130.2 105C117.29 88.863 104.395 66.5472 88 54C77.2869 76.9023 69.3257 102.023 61.3333 126C59.6795 130.961 52.1243 145.654 56.0316 150.377C59.0401 154.014 69.5881 142.959 73 141.439C89.6942 134.003 109.891 131.359 128 130.09C150.1 128.541 170.3 137.941 191 145.308C216.144 154.257 241.68 162.227 267 170.667C280.532 175.177 294.884 181.915 309 184C309 189.18 310.919 199.146 307.972 203.581C305.103 207.9 295.657 208.82 291 210.14C275.632 214.496 260.36 219.194 245 223.579C218.95 231.014 193.05 238.986 167 246.421C157.229 249.21 144.186 255.802 134 255.185C105.306 253.447 77.4854 235.207 49 231C54.203 256.208 61.532 281.21 68.4244 306C69.817 311.009 72.2875 327.723 78.1551 329.168C81.896 330.09 84.7186 315.098 86.6991 312C97.5052 295.096 113.544 281.327 129 268.804C144.836 255.973 167.651 252.648 187 247.14C211.723 240.103 236.279 232.469 261 225.421C276.761 220.928 293.955 217.475 309 211L309 340L315 340L315 209C327.065 207.374 338.918 200.018 351 199.509C361.517 199.066 372.457 210.119 382.771 208.498C386.501 207.911 385.281 204.15 382.848 202.8C377.002 199.557 369.356 198.068 363 196C365.247 195.033 385.129 190.341 379.377 186.062C374.421 182.375 359.633 190.756 354 191.495C345.877 192.562 323.661 185.416 317.318 180.157C311.369 175.224 315 153.319 315 146C315 137.259 312.9 125.328 315.703 117C318.066 109.979 324.536 103.133 328.67 97C342.564 76.387 364.09 54.1646 373 31C342.474 27.1421 309.783 28 279 28C274.02 28 251.635 25.348 249.752 31.4144C248.396 35.7802 258.441 38.1178 261 39.939C271.068 47.1055 278.333 58.5552 284.6 69C293.276 83.4583 305.065 101.327 308.61 118C312.523 136.398 309 159.172 309 178z"/>
<path style="fill:#ffffff; stroke:none;" d="M265 34L286.305 60L312 109L313 109L346.667 60L362 36L265 34M90 66L75.9468 103L64 139C87.036 129.409 111.876 124.003 137 124L110.2 90L90 66M315 187L315 203L342 196L315 187M57 239L70.5756 291L78 315C90.547 293.728 109.326 275.827 129 261L129 260C105.127 256.474 79.9597 246.468 57 239z"/>
</svg>
