<?xml version="1.0" standalone="no"?>
<!DOCTYPE svg PUBLIC "-//W3C//DTD SVG 20010904//EN"
 "http://www.w3.org/TR/2001/REC-SVG-20010904/DTD/svg10.dtd">
<svg version="1.0" xmlns="http://www.w3.org/2000/svg"
 width="405.000000pt" height="371.000000pt" viewBox="0 0 405.000000 371.000000"
 preserveAspectRatio="xMidYMid meet">
<metadata>
Created by potrace 1.16, written by Peter Selinger 2001-2019
</metadata>
<g transform="translate(0.000000,371.000000) scale(0.100000,-0.100000)"
fill="#000000" stroke="none">
<path d="M1110 3441 c-25 -4 -189 -5 -365 -3 -356 6 -398 2 -393 -30 2 -15 17
-25 54 -38 27 -9 64 -26 81 -38 56 -40 178 -179 246 -279 l67 -100 0 -481 0
-481 -220 -3 c-177 -2 -222 -6 -229 -17 -15 -24 -2 -38 46 -50 93 -24 208
-133 332 -316 l71 -104 0 -605 0 -606 30 0 30 0 0 605 0 606 178 182 c97 100
180 183 183 185 14 6 164 -167 229 -264 l70 -105 0 -605 0 -604 25 0 25 0 0
606 0 606 193 199 c105 109 194 199 197 199 3 0 28 -19 55 -41 70 -58 145
-147 226 -267 l69 -103 0 -600 0 -599 25 0 25 0 0 603 0 602 181 188 181 187
26 -20 c44 -34 140 -149 208 -251 l64 -96 2 -604 3 -604 23 -3 22 -3 0 604 0
604 230 239 231 239 -103 6 c-57 4 -163 7 -235 8 l-133 1 0 475 0 475 235 243
235 242 -67 6 c-80 7 -610 11 -1348 10 -291 -1 -627 1 -745 3 -118 2 -235 1
-260 -3z m38 -72 c13 -5 22 -13 20 -19 -2 -5 -77 -86 -167 -181 -159 -165
-165 -171 -180 -151 -9 11 -44 60 -78 108 -65 93 -154 192 -213 238 l-35 27
315 -7 c173 -4 325 -11 338 -15z m685 14 c37 -3 67 -9 66 -12 0 -3 -79 -87
-175 -186 -153 -158 -176 -178 -187 -163 -6 9 -40 57 -75 106 -35 50 -94 123
-133 163 -54 56 -67 75 -58 85 9 11 62 14 253 14 132 0 271 -3 309 -7z m826
-18 c24 -12 21 -16 -149 -189 -141 -143 -176 -175 -185 -163 -5 9 -39 57 -75
109 -36 51 -104 133 -153 181 l-88 88 313 -7 c216 -5 321 -10 337 -19z m693
16 l58 -6 -180 -185 c-142 -146 -182 -182 -189 -170 -43 69 -146 203 -206 268
-56 59 -71 82 -62 91 12 12 473 14 579 2z m-1340 -68 c64 -49 152 -152 234
-275 l64 -96 0 -475 0 -476 -222 -3 c-123 -2 -292 -2 -375 0 l-153 3 0 475 0
476 197 204 c108 112 199 204 201 204 3 0 27 -17 54 -37z m-711 -71 c41 -42
102 -119 137 -170 l63 -92 -1 -492 c0 -270 -2 -493 -3 -494 -1 0 -145 -4 -319
-8 l-318 -6 0 486 0 486 178 184 c97 100 180 183 183 183 4 1 40 -34 80 -77z
m1524 -19 c35 -41 92 -115 125 -163 l60 -88 0 -491 0 -491 -158 0 c-88 0 -234
-3 -325 -7 l-167 -6 0 485 0 486 181 186 c157 162 183 184 200 176 10 -6 48
-45 84 -87z m-1687 -1305 c17 -5 32 -13 32 -17 0 -5 -76 -86 -168 -182 l-168
-173 -64 95 c-36 51 -110 140 -165 195 l-100 101 300 -4 c165 -3 315 -9 333
-15z m752 6 c5 -5 -71 -92 -168 -193 l-177 -184 -15 29 c-28 53 -156 219 -214
277 -51 50 -57 59 -45 74 12 14 44 15 312 11 164 -3 303 -10 307 -14z m707 2
c104 -6 102 -10 -84 -200 -93 -94 -171 -171 -175 -171 -4 0 -31 35 -60 77 -76
110 -165 214 -225 263 l-52 42 272 -4 c150 -2 295 -5 324 -7z m717 5 l99 -6
-178 -182 c-97 -101 -180 -183 -184 -183 -4 0 -26 30 -51 67 -51 78 -177 231
-213 260 -24 19 -25 21 -9 36 14 15 43 17 227 16 115 -1 254 -4 309 -8z"/>
</g>
</svg>
