<?xml version="1.0" standalone="no"?>
<!DOCTYPE svg PUBLIC "-//W3C//DTD SVG 20010904//EN"
 "http://www.w3.org/TR/2001/REC-SVG-20010904/DTD/svg10.dtd">
<svg version="1.0" xmlns="http://www.w3.org/2000/svg"
 width="338.000000pt" height="371.000000pt" viewBox="0 0 338.000000 371.000000"
 preserveAspectRatio="xMidYMid meet">
<metadata>
Created by potrace 1.16, written by Peter Selinger 2001-2019
</metadata>
<g transform="translate(0.000000,371.000000) scale(0.100000,-0.100000)"
fill="#000000" stroke="none">
<path d="M2085 2848 c-341 -347 -621 -634 -623 -637 -1 -4 16 -16 38 -26 l40
-20 -88 -93 -87 -93 -37 30 c-51 43 -112 138 -140 218 -20 59 -23 87 -23 213
0 126 4 159 29 255 61 237 164 458 341 730 l20 30 -42 -35 c-278 -230 -1169
-997 -1164 -1001 8 -9 493 -273 742 -404 l206 -109 -396 -418 c-218 -230 -397
-422 -399 -426 -4 -12 924 -431 1246 -563 185 -75 208 -82 227 -63 25 25 4 45
-126 119 -197 113 -298 226 -360 407 -79 232 -62 543 50 927 24 83 80 231 87
231 2 0 147 -68 321 -151 175 -83 344 -163 376 -178 l60 -26 -363 -368 c-209
-211 -359 -372 -354 -377 21 -19 1037 -499 1267 -597 146 -62 190 -71 195 -36
3 23 -6 31 -204 153 -31 19 -87 67 -124 106 -152 160 -218 398 -192 688 10
104 33 251 47 293 3 9 23 4 67 -16 35 -16 91 -39 126 -51 60 -22 64 -22 80 -6
16 16 15 19 -15 46 -17 16 -75 54 -128 85 -95 56 -96 57 -89 88 13 65 88 256
150 386 35 74 64 136 64 139 0 2 -85 -83 -189 -189 -216 -221 -195 -214 -250
-84 -48 113 -64 210 -63 380 0 294 93 647 254 969 27 54 48 99 46 101 -2 2
-282 -280 -623 -627z m428 315 c-42 -108 -92 -279 -118 -398 -70 -326 -54
-590 50 -801 l44 -89 -32 -32 c-17 -18 -36 -33 -42 -33 -11 0 -206 91 -642
300 l-132 63 35 69 c62 123 60 129 -18 45 -67 -71 -94 -88 -111 -71 -5 5 979
1014 989 1014 2 0 -9 -30 -23 -67z m-1218 -50 c-116 -240 -174 -443 -182 -640
-5 -106 -2 -147 12 -205 22 -96 65 -182 123 -248 l47 -54 -140 73 c-147 78
-583 313 -672 363 l-53 30 138 116 c75 65 278 237 451 385 173 147 315 267
316 267 2 0 -16 -39 -40 -87z m229 -1108 c-19 -55 -36 -101 -38 -102 -1 -1
-19 9 -40 23 l-38 26 74 77 c40 42 74 76 75 76 2 -1 -13 -46 -33 -100z m1189
-22 c-14 -38 -35 -96 -46 -130 -12 -35 -24 -63 -27 -63 -3 0 -24 18 -45 40
l-39 40 89 90 c49 50 91 90 92 90 1 0 -10 -30 -24 -67z m-1302 -132 l56 -23
-23 -97 c-43 -182 -57 -313 -51 -481 6 -185 26 -273 91 -405 48 -97 110 -174
190 -238 36 -28 43 -37 26 -32 -27 8 -634 278 -937 416 l-183 82 53 56 c457
486 711 751 716 749 4 -2 32 -14 62 -27z m1169 -76 c29 -30 51 -57 48 -60 -3
-3 -40 11 -83 30 l-78 36 23 24 c13 14 26 25 30 25 3 0 30 -25 60 -55z m-44
-81 c58 -27 74 -39 70 -52 -11 -39 -36 -183 -46 -262 -30 -246 13 -492 114
-658 37 -61 118 -151 176 -195 l35 -27 -65 29 c-357 161 -1070 503 -1070 513
0 6 152 164 338 353 243 247 342 341 355 338 9 -2 51 -20 93 -39z"/>
</g>
</svg>
