<?xml version="1.0" standalone="yes"?>
<svg xmlns="http://www.w3.org/2000/svg" width="336" height="371">
<!-- <path style="fill:#ffffff; stroke:none;" d="M0 0L0 371L336 371L336 0L0 0z"/>
--><path style="fill:#000000; stroke:none;" d="M89 175C86.5787 175.007 75.8242 175.285 80.6227 180.288C83.7842 183.584 90.1947 184.539 94 187.519C105.438 196.475 117.556 210.645 123.583 224C128.048 233.893 125 250.264 125 261L125 345L131 345L131 261C131 250.884 128.098 235.507 131.603 226C133.373 221.2 138.52 217.64 141.91 214C147.565 207.93 153.114 201.862 159 196C160.997 194.011 163.859 190.056 167 190.056C170.424 190.056 173.834 194.777 175.961 197C182.911 204.266 190.75 213.694 194.775 223C199.06 232.905 196 249.292 196 260L196 345L202 345L202 260C202 250.451 198.76 233.618 203.027 225C212.486 205.897 235.702 193.475 248 176C241.191 171.586 245 147.756 245 140L245 99C245 93.2246 243.607 85.2813 246.318 80C256.173 60.8014 281.79 50.7489 291 31C228.368 31 165.592 30 103 30L58 30C54.9358 30 44.9587 28.3845 43.7515 32.2739C42.4333 36.5215 54.3452 39.4882 57 41.5293C68.9346 50.7051 80.1873 64.5927 87.0841 78C91.3072 86.2097 89 98.9744 89 108L89 175z"/>
<path style="fill:#ffffff; stroke:none;" d="M60 35L60 36C72.5484 45.5609 83.5669 59.0917 91 73C101.845 67.9425 119.965 48.7977 125 38L100 36L60 35M135 37L135 38C145.668 48.6684 155.615 59.7349 163 73C175.092 64.4815 189.481 49.0933 198 37C184.596 33.038 167.913 35 154 35C147.66 35 140.712 33.9516 135 37M210 35L210 36C223.69 44.5632 233.676 59.4603 242 73L256.015 60L278 37L252 36L210 35M165 174L240 175L240 116C240 96.1219 241.628 81.8698 229.975 65C225.491 58.5093 213.997 40.0289 205.004 40.3063C198.75 40.4993 188.343 55.657 184 60C178.091 65.9093 168.394 72.8503 165.589 81C162.777 89.1677 165 101.393 165 110L165 174M95 175L159 174L159 105C159 91.8324 160.944 79.3568 153.329 68C149.126 61.7303 140.054 45.4328 131.996 44.1759C125.323 43.135 113.346 59.5603 109.015 64C104.756 68.3657 97.7335 74.2217 95.6034 80C92.6632 87.9758 95 100.533 95 109L95 175M199 218C211.531 209.173 226.183 193.517 235 181C219.284 181 203.722 180 188 180C184.87 180 174.654 178.385 173.346 182.318C172.194 185.779 177.939 189.875 179.91 192C187.225 199.884 193.387 208.861 199 218M97 181L97 182C109.207 191.301 119.555 204.627 127 218C138.153 212.799 155.802 194.147 161 183C141.958 176.964 116.908 181 97 181z"/>
</svg>
