<?xml version="1.0" standalone="yes"?>
<svg xmlns="http://www.w3.org/2000/svg" width="608" height="371">
<!-- <path style="fill:#ffffff; stroke:none;" d="M0 0L0 371L608 371L608 0L0 0z"/>
--><path style="fill:#000000; stroke:none;" d="M208 29L207 45C191.703 44.9983 176.362 44 161 44C157.46 44 148.125 42.4853 146.752 47.1235C145.772 50.4298 151.004 52.1545 152.961 53.6373C157.514 57.086 168.345 68.9118 162.808 74.4822C146.914 90.4712 123.371 102.294 105 115.421C98.305 120.205 90.0609 124.442 85 131C112.434 146.273 136.528 172.845 166 184L118 218.424L74 249L74 251C96.9815 263.795 117.866 281.051 140 295.308C144.084 297.938 158.488 309.933 163.392 306.716C167.167 304.24 161.811 298.973 159.981 297.285C150.752 288.778 142.065 280.292 141.09 267C139.164 240.741 153.769 214.778 168.348 194.004C173.16 187.147 179.112 181.617 183 174L174 180L173 180C167.568 172.897 159.947 168.267 155.81 160C142.297 132.994 163.817 109.419 171 85L173 85C176.049 96.1483 182.763 106.533 184.674 118C187.584 135.46 184.085 154.467 184.001 172C183.833 206.722 185 241.279 185 276L185 323C185.005 326.202 184.238 335.986 188.262 337.248C191.802 338.359 196.839 327.294 199.04 325.004C208.571 315.089 222.923 305.51 236 300.966C246.565 297.295 261.869 300 273 300L354 300L354 322L359 322L359 221C403.318 252.742 448.646 283.097 494 313.333C504.793 320.529 515.726 327.578 527 333.999C529.967 335.689 535.958 339.744 539.381 336.968C545.07 332.355 529.782 321.52 527 319.05C506.768 301.09 494.768 282.28 492.17 255C487.014 200.854 520.56 141.677 548.692 98C558.11 83.3787 575.528 67.2268 581 51C551.508 67.8036 525.115 93.2022 498 113.626C451.703 148.497 402.822 182.079 359 220L359 152L359.637 120L397 41C376.346 40.9431 355.73 39 335 39C331.226 39 316.147 36.8192 315.466 42.1744C314.997 45.8585 320.67 48.0626 322.816 50.1883C327.614 54.9423 331.347 61.8424 334 68L276 68C267.637 68 257.121 69.718 249 67.6821C242.137 65.9616 229.3 53.0396 229 46L208 29z"/>
<path style="fill:#ffffff; stroke:none;" d="M213 43L213 45L215 45L213 43M327 44C336.721 65.8431 350.445 84.9897 356 109L367.139 90L388 46L327 44M159 50L171 68L194 54C189.18 60.5028 178.093 69.7114 177.092 78C176.116 86.0813 185.041 100.33 188 108L189 108L206.351 75L207 51L159 50M213 51L213 62L214 62L219 51L213 51M224 55C215.953 68.7867 212 79.0379 212 95L240 71L240 70L224 55z"/>
<path style="fill:#000000; stroke:none;" d="M67 318L73 318L73 194C73 175.615 69.3698 152.92 73.3935 135C75.1414 127.215 81.2804 118.961 85.1389 112C93.7548 96.4572 103.17 80.405 110 64C90.0386 62.4246 70.0579 62 50 62C45.5793 62 33.0564 59.8587 30.0471 63.7269C27.2883 67.2728 39.3909 75.1356 41.5108 78.0038C52.3895 92.7227 58.9312 111.774 64.6667 129C70.8252 147.497 67 171.605 67 191L67 318z"/>
<path style="fill:#ffffff; stroke:none;" d="M41 67C53.5998 85.4446 63.0452 104.662 70 126L71 126L100 69L41 67M207 88L206 88C197.013 103.398 191 115.115 191 133C191 137.385 189.827 143.868 192.028 147.829C196.403 155.705 208.988 162.437 216 167.997C221.453 172.321 228.185 179.736 235 181.567C246.231 184.585 261.375 182 273 182L354 182C354 153.372 356.743 125.196 346.576 98C344.345 92.0332 342.104 78.6805 336.582 75.0278C331.627 71.7503 319.794 74 314 74L265 74C256.797 74 248.086 72.5989 241 77.4429C232.067 83.5495 222.398 90.731 216.559 100C215.074 102.358 213.39 110.793 210.004 110.793C204.93 110.793 207 91.5554 207 88M167 79L96 129L96 131L153 169C144.02 147.403 144.91 128.722 153.861 107C157.16 98.9944 167.017 87.374 167 79M552 80C509.618 113.634 465.706 145.354 423 178.576C406.218 191.63 381.925 204.15 369 221C422.087 250.585 467.169 294.343 521 323C512.007 311.241 500.542 303.178 494.428 289C472.9 239.074 496.672 182.149 519.247 137C525.947 123.6 533.476 110.695 541.424 98C544.728 92.724 551.264 86.2162 552 80M191 156L191 209L227 185C218.976 174.515 202.762 162.004 191 156M354 294L354 187L273 187C261.348 187 246.231 184.45 235 187.637C221.75 191.398 196.575 205.446 191.728 219C189.456 225.352 191 234.318 191 241C191 246.242 189.536 254.196 192.028 258.961C194.384 263.466 200.122 266.698 204 269.8C213.189 277.152 223.271 288.121 234 293.012C243.202 297.206 259.944 294 270 294L354 294M157 198C135.264 216.538 109.313 233.994 85 249L85 251L142 289C133.787 266.397 133.706 248.651 143.284 226C146.864 217.534 156.112 206.869 157 198M192 268L191 323L228 298C222.256 286.664 202.74 274.688 192 268z"/>
</svg>
