<?xml version="1.0" standalone="no"?>
<!DOCTYPE svg PUBLIC "-//W3C//DTD SVG 20010904//EN"
 "http://www.w3.org/TR/2001/REC-SVG-20010904/DTD/svg10.dtd">
<svg version="1.0" xmlns="http://www.w3.org/2000/svg"
 width="156.000000pt" height="371.000000pt" viewBox="0 0 156.000000 371.000000"
 preserveAspectRatio="xMidYMid meet">
<metadata>
Created by potrace 1.16, written by Peter Selinger 2001-2019
</metadata>
<g transform="translate(0.000000,371.000000) scale(0.100000,-0.100000)"
fill="#000000" stroke="none">
<path d="M290 3422 c-41 -1 -80 -8 -87 -14 -21 -17 -15 -38 15 -49 76 -30 118
-58 169 -113 103 -111 237 -337 352 -593 l51 -113 0 -1115 0 -1115 25 0 25 0
0 1118 0 1117 290 424 c160 233 289 425 287 428 -10 10 -980 32 -1127 25z
m985 -71 l51 -6 -251 -367 c-137 -202 -252 -367 -255 -367 -3 -1 -25 43 -49
97 -119 262 -246 467 -362 586 l-78 79 447 -8 c246 -4 470 -10 497 -14z"/>
</g>
</svg>
