<?xml version="1.0" standalone="yes"?>
<svg xmlns="http://www.w3.org/2000/svg" width="506" height="371">
<!-- <path style="fill:#ffffff; stroke:none;" d="M0 0L0 371L506 371L506 0L0 0z"/>
--><path style="fill:#000000; stroke:none;" d="M91 21C81.2674 38.4817 69.3564 54.9788 58.8079 72C53.0486 81.2932 47.8315 93.8548 40.2145 101.681C34.947 107.094 20.6874 98.9706 16.0864 105.585C13.5684 109.205 26.4455 115.583 28.0448 119.001C29.8249 122.805 21.6915 139.054 32.956 132.689C34.3326 131.911 35.6751 130.86 37 130C39.2639 137.697 45.0212 144.002 46.6211 152C49.1139 164.462 47 179.295 47 192C47 198.828 49.236 210.409 45 216C50.6822 246.607 47.8597 279.911 50.8302 311C51.4531 317.519 49.922 339.147 56.4144 342.712C58.4485 343.829 60.3276 342.546 61.3511 340.768C66.0366 332.628 68.9976 325.879 76.0008 319.015C98.9484 296.521 128.251 278.778 156 262.85C176.932 250.835 199.575 246.778 223 241.576C244.388 236.825 265.61 231.326 287 226.576C330.427 216.931 373.713 206.378 417 196.116C438.704 190.97 460.873 183.858 483 181L483 175L411 157.884L274 124.873L210 109.424L177 101.012L152 78L114 41.9105L91 21z"/>
<path style="fill:#ffffff; stroke:none;" d="M92 31C76.7573 54.0356 57.9385 78.6151 47 104L84 105L82 110C109.51 104.875 139.066 102.231 167 102C155.237 85.3014 136.45 72.3793 122 57.9992C113.308 49.349 103.149 36.1989 92 31M52 218L130 238.151L168 247.736L198 241.21L272 223.884L400 193.884L466 178C456.806 173.076 444.115 172.155 434 169.627C409.727 163.558 385.344 157.887 361 152.116C320.972 142.626 280.911 133.091 241 123.127C216.743 117.07 191.078 107.998 166 108C144.729 108.001 123.136 110.577 102 112.95C94.5922 113.782 82.434 113.375 76.1736 117.742C71.7323 120.84 68.6962 126.678 65.5756 131C61.4285 136.744 54.7621 143.201 52.564 150C50.4872 156.424 52 165.29 52 172L52 218M29 109L32 114L34 114L36 109L29 109M38 121L73 111C61.3445 106.109 40.5461 106.891 38 121M42 126L49 142L51 142L67 119L42 126M52 224L58 330L59 330C81.8376 296.531 125.76 271.756 161 253L125 242.849L52 224z"/>
</svg>
