<?xml version="1.0" standalone="no"?>
<!DOCTYPE svg PUBLIC "-//W3C//DTD SVG 20010904//EN"
 "http://www.w3.org/TR/2001/REC-SVG-20010904/DTD/svg10.dtd">
<svg version="1.0" xmlns="http://www.w3.org/2000/svg"
 width="426.000000pt" height="371.000000pt" viewBox="0 0 426.000000 371.000000"
 preserveAspectRatio="xMidYMid meet">
<metadata>
Created by potrace 1.16, written by Peter Selinger 2001-2019
</metadata>
<g transform="translate(0.000000,371.000000) scale(0.100000,-0.100000)"
fill="#000000" stroke="none">
<path d="M2768 3421 c-42 -3 -82 -11 -88 -17 -19 -19 0 -41 47 -55 95 -26 239
-197 362 -429 28 -52 51 -98 51 -102 0 -5 -421 -8 -936 -8 l-935 0 -366 235
c-200 129 -368 235 -373 235 -9 0 -23 -440 -24 -762 -1 -201 1 -229 16 -244
21 -22 44 -6 53 36 10 45 78 114 178 181 91 61 351 193 479 243 l66 26 937 0
936 0 47 -97 47 -98 3 -352 3 -353 -774 0 -774 0 -349 215 -349 214 -7 -67
c-3 -37 -10 -236 -14 -442 -7 -387 -5 -420 32 -420 8 0 23 19 33 43 46 105
258 239 579 366 l102 41 760 0 760 0 0 -470 0 -470 -974 0 -974 0 -367 236
c-202 129 -369 234 -371 231 -8 -8 -23 -477 -24 -733 0 -195 3 -254 14 -269
19 -26 43 -13 55 32 28 102 281 269 613 407 l87 36 970 0 971 0 0 -250 0 -250
30 0 30 0 0 1123 0 1122 289 421 288 421 -101 7 c-56 3 -220 8 -366 11 -146 3
-339 7 -430 9 -91 2 -200 1 -242 -3z m989 -70 l51 -6 -249 -365 c-137 -200
-252 -366 -254 -369 -8 -7 -75 149 -75 175 0 13 -6 24 -13 24 -7 0 -25 26 -41
58 -85 174 -237 397 -319 468 l-42 36 445 -7 c245 -4 468 -10 497 -14z m-2857
-365 c168 -108 303 -200 300 -204 -3 -3 -66 -34 -140 -68 -216 -97 -354 -180
-447 -267 l-53 -50 0 209 c0 318 11 586 24 581 6 -3 148 -93 316 -201z m488
-981 c150 -92 270 -171 265 -175 -4 -3 -39 -19 -78 -35 -202 -82 -478 -244
-515 -302 -8 -14 -10 51 -5 267 3 157 8 320 12 363 6 76 6 77 27 64 11 -8 144
-90 294 -182z m-426 -966 l308 -197 -88 -37 c-224 -96 -424 -212 -522 -304
l-53 -50 7 342 c7 379 13 460 30 450 6 -4 149 -95 318 -204z"/>
</g>
</svg>
