<?xml version="1.0" standalone="no"?>
<!DOCTYPE svg PUBLIC "-//W3C//DTD SVG 20010904//EN"
 "http://www.w3.org/TR/2001/REC-SVG-20010904/DTD/svg10.dtd">
<svg version="1.0" xmlns="http://www.w3.org/2000/svg"
 width="541.000000pt" height="371.000000pt" viewBox="0 0 541.000000 371.000000"
 preserveAspectRatio="xMidYMid meet">
<metadata>
Created by potrace 1.16, written by Peter Selinger 2001-2019
</metadata>
<g transform="translate(0.000000,371.000000) scale(0.100000,-0.100000)"
fill="#000000" stroke="none">
<path d="M1652 3272 c-26 -18 -8 -45 38 -60 93 -31 197 -169 336 -445 l84
-168 0 -234 0 -234 -660 2 c-571 2 -662 0 -670 -13 -11 -17 5 -40 29 -40 47 0
147 -64 232 -148 l89 -88 0 -82 0 -82 -107 0 -108 1 -165 150 c-91 82 -166
153 -168 158 -5 15 89 92 212 173 l120 78 588 0 588 0 0 25 0 25 -585 0 -585
0 -233 210 -232 210 -6 -113 c-4 -61 -7 -394 -8 -738 -1 -546 1 -628 14 -639
20 -17 41 1 49 43 15 76 135 192 317 306 l98 61 106 0 105 0 0 -160 0 -160
-89 44 -89 45 -6 -67 c-11 -132 -28 -700 -24 -858 2 -117 7 -165 17 -177 18
-23 39 -9 65 44 33 65 121 130 291 214 171 84 319 143 552 221 l161 54 1367 0
1366 0 -3 22 c-3 23 -5 23 -185 26 l-183 2 0 831 0 831 256 350 c140 193 253
352 251 354 -19 20 -3198 45 -3225 26z m748 -65 c19 -8 47 -26 62 -39 l27 -23
-157 -225 c-86 -124 -164 -235 -173 -247 -15 -22 -18 -18 -86 120 -83 165
-167 298 -244 381 l-54 59 295 -5 c235 -4 302 -9 330 -21z m764 -3 c25 -9 46
-19 46 -22 -1 -4 -84 -126 -185 -271 l-184 -264 -46 98 c-52 112 -170 314
-213 365 l-30 35 31 44 30 44 253 -7 c188 -5 264 -11 298 -22z m-634 7 c0 -18
-18 -21 -30 -6 -10 13 -9 15 9 15 11 0 21 -4 21 -9z m1306 -13 c45 -16 114
-65 114 -80 0 -7 -293 -435 -325 -476 -1 -1 -32 57 -68 130 -77 158 -160 292
-227 369 -38 44 -46 59 -37 68 18 19 487 10 543 -11z m657 13 c153 -5 280 -11
283 -14 3 -3 -94 -140 -215 -306 l-220 -302 -70 138 c-61 121 -170 297 -229
373 l-20 25 35 48 35 47 61 0 c34 -1 187 -5 340 -9z m-483 -9 c0 -5 -6 -16
-12 -25 -12 -15 -15 -14 -41 8 l-28 25 40 0 c23 0 41 -4 41 -8z m-638 -207
c33 -49 96 -161 139 -249 l79 -158 0 -854 0 -854 -360 0 -360 0 0 860 0 860
192 276 193 276 28 -33 c16 -19 56 -74 89 -124z m-755 -30 c31 -49 87 -153
125 -231 l68 -141 0 -857 0 -856 -320 0 -320 0 0 858 0 859 176 253 177 253
19 -24 c10 -13 44 -64 75 -114z m1425 48 c61 -83 141 -220 209 -359 l59 -121
0 -826 0 -827 -330 0 -330 0 0 854 0 853 168 241 c92 133 170 242 174 242 4 0
26 -26 50 -57z m-3182 -743 c-1 -3 -46 -34 -101 -70 -55 -35 -127 -88 -160
-118 -58 -53 -60 -54 -84 -38 -24 16 -25 20 -25 135 0 65 3 186 7 268 l6 151
178 -162 c99 -88 179 -163 179 -166z m1250 -780 l0 -610 -66 0 c-65 0 -67 1
-465 201 l-399 200 0 175 0 174 265 0 265 0 0 -225 0 -225 25 0 25 0 0 225 0
225 165 0 165 0 0 25 0 25 -165 0 -165 0 0 83 0 83 172 127 c95 70 174 127
175 127 2 0 3 -274 3 -610z m-716 581 c-22 -20 -232 -171 -238 -171 -3 0 -33
27 -66 60 -33 33 -78 73 -101 90 l-42 30 228 0 c127 0 225 -4 219 -9z m586 5
c0 -4 -199 -153 -228 -170 -9 -5 -35 13 -80 56 -37 35 -83 76 -102 91 l-35 27
223 0 c122 0 222 -2 222 -4z m-412 -89 c29 -22 73 -63 98 -90 l44 -49 0 -84 0
-84 -265 0 -265 0 0 84 0 85 143 105 c161 119 136 116 245 33z m-838 -207 c69
-62 126 -116 128 -120 1 -4 -25 -24 -58 -44 -91 -54 -199 -137 -258 -200 l-52
-55 1 202 c0 237 8 324 33 362 l18 27 31 -30 c18 -16 88 -80 157 -142z m340
-500 c33 -17 60 -35 60 -40 0 -6 9 -10 20 -10 18 0 569 -271 708 -347 l52 -30
-177 -62 c-358 -127 -599 -244 -710 -345 l-53 -48 0 108 c0 146 19 708 26 762
3 23 7 42 10 42 2 0 31 -14 64 -30z"/>
</g>
</svg>
