<?xml version="1.0" standalone="no"?>
<!DOCTYPE svg PUBLIC "-//W3C//DTD SVG 20010904//EN"
 "http://www.w3.org/TR/2001/REC-SVG-20010904/DTD/svg10.dtd">
<svg version="1.0" xmlns="http://www.w3.org/2000/svg"
 width="320.000000pt" height="371.000000pt" viewBox="0 0 320.000000 371.000000"
 preserveAspectRatio="xMidYMid meet">
<metadata>
Created by potrace 1.16, written by Peter Selinger 2001-2019
</metadata>
<g transform="translate(0.000000,371.000000) scale(0.100000,-0.100000)"
fill="#000000" stroke="none">
<path d="M375 3380 l-7 -170 -155 0 c-87 0 -163 -4 -174 -10 -31 -17 -22 -39
24 -59 50 -22 91 -64 146 -150 49 -77 135 -252 185 -378 l37 -92 -1 -1102 c-2
-964 0 -1103 13 -1116 20 -20 33 -11 56 42 32 73 138 144 401 270 l105 50 738
3 737 2 0 25 c0 14 -4 25 -10 25 -7 0 -10 295 -10 864 l0 865 190 350 c105
192 193 357 196 365 4 11 1 16 -10 16 -9 0 -16 5 -16 10 0 7 -301 10 -882 10
l-882 0 -327 175 c-180 96 -332 175 -337 175 -6 0 -13 -75 -17 -170z m340 -57
l275 -147 -61 -23 c-34 -13 -64 -21 -66 -19 -3 2 3 15 12 29 l16 25 -73 6
c-40 3 -145 8 -232 11 -88 3 -161 7 -163 9 -5 5 9 256 14 256 2 0 127 -66 278
-147z m-350 -337 l0 -173 -52 100 c-57 108 -86 151 -142 210 l-35 37 115 0
115 0 -1 -174z m392 158 c40 -5 42 -7 30 -26 -6 -11 -61 -44 -122 -72 -60 -29
-140 -74 -177 -99 l-68 -47 0 128 0 127 148 -3 c81 -1 166 -5 189 -8z m1280
-14 c82 -37 189 -223 307 -532 l56 -146 0 -866 0 -866 -696 0 -697 0 -258 168
-259 167 0 735 0 735 159 265 c142 237 163 267 193 277 18 6 78 27 133 47
l100 36 460 0 c431 0 463 -2 502 -20z m713 2 c16 -6 -3 -47 -148 -314 -92
-168 -170 -301 -173 -295 -4 7 -24 57 -44 112 -73 197 -185 412 -254 489 l-26
29 314 -7 c172 -4 321 -10 331 -14z m-2042 -144 c-8 -13 -65 -108 -128 -211
-62 -104 -116 -185 -120 -180 -5 4 -24 46 -43 93 -32 77 -33 85 -17 88 10 2
24 17 30 33 18 44 89 101 188 153 100 52 110 55 90 24z m35 -2158 l208 -134
-128 -61 c-141 -67 -223 -117 -295 -177 l-48 -39 0 119 c0 65 3 194 7 286 6
166 6 166 27 153 12 -7 115 -73 229 -147z"/>
</g>
</svg>
