<?xml version="1.0" standalone="yes"?>
<svg xmlns="http://www.w3.org/2000/svg" width="444" height="371">
<!-- <path style="fill:#ffffff; stroke:none;" d="M0 0L0 371L444 371L444 0L0 0z"/>
--><path style="fill:#000000; stroke:none;" d="M180 284C167.649 283.999 159.037 276.617 149 270.003C136.776 261.948 124.206 254.415 112 246.333C104.568 241.412 96.5113 234.712 88 232C88 268.193 80.3555 308.21 87 344C94.9813 343.383 101.969 327.928 109 322.756C126.678 309.752 151.383 295.413 173 290.529C193.977 285.789 220.476 290 242 290L386 290L386 284L358 284L358 173C358 156.46 354.773 136.126 358.394 120C364.306 93.6686 391.961 73.3936 398 47C333.409 47 268.68 42.4298 204 44.0146C188.728 44.3889 173.387 44 158 44C154.429 44 145.164 42.4345 143.176 46.4151C141.651 49.4682 154.062 58.939 156.11 62C166.314 77.2491 173.948 96.3942 178.96 114C183.606 130.322 180 152.057 180 169L180 284z"/>
<path style="fill:#ffffff; stroke:none;" d="M155 50L183 105C190.323 93.8955 195.895 81.5827 202.424 70C204.596 66.1477 209.109 60.5445 206.353 56.044C203.432 51.2729 197.115 50.2654 192 50.0394C179.715 49.4966 167.298 50 155 50M237 106C246.04 95.0898 252.122 79.5353 258.78 67C260.477 63.8048 266.092 57.1902 263.292 53.5139C261.091 50.6243 256.183 51.1064 253 50.7153C244.989 49.7309 219.451 45.5777 216.951 56.0046C215.824 60.7082 220.729 66.9509 222.753 71C228.301 82.0956 234.189 93.8531 237 106M211 51L212 52L211 51M273 52L286.691 77L299 106C305.344 95.6347 311.1 84.7619 316.745 74C318.653 70.3618 322.878 65.3094 322.468 61.0008C321.998 56.0583 316.154 53.2004 312 51.9051C302.227 48.8573 282.765 49.1136 273 52M355 111C367.484 96.0884 381.347 71.277 388 53C374.934 49.1378 353.675 49.8373 340.015 51.0586C335.829 51.4329 332.444 54.7217 331.873 59C331.181 64.199 336.906 70.616 339.219 75C345.356 86.6319 349.444 99.1231 355 111M325 52L327 55L328 52L325 52M269 60C259.704 75.9274 245.673 95.2768 240.637 113C236.166 128.737 240 150.634 240 167L240 284L296 284L296 171C296 153.646 299.082 132.974 295.482 116C291.31 96.3269 280.634 77.3728 271 60L269 60M212 64C203.895 79.4048 189.536 97.1132 185.418 114C181.475 130.17 185 151.34 185 168L185 284L234 284L234 147C234 119.668 232.105 85.474 212 64M327 66L301.394 115L301 170L301 284L352 284L352 166C352 131.524 351.272 93.9361 327 66z"/>
<path style="fill:#000000; stroke:none;" d="M49 100C49 138.356 48 176.693 48 215C48 224.33 47.8736 233.671 48.0039 243C48.0374 245.404 47.8236 250.528 51.1196 251.079C54.8328 251.699 56.9823 241.488 58.4537 239C64.4347 228.886 76.1252 216.1 87 211.14C94.5134 207.712 106.851 210 115 210L179 210L179 204L115 204C99.8323 204 89.57 206.247 79 194C75.5511 190.004 61.4171 178.121 62.6929 172.576C64.3829 165.229 81.0772 152.202 88 149.728C96.1794 146.804 108.363 149 117 149L179 149L179 143L115 143C107.514 143 94.7697 145.435 88.0147 141.972C71.5996 133.559 65.0999 109.227 49 100z"/>
<path style="fill:#ffffff; stroke:none;" d="M55 116C54.0253 128.351 54 140.587 54 153C54 158.662 53.0958 164.474 57 169L79.5386 145.91L74.4213 137L55 116M57 179C50.9769 195.402 54 215.734 54 233L55 233L81 207L81 206L57 179M94 243L92.9606 271L92 329C114.421 313.209 135.866 295.757 163 288L143 273.424L94 243z"/>
</svg>
