<?xml version="1.0" standalone="no"?>
<!DOCTYPE svg PUBLIC "-//W3C//DTD SVG 20010904//EN"
 "http://www.w3.org/TR/2001/REC-SVG-20010904/DTD/svg10.dtd">
<svg version="1.0" xmlns="http://www.w3.org/2000/svg"
 width="374.000000pt" height="371.000000pt" viewBox="0 0 374.000000 371.000000"
 preserveAspectRatio="xMidYMid meet">
<metadata>
Created by potrace 1.16, written by Peter Selinger 2001-2019
</metadata>
<g transform="translate(0.000000,371.000000) scale(0.100000,-0.100000)"
fill="#000000" stroke="none">
<path d="M2475 3154 c-270 -217 -513 -417 -541 -442 -29 -26 -214 -177 -412
-337 -215 -173 -356 -294 -352 -300 5 -6 -144 -133 -370 -315 -209 -168 -379
-308 -380 -311 0 -11 906 -445 1052 -502 78 -32 84 -32 96 -10 9 14 18 12 83
-24 114 -62 974 -482 1159 -565 91 -41 189 -83 219 -93 52 -17 55 -17 68 0 18
26 1 43 -137 133 -149 97 -217 168 -275 286 -63 127 -79 207 -79 396 0 116 6
184 22 270 44 236 132 495 253 749 58 121 71 142 86 136 84 -34 105 -38 121
-22 20 20 7 38 -55 74 l-43 25 31 57 c18 31 36 60 41 66 4 5 8 14 8 19 0 6
-29 -18 -65 -54 l-64 -64 -58 46 c-74 58 -137 150 -165 241 -67 218 13 555
203 859 27 43 48 78 46 78 -1 0 -223 -178 -492 -396z m270 89 c-149 -356 -135
-658 41 -853 l36 -40 -34 14 c-53 23 -700 334 -706 341 -4 3 5 27 18 53 21 39
80 92 349 309 179 145 326 261 328 260 1 -2 -13 -40 -32 -84z m-780 -649 c-60
-149 -86 -264 -92 -404 -4 -96 -2 -140 11 -190 22 -89 66 -175 121 -237 l46
-52 -103 48 c-221 103 -613 293 -620 300 -4 4 12 41 37 83 43 73 55 84 337
312 160 130 293 234 295 232 2 -2 -13 -43 -32 -92z m657 -208 l257 -121 -252
-245 c-139 -135 -282 -274 -319 -309 l-67 -63 -84 55 c-165 110 -237 249 -237
457 0 128 40 299 104 443 l25 57 158 -76 c87 -42 274 -131 415 -198z m202
-293 c-191 -416 -285 -793 -271 -1087 12 -261 105 -459 275 -588 35 -27 61
-48 58 -48 -23 0 -1246 599 -1246 610 0 4 135 139 300 300 294 286 300 292
329 282 43 -15 66 13 38 47 -12 14 22 50 267 289 154 149 282 272 283 272 1 0
-14 -35 -33 -77z m-1577 -65 c-169 -386 -166 -697 8 -896 57 -64 78 -71 -290
105 -399 193 -446 216 -442 226 5 15 701 576 716 576 7 1 11 -5 8 -11z m408
-185 c182 -88 374 -179 428 -203 53 -25 97 -47 97 -50 0 -6 -572 -566 -605
-592 -23 -18 -25 -17 -117 39 -51 32 -115 80 -143 108 -167 170 -187 435 -57
773 27 72 39 92 51 89 9 -3 165 -77 346 -164z"/>
</g>
</svg>
