<?xml version="1.0" standalone="no"?>
<!DOCTYPE svg PUBLIC "-//W3C//DTD SVG 20010904//EN"
 "http://www.w3.org/TR/2001/REC-SVG-20010904/DTD/svg10.dtd">
<svg version="1.0" xmlns="http://www.w3.org/2000/svg"
 width="502.000000pt" height="371.000000pt" viewBox="0 0 502.000000 371.000000"
 preserveAspectRatio="xMidYMid meet">
<metadata>
Created by potrace 1.16, written by Peter Selinger 2001-2019
</metadata>
<g transform="translate(0.000000,371.000000) scale(0.100000,-0.100000)"
fill="#000000" stroke="none">
<path d="M2016 3024 c-356 -218 -650 -394 -652 -392 -1 2 12 49 31 105 63 189
186 405 329 581 36 45 64 82 61 82 -16 0 -1344 -813 -1340 -820 7 -11 803
-544 998 -668 l159 -101 -54 -34 c-29 -18 -282 -172 -563 -342 -280 -169 -516
-314 -523 -320 -11 -10 49 -55 320 -237 392 -265 731 -486 847 -553 75 -44 83
-47 98 -32 23 23 12 39 -74 108 -234 188 -309 329 -301 571 2 58 6 109 9 112
3 3 217 -135 475 -307 557 -372 715 -470 746 -465 47 6 31 35 -59 110 -232
192 -308 329 -301 543 l3 83 467 -312 c522 -348 717 -470 744 -464 11 2 20 13
22 24 2 16 -21 40 -96 102 -125 102 -179 162 -226 251 -57 108 -81 266 -60
393 l6 36 432 -288 c638 -426 770 -508 799 -497 38 14 17 46 -81 126 -124 100
-179 161 -226 250 -110 210 -83 488 79 806 33 66 87 160 119 208 57 87 59 89
91 83 28 -6 35 -3 40 14 4 13 1 28 -8 38 -14 15 -11 21 24 62 21 24 37 46 35
48 -2 2 -27 -11 -56 -29 -47 -29 -54 -31 -78 -18 -15 8 -67 55 -117 104 -136
135 -185 250 -185 436 0 170 39 317 136 512 64 130 163 283 251 390 35 42 61
77 57 77 -4 0 -296 -176 -651 -391 -354 -215 -647 -389 -650 -386 -11 12 41
156 102 282 69 144 170 301 265 413 33 39 59 72 56 72 -3 0 -288 -172 -633
-381 -345 -210 -631 -383 -635 -385 -4 -3 2 28 13 68 57 204 194 454 356 651
36 42 61 77 56 76 -4 0 -300 -178 -657 -395z m405 136 c-97 -149 -192 -366
-221 -505 -7 -33 -20 -68 -28 -77 -8 -10 -11 -18 -6 -18 5 0 9 -53 9 -117 1
-172 43 -298 141 -418 l46 -57 -54 35 c-259 166 -887 592 -881 598 13 13 1028
627 1031 624 2 -1 -15 -31 -37 -65z m-857 33 c-127 -194 -220 -406 -259 -588
-19 -91 -19 -262 0 -344 21 -86 67 -180 121 -247 34 -41 39 -52 22 -43 -63 33
-908 604 -906 611 3 7 1022 634 1037 637 2 1 -5 -11 -15 -26z m2610 0 c-128
-195 -220 -401 -260 -585 -21 -98 -22 -265 0 -348 22 -88 76 -196 127 -253 22
-26 38 -47 35 -47 -8 0 -457 295 -724 477 l-213 145 523 318 c288 175 525 319
527 319 2 1 -5 -11 -15 -26z m-893 -25 c-159 -244 -256 -500 -268 -708 -11
-206 31 -334 170 -509 14 -17 -255 159 -626 409 -159 107 -291 199 -291 204
-1 7 1018 634 1032 636 2 0 -6 -15 -17 -32z m-947 -1244 c136 -87 138 -88 116
-104 -75 -50 -1066 -647 -1069 -644 -2 2 8 42 24 89 35 109 124 286 204 407
55 83 67 96 90 95 23 -2 26 2 26 31 0 22 10 45 31 70 50 60 48 64 -15 26 -33
-20 -64 -34 -70 -32 -5 1 -43 31 -85 65 -125 104 -200 216 -231 345 -15 64
-20 204 -9 269 l6 36 422 -282 c231 -155 483 -322 560 -371z m1262 290 c281
-188 530 -352 553 -365 23 -12 40 -26 39 -31 -4 -10 -1088 -668 -1088 -660 0
4 14 47 30 97 38 113 122 281 202 402 55 82 65 93 91 93 27 0 29 3 25 30 -4
23 4 39 34 76 44 53 47 62 16 42 -13 -8 -40 -24 -61 -37 l-37 -23 -64 51
c-187 149 -276 316 -276 519 0 71 10 154 19 150 3 -2 236 -156 517 -344z
m-909 -2 c247 -164 490 -325 541 -357 51 -32 89 -62 85 -66 -4 -4 -246 -153
-538 -329 -291 -177 -534 -324 -538 -327 -11 -7 0 35 40 157 38 118 121 283
206 412 56 85 58 87 91 81 40 -6 56 19 31 47 -15 17 -14 21 12 51 16 19 35 43
43 53 14 18 14 19 -10 6 -14 -7 -42 -24 -62 -38 l-37 -24 -84 70 c-110 93
-171 177 -213 294 -27 77 -40 268 -18 268 2 0 205 -134 451 -298z m-284 -539
c-104 -167 -188 -366 -223 -538 -7 -33 -13 -107 -13 -165 0 -162 38 -280 131
-402 l51 -68 -42 27 c-139 86 -896 597 -892 601 8 9 1030 630 1037 631 4 1
-18 -38 -49 -86z m-819 55 c-5 -7 -28 -44 -52 -81 -24 -38 -68 -119 -97 -180
-97 -202 -136 -351 -137 -517 -1 -165 45 -301 138 -416 31 -37 38 -52 24 -44
-12 6 -225 147 -472 312 -312 208 -446 303 -437 309 8 4 244 147 524 318 281
171 511 310 513 311 2 0 0 -6 -4 -12z m2539 -75 c-190 -303 -273 -629 -217
-863 20 -87 73 -195 124 -253 23 -26 38 -47 34 -47 -12 0 -924 610 -924 619 0
7 1019 630 1032 631 4 0 -18 -39 -49 -87z m-819 55 c-5 -7 -27 -42 -50 -78
-99 -154 -188 -371 -219 -531 -19 -103 -19 -245 1 -329 19 -83 72 -193 119
-248 21 -24 36 -45 33 -47 -5 -6 -918 603 -918 612 1 7 1027 633 1038 633 2 0
0 -6 -4 -12z"/>
</g>
</svg>
