<?xml version="1.0" standalone="yes"?>
<svg xmlns="http://www.w3.org/2000/svg" width="675" height="371">
<!-- <path style="fill:#ffffff; stroke:none;" d="M0 0L0 371L675 371L675 0L0 0z"/>
--><path style="fill:#000000; stroke:none;" d="M483 28L435.127 91L414 120C428.998 124.743 449.262 127.87 465 128L430.127 174L414 197L472 206L435.116 254L414 283L513 299L504 312C533.858 313.282 564.354 321.928 594 326C601.288 327.001 608.665 328.261 615.999 328.826C618.138 328.99 622.364 329.103 622.364 325.96C622.364 321.726 614.963 320.871 612 320.127C599.615 317.014 588.87 312.875 580.185 302.999C562.817 283.25 568.998 259.33 570 236C583.346 237.053 596.719 239.81 610 241.576C612.657 241.929 622.364 243.61 622.364 238.985C622.364 235.408 616.509 234.758 614 234.127C604.234 231.668 595.166 229.312 587.001 223.1C568.415 208.96 563.847 180.646 569 159C581.842 162.093 595.841 163.848 609 165C611.964 165.26 620.953 167.909 622.248 163.726C623.686 159.085 614.776 157.824 612 157.127C597.98 153.603 585.49 148.594 577.105 136C559.798 110.007 570.953 83.503 575 56C559.212 68.1102 546.829 91.0599 534.873 107C530.799 112.433 524.954 123.934 518.7 126.799C510.367 130.615 494.973 117.441 490.185 111.999C469.624 88.627 477.412 54.7402 485 28L483 28M369 180L236 180L236 123C236 115.799 233.9 104.562 237.179 98C249.434 73.4702 280.513 59.0777 292 34C240.961 34 190.019 33 139 33L103 33C100.061 33.0002 92.0502 31.7836 91.466 36.1196C90.9403 40.0221 104.084 43.8006 107 45.9275C120.424 55.7202 130.595 71.0009 139.189 85C155.186 111.059 148 150.028 148 180C140.391 180 129.057 182.106 122 179.062C115.731 176.357 110.21 169.923 105 165.586C89.0646 152.323 72.3914 133.49 54 124C54 154.335 52 184.64 52 215C52 219.387 49.4025 242.364 56 242.364C59.568 242.364 60.2443 236.4 61.4028 234C65.0845 226.371 71.6049 220.399 78 215.081C90.2401 204.903 107.473 191.1 123 186.638C130.539 184.472 140.193 186 148 186L148 221C148 225.612 149.265 232.491 147.397 236.787C144.927 242.464 132.309 246.592 127 249.247C108.337 258.58 90.1448 269.75 71 278C76.8296 285.054 86.4277 289.318 94 294.333C111.432 305.876 129.278 316.856 147 327.95C150.498 330.139 169.83 344.567 172.673 338.667C175.21 333.403 161.125 325.81 158 322.91C144.063 309.974 138.548 293.487 144.036 275C145.646 269.577 147.11 261.854 153 260C153.331 246.232 166.929 236.689 174 226L153 236L153 186L231 186L231 222L229.972 237.787L208 250.248L155 278L155 279C179.895 295.794 205.473 311.759 231 327.576C234.662 329.845 253.137 343.87 256.712 338.407C259.366 334.353 250.395 329.204 248 327.35C237.456 319.184 227.672 308.942 226.174 295C224.211 276.737 233.043 258.46 243.428 244C248.026 237.597 254.68 232.162 258 225L236 236L236 186L366 186L366 187L340 200.694L278 235L278 237C299.59 251.565 321.32 265.906 343 280.333C349.908 284.93 363.964 290.735 367.972 298.093C372.617 306.621 369 325.34 369 335L375 335L375 301C377.765 302.693 388.341 310.843 390.824 305.667C393.488 300.115 379.309 293.179 376.603 289.561C373.948 286.011 375 280.176 375 276L375 223C375 215.001 373.287 204.713 375.51 197C378.353 187.137 388.789 181.084 393 172L375 181L375 123C375 115.222 373.057 104.334 375.843 97C384.757 73.5394 409.062 56.5805 418 33C395.007 33 372.004 31 349 31C343.947 31 329.294 28.6003 326.086 33.5455C323.538 37.4746 331.873 39.9834 334 41.5579C342.966 48.1958 348.867 58.482 354.281 68C359.482 77.1437 366.096 87.6539 368.471 98C370.467 106.7 369 117.099 369 126L369 180z"/>
<path style="fill:#ffffff; stroke:none;" d="M340 37C352.046 54.3043 363.789 70.277 372 90L373 90L408 38L340 37M108 38L108 39C125.273 51.804 141.441 72.1373 150 92L174.075 66L191 45C168.641 33.2382 133.046 38 108 38M200 45L200 46C213.132 59.1411 224.267 74.5909 233 91L235 91L279 40C271.848 37.8861 263.427 39 256 39C238.765 39 213.12 32.0348 200 45M194.667 40.3333L195.333 40.6667L194.667 40.3333M153 180L231 180L231 126C231 117.539 232.59 107.238 230.582 99C228.615 90.9316 221.877 82.8126 217.333 76C213.493 70.2415 203.852 52.2068 196.004 52.2068C189.331 52.2068 177.633 70.1438 173.424 75C167.386 81.9668 157.613 89.4837 153.938 98C151.001 104.807 153 115.673 153 123L153 180M472 53L441.349 93L425 116L457 121.414L469.7 121.968L479.046 109L472.463 87L472 53M562 81L526 130C539.156 135.241 517.88 137.592 515 145L560 152L569.198 138L563.45 119L562 81M482 113L479 125L499 128L499 127L482 113M471 130L438.626 173L425 193C436.963 193.514 449.163 196.588 461 198.424C465.199 199.076 471.842 201.573 475.91 199.802C479.125 198.403 482.656 193.607 482.262 190C481.309 181.27 473.945 172.356 472.438 163C470.842 153.087 474.68 138.771 471 130M478 131C477.502 155.118 475.59 181.892 499 196.91C503.448 199.763 513.302 205.858 518.829 203.672C523.433 201.852 527.021 194.804 529.873 191C538.231 179.857 548.097 169.115 555 157L504 149L513 136L478 131M59 136L58 226L59 226C72.4104 208.399 94.5749 192.549 115 184L97 166.92L59 136M572 142C569.252 155.321 576.789 155.476 589 156L589 155L572 142M562 158L526 206C539.115 212.624 518.403 213.392 515 221L553 227.13L566.7 227.958L572.623 218L562.289 189L562 158M368 192L289 236L289 237L363 286C352.134 266.483 347.162 249.197 354.025 227C356.462 219.12 359.38 211.207 363.425 204C365.455 200.385 368.99 196.231 368 192M484 192L482 202L498 204L498 203L484 192M368 207C356.428 234.832 351.431 256.127 368 283L369 283L369 231L368 207M480 207C476.577 233.505 472.497 268.062 500 284.123C504.622 286.823 512.203 291.411 517.826 290.508C522.952 289.686 527.258 280.766 530.21 277C540.536 263.825 555.19 249.282 562 234L504 225L513 212L480 207M471 217L441.349 256L425 279L499 291L499 290C479.939 279.14 472.52 258.89 471.09 238C470.633 231.339 473.588 223.17 471 217M575 221L572 230L590 233L590 232L575 221M562 244L526 293C539.156 298.241 517.88 300.592 515 308L589 319L589 318C572.461 309.761 562.827 289.963 562.039 272C561.668 263.54 564.424 251.88 562 244M83 279L83 280L145 319C136.572 302.982 133.543 288.711 139.025 271C141.617 262.629 147.543 254.806 148 246C126.25 252.266 102.559 267.584 83 279M167 278L167 280L229 318C220.315 302.338 217.89 288.508 222.91 271C225.347 262.5 230.9 254.961 231 246L167 278z"/>
</svg>
