<?xml version="1.0" standalone="yes"?>
<svg xmlns="http://www.w3.org/2000/svg" width="417" height="371">
<path style="fill:#ffffff; stroke:none;" d="M0 0L0 371L417 371L417 0L0 0z"/>
<path style="fill:#000000; stroke:none;" d="M29 108L29 110L115 167.344L134.999 180.319L141.079 186.833L134 192.8L114 205L30 256L30 258C63.0142 276.398 92.8598 301.224 125 321.192C132.673 325.959 140.138 331.113 148 335.572C150.557 337.022 154.592 339.668 157.677 338.353C161.124 336.884 158.469 332.911 156.851 331.17C152.829 326.842 147.381 322.398 142 320L142 319C147.87 317.982 152.287 307.333 157 303.184C167.446 293.989 182.576 284.867 196 281L196 310L202 310L202 281L258 281C266.001 281 276.284 279.288 284 281.51C290.388 283.349 296.519 289.012 302 292.667L337 316C348.161 323.437 359.498 330.7 371 337.6C373.77 339.262 379.993 344.383 383.392 341.929C388.208 338.452 379.228 331.925 377 330.084C364.688 319.913 353.467 309.818 348.721 294C339.239 262.394 356.659 227.617 374.001 202.001C377.127 197.383 382.398 197.72 384.954 194.383C386.492 192.375 385.16 189.293 386.019 187C387.37 183.395 390.475 180.602 392 177C388.451 178.659 383.996 182.726 380 182.737C375.712 182.748 370.912 177.609 368 174.91C357.83 165.482 350.353 153.811 347.924 140C342.678 110.185 358.565 79.0071 374.671 55C380.283 46.6337 388.834 39.0941 393 30C362.908 42.9667 333.788 64.6558 306 82.0501C295.599 88.5608 283.636 98.4229 272 102.298C266.337 104.184 258.909 103 253 103L214 103L247 50C222.321 48.9402 197.762 48 173 48C168.962 48 150.636 45.5719 150.636 51.8341C150.636 55.0647 160.649 59.6661 162.961 62.0154C171.516 70.7103 178.328 82.7816 183 94C171.571 84.2525 156.825 70.8443 143 65L142 172C135.888 165.884 130.245 159.751 126.259 152C108.745 117.935 129.907 77.501 149.001 49C154.255 41.1577 161.692 34.3484 166 26L126 49.3997L29 108z"/>
<path style="fill:#ffffff; stroke:none;" d="M141 47L40 109L40 110L129 169C125.764 161.308 120.19 155.106 117.519 147C110.789 126.572 114.843 105.663 122.053 86C125.212 77.3867 129.38 68.9161 134.012 61C136.468 56.8011 141.009 51.98 141 47M267 113L267 114L356 173C351.734 162.858 345.082 155.156 342.662 144C335.366 110.359 353.389 80.1466 369 52L328 75.9499L267 113M164 53L186.247 87L195.275 102.397L207.391 101.397L216.95 87L236 55L164 53M148 76C148 87.634 148.47 99.3776 147.961 111C147.773 115.288 145.52 121.154 149.318 124.522C152.965 127.757 156.959 124.087 160 121.884C168.744 115.55 179.8 111.794 188 105L148 76M197 109L199 114L200 114L203 109L197 109M202 159L323 159L323 158L256 114L256 112L261 110C251.211 105.892 234.634 109 224 109C220.136 109 214.815 108.08 211.184 109.603C207.494 111.152 204.735 116.507 203.225 120C198.733 130.385 202 147.758 202 159M158 130L158 132L196 159C196 142.617 198.087 126.15 191 111L158 130M153 135C145.603 144.972 148.926 156.437 147.83 168C147.381 172.746 146.729 180.42 154.001 180.256C157.883 180.168 161.881 176.039 165 174.054C171.999 169.599 179.335 165.192 187 162L187 160L153 135M195 164C181.438 171.916 162.124 176.772 157 193C168.373 201.17 182.306 216.753 196 220L196 182L195 164M202 164L202 220L283 220C294.631 220 309.775 222.577 321 219.501C337.81 214.894 356.107 199.117 371 190C361.331 181.569 343.327 168.059 331 164.51C319.07 161.075 302.412 164 290 164L202 164M150 195C145.557 206.538 147.14 218.814 146.996 231C146.951 234.787 144.857 241.785 150.059 243.11C153.67 244.03 157.3 240.199 160 238.347C168.529 232.498 179.129 228.522 187 222L150 195M41 256L41 258L131 317C125.825 309.144 120.652 302.101 117.746 293C109.98 268.68 118.393 240.954 129.37 219C133.247 211.247 138.941 204.082 142 196L115 211.6L41 256M368 198L299 240.2L266 261L324 300L356 320C336.989 291.134 336.92 262.537 350.862 231C355.193 221.202 366.792 208.199 368 198M140 211C124.388 240.671 105.24 291.996 140 317L141 242L140 211M156 248C164.889 257.064 183.505 273.513 196 276L196 226C181.743 228.541 167.499 239.74 156 248M202 226L202 276L277 276L277 275L255 261L310 227L277 226L202 226M151 253C142.893 267.245 145 288.891 145 305L185 279L185 277L151 253z"/>
</svg>
