<?xml version="1.0" standalone="yes"?>
<svg xmlns="http://www.w3.org/2000/svg" width="577" height="371">
<!-- <path style="fill:#ffffff; stroke:none;" d="M0 0L0 371L577 371L577 0L0 0z"/>
--><path style="fill:#000000; stroke:none;" d="M103 37L99 207C91.1573 199.494 81.1856 188.945 71 185C71 213.696 71.8865 243.452 69.1698 272C68.4626 279.431 69.6255 286.629 69.9606 294C70.0757 296.531 69.2832 301.194 71.7269 302.914C75.1928 305.353 82.9475 287.736 85.3002 285.001C97.3711 270.965 122.462 251.398 141 247.39C149.095 245.641 158.734 247 167 247L218 247L312 247C324.446 247 342.176 243.761 354 247.702C366.153 251.753 378.356 263.237 389 270.333C408.205 283.137 427.39 296.015 447 308.192C450.845 310.58 462.676 320.713 467.377 316.957C470.191 314.709 466.661 311.02 464.941 309.464C457.921 303.112 449.704 298.388 443.616 290.999C427.471 271.406 427.135 247.739 436.873 225C440.573 216.359 446.708 208.686 450 200C469.757 215.186 491.857 228.254 513 241.424C516.37 243.523 531.42 255.603 534.914 250.393C537.877 245.973 527.641 239.923 525 237.88C511.346 227.321 500.211 214.613 497.439 197C494.189 176.351 504.42 153.678 515.746 137C520.789 129.575 528.351 123.187 532 115L414 175C420.066 182.339 431.412 188.937 440 193L376 226.247L347 240.61L314 241L314 135C314 122.231 310.108 101.871 314.857 90C322.807 70.1254 345.289 55.6183 356 37C333.03 36.8099 309.999 35 287 35C283.321 35 266.636 33.0001 266.636 39C266.636 42.357 273.759 43.9038 276 45.5579C283.758 51.2847 289.457 59.2607 295 67L219 67L243 37C216.077 36.7772 188.967 33.8047 162 35.0394C142.898 35.9139 122.402 41.6193 103 37z"/>
<path style="fill:#ffffff; stroke:none;" d="M231 42C220.725 42 202.49 37.7854 193.171 41.6034C183.322 45.6379 179.125 59.8516 189.326 65.9722C207.094 76.6331 223.574 54.9086 231 42M282 41C288.805 50.6598 298.629 66.9904 311 67L311 72L306 72L311 83L312 83L344 42L282 41M120 44C126.545 51.6348 140.027 56.2665 149 60.7531C152.61 62.558 156.933 65.6816 160.985 66.2145C165.368 66.7908 172.179 59.2966 171.883 55C171.578 50.5771 164.935 45.5101 161 44.4337C148.958 41.1397 132.488 44 120 44M173 45L178 50L181 45L173 45M108 46C108 55.7198 106.98 65.3072 107 75C107.009 79.1614 106.861 84.2025 112.019 85.2145C118.72 86.5291 129.344 77.9026 136 76C131.062 62.9725 120.494 51.8332 108 46M133 59C137.934 69.4305 140.996 72.6053 152 70L133 59M177 60L172 67L182 67L177 60M195 111C195 100.315 196.934 78.3744 184.61 72.6034C171.744 66.5782 162.681 77.2167 155.805 86C152.245 90.5468 148.043 99.6546 152.028 105.363C159.15 115.564 184.371 111 195 111M193 72L198 83L199 83L207 72L193 72M201 111L308 111C308 99.4095 309.819 80.7099 298.39 73.0278C291.521 68.4101 272.224 72 264 72C243.174 72 210.995 64.4661 201.742 89C199.381 95.2571 201 104.374 201 111M145 78L148 85L158 74L145 78M120 89L120 90L146 103L140 81L120 89M112.109 95.071C105.145 98.5411 104.084 123.552 111.059 127.145C117.545 130.487 137.759 120.447 143.682 116.443C146.643 114.442 146.33 110.465 143.682 108.352C138.75 104.414 118.079 92.0958 112.109 95.071M151 113L152 114L151 113M195 152L195 117C183.744 117 163.045 113.045 153.318 119.558C149.301 122.248 151 130.815 151 135C151 138.507 149.91 144.331 152.028 147.363C158.519 156.655 185.108 152 195 152M201 117L201 152L308 152L308 117L201 117M145 122L122 132L122 133L146 145L145 122M107 132L107 135L109 134L109 133L107 132M509 133L426 176L426 177L447 189.332L465 181L454 196L504 228C493.716 206.256 487.464 190.252 494.885 166C497.689 156.838 509.827 141.792 509 133M115.004 137.248C103.313 139.485 99.4488 172.756 113 170.258C121.194 168.747 130.175 162.549 138 159.4C140.406 158.431 144.313 157.49 145.338 154.769C146.64 151.311 142.375 149.473 139.995 148.248C134.139 145.233 121.66 135.975 115.004 137.248M195 196L195 158C184.266 158 162.398 153.85 153.318 160.279C149.312 163.114 151 171.721 151 176C151 180.156 149.54 187.801 152.028 191.363C158.519 200.655 185.108 196 195 196M201 158L201 196L308 196L308 158L201 158M118 174L118 175L146 189L146 163L118 174M111.044 179.847C103.307 182.19 104.14 202.563 105.148 208.999C105.703 212.542 108.097 215.64 112.001 214.886C120.581 213.228 129.716 206.599 138 203.424C140.654 202.407 145.122 201.442 145.534 197.997C145.947 194.545 141.416 192.974 138.999 191.753C132.744 188.593 118.083 177.716 111.044 179.847M77 197L75 287L76 287C89.9699 268.464 112.076 253.769 133 244L109 224C107.724 225.987 105.374 231.741 102.225 230.654C97.0473 228.868 99.9371 218.848 97.9722 215.015C94.3895 208.025 83.5479 201.095 77 197M442 199C422.639 210.3 402.042 220.2 382 230.247C377.861 232.322 362.663 237.151 361.921 242.173C361.165 247.292 375.396 253.931 379 256.333C398.429 269.286 417.597 283.641 438 295C426.714 274.727 420.071 257.319 427.347 234C429.824 226.062 432.804 218.274 436.862 211C438.898 207.35 442.625 203.284 442 199M151 241L195 241L195 202C184.669 202 174.33 201.877 164 202.004C160.332 202.049 154.405 202.126 152.028 205.51C147.247 212.315 151 232.714 151 241M201 202L201 241L308 241L308 202L201 202M115 220C121.791 228.416 134.783 240.869 146 241L146 207L115 220z"/>
</svg>
