<?xml version="1.0" standalone="no"?>
<!DOCTYPE svg PUBLIC "-//W3C//DTD SVG 20010904//EN"
 "http://www.w3.org/TR/2001/REC-SVG-20010904/DTD/svg10.dtd">
<svg version="1.0" xmlns="http://www.w3.org/2000/svg"
 width="438.000000pt" height="371.000000pt" viewBox="0 0 438.000000 371.000000"
 preserveAspectRatio="xMidYMid meet">
<metadata>
Created by potrace 1.16, written by Peter Selinger 2001-2019
</metadata>
<g transform="translate(0.000000,371.000000) scale(0.100000,-0.100000)"
fill="#000000" stroke="none">
<path d="M2891 3307 c-19 -23 -8 -44 28 -52 44 -9 122 -84 182 -173 59 -88
223 -415 217 -433 -2 -7 -141 -97 -308 -200 l-304 -189 -168 0 -168 0 0 58 c0
56 6 70 184 405 169 319 182 347 163 351 -67 14 -728 23 -759 11 -30 -12 -21
-43 16 -59 19 -8 53 -38 76 -67 88 -112 258 -515 268 -636 l5 -63 -234 0 -235
0 -259 161 c-143 88 -266 166 -272 173 -10 9 37 82 210 331 l223 320 -31 7
c-16 4 -242 11 -500 14 -450 7 -471 6 -489 -11 -18 -18 -18 -19 4 -37 12 -10
29 -18 37 -18 30 0 107 -67 162 -141 70 -93 143 -218 221 -382 l60 -125 0
-260 c0 -143 -4 -304 -10 -358 -15 -151 -18 -733 -3 -742 8 -5 12 -80 15 -254
l3 -247 -40 23 c-324 187 -478 267 -486 255 -5 -8 -9 -43 -9 -79 0 -36 -5
-202 -10 -370 -10 -351 -6 -423 26 -428 17 -2 27 7 44 44 42 86 221 192 540
321 l145 58 824 3 823 2 111 -66 c118 -71 168 -85 175 -49 3 14 -11 33 -49 67
l-54 48 58 0 c45 0 57 -3 57 -16 0 -10 7 -14 23 -12 l22 3 3 1017 2 1016 240
384 240 383 -43 7 c-23 4 -249 10 -502 14 -420 7 -461 6 -474 -9z m895 -55
l31 -7 -205 -329 c-183 -292 -207 -326 -216 -306 -6 13 -6 27 0 35 5 7 20 28
33 46 25 33 20 32 -31 -3 l-28 -19 -27 63 c-89 209 -200 397 -286 487 l-52 53
375 -6 c206 -4 389 -10 406 -14z m-2140 -50 c14 -8 -368 -565 -390 -570 -9 -2
-38 46 -80 131 -81 164 -187 327 -260 403 l-55 57 387 -7 c212 -4 392 -10 398
-14z m1002 -177 c3 -2 -64 -135 -149 -294 l-153 -290 -46 122 c-79 210 -158
367 -218 438 l-36 42 299 -7 c164 -3 301 -8 303 -11z m730 -632 l4 -133 -127
0 c-103 0 -126 3 -122 14 9 23 97 158 156 238 l56 77 15 -32 c10 -22 16 -75
18 -164z m-1845 6 c117 -73 221 -138 231 -145 18 -13 16 -15 -30 -34 -133 -57
-317 -155 -381 -205 l-73 -55 0 123 c0 68 3 199 7 291 5 139 9 166 20 161 8
-3 110 -64 226 -136z m1613 -6 l-84 -128 -128 -3 c-70 -1 -126 -1 -123 2 6 6
412 256 416 256 1 0 -35 -57 -81 -127z m-828 -279 l-3 -96 -288 -178 -289
-179 -76 48 c-43 26 -133 83 -202 126 -69 43 -127 79 -129 81 -8 7 34 46 89
84 65 44 209 118 335 171 l90 38 238 1 238 0 -3 -96z m193 25 c-63 -39 -120
-73 -127 -76 -11 -4 -14 11 -14 71 l0 76 127 0 127 0 -113 -71z m519 65 c0 -3
-15 -33 -34 -67 -64 -115 -150 -336 -186 -474 l-11 -43 -215 0 -214 0 2 187 3
187 170 107 170 107 158 1 c86 1 157 -2 157 -5z m350 -291 l0 -298 -264 3
-265 3 19 67 c32 114 78 231 150 380 l70 142 145 0 145 0 0 -297z m-1060 -123
l0 -170 -258 0 c-142 0 -261 3 -265 6 -4 5 504 330 521 334 1 0 2 -76 2 -170z
m-819 -41 c98 -61 179 -115 179 -118 0 -4 -29 -24 -64 -46 -50 -31 -62 -42
-54 -52 6 -8 9 -15 7 -16 -2 -2 -47 -27 -99 -56 -53 -28 -119 -70 -148 -91
l-52 -40 0 245 c0 249 7 302 37 290 8 -2 95 -55 194 -116z m245 -158 c-3 -5
-16 -11 -28 -14 -22 -6 -22 -5 -4 8 22 17 40 20 32 6z m1634 -356 l0 -335
-236 0 -235 0 -24 53 c-57 124 -81 301 -65 467 6 58 13 113 16 122 5 16 29 18
272 21 147 1 268 3 270 5 1 1 2 -149 2 -333z m-1060 90 c0 -129 -2 -235 -5
-235 -11 0 -615 412 -615 420 0 4 24 17 53 28 48 19 74 21 310 21 l257 1 0
-235z m457 188 c-5 -27 -10 -113 -10 -193 0 -156 12 -234 57 -354 l25 -66
-127 0 -127 0 -113 75 -112 75 0 255 0 255 209 0 208 0 -10 -47z m-797 -261
l335 -227 3 -62 3 -63 -235 0 -234 0 -286 178 c-157 97 -284 182 -283 187 12
36 302 215 347 214 8 0 166 -102 350 -227z m-439 -219 c131 -82 239 -150 239
-153 0 -4 -17 -12 -37 -19 -73 -26 -279 -131 -347 -176 -60 -41 -72 -45 -93
-36 -22 10 -23 16 -23 104 0 135 12 427 18 427 3 0 112 -66 243 -147z m949
-128 c0 -3 -27 -5 -60 -5 l-60 0 0 45 0 46 60 -41 c33 -22 60 -43 60 -45z
m-1495 -143 l230 -130 3 -72 3 -71 -63 -27 c-135 -57 -317 -154 -376 -202
l-62 -50 0 158 c0 271 12 533 24 528 6 -2 115 -63 241 -134z m1325 -52 l0
-140 -439 0 c-400 0 -442 2 -470 18 -17 9 -31 19 -31 22 0 17 193 121 355 191
l110 48 238 0 237 1 0 -140z m471 0 l213 -140 -317 0 -317 0 0 140 0 140 104
0 105 0 212 -140z m127 76 c23 -36 77 -100 120 -142 42 -43 66 -71 52 -64 -30
16 -391 249 -404 262 -6 4 34 8 90 8 l100 0 42 -64z m462 -76 l0 -140 -95 0
-96 0 -107 108 c-59 59 -115 122 -125 140 l-18 32 220 0 221 0 0 -140z m-2026
-177 c-52 -22 -68 -15 -38 18 13 15 20 16 41 6 l26 -11 -29 -13z"/>
</g>
</svg>
