<?xml version="1.0" standalone="yes"?>
<svg xmlns="http://www.w3.org/2000/svg" width="314" height="371">
<!-- <path style="fill:#ffffff; stroke:none;" d="M0 0L0 371L314 371L314 0L0 0z"/>
--><path style="fill:#000000; stroke:none;" d="M246 22L211 58L155 115L121 151L129 154C106.364 181.797 79.3524 206.761 54.9105 233C45.6149 242.979 30.7778 253.61 25 266C62.7207 281.684 99.3844 300.003 137 316C145.931 319.798 154.79 323.904 164 326.996C166.427 327.811 171.819 330.284 173.762 327.394C176.718 322.998 167.738 318.472 165 316.861C150.043 308.062 136.827 299.035 128.809 283C115.102 255.591 119.521 221.434 127.424 193C130.555 181.738 136.026 170.469 138 159L176 177.258L213 194L141 269C176.29 289.598 215.831 305.274 253 322.231C261.844 326.265 270.797 330.596 280 333.757C282.349 334.564 288.183 336.31 289.248 332.697C290.521 328.383 282.783 324.893 280 323.203C267.6 315.67 256.742 308.448 248.699 296C231.668 269.641 236.376 236.999 242 208C246.417 209.812 265.105 220.901 268.762 215.397C270.691 212.493 267.025 209.553 264.981 208.093C260.593 204.96 247.198 200.426 246.363 194.535C245.773 190.37 249.305 183.893 250.692 180C255.53 166.419 264.047 153.722 268 140L228 178C224.696 168.907 220.282 160.661 218.46 151C212.862 121.316 220.757 89.8893 230.692 62C235.53 48.4194 244.047 35.7217 248 22L246 22z"/>
<path style="fill:#ffffff; stroke:none;" d="M227 51L165.999 113L131 149C138.99 149.119 144.023 138.399 150 134L141 154C160.395 162.075 178.807 172.585 198 181.139C202.852 183.301 212.641 190.418 217.995 188.644C229.064 184.975 216.387 166.941 214.428 160C207.541 135.589 211.334 109.156 217.373 85C219.697 75.7045 228.606 60.1576 227 51M130 162L69.9853 226L35 264L144 312C138.439 305.103 131.44 299.835 126.877 292C111.98 266.423 112.253 235.215 118.004 207C120.006 197.178 122.499 187.512 125.667 178C127.292 173.12 130.47 167.154 130 162M247 169C240.402 175.598 227.373 184.622 241 191L247 169M224 193L238 199C234.574 194.137 229.311 186.868 224 193M151 267C184.438 286.516 222.904 303.996 259 318C252.833 309.246 244.716 302.814 239.809 293C226.575 266.537 229.221 232.671 237 205C232.046 203.313 224.246 197.289 219 198.708C211.052 200.858 203.154 213.116 197.83 219C183.094 235.286 163.648 249.044 151 267M260 318L261 319L260 318z"/>
</svg>
