<?xml version="1.0" standalone="yes"?>
<svg xmlns="http://www.w3.org/2000/svg" width="770" height="371">
<!-- <path style="fill:#ffffff; stroke:none;" d="M0 0L0 371L770 371L770 0L0 0z"/>
--><path style="fill:#000000; stroke:none;" d="M278 70L276 124L208 124L176 123.351L152 109.85L86 72C86 128.344 82 184.654 82 241C82 254.283 79.9077 267.738 81.1698 281C81.4659 284.112 81.0281 292.239 84.2994 293.824C88.3909 295.807 92.8074 284.427 95.0941 282.039C105.278 271.407 119.93 264.583 133 258.258C146.566 251.694 163.084 242.925 178 240.329C188.164 238.56 199.692 240 210 240L273 240L273 277C273.001 280.16 272.055 287.086 276.184 288.248C280.084 289.347 286.191 276.719 289.004 274.174C301.883 262.52 319.191 254.78 335 248.001C345.331 243.571 356.877 237.265 368 235.329C379.412 233.342 392.422 235 404 235L476 235C477.792 215.223 508.53 204.088 524 196.781C535.867 191.176 549.153 184.431 562 181.529C576.107 178.342 593.544 181 608 181L703 181L703 175L607 175L562 174.501L518 149.424L489 132.579L476 123L404 123L370 122.362L342 106.799L278 70z"/>
<path style="fill:#ffffff; stroke:none;" d="M283 80L281 169L318 143.969L361 125C336.063 109.738 309.838 91.5645 283 80M91 82L89 171L90 171C105.562 149.091 143.319 136.044 168 128L168 126L91 82M283 181L340 214.281L366 228.582L399 229L469 229L468.985 184L471 128L405 128C394.057 128 381.788 126.451 371 128.329C356.158 130.912 340.681 139.764 327 145.861C311.559 152.742 287.306 163.04 283 181M88 184L88 185L149 220.011L175 234.502L207 235L273 235L276 130L211 130C200.473 130 188.316 128.33 178 130.518C152.758 135.871 119.465 151.435 100.004 168.3C94.7213 172.878 92.8831 179.508 88 184M476 133L474 221L502 200.862L553 178C546.448 171.243 536.077 167.183 528 162.397C511.822 152.809 493.924 138.672 476 133M281 187L279 275L280 275C296.586 251.94 333.264 243.016 358 232L329 214.397L281 187M89 192L87 281L88 281C107.54 255.884 141.81 252.926 167 237L89 192z"/>
</svg>
