<?xml version="1.0" standalone="no"?>
<!DOCTYPE svg PUBLIC "-//W3C//DTD SVG 20010904//EN"
 "http://www.w3.org/TR/2001/REC-SVG-20010904/DTD/svg10.dtd">
<svg version="1.0" xmlns="http://www.w3.org/2000/svg"
 width="320.000000pt" height="371.000000pt" viewBox="0 0 320.000000 371.000000"
 preserveAspectRatio="xMidYMid meet">
<metadata>
Created by potrace 1.16, written by Peter Selinger 2001-2019
</metadata>
<g transform="translate(0.000000,371.000000) scale(0.100000,-0.100000)"
fill="#000000" stroke="none">
<path d="M355 3401 c-31 -5 -40 -10 -40 -26 0 -15 12 -24 45 -35 25 -8 62 -25
82 -38 59 -37 182 -175 258 -288 l70 -105 0 -479 0 -479 -47 -3 c-40 -2 -49
-7 -51 -24 -3 -23 19 -34 69 -34 53 0 186 -42 286 -89 148 -71 308 -178 456
-304 l57 -49 0 -600 0 -599 23 3 22 3 3 602 2 601 436 239 437 238 -67 3 -66
3 0 487 0 488 227 234 226 235 -69 7 c-81 9 -2300 17 -2359 9z m1493 -60 c12
-7 -21 -46 -159 -188 -161 -167 -175 -179 -189 -163 -8 10 -43 58 -78 108 -35
50 -94 122 -131 161 -62 64 -66 72 -52 87 14 15 44 16 305 10 159 -4 296 -10
304 -15z m-730 -9 c22 -13 19 -17 -143 -185 -92 -95 -170 -173 -175 -175 -4
-2 -30 30 -56 70 -68 102 -155 205 -221 261 l-56 48 314 -3 c235 -2 320 -6
337 -16z m1492 10 l55 -7 -180 -186 c-143 -148 -182 -183 -190 -171 -99 144
-145 202 -221 280 l-91 92 286 -1 c157 -1 311 -4 341 -7z m-601 -88 c59 -53
156 -174 225 -281 l46 -72 0 -482 0 -482 -92 7 c-50 3 -221 6 -380 6 l-288 0
0 478 0 478 201 207 c225 232 200 220 288 141z m-659 -144 c31 -41 71 -98 89
-126 l31 -51 0 -492 0 -491 -325 0 -325 0 0 481 0 481 182 190 181 189 55 -53
c30 -29 80 -87 112 -128z m734 -1219 l179 -6 -352 -193 -353 -192 -56 48
c-146 125 -343 253 -490 318 l-77 33 485 -1 c267 0 566 -3 664 -7z"/>
</g>
</svg>
