<?xml version="1.0" standalone="no"?>
<!DOCTYPE svg PUBLIC "-//W3C//DTD SVG 20010904//EN"
 "http://www.w3.org/TR/2001/REC-SVG-20010904/DTD/svg10.dtd">
<svg version="1.0" xmlns="http://www.w3.org/2000/svg"
 width="529.000000pt" height="371.000000pt" viewBox="0 0 529.000000 371.000000"
 preserveAspectRatio="xMidYMid meet">
<metadata>
Created by potrace 1.16, written by Peter Selinger 2001-2019
</metadata>
<g transform="translate(0.000000,371.000000) scale(0.100000,-0.100000)"
fill="#000000" stroke="none">
<path d="M988 2817 c-406 -287 -524 -375 -515 -384 14 -13 346 -241 540 -370
l128 -85 -3 -90 -3 -91 -392 -276 -393 -276 28 -23 c38 -32 759 -513 803 -536
20 -11 44 -16 53 -13 33 13 16 45 -59 107 -71 60 -122 124 -144 183 -52 136
-23 341 77 551 l37 78 -3 -349 c-3 -317 -2 -352 14 -367 23 -24 37 -16 53 33
29 90 180 205 436 330 77 38 192 89 256 115 l116 46 1042 -2 1043 -3 -22 -27
c-12 -15 -18 -32 -15 -38 9 -15 475 -414 593 -508 128 -102 136 -106 156 -86
9 8 16 17 16 19 0 3 -34 42 -76 87 -135 149 -174 258 -181 509 -4 140 8 333
22 347 1 2 42 -29 91 -67 49 -40 97 -71 110 -71 45 0 34 29 -40 111 -40 45
-86 106 -102 135 l-29 54 23 87 c13 48 42 140 66 204 23 65 39 116 35 113 -5
-2 -43 -52 -85 -109 -42 -58 -80 -102 -85 -99 -15 9 -10 309 6 423 22 147 65
323 119 476 25 71 44 131 42 133 -2 2 -134 -173 -294 -388 l-289 -390 -1092 0
-1091 0 -365 228 c-200 125 -365 231 -365 237 0 20 128 220 202 316 43 54 74
99 70 99 -4 -1 -244 -168 -534 -373z m297 127 c-9 -15 -33 -53 -52 -85 -30
-52 -36 -58 -54 -49 -18 10 -19 7 -19 -38 0 -32 -13 -85 -35 -147 -46 -125
-69 -259 -61 -347 6 -67 36 -162 64 -205 8 -13 10 -23 5 -23 -9 0 -290 187
-491 327 -85 59 -92 66 -75 78 319 227 729 515 732 515 2 0 -4 -12 -14 -26z
m3290 -245 c-42 -175 -58 -302 -58 -474 0 -88 4 -178 10 -201 10 -38 8 -44
-23 -85 -18 -24 -38 -44 -45 -44 -17 0 -329 268 -326 281 2 12 461 633 465
629 1 -1 -9 -49 -23 -106z m-2992 -202 c185 -115 335 -212 333 -214 -2 -3 -70
-33 -149 -67 -158 -69 -284 -134 -390 -202 -37 -24 -71 -44 -76 -44 -5 0 -32
22 -60 48 l-51 48 0 95 c1 172 17 536 24 548 4 6 13 8 19 5 7 -4 164 -102 350
-217z m-440 -147 c-4 -123 -9 -166 -16 -149 -14 36 -12 185 2 262 8 37 15 66
17 64 2 -2 1 -82 -3 -177z m2971 -102 c-4 -7 -18 -27 -31 -44 -13 -17 -23 -34
-23 -37 0 -3 82 -76 183 -163 100 -87 182 -161 182 -165 0 -4 -63 -92 -140
-197 l-140 -191 -1079 0 -1078 -1 -334 207 c-261 163 -329 210 -313 215 10 4
19 17 19 28 0 43 74 96 262 189 101 50 228 108 283 130 l100 40 1058 1 c844 0
1057 -3 1051 -12z m450 -364 c4 -15 4 -40 1 -56 l-7 -30 -24 23 c-29 27 -29
33 -6 64 22 31 28 31 36 -1z m-2975 -246 c152 -94 291 -181 308 -193 l33 -22
-103 -43 c-259 -110 -478 -235 -578 -330 l-62 -59 6 349 7 350 42 65 c27 40
48 63 57 60 7 -3 138 -82 290 -177z m2927 133 l31 -28 -14 -89 c-21 -126 -20
-400 0 -490 18 -80 53 -178 75 -212 8 -12 13 -24 11 -27 -5 -4 -482 402 -487
414 -1 4 10 24 25 44 16 20 91 122 168 226 77 105 144 191 150 191 5 0 24 -13
41 -29z m-3424 -174 c-149 -299 -177 -513 -89 -690 18 -37 30 -66 26 -65 -13
5 -579 390 -583 397 -3 4 154 118 347 254 194 136 353 243 355 237 3 -7 -23
-66 -56 -133z"/>
</g>
</svg>
