<?xml version="1.0" standalone="no"?>
<!DOCTYPE svg PUBLIC "-//W3C//DTD SVG 20010904//EN"
 "http://www.w3.org/TR/2001/REC-SVG-20010904/DTD/svg10.dtd">
<svg version="1.0" xmlns="http://www.w3.org/2000/svg"
 width="570.000000pt" height="371.000000pt" viewBox="0 0 570.000000 371.000000"
 preserveAspectRatio="xMidYMid meet">
<metadata>
Created by potrace 1.16, written by Peter Selinger 2001-2019
</metadata>
<g transform="translate(0.000000,371.000000) scale(0.100000,-0.100000)"
fill="#000000" stroke="none">
<path d="M1497 2928 c-4 -122 -9 -223 -11 -225 -2 -2 -146 -6 -320 -8 -174 -2
-321 -7 -326 -10 -20 -12 -9 -36 24 -56 59 -34 139 -183 210 -387 l36 -104 0
-544 0 -544 -260 195 c-144 108 -267 198 -274 201 -11 4 -15 -49 -21 -288 -4
-161 -8 -397 -9 -525 -1 -206 1 -234 16 -249 14 -14 20 -15 32 -4 9 7 16 19
16 27 0 30 45 100 97 149 95 92 393 280 401 255 2 -6 15 -11 28 -11 19 0 24 5
24 25 0 21 9 30 43 45 35 16 65 20 175 20 l132 0 0 -46 c0 -41 2 -45 23 -42
18 2 23 10 25 46 l3 42 200 0 199 0 0 -40 c0 -36 3 -40 25 -40 23 0 25 4 25
40 l0 40 1510 0 1510 0 0 30 0 30 -1365 0 c-751 0 -1365 4 -1365 9 0 15 106
109 171 151 35 23 122 71 193 106 l130 64 1068 0 1068 0 0 25 0 25 -1074 0
-1073 0 -201 142 -202 142 53 37 c28 21 115 71 192 111 l140 73 1080 5 1080 5
0 25 0 25 -1074 3 -1073 2 -180 127 -180 127 29 24 c39 32 187 116 276 157
l76 35 1080 0 1081 0 0 30 0 30 -1085 0 -1084 0 -260 185 c-143 102 -262 185
-264 185 -3 0 -8 -25 -12 -56 l-7 -56 -86 6 c-48 4 -172 8 -276 9 l-188 2 118
57 119 58 1475 2 1475 3 0 25 0 25 -1475 5 -1475 5 -206 133 c-113 72 -211
132 -216 132 -6 0 -12 -88 -16 -222z m278 -1 l114 -72 -97 -46 c-54 -25 -124
-62 -156 -83 -73 -47 -101 -43 -92 13 3 20 6 103 6 184 l0 148 55 -36 c31 -19
107 -68 170 -108z m944 -509 c23 -17 23 -17 -80 -68 -57 -29 -141 -77 -187
-106 l-83 -54 -36 24 -36 25 2 203 c1 112 4 217 7 235 l6 31 191 -137 c106
-75 203 -144 216 -153z m-1227 183 c11 -64 41 -81 59 -33 21 54 47 72 108 72
31 0 62 -4 69 -9 11 -7 -9 -52 -88 -206 l-103 -197 -47 118 c-25 66 -60 146
-78 180 l-31 61 20 32 c16 27 25 32 52 29 29 -3 32 -7 39 -47z m639 43 l65 -7
-99 -191 c-55 -105 -102 -194 -106 -198 -4 -4 -30 52 -59 125 -29 74 -69 159
-88 191 -52 87 -54 86 94 86 70 0 157 -3 193 -6z m-835 -36 l27 -26 -88 -169
c-48 -92 -90 -171 -94 -176 -4 -4 -29 50 -56 120 -27 69 -70 162 -96 205 l-48
79 164 -3 c163 -3 165 -3 191 -30z m944 -323 c-8 -159 -14 -463 -15 -675 -1
-212 -2 -447 -3 -522 l-2 -138 -105 0 -105 0 0 609 0 609 118 225 c81 157 118
219 121 204 2 -12 -2 -152 -9 -312z m-400 171 c26 -56 64 -149 84 -207 l36
-106 0 -596 0 -597 -200 0 -200 0 0 606 0 606 107 203 c58 113 111 202 116
198 5 -3 31 -51 57 -107z m-432 -41 c21 -49 53 -131 70 -182 l32 -91 0 -596 0
-596 -136 0 -136 0 -39 31 -39 31 0 573 0 573 39 74 c21 40 64 122 96 181 31
60 61 105 65 100 5 -4 26 -48 48 -98z m905 -282 c-20 -31 -23 -29 -23 12 0 32
2 34 19 23 17 -11 18 -14 4 -35z m245 -141 c89 -63 162 -116 162 -118 0 -2
-49 -28 -109 -59 -60 -31 -146 -81 -192 -111 -80 -54 -84 -55 -109 -41 -25 16
-25 17 -28 171 -1 93 1 156 7 156 5 0 12 14 16 31 8 38 63 101 79 92 6 -4 84
-58 174 -121z m74 -619 c43 -30 80 -58 83 -63 3 -5 -15 -18 -40 -29 -91 -40
-247 -134 -321 -192 l-75 -60 3 239 3 239 28 36 28 37 106 -76 c58 -42 141
-101 185 -131z m-1766 -205 l244 -183 0 -51 0 -52 -94 -51 c-141 -76 -272
-167 -348 -242 l-68 -66 0 202 c0 240 11 625 18 625 3 0 115 -82 248 -182z
m316 -243 c0 -5 -5 -11 -11 -13 -6 -2 -11 4 -11 13 0 9 5 15 11 13 6 -2 11 -8
11 -13z"/>
</g>
</svg>
