<?xml version="1.0" standalone="no"?>
<!DOCTYPE svg PUBLIC "-//W3C//DTD SVG 20010904//EN"
 "http://www.w3.org/TR/2001/REC-SVG-20010904/DTD/svg10.dtd">
<svg version="1.0" xmlns="http://www.w3.org/2000/svg"
 width="400.000000pt" height="371.000000pt" viewBox="0 0 400.000000 371.000000"
 preserveAspectRatio="xMidYMid meet">
<metadata>
Created by potrace 1.16, written by Peter Selinger 2001-2019
</metadata>
<g transform="translate(0.000000,371.000000) scale(0.100000,-0.100000)"
fill="#000000" stroke="none">
<path d="M2850 3353 c-65 -10 -71 -13 -68 -36 2 -14 13 -24 36 -31 65 -18 144
-118 234 -294 26 -53 48 -99 48 -104 0 -4 -388 -8 -863 -8 l-863 0 -63 64 -64
64 22 29 23 28 -24 6 c-12 4 -41 8 -63 8 -37 1 -51 11 -165 117 l-125 115 -3
-111 -3 -110 -252 0 c-197 0 -257 -3 -272 -14 -27 -19 -13 -40 36 -55 86 -26
202 -172 329 -413 l60 -115 0 -716 c0 -395 -3 -717 -7 -717 -5 0 -69 38 -143
85 l-135 84 -7 -32 c-10 -44 -23 -806 -14 -840 10 -43 43 -36 65 16 35 79 139
156 346 257 66 32 160 75 209 94 l90 36 1018 0 1018 0 0 -190 0 -190 25 0 25
0 0 1068 1 1067 228 405 229 405 -26 7 c-27 6 -715 29 -807 27 -27 -1 -61 -3
-75 -6z m618 -60 c180 -5 202 -8 197 -22 -17 -45 -381 -679 -386 -673 -4 4
-32 72 -64 152 -92 233 -181 399 -267 503 l-39 47 178 0 c98 0 269 -3 381 -7z
m-2443 -153 l59 -60 -62 0 -62 0 0 60 c0 33 1 60 3 60 1 0 29 -27 62 -60z
m-207 -107 l82 -6 0 -197 0 -197 -31 -43 -31 -43 -40 79 c-81 160 -156 273
-242 362 l-50 52 114 0 c63 0 152 -3 198 -7z m345 -24 c8 -12 -14 -47 -102
-164 l-111 -148 0 129 c0 71 3 146 6 167 l7 38 95 -3 c74 -2 97 -7 105 -19z
m112 -100 l54 -51 -107 -71 c-59 -39 -144 -108 -189 -153 -79 -77 -83 -79 -83
-52 0 21 34 74 131 203 72 96 133 175 136 175 2 0 28 -23 58 -51z m1865 -106
c7 -16 34 -86 61 -157 l49 -128 0 -854 0 -854 -1024 0 -1024 0 -171 106 -171
106 0 735 c0 720 0 735 20 760 l20 26 0 -56 c0 -68 7 -87 31 -87 13 0 21 11
28 38 26 94 114 186 304 313 l118 79 873 0 873 0 13 -27z m-2207 -1888 l208
-128 -88 -37 c-209 -88 -372 -180 -455 -258 l-51 -47 7 334 c4 184 10 340 13
347 3 9 27 -1 81 -35 43 -26 171 -105 285 -176z"/>
<path d="M2828 2170 l-314 -381 -508 1 -507 0 -287 209 c-245 178 -288 206
-294 190 -4 -10 -10 -204 -14 -431 -5 -355 -4 -416 8 -432 21 -27 42 -15 56
30 24 83 170 196 404 315 l137 69 479 0 c264 0 482 -4 484 -8 6 -14 505 -396
632 -484 74 -51 100 -58 110 -31 5 11 -17 40 -73 98 -141 144 -177 256 -168
519 7 218 48 397 138 615 22 52 38 96 36 98 -2 2 -146 -168 -319 -377z m151
53 c-52 -180 -77 -416 -60 -554 11 -88 49 -214 76 -255 8 -13 15 -26 15 -29 0
-6 -273 199 -403 302 l-68 54 52 62 c29 34 131 158 228 275 96 116 176 212
177 212 2 0 -6 -30 -17 -67z m-1826 -245 c100 -73 206 -150 236 -171 l53 -39
-113 -60 c-149 -78 -266 -155 -330 -217 l-52 -50 6 232 c4 128 7 278 7 335 0
56 3 102 6 102 3 0 88 -59 187 -132z"/>
</g>
</svg>
