<?xml version="1.0" standalone="yes"?>
<svg xmlns="http://www.w3.org/2000/svg" width="156" height="371">
<!-- <path style="fill:#ffffff; stroke:none;" d="M0 0L0 371L156 371L156 0L0 0z"/>
--><path style="fill:#000000; stroke:none;" d="M79 340L85 340L85 187L85 140L85.51 117L101.67 92L143 31C112.278 28.5753 80.8356 28 50 28C43.7591 28 24.2529 25.0176 20.0471 30.5872C17.3334 34.1808 34.2112 43.1968 36.9961 46.0008C54.1011 63.2226 64.8424 87.1429 74.6944 109C84.0855 129.834 79 159.388 79 182L79 340z"/>
<path style="fill:#ffffff; stroke:none;" d="M34 34L34 35C55.7456 50.3179 72.5784 84.2675 81 109L83 109L132 36L34 34z"/>
</svg>
