<?xml version="1.0" standalone="no"?>
<!DOCTYPE svg PUBLIC "-//W3C//DTD SVG 20010904//EN"
 "http://www.w3.org/TR/2001/REC-SVG-20010904/DTD/svg10.dtd">
<svg version="1.0" xmlns="http://www.w3.org/2000/svg"
 width="485.000000pt" height="371.000000pt" viewBox="0 0 485.000000 371.000000"
 preserveAspectRatio="xMidYMid meet">
<metadata>
Created by potrace 1.16, written by Peter Selinger 2001-2019
</metadata>
<g transform="translate(0.000000,371.000000) scale(0.100000,-0.100000)"
fill="#000000" stroke="none">
<path d="M2129 2358 c-1 -57 -4 -171 -8 -254 l-6 -150 -385 248 c-212 136
-388 247 -391 248 -4 0 -10 -110 -15 -245 l-9 -245 -383 246 c-210 136 -384
245 -386 243 -9 -9 -27 -909 -19 -959 7 -45 12 -56 30 -58 16 -2 24 4 33 32
28 86 114 161 310 271 95 53 345 168 391 180 l25 6 -4 -198 c-4 -228 3 -287
34 -291 17 -2 25 7 39 45 34 88 153 182 370 293 86 44 346 160 359 160 1 0 1
-89 -1 -197 -5 -227 2 -287 33 -291 17 -2 25 7 39 44 10 26 38 67 61 91 83 83
302 208 546 312 l95 41 652 0 651 0 0 25 0 25 -651 0 -651 0 -373 240 c-206
132 -377 240 -380 240 -3 0 -6 -46 -6 -102z m409 -213 c154 -99 281 -182 282
-185 0 -4 -17 -12 -37 -19 -75 -26 -360 -170 -435 -220 -42 -28 -102 -75 -133
-103 l-57 -51 6 164 c3 90 9 271 12 401 l6 238 37 -23 c21 -12 164 -103 319
-202z m-1626 14 c172 -111 315 -203 317 -205 2 -2 -25 -16 -60 -31 -219 -93
-438 -218 -536 -307 l-53 -48 0 214 c0 203 10 578 16 578 1 0 143 -91 316
-201z m804 -10 c164 -105 301 -193 303 -195 2 -2 -25 -16 -60 -31 -121 -51
-334 -161 -413 -213 -43 -28 -103 -74 -133 -103 l-55 -51 6 174 c3 96 9 277
12 402 6 210 8 227 23 218 9 -5 152 -95 317 -201z"/>
</g>
</svg>
