<?xml version="1.0" standalone="yes"?>
<svg xmlns="http://www.w3.org/2000/svg" width="350" height="371">
<path style="fill:#ffffff; stroke:none;" d="M0 0L0 371L350 371L350 0L0 0z"/>
<path style="fill:#000000; stroke:none;" d="M54 38L53 126C50.3842 126 33.3823 124.499 37.0864 130.509C39.2074 133.951 45.8879 135.093 48.9414 138.105C54.1424 143.235 50.6784 152.352 59 153L59 149L72.3009 169L73 198L73 260L55 247C50.0043 267.984 53 294.397 53 316C53 320.472 50.6488 335.427 55.4144 337.824C59.1498 339.703 64.7693 326.459 67.0934 324.039C78.4194 312.246 96.5377 301.339 112 295.966C125.714 291.201 146.507 295 161 295L268 295L268 332L274 332L274 189L274 145L274.649 124L288.576 101L325 43C316.821 41.0526 308.323 42.4804 300 41.9105C280.804 40.5959 261.252 40 242 40C237.544 40 217.925 37.7474 216.921 44.0401C216.337 47.7 227.387 51.9959 229.83 54.3009C241.071 64.9068 247.338 79.8843 255 93L146 93C134.517 93 112.236 97.304 102.039 91.9722C96.5365 89.0948 92.1671 81.6867 88.2461 77C77.772 64.4803 67.135 47.6675 54 38z"/>
<path style="fill:#ffffff; stroke:none;" d="M231 46C246.531 68.051 263.377 89.3342 271 116L272 116L314 48L231 46M59 53L58 126C66.4632 125.725 70.3714 118.514 76 113.015C80.0468 109.061 93.3173 101.559 94.0787 95.8295C94.6071 91.853 88.392 86.7656 86.0802 84C77.4734 73.7035 69.1511 61.7879 59 53M72 126L116 127C106.303 140.779 85.4072 153.19 79.6034 169C75.5446 180.057 79 198.222 79 210L79 248C79 252.939 77.6222 260.436 80.0278 264.91C82.5592 269.619 88.8436 272.981 93 276.13C98.5951 280.368 104.402 286.554 111 289.146C118.25 291.994 129.281 290 137 290L268 290L268 166C268 144.429 271.217 121.344 259.176 102.148C256.423 97.7599 250.492 99 246 99L211 99L136 99C125.865 99 111.657 96.43 102 99.564C91.3782 103.011 78.2455 117.134 72 126M58.3333 132.667L58.6667 133.333L58.3333 132.667M76 162L77 162L104 132C95.0263 132 62.1946 126.697 62.8202 141C63.0977 147.344 72.2827 156.887 76 162M60 259L59 323C73.4163 311.716 86.8053 300.159 104 293C97.9485 285.093 83.0976 272.118 73 271C71.3116 265.11 65.4545 261.306 60 259z"/>
</svg>
