<?xml version="1.0" standalone="yes"?>
<svg xmlns="http://www.w3.org/2000/svg" width="402" height="371">
<path style="fill:#ffffff; stroke:none;" d="M0 0L0 371L402 371L402 0L0 0z"/>
<path style="fill:#000000; stroke:none;" d="M215 181L170.702 145.829L161.947 123L140 63L139 63L94.3495 118L77 143L64 136C64 161.692 62 187.337 62 213C62 218.222 59.5454 234.576 64.5949 237.914C68.5532 240.53 70.7625 233.196 72.1435 231C77.9708 221.732 88.7211 215.568 98 210.281C111.021 202.862 126.255 193.86 141 190.529C161.979 185.788 188.473 190 210 190L184 214.861L151 224.424L90 241C93.7071 247.776 103.602 251.649 110 255.681C126.579 266.131 143.191 276.52 160 286.6C163.616 288.769 179.31 300.498 182.928 295.393C185.3 292.046 180.163 286.953 179.005 284C176.63 277.941 177.608 269.291 178.59 263C180.715 249.397 183.896 230.576 191.699 219C197.72 210.067 207.396 202.604 215 195L215 340L221 340L221 194L290 246.884L323 271L326 266L258 213.87L227 191L227 190L336 190L336 184L226 184C251.84 158.16 278.179 132.821 304 107C309.97 101.03 316.27 95.2553 321.941 89C323.461 87.3229 326.662 83.9861 324.338 81.662C321.691 79.0156 317.755 83.3434 316 85.0193C309.871 90.8709 303.992 97.008 298 103C272.497 128.503 246.482 153.518 221 179L221 137L221.728 117L236.28 95L265.667 52L279 31C248.474 27.1421 215.783 28 185 28C180.128 28 156.96 25.3636 155.921 32.0903C155.326 35.944 166.381 39.3492 169 41.4684C179.82 50.2221 187.313 63.0898 194.15 75C201.472 87.7572 211.708 103.437 214.621 118C218.52 137.491 215 161.105 215 181z"/>
<path style="fill:#ffffff; stroke:none;" d="M171 34C190.348 57.9995 204.727 80.9879 218 109L239.001 80L268 36L171 34M137 75C121.982 94.9278 100.151 113.615 89 136C113.008 131.543 139.928 138.501 163 145L145.808 96L137 75M82 147L121 172.053L140 183.49L162 184L208 184C184.499 157.52 153.924 146.586 120 141.87C108.452 140.264 90.5987 136.996 82 147M70 147L68 225L69 225C82.0281 206.887 112.368 194.025 133 187L133 186L70 147M104 244L142 268.424L173 286C168.845 263.62 178.072 243.301 183 222C157.458 227.855 128.051 233.652 104 244z"/>
</svg>
