<?xml version="1.0" standalone="no"?>
<!DOCTYPE svg PUBLIC "-//W3C//DTD SVG 20010904//EN"
 "http://www.w3.org/TR/2001/REC-SVG-20010904/DTD/svg10.dtd">
<svg version="1.0" xmlns="http://www.w3.org/2000/svg"
 width="558.000000pt" height="371.000000pt" viewBox="0 0 558.000000 371.000000"
 preserveAspectRatio="xMidYMid meet">
<metadata>
Created by potrace 1.16, written by Peter Selinger 2001-2019
</metadata>
<g transform="translate(0.000000,371.000000) scale(0.100000,-0.100000)"
fill="#000000" stroke="none">
<path d="M4050 3421 c-121 -9 -133 -37 -36 -76 95 -39 183 -135 301 -331 36
-60 65 -112 65 -116 0 -5 -647 -8 -1437 -8 l-1438 0 -370 238 c-223 144 -373
234 -376 228 -9 -15 -30 -859 -23 -916 10 -84 13 -92 37 -88 14 2 24 13 31 36
29 103 239 247 564 388 l147 64 1448 0 1448 0 67 -137 67 -138 3 -185 3 -185
-138 2 c-76 2 -238 6 -360 9 l-223 6 0 32 c1 24 38 83 165 261 91 127 165 233
165 236 0 18 -1710 36 -1754 19 -39 -14 -32 -38 17 -59 46 -20 84 -59 145
-148 50 -73 152 -276 152 -302 0 -18 -7 -18 -152 -13 l-153 5 -433 193 c-238
107 -436 194 -440 194 -10 0 -3 -57 44 -388 19 -133 34 -245 34 -247 0 -3 -9
-1 -19 5 -39 20 -44 13 -37 -47 22 -185 88 -619 104 -681 14 -54 15 -72 6 -68
-7 3 -41 8 -75 12 -50 6 -69 13 -98 39 -20 17 -168 150 -330 294 -162 144
-297 258 -301 254 -18 -20 -170 -861 -170 -942 0 -71 31 -78 63 -14 49 94 278
201 615 289 73 19 147 34 165 33 18 0 700 -107 1517 -237 l1485 -238 3 -192 2
-192 30 0 30 0 0 1123 0 1124 286 417 c157 230 284 420 281 422 -12 12 -1007
34 -1127 25z m986 -70 l52 -6 -252 -367 c-138 -202 -254 -368 -258 -368 -5 0
-8 5 -8 12 0 6 -40 93 -90 193 -106 216 -224 398 -317 491 l-67 67 444 -7
c245 -5 468 -11 496 -15z m-3906 -281 c157 -100 291 -188 298 -194 10 -10 -1
-18 -55 -41 -215 -90 -427 -211 -519 -297 l-64 -60 0 183 c0 101 3 282 7 402
l6 217 21 -13 c12 -8 149 -96 306 -197z m1775 -366 c17 -2 41 -13 54 -23 l24
-18 -113 -162 c-63 -88 -116 -161 -119 -161 -4 0 -25 38 -49 84 -55 109 -111
195 -162 250 l-41 44 188 -4 c103 -3 202 -7 218 -10z m567 -7 l27 -12 -126
-177 -127 -177 -48 96 c-27 52 -71 128 -98 168 -46 67 -48 74 -34 94 15 20 22
21 197 21 120 -1 191 -5 209 -13z m454 4 l141 -6 -124 -175 c-68 -96 -128
-179 -133 -184 -5 -5 -27 27 -51 75 -51 103 -130 227 -163 258 -14 13 -23 28
-20 32 6 10 134 10 350 0z m-339 -103 c85 -112 183 -305 183 -359 l0 -32 -137
6 c-75 4 -188 7 -251 7 l-114 0 4 33 c3 21 48 94 134 214 71 101 132 183 135
183 4 0 25 -24 46 -52z m-486 -100 c58 -100 119 -232 119 -258 0 -22 -2 -23
-77 -16 -42 3 -143 6 -225 6 -144 0 -148 1 -148 21 0 12 55 99 123 195 l122
173 22 -25 c12 -13 41 -57 64 -96z m-1141 -108 c162 -73 315 -142 340 -152
l45 -20 -175 -60 c-186 -63 -329 -126 -404 -178 -51 -34 -80 -34 -89 3 -8 33
-77 522 -77 546 0 25 -41 41 360 -139z m698 -210 l62 0 0 -282 0 -283 -147 6
-148 5 -320 145 c-176 80 -320 149 -319 154 4 37 360 183 629 258 11 3 56 4
100 2 44 -3 108 -5 143 -5z m405 -7 l157 -6 0 -285 0 -284 -31 6 c-17 3 -119
6 -225 6 l-194 0 0 285 0 285 68 0 c37 0 138 -3 225 -7z m609 -13 l98 0 0
-287 0 -286 -97 6 c-54 4 -167 7 -250 7 l-153 0 0 287 0 286 152 -6 c83 -4
195 -7 250 -7z m736 -16 l142 -6 0 -279 0 -279 -148 0 c-82 0 -244 3 -360 7
l-212 6 0 283 0 282 218 -4 c119 -3 281 -7 360 -10z m-2760 -270 c16 -54 34
-70 56 -49 9 9 16 23 16 30 0 8 4 16 9 20 9 5 607 -257 623 -273 4 -4 -38 -23
-95 -41 -245 -79 -418 -158 -503 -227 l-42 -34 -12 67 c-9 57 -54 361 -76 523
-7 54 7 44 24 -16z m-438 -429 c129 -115 241 -214 248 -220 10 -9 -11 -18 -95
-40 -247 -65 -480 -158 -565 -226 -25 -20 -38 -25 -38 -16 0 28 100 582 132
731 l10 48 37 -34 c20 -19 142 -128 271 -243z m1418 119 l92 -7 0 -253 0 -254
25 0 25 0 0 255 0 255 103 0 c57 0 159 -3 225 -7 l122 -6 0 -249 0 -249 23 3
22 3 3 248 2 247 69 0 c37 0 150 -3 249 -7 l182 -6 0 -244 0 -243 30 0 30 0 0
245 0 245 268 -5 c147 -3 309 -8 360 -11 l92 -6 0 -384 c0 -211 -3 -384 -7
-384 -12 -1 -2807 443 -2812 446 -2 2 6 22 18 46 42 87 236 182 596 293 117
36 141 39 283 29z"/>
</g>
</svg>
