<?xml version="1.0" standalone="yes"?>
<svg xmlns="http://www.w3.org/2000/svg" width="841" height="371">
<!-- <path style="fill:#ffffff; stroke:none;" d="M0 0L0 371L841 371L841 0L0 0z"/>
--><path style="fill:#000000; stroke:none;" d="M353 24C352.998 38.5175 339.412 41.7734 328 48.1396C303.191 61.9801 276.705 74.3665 253 90C259.642 66.42 272.091 50.7018 284 30L258 43.2307L191 80L219 33L181 53.1396L118 88C121.736 74.833 127.21 62.4936 134.695 51C138.876 44.5809 144.885 38.9888 148 32L104 55.6944L41 91C47.6731 99.1976 58.4876 104.944 67 111.151C85.5347 124.666 104.316 137.836 123 151.141C129.458 155.74 136.054 160.691 143 164.528C144.922 165.589 149.082 167.656 150.338 164.551C152.79 158.489 136.612 148.641 133.015 144.996C119.187 130.984 116 114.926 116 96C141.361 116.112 168.639 134.088 195 152.859C201.027 157.15 207.348 162.176 214 165.441C215.969 166.408 220.337 167.855 221.248 164.681C222.97 158.684 204.869 147.145 201.174 143C189.046 129.4 187 114.428 187 97C212.35 114.244 236.966 132.713 262 150.424C267.781 154.514 273.625 159.151 279.999 162.29C281.92 163.236 286.16 164.907 287.029 161.681C288.694 155.505 271.843 144.979 268.039 141C256.261 128.68 252 113.682 252 97C274.474 114.823 298.589 130.861 322 147.424C331.555 154.185 343.34 165.745 355 168C347.373 177.205 333.091 183.65 323 190.053C302.159 203.278 281.538 216.975 261 230.667C251.647 236.902 234.193 243.836 229 254C261.319 273.948 290.748 299.382 322 321.025C330.238 326.73 338.584 332.212 346.942 337.731C349.34 339.315 351.367 344.181 354.17 344.534C357.646 344.971 366.6 329.408 370 326.616C384.607 314.619 406.338 300.806 425 296.529C442.348 292.554 464.197 296 482 296L601 296L601 341L607 341L607 273C632.14 292.324 660.125 309.596 687 326.424C697.127 332.766 708.607 343.709 721 344C720.355 335.439 712.04 331.524 706 326.536C699.318 321.018 693.877 313.905 690.313 306C673.689 269.124 705.421 235.087 724 207C711.168 209.474 697.34 220.681 686 227.15C659.706 242.15 633.073 256.624 607 272L607 173C607 156.477 602.944 133.857 607.51 118C609.071 112.579 613.592 108.091 616 103C641.815 120.415 667.607 138.051 694 154.576C700.196 158.455 706.374 163.074 713 166.174C715.087 167.151 719.119 168.77 720.338 165.693C721.84 161.901 716.385 158.372 713.999 156.449C705.36 149.486 696.443 142.131 691.377 132C679.845 108.94 689.446 81.5125 702 61C711.095 80.2302 726.016 98.0197 731.39 119C733.288 126.409 732 135.387 732 143L732 190L732 342L738 342L738 189L738 142L738.51 119L751.999 98L781.344 55L796 32C764.664 32 733.398 30 702 30C696.841 30 674.511 27.0422 672.752 33.1736C671.853 36.3045 688.027 44.9308 691 47L691 48L632 81C642.532 65.3882 658.331 48.5953 665 31C633.715 30.7411 602.311 28 571 28C563.569 28 556.387 28.2692 549 28.9151C546.663 29.1195 542.411 28.9287 541.921 32.0903C541.32 35.9767 552.358 39.4462 555 41.5185C564.531 48.9935 572.845 61.1014 578 72L477 72C462.826 72 443.613 75.4097 430 71.49C423.06 69.4917 416.034 63.2628 410 59.3434C392.691 48.1004 372.653 30.2627 353 24z"/>
<path style="fill:#ffffff; stroke:none;" d="M358 34L357 112L358 112C370.664 94.7932 400.788 80.7782 421 75L400 60.3079L358 34M557 34C575.146 58.7513 592.65 80.7442 604 110L605 110C607.393 105.702 612.836 100.335 607 97C626.597 80.8849 642.247 58.3864 655 36L557 34M688 36L697 45L698 45L712 37C705.362 34.0202 694.91 33.9575 688 36M735 111L755.424 82L785 38C771.512 34.0131 752.148 36 738 36C732.692 36 725.081 34.6242 720.089 36.6034C715.296 38.504 706.372 49.6988 706.262 55C706.15 60.3975 712.968 67.4491 715.573 72C722.821 84.6627 728.763 97.8363 735 111M351 39C332.174 64.4009 312.448 100.148 328.377 132C333.211 141.667 340.85 148.919 349 155.754C352.475 158.668 358.521 162.727 357.789 168C357.093 173.017 351.521 178.048 348.64 182C342.914 189.859 337.91 198.439 333.309 207C311.649 247.309 304.965 303.39 351 330L353 242L381 261L382 100C375.062 103.863 367.407 108.762 362.39 115.015C360.374 117.528 358.495 124.763 354.976 125.369C349.129 126.376 351 109.185 351 106C351 94.1351 350.046 81.8123 351.17 70C352.017 61.0934 354.522 47.3934 351 39M263 47C241.439 62.3498 213.422 77.7784 189 88L189 91L257 139C249.814 119.253 243.049 104.598 248.735 83C251.653 71.914 262.683 57.6905 263 47M52 93L121 142C118.013 133.792 113.235 126.729 111.45 118C106.41 93.3535 116.908 72.6159 127 51L77 77.6944L52 93M197 51L123 92L123 94L192 143C187.133 129.626 180.982 119.823 181 105C181.007 98.9836 183.613 92.7728 177 90L177 88C186.525 84.4671 188.014 71.4718 192.247 63C194.099 59.2942 197.045 55.1891 197 51M333 52C310.347 66.9393 283.915 82.2639 259 93L259 95L329 144C316.877 123.862 314.113 103.573 321.344 81C323.938 72.9039 333.76 60.0123 333 52M620 97L620 98L663 127L692 145C675.726 115.652 678.172 83.852 698 56C692.714 51.0079 683.21 59.3189 678 62.2809C660.219 72.3899 633.75 81.8444 620 97M578 72L578 77L478 77L430 77.5286L388 96L388 98C402.04 105.998 414.84 116.913 428 126.291C433.125 129.943 438.897 135.684 445 137.487C459.073 141.643 479.314 138 494 138L601 138C601 116.184 594.35 88.1747 578 72M631 81L632 82L631 81M388 105L386 174C403.127 161.937 418.276 149.212 438 141L438 140L388 105M390 180C401.999 188.619 414.1 197.128 426 205.884C431.652 210.043 438.162 216.519 445 218.49C459.17 222.574 479.242 219 494 219L601 219L601 144L493 144C477.926 144 459.729 141.206 445 144.39C426.907 148.302 400.534 165.046 390 180z"/>
<path style="fill:#000000; stroke:none;" d="M183 167L53 252L53 253C82.9576 276.774 114.674 298.793 146 320.72C153.502 325.971 160.975 331.683 169 336.123C171.018 337.239 175.951 339.983 177.338 336.551C178.617 333.388 174.947 330.004 172.981 328.09C166.771 322.043 159.907 316.701 154.326 310C140.939 293.93 137.968 271.953 142.004 252C146.279 230.866 155.064 211.25 166.425 193C170.46 186.52 183.372 174.377 183 167z"/>
<path style="fill:#ffffff; stroke:none;" d="M356 168L357 169L356 168M388 186L386 255L438 222C424.262 208.733 404.68 195.295 388 186M160 189L64 252L64 254L149 315C146.214 307.65 141.069 301.585 138.516 294C132.161 275.117 134.204 253.787 140.025 235C143.371 224.204 148.204 214.079 153.247 204C155.484 199.529 160.01 194.021 160 189M336 189L239 252L267 273.873L326 316C321.796 308.613 316.875 302.155 314.079 294C306.363 271.5 310.707 246.64 319.203 225C323.444 214.199 334.887 200.116 336 189M601 290L601 225L490 225C470.805 225 450.504 222.002 433 230.753C420.515 236.995 407.305 243.492 397.001 253.09C394.159 255.737 388.321 260.43 388.998 264.907C389.628 269.075 396.887 272.374 400 274.576C412.306 283.278 420.663 290 436 290L601 290M700 226L619 272L619 274L692 322C681.55 299.905 676.664 282.168 685.436 258C688.776 248.799 700.019 235.237 700 226M358 253L357 330L358 330C372.631 311.621 396.458 304.363 416 293C400.915 278.551 376.861 261.962 358 253z"/>
</svg>
