<?xml version="1.0" standalone="yes"?>
<svg xmlns="http://www.w3.org/2000/svg" width="963" height="371">
<!-- <path style="fill:#ffffff; stroke:none;" d="M0 0L0 371L963 371L963 0L0 0z"/>
--><path style="fill:#000000; stroke:none;" d="M471 70L469 124L401 124L369 123.351L345 109.85L279 72L277 124L210 124C200.504 124 188.129 126.09 179 123.351C170.997 120.95 163.205 114.606 156 110.424C133.96 97.6329 110.911 79.7541 87 71C87 127.603 83.091 184.421 83 241L83 281C83.0012 284.149 82.0038 292.089 86.2346 293.168C89.8165 294.082 96.4046 281.523 99.0008 279.04C110.717 267.835 127.323 260.398 142 253.861C153.738 248.634 167.267 241.452 180 239.326C190.206 237.621 201.66 239 212 239L275 239C275 252.93 272.848 267.107 274.17 281C274.466 284.112 274.028 292.239 277.299 293.824C281.391 295.807 285.807 284.427 288.094 282.039C298.278 271.407 312.93 264.583 326 258.258C339.566 251.694 356.084 242.925 371 240.329C381.164 238.56 392.692 240 403 240L466 240L466 277C466.001 280.16 465.055 287.086 469.184 288.248C473.084 289.347 479.191 276.719 482.004 274.174C494.883 262.52 512.191 254.78 528 248.001C538.331 243.571 549.877 237.265 561 235.329C572.412 233.342 585.422 235 597 235L669 235C670.792 215.223 701.53 204.088 717 196.781C728.867 191.175 742.152 184.431 755 181.529C769.107 178.342 786.544 181 801 181L896 181L896 175L800 175L755 174.501L711 149.424L682 132.579L669 123L597 123L563 122.362L535 106.799L471 70z"/>
<path style="fill:#ffffff; stroke:none;" d="M476 80L474 169L511 143.969L554 125C529.063 109.738 502.838 91.5645 476 80M93 81L91 169L137 140.258L170 126L93 81M284 82L282 171L283 171C298.562 149.091 336.319 136.044 361 128L361 126L284 82M476 181L533 214.281L559 228.582L592 229L662 229L661.985 184L664 128L598 128C587.057 128 574.788 126.451 564 128.329C549.158 130.912 533.681 139.764 520 145.861C504.559 152.742 480.306 163.04 476 181M90 184L149 218.281L176 233.362L208 234L275 234L277 129C245.995 129 211.661 124.8 181 129.21C170.606 130.705 159.585 136.586 150 140.719C125.653 151.217 104.11 161.104 90 184M281 184L281 185L342 220.011L368 234.502L400 235L466 235L469 130L404 130C393.473 130 381.316 128.33 371 130.518C345.758 135.871 312.465 151.435 293.004 168.3C287.721 172.878 285.883 179.508 281 184M669 133L667 221L695 200.862L746 178C739.448 171.242 729.077 167.183 721 162.397C704.822 152.809 686.924 138.672 669 133M474 187L472 275L473 275C489.586 251.94 526.264 243.017 551 232L522 214.397L474 187M91 192L89 279L133 251.309L168 236L117 206.15L91 192M282 192L280 281L281 281C300.54 255.884 334.81 252.926 360 237L282 192z"/>
</svg>
