<?xml version="1.0" standalone="no"?>
<!DOCTYPE svg PUBLIC "-//W3C//DTD SVG 20010904//EN"
 "http://www.w3.org/TR/2001/REC-SVG-20010904/DTD/svg10.dtd">
<svg version="1.0" xmlns="http://www.w3.org/2000/svg"
 width="388.000000pt" height="371.000000pt" viewBox="0 0 388.000000 371.000000"
 preserveAspectRatio="xMidYMid meet">
<metadata>
Created by potrace 1.16, written by Peter Selinger 2001-2019
</metadata>
<g transform="translate(0.000000,371.000000) scale(0.100000,-0.100000)"
fill="#000000" stroke="none">
<path d="M2553 3401 c-35 -16 -29 -47 10 -60 102 -34 243 -291 378 -691 l39
-114 0 -958 0 -958 -315 0 -315 0 0 463 1 462 179 190 179 190 -186 7 c-102 4
-187 9 -188 10 -1 2 -113 184 -249 404 l-246 402 -1 188 c-1 104 -4 225 -7
270 l-7 80 -195 -137 c-232 -164 -284 -208 -275 -230 4 -12 21 -15 68 -15 52
0 74 -6 137 -38 41 -21 111 -62 155 -91 l81 -54 238 -386 c130 -213 235 -389
233 -392 -3 -2 -159 -4 -347 -5 -273 0 -345 3 -355 14 -6 7 -62 95 -123 196
l-112 182 -1 173 c-1 94 -4 216 -8 269 l-6 97 -194 -137 c-229 -162 -292 -215
-274 -233 7 -7 38 -13 70 -13 71 -1 135 -30 272 -119 l97 -64 110 -179 110
-179 -62 -5 c-71 -6 -95 -20 -74 -45 7 -8 20 -15 29 -15 28 0 103 -53 150
-106 24 -27 70 -88 102 -136 l59 -87 0 -466 0 -465 -243 0 -243 0 -343 186
c-188 102 -344 184 -346 182 -8 -8 -27 -689 -21 -741 10 -79 42 -89 70 -22 8
18 38 52 68 75 62 50 262 148 438 217 l125 48 882 3 882 2 3 -137 3 -138 25 0
25 0 5 1130 5 1130 213 407 c116 224 212 411 212 416 0 19 -876 41 -917 23z
m562 -52 c148 -6 271 -12 273 -14 2 -2 -81 -166 -184 -364 -103 -199 -191
-358 -195 -354 -3 5 -14 33 -24 63 -31 99 -126 333 -172 425 -54 106 -92 166
-141 218 l-36 37 104 0 c58 0 226 -5 375 -11z m-1328 -551 c-1 -4 -40 18 -87
47 -73 47 -156 88 -224 109 -10 4 -17 8 -15 10 2 2 74 54 159 114 l155 111 7
-192 c4 -106 7 -195 5 -199z m-513 -417 c-1 -2 -36 17 -76 42 -64 40 -150 83
-227 113 -22 9 -11 19 135 123 l159 113 6 -194 c4 -106 5 -195 3 -197z m293
-533 c13 -21 22 -38 20 -38 -2 0 -21 18 -42 41 -29 30 -35 40 -21 37 10 -1 30
-20 43 -40z m340 32 c54 0 93 -4 91 -9 -1 -5 -54 -64 -117 -131 l-114 -121
-17 28 c-9 15 -47 77 -84 137 l-68 109 108 -6 c59 -4 150 -7 201 -7z m431 -40
c33 -52 38 -56 62 -40 13 8 13 13 -3 41 -10 18 -16 34 -14 36 3 2 50 2 106 1
l102 -3 -125 -135 c-69 -74 -130 -136 -134 -138 -4 -1 -34 36 -66 83 -32 47
-85 112 -117 145 l-59 60 109 0 108 0 31 -50z m-95 -212 l57 -87 0 -460 0
-461 -265 0 -265 0 0 448 0 447 39 -64 c52 -84 57 -89 77 -69 15 15 13 23 -36
102 -46 76 -51 88 -39 103 8 10 66 73 129 141 l115 123 65 -68 c36 -38 91
-107 123 -155z m-1285 -923 l203 -109 -78 -29 c-225 -85 -405 -174 -479 -239
-19 -17 -36 -29 -38 -27 -2 2 0 126 4 274 5 149 9 285 9 302 l1 33 88 -48 c48
-26 179 -96 290 -157z"/>
</g>
</svg>
