<?xml version="1.0" standalone="yes"?>
<svg xmlns="http://www.w3.org/2000/svg" width="639" height="371">
<path style="fill:#ffffff; stroke:none;" d="M0 0L0 371L639 371L639 0L0 0z"/>
<path style="fill:#000000; stroke:none;" d="M372 40L272 113.947L208 154.576L174 177L173 177C169.204 172.656 156.527 175 151 175C132.61 175 108.824 179.065 91 174.683C85.9822 173.449 81.8058 168.517 78 165.272C68.6368 157.288 58.9272 146.661 48 141C48 159.343 47 177.615 47 196C47 199.93 45.0344 211.665 49.2631 213.824C52.5893 215.523 53.9542 209.911 55.0849 207.999C58.9675 201.434 65.8274 196.169 72 191.885C93.5497 176.928 117.772 181 143 181C151.294 181 162.005 179.205 170 181.51C175.8 183.182 181.04 188.354 186 191.667C197.047 199.045 207.967 206.608 219 213.999C252.225 236.258 284.704 259.136 318 281.333C332.579 291.053 347.148 300.754 362 310.05C365.07 311.972 373.57 318.795 377.377 315.929C379.867 314.055 377.229 310.616 375.851 309.015C370.963 303.334 364.206 299.575 359.174 293.996C332.92 264.892 353.214 235.498 362 205L363 205C363 208.961 360.623 229.328 366.834 228.534C369.773 228.158 370.669 224.099 371.994 221.999C374.991 217.248 379.564 213.273 384 209.899C398.585 198.805 419.126 187.188 437 182.61C451.679 178.849 470.851 182 486 182L589 182L589 176L483 176C469.138 176 449.156 179.683 436 175.298C429.554 173.149 423.7 167.67 418 164.053C400.617 153.023 383.594 138.796 365 130C362.398 140.93 363.138 154.74 363.004 166C362.948 170.685 364.555 178.599 361.397 182.471C356.942 187.934 347.883 191.522 342 195.343C326.121 205.658 310.092 215.83 294 225.808C289.472 228.616 278.001 239.02 272.576 237.292C268.365 235.952 264.049 231.025 261.015 227.985C240.859 207.798 248.4 187.376 252 163L253 163L253 196C253 198.777 251.889 205.062 254.588 206.914C257.044 208.598 259.228 205.533 260.594 203.945C265.388 198.373 271.397 194.637 278 191.486C302.19 179.943 323.746 181 350 181L350 175C335.635 175 314.567 178.917 301 174.185C285.746 168.865 273.552 155.575 258 151L279 116C297.814 126.475 314.874 140.639 333 152.308C335.481 153.905 349.519 164.251 351.168 157.683C352.578 152.069 338.011 142.444 335.519 137C329.571 124.01 333.647 109.66 338.425 97C343.677 83.0847 351.495 69.8914 360.374 58C363.837 53.363 372.299 45.9202 372 40z"/>
<path style="fill:#ffffff; stroke:none;" d="M345 68L286 112L286 113L332 144C324.548 125.832 326.689 108.963 334.284 91C337.245 83.9969 344.283 75.3836 345 68M181 179L181 181L252 228C248.187 221.125 244.065 214.769 242.236 207C235.235 177.266 251.977 152.42 264 127L234 145.308L181 179M370 141L369 178L389 166L368.702 195L368 215C386.903 201.697 405.147 186.533 428 180L411 166.947L370 141M53 153L53 199L82 178L82 177L53 153M259 158L258 196L293 178L293 177L259 158M362 190C340.835 203 320.103 216.704 299 229.808C294.835 232.394 278.636 239.635 278.636 245.091C278.636 250.089 291.366 256.005 295 258.576C312.912 271.243 332.178 286.623 352 296C338.733 272.075 337.269 250.947 346.695 225C349.565 217.099 353.256 209.294 357.427 202C359.524 198.335 363.152 194.337 362 190z"/>
</svg>
