<?xml version="1.0" standalone="no"?>
<!DOCTYPE svg PUBLIC "-//W3C//DTD SVG 20010904//EN"
 "http://www.w3.org/TR/2001/REC-SVG-20010904/DTD/svg10.dtd">
<svg version="1.0" xmlns="http://www.w3.org/2000/svg"
 width="338.000000pt" height="371.000000pt" viewBox="0 0 338.000000 371.000000"
 preserveAspectRatio="xMidYMid meet">
<metadata>
Created by potrace 1.16, written by Peter Selinger 2001-2019
</metadata>
<g transform="translate(0.000000,371.000000) scale(0.100000,-0.100000)"
fill="#000000" stroke="none">
<path d="M650 3466 c0 -29 -3 -81 -6 -115 l-7 -61 -101 0 c-101 0 -126 -7
-126 -37 0 -7 18 -22 40 -33 44 -22 108 -110 155 -212 22 -48 25 -67 26 -193
1 -159 7 -190 33 -190 19 0 24 6 46 60 13 30 14 28 51 -85 l38 -115 1 -812 c0
-447 -2 -813 -5 -813 -4 0 -43 30 -88 66 l-82 66 -7 -53 c-4 -30 -8 -231 -10
-447 -2 -329 -1 -394 11 -401 23 -15 35 -3 55 51 33 92 176 210 397 328 l94
50 663 0 c595 0 662 -2 662 -16 0 -10 7 -14 23 -12 l22 3 5 1025 5 1025 124
253 124 252 59 0 c55 0 58 1 58 24 0 22 -5 25 -45 28 l-46 3 46 94 c25 51 44
96 41 98 -16 16 -753 31 -790 17 -29 -11 -18 -42 25 -66 25 -14 56 -45 81 -83
l40 -60 -491 -3 -491 -2 -50 36 -50 36 25 47 24 48 -67 7 c-37 3 -85 6 -107 6
-36 0 -64 16 -217 120 -97 66 -179 120 -182 120 -3 0 -6 -24 -6 -54z m244
-167 c6 -5 -35 -9 -95 -9 l-104 0 3 70 4 69 91 -61 c51 -33 96 -65 101 -69z
m1778 -37 c81 -4 149 -10 153 -14 3 -3 -10 -38 -29 -77 l-36 -71 -218 0 -217
0 -56 85 -57 85 157 -1 c86 0 222 -4 303 -7z m-2032 -107 c0 -47 -2 -85 -5
-85 -2 0 -13 17 -24 38 -11 22 -36 60 -55 85 l-36 47 60 0 60 0 0 -85z m404
42 c27 -18 53 -35 58 -38 5 -3 -7 -42 -27 -86 l-36 -79 -93 -53 c-50 -28 -116
-70 -145 -92 -29 -22 -54 -39 -56 -37 -2 2 -15 32 -29 67 -24 59 -26 76 -26
214 l0 150 153 -8 c148 -7 153 -8 201 -38z m96 13 c0 -5 -7 -7 -15 -4 -8 4
-15 8 -15 10 0 2 7 4 15 4 8 0 15 -4 15 -10z m52 -111 l29 -21 -51 -24 c-29
-13 -54 -24 -56 -24 -2 0 6 20 18 45 12 25 24 45 26 45 2 0 17 -9 34 -21z
m1128 -121 c45 -102 114 -290 145 -394 25 -88 25 -89 25 -496 l0 -408 -502 0
-503 1 -205 191 -205 190 -8 -268 c-10 -362 -6 -532 12 -543 23 -15 36 -3 49
46 17 61 132 176 261 261 l95 62 503 0 503 0 0 -525 0 -525 -670 0 -671 0
-149 120 -150 121 1 847 0 847 112 225 112 224 105 48 105 48 501 0 501 0 33
-72z m407 60 c-2 -7 -51 -109 -107 -226 l-103 -212 -57 157 c-31 87 -69 186
-83 220 -15 34 -27 65 -27 68 0 3 86 5 191 5 149 0 190 -3 186 -12z m-1819
-303 l-82 -168 -31 92 -30 93 40 35 c38 33 177 123 183 118 1 -1 -35 -78 -80
-170z m-217 22 c-8 -8 -11 0 -10 29 1 39 1 39 11 11 7 -21 7 -32 -1 -40z m573
-939 c72 -67 141 -131 154 -143 l23 -21 -98 -66 c-54 -37 -129 -97 -167 -135
l-69 -68 7 109 c3 60 6 185 6 278 0 92 3 168 6 168 4 0 66 -55 138 -122z
m-464 -1195 l0 -163 25 0 24 0 3 140 3 140 121 -97 122 -97 -86 -49 c-130 -74
-225 -141 -296 -207 l-64 -60 4 267 c3 148 7 296 10 330 l6 62 64 -51 64 -52
0 -163z"/>
</g>
</svg>
