<?xml version="1.0" standalone="yes"?>
<svg xmlns="http://www.w3.org/2000/svg" width="351" height="371">
<!-- <path style="fill:#ffffff; stroke:none;" d="M0 0L0 371L351 371L351 0L0 0z"/>
--><path style="fill:#000000; stroke:none;" d="M228 41L30 124C46.2019 145.185 73.6231 161.87 93.9961 179.08C131.293 210.586 167.551 243.424 205 274.754C218.651 286.174 232.074 297.909 246 308.996C249.108 311.471 257.201 319.89 261.667 317.758C265.592 315.885 261.531 310.85 259.891 309C251.837 299.912 243.182 292.49 240.518 280C235.041 254.329 255.338 229.662 272 213L272 324L278 324L278 179L278 136L278.702 115L294 90L329 34C302.36 33.9825 275.723 32 249 32C243.108 32 225.871 29.0908 221.662 33.7377C218.303 37.4464 225.701 39.9515 228 41z"/>
<path style="fill:#ffffff; stroke:none;" d="M234 37L234 38C257.631 54.6574 259.822 85.6235 276 107L305.192 61L318 39L234 37M230 42C209.89 62.1101 182.252 91.5284 194.232 123C198.223 133.484 211.548 140.024 214.364 149.965C215.046 152.373 213.274 153.789 210.976 153.24C207.185 152.335 204.811 148.234 201 147.458C196.458 146.532 191.8 153.079 189.171 156C174.727 172.047 160.419 195.435 165.9 218C167.777 225.728 175.118 241.52 184 243.018C189.797 243.996 199.712 237.554 205 235.281C220.267 228.717 235.638 222.35 251 216.011C256.524 213.731 266.27 211.707 270.397 207.301C272.932 204.593 272 199.393 272 196L272 166C272 149.49 274.145 131.334 271.79 115C270.804 108.16 266.703 101.304 263.999 95C256.32 77.0919 246.343 53.5137 230 42M138 85L166 110.272L191 130C179.24 101.181 193.036 81.5129 207 57L138 85M196 144C183.954 127.252 161.728 113.978 146 100.579C142.126 97.2786 133.651 86.7987 128 88.4576C122.653 90.0272 117.805 97.8617 114.461 102C102.75 116.491 91.2881 137.734 95.8989 157C97.4808 163.61 101.68 176.334 109.015 178.593C115.017 180.442 127.437 172.519 133 170.15C153.77 161.303 174.632 151.274 196 144M42 125L57 140L95 171C83.1514 142.112 94.9842 121.313 111 97L42 125M114 184C125.313 200.817 145.742 220.579 164 230C162.013 224.116 159.549 218.267 159.09 212C157.475 189.949 170.881 175.332 180 157L114 184M239 294C227.751 264.841 240.838 245.862 255 221C238.33 225.559 221.908 234.235 206 241C202.084 242.665 191.243 245.068 189.662 249.393C187.838 254.383 196.949 259.822 200 262.421C211.861 272.527 224.816 287.503 239 294z"/>
</svg>
