<?xml version="1.0" standalone="yes"?>
<svg xmlns="http://www.w3.org/2000/svg" width="562" height="371">
<path style="fill:#ffffff; stroke:none;" d="M0 0L0 371L562 371L562 0L0 0z"/>
<path style="fill:#000000; stroke:none;" d="M421 69C408.204 70.8898 395.264 76.912 383 81C360.345 88.5516 337.497 95.6852 315 103.692C299.502 109.208 280.386 119.744 264 116L267 110C248.565 110 234.437 105.674 217 100L218 109C212.798 109 206.109 107.88 201.113 109.434C195.429 111.201 199.323 115.213 203 116L203 117L144 117C137.298 117 126.083 119.133 120.039 115.972C103.601 107.376 97.0431 82.9529 80 75L80 111L45 111C42.3166 111 35.0198 109.755 33.9707 113.26C32.8947 116.855 41.8376 120.155 44 122.105C51.9774 129.298 60.3794 139.738 64.0309 150C67.4826 159.7 65 173.766 65 184C65 206.677 65.8902 229.402 65.9992 252L66 278C66.0044 280.612 65.354 285.106 67.7269 286.953C72.0494 290.318 73.947 281.219 75.2238 279C81.5958 267.926 93.5562 260.162 104 253.344C118.281 244.022 132.513 246 149 246L225 246C222.035 254.766 218.142 263.209 215.232 272C214.51 274.182 212.84 279.134 215.6 280.673C218.723 282.415 228.64 271.951 232 270.27C244.867 263.832 266.449 256.809 281 258.199C293.135 259.359 305.39 265.782 317 269.28C349.507 279.073 381.42 290.884 414 300.424C425.579 303.815 436.997 309.382 449 311L449 320L455 320L455 187L455 146L455.649 126L471.319 100L507 43C499.373 40.7455 490.881 42.4502 483 41.9105C463.112 40.5486 442.953 40 423 40C418.294 40 398.489 37.4283 396.752 43.2947C395.586 47.2305 401.67 48.571 404 50.0046C411.145 54.4004 416.665 61.9762 421 69z"/>
<path style="fill:#ffffff; stroke:none;" d="M411 46C427.221 69.0491 442.747 90.8175 452 118L453 118L496 48L411 46M235 173L235 222L236 222L246 196L248 196C253.895 209.664 263.878 222.541 272 235C275.345 240.131 278.316 247.488 283.21 251.298C287.226 254.425 293.257 255.124 298 256.67C309.323 260.36 320.706 263.905 332 267.667C370.111 280.358 409.684 296.863 449 305L449 183C449 164.856 452.469 142.692 448.471 125C444.482 107.344 433.352 89.873 425 74C411.544 75.9873 397.898 82.3673 385 86.6667C362.336 94.2212 339.376 101.21 317 109.576C303.151 114.753 285.384 117.108 273 125.249C262.091 132.421 251.234 144.879 244.464 156C241.267 161.251 241.13 171.064 235 173M86 89L86 111L103 112C93.8911 124.982 85 130.315 85 147L86 147L114 120L114 119L86 89M213 115L222 125L220 115L213 115M226 115L232 142L253 118L226 115M48 116L68 144C76.8973 135.744 80 128.92 80 117L48 116M85 117L85 124L91 117L85 117M236 158L237 158L266 123C253.372 117.702 233.213 146.287 236 158M79 141C69.2964 150.005 71 159.712 71 172C71 180.084 68.4736 193.227 71.6034 200.715C73.5556 205.385 79.3184 209.04 83 212.285C92.2292 220.422 103.479 235.856 115 240.258C121.219 242.633 130.413 241 137 241L184 241L215 241C218.278 241 224.534 242.176 227.258 239.972C232.063 236.085 229 216.841 229 211C229 189.929 234.725 158.938 224.123 140C221.149 134.686 216.324 124.948 209.985 123.318C203.366 121.616 194.819 123 188 123L142 123C133.747 123 123.227 121.12 116 125.765C106.851 131.644 97.3903 140.024 91.2207 149C89.1042 152.079 86.9727 162.378 83.6289 163.654C77.7393 165.902 79 143.969 79 141M247 209L223 268C238.624 259.814 258.205 253.367 276 253L249 209L247 209M73 212L72 271L108 244L108 242L73 212z"/>
</svg>
