<?xml version="1.0" standalone="no"?>
<!DOCTYPE svg PUBLIC "-//W3C//DTD SVG 20010904//EN"
 "http://www.w3.org/TR/2001/REC-SVG-20010904/DTD/svg10.dtd">
<svg version="1.0" xmlns="http://www.w3.org/2000/svg"
 width="502.000000pt" height="371.000000pt" viewBox="0 0 502.000000 371.000000"
 preserveAspectRatio="xMidYMid meet">
<metadata>
Created by potrace 1.16, written by Peter Selinger 2001-2019
</metadata>
<g transform="translate(0.000000,371.000000) scale(0.100000,-0.100000)"
fill="#000000" stroke="none">
<path d="M4032 2996 c-364 -222 -673 -412 -685 -423 -12 -11 -83 -57 -158
-102 l-137 -81 -876 0 -876 0 -275 127 c-151 71 -275 131 -275 134 0 7 115 61
238 112 l77 32 1233 3 1233 2 -3 23 -3 22 -1225 3 -1225 2 -300 174 c-297 171
-300 173 -307 148 -4 -14 -10 -174 -14 -356 -7 -342 -4 -376 32 -376 8 0 21
15 29 34 13 30 97 116 114 116 9 0 5 -1362 -4 -1383 -7 -16 -13 -14 -70 18
l-63 35 -6 -30 c-3 -17 -9 -177 -12 -358 -7 -338 -4 -372 32 -372 8 0 21 15
29 34 8 18 36 52 62 75 53 48 278 161 425 215 l97 36 1211 0 1210 0 0 25 0 25
-1216 0 -1216 0 -164 93 c-90 50 -164 95 -164 98 0 12 199 98 343 148 l148 51
854 0 853 0 119 -76 c65 -42 246 -163 403 -268 611 -410 916 -608 1008 -656
34 -18 45 -20 57 -10 8 7 15 18 15 26 0 7 -44 49 -99 93 -167 135 -238 233
-276 376 -19 76 -20 242 0 335 40 192 148 421 289 617 l38 53 40 -21 c31 -16
43 -18 54 -8 20 17 18 27 -15 60 l-30 29 31 35 c34 39 28 45 -17 15 -16 -11
-38 -20 -47 -20 -10 0 -60 42 -112 93 -76 75 -100 106 -129 167 -47 101 -61
166 -60 285 2 161 36 290 128 482 62 129 152 273 244 388 35 44 68 86 74 93 5
6 8 12 6 11 -2 0 -302 -182 -667 -403z m401 127 c-102 -164 -183 -352 -219
-514 -23 -103 -23 -285 0 -368 23 -84 68 -174 118 -234 22 -27 38 -50 36 -52
-4 -4 -894 588 -915 608 -10 10 99 80 510 329 287 175 523 318 524 318 1 0
-23 -39 -54 -87z m-3635 -173 c117 -67 212 -124 210 -125 -2 -2 -54 -23 -115
-49 -62 -25 -135 -57 -162 -71 -28 -13 -57 -22 -65 -19 -8 3 -17 -2 -20 -13
-3 -10 -20 -27 -38 -37 -17 -11 -49 -35 -71 -55 l-39 -35 7 274 c4 151 9 279
12 283 3 4 19 -1 36 -11 18 -11 128 -75 245 -142z m179 -467 c136 -63 249
-116 251 -118 1 -1 -59 -24 -135 -50 -166 -57 -281 -107 -350 -151 -28 -18
-54 -30 -57 -27 -8 8 -8 119 1 316 6 144 8 157 24 152 10 -3 129 -58 266 -122z
m2954 -303 c279 -184 514 -339 523 -345 14 -8 -89 -74 -536 -346 l-553 -336
-30 20 c-108 74 -217 227 -250 353 -31 120 -16 319 35 476 51 156 267 537 294
521 6 -4 239 -158 517 -343z m-687 199 c-152 -249 -226 -472 -227 -684 -1
-170 43 -303 140 -422 25 -31 39 -52 32 -48 -8 4 -213 140 -456 302 -427 284
-443 296 -436 322 3 14 9 27 12 29 3 1 227 137 496 301 270 164 491 297 493
296 2 -1 -23 -45 -54 -96z m-654 -271 l-365 -222 -165 -7 c-91 -4 -341 -10
-557 -14 l-392 -8 -180 118 c-100 65 -181 122 -181 126 0 25 187 108 400 180
l145 48 830 1 829 0 -364 -222z m-1697 -169 c83 -55 153 -104 155 -108 1 -4
-30 -23 -70 -41 -39 -19 -114 -63 -165 -97 -54 -36 -100 -60 -108 -57 -12 5
-15 29 -15 124 0 64 3 158 6 208 7 85 8 90 26 81 10 -5 87 -55 171 -110z
m1641 -341 l348 -233 -801 -3 -801 -2 -242 116 c-134 64 -247 120 -252 124
-11 11 123 99 241 158 l93 45 477 12 c263 7 503 13 534 13 l56 2 347 -232z
m1890 130 c-5 -7 -28 -44 -52 -81 -92 -144 -183 -359 -218 -519 -22 -99 -22
-265 -1 -348 23 -88 78 -197 128 -253 22 -26 37 -47 33 -47 -14 0 -854 564
-854 574 0 5 -12 22 -26 37 l-27 28 34 20 c19 11 248 151 509 310 261 159 476
290 478 290 2 1 0 -5 -4 -11z m-3432 -287 l222 -108 -84 -28 c-119 -39 -295
-111 -357 -146 -44 -25 -56 -28 -74 -19 -20 11 -21 16 -17 173 4 155 15 211
44 240 11 11 22 6 266 -112z m-366 -378 c8 -59 12 -68 31 -71 16 -2 26 5 38
32 10 20 24 36 31 36 8 0 82 -39 165 -86 l151 -87 -97 -38 c-155 -62 -254
-112 -344 -173 l-83 -57 7 268 c4 147 9 271 12 275 2 5 21 -1 42 -12 37 -18
39 -22 47 -87z"/>
</g>
</svg>
