<?xml version="1.0" standalone="yes"?>
<svg xmlns="http://www.w3.org/2000/svg" width="558" height="371">
<!-- <path style="fill:#ffffff; stroke:none;" d="M0 0L0 371L558 371L558 0L0 0z"/>
--><path style="fill:#000000; stroke:none;" d="M438 82L243 82L182 82L153 81.581L135 71.0532L97 46.6674L75 34C75 59.3561 73 84.6494 73 110C73 115.447 70.3295 132.295 75.5733 135.762C78.6559 137.801 88.8257 121.701 92.0039 119.095C108.001 105.977 132.654 92.1259 153 87.5286C173.976 82.7889 200.476 87 222 87L366 87L419 87C424.46 87 434.877 85.0092 439.61 88.0278C443.376 90.4301 445.347 97.1412 447.244 101C455.546 117.887 455 132.579 455 151L383 150L392.291 132L417 96C387.739 96 358.248 94.7313 329 94.0146C313.891 93.6444 297.918 95.8643 283 94.2816C272.179 93.1336 260.879 93.9993 250 94C247.022 94.0002 240.152 92.8675 238.662 96.3896C237.077 100.135 247.667 105.617 249.91 108.004C259.389 118.092 268.161 133.675 272 147L243 146.366L153 107C153.889 127.716 157.039 150.864 162 171L155 169L168 250C133.563 247.278 115.707 202.607 86 189C84.0142 213.953 76.3702 239.26 72.2469 264C71.3954 269.109 66.2254 285.454 70.6003 289.338C73.8139 292.191 86.3101 277.654 90 275.453C103.426 267.444 119.095 263.277 134 259C140.799 257.049 148.855 253.995 156 254.518C183.319 256.515 210.927 263.377 238 267.576C310.278 278.785 382.448 292.783 455 302L455 340L461 340L461 186L461 139C461 132.276 459.501 123.443 461.563 117C464.251 108.601 472.258 100.187 477.28 93C491.044 73.3018 508.735 52.6987 519 31C488.154 27.1017 455.107 28 424 28C419.248 28 396.311 25.5164 395.466 32.0394C394.944 36.0663 407.143 40.1038 409.985 42.4676C422.411 52.8019 429.729 68.486 438 82z"/>
<path style="fill:#ffffff; stroke:none;" d="M410 34L410 35C431.168 49.9114 449.899 84.3422 457 109L472.576 89L508 36L410 34M81 44L79 122C99.5108 107.565 118.781 93.2439 143 85L143 83L81 44M252 100L274 136L276 136L292.29 113L295.828 104.228L285 100.039L252 100M325 137L349 102L318 100L307.376 102.318L310.646 112L325 137M358 100L380 138L381 138L406 101L358 100M353 107C345.197 118.564 327.768 134.795 327 149L377 150C376.704 137.368 364.598 112.655 353 107M301 110L282.72 136L278.161 146.397L289 148L321 148C320.451 136.016 310.447 117.291 301 110M160 117C161.77 131.006 163.475 145.06 165.754 159C166.374 162.791 166.251 171.637 169.589 174.124C173.235 176.841 181.685 169.442 185 167.756C199.978 160.138 218.97 157.571 233 149C210.203 138.198 184.532 122.827 160 117M178 178L178 179L245 208.471L272 209L272 153C262.214 153 251.692 151.904 242 153.3C219.898 156.485 197.433 167.657 178 178M277 153L277 209L321 210L321 154L277 153M327 154L327 210L377 211L377 155L327 154M383 156L383 212L455 213L455 157L383 156M162 178L163 179L162 178M163 180L171 240L205 221.811L235 211L173 183C169.663 193.511 165.834 185.836 163 180M90 200L76 277C97.5482 264.737 120.995 253.37 146 250L121 226.834L90 200M174 251L294 270.424L455 296L455 219L383 217L383 266L377 266L377 217L327 216L327 266L321 266L321 216L277 215L277 266L272 266L272 215C245.305 215 223.689 219.861 199 230.427C189.016 234.7 176.755 239.54 174 251z"/>
</svg>
