<?xml version="1.0" standalone="no"?>
<!DOCTYPE svg PUBLIC "-//W3C//DTD SVG 20010904//EN"
 "http://www.w3.org/TR/2001/REC-SVG-20010904/DTD/svg10.dtd">
<svg version="1.0" xmlns="http://www.w3.org/2000/svg"
 width="906.000000pt" height="371.000000pt" viewBox="0 0 906.000000 371.000000"
 preserveAspectRatio="xMidYMid meet">
<metadata>
Created by potrace 1.16, written by Peter Selinger 2001-2019
</metadata>
<g transform="translate(0.000000,371.000000) scale(0.100000,-0.100000)"
fill="#000000" stroke="none">
<path d="M1611 3521 c-41 -36 -236 -219 -434 -407 l-359 -341 -221 -28 c-122
-15 -230 -31 -240 -34 -15 -6 0 -31 92 -165 l110 -158 -33 -46 c-19 -26 -41
-62 -51 -81 -16 -33 -16 -35 0 -47 14 -10 22 -9 48 7 38 22 120 25 156 5 13
-7 32 -11 43 -8 10 2 59 -6 109 -19 l91 -23 282 -250 c154 -137 331 -293 393
-348 135 -119 147 -120 149 -11 2 76 15 121 80 269 l45 100 341 295 c188 162
345 295 349 297 4 2 8 -371 8 -827 l1 -831 -33 0 c-28 0 -80 36 -343 241
l-309 240 -7 -38 c-9 -56 -22 -902 -14 -946 5 -28 12 -37 27 -37 11 0 23 10
28 23 5 12 15 37 22 55 29 79 203 215 436 343 128 69 166 80 203 57 15 -10 22
-10 32 0 9 9 176 12 725 12 l713 0 2 -232 c3 -218 4 -233 22 -236 10 -2 22 0
27 5 6 6 10 419 9 1046 l0 1036 72 35 c178 84 591 149 1133 177 l220 11 1455
-352 c800 -193 1456 -353 1458 -355 2 -1 -18 -8 -45 -14 -26 -5 -538 -125
-1137 -265 -599 -141 -1096 -256 -1103 -256 -18 0 -16 48 7 153 47 215 198
502 370 705 34 40 60 75 59 76 -2 2 -173 -100 -379 -226 -206 -126 -388 -236
-403 -244 l-28 -15 35 69 c46 92 159 259 237 351 34 40 53 68 42 63 -39 -21
-1328 -804 -1337 -812 -4 -5 44 -43 108 -86 64 -42 115 -79 113 -81 -2 -2
-174 42 -383 96 -208 55 -380 98 -382 97 -1 -2 4 -138 13 -302 33 -633 60
-923 89 -953 22 -21 44 -6 56 40 17 63 54 116 141 201 127 124 401 320 702
502 l128 77 185 -121 c385 -252 472 -304 498 -294 33 13 15 44 -61 106 -140
113 -209 190 -252 281 -38 79 -57 137 -46 137 3 0 105 -67 228 -148 267 -179
506 -331 565 -361 45 -23 72 -17 72 15 0 7 -47 52 -105 99 -57 47 -124 109
-148 136 -76 87 -137 236 -137 336 0 40 2 43 38 52 27 7 1830 431 2355 553 38
9 47 16 47 33 0 20 -87 42 -1527 389 -841 203 -1533 371 -1540 375 -6 3 -196
183 -423 399 -226 215 -414 392 -418 392 -8 0 -68 -91 -280 -430 -85 -135
-156 -247 -159 -250 -8 -6 -26 -40 171 309 105 185 163 297 156 301 -25 15
-906 36 -965 23 -33 -7 -40 -13 -40 -33 0 -17 8 -26 30 -33 67 -22 126 -89
213 -243 35 -60 142 -288 142 -300 0 -2 -215 -4 -477 -3 l-478 0 -205 188
c-113 104 -207 187 -210 184 -3 -3 -7 -137 -10 -298 l-5 -293 -355 260 c-195
143 -363 266 -374 273 -12 9 -39 82 -80 214 -34 110 -64 202 -67 205 -2 2 -37
-26 -78 -63z m103 -180 l44 -143 -31 6 c-113 23 -208 36 -261 36 l-61 0 130
130 c72 72 131 127 133 122 1 -4 22 -72 46 -151z m3360 -268 c206 -197 374
-359 373 -359 -1 -1 -87 -7 -192 -13 -487 -30 -863 -88 -1055 -163 -30 -12
-61 -26 -67 -31 -9 -6 -13 -6 -13 1 0 25 556 922 572 922 4 0 176 -161 382
-357z m-727 328 l152 -6 -198 -350 c-108 -192 -202 -359 -208 -370 l-12 -20
-7 20 c-109 308 -251 588 -356 701 l-42 46 259 -8 c143 -3 328 -9 412 -13z
m-2725 -231 c62 -11 126 -23 141 -27 15 -5 196 -132 402 -282 279 -204 372
-278 364 -287 -36 -43 -685 -590 -707 -595 -15 -4 -116 -17 -225 -29 -150 -17
-197 -26 -193 -36 3 -7 34 -52 69 -101 35 -48 72 -101 83 -118 10 -16 -120 94
-290 245 l-310 275 -69 220 -69 220 24 46 c29 58 459 472 480 464 8 -3 28 1
44 10 39 20 120 19 256 -5z m1168 -199 c63 -57 125 -114 138 -125 l23 -22 -99
-66 c-54 -37 -120 -86 -146 -109 -76 -67 -80 -59 -84 157 -2 98 0 207 3 242
l7 64 21 -19 c12 -10 74 -65 137 -122z m1224 -279 c40 -110 46 -176 20 -237
-14 -34 -14 -39 0 -54 10 -11 16 -36 16 -64 l0 -47 -523 0 -524 0 -149 135
c-82 74 -150 139 -152 144 -4 13 117 109 213 169 l80 51 491 0 492 1 36 -98z
m-3235 9 c-132 -188 -185 -261 -189 -261 -8 0 -160 223 -156 228 4 3 239 37
350 51 5 1 2 -8 -5 -18z m66 -299 c26 -85 45 -156 42 -158 -3 -3 -25 0 -48 6
-24 6 -61 16 -83 21 l-39 10 6 59 c6 69 56 235 67 223 4 -4 29 -77 55 -161z
m1998 -37 l107 -98 -82 -55 c-46 -30 -104 -73 -131 -94 l-47 -40 -35 29 -35
28 3 165 c2 138 5 171 20 199 l19 33 36 -34 c21 -19 85 -78 145 -133z m-2162
42 l-17 -78 -22 30 -22 31 36 50 c20 28 38 50 39 48 2 -2 -5 -38 -14 -81z
m-68 -92 l18 -25 -36 0 c-39 0 -40 2 -23 30 16 25 19 25 41 -5z m3437 -300 l0
-225 -522 0 -523 0 -137 123 c-75 67 -137 125 -137 129 -1 10 106 91 196 147
l78 50 523 0 522 1 0 -225z m1844 143 c-4 -7 -24 -38 -43 -68 -19 -30 -60
-104 -92 -165 l-56 -110 -224 -136 c-123 -75 -224 -140 -224 -145 0 -4 77 -60
172 -123 95 -64 172 -119 173 -122 0 -3 -36 -13 -79 -23 l-79 -17 -138 36
-139 36 -158 106 -157 105 522 318 c288 175 524 319 526 319 2 1 0 -5 -4 -11z
m490 0 c-5 -7 -27 -42 -50 -78 -55 -86 -135 -247 -169 -340 -31 -87 -64 -230
-65 -280 0 -19 -4 -41 -9 -48 -10 -17 -406 -111 -422 -101 -9 5 -10 36 -6 111
6 105 28 209 66 308 l22 55 317 192 c174 105 318 192 320 192 2 1 0 -5 -4 -11z
m-3742 -130 c-9 -9 -12 -7 -12 12 0 19 3 21 12 12 9 -9 9 -15 0 -24z m184
-144 c67 -60 123 -111 123 -114 0 -3 -38 -30 -85 -60 -47 -30 -113 -79 -145
-109 -59 -53 -60 -53 -80 -35 -20 18 -21 28 -17 185 3 162 4 166 31 208 16 23
33 41 39 39 6 -2 67 -53 134 -114z m-1051 -36 c-40 -87 -75 -189 -75 -219 0
-11 -5 -19 -10 -17 -10 3 -200 258 -200 269 0 6 221 35 287 38 l32 1 -34 -72z
m2275 -363 l0 -255 -520 0 -520 0 -103 92 c-56 50 -126 114 -154 142 l-53 50
23 24 c29 31 136 110 217 161 l65 40 523 0 522 1 0 -255z m1595 149 c-17 -55
-29 -126 -32 -186 l-6 -96 -135 90 c-104 70 -132 92 -120 99 9 5 83 49 164 99
81 49 149 88 151 86 2 -2 -8 -43 -22 -92z m-921 -249 c406 -106 411 -107 485
-157 42 -28 80 -54 84 -58 4 -4 -56 -47 -135 -95 -402 -248 -680 -463 -769
-594 -19 -28 -37 -51 -40 -51 -11 0 -50 538 -65 904 -7 163 -6 169 12 164 10
-3 203 -54 428 -113z m-1901 -55 c70 -63 127 -117 127 -120 0 -3 -17 -14 -37
-25 -60 -32 -229 -162 -263 -203 l-31 -37 3 235 c3 207 5 239 21 263 22 33 11
40 180 -113z m3277 -35 c0 -90 71 -259 141 -338 22 -26 38 -47 35 -47 -17 0
-538 354 -526 357 263 63 336 78 342 69 4 -6 8 -25 8 -41z m-3837 -303 l187
-146 -101 -53 c-146 -76 -292 -176 -372 -255 l-69 -68 6 363 c4 199 9 374 12
389 l6 28 71 -56 c40 -31 156 -122 260 -202z m3430 46 c15 -25 47 -67 69 -93
l42 -48 -84 55 c-180 116 -310 203 -310 209 0 10 75 42 140 59 l65 16 25 -75
c14 -42 38 -97 53 -123z m-320 173 c19 -18 -21 -17 -44 1 l-24 20 30 -7 c17
-3 34 -10 38 -14z m-1323 -186 l0 -155 -705 0 c-529 0 -705 3 -705 12 0 25
178 185 270 241 l94 57 523 0 523 0 0 -155z"/>
</g>
</svg>
