<?xml version="1.0" standalone="no"?>
<!DOCTYPE svg PUBLIC "-//W3C//DTD SVG 20010904//EN"
 "http://www.w3.org/TR/2001/REC-SVG-20010904/DTD/svg10.dtd">
<svg version="1.0" xmlns="http://www.w3.org/2000/svg"
 width="468.000000pt" height="371.000000pt" viewBox="0 0 468.000000 371.000000"
 preserveAspectRatio="xMidYMid meet">
<metadata>
Created by potrace 1.16, written by Peter Selinger 2001-2019
</metadata>
<g transform="translate(0.000000,371.000000) scale(0.100000,-0.100000)"
fill="#000000" stroke="none">
<path d="M3387 3366 c-25 -26 -21 -35 26 -55 63 -27 101 -63 161 -154 51 -77
155 -276 170 -324 l7 -22 -1337 1 -1338 1 -330 193 -331 194 -7 -37 c-4 -21
-12 -301 -17 -623 -6 -322 -15 -679 -20 -795 -14 -322 -12 -1279 3 -1300 17
-24 41 -10 58 34 10 26 36 55 74 85 65 51 259 151 424 218 l105 43 1390 5
1390 5 0 25 0 25 -552 3 -553 2 0 320 0 320 555 0 555 0 0 25 0 25 -555 0
-555 0 0 290 0 290 575 0 575 0 2 -857 3 -858 25 0 25 0 3 1060 2 1060 234
395 235 395 -77 6 c-42 4 -264 10 -492 14 -387 8 -417 7 -433 -9z m845 -55
l67 -6 -202 -342 c-111 -188 -205 -338 -209 -335 -3 4 -21 45 -38 92 -46 121
-171 373 -225 455 -26 39 -66 90 -89 114 l-41 43 335 -7 c184 -4 365 -10 402
-14z m-3509 -351 c236 -139 246 -145 216 -153 -27 -7 -30 -12 -26 -34 4 -22
-1 -27 -47 -46 -88 -37 -244 -115 -302 -152 l-55 -36 -36 22 -35 22 7 241 c6
246 10 290 23 284 5 -2 119 -68 255 -148z m630 -209 c34 -6 58 -17 79 -39 l31
-31 -104 -176 -104 -176 -14 33 c-63 143 -127 269 -161 319 -40 59 -40 59 -18
69 28 11 225 12 291 1z m537 -27 l30 -29 -108 -182 c-59 -101 -109 -183 -112
-183 -3 0 -26 48 -50 107 -25 59 -62 136 -82 171 -21 35 -38 69 -38 74 0 6 10
26 22 46 l21 34 144 -4 c143 -4 144 -4 173 -34z m484 26 c14 -5 26 -14 26 -20
0 -6 -53 -99 -117 -207 -107 -180 -118 -194 -127 -172 -49 120 -108 244 -138
290 l-36 57 19 31 19 31 164 0 c91 0 176 -4 190 -10z m562 -2 c4 -5 -225 -400
-241 -416 -2 -3 -15 19 -27 49 -42 101 -118 249 -157 308 -22 32 -37 62 -33
66 8 8 450 1 458 -7z m883 -92 l41 -104 0 -171 0 -171 -575 0 -575 0 0 21 c0
17 111 212 282 497 l20 32 383 0 383 0 41 -104z m-2319 84 c0 -5 -4 -10 -9
-10 -6 0 -13 5 -16 10 -3 6 1 10 9 10 9 0 16 -4 16 -10z m-475 -67 c69 -95
195 -375 195 -433 l0 -30 -69 0 -69 0 -256 148 c-140 81 -254 151 -253 156 5
15 136 86 272 147 72 32 133 58 137 58 4 1 23 -20 43 -46z m1493 -92 c51 -92
142 -310 142 -343 l0 -28 -235 0 -235 0 0 27 c0 16 49 110 127 241 l127 215
18 -23 c10 -13 35 -53 56 -89z m-498 -52 c46 -90 120 -275 120 -298 0 -21 -5
-21 -210 -21 l-210 0 0 23 c0 13 53 112 117 220 l116 197 19 -30 c10 -17 31
-57 48 -91z m-466 -9 c54 -106 116 -260 116 -289 0 -21 -3 -21 -195 -21 l-195
0 0 30 c0 41 209 397 222 378 5 -7 28 -51 52 -98z m-1084 -14 c0 -3 -4 -8 -10
-11 -5 -3 -10 -1 -10 4 0 6 5 11 10 11 6 0 10 -2 10 -4z m304 -178 l245 -142
-139 -57 c-146 -60 -286 -131 -357 -182 -35 -25 -47 -28 -65 -20 l-23 10 4
213 c2 124 8 224 14 239 18 43 47 81 62 81 7 0 124 -64 259 -142z m446 -458
l0 -290 -79 0 -79 0 -266 152 -267 153 28 23 c40 33 310 165 433 211 80 31
120 40 168 41 l62 0 0 -290z m450 0 l0 -290 -195 0 -195 0 0 290 0 290 195 0
195 0 0 -290z m470 0 l0 -290 -210 0 -210 0 0 290 0 290 210 0 210 0 0 -290z
m520 0 l0 -290 -235 0 -235 0 0 290 0 290 235 0 235 0 0 -290z m-1895 -180
c126 -72 231 -133 232 -134 2 -1 -41 -20 -95 -41 -154 -60 -338 -152 -408
-206 -36 -27 -70 -49 -76 -49 -18 0 -1 489 18 507 8 8 14 19 14 24 0 5 7 21
16 34 19 29 -13 44 299 -135z m457 -480 l3 -320 -83 0 -82 0 -296 169 -295
169 34 26 c88 68 277 160 482 238 78 29 115 37 167 38 l67 0 3 -320z m448 0
l0 -320 -197 0 -198 0 3 320 3 320 194 0 195 0 0 -320z m470 0 l0 -320 -210 0
-210 0 0 320 0 320 210 0 210 0 0 -320z m520 0 l0 -320 -235 0 -235 0 0 320 0
320 235 0 235 0 0 -320z m-1939 -186 c151 -86 275 -158 277 -159 1 -1 -46 -21
-105 -45 -200 -79 -376 -174 -452 -244 l-33 -31 6 285 c7 287 12 350 26 350 4
0 131 -70 281 -156z"/>
</g>
</svg>
