<?xml version="1.0" standalone="yes"?>
<svg xmlns="http://www.w3.org/2000/svg" width="619" height="371">
<!-- <path style="fill:#ffffff; stroke:none;" d="M0 0L0 371L619 371L619 0L0 0z"/>
--><path style="fill:#000000; stroke:none;" d="M271 21C268.761 28.5738 270.304 37.1586 269.961 45C269.161 63.2486 268 81.7316 268 100C268 104.229 266.174 122.774 272.039 123.534C275.79 124.02 277.273 117.355 278.942 115.001C284.09 107.738 292.316 102.278 300 98L298 258L270 240C270 265.675 268.01 291.363 268 317C267.998 322.11 265.798 338.628 270.588 341.914C274.426 344.547 281.518 329.705 284.09 327.289C297.968 314.255 316.67 304.957 334 297.424C351.037 290.019 374.618 294 393 294L519 294L519 338L525 338L525 185L525 138L525.51 115L538.999 94L569.001 50L583 28L488 26L466.001 26.1744L459.636 30.0355L472 38.6805L496 69L393 69C379.138 69 359.156 72.6832 346 68.2979C337.646 65.5133 329.359 58.1481 322 53.3441C305.248 42.4088 288.492 30.7019 271 21M134 103C138.47 83.6782 148.673 65.1838 159.885 49C165.255 41.2487 172.693 34.3461 177 26L137 49.3997L40 108L40 110L123 165.424L156 186L41 256L41 258C74.6688 276.763 105.29 301.945 138 322.424C145.607 327.187 152.999 332.579 161 336.676C163.138 337.771 169.121 340.608 170.248 336.681C171.085 333.766 167.845 331.098 165.981 329.428C159.747 323.844 152.787 319.279 147.174 313C133.929 298.184 129.408 278.346 133 259C163.867 279.824 194.557 300.993 226 320.947C233.535 325.728 241.003 331.107 249 335.095C251.062 336.123 256.227 338.244 257.248 334.681C258.856 329.071 246.535 322.066 243 319.196C230.961 309.421 222.19 296.432 219.464 281C214.931 255.348 227.27 227.419 240.204 206C242.985 201.394 246.051 194.86 250.326 191.488C252.401 189.85 256.262 190.578 257.764 188.398C259.28 186.197 257.413 184.424 256 183L256 182L265 172C260.899 172.941 255.496 178.093 251.424 177.363C243.888 176.011 234.557 163.839 230.439 158C207.93 126.083 224.631 85.6744 242.811 56C249.299 45.4094 259.903 36.1281 265 25C251.413 29.3012 238.095 40.0814 226 47.5756C196.176 66.0544 165.756 88.1562 134 103z"/>
<path style="fill:#ffffff; stroke:none;" d="M276 32L274 110L298 92.0108L338 72L338 71C319.035 58.2168 297.35 40.0923 276 32M475 32L497.947 61L522 107L541.72 79L572 34L475 32M240 46L172 87.3997L139 108C168.3 127.766 198.037 152.879 230 168C211.43 139.809 210.009 112.362 223.012 81C226.287 73.0995 230.18 65.4207 234.427 58C236.5 54.3784 240.366 50.2526 240 46M152 47L78 92.3187L51 110L140 169C136.764 161.308 131.19 155.106 128.519 147C121.69 126.272 125.92 104.885 133.425 85C136.541 76.7449 140.564 68.6181 145.012 61C147.444 56.8331 151.854 51.8892 152 47M496 70L496 75L396 75L347 75.3789L305 94L305 95C318.47 103.388 331.174 113.496 344 122.849C349.618 126.945 356.27 133.499 363 135.487C377.073 139.643 397.314 136 412 136L519 136C519 113.333 511.358 87.6761 496 70M305 102L304 171C320.755 159.244 335.791 146.998 355 139C344.146 124.934 320.451 110.803 305 102M132 111C128.083 132.099 133.481 153.734 149.015 168.961C152.586 172.461 158.844 179.366 164 180.137C168.449 180.802 174.024 175.713 178 174C174.119 178.77 169.819 190.427 164 191C152 208.788 139.901 227.816 135 249L162 233.6L213 202.681L243 183C215.381 169.935 189.252 148.84 164 131.656C153.896 124.78 143.473 115.349 132 111M308 178L345 204.579C350.398 208.438 356.571 214.588 363 216.487C377.073 220.643 397.314 217 412 217L519 217L519 141L410 141C389.176 141 368.933 138.286 350 147.753C336.162 154.672 314.908 163.186 308 178M305 183L304 252C320.726 240.264 335.833 227.98 355 220C343.887 205.6 320.5 192.567 305 183M139 254L139 256L230 316C224.398 307.799 218.824 300.639 215.746 291C204.566 255.988 224.722 222.349 241 193L210 211L139 254M153 195C121.163 216.067 86.566 239.842 52 256L52 258C82.595 275.428 109.631 303.034 142 317C123.296 288.605 122.11 260.357 135.861 229C140.012 219.534 152.678 204.839 153 195M519 288L519 223L408 223C388.49 223 367.742 219.882 350 228.753C337.728 234.889 325.404 241.197 315.001 250.289C311.944 252.961 306.386 257.384 306.596 261.96C306.806 266.517 313.781 269.471 317 271.72C328.657 279.865 337.372 288 352 288L519 288M276 251L274 328C293.751 314.087 310.982 299.93 334 291L334 290L276 251z"/>
</svg>
