<?xml version="1.0" standalone="yes"?>
<svg xmlns="http://www.w3.org/2000/svg" width="427" height="371">
<!-- <path style="fill:#ffffff; stroke:none;" d="M0 0L0 371L427 371L427 0L0 0z"/>
--><path style="fill:#000000; stroke:none;" d="M330 136L200 136C200.009 124.487 207.034 115.61 212.8 106C223.554 88.0772 239.699 67.9062 246 48C227.783 48 209.17 48.1548 191 46.9105C178.552 46.058 163.189 43.5727 151 47.1049C137.878 50.9076 125.052 63.7526 114 71.5756C88.7381 89.4565 63.5901 107.593 38 125C51.2453 141.026 76.6902 152.793 94 164.333C99.2463 167.831 112.41 173.185 114.824 179.17C117.143 184.919 98.9354 194.325 95 197.14C72.4726 213.255 49.9015 229.421 27 245C32.9809 252.237 43.1982 257.456 51 262.667C65.3561 272.255 79.3611 282.41 94 291.576C97.0662 293.495 114.984 307.069 117.288 300.693C118.521 297.279 114.108 294.019 111.985 292.13C105.954 286.769 100.158 281.577 96.8796 274C88.1256 253.771 98.31 228.894 108.143 211C111.488 204.912 114.712 196.44 121 193C121 218.995 120 244.954 120 271C120 274.649 117.834 294.364 123.12 294.364C126.211 294.364 126.942 290.174 127.809 287.999C130.177 282.062 134.532 277.442 139.001 273.004C153.048 259.055 173.699 243 194 243L194 331L200 331L200 243L330 243L330 329L336 329L336 243L380 243L380 237L336 237L336 141L380 141L380 136L336 136C336 111.765 359.502 85.661 371.281 65C374.738 58.9365 379.663 52.931 381 46C355.965 46 331.015 44 306 44C302.2 44 283.636 42.1107 283.636 48.0903C283.636 51.556 288.762 52.7551 291 54.429C295.782 58.0057 299.664 63.0465 302.921 68C315.009 86.3846 329.998 113.654 330 136z"/>
<path style="fill:#ffffff; stroke:none;" d="M297 50C312.101 71.6928 322.263 92.8924 333 117L351.8 86L371 52L297 50M121 87C144.162 103.124 164.367 136 194 136C193.997 112.172 176.535 77.4903 160.561 60.0934C156.899 56.1053 151.768 54.659 148 51C136.739 56.7056 126.241 75.7881 121 87M161 52L183.742 87L198 119L236 54L161 52M120 75L49 125L49 126C65.5677 138.77 86.4245 156.58 106 164C96.1518 142.227 98.2403 121.765 107.862 100C111.217 92.4099 119.211 83.1252 120 75M116 96C107.58 116.252 94.7589 148.696 116 166L117 117L116 96M123 96C123 115.051 122 133.944 122 153C122 159.532 120.028 169.131 125 174C135.546 159.028 155.576 146.668 172 139C160.831 123.276 138.837 107.024 123 96M194 237L194 141C172.94 141 153.388 153.987 138.015 168.171C134.559 171.358 124.849 181.023 124.751 186.039C124.642 191.607 137.16 199.125 141 202.424C156.719 215.928 172.344 237 194 237M200 141L200 237L330 237L330 141L200 141M38 245L38 246C54.5662 258.734 75.4539 276.591 95 284C80.342 251.594 94.4682 224.182 110 195L82 213.859L38 245M127 198L125 279L126 279C136.269 261.235 158.061 250.369 175 240L175 239L127 198z"/>
</svg>
