<?xml version="1.0" standalone="no"?>
<!DOCTYPE svg PUBLIC "-//W3C//DTD SVG 20010904//EN"
 "http://www.w3.org/TR/2001/REC-SVG-20010904/DTD/svg10.dtd">
<svg version="1.0" xmlns="http://www.w3.org/2000/svg"
 width="383.000000pt" height="371.000000pt" viewBox="0 0 383.000000 371.000000"
 preserveAspectRatio="xMidYMid meet">
<metadata>
Created by potrace 1.16, written by Peter Selinger 2001-2019
</metadata>
<g transform="translate(0.000000,371.000000) scale(0.100000,-0.100000)"
fill="#000000" stroke="none">
<path d="M1957 3421 c-88 -7 -112 -24 -76 -53 12 -10 29 -18 38 -18 10 0 42
-17 72 -39 108 -77 255 -299 393 -593 l55 -118 -268 0 -268 0 -165 124 -165
124 9 59 c20 129 47 225 124 428 4 11 -61 -65 -145 -170 -83 -104 -156 -189
-161 -187 -6 1 -10 -5 -10 -14 0 -8 -104 -147 -231 -307 l-231 -291 222 -63
c122 -34 225 -64 228 -67 3 -3 -1 -237 -9 -520 l-14 -515 -147 182 -146 182
-61 379 c-34 209 -63 381 -64 383 -2 1 -100 -100 -219 -225 -310 -327 -345
-369 -334 -397 7 -20 31 -19 62 1 56 37 237 -11 459 -121 l130 -65 166 -208
166 -207 -5 -246 c-3 -136 -2 -263 2 -283 10 -55 38 -48 70 18 16 34 45 70 74
94 61 50 108 82 120 82 5 0 92 -103 193 -230 101 -126 189 -229 195 -230 6 0
17 6 23 14 10 12 -21 56 -171 241 -101 125 -184 230 -186 235 -2 5 46 34 107
65 l111 55 285 0 285 0 0 -305 0 -305 25 0 25 0 0 305 0 305 340 0 340 0 0 25
0 25 -340 0 -340 0 0 250 0 250 338 2 337 3 0 25 0 25 -337 3 -338 2 0 230 0
230 338 2 337 3 0 25 0 25 -337 3 -338 2 0 250 0 250 340 0 340 0 0 25 0 25
-320 0 c-176 0 -320 3 -320 8 1 4 122 183 269 397 l268 390 -76 6 c-42 4 -213
10 -381 13 -168 4 -372 8 -455 10 -82 2 -185 1 -228 -3z m991 -70 l53 -6 -251
-365 c-137 -201 -253 -364 -256 -363 -3 1 -49 91 -104 200 -116 234 -217 391
-313 487 l-70 69 444 -7 c244 -5 468 -11 497 -15z m-1406 -378 l-17 -92 -37
32 -37 32 51 63 c28 35 52 61 54 59 2 -2 -4 -44 -14 -94z m-26 -277 c1 -97 6
-150 22 -206 l20 -75 -32 -27 c-37 -32 -44 -33 -73 -9 -26 22 -27 41 -16 328
l6 172 36 -26 36 -26 1 -131z m-135 -122 l-6 -281 -165 47 c-91 25 -171 48
-179 51 -8 3 49 84 170 236 101 128 184 231 185 230 1 -1 -1 -128 -5 -283z
m337 101 c67 -49 121 -92 122 -95 0 -3 -26 -18 -57 -34 -32 -15 -83 -43 -114
-62 -31 -19 -59 -34 -62 -34 -19 0 -52 238 -41 297 7 39 -4 44 152 -72z m746
-141 c3 -9 6 -121 6 -250 l0 -234 -289 0 -288 0 -47 35 c-25 20 -46 37 -46 39
0 2 37 -5 81 -16 91 -22 112 -19 107 14 -2 19 -21 30 -95 60 -51 20 -113 51
-138 68 -42 29 -125 122 -125 140 0 14 27 30 152 96 l123 63 276 1 c243 0 278
-2 283 -16z m-779 -293 c42 -39 45 -43 20 -37 -14 4 -61 32 -102 63 l-75 57
28 22 27 22 27 -41 c15 -23 48 -62 75 -86z m-164 22 c12 -15 12 -16 -4 -10
-10 4 -23 7 -28 7 -5 0 -9 5 -9 10 0 16 26 12 41 -7z m34 -71 c88 -25 111 -36
193 -96 50 -37 92 -69 92 -71 0 -2 -39 -25 -87 -51 -49 -26 -123 -71 -166
-101 -43 -29 -83 -53 -88 -53 -5 0 -23 10 -39 22 -29 21 -30 25 -30 102 0 109
12 276 19 276 3 -1 51 -13 106 -28z m-602 -279 c26 -164 48 -301 47 -305 0 -4
-43 13 -97 38 -136 63 -287 114 -360 121 l-63 6 42 46 c96 107 370 391 377
391 4 0 28 -134 54 -297z m1517 -153 l0 -230 -294 0 -293 0 -164 121 c-90 66
-165 124 -167 128 -4 13 108 87 229 150 l114 61 288 0 287 0 0 -230z m-1021
26 c9 -10 8 -16 -4 -26 -13 -11 -15 -8 -15 14 0 30 3 32 19 12z m215 -157 c83
-62 155 -115 160 -120 5 -4 -24 -24 -63 -43 -95 -48 -196 -110 -249 -153 l-42
-34 -31 22 -31 21 7 147 c4 80 11 150 16 156 5 5 9 16 9 24 0 19 49 91 62 91
6 0 78 -50 162 -111z m806 -409 l0 -250 -291 0 -291 0 -184 136 c-101 74 -184
139 -184 144 0 14 156 114 264 169 l99 51 294 0 293 0 0 -250z m-807 -148
l168 -125 -90 -48 c-50 -27 -95 -49 -99 -48 -4 0 -55 61 -114 134 -102 127
-107 136 -97 162 14 38 39 64 53 56 6 -4 87 -63 179 -131z m-159 -137 c42 -52
79 -101 82 -108 3 -8 -15 -28 -43 -47 -26 -19 -67 -52 -90 -74 l-43 -39 0 84
c0 84 11 279 15 279 2 0 37 -43 79 -95z"/>
</g>
</svg>
