<?xml version="1.0" standalone="yes"?>
<svg xmlns="http://www.w3.org/2000/svg" width="485" height="371">
<!-- <path style="fill:#ffffff; stroke:none;" d="M0 0L0 371L485 371L485 0L0 0z"/>
--><path style="fill:#000000; stroke:none;" d="M163 129L161 179L110 146.308L83 130C83 156.007 81 181.955 81 208C81 212.641 78.4278 230.529 84.2238 232.248C87.0364 233.083 97.9471 216.968 101 214.465C118.774 199.889 141.075 193.611 161 183L161 220C161.005 223.088 160.246 230.068 164.224 231.248C167.037 232.083 177.946 215.968 181 213.465C196.347 200.885 219.691 188.55 239 183.61C257.746 178.813 282.634 183 302 183L435 183L435 177L299 177L259 177C252.806 177 244.933 178.275 239 176.298C211.32 167.071 190.41 139.374 163 129z"/>
<path style="fill:#ffffff; stroke:none;" d="M168 140L167 217L201 193.781L231 179L191 153.308L168 140M88 141L87 218L119 195.781L151 180L109 152.947L88 141z"/>
</svg>
