<?xml version="1.0" standalone="no"?>
<!DOCTYPE svg PUBLIC "-//W3C//DTD SVG 20010904//EN"
 "http://www.w3.org/TR/2001/REC-SVG-20010904/DTD/svg10.dtd">
<svg version="1.0" xmlns="http://www.w3.org/2000/svg"
 width="452.000000pt" height="371.000000pt" viewBox="0 0 452.000000 371.000000"
 preserveAspectRatio="xMidYMid meet">
<metadata>
Created by potrace 1.16, written by Peter Selinger 2001-2019
</metadata>
<g transform="translate(0.000000,371.000000) scale(0.100000,-0.100000)"
fill="#000000" stroke="none">
<path d="M2587 3421 c-88 -7 -112 -24 -76 -53 12 -10 29 -18 38 -18 30 0 124
-75 172 -136 110 -140 262 -410 347 -616 l32 -77 0 -299 0 -300 -830 276 -829
277 -277 343 c-152 189 -280 340 -284 335 -8 -9 -160 -418 -235 -633 -68 -195
-96 -291 -89 -312 8 -27 39 -22 60 10 24 37 40 49 103 78 116 54 371 103 617
120 l101 7 832 -278 832 -277 -3 -106 -3 -106 -865 -253 c-476 -139 -872 -253
-880 -253 -8 0 -201 54 -428 121 -227 67 -415 119 -418 116 -12 -12 221 -879
251 -938 19 -35 53 -39 59 -6 3 12 7 39 10 61 3 21 20 64 38 94 57 96 308 344
480 476 30 22 199 75 889 277 469 137 856 249 860 249 5 0 9 -290 9 -645 l0
-645 25 0 25 0 0 655 0 654 73 22 c39 12 123 36 185 54 l114 33 159 -53 c142
-48 161 -52 166 -37 3 9 8 20 10 24 2 3 -54 25 -124 49 l-127 42 102 30 c94
27 102 32 96 51 -4 12 -8 22 -9 24 -2 2 -64 -15 -138 -37 l-136 -40 -185 62
-186 62 0 325 1 325 288 420 288 420 -76 6 c-42 4 -213 10 -381 13 -168 4
-372 8 -455 10 -82 2 -185 1 -228 -3z m991 -70 l52 -6 -250 -365 c-138 -201
-253 -364 -256 -363 -3 1 -50 91 -104 200 -117 234 -217 391 -313 487 l-70 69
444 -7 c244 -5 468 -11 497 -15z m-2438 -584 c128 -159 230 -290 228 -291 -1
-2 -57 -9 -123 -16 -246 -24 -460 -72 -566 -126 l-51 -25 7 23 c10 34 155 442
211 595 27 73 52 132 55 130 4 -1 111 -132 239 -290z m2165 -967 c72 -24 126
-45 120 -47 -5 -1 -70 -20 -142 -42 l-133 -39 0 90 c0 68 3 89 13 86 6 -3 71
-24 142 -48z m-2355 -591 c190 -56 346 -102 347 -103 1 0 -37 -33 -84 -71
-182 -149 -360 -341 -413 -445 -22 -43 -23 -44 -32 -20 -21 57 -198 723 -198
745 0 4 8 4 18 1 9 -3 172 -51 362 -107z"/>
</g>
</svg>
