<?xml version="1.0" standalone="yes"?>
<svg xmlns="http://www.w3.org/2000/svg" width="360" height="371">
<!-- <path style="fill:#ffffff; stroke:none;" d="M0 0L0 371L360 371L360 0L0 0z"/>
--><path style="fill:#000000; stroke:none;" d="M96 179C76.0137 170.388 56.36 150.119 35 146C35 166.335 33.9201 186.707 33.0394 207C32.8818 210.63 32.1992 225.306 37.0401 226.079C40.0223 226.555 48.0441 214.884 51.0008 212.746C64.4965 202.987 80.5796 196.981 96 191L96 340L102 340L102 189L242 189L242 190L205 212.576L135 257L135 259C169.913 278.437 202.66 304.215 236 326.333C243.761 331.481 251.726 336.932 260 341.215C262.3 342.405 267.822 345.521 269.914 342.393C272.277 338.857 266.171 334.436 263.999 332.59C254.95 324.898 246.191 318.154 239.699 308C221.539 279.595 234.063 243.311 247.753 216C252.577 206.378 258.799 189.144 271 189C270.987 185.806 271.403 183.729 268 183L274 176L274 340L279 340L279 223C279 204.766 275.554 182.454 281 165C277.867 165 278.095 142.053 279.333 138C281.419 131.176 287.011 124.12 290.667 118C298.729 104.501 306.687 90.8081 314.167 77C317.315 71.1883 322.32 65.3827 324 59C299.691 58.933 275.397 57 251 57C246.949 57 229.176 54.6226 228.466 60.1736C228.056 63.3801 231.895 64.6165 234.005 65.99C239.003 69.2432 242.91 74.0453 246.135 79C258.477 97.9624 273.999 125.984 274 149C274 154.579 275.806 164.07 272.397 168.816C260.943 184.757 239.939 183 223 183L102 183C102 169.263 98.2099 148.95 102.818 136C112.55 108.649 137.228 86.7202 146 59C122.011 58.8015 98.0722 57 74 57C69.5944 57 52.6562 54.5432 50.662 59.4151C49.0912 63.2529 54.7826 64.9037 57.0008 66.5092C64.3135 71.8023 69.612 80.1209 73.7446 88C81.9681 103.679 92.7322 122.347 95.6744 140C97.7421 152.406 96 166.425 96 179z"/>
<path style="fill:#ffffff; stroke:none;" d="M63 62C77.3191 82.4076 91.295 103.485 98 128L109.85 111L136 64L63 62M241 62L261.216 93L277 129C289.867 109.493 306.013 85.9427 314 64L241 62M41 156L39 214L71 194.781L93 185C77.324 175.406 58.6031 161.178 41 156M146 257L146 259L243 323C237.224 314.544 231.191 306.948 228.029 297C215.721 258.277 238.606 221.681 256 189L222 209.05L146 257z"/>
</svg>
