<?xml version="1.0" standalone="no"?>
<!DOCTYPE svg PUBLIC "-//W3C//DTD SVG 20010904//EN"
 "http://www.w3.org/TR/2001/REC-SVG-20010904/DTD/svg10.dtd">
<svg version="1.0" xmlns="http://www.w3.org/2000/svg"
 width="262.000000pt" height="371.000000pt" viewBox="0 0 262.000000 371.000000"
 preserveAspectRatio="xMidYMid meet">
<metadata>
Created by potrace 1.16, written by Peter Selinger 2001-2019
</metadata>
<g transform="translate(0.000000,371.000000) scale(0.100000,-0.100000)"
fill="#000000" stroke="none">
<path d="M290 3423 c-41 -2 -80 -9 -87 -15 -21 -17 -15 -38 15 -49 76 -30 118
-58 169 -113 103 -111 237 -337 352 -593 l51 -113 0 -1115 0 -1115 25 0 25 0
0 1118 0 1117 226 330 c124 182 228 332 230 334 15 16 154 -212 262 -429 l107
-215 3 -1127 2 -1128 30 0 30 0 0 1123 0 1123 286 418 c157 229 284 419 281
422 -14 14 -761 27 -1362 25 -165 -1 -361 0 -435 2 -74 2 -169 2 -210 0z m844
-75 c21 -7 59 -31 84 -53 l45 -41 -219 -322 c-120 -176 -221 -321 -224 -321
-3 -1 -25 43 -49 97 -119 262 -246 467 -362 586 l-78 79 382 -6 c262 -4 394
-10 421 -19z m1017 4 l57 -7 -252 -367 c-138 -203 -254 -368 -258 -368 -5 0
-8 5 -8 11 0 18 -152 323 -203 409 -25 41 -70 110 -101 153 l-56 78 37 56 38
55 345 -7 c190 -4 370 -10 401 -13z m-837 -27 l-16 -24 -29 21 c-16 12 -29 23
-29 25 0 2 20 3 45 3 l45 0 -16 -25z"/>
</g>
</svg>
