<?xml version="1.0" standalone="no"?>
<!DOCTYPE svg PUBLIC "-//W3C//DTD SVG 20010904//EN"
 "http://www.w3.org/TR/2001/REC-SVG-20010904/DTD/svg10.dtd">
<svg version="1.0" xmlns="http://www.w3.org/2000/svg"
 width="456.000000pt" height="371.000000pt" viewBox="0 0 456.000000 371.000000"
 preserveAspectRatio="xMidYMid meet">
<metadata>
Created by potrace 1.16, written by Peter Selinger 2001-2019
</metadata>
<g transform="translate(0.000000,371.000000) scale(0.100000,-0.100000)"
fill="#000000" stroke="none">
<path d="M412 3319 c-34 -13 -26 -50 12 -60 41 -11 109 -81 161 -164 55 -88
148 -284 209 -438 l46 -117 0 -865 c0 -476 -4 -865 -8 -865 -5 0 -100 38 -212
85 -112 46 -206 82 -209 80 -18 -19 -40 -830 -22 -863 16 -30 47 -28 65 6 33
62 125 120 301 190 137 54 382 133 545 176 l135 36 1083 0 c955 0 1082 -2
1082 -15 0 -8 9 -15 20 -15 11 0 23 7 26 15 5 13 37 15 205 15 l199 0 0 25 0
25 -200 0 -200 0 0 981 0 981 220 382 220 381 -42 7 c-60 10 -848 23 -881 14
-40 -10 -36 -43 7 -61 52 -22 91 -60 145 -140 49 -73 171 -313 171 -336 0 -8
-19 -10 -67 -5 -138 13 -1536 27 -1617 16 -32 -4 -42 -10 -44 -26 -2 -16 5
-25 28 -34 17 -7 48 -33 69 -57 44 -49 140 -238 198 -388 l38 -100 3 -252 3
-253 -81 0 -80 0 -315 180 c-173 99 -319 180 -324 180 -10 0 -22 -287 -25
-577 -1 -169 1 -194 16 -209 14 -14 20 -15 32 -4 9 7 16 18 16 26 0 20 57 81
107 115 61 43 237 128 374 183 105 41 124 46 197 46 l82 0 0 -505 0 -505 25 0
25 0 0 505 0 505 225 0 225 0 0 -505 0 -505 25 0 25 0 0 505 0 505 250 0 250
0 0 -510 0 -510 30 0 30 0 0 510 0 510 195 0 195 0 0 -525 0 -525 -1102 0
-1103 1 -245 103 -245 102 -3 881 -2 881 221 382 c121 210 219 383 217 385 -6
6 -612 25 -758 24 -80 0 -155 -4 -168 -10z m523 -49 c170 -6 311 -13 313 -15
7 -7 -371 -654 -379 -650 -4 3 -10 17 -13 31 -14 55 -139 333 -191 424 -29 52
-76 123 -104 158 l-51 62 58 0 c31 0 196 -5 367 -10z m2872 -9 c100 -3 185 -9
188 -12 3 -4 -75 -145 -173 -315 -98 -170 -183 -317 -188 -327 -8 -14 -19 5
-59 105 -93 235 -197 427 -278 515 l-40 43 184 -1 c101 0 266 -4 366 -8z
m-1491 -547 c54 -40 55 -36 -71 -263 l-118 -212 -42 109 c-52 131 -116 261
-159 322 -18 25 -36 51 -40 58 -7 11 29 13 197 10 189 -3 208 -5 233 -24z
m534 6 c14 -7 26 -14 28 -15 3 -3 -219 -411 -243 -447 -10 -15 -18 1 -55 95
-23 62 -67 159 -97 217 l-55 105 18 34 19 34 180 -5 c121 -3 188 -9 205 -18z
m595 -2 c3 -2 -55 -113 -129 -246 l-133 -241 -38 97 c-53 136 -107 246 -154
320 -23 34 -41 68 -41 74 0 7 71 9 245 6 135 -2 247 -7 250 -10z m120 -123
l35 -96 0 -409 0 -410 -195 0 -195 0 0 246 0 246 152 275 c112 203 154 270
160 259 5 -8 24 -58 43 -111z m-608 13 c38 -61 114 -226 157 -341 l36 -97 0
-245 0 -245 -250 0 -250 0 0 248 0 249 131 236 c72 131 135 237 140 237 5 0
21 -19 36 -42z m-508 -85 c27 -54 70 -152 97 -218 l49 -120 3 -252 3 -253
-225 0 -226 0 0 246 0 246 123 224 c67 123 123 223 124 224 2 0 25 -44 52 -97z
m-819 -726 c135 -77 246 -141 248 -142 1 -1 -35 -17 -80 -35 -138 -54 -339
-155 -403 -203 l-60 -46 -3 122 c-2 67 0 200 3 294 7 172 7 173 29 161 11 -6
131 -74 266 -151z m-973 -973 l183 -77 0 -123 0 -124 30 0 30 0 0 111 c0 85 3
110 13 106 6 -2 102 -42 211 -88 l200 -83 -65 -19 c-390 -111 -660 -216 -782
-303 l-50 -36 6 218 c11 367 19 494 31 494 6 0 93 -34 193 -76z"/>
</g>
</svg>
