<?xml version="1.0" standalone="no"?>
<!DOCTYPE svg PUBLIC "-//W3C//DTD SVG 20010904//EN"
 "http://www.w3.org/TR/2001/REC-SVG-20010904/DTD/svg10.dtd">
<svg version="1.0" xmlns="http://www.w3.org/2000/svg"
 width="447.000000pt" height="371.000000pt" viewBox="0 0 447.000000 371.000000"
 preserveAspectRatio="xMidYMid meet">
<metadata>
Created by potrace 1.16, written by Peter Selinger 2001-2019
</metadata>
<g transform="translate(0.000000,371.000000) scale(0.100000,-0.100000)"
fill="#000000" stroke="none">
<path d="M270 3462 c-28 -9 -34 -41 -10 -52 124 -58 153 -84 253 -235 61 -92
173 -308 233 -448 l34 -79 0 -766 c-1 -422 -5 -812 -10 -867 -17 -170 -25
-787 -11 -813 18 -33 38 -27 61 18 47 93 274 208 657 334 l171 56 1141 0 1141
0 0 25 0 25 -100 0 -100 0 0 1004 0 1004 220 381 c121 210 220 385 220 390 0
17 -862 39 -915 23 -44 -13 -40 -42 10 -65 54 -26 79 -50 135 -132 62 -92 143
-255 216 -435 l59 -145 3 -347 3 -348 -601 0 -601 0 -325 222 -324 223 0 110
0 110 246 385 245 385 -138 7 c-140 7 -1000 25 -1573 33 -173 3 -326 1 -340
-3z m853 -61 l128 -6 -223 -332 -222 -332 -92 187 c-108 218 -185 340 -274
436 l-64 68 309 -7 c171 -4 367 -10 438 -14z m2860 0 l107 -6 -176 -305 c-97
-168 -183 -316 -191 -328 -14 -23 -16 -20 -64 99 -100 248 -194 421 -281 515
l-43 46 270 -7 c149 -4 318 -10 378 -14z m-1871 -20 l117 -6 -211 -330 c-115
-181 -211 -331 -212 -332 -1 -2 -13 23 -26 55 -95 235 -226 465 -323 569 l-61
65 299 -7 c165 -4 353 -11 417 -14z m-745 -30 c80 -58 169 -189 276 -408 40
-82 87 -186 106 -233 l33 -85 -12 -460 c-7 -253 -9 -514 -6 -580 4 -66 9 -301
12 -522 l5 -403 -69 0 -69 0 -404 194 -404 194 -3 814 -2 813 237 353 c130
193 242 352 248 352 7 0 30 -13 52 -29z m786 -1200 c147 -101 267 -184 267
-186 0 -1 -69 -37 -152 -78 -174 -86 -315 -175 -388 -243 l-50 -47 0 387 0
387 28 -19 c15 -10 147 -101 295 -201z m1527 -856 l0 -635 -925 0 -925 0 0
423 0 424 30 41 c62 85 213 186 462 307 l153 75 603 0 602 0 0 -635z m-2489
-475 c195 -94 357 -174 361 -178 5 -5 -31 -21 -80 -36 -276 -89 -545 -209
-630 -281 l-42 -37 0 176 c0 150 2 176 15 176 13 0 15 26 15 175 0 96 2 175 4
175 2 0 163 -77 357 -170z"/>
</g>
</svg>
