<?xml version="1.0" standalone="yes"?>
<svg xmlns="http://www.w3.org/2000/svg" width="331" height="371">
<!-- <path style="fill:#ffffff; stroke:none;" d="M0 0L0 371L331 371L331 0L0 0z"/>
--><path style="fill:#000000; stroke:none;" d="M242 82L156 80L104 79.6096L37 47C32.0163 63.8606 35 86.4209 35 104C35 107.784 32.9637 120.583 37.2747 122.338C40.4315 123.623 52.488 110.37 56 108L55 202L55 249L39 240C39 259.044 38 277.942 38 297C38 301.273 35.9674 313.028 39.7269 315.953C43.6154 318.978 48.709 308.276 51.0154 306.184C62.2161 296.027 78.1285 289.743 92 284.2C107.364 278.06 126.63 281 143 281L245 281L245 343L251 343L251 261C251 251.729 247.849 235.357 252.028 227C261.592 207.872 287.904 198.505 297 179L249 178L249 115L250.028 88L263 74L297 39C272.058 38.7935 246.955 37 222 37C218.295 37 199.636 35.1539 199.636 41.0008C199.636 44.381 211.346 47.4876 214 49.5293C225.353 58.2624 234.071 70.2482 242 82z"/>
<path style="fill:#ffffff; stroke:none;" d="M217 43L248 80C260.54 71.1664 275.166 56.5403 284 44L217 43M42 56L40 111C45.2491 108.078 55.0031 103.85 57 98L91 87L91 81L42 56M104 88C107.264 96.9683 113.926 119.169 122 124C126.651 116.031 130.83 107.501 134.421 99C135.563 96.2947 137.889 92.2352 135.381 89.6034C130.668 84.6571 110.61 88 104 88M159 128L160 128L178 88L155 88L146.222 89.6034L148.691 100L159 128M166 128L244 128L244 88L202 88L185.637 89.0278L179.247 100L166 128M69 102L111 119C108.747 112.087 104.778 95.5692 97.787 92.1211C92.1164 89.3241 73.7118 98.4377 69 102M141 99L128 126L153 128C150.848 118.704 147.135 106.405 141 99M62 106C62 116.703 60.9993 127.277 61 138C61.0002 141.468 60.1188 146.821 63.3179 149.215C66.8897 151.887 71.7118 148.332 75 146.781C84.2919 142.399 94.1822 139.226 104 136.28C106.799 135.44 114.128 134.52 114.454 130.791C114.903 125.639 106.521 123.83 103 122.397C89.5547 116.923 76.0057 109.831 62 106M123 177L156 177L156 147L154.821 135.603L141 134L124.603 136.938L123 148L123 177M162 177L244 177L244 134L184 134L163.028 135.603L162 147L162 177M72 155C85.1618 163.057 101.202 176.988 117 177L117 139C103.847 140.148 82.3196 146.663 72 155M66 158C57.3063 168.28 61 189.219 61 202L101 180L101 179L66 158M67 204C70.9316 208.62 76.8326 211.299 82 214.4C92.4587 220.675 104.456 230.888 117 231L117 183C99.1586 183.051 82.0208 195.637 67 204M123 183L123 231L156 231L156 183L123 183M162 183L162 231L245 231C244.559 222.846 238.624 216.288 233.87 210C227.319 201.333 219.935 191.97 210 186.998C195.945 179.965 177.252 183 162 183M217 184L217 185C230.348 193.83 238.451 207.577 248 220L249 220L283 185L217 184M62 210L62 254L103 234C92.6862 225.037 75.0208 214.122 62 210M69 257C81.1049 271.225 99.4634 276 117 276L117 237C100.63 237.047 82.2566 248.064 69 257M123 237L123 276L156 276L156 237L123 237M162 237L162 276L245 276L245 237L162 237M45 251L44 303L89 279L89 277L64 262C57.0892 272.484 57.6703 261.44 54.0617 256.529C51.9622 253.671 48.2006 252.172 45 251z"/>
</svg>
