<?xml version="1.0" standalone="yes"?>
<svg xmlns="http://www.w3.org/2000/svg" width="336" height="371">
<!-- <path style="fill:#ffffff; stroke:none;" d="M0 0L0 371L336 371L336 0L0 0z"/>
--><path style="fill:#000000; stroke:none;" d="M93 137L47 137C47.5961 144.474 56.2748 143.652 62 146.323C71.8094 150.901 85.4918 159.762 91.3966 169.004C94.6796 174.142 93 183.133 93 189L93 238L59 238C56.2723 238 48.8755 236.759 47.7515 240.259C46.3747 244.547 56.5132 245.491 59 246.464C70.3292 250.896 84.8246 260.59 91.3966 271C94.9041 276.556 93 286.652 93 293L93 345L99 345L99 292C99 286.302 97.0824 276.253 100.028 271.21C102.755 266.539 110.531 263.374 115 260.576C120.438 257.17 127.535 250.21 134 249.236C142.08 248.019 159.674 264.404 162.972 271C165.854 276.764 164 286.674 164 293L164 345L170 345L170 293C170 287.015 167.992 276.5 171.028 271.185C173.725 266.462 181.546 263.251 186 260.344C191.592 256.694 200.845 248.016 207.576 247.455C216.711 246.695 235.264 263.584 238.972 271C241.854 276.764 240 286.674 240 293L240 345L246 345L246 291C246 285.458 243.997 274.956 247.603 270.379C259.106 255.78 283.073 252.396 295 238L246 238L246 190L247.028 170.093L260 160.333L295 138L295 137L246 136L246 86L247.603 66.5178L295 34L107 34L62 34C58.9221 34 48.9955 32.385 47.7515 36.2593C46.3747 40.5473 56.5132 41.4909 59 42.4637C70.2662 46.8711 84.8616 56.649 91.3966 67C94.7846 72.3663 93 81.8783 93 88L93 137z"/>
<path style="fill:#ffffff; stroke:none;" d="M141 39L167 61L168 61L199 41L182 39.9606L141 39M216 39L216 40L243 59.5532L253 55.0031L275 41L258 39.9105L216 39M70 40L70 41L96 59.9776L105 55.6674L127 41C110.346 36.0772 87.391 40 70 40M170 136L240 136L240 87C240 80.9225 241.745 71.5445 238.972 66C235.218 58.4922 216.259 41.7584 207 43.233C200.198 44.3164 192.756 51.6162 187 55.1921C182.405 58.047 172.824 62.0543 170.603 67.2099C168.231 72.7181 170 82.0615 170 88L170 136M99 137L164 136L164 87C164 80.9232 165.745 71.5436 162.972 66C159.603 59.2648 142.198 43.6432 134 44.7238C127.378 45.5966 119.585 53.0786 114 56.5756C109.746 59.2391 101.732 62.5156 99.6034 67.3256C97.2083 72.7391 99 82.1401 99 88L99 137M68 142L68 143L95 162.554L105 158.308L127 144L113 142.83L68 142M141 142L141 143L167 162.119L176 158.053L199 142L141 142M217 142L217 143L243 162.119L253 157.576L276 143L257 142L217 142M170 238L240 238L240 189C240 182.977 241.777 173.486 238.972 168.015C235.238 160.73 215.883 144.52 207 145.723C200.219 146.641 191.656 154.587 186 158.333C181.455 161.342 173.806 164.303 171.028 169.184C168.223 174.113 170 183.471 170 189L170 238M99 238L164 238L164 190C164 183.922 165.745 174.545 162.972 169C159.516 162.088 142.544 146.087 134 147.211C127.625 148.051 120.362 155.067 115 158.424C110.572 161.197 102.717 164.606 100.028 169.21C97.1964 174.058 99 183.532 99 189L99 238M141 243L167 265L168 265L199 245L184 243.83L141 243M216 243L216 244L243 265L244 265L275 245L260 243.83L216 243M70 244L70 245L96 263.897L105 259.657L127 245C110.346 240.077 87.3909 244 70 244z"/>
</svg>
