<?xml version="1.0" standalone="yes"?>
<svg xmlns="http://www.w3.org/2000/svg" width="478" height="371">
<!-- <path style="fill:#ffffff; stroke:none;" d="M0 0L0 371L478 371L478 0L0 0z"/>
--><path style="fill:#000000; stroke:none;" d="M58 34C58 65.0063 55.9501 95.9346 56 127C56.0685 169.637 57.8421 213.191 54.9105 256C53.6806 273.959 54 291.97 54 310C54 313.872 52.0634 325.574 56.4144 327.593C60.6022 329.536 63.6754 319.4 65.5293 317.001C73.6261 306.521 86.7063 299.956 98 293.576C107.819 288.029 119.852 280.609 131 278.379C140.098 276.559 150.734 278 160 278L217 278C217.031 280.598 217.736 289.161 222.444 285.338C226.78 281.818 228.53 274.398 233.039 270.289C248.667 256.05 271.939 243.737 292 237.104C303.926 233.161 320.502 236 333 236L419 236L419 230L333 230L293 229.49L263 210.141L237 192.656L228.613 183.961L237 173.174L268 153.258L297 140.39L338 140L422 140L422 134L335 134C322.882 134 306.649 136.844 295 133.49C281.719 129.666 267.496 115.701 256 107.999C246.369 101.547 227.561 93.1639 222 83L160 83C151.668 83 139.851 85.13 132 82.1566C105.058 71.9528 85.453 42.7481 58 34z"/>
<path style="fill:#ffffff; stroke:none;" d="M64 45L62.9853 72L62 124L81 108.695L124 86L101 69.3333L64 45M219 180L221 89L162 89C152.478 89 141.326 87.4066 132 89.3896C119.991 91.9432 107.652 99.8412 97 105.694C88.2951 110.478 65.3986 121.233 64.831 132.907C64.6579 136.467 69.526 138.68 72 140.333C80.0471 145.712 88 151.212 96 156.656C106.182 163.585 119.204 176.09 131 179.49C139.276 181.876 150.412 180 159 180L219 180M226 96L225 175C244.421 161.373 263.565 144.751 287 138C283.662 132.497 276.203 129.104 271 125.424C257.354 115.775 241.598 101.912 226 96M63 142L62 221L86 202.811L124 183L89 158.656L63 142M65 229L109 258.667L129 271.49L157 272L217 272L218 186L161 186C151.79 186 141.001 184.467 132 186.529C119.792 189.327 106.837 197.302 96 203.424C85.1492 209.554 70.3087 217.122 65 229M224 192L222 272L248 252.061L285 233L259 214.975L224 192M62 235L60 269L59 314C79.0961 297.987 98.6802 286.05 122 275L86 249.975L62 235z"/>
</svg>
