<?xml version="1.0" standalone="yes"?>
<svg xmlns="http://www.w3.org/2000/svg" width="562" height="371">
<!-- <path style="fill:#ffffff; stroke:none;" d="M0 0L0 371L562 371L562 0L0 0z"/>
--><path style="fill:#000000; stroke:none;" d="M229 157L127 157C119.001 157 110.999 156.946 103 157.001C101.05 157.014 96.4107 156.506 95.9213 159.259C95.2692 162.929 108.312 166.73 111 168.523C122.689 176.32 131 184.866 131 199L111 198.258L77 169L77 168C87.7451 160.438 97.9126 148.4 111 144.638C122.195 141.421 137.374 144 149 144L228 144L228 138L146 138C136.065 138 120.174 141.02 111 137.062C92.2136 128.955 81.2181 105.451 63 96C63 134.27 62 172.654 62 211C62 219.999 61.9388 229.001 62.0008 238C62.0176 240.445 61.6314 245.519 65.0147 246.079C67.7429 246.53 68.5105 242.816 69.2299 240.995C71.767 234.574 77.0214 229.704 82 225.09C97.3115 210.9 110.581 205 131 205L131 236L113 228C112.429 255.679 110 283.248 110 311C110 316.788 107.111 334.274 112.498 337.953C114.378 339.236 116.264 338.295 117.486 336.681C122.727 329.761 127.415 324.245 135 319.615C159.591 304.604 187.705 295.434 215 286.671C224.695 283.558 235.916 285 246 285L302 285L492 285L492 279L455 279L455 165C455 150.685 450.758 128.384 455.843 115C466.18 87.7939 496.521 69.2415 507 42C424.688 42 342.413 38.0234 260 39.0038C240.391 39.2371 220.73 39 201 39C197.144 39 184.489 36.9716 182.662 41.4144C180.987 45.4887 187.616 47.0528 190 48.4822C198.486 53.5712 204.075 62.8714 209.308 71C216.44 82.0782 226.011 96.9521 228.621 110C231.542 124.604 229 142.103 229 157z"/>
<path style="fill:#ffffff; stroke:none;" d="M197 45L216.576 71L233 102C242.888 87.3427 261.569 69.0816 266 52C247.302 39.8398 218.591 45 197 45M274 52L274 53C285.673 67.7187 294.804 84.6919 302 102L303 102L339 49C325.878 44.1089 310.851 45 297 45C292.122 45 284.848 43.6559 280.3 45.6034C277.582 46.7674 275.782 49.781 274 52M268 46L269 48L270 48L271 46L268 46M380 103C389.282 93.8708 396.381 80.7934 403.67 70C406.131 66.3546 411.232 61.5173 411.839 57.0394C412.336 53.3683 407.752 50.819 405 49.4267C392.573 43.1398 375.525 46 362 46C359.579 46 348.415 44.5313 348.346 48.3179C348.265 52.7501 356.972 60.233 359.485 64C367.467 75.9673 375.348 89.3386 380 103M452 108L453 108L496 48C477.463 45.6573 457.694 46 439 46C432.617 46 422.36 45.6817 422.266 55C422.215 60.0368 428.966 65.9413 431.565 70C439.272 82.0381 446.499 94.7874 452 108M413 47L417 51L419 47L413 47M343 53C335.401 66.6487 325.193 79.1324 316.341 92C312.755 97.2125 307.286 102.833 305.51 109C301.106 124.296 305 146.064 305 162L305 279L377 279L377 151C377 138.033 378.64 123.833 376.79 111C375.877 104.663 372.067 98.6402 369.247 93C362.516 79.5382 355.227 62.3577 343 53M270 58C260.077 74.0802 241.318 91.0195 235.563 109C230.814 123.84 235 146.395 235 162L235 279L299 279L299 153C299 139.108 300.864 123.733 298.787 110C296.424 94.3723 281.683 68.3773 270 58M417 61C409.286 71.0081 402.47 81.7084 395.141 92C391.354 97.3188 385.374 103.7 383.513 110C379.028 125.185 383 147.146 383 163L383 279L449 279L449 153C449 141.034 450.576 127.831 448.787 116C446.353 99.9023 429.759 70.8461 417 61M68 108C68 121.666 68.0651 135.334 67.9992 149C67.9805 152.893 65.7153 161.185 71.0594 162.654C74.4295 163.581 77.7426 159.324 80 157.438C87.421 151.24 95.5478 145.688 104 141C94.9986 129.23 80.1145 116.534 68 108M228 161C219.185 168.518 201.563 175.913 196.028 186.093C194.08 189.675 195 195.053 195 199L228 199L228 205L195 205L195 252L189 252L189 205L136 205C136 212.889 132.486 231.857 137.028 238.363C141.215 244.361 154.572 247.941 161 251.258C182.116 262.157 204.803 279 229 279L229 197L228 161M114 162L114 163C119.108 166.787 127.829 178.39 134 178.887C140.941 179.445 151.301 167.549 157 164C146.274 159.499 125.807 162 114 162M172 162L172 163C177.997 166.751 185.185 178.12 192 179.093C198.423 180.011 209.941 167.634 215 164C204.274 159.499 183.807 162 172 162M136 199L189 199C189 186.093 185.262 180.174 175 172.004C172.323 169.873 168.687 166.162 165 166.216C160.751 166.278 156.206 171.232 153 173.626C141.901 181.914 136 184.622 136 199M72 173C64.1228 188.586 67 213.679 67 231L68 231C76.821 218.478 91.1561 209.889 104 202L72 173M118 237L116 326C143.628 306.767 174.763 290.689 208 283L188 271.247L136 246L136 252L131 252C130.993 242.614 126.916 239.568 118 237z"/>
</svg>
