<?xml version="1.0" standalone="no"?>
<!DOCTYPE svg PUBLIC "-//W3C//DTD SVG 20010904//EN"
 "http://www.w3.org/TR/2001/REC-SVG-20010904/DTD/svg10.dtd">
<svg version="1.0" xmlns="http://www.w3.org/2000/svg"
 width="733.000000pt" height="371.000000pt" viewBox="0 0 733.000000 371.000000"
 preserveAspectRatio="xMidYMid meet">
<metadata>
Created by potrace 1.16, written by Peter Selinger 2001-2019
</metadata>
<g transform="translate(0.000000,371.000000) scale(0.100000,-0.100000)"
fill="#000000" stroke="none">
<path d="M3490 3158 l-143 -173 -421 -214 c-232 -117 -425 -217 -430 -221 -4
-5 16 -24 45 -44 l54 -36 -772 0 -772 0 -289 160 c-159 88 -294 160 -299 160
-17 0 -33 -653 -17 -694 11 -28 43 -18 58 17 25 62 153 142 366 229 l115 47
28 -27 c42 -39 80 -98 137 -208 l50 -97 0 -389 0 -388 -50 0 c-45 0 -74 14
-347 165 -163 90 -298 163 -300 161 -8 -8 -23 -637 -16 -671 11 -48 41 -55 61
-13 23 48 103 107 226 167 157 77 308 133 374 139 l52 4 0 -86 c0 -85 0 -86
25 -86 25 0 25 1 25 85 l0 85 180 0 180 0 0 -85 0 -85 30 0 30 0 0 85 0 85
155 0 155 0 0 -85 c0 -84 0 -85 25 -85 25 0 25 1 25 85 l0 85 180 0 180 0 0
-85 0 -85 30 0 30 0 0 85 0 85 99 0 100 0 283 -188 c156 -103 320 -211 365
-239 68 -44 83 -58 88 -85 18 -83 77 -274 89 -286 16 -17 46 -5 46 18 0 29 75
86 189 144 208 106 101 85 1670 327 790 121 1450 219 1466 216 36 -6 78 23 73
50 -3 15 -12 18 -63 15 -46 -2 -393 60 -1455 261 l-1396 264 -134 98 c-74 53
-139 101 -144 105 -5 5 13 20 40 33 144 73 103 65 1613 298 813 125 1450 218
1469 215 17 -2 32 -1 32 5 0 5 6 9 14 9 20 0 29 16 22 38 -5 15 -16 17 -69 15
-49 -3 -353 52 -1453 260 l-1391 263 -181 132 c-100 73 -184 132 -186 132 -2
0 -68 -78 -146 -172z m314 -12 c77 -55 135 -101 130 -102 -5 -2 -76 -13 -159
-24 -82 -12 -190 -30 -240 -41 -49 -10 -91 -19 -93 -19 -2 0 19 26 47 57 27
32 48 59 46 61 -2 2 -18 -4 -37 -14 -32 -16 -33 -16 -17 2 9 11 48 58 88 106
43 52 78 85 85 81 6 -3 74 -51 150 -107z m1553 -388 c706 -133 1280 -245 1275
-248 -4 -4 -618 -100 -1364 -215 l-1357 -208 -283 90 c-200 64 -284 87 -286
78 -2 -7 6 -50 18 -95 12 -45 19 -84 17 -87 -10 -9 -78 86 -109 153 -32 67
-33 73 -33 194 0 110 3 135 28 211 16 47 49 124 75 170 45 81 49 85 99 101 89
30 486 94 598 97 22 1 617 -108 1322 -241z m-2083 119 c-3 -8 2 -19 10 -26 13
-11 11 -21 -19 -82 -118 -233 -118 -468 -1 -643 l43 -64 -81 52 c-313 203
-496 327 -496 336 0 5 -7 10 -15 10 -23 0 -127 72 -118 81 10 10 664 346 675
348 4 1 5 -5 2 -12z m-2554 -283 c203 -112 210 -117 204 -143 -4 -14 -9 -29
-13 -32 -3 -4 -51 -26 -106 -49 -118 -49 -207 -97 -270 -145 l-45 -35 0 103
c0 120 12 417 16 417 2 0 98 -52 214 -116z m671 -194 c10 -6 19 -16 19 -22 0
-6 -22 -40 -48 -77 -27 -36 -68 -92 -92 -125 l-43 -59 -41 79 c-22 44 -63 110
-89 147 l-48 67 161 0 c92 0 170 -4 181 -10z m389 -18 l34 -29 -79 -109 c-43
-60 -82 -113 -86 -118 -4 -5 -22 20 -39 55 -18 35 -52 95 -77 132 -25 37 -42
74 -39 82 4 12 29 15 129 15 120 0 123 -1 157 -28z m397 13 c22 -16 22 -16
-70 -145 -51 -71 -94 -129 -97 -129 -3 -1 -22 32 -42 72 -21 39 -49 93 -64
118 -27 46 -27 46 -8 72 19 26 21 26 139 27 92 0 126 -4 142 -15z m437 -12
c-21 -33 -173 -244 -185 -257 -4 -5 -22 20 -40 55 -17 35 -51 95 -76 133 -24
38 -42 75 -39 82 4 11 41 14 182 14 l176 0 -18 -27z m294 -121 c114 -76 275
-182 358 -235 l151 -97 16 -58 c8 -31 15 -57 14 -58 -1 -1 -209 -108 -462
-239 -253 -130 -464 -240 -468 -245 -5 -4 7 -17 25 -28 l33 -22 -62 0 -63 0 0
393 0 392 121 168 c66 92 122 167 125 167 2 0 98 -62 212 -138z m-605 -28 c20
-33 48 -85 62 -115 l25 -54 0 -392 0 -393 -180 0 -180 0 0 388 0 389 102 141
c115 161 98 157 171 36z m-815 54 c16 -24 50 -85 76 -135 l46 -93 0 -390 0
-390 -180 0 -180 0 0 390 0 389 98 136 c53 74 100 135 104 135 4 0 20 -19 36
-42z m395 -45 c19 -32 49 -86 66 -120 l31 -62 0 -391 0 -390 -155 0 -155 0 0
393 0 394 83 116 c45 64 85 116 89 117 4 0 22 -26 41 -57z m1748 -120 l210
-67 -88 -42 c-65 -30 -92 -38 -101 -31 -11 9 -22 1 -49 -31 l-35 -42 -58 46
c-57 44 -58 47 -79 129 -22 89 -25 105 -15 105 3 0 100 -30 215 -67z m175
-315 l143 -103 -162 -23 c-151 -21 -347 -60 -392 -78 -11 -4 18 38 65 96 94
115 181 210 195 210 4 0 72 -46 151 -102z m-302 61 c-6 -11 -24 -2 -24 11 0 5
7 7 15 4 8 -4 12 -10 9 -15z m-195 -221 c-44 -77 -86 -169 -111 -251 -18 -58
-23 -95 -23 -187 1 -131 18 -194 81 -288 19 -30 29 -50 21 -45 -47 26 -667
439 -667 443 1 4 715 376 728 379 1 1 -12 -23 -29 -51z m2054 -230 c721 -136
1279 -246 1270 -250 -10 -4 -626 -100 -1369 -214 l-1351 -207 -272 87 c-149
48 -278 89 -286 92 -10 4 -15 0 -15 -12 -1 -17 -3 -16 -21 6 -36 43 -77 133
-90 198 -16 84 -6 192 27 292 26 77 29 81 78 109 83 48 226 81 526 121 74 10
153 19 175 19 22 1 619 -108 1328 -241z m-4575 -24 c125 -69 230 -129 235
-133 4 -4 -37 -24 -90 -45 -128 -50 -284 -128 -345 -172 l-48 -36 0 174 c0
164 9 338 17 338 2 0 106 -57 231 -126z m2840 -609 c111 -36 206 -65 210 -65
4 0 -51 -29 -123 -64 -71 -36 -149 -81 -173 -102 -24 -20 -45 -34 -48 -31 -4
4 -54 174 -54 185 0 1 18 -7 40 -18 47 -24 66 -25 74 -4 8 22 6 25 -74 85 -61
47 -87 79 -62 79 4 0 98 -29 210 -65z"/>
</g>
</svg>
