<?xml version="1.0" standalone="yes"?>
<svg xmlns="http://www.w3.org/2000/svg" width="584" height="371">
<path style="fill:#ffffff; stroke:none;" d="M0 0L0 371L584 371L584 0L0 0z"/>
<path style="fill:#000000; stroke:none;" d="M485 338L491 338L491 185L491 138C491 130.883 489.532 121.87 491.51 115C493.667 107.509 500.714 100.427 505 94C518.803 73.2996 540.186 51.2534 549 28C518.041 27.3609 486.991 25 456 25C450.379 25 429.104 22.2802 426.176 28.2986C425.272 30.1558 426.645 31.6815 428.153 32.5818C434.8 36.5515 440.409 38.9627 445.826 45.0008C462.099 63.1382 475.769 89.0128 483.756 112C486.302 119.328 485 128.334 485 136L485 182L485 338M202 100L130 131.424L101 143.242L82 136.95L41 122C44.2953 136.244 50.6131 150.292 55.6813 164C57.6746 169.391 61.5368 176.157 61.3256 182C61.098 188.299 57.5919 194.981 55.8588 201C51.433 216.371 46.6771 231.709 41.9753 247C40.533 251.691 34.175 266.062 38.0278 270.338C40.4226 272.996 43.8211 268.533 45.2855 266.996C52.7732 259.14 62.6281 257.526 73 256.285C98.3787 253.25 114.853 268.235 135 281.667C141.2 285.8 152.714 290.567 155 298C161.378 298.345 165.827 301.885 171 305.333C182.495 312.997 209.947 323.96 210 339L216 339C217.807 314.596 253.132 300.331 272 291.691C296.042 280.683 321.955 284 348 284L482 284L482 278L350 278C332.078 278 307.142 282.515 290 277.351C279.692 274.246 268.949 264.622 260 258.667C247.559 250.388 226.925 242.116 217.603 230.482C214.487 226.593 216 218.689 216 214C216 199.418 211.774 176.926 219.482 164C229.995 146.372 256.962 136.063 275 128.281C296.239 119.117 322.135 123 345 123L480 123L480 117L349 117C330.259 117 306.166 121.076 288 116.581C269.869 112.095 253.944 93.0158 237 85L274 29C242.664 29 211.398 27 180 27C172.345 27 164.652 26.7737 157.001 27.0154C154.684 27.0887 150.856 27.1295 150.466 30.1736C149.964 34.09 165.879 41.774 168.91 45.0038C183.113 60.1419 194.064 80.9374 202 100z"/>
<path style="fill:#ffffff; stroke:none;" d="M441 31C459.895 54.437 478.081 77.8687 488 107L489 107L539 33L441 31M164 32L164 33C185.995 46.7592 195.519 75.6157 208 97L210 97L212 69L232 81L263 35L235 33.9105L164 32M217 79L217 101L218 101L228 86L217 79M232 90C227.472 97.9482 219.616 105.26 216.702 114C212.67 126.097 216 144.26 216 157L252 132.309L279 119C265.556 109.931 247.783 93.7089 232 90M155 287L155 221C155 212.586 157.386 199.756 153.86 192C148.548 180.313 136.241 168.345 126 160.927C120.444 156.903 110.184 156.424 109 149L207 149L161.028 192.424L160 214L160 267L161.028 290.482L175 300.667L210 323L210 172C210 151.935 215.171 123.872 205 106C180.82 111.743 155.637 126.442 133 136.769C124.079 140.839 110.91 143.8 103.669 150.498C92.535 160.798 78.5636 184.465 78.2639 200C78.126 207.147 82.9645 214.616 85.7191 221C93.1478 238.215 97.687 250.361 114 260.576C127.571 269.073 140.533 280.156 155 287M51 132L73 193L74 193C76.4902 176.374 88.9737 163.09 97 149L51 132M127 154L127 155L147.561 174L157.174 184.654L167 178.715L192 155L127 154M65 191L45 258C60.7059 251.47 75.0779 250 92 250L72.3194 206L65 191M220 241L218 318C238.041 303.896 257.797 287.919 282 281L282 280L220 241z"/>
</svg>
