<?xml version="1.0" standalone="yes"?>
<svg xmlns="http://www.w3.org/2000/svg" width="473" height="371">
<!-- <path style="fill:#ffffff; stroke:none;" d="M0 0L0 371L473 371L473 0L0 0z"/>
--><path style="fill:#000000; stroke:none;" d="M406 303L406 328L411 328L411 190C411 169.359 407.034 144.151 411.39 124C413.344 114.964 419.948 106.095 424.219 98C433.499 80.4124 443.359 62.3534 451 44C429.826 41.324 407.341 41.2577 386 41.0038C381.886 40.9549 367.533 39.5713 365.662 44.2994C364.258 47.848 368.873 49.7239 371.001 51.4144C376.766 55.9947 380.492 62.5264 383.752 69C395.895 93.112 406 117.877 406 145L362 145C362.002 124.822 383.456 111.59 393 95C356.744 95 320.335 94.0583 284 94C269.052 93.976 253.97 91.6159 239 93.5756C228.496 94.9508 216.701 92.9993 206 93C202.866 93.0002 195.932 91.9056 194.176 95.4151C192.359 99.0461 200.922 103.037 202.961 105.044C211.414 113.364 217.477 125.137 222 136L188 111C188 128.956 187 146.976 187 165C187 168.067 185.156 181.364 190.015 181.364C193.41 181.364 196.869 173.265 199.043 171.015C205.883 163.937 214.971 157.891 224 154L224 223L189 197C185.859 213.918 187 233.778 187 251C187 254.341 185.356 267.066 190.248 267.824C193.869 268.385 196.355 261.197 198.214 259C205.247 250.687 214.861 245.595 224 240L224 298L149 298L149 171C149 153.201 144.726 129.093 149.638 112C157.042 86.2338 178.628 63.7813 189 39C163.312 39 137.745 36.686 112 37.0038C100.135 37.1503 89.3664 41.1736 77 39.7145C66.4249 38.4668 55.6464 38.9829 45 39C41.8627 39.005 36.0517 38.3095 34.0864 41.4985C31.7779 45.2444 43.8007 52.9596 45.9568 56C56.224 70.4785 62.7036 88.2776 68.3326 105C75.7435 127.016 74 148.952 74 172C74 208.667 73 245.415 73 282C73 296.69 72 311.278 72 326C72 329.59 70.5351 338.612 74.4954 340.673C77.5702 342.273 87.0114 328.71 90.0008 326.478C102.644 317.041 124.905 303.829 141 303.04C228.859 298.735 318.022 303 406 303z"/>
<path style="fill:#ffffff; stroke:none;" d="M146 104L147 104L179 45C165.62 41.0452 147.009 43 133 43C130.113 43 119.735 41.4062 118.882 45.3179C117.954 49.5704 125.26 57.2892 127.219 61C134.575 74.9304 140.34 89.3267 146 104M46 45L77 111C90.8647 94.2669 101.637 67.0868 110 47L46 45M377 47L397.397 84L409 114L442 49L377 47M114 52C104.627 74.5132 87.3052 95.507 80.6373 119C77.7704 129.101 80 142.528 80 153L80 224C80 233.321 76.2984 252.695 81.0278 260.79C83.7561 265.46 91.5464 268.262 96 271.05C109.416 279.448 127.472 294.997 143 298L143 136C143 114.07 138.043 98.1453 129.421 78C125.708 69.3234 121.292 58.2047 114 52M207 99L226 131L228 131L247 104C239.11 95.0582 217.918 99 207 99M271 127L290 105C283.763 97.7247 274.729 98.9961 266 99C263.377 99.0012 256.515 98.0697 256.331 102.148C256.035 108.689 268.037 120.661 271 127M314 132C320.55 126.59 325.171 117.965 329.995 111C331.575 108.719 334.525 105.299 332.339 102.514C328.314 97.3844 312.824 99.8952 307 100.005C304.408 100.053 300.377 100.037 299.447 103.148C298.543 106.17 301.811 109.698 303.333 112C307.503 118.309 311.092 125.016 314 132M358 127C366.937 122.645 376.086 108.542 381 100L353 100L344.342 102.318L358 127M251 108L233.86 132L230.136 141.852L240 145L268 145C268 131.428 262.179 116.576 251 108M294 109C283.947 119.922 274 129.749 274 145L311 145C310.891 132.82 302.307 117.674 294 109M338 109C331.335 119.798 317.318 131.827 317 145L356 145C356 132.946 349.712 114.723 338 109M193 122L192 168L224 147L224 145L193 122M268 231L268 150L241 150C238.09 150 233.052 149.088 230.603 151.028C227.171 153.746 229 164.062 229 168L229 213C229 217.541 227.368 226 231.318 229.258C238.108 234.858 259.423 231 268 231M274 150L274 231L311 231L311 150L274 150M317 150L317 231L356 231L356 150L317 150M362 150L362 231L406 231L406 150L362 150M194 208L193 254L224 233L224 231L194 208M229 237L229 298L268 298L268 237L229 237M274 237L274 298L311 298L311 237L274 237M317 237L317 298L356 298L356 237L317 237M362 237L362 298L406 298L406 237L362 237M80 269C80 286.751 84.3692 311.377 78 328C94.0501 316.829 110.776 305.258 130 300L115 289.2L80 269z"/>
</svg>
