<?xml version="1.0" standalone="yes"?>
<svg xmlns="http://www.w3.org/2000/svg" width="1119" height="371">
<!-- <path style="fill:#ffffff; stroke:none;" d="M0 0L0 371L1119 371L1119 0L0 0z"/>
--><path style="fill:#000000; stroke:none;" d="M634 21L633 28C605.32 28 577.661 26 550 26C544.138 26 526.006 23.3736 522.047 28.588C519.487 31.9595 537.149 42.0957 539.985 45C556.966 62.3848 567.058 86.3065 577.22 108C586.4 127.597 581 157.614 581 179L581 338L587 338L587 184L587 137L587.563 115L601.141 94L632 48L633 48C631.529 66.6437 629.821 87.3683 631.089 106C631.324 109.444 630.677 122.396 635.09 123.079C638.748 123.645 640.103 117.232 641.652 115C647.04 107.236 655.676 102.63 663 97L661 257L633 239C633 263.282 634.13 288.838 631.83 313C631.28 318.779 628.659 336.99 633.588 341.149C637.417 344.38 643.675 330.44 646.04 328.015C659.07 314.653 677.421 306.28 694 298.258C712.522 289.297 735.801 293 756 293L882 293L882 338L888 338L888 271C916.994 287.142 944.331 307.977 972 326.333C978.495 330.641 985.123 335.012 992 338.691C994.153 339.842 998.061 342.385 1000.38 340.292C1004.47 336.592 996.317 331.258 994 329.4C982.411 320.105 971.764 309.983 968.236 295C962.356 270.03 975.725 244.001 989.344 224C993.928 217.267 1000.62 211.387 1004 204L966 224.694L888 269L888 168L888.419 115L897 100C921.487 118.822 948.77 135.512 975 151.808C981.255 155.694 987.308 160.184 994 163.316C995.965 164.235 1000.32 165.917 1001.25 162.681C1002.47 158.433 995.663 154.336 993 152.2C983.705 144.745 975.664 137.164 970.873 126C960.546 101.935 972.881 79.9026 982 58C993.575 75.1724 1007.2 96.7445 1012.39 117C1014.29 124.409 1013 133.387 1013 141L1013 188L1013 339L1019 339L1019 184L1019 137C1019 130.234 1017.54 121.473 1019.7 115C1022.38 106.965 1029.88 98.9234 1034.72 92C1048.44 72.3657 1067.72 51.0587 1077 29L990 27L953 28C953.576 35.461 966.079 39.9552 972 44L972 45L913 78L946 28C914.801 27.9966 883.181 26.4048 852 25.0394C844.58 24.7144 837.376 25.8643 830 26.0031C827.565 26.0489 822.914 25.7774 822.466 29.1204C821.918 33.2115 832.334 36.1404 835 38.3295C845.177 46.6852 852.192 57.9165 859 69L756 69C742.421 69 722.89 72.5944 710 68.2979C682.302 59.065 661.396 31.3688 634 21M297 100C265.64 104.226 233.45 117.74 203 126.421C193.072 129.252 176.21 138.023 166 136.306C160.902 135.448 156.936 130.637 152 129C152 147.026 138.106 145.228 124 141.884C99.4564 136.066 73.1103 126.051 48 124C52.1333 138.052 62.3071 152.288 69.5787 165C72.314 169.782 78.5625 177.258 78.091 183C77.5387 189.727 72.074 196.977 69.3086 203C62.5794 217.655 55.5171 232.178 49.1505 247C47.0055 251.994 38.4547 265.386 42.0417 270.638C43.2192 272.362 45.1079 272.156 46.7191 271.214C53.863 267.036 58.6082 263.003 67 260.895C88.7595 255.43 129.743 250.006 148.682 265.074C151.103 267 150.423 270.401 152.587 272.338C155.408 274.863 157.208 271.146 158 269C196.162 283.806 233.414 301.5 271 317.719C281.337 322.18 304.847 327.04 305 340L311 340C312.814 316.187 346.837 302.686 365 293.756C371.554 290.534 379.665 285.822 387 285.105C396.35 284.191 403.979 293.928 411.851 292.574C416.447 291.784 413.491 287.1 412 285L578 285L578 279L448 279C435.769 279 410.284 283.815 401.04 274.941C375.074 250.013 402.983 211.38 416 188L417 188L433 199L416 211C421.66 217.952 430.647 222.34 438 227.344C451.922 236.818 465.721 246.485 480 255.424C483.382 257.542 498.26 269.844 501.914 264.393C504.603 260.38 496.363 255.237 494.001 253.246C483.369 244.287 478.841 233.749 479.004 220C479.352 190.601 501.542 169.139 516 146C509.008 147.643 502.912 153.059 497 157L463 179.667C458.18 182.88 449.94 190.997 444.04 191.311C437.987 191.633 434.99 179.479 434.298 175C432.258 161.794 436.208 147.889 441.782 136C443.368 132.616 445.105 127.124 448.39 125.028C455.59 120.435 474.521 124 483 124L575 124L575 118L452 118L471 91L429 117.157L411 118L382 117.157L332 86C343.789 68.5244 361.531 49.7071 369 30C337.339 30 305.733 28 274 28C269.432 28 245.636 25.2935 245.636 31.9753C245.636 35.0845 249.842 35.6838 252.001 36.6088C257.53 38.9778 261.887 43.6606 265.91 48C279.263 62.4045 289.487 81.955 297 100z"/>
<path style="fill:#ffffff; stroke:none;" d="M837 31L837 32C857.93 47.9471 876.736 80.7827 884 106L892 96L888 94L888 92C904.645 87.1037 914.607 64.5832 923.667 51C927.559 45.1649 932.503 39.5855 935 33L837 31M536 32L536 33C557.053 47.83 575.933 82.468 583 107L597.141 89L621.026 54L633 34L536 32M260 33L260 34C279.731 49.0336 293.599 75.4208 303 98C310.153 93.3512 307 77.6647 307 70L326 82L327 82L359 35L260 33M642 33C636.903 43.1399 638 54.9326 638 66C638 80.6814 637 95.2806 637 110L638 110C653.077 88.6561 681.576 84.5627 702 71L642 33M969 33L977 42L992 34L969 33M1015 107L1017 107L1066 35C1050.75 33.0722 1034.38 33 1019 33C1013.64 33 1006.1 31.6528 1001.04 33.6034C996.096 35.5101 987.151 46.5627 986.929 52C986.718 57.1624 993.091 63.6743 995.573 68C1002.79 80.5881 1009.43 93.5976 1015 107M973 143C963.602 123.129 958.006 108.286 963.884 86C966.564 75.8388 978.881 59.7656 977 50C957.147 55.8399 936.99 71.5808 919 81.8495C915.159 84.0417 902.425 88.7748 902.346 93.9529C902.265 99.1995 915.19 105.127 919 107.667C936.776 119.517 954.334 132.608 973 143M859 69L859 74L760 74L711 74.3789L669 93L669 95C681.863 103.75 694.354 113.079 707 122.14C712.517 126.094 718.514 132.114 725 134.297C738.642 138.889 759.606 135 774 135L882 135C882 112.075 874.144 87.0888 859 69M912 78L913 79L912 78M313 81L312 103L313 103L323 86L313 81M328 90C323.54 98.011 315.688 105.341 312.698 114C308.198 127.034 311 144.387 311 158C331.52 143.602 350.807 129.235 375 121L375 120L328 90M668 102L667 171L718 138L698 122.579L668 102M172 142L197 160.272L231 161L305 161C305 141.974 307.37 122.726 300 105L227 125.859L172 142M445 114L441 117L441 118L445 114M387 279L387 278C367.046 266.891 345.378 252.812 328 238L409 185L409 183L371 158L371 156C387.803 149.631 404.093 135.056 419 125C402.085 117.902 377.385 125.647 362 132.691C344.763 140.584 317.981 151.207 311.904 171C308.805 181.094 311 194.49 311 205C311 212.169 308.918 223.211 311.603 229.907C313.956 235.772 323.978 239.653 329 243C341.234 251.152 353.727 258.912 366 267.003C372.488 271.281 379.249 277.501 387 279M382 156L382 158C390.093 163.46 405.149 178.672 415 179.071C418.954 179.231 425.887 174.413 427.397 170.816C429.598 165.569 428.52 157.749 429.884 152C432.208 142.21 437.246 133.563 440 124C419.063 124.002 399.75 146.118 382 156M60 133C66.1231 154.255 82.6715 177.725 95 196L107.808 176L132 150L60 133M157 139L158 140L157 139M671 176L671 177C681.916 186.31 694.365 194.175 706 202.576C711.758 206.733 718.218 213.014 725 215.297C738.642 219.889 759.606 216 774 216L882 216L882 141L783 141C765.142 141 743.44 137.62 726 141.39C707.563 145.376 682.855 161.742 671 176M190 164C184.515 157.263 175.397 151.338 168 146.779C165.205 145.057 160.525 143.546 158.028 146.728C152.283 154.049 157.343 174.175 168 174.419C174.725 174.573 183.577 166.369 190 164M151 259L151 148C133.465 151.629 119.475 169.003 109.428 183C105.643 188.273 100.647 195.133 101.228 202C101.841 209.244 108.78 216.17 112.667 222C118.559 230.838 124.229 243.438 132.326 250.362C137.234 254.559 145.035 256.686 151 259M173 180L197 196.436L231 197L305 197L305 166L227 166C207.231 166 188.581 165.41 173 180M491 168L448 197L448 199C449.371 200.045 450.78 201.039 452.039 202.223C452.97 203.098 454.045 203.97 454.795 205.015C462.826 216.212 441.17 204.43 439 204.502C434.733 204.644 430.387 208.715 427 211L427 213L480 248C470.473 227.498 472.413 209.663 481.012 189C483.754 182.41 490.32 175 491 168M427 174L420 184L434 192L427 174M157 176L157 184L162 180L162 179L157 176M190 199C184.864 195.322 174.379 184.257 168 184.331C159.171 184.433 153.704 201.189 158.603 207.535C166.096 217.24 182.871 204.907 190 199M668 183L667 252L718 219L718 218C702.365 206.802 685.694 190.48 668 183M83 189L61.6914 234L51 260C74.8518 250.799 99.8002 251 125 251L94.7569 207L83 189M403 195L339 238C350.762 252.231 374.865 265.017 391 274C385.518 254.825 383.639 241.424 390.695 222C393.622 213.942 402.757 203.162 403 195M172 216L172 218L197 235.297L231 236L305 236L305 203L231 203L196 203.637L172 216M157 215L157 220L159 215L157 215M157 259L190 239C187.432 235.891 184.239 233.768 181 231.371C177.256 228.601 171.731 222.844 167 222.172C162.831 221.58 159.452 226.671 158.148 230C154.907 238.274 157 250.219 157 259M882 287L882 222L772 222C751.893 222 731.329 219.082 713 228.247C700.817 234.338 688.256 240.719 678.039 249.87C675.007 252.587 669.178 257.197 669.546 261.816C669.875 265.941 677.046 269.037 680 271.141C692.153 279.795 700.77 287 716 287L882 287M981 223L899 270L928 290L974 320C959.481 296.451 957.983 274.847 968.453 249C971.561 241.327 980.738 230.996 981 223M315 241L313 320L314 320C330.25 299.112 357.202 295.984 377 281L315 241M162 264C192.51 276.517 222.933 289.753 253 303.306C268.988 310.512 287.757 321.936 305 325L305 242L225 242C202.122 242 177.129 243.459 162 264M639 250L637 328L638 328C650.321 310.557 676.555 298.544 696 291L696 289L639 250z"/>
</svg>
