<?xml version="1.0" standalone="yes"?>
<svg xmlns="http://www.w3.org/2000/svg" width="350" height="371">
<!-- <path style="fill:#ffffff; stroke:none;" d="M0 0L0 371L350 371L350 0L0 0z"/>
--><path style="fill:#000000; stroke:none;" d="M193 22C165.419 50.8187 140.529 82.1701 114.05 112C104.71 122.523 94.932 139.72 82.9105 147.062C77.6203 150.293 69.0373 150.281 63 151.13C50.1027 152.944 37.0134 156.441 24 157C28.8856 173.609 46.9296 188.094 49.6157 205C50.7488 212.131 34.8424 226.071 40.0432 232.214C42.6142 235.251 52.1698 228.249 56 228.13C60.7098 227.983 63.8685 230.323 68.1698 231.367C77.0408 233.519 85.2957 233.639 94 237.789C103.857 242.489 111.738 255.107 119.09 263L171.09 319C177.329 325.698 183.607 332.356 189.91 338.995C191.979 341.175 194.441 344.982 197.956 343.994C203.528 342.428 200.641 327.145 201.611 322C205.076 303.628 211.637 280.433 225.001 267C246.448 245.44 266.505 222.504 288 201C292.866 196.132 309.793 183.13 309.793 176C309.793 172.84 306.113 170.273 303.999 168.424C297.628 162.852 291.396 157.119 285 151.576C267.794 136.663 250.864 121.371 234 106.075C226.707 99.4599 216.363 93.04 210.854 84.8302C199.103 67.3172 205.197 39.1148 193 22z"/>
<path style="fill:#ffffff; stroke:none;" d="M190 35L157 76L203 83C201.194 69.5914 197.87 46.031 190 35M182 322L183 322L158 278L177 276L177 275L174 275L174 190C174 179.146 177.065 162.718 171.753 153C164.876 140.418 154.016 126.085 142 118.105C139.572 116.492 127.113 113.365 129.176 109.39C131.733 104.461 148.26 107 153 107C177.39 107 201.617 108 226 108C214.079 124.923 190.25 136.556 181.028 155C176.742 163.571 180 180.485 180 190L180 275C189.419 274.257 204.576 274.174 212.985 269.822C225.462 263.365 236.094 245.955 246.001 236C259.318 222.618 271.999 208.638 285.039 195C289.586 190.245 298.64 184.33 300.824 178C302.62 172.795 293.245 167.063 290 164.166C276.38 152.004 262.62 139.996 249 127.834C223.24 104.832 196.622 75.4355 158 82.3295C140.242 85.4993 129.714 103.184 118.729 116C107.052 129.624 90.2347 143.602 84.7106 161C82.5589 167.777 85.9664 175.359 87.6265 182C91.8758 198.997 93.7965 225.476 105.301 239C129.582 267.543 159.285 292.188 182 322M146 113L146 114C158.93 123.852 167.25 137.316 177 150L178 150L212 114L146 113M80 154L33 162L55 200L73.6034 168L80 154M79 177L71.1698 211L72.0278 223.272L94 231L84.4244 193L79 177M70 185L71 186L70 185M69 187C61.7187 198.897 57.9501 204.039 64 217L65 217L69 187M54 213L49 223L61 223L56 213L54 213M167 283L194 329L195 329C195.375 310.834 204.298 293.856 210 277L167 283z"/>
</svg>
