<?xml version="1.0" standalone="yes"?>
<svg xmlns="http://www.w3.org/2000/svg" width="420" height="371">
<!-- <path style="fill:#ffffff; stroke:none;" d="M0 0L0 371L420 371L420 0L0 0z"/>
--><path style="fill:#000000; stroke:none;" d="M200 173L134 173L102 172.362L36 136C35.587 156.009 34 175.931 34 196C34 200.545 31.8306 213.164 36.4151 215.914C39.9235 218.018 47.8733 205.417 51 203.209C64.9281 193.375 86.8371 181.323 104 179.185C117.601 177.491 132.292 179 146 179C181.011 179 207.793 178.966 237 200.873C245.149 206.986 259.752 216.116 263.397 226C266.996 235.762 264 251.609 264 262L264 344L270 344L270 258C270 249.247 266.663 231.856 271.028 224.184C273.334 220.131 279.17 217.567 283 215.192C292.017 209.601 301.075 204.046 310 198.308C319.154 192.423 330.892 181.738 342 181L346 174L342 174L342 108L343.028 80L357 65L388 32C329.06 31.9936 269.706 30.0226 211 30L169 30C165.695 30 157.002 28.5 155.256 32.2739C153.298 36.5059 163.613 38.5945 166 40.0941C178.107 47.6993 187.188 60.2022 194.921 72C201.764 82.4399 200 93.9854 200 106L200 173z"/>
<path style="fill:#ffffff; stroke:none;" d="M247 39C258.288 47.6247 266.149 60.3625 274 72C284.947 66.8949 298.068 51.8409 305 42C291.88 34.3715 277.67 35 263 35C257.356 35 250.099 33.3795 247 39M172 36L172 37C184.491 45.5423 196.524 60.3099 203 74C213.677 66.4585 231.493 49.8084 237 38C216.751 32.7611 192.835 36 172 36M307 36L307 37L310 37L307 36M339 74L340 74C350.276 62.8435 367.626 50.6686 374 37C358.96 37 343.985 35.9991 329 36C324.557 36.0003 316.844 35.2678 315.346 41.0193C314.42 44.5733 318.839 47.7533 320.911 50C327.762 57.4254 332.876 66.0327 339 74M206 173L270 173L270 104C270 90.5906 271.883 78.4606 263.975 67C259.837 61.0038 250.882 44.8621 243.004 43.9213C237.012 43.2058 225.095 59.9053 221 64C216.453 68.5471 208.879 73.8289 206.603 80C203.663 87.9752 206 100.533 206 109L206 173M309 46L287 69L276.603 81L276 110L276 174L336 174L336 111C336 101.747 337.952 89.9435 335.501 81C332.278 69.2433 318.725 52.9075 309 46M41 146L40 203L94 176C80.7305 164.891 57.494 151.219 41 146M214 179L214 180C227.671 185.692 239.801 194.542 251 204.131C254.929 207.495 261.684 216.389 267 216.748C272.178 217.097 279.778 209.98 284 207.319C297.975 198.51 311.925 189.646 326 181L299 179.91L214 179z"/>
</svg>
