<?xml version="1.0" standalone="yes"?>
<svg xmlns="http://www.w3.org/2000/svg" width="426" height="371">
<path style="fill:#ffffff; stroke:none;" d="M0 0L0 371L426 371L426 0L0 0z"/>
<path style="fill:#000000; stroke:none;" d="M101 340L107 340L107 185L107 139L107.702 117L121.999 95L165 31C134.804 27.1839 102.449 28 72 28C66.1188 28 45.7911 25.0559 42.0864 30.598C39.7512 34.0914 57.9612 43.9332 60.7106 47.0146C76.8826 65.1394 88.3578 88.8154 97.8495 111C106.418 131.027 101 161.373 101 183L101 340z"/>
<path style="fill:#ffffff; stroke:none;" d="M56 34L56 35C80.7843 52.4584 89.4941 84.0526 104 109L105 109L137.025 62L154 36L56 34z"/>
<path style="fill:#000000; stroke:none;" d="M114 138C111.141 160.62 112 184.187 112 207C112 211.661 109.558 226.942 113.599 229.953C117.574 232.915 125.09 219.395 128.015 216.924C142.69 204.521 162.282 196.602 180 189.601C197.458 182.703 222.37 187 241 187L370 187L370 181L244 181C226.432 181 202.92 185.138 186 180.501C179.596 178.746 173.618 173.614 168 170.203C150.804 159.763 132.897 144.918 114 138z"/>
<path style="fill:#ffffff; stroke:none;" d="M119 148L117 218C136.621 204.233 155.304 194.268 177 184L177 183L119 148z"/>
</svg>
