<?xml version="1.0" standalone="yes"?>
<svg xmlns="http://www.w3.org/2000/svg" width="558" height="371">
<!-- <path style="fill:#ffffff; stroke:none;" d="M0 0L0 371L558 371L558 0L0 0z"/>
--><path style="fill:#000000; stroke:none;" d="M115 24C99.4025 52.0161 80.5149 78.4746 64 106C60.8479 111.254 47.3426 128.524 51.071 134.677C52.4461 136.947 55.0294 136.501 57.0008 135.393C64.1716 131.361 69.8808 126.868 78 124.438C107.988 115.464 139.229 114.916 170 111.285C209.021 106.681 248.383 121.343 286 130.626C354.069 147.424 422.342 165.829 491 180L491 181L453 189.349L372 208.349L279 230.116L234 241C234 217.491 258.014 204.762 266 184C236.593 183.393 207.41 183.141 178 182.999C170.79 182.964 164.236 182.005 157.001 182.835C154.912 183.074 150.636 182.905 150.636 186.004C150.636 188.632 154.26 189.546 156.005 190.723C160.629 193.841 164.373 198.482 167.561 203C177.619 217.256 182 229.817 182 247C144.826 241.994 106.125 228.176 70 218C70 250.11 71.2427 284.152 75.4244 316C76.1872 321.81 74.9688 343.275 82.0255 345.248C85.1419 346.12 86.205 342.104 87.061 339.995C90.3207 331.966 95.8686 325.998 102 320.015C125.425 297.155 154.95 281.899 182 264L182 339L188 339L188 282C188 276.475 185.836 265.048 189.603 260.61C197.428 251.391 217.969 251.107 229 248L229 339L234 339L234 273L235.028 248.43L253 242.576L303 230.87L507 183C506.373 174.949 496.492 174.996 490 173.373C471.373 168.717 452.628 164.53 434 159.873C378.785 146.07 323.215 133.677 268 119.873C253.385 116.22 238.724 112.393 224 109.21C216.63 107.617 206.318 106.711 200 102.436C176.667 86.6465 158.301 61.0795 137 42.5756C130.263 36.7231 123.778 26.4638 115 24z"/>
<path style="fill:#ffffff; stroke:none;" d="M117 33L84.5756 84L61 124C103.825 112.287 146.313 105 191 105C186.335 94.9969 174.952 87.3184 167 79.9105C150.548 64.585 135.42 45.9632 117 33M164 188L185 221L186 221L206 192C194.842 185.75 176.583 188 164 188M214 192L214 193L231 221L233 221L255 189C244.052 189 221.92 183.776 214 192M210 197C204.095 207.365 193.61 216.049 188.938 227C187.292 230.855 185.899 247.25 190.318 249.396C195.72 252.019 205.54 247.39 211 246.21C215.109 245.322 226.328 244.67 228.397 240.567C232.708 232.017 224.848 220.008 220.85 213C217.651 207.394 214.634 201.558 210 197M76 226C76.0232 260.964 78.6146 297.3 83 332C105.455 308.818 128.487 290.206 156 272.95C162.609 268.805 169.379 264.926 175.995 260.796C177.767 259.69 181.528 257.845 181.079 255.21C180.275 250.495 160.175 247.978 156 246.849C129.53 239.688 102.853 231.543 76 226z"/>
</svg>
