<?xml version="1.0" standalone="no"?>
<!DOCTYPE svg PUBLIC "-//W3C//DTD SVG 20010904//EN"
 "http://www.w3.org/TR/2001/REC-SVG-20010904/DTD/svg10.dtd">
<svg version="1.0" xmlns="http://www.w3.org/2000/svg"
 width="405.000000pt" height="371.000000pt" viewBox="0 0 405.000000 371.000000"
 preserveAspectRatio="xMidYMid meet">
<metadata>
Created by potrace 1.16, written by Peter Selinger 2001-2019
</metadata>
<g transform="translate(0.000000,371.000000) scale(0.100000,-0.100000)"
fill="#000000" stroke="none">
<path d="M697 3373 c-4 -75 -7 -173 -7 -217 0 -45 -3 -98 -6 -118 l-7 -38
-128 0 c-104 0 -131 -3 -144 -16 -20 -20 -6 -39 33 -47 74 -15 241 -181 242
-239 0 -46 17 -78 42 -78 25 0 29 -5 116 -169 l55 -104 -12 -351 c-14 -428
-14 -564 -1 -602 6 -18 9 -131 8 -286 l-3 -257 -110 69 -110 69 -6 -107 c-13
-202 -20 -727 -11 -757 14 -51 43 -44 72 17 43 90 208 198 485 317 l140 61
853 0 c767 0 852 -2 852 -16 0 -10 7 -14 23 -12 l22 3 5 1020 5 1020 160 258
160 257 78 0 c75 0 77 1 77 25 0 22 -4 24 -60 27 l-59 3 59 95 59 95 -42 7
c-23 4 -249 10 -502 14 -420 7 -461 6 -474 -9 -19 -24 -7 -44 31 -52 22 -5 55
-30 103 -79 l70 -71 -633 -3 -632 -2 -388 205 c-214 113 -393 205 -399 205 -6
0 -12 -54 -16 -137z m395 -115 c180 -95 328 -175 328 -178 0 -3 -53 -24 -118
-46 l-117 -41 -222 4 -223 5 0 93 c0 122 12 335 18 335 3 0 153 -78 334 -172z
m2360 -4 l36 -6 -45 -74 -46 -74 -288 0 -288 0 -22 33 c-12 17 -45 56 -73 86
l-51 53 370 -6 c204 -4 386 -9 407 -12z m-1814 -224 c24 -12 60 -43 83 -73 51
-64 140 -247 211 -432 l53 -140 3 -287 3 -288 -254 0 -253 0 -270 168 -269
167 -3 99 c-2 78 1 104 14 123 8 14 119 157 245 319 126 162 229 296 229 299
0 2 -19 5 -42 7 l-43 3 75 27 c92 33 161 35 218 8z m1249 -157 c49 -98 104
-216 123 -263 l35 -85 3 -357 3 -358 -506 0 -505 0 0 283 0 283 178 336 177
337 202 1 201 0 89 -177z m471 169 c-7 -19 -281 -453 -283 -450 -2 2 -29 62
-60 133 -31 72 -78 172 -106 223 -27 51 -49 95 -49 97 0 3 113 5 251 5 138 0
249 -4 247 -8z m-1040 -17 c3 -2 -64 -135 -149 -294 l-153 -290 -46 122 c-79
210 -158 367 -218 438 l-36 42 299 -7 c164 -3 301 -8 303 -11z m-1638 -147 l0
-73 -30 37 c-17 20 -49 53 -72 72 l-42 36 72 0 72 0 0 -72z m359 63 c23 -6 21
-8 -20 -26 -78 -34 -195 -104 -243 -146 l-46 -41 0 111 0 111 143 -1 c78 -1
153 -4 166 -8z m265 -38 c-16 -21 -108 -140 -205 -265 l-177 -228 -76 136
c-42 74 -76 139 -76 143 0 30 154 128 317 202 95 42 116 48 177 49 l68 0 -28
-37z m-105 -977 c180 -112 230 -147 215 -152 -126 -45 -333 -154 -418 -219
-26 -19 -48 -35 -51 -35 -3 0 -5 126 -5 281 0 221 3 280 13 276 6 -3 117 -70
246 -151z m791 -766 l0 -590 -330 0 -330 0 -195 123 -195 122 0 307 0 307 31
35 c58 66 201 150 414 242 l100 44 253 0 252 0 0 -590z m1060 0 l0 -590 -505
0 -505 0 0 590 0 590 505 0 505 0 0 -590z m-2160 -402 c0 -23 4 -28 24 -28 13
0 26 5 28 10 2 6 77 -36 166 -92 148 -93 161 -103 140 -112 -13 -5 -91 -42
-175 -81 -166 -80 -269 -143 -339 -207 l-45 -42 6 205 c3 112 8 268 11 345 l6
142 89 -56 c78 -48 89 -59 89 -84z"/>
</g>
</svg>
