<?xml version="1.0" standalone="no"?>
<!DOCTYPE svg PUBLIC "-//W3C//DTD SVG 20010904//EN"
 "http://www.w3.org/TR/2001/REC-SVG-20010904/DTD/svg10.dtd">
<svg version="1.0" xmlns="http://www.w3.org/2000/svg"
 width="426.000000pt" height="371.000000pt" viewBox="0 0 426.000000 371.000000"
 preserveAspectRatio="xMidYMid meet">
<metadata>
Created by potrace 1.16, written by Peter Selinger 2001-2019
</metadata>
<g transform="translate(0.000000,371.000000) scale(0.100000,-0.100000)"
fill="#000000" stroke="none">
<path d="M508 3421 c-42 -3 -82 -11 -88 -17 -19 -19 0 -41 47 -55 66 -18 168
-118 255 -249 39 -58 118 -202 177 -320 l106 -215 3 -1127 2 -1128 30 0 30 0
0 1123 0 1122 289 421 288 421 -101 7 c-56 3 -220 8 -366 11 -146 3 -339 7
-430 9 -91 2 -200 1 -242 -3z m989 -70 l51 -6 -249 -365 c-137 -200 -251 -366
-254 -368 -2 -2 -39 70 -82 160 -132 270 -270 483 -370 567 l-38 32 445 -6
c245 -4 468 -10 497 -14z"/>
<path d="M1137 2248 c-4 -46 -10 -245 -14 -443 -6 -372 -4 -405 33 -405 8 0
23 19 33 43 20 47 84 110 163 161 65 41 268 143 385 193 l88 38 935 5 935 5 0
25 0 25 -927 3 -927 2 -328 202 c-180 110 -337 207 -349 215 -21 13 -21 12
-27 -69z m426 -238 c120 -73 214 -137 210 -141 -4 -4 -48 -23 -96 -43 -197
-81 -391 -193 -471 -271 l-39 -39 7 285 c3 156 9 319 12 361 l6 77 77 -48 c42
-26 174 -107 294 -181z"/>
</g>
</svg>
