<?xml version="1.0" standalone="no"?>
<!DOCTYPE svg PUBLIC "-//W3C//DTD SVG 20010904//EN"
 "http://www.w3.org/TR/2001/REC-SVG-20010904/DTD/svg10.dtd">
<svg version="1.0" xmlns="http://www.w3.org/2000/svg"
 width="622.000000pt" height="371.000000pt" viewBox="0 0 622.000000 371.000000"
 preserveAspectRatio="xMidYMid meet">
<metadata>
Created by potrace 1.16, written by Peter Selinger 2001-2019
</metadata>
<g transform="translate(0.000000,371.000000) scale(0.100000,-0.100000)"
fill="#000000" stroke="none">
<path d="M2353 3313 c-215 -180 -420 -360 -442 -387 -9 -10 -30 -16 -60 -17
-102 -2 -131 -33 -63 -68 73 -37 148 -153 238 -369 l54 -127 0 -172 0 -173
-609 0 -609 0 -243 189 c-192 148 -245 185 -250 172 -13 -32 -22 -734 -10
-764 15 -38 42 -32 55 12 22 76 155 186 357 295 l86 46 611 0 612 0 2 -510 c2
-415 1 -510 -10 -510 -13 0 87 -122 324 -395 181 -209 217 -245 243 -245 22 0
23 3 15 38 -27 125 28 291 188 562 l50 85 411 300 c226 165 414 301 418 303 5
2 10 -145 11 -327 2 -185 -1 -332 -6 -334 -14 -5 407 -499 507 -595 50 -49 84
-54 79 -12 -19 147 -8 195 99 410 125 248 58 188 804 731 378 276 660 488 660
496 0 9 -7 20 -15 24 -26 15 -1345 831 -1349 835 -2 2 2 16 10 31 7 16 15 31
17 36 2 4 -23 7 -55 7 l-58 0 -99 273 c-55 149 -104 282 -110 294 -11 21 -15
18 -106 -59 -258 -217 -422 -359 -487 -422 -72 -68 -73 -68 -138 -74 -49 -3
-68 -9 -75 -22 -11 -20 1 -33 37 -44 37 -12 96 -89 155 -203 79 -151 130 -279
126 -314 l-3 -30 -245 152 c-135 83 -332 205 -438 271 l-192 120 21 34 21 34
-41 0 c-83 0 -77 -9 -191 304 -57 157 -105 286 -106 286 -2 0 -92 -75 -201
-167z m266 -156 c46 -127 86 -238 89 -244 6 -19 -74 -16 -229 8 -74 12 -208
24 -299 28 l-165 6 105 92 c172 149 403 343 409 343 3 0 44 -105 90 -233z
m1571 220 c0 -2 38 -108 85 -236 47 -128 85 -237 85 -242 0 -15 -100 -10 -241
12 -93 15 -184 22 -296 23 -90 0 -163 1 -163 2 0 1 100 86 222 190 122 104
238 204 257 221 31 28 51 40 51 30z m-1967 -539 c27 -10 87 -71 87 -88 0 -13
-192 -330 -200 -330 -3 0 -17 26 -30 58 -41 103 -131 272 -171 322 -22 27 -39
51 -39 52 0 8 329 -5 353 -14z m453 -4 c44 -9 84 -19 91 -23 7 -4 -28 -72
-103 -196 -63 -104 -118 -191 -122 -193 -5 -1 -19 24 -32 55 -12 32 -47 106
-77 165 l-54 107 28 51 28 50 81 0 c45 0 117 -7 160 -16z m-317 -11 c-7 -10
-14 -19 -15 -21 0 -1 -9 7 -19 18 -18 20 -17 20 15 20 29 0 31 -2 19 -17z
m1514 3 c18 -7 47 -30 65 -50 30 -34 32 -40 19 -59 -7 -12 -53 -88 -102 -170
-48 -81 -89 -146 -91 -144 -2 1 -26 54 -53 116 -57 128 -117 235 -163 286
l-30 35 161 0 c113 0 171 -4 194 -14z m455 -5 c50 -10 95 -20 98 -24 3 -3 -47
-94 -113 -203 l-118 -198 -30 70 c-16 38 -53 115 -82 172 l-52 103 30 50 31
49 71 0 c40 0 114 -9 165 -19z m-308 0 c0 -5 -6 -14 -13 -20 -11 -8 -18 -6
-32 9 -18 20 -17 20 13 20 18 0 32 -4 32 -9z m-527 -459 l237 -147 -2 -284 -3
-285 -111 -80 c-61 -45 -257 -188 -435 -318 l-325 -237 -104 -10 c-58 -6 -124
-14 -147 -17 l-43 -5 0 682 0 682 131 217 132 217 216 -134 c119 -73 323 -200
454 -281z m1640 -3 c348 -216 640 -398 650 -404 16 -11 -57 -67 -628 -485
l-647 -472 -131 -14 c-73 -7 -138 -14 -145 -14 -9 0 -12 143 -12 684 l0 685
127 211 c86 144 131 209 140 206 8 -3 298 -182 646 -397z m-2721 213 c22 -48
53 -120 69 -160 l29 -73 -2 -682 -3 -682 -170 -17 c-93 -9 -178 -17 -187 -17
-17 -1 -18 39 -18 700 l0 701 107 178 c123 204 107 200 175 52z m1655 -19 c96
-203 94 -195 91 -380 l-3 -161 -180 112 -180 112 -3 50 c-3 49 1 58 100 222
57 95 106 172 109 172 3 0 33 -57 66 -127z m-3443 -433 c97 -74 176 -137 176
-140 0 -3 -26 -18 -57 -34 -88 -43 -242 -147 -297 -200 l-49 -48 6 122 c4 68
7 199 7 293 0 166 0 169 20 156 10 -8 98 -75 194 -149z m3351 -57 c96 -59 173
-108 172 -109 -1 -1 -80 -58 -175 -128 -95 -69 -175 -126 -177 -126 -3 0 -5
106 -5 235 0 129 3 235 6 235 3 0 84 -48 179 -107z m185 -631 l0 -468 -172
-17 c-95 -10 -179 -17 -186 -17 -10 0 -12 74 -10 352 l3 351 180 133 c99 73
181 133 183 133 1 1 2 -210 2 -467z m-1350 -488 c0 -3 -19 -38 -42 -77 -83
-143 -149 -302 -172 -416 l-11 -54 -101 114 c-178 203 -316 370 -311 375 6 6
527 61 595 63 23 0 42 -2 42 -5z m1625 -66 c-93 -160 -185 -382 -185 -447 0
-65 -7 -58 -285 269 -136 160 -147 175 -124 179 44 6 563 58 597 60 l33 1 -36
-62z"/>
</g>
</svg>
