<?xml version="1.0" standalone="no"?>
<!DOCTYPE svg PUBLIC "-//W3C//DTD SVG 20010904//EN"
 "http://www.w3.org/TR/2001/REC-SVG-20010904/DTD/svg10.dtd">
<svg version="1.0" xmlns="http://www.w3.org/2000/svg"
 width="485.000000pt" height="371.000000pt" viewBox="0 0 485.000000 371.000000"
 preserveAspectRatio="xMidYMid meet">
<metadata>
Created by potrace 1.16, written by Peter Selinger 2001-2019
</metadata>
<g transform="translate(0.000000,371.000000) scale(0.100000,-0.100000)"
fill="#000000" stroke="none">
<path d="M1800 2653 c-167 -339 -267 -556 -276 -599 -9 -46 20 -53 60 -15 39
38 104 67 193 85 108 23 373 39 518 32 l130 -6 715 -326 c393 -180 735 -337
760 -350 l45 -23 -806 -1 -806 0 -374 240 c-206 132 -375 237 -376 232 -2 -4
-6 -114 -11 -244 -4 -130 -11 -240 -14 -243 -3 -3 -178 105 -389 240 l-384
246 -6 -88 c-4 -48 -10 -268 -14 -488 -8 -413 -6 -445 31 -445 8 0 23 20 34
44 27 64 82 120 183 187 99 64 322 177 460 232 l87 35 0 -227 c0 -182 3 -231
14 -247 19 -25 47 -9 58 32 12 47 72 109 171 175 97 65 311 176 451 234 l85
35 873 -2 873 -3 53 -25 c45 -21 54 -22 62 -10 6 8 8 21 5 28 -3 8 9 12 40 12
41 0 45 2 45 25 l0 25 -104 0 -104 0 -826 377 -826 377 -237 368 c-130 202
-240 368 -244 368 -4 0 -71 -129 -149 -287z m364 -131 c108 -167 196 -305 196
-306 0 -2 -100 -6 -222 -9 -237 -6 -369 -23 -474 -61 l-61 -22 35 75 c120 262
313 644 322 635 5 -5 97 -145 204 -312z m-189 -904 c116 -74 230 -147 254
-162 l43 -28 -111 -48 c-227 -99 -400 -200 -500 -294 l-54 -51 7 290 c3 160 9
340 12 402 l7 111 66 -42 c36 -24 161 -103 276 -178z m-817 2 c166 -106 302
-196 302 -199 0 -4 -30 -20 -67 -35 -227 -98 -433 -218 -531 -309 l-55 -52 7
300 c8 390 15 508 30 497 6 -5 147 -95 314 -202z"/>
</g>
</svg>
