<?xml version="1.0" standalone="yes"?>
<svg xmlns="http://www.w3.org/2000/svg" width="687" height="371">
<!-- <path style="fill:#ffffff; stroke:none;" d="M0 0L0 371L687 371L687 0L0 0z"/>
--><path style="fill:#000000; stroke:none;" d="M175 80L189.054 52L202 33C167.774 47.2534 133.949 69.1585 102 88C104.943 75.2773 110.645 62.9493 117.698 52C121.866 45.5298 128.934 39.4346 131 32L69 66.1396L25 91L25 92C50.1132 113.729 79.4803 132.747 107 151.33C113.575 155.77 119.904 161.072 127 164.669C128.954 165.66 133.104 167.598 134.338 164.551C136.7 158.721 120.533 148.555 117.004 144.999C102.869 130.757 100 115.242 100 96C124.412 116.821 152.584 134.766 179 152.975C185.12 157.193 191.247 162.304 198 165.467C199.984 166.396 204.333 167.856 205.248 164.682C206.902 158.946 188.742 146.969 185.093 143C172.792 129.619 170.645 114.29 171 97C195.659 114.662 220.023 132.759 245 149.975C250.857 154.011 256.777 158.443 263 161.891C265.025 163.013 269.092 164.882 270.338 161.682C272.541 156.022 257.445 146.444 254.001 142.999C240.832 129.83 236 115.288 236 97L299 142.709L339 169C297.891 196.733 256.357 226.953 213 251L213 254C244.531 273.636 273.532 298.393 304 319.72C311.263 324.804 318.49 329.962 326 334.68C328.433 336.208 332.603 339.59 335.664 337.867C341.654 334.495 329.235 325.246 327 323.285C307.842 306.473 298.323 286.656 300.09 261C301.667 238.1 312.359 215.364 324 196C328.7 188.183 340.987 176.904 342.182 168C343.16 160.714 332.56 154.955 328 150.83C317.904 141.699 310.064 130.604 307.616 117C303.812 95.8636 312.433 73.656 323.425 56C327.94 48.748 335.276 42.0779 338 34L283 64.1396L237 90C241.931 66.1714 255.521 49.972 268 30L241 43.6913L175 80z"/>
<path style="fill:#ffffff; stroke:none;" d="M247 47L172 89L197 108.151L242 140C231.307 117.392 226.794 99.7841 234.746 75C237.619 66.0464 246.126 55.9917 247 47M110 50C87.4527 64.8698 60.9094 80.5743 36 91L36 93L105 142C97.3583 121.809 90.7853 107.246 96.4784 85C98.5179 77.0307 101.577 69.3395 105.247 62C107.063 58.3676 110.387 54.0868 110 50M181 51L107 92L107 94L176 143C170.885 129.485 164.999 120.066 165 105C165 99.3035 166.792 92.9879 161 90L161 88C170.466 83.7896 171.501 71.6316 175.756 63C177.596 59.2681 180.877 55.1649 181 51M317 52L243 93L243 95L312 144C304.032 122.947 297.801 108.056 303.884 85C306.539 74.9364 317.097 61.8087 317 52z"/>
<path style="fill:#000000; stroke:none;" d="M423 179C403.014 170.388 383.36 150.119 362 146C362 166.335 360.92 186.707 360.039 207C359.882 210.63 359.199 225.306 364.04 226.079C367.022 226.555 375.044 214.884 378.001 212.746C391.496 202.987 407.58 196.981 423 191L423 340L429 340L429 189L569 189L569 190L532 212.576L462 257L462 259C496.913 278.437 529.66 304.215 563 326.333C570.761 331.481 578.726 336.932 587 341.215C589.299 342.405 594.822 345.521 596.914 342.393C599.277 338.857 593.171 334.436 590.999 332.59C581.95 324.898 573.191 318.154 566.699 308C548.539 279.596 561.063 243.311 574.753 216C579.577 206.378 585.799 189.144 598 189C597.987 185.806 598.403 183.729 595 183L601 176L601 340L606 340L606 223C606 204.767 602.554 182.454 608 165C604.867 165 605.095 142.053 606.333 138C608.419 131.176 614.011 124.12 617.667 118C625.729 104.501 633.687 90.8081 641.167 77C644.315 71.1884 649.32 65.3826 651 59C626.691 58.933 602.396 57 578 57C573.949 57 556.176 54.6226 555.466 60.1736C555.056 63.3801 558.895 64.6165 561.005 65.99C566.003 69.2432 569.91 74.0453 573.135 79C585.477 97.9624 600.998 125.984 601 149C601 154.579 602.806 164.07 599.397 168.816C587.943 184.757 566.939 183 550 183L429 183C429 169.263 425.21 148.95 429.818 136C439.55 108.649 464.228 86.7202 473 59C449.011 58.8015 425.072 57 401 57C396.594 57 379.656 54.5431 377.662 59.4151C376.091 63.2528 381.783 64.9037 384.001 66.5092C391.313 71.8023 396.612 80.1209 400.745 88C408.968 103.679 419.732 122.347 422.674 140C424.742 152.406 423 166.425 423 179z"/>
<path style="fill:#ffffff; stroke:none;" d="M390 62C404.319 82.4075 418.295 103.485 425 128L436.85 111L463 64L390 62M568 62L588.216 93L604 129C616.867 109.493 633.012 85.9428 641 64L568 62M368 156L366 214L398 194.781L420 185C404.324 175.406 385.603 161.178 368 156z"/>
<path style="fill:#000000; stroke:none;" d="M166 167L37 252L37 253C65.7601 277.887 99.0323 298.806 130 320.859C137.488 326.191 144.969 331.881 153 336.38C155.124 337.57 159.923 340.142 161.338 336.562C162.597 333.377 158.992 330.071 156.981 328.17C151.195 322.7 144.702 318.195 139.616 312C125.953 295.359 121.917 274.929 125.435 254C129.165 231.812 139.136 211.018 150.811 192C154.468 186.043 167.448 173.821 166 167z"/>
<path style="fill:#ffffff; stroke:none;" d="M341 167L342 168L341 167M144 189L47 252L77 275.151L134 316C129.188 307.356 123.891 299.617 121.036 290C114.459 267.844 120.092 244.016 128.064 223C131.834 213.061 143.699 199.171 144 189M319 189C289.515 211.664 255.489 233.913 223 252L254 276.151L310 316C292.905 288.298 289.802 261.07 301.054 230C304.382 220.809 308.114 211.56 312.861 203C315.107 198.95 319.69 193.729 319 189M473 257L473 259L570 323C564.224 314.544 558.19 306.948 555.029 297C542.721 258.277 565.606 221.682 583 189L549 209.05L473 257z"/>
</svg>
