<?xml version="1.0" standalone="no"?>
<!DOCTYPE svg PUBLIC "-//W3C//DTD SVG 20010904//EN"
 "http://www.w3.org/TR/2001/REC-SVG-20010904/DTD/svg10.dtd">
<svg version="1.0" xmlns="http://www.w3.org/2000/svg"
 width="530.000000pt" height="371.000000pt" viewBox="0 0 530.000000 371.000000"
 preserveAspectRatio="xMidYMid meet">
<metadata>
Created by potrace 1.16, written by Peter Selinger 2001-2019
</metadata>
<g transform="translate(0.000000,371.000000) scale(0.100000,-0.100000)"
fill="#000000" stroke="none">
<path d="M3873 3331 c-38 -17 -29 -46 22 -65 47 -18 163 -132 148 -146 -4 -4
-342 -130 -751 -280 l-742 -273 -266 98 c-145 54 -268 95 -271 91 -5 -5 71
-408 84 -442 4 -12 -80 -14 -553 -14 l-559 0 -230 209 -230 208 -7 -36 c-10
-50 -18 -1378 -9 -1421 9 -45 37 -52 52 -13 31 79 44 99 92 150 54 57 167 143
273 206 60 36 64 37 163 37 l101 0 0 -200 0 -200 25 0 25 0 0 200 0 200 270 0
270 0 0 -225 0 -225 25 0 25 0 0 225 0 225 165 0 165 0 0 25 0 25 -165 0 -165
0 0 84 0 84 157 116 157 116 16 -52 c24 -81 70 -78 70 3 0 78 101 228 260 390
l95 97 742 272 c409 150 749 270 757 267 18 -7 179 -334 243 -492 l48 -120 3
-1012 c1 -557 -1 -1013 -4 -1013 -5 0 -1659 886 -1672 895 -1 1 -54 148 -118
326 -63 177 -118 327 -120 331 -5 9 -31 -25 -266 -348 -203 -279 -308 -434
-308 -456 0 -32 25 -30 79 7 100 66 227 89 516 89 l210 1 847 -458 c761 -411
849 -456 868 -445 20 13 20 18 20 1042 l0 1030 255 429 c140 236 255 432 255
436 0 18 -1028 39 -1067 22z m864 -60 l122 -6 -63 -105 c-35 -58 -137 -228
-226 -379 l-162 -273 -59 143 c-115 281 -232 489 -331 591 l-49 51 323 -8
c178 -4 378 -10 445 -14z m-2377 -688 c69 -25 128 -49 133 -52 4 -4 -27 -45
-69 -92 -92 -100 -185 -223 -203 -268 -8 -17 -19 -30 -25 -28 -6 2 -19 39 -28
83 -9 43 -33 156 -52 249 -20 94 -38 180 -41 192 -5 22 -5 22 77 -8 46 -17
139 -51 208 -76z m-1581 -163 c82 -74 150 -137 150 -140 0 -3 -34 -26 -77 -52
-42 -25 -117 -79 -165 -118 -85 -69 -89 -71 -108 -54 -18 16 -19 33 -19 258 0
133 3 251 6 264 l6 23 29 -23 c15 -13 95 -84 178 -158z m1340 -214 c6 -25 11
-49 11 -55 0 -7 -198 -9 -615 -6 -338 2 -627 0 -642 -4 -46 -12 -36 -42 18
-55 68 -18 132 -60 220 -144 l79 -77 0 -88 0 -87 -103 0 -104 0 -166 151 c-92
83 -167 154 -167 158 0 21 122 118 246 196 l87 55 562 0 563 0 11 -44z m-659
-121 c0 -6 -228 -175 -237 -175 -3 0 -38 31 -77 68 -39 37 -84 78 -101 90
l-30 21 223 1 c122 0 222 -2 222 -5z m587 -1 c-3 -4 -59 -45 -124 -93 l-117
-87 -61 61 c-33 34 -80 76 -104 93 l-44 32 228 0 c126 0 226 -3 222 -6z m-461
-50 c21 -14 74 -60 117 -102 l77 -77 0 -82 0 -83 -270 0 -270 0 0 83 1 82 137
102 c75 56 144 102 153 102 9 1 34 -11 55 -25z m-808 -227 l153 -139 -105 -68
c-57 -38 -141 -103 -186 -146 l-81 -78 3 255 c3 227 5 258 22 291 11 21 24 34
30 31 6 -4 80 -70 164 -146z m1767 -198 c52 -145 95 -266 95 -270 0 -3 -93 -9
-207 -12 -208 -5 -355 -26 -414 -57 l-23 -13 18 29 c66 102 427 597 432 591 2
-2 47 -122 99 -268z"/>
<path d="M3403 2563 c-27 -10 -13 -39 28 -57 28 -13 56 -38 90 -85 59 -80 149
-253 149 -286 l0 -25 -112 0 -113 0 -161 161 -162 162 -7 -104 c-3 -57 -5
-318 -3 -579 l3 -475 22 -3 c18 -3 24 4 32 34 6 20 22 54 37 75 29 42 130 129
208 178 48 30 55 31 153 31 l103 0 0 -225 0 -225 25 0 25 0 0 225 0 225 275 0
275 0 0 25 0 25 -275 0 -275 0 0 205 0 205 275 0 275 0 0 30 0 30 -275 0
c-271 0 -275 0 -275 21 0 11 65 111 144 222 l145 202 -87 6 c-103 8 -502 10
-519 2z m435 -52 l72 -6 -100 -140 c-55 -77 -104 -141 -108 -142 -4 -2 -27 36
-51 84 -25 48 -66 115 -93 150 l-47 63 127 -1 c70 -1 160 -4 200 -8z m-550
-314 l113 -114 -73 -55 c-40 -31 -88 -70 -107 -88 -55 -51 -61 -39 -61 113 0
108 8 257 14 257 1 0 52 -51 114 -113z m382 -352 l0 -205 -106 0 -106 0 -119
113 -120 112 56 52 c30 29 81 70 113 92 l57 40 113 0 112 1 0 -205z m-372
-128 l103 -103 -60 -43 c-34 -23 -88 -68 -122 -100 l-61 -58 4 186 c4 172 10
221 27 221 3 0 53 -46 109 -103z"/>
</g>
</svg>
