<?xml version="1.0" standalone="no"?>
<!DOCTYPE svg PUBLIC "-//W3C//DTD SVG 20010904//EN"
 "http://www.w3.org/TR/2001/REC-SVG-20010904/DTD/svg10.dtd">
<svg version="1.0" xmlns="http://www.w3.org/2000/svg"
 width="307.000000pt" height="371.000000pt" viewBox="0 0 307.000000 371.000000"
 preserveAspectRatio="xMidYMid meet">
<metadata>
Created by potrace 1.16, written by Peter Selinger 2001-2019
</metadata>
<g transform="translate(0.000000,371.000000) scale(0.100000,-0.100000)"
fill="#000000" stroke="none">
<path d="M1575 2486 c-600 -458 -1090 -838 -1090 -844 0 -25 1300 -912 1596
-1090 153 -92 199 -105 199 -58 0 23 -62 87 -203 210 -215 188 -309 453 -278
780 25 268 106 528 265 861 134 280 337 610 522 853 52 67 91 122 87 121 -5 0
-498 -375 -1098 -833z m797 502 c-86 -128 -233 -378 -307 -523 -240 -471 -352
-900 -317 -1215 28 -247 110 -412 289 -580 109 -102 99 -97 -272 148 -539 355
-1210 821 -1198 832 16 15 1846 1410 1850 1410 2 0 -18 -33 -45 -72z"/>
</g>
</svg>
