<?xml version="1.0" standalone="no"?>
<!DOCTYPE svg PUBLIC "-//W3C//DTD SVG 20010904//EN"
 "http://www.w3.org/TR/2001/REC-SVG-20010904/DTD/svg10.dtd">
<svg version="1.0" xmlns="http://www.w3.org/2000/svg"
 width="558.000000pt" height="371.000000pt" viewBox="0 0 558.000000 371.000000"
 preserveAspectRatio="xMidYMid meet">
<metadata>
Created by potrace 1.16, written by Peter Selinger 2001-2019
</metadata>
<g transform="translate(0.000000,371.000000) scale(0.100000,-0.100000)"
fill="#000000" stroke="none">
<path d="M1575 2486 c-600 -458 -1090 -838 -1090 -844 0 -25 1300 -912 1596
-1090 153 -92 199 -105 199 -58 0 23 -62 87 -203 210 -121 106 -213 252 -252
401 -23 85 -41 294 -29 334 l9 33 25 -20 c56 -43 823 -567 1073 -733 456 -303
564 -360 575 -305 5 22 -61 92 -186 198 -140 120 -231 264 -273 430 -23 94
-35 301 -22 390 l8 57 325 -225 c179 -124 498 -341 710 -483 534 -356 638
-416 661 -380 5 8 9 19 9 26 0 6 -46 54 -102 105 -57 51 -131 121 -165 156
-401 403 -257 1200 392 2182 67 102 157 229 199 283 42 53 74 97 72 97 -2 0
-467 -353 -1032 -784 -566 -432 -1030 -784 -1031 -782 -2 2 10 49 27 105 118
395 398 919 714 1334 53 71 89 124 79 118 -10 -6 -470 -356 -1023 -779 -553
-423 -1006 -768 -1008 -766 -5 3 34 149 62 235 124 379 401 887 692 1267 52
67 91 122 87 121 -5 0 -498 -375 -1098 -833z m797 502 c-277 -410 -504 -897
-583 -1245 -22 -99 -24 -103 -66 -133 -23 -17 -45 -35 -47 -39 -3 -5 12 -20
33 -34 l39 -26 -6 -90 c-9 -163 30 -365 95 -496 43 -86 109 -170 200 -255 109
-102 99 -97 -272 148 -539 355 -1210 821 -1198 832 16 15 1846 1410 1850 1410
2 0 -18 -33 -45 -72z m1241 -10 c-4 -7 -38 -58 -74 -113 -148 -226 -282 -468
-379 -688 -63 -143 -149 -389 -171 -490 -10 -48 -19 -63 -52 -89 l-39 -31 29
-23 c30 -23 30 -23 20 -91 -15 -109 -3 -324 22 -423 53 -201 136 -326 331
-494 41 -35 42 -37 11 -20 -64 35 -845 558 -1178 788 l-331 230 5 35 c3 20 11
42 18 50 13 13 1787 1370 1793 1371 2 0 -1 -6 -5 -12z m1153 -115 c-323 -494
-533 -987 -586 -1380 -20 -145 -9 -366 24 -477 51 -170 124 -286 263 -416 l88
-82 -85 53 c-202 124 -584 381 -1165 782 -143 99 -267 186 -276 194 -12 10
-15 22 -10 39 4 18 258 217 916 719 501 382 911 695 912 695 1 0 -35 -57 -81
-127z"/>
</g>
</svg>
