<?xml version="1.0" standalone="no"?>
<!DOCTYPE svg PUBLIC "-//W3C//DTD SVG 20010904//EN"
 "http://www.w3.org/TR/2001/REC-SVG-20010904/DTD/svg10.dtd">
<svg version="1.0" xmlns="http://www.w3.org/2000/svg"
 width="586.000000pt" height="371.000000pt" viewBox="0 0 586.000000 371.000000"
 preserveAspectRatio="xMidYMid meet">
<metadata>
Created by potrace 1.16, written by Peter Selinger 2001-2019
</metadata>
<g transform="translate(0.000000,371.000000) scale(0.100000,-0.100000)"
fill="#000000" stroke="none">
<path d="M3540 3402 c-28 -9 -34 -41 -10 -52 107 -50 136 -69 181 -119 101
-113 230 -331 339 -571 l60 -131 0 -110 0 -109 -620 0 -621 0 -364 246 c-201
135 -365 252 -365 260 0 12 -70 14 -458 14 l-458 0 -365 245 -364 246 -7 -148
c-7 -144 -12 -726 -9 -988 0 -71 -4 -326 -9 -565 -22 -899 -24 -1203 -7 -1224
21 -28 44 -14 57 35 24 88 188 213 454 345 250 124 191 114 686 114 l430 0 0
-32 c0 -74 45 -79 68 -8 36 107 258 262 580 405 l102 45 635 0 635 0 2 -503 3
-502 23 -3 22 -3 0 1119 0 1119 245 358 c134 196 246 360 249 362 10 10 119
-171 176 -290 57 -122 140 -326 140 -346 0 -7 -53 -8 -162 -5 -199 7 -272 -2
-276 -33 -3 -17 6 -26 40 -41 102 -45 219 -238 365 -597 l48 -120 5 -760 5
-760 23 -3 22 -3 0 761 0 762 220 381 c153 265 216 383 208 388 -7 3 -103 9
-213 13 -109 4 -201 8 -202 10 -2 1 94 170 212 376 119 205 214 375 211 377
-2 3 -121 9 -263 14 -142 4 -395 13 -563 19 -404 15 -1079 22 -1110 12z m667
-52 c296 -8 304 -9 357 -34 l55 -26 -80 -118 c-44 -64 -151 -219 -236 -344
-86 -126 -158 -228 -162 -227 -3 0 -50 89 -103 197 -114 234 -215 390 -314
490 l-72 72 127 0 c69 -1 262 -5 428 -10z m985 -29 c103 -4 190 -10 194 -13 4
-5 -354 -638 -370 -655 -1 -1 -23 53 -50 120 -81 205 -166 367 -270 512 -7 9
-5 19 3 29 15 18 161 20 493 7z m-4025 -515 c1 -1 -38 -19 -85 -40 -216 -97
-411 -216 -505 -308 l-59 -58 6 212 c3 117 9 303 12 414 l6 201 312 -210 c171
-115 312 -210 313 -211z m960 -133 c-4 -60 -10 -267 -14 -460 l-6 -353 -445 0
-444 0 -336 226 c-186 125 -338 228 -340 229 -2 2 4 18 13 35 45 87 206 200
460 325 94 46 184 88 200 93 18 7 200 11 474 11 l444 1 -6 -107z m391 -188
c155 -104 282 -193 282 -197 0 -5 -6 -8 -13 -8 -24 0 -343 -166 -430 -224 -48
-33 -113 -84 -144 -114 l-56 -55 7 289 c3 159 9 344 13 412 l6 122 27 -17 c14
-10 153 -103 308 -208z m2482 53 c0 -10 2 -10 8 -1 6 10 51 11 199 5 l191 -7
-185 -320 c-101 -176 -188 -324 -192 -328 -5 -5 -28 40 -51 100 -93 233 -208
446 -287 531 l-31 32 174 0 c132 0 174 -3 174 -12z m-890 -728 l0 -450 -639 0
-638 0 -314 211 c-173 116 -320 217 -327 224 -20 19 5 61 77 128 94 86 294
203 521 303 l75 33 623 1 622 0 0 -450z m-3255 232 c160 -107 294 -198 298
-202 4 -4 -70 -45 -165 -92 -200 -99 -330 -181 -413 -262 l-58 -57 7 288 c9
407 16 534 30 526 6 -3 142 -94 301 -201z m1242 -469 c-4 -124 -7 -318 -7
-430 l0 -203 -447 0 -448 1 -321 217 c-251 169 -320 220 -314 232 44 82 255
223 520 346 l135 63 444 0 444 1 -6 -227z m681 -238 c1 -1 -80 -43 -180 -93
-206 -102 -310 -167 -400 -250 l-61 -57 7 393 c4 216 10 400 13 408 4 10 90
-43 312 -193 168 -113 307 -207 309 -208z m-1945 -211 c161 -108 296 -200 300
-204 5 -5 -20 -21 -55 -36 -214 -94 -425 -221 -518 -312 l-60 -58 1 171 c1
258 14 608 22 623 5 6 11 12 13 12 3 0 137 -88 297 -196z"/>
</g>
</svg>
