<?xml version="1.0" standalone="no"?>
<!DOCTYPE svg PUBLIC "-//W3C//DTD SVG 20010904//EN"
 "http://www.w3.org/TR/2001/REC-SVG-20010904/DTD/svg10.dtd">
<svg version="1.0" xmlns="http://www.w3.org/2000/svg"
 width="475.000000pt" height="371.000000pt" viewBox="0 0 475.000000 371.000000"
 preserveAspectRatio="xMidYMid meet">
<metadata>
Created by potrace 1.16, written by Peter Selinger 2001-2019
</metadata>
<g transform="translate(0.000000,371.000000) scale(0.100000,-0.100000)"
fill="#000000" stroke="none">
<path d="M3665 3451 c-46 -10 -47 -46 -1 -61 45 -14 94 -71 156 -180 53 -95
136 -278 128 -285 -3 -3 -217 -4 -476 -3 l-472 3 38 60 c21 33 69 97 106 143
36 45 64 82 61 82 -3 0 -103 -65 -223 -145 l-217 -145 -843 0 -842 0 -323 215
-322 215 -7 -122 c-11 -184 -18 -2827 -7 -2855 14 -38 37 -27 64 32 48 100
191 199 478 331 l118 54 804 0 804 0 129 -84 c71 -46 147 -93 170 -105 38 -20
42 -20 58 -4 16 16 11 22 -77 105 l-94 87 568 3 567 3 0 -262 0 -263 25 0 25
0 0 1256 0 1257 186 324 c102 179 184 326 182 328 -4 5 -593 25 -671 24 -34
-1 -75 -4 -92 -8z m671 -64 c4 -3 -62 -126 -146 -272 l-152 -266 -48 118 c-78
195 -153 334 -219 407 l-26 28 293 -5 c161 -2 295 -7 298 -10z m-3588 -308
c141 -94 261 -175 265 -179 5 -4 -61 -41 -145 -82 -84 -42 -191 -101 -237
-132 -46 -31 -86 -56 -88 -56 -2 0 -19 10 -38 23 l-35 22 0 160 c0 163 10 415
17 415 2 0 119 -77 261 -171z m2211 -123 c-18 -31 -26 -36 -57 -36 -19 0 -32
3 -29 6 13 13 102 72 105 69 2 -1 -7 -19 -19 -39z m-512 -248 c-125 -83 -226
-152 -225 -153 2 -2 97 -66 212 -144 l209 -141 -779 0 -779 0 -242 161 c-134
88 -243 164 -243 168 0 14 171 113 320 185 l155 76 800 0 800 0 -228 -152z
m453 149 c0 -1 -15 -39 -34 -83 -19 -44 -44 -120 -56 -169 -22 -87 -23 -126
-8 -300 3 -28 0 -30 -32 -33 -31 -2 -61 15 -243 139 -136 92 -205 145 -199
151 5 5 106 74 223 153 l214 144 68 0 c37 1 67 0 67 -2z m1094 -37 c13 -33 16
-84 16 -295 l0 -255 -501 0 c-397 0 -499 3 -493 13 24 40 75 111 126 174 32
39 58 74 58 77 0 4 -75 -44 -166 -105 -124 -83 -169 -108 -178 -99 -7 7 -11
51 -11 118 0 120 20 199 82 335 l36 77 507 0 508 0 16 -40z m-3502 -242 c-9
-9 -12 -7 -12 12 0 19 3 21 12 12 9 -9 9 -15 0 -24z m303 -178 c125 -84 223
-155 219 -159 -5 -4 -52 -27 -104 -51 -174 -79 -310 -161 -392 -238 l-48 -45
0 254 c0 140 4 271 9 292 11 46 58 110 76 103 8 -3 116 -73 240 -156z m2170
-104 c-13 -19 -26 -26 -49 -26 l-31 0 45 30 c24 16 46 28 48 25 2 -2 -4 -15
-13 -29z m-260 -85 c-6 -5 -113 -77 -240 -161 -126 -84 -230 -157 -230 -163 0
-5 120 -91 267 -190 210 -142 265 -184 256 -194 -8 -11 -168 -13 -841 -13
l-830 0 -289 192 -289 191 28 29 c50 53 204 149 358 223 83 40 164 77 180 83
38 13 1643 16 1630 3z m150 -2 c11 -17 0 -20 -21 -4 -17 13 -17 14 -2 15 9 0
20 -5 23 -11z m1155 -354 l0 -365 -516 0 c-458 0 -515 2 -510 15 9 24 85 135
130 190 23 28 48 59 56 69 19 25 21 26 -147 -86 -73 -48 -134 -88 -137 -88 -2
0 -13 21 -23 48 -36 93 -20 284 35 411 l17 41 57 -34 c70 -43 87 -46 102 -23
9 16 2 27 -54 77 -61 55 -63 60 -52 84 l12 26 515 0 515 0 0 -365z m-1183 293
l42 -28 -23 -63 c-61 -163 -72 -332 -27 -447 25 -66 25 -63 2 -57 -23 6 -501
326 -501 335 1 13 444 301 454 295 6 -4 30 -19 53 -35z m-2048 -513 c132 -88
241 -163 241 -167 0 -5 -5 -8 -11 -8 -23 0 -297 -142 -377 -195 -46 -30 -86
-55 -90 -55 -4 0 -24 11 -44 25 l-37 25 5 182 c3 101 7 229 10 286 l6 103 28
-18 c15 -10 136 -90 269 -178z m2169 -85 c-13 -21 -28 -27 -28 -10 0 5 8 14
18 19 23 14 24 14 10 -9z m-516 -265 c-127 -85 -232 -157 -232 -160 0 -2 88
-64 196 -137 l196 -133 -758 -3 -758 -2 -243 161 c-134 89 -243 163 -243 164
0 1 24 18 54 38 76 50 212 123 336 179 l105 47 790 1 790 0 -233 -155z m448
150 c0 -3 -10 -25 -21 -48 -37 -71 -78 -206 -91 -294 -12 -80 -5 -172 17 -225
6 -16 1 -18 -41 -18 -46 0 -60 7 -252 136 -112 75 -201 139 -198 142 3 3 108
74 233 158 l228 153 63 0 c34 1 62 -1 62 -4z m1130 -292 l0 -298 -584 3 -583
2 -14 48 c-18 63 -16 192 5 272 15 59 79 226 90 237 3 3 29 -9 59 -26 30 -17
62 -31 71 -31 30 0 30 30 0 61 l-28 29 492 0 492 0 0 -297z m-3515 28 c3 -5 1
-12 -5 -16 -5 -3 -10 1 -10 9 0 18 6 21 15 7z m290 -189 c121 -79 224 -147
228 -152 5 -4 -57 -39 -137 -78 -164 -80 -293 -160 -368 -229 l-50 -47 7 264
c4 146 10 279 15 297 11 42 59 105 74 96 6 -4 110 -72 231 -151z m2045 -207
c16 -19 1 -19 -24 0 -16 12 -17 15 -4 15 8 0 21 -7 28 -15z"/>
</g>
</svg>
