<?xml version="1.0" standalone="no"?>
<!DOCTYPE svg PUBLIC "-//W3C//DTD SVG 20010904//EN"
 "http://www.w3.org/TR/2001/REC-SVG-20010904/DTD/svg10.dtd">
<svg version="1.0" xmlns="http://www.w3.org/2000/svg"
 width="605.000000pt" height="371.000000pt" viewBox="0 0 605.000000 371.000000"
 preserveAspectRatio="xMidYMid meet">
<metadata>
Created by potrace 1.16, written by Peter Selinger 2001-2019
</metadata>
<g transform="translate(0.000000,371.000000) scale(0.100000,-0.100000)"
fill="#000000" stroke="none">
<path d="M3615 3165 c-77 -46 -497 -297 -933 -558 l-793 -474 363 -240 c200
-131 386 -253 413 -271 l50 -32 -615 0 -615 0 -553 221 c-304 122 -556 219
-559 215 -17 -17 -43 -833 -29 -908 3 -20 13 -39 21 -42 16 -6 20 -2 76 67 76
91 377 213 848 341 l204 56 653 0 c636 0 654 -1 686 -20 42 -25 68 -25 75 0 5
18 14 20 108 20 l102 0 84 -50 c46 -28 90 -49 99 -48 28 6 23 39 -12 69 l-33
28 147 1 146 0 86 -51 c49 -29 92 -49 101 -45 25 9 17 39 -17 68 l-33 27 325
0 325 0 -30 -24 c-16 -13 -27 -26 -25 -29 13 -13 956 -476 1025 -503 68 -27
82 -30 94 -18 23 22 6 41 -86 97 -245 148 -328 334 -278 621 14 79 65 250 79
264 3 4 113 -46 243 -109 347 -168 383 -180 383 -131 0 18 -7 24 -138 107
-133 84 -209 187 -237 323 -19 88 -19 159 0 269 30 168 102 347 209 517 30 48
50 84 43 80 -42 -24 -1006 -786 -1003 -791 2 -4 81 -45 175 -92 94 -46 170
-88 169 -92 -2 -4 -127 -104 -278 -222 l-275 -216 -391 0 -391 0 -26 48 c-46
85 -45 197 5 313 19 46 20 47 45 34 48 -25 74 13 33 50 -11 10 -20 22 -20 27
0 14 58 96 112 159 26 31 48 59 48 62 0 3 -58 -30 -129 -73 l-129 -79 -45 48
c-87 93 -123 201 -114 347 11 192 128 439 307 652 33 39 57 72 53 72 -4 -1
-71 -39 -148 -85z m-69 -120 c-166 -253 -232 -514 -178 -704 12 -41 38 -99 58
-130 35 -52 36 -54 11 -38 -15 9 -39 25 -54 34 -16 9 -29 18 -31 19 -2 1 4 14
14 29 l18 28 -33 -17 -32 -17 -112 72 c-105 68 -378 248 -385 255 -2 1 11 23
30 47 28 38 86 77 368 246 184 110 337 200 339 201 2 0 -4 -11 -13 -25z m1859
-331 c-98 -227 -128 -441 -86 -607 24 -92 48 -140 105 -211 l44 -54 -156 75
c-86 41 -161 78 -165 83 -10 9 37 104 99 202 25 38 44 72 42 73 -2 2 -64 -43
-137 -101 -74 -57 -138 -104 -143 -104 -4 0 -77 34 -160 76 l-152 76 24 18
c14 10 180 140 370 288 190 149 346 269 347 268 1 -1 -13 -38 -32 -82z m-2665
-153 c0 -5 -16 -36 -35 -69 -48 -80 -101 -208 -127 -306 -38 -145 -22 -328 36
-421 7 -11 21 -33 32 -50 l19 -30 -30 19 c-121 76 -645 422 -645 426 1 8 723
438 738 439 6 1 12 -3 12 -8z m302 -193 l228 -151 -137 -84 c-76 -46 -213
-129 -305 -185 -93 -56 -168 -105 -168 -108 0 -3 84 -59 186 -125 l185 -120
-86 -3 -87 -3 -55 42 c-75 59 -120 112 -157 189 -27 57 -31 77 -34 171 -5 142
18 232 104 407 51 103 70 132 82 127 8 -3 118 -74 244 -157z m366 -239 l73
-47 -33 -20 c-18 -11 -93 -57 -167 -102 -128 -78 -133 -80 -127 -53 19 82 146
290 169 276 7 -4 45 -28 85 -54z m-246 -71 c-12 -19 -35 -76 -53 -128 -27 -83
-31 -105 -27 -175 3 -49 11 -93 22 -113 10 -19 16 -35 14 -37 -6 -5 -353 224
-353 234 0 11 407 262 414 256 2 -2 -6 -19 -17 -37z m1938 -8 c-11 -20 -30
-28 -30 -12 0 11 22 32 32 32 5 0 4 -9 -2 -20z m-1546 -13 c18 -13 17 -17 -9
-92 -37 -109 -43 -203 -17 -280 11 -33 20 -60 19 -61 -4 -3 -352 227 -354 234
-3 6 324 211 338 212 3 0 13 -6 23 -13z m1496 -47 c17 -9 16 -15 -15 -108
-104 -305 -80 -558 67 -718 22 -24 37 -44 33 -44 -4 0 -178 84 -387 187 l-380
187 27 23 c14 13 33 23 41 23 8 0 14 6 15 13 0 14 548 445 567 446 7 1 22 -3
32 -9z m-4140 -225 c256 -103 468 -190 473 -194 4 -4 -16 -13 -45 -20 -123
-31 -425 -123 -544 -166 -149 -54 -284 -119 -357 -171 l-50 -36 6 263 c11 431
17 521 36 516 9 -2 225 -88 481 -192z m2400 -70 l154 -100 -134 -3 c-130 -3
-135 -2 -152 20 -40 52 -69 212 -35 191 8 -4 83 -53 167 -108z"/>
</g>
</svg>
