<?xml version="1.0" standalone="yes"?>
<svg xmlns="http://www.w3.org/2000/svg" width="350" height="371">
<!-- <path style="fill:#ffffff; stroke:none;" d="M0 0L0 371L350 371L350 0L0 0z"/>
--><path style="fill:#000000; stroke:none;" d="M193 22C169.102 46.97 146.949 73.7795 124.424 100C118.486 106.913 107.491 125.592 98 126C97.4503 133.291 89.1021 143.28 82.9105 147.062C77.6203 150.293 69.0373 150.281 63 151.13C50.1027 152.944 37.0134 156.441 24 157C28.8856 173.609 46.9296 188.094 49.6157 205C50.7488 212.131 34.8424 226.071 40.0432 232.214C42.6142 235.251 52.1698 228.249 56 228.13C60.7098 227.983 63.8685 230.323 68.1698 231.367C77.0408 233.519 85.2957 233.639 94 237.789C103.857 242.489 111.738 255.107 119.09 263L171.09 319C177.329 325.698 183.607 332.356 189.91 338.995C191.979 341.175 194.441 344.982 197.956 343.994C203.528 342.428 200.641 327.145 201.611 322C205.076 303.628 211.637 280.433 225.001 267C246.448 245.44 266.505 222.504 288 201C292.866 196.132 309.793 183.13 309.793 176C309.793 172.84 306.113 170.273 303.999 168.424C297.628 162.852 291.396 157.119 285 151.576C267.794 136.663 250.864 121.371 234 106.075C226.707 99.4599 216.363 93.04 210.854 84.8302C199.103 67.3172 205.197 39.1148 193 22z"/>
<path style="fill:#ffffff; stroke:none;" d="M190 35L157 76L203 83C201.194 69.5914 197.87 46.031 190 35M107 132L149 160L170 173.298L209 174L296 174L296 180L211 180C198.693 180 182.882 177.361 171 180.634C151.115 186.112 125.787 199.72 111.04 214.09C106.17 218.835 104.767 225.466 100 230C103.922 241.826 117.499 252.148 125.961 261C144.708 280.614 165.566 300.431 182 322L183 322L158 278C169.991 277.485 182.113 274.787 194 273.13C199.793 272.323 207.746 272.533 212.985 269.822C219.06 266.678 224.176 258.825 229 254C247.825 235.173 265.944 215.479 284.09 196C288.021 191.779 301.83 182.298 301.079 176.004C300.54 171.496 293.139 166.969 290 164.166C279.374 154.677 268.626 145.323 258 135.834C229.794 110.648 188.199 63.1927 145.015 87.0092C137.076 91.3874 130.781 102.254 124.845 109C118.853 115.81 109.953 123.311 107 132M104 137L102 215L103 215C115.193 197.835 143.443 184.659 163 178L163 176L104 137M97 141C91.3621 147.924 85.2068 154.71 83.9452 164C82.0315 178.092 92.1179 198.036 95 212L96 212L97 161L97 141M80 154L33 162L55 200L73.6034 168L80 154M79 177L71.1698 211L72.0278 223.272L94 231L84.4244 193L79 177M70 185L71 186L70 185M69 187C61.7187 198.897 57.9501 204.039 64 217L65 217L69 187M54 213L49 223L61 223L56 213L54 213M167 283L194 329L195 329C195.375 310.834 204.298 293.856 210 277L167 283z"/>
</svg>
