<?xml version="1.0" standalone="no"?>
<!DOCTYPE svg PUBLIC "-//W3C//DTD SVG 20010904//EN"
 "http://www.w3.org/TR/2001/REC-SVG-20010904/DTD/svg10.dtd">
<svg version="1.0" xmlns="http://www.w3.org/2000/svg"
 width="527.000000pt" height="371.000000pt" viewBox="0 0 527.000000 371.000000"
 preserveAspectRatio="xMidYMid meet">
<metadata>
Created by potrace 1.16, written by Peter Selinger 2001-2019
</metadata>
<g transform="translate(0.000000,371.000000) scale(0.100000,-0.100000)"
fill="#000000" stroke="none">
<path d="M2440 3413 c-69 -7 -81 -12 -78 -35 2 -15 18 -26 58 -41 121 -44 247
-213 423 -566 l112 -225 3 -308 3 -308 -386 0 -385 0 0 55 c0 240 187 650 433
953 37 45 65 82 62 82 -9 0 -1440 -910 -1442 -918 -2 -4 51 -42 117 -86 66
-43 120 -80 120 -82 0 -2 -35 -4 -77 -4 l-78 0 -355 280 -355 281 -6 -78 c-14
-162 -22 -1047 -10 -1076 16 -42 43 -31 61 24 8 24 25 61 38 82 59 93 273 252
503 371 l126 66 116 0 116 0 388 -258 c416 -276 586 -382 614 -382 19 0 31 23
23 44 -3 7 -48 49 -101 92 -124 102 -186 173 -228 259 -36 73 -65 170 -65 217
l0 28 385 0 385 0 0 -790 0 -790 25 0 25 0 0 790 0 790 342 0 342 0 290 -194
c502 -334 632 -413 662 -402 32 12 9 50 -71 115 -131 107 -201 185 -246 275
-114 233 -87 508 86 861 68 138 189 331 271 430 86 105 85 103 44 79 -32 -19
-1411 -893 -1418 -899 -2 -2 61 -47 140 -100 79 -54 147 -102 153 -106 5 -5
-124 -9 -293 -9 l-302 0 0 305 0 305 289 423 290 422 -57 7 c-59 7 -905 29
-1002 26 -30 0 -71 -3 -90 -5z m827 -62 c117 -4 215 -10 218 -13 3 -3 -108
-170 -246 -372 l-251 -367 -98 198 c-118 237 -215 389 -313 489 l-73 74 276
-1 c151 0 370 -4 487 -8z m1257 -518 c-86 -131 -169 -289 -224 -429 -85 -212
-112 -443 -71 -604 27 -107 66 -188 131 -269 29 -35 46 -60 38 -56 -32 19
-663 438 -668 444 -3 3 -76 53 -163 111 -86 57 -156 108 -155 112 3 6 1118
718 1127 718 2 0 -5 -12 -15 -27z m-2116 -109 c-154 -245 -247 -497 -273 -736
l-6 -58 -276 0 -275 0 -119 82 c-66 45 -121 84 -123 87 -3 6 1111 718 1126
720 4 1 -21 -42 -54 -95z m-1305 -684 c86 -68 157 -127 157 -130 0 -3 -21 -16
-47 -29 -86 -41 -276 -158 -359 -219 -44 -33 -111 -93 -149 -133 l-68 -72 7
369 c3 203 9 413 12 466 l6 96 142 -112 c77 -61 212 -168 299 -236z m1037
-192 c0 -101 71 -272 151 -362 28 -31 48 -56 45 -56 -7 0 -531 345 -620 408
l-59 42 241 0 242 0 0 -32z"/>
</g>
</svg>
