<?xml version="1.0" standalone="no"?>
<!DOCTYPE svg PUBLIC "-//W3C//DTD SVG 20010904//EN"
 "http://www.w3.org/TR/2001/REC-SVG-20010904/DTD/svg10.dtd">
<svg version="1.0" xmlns="http://www.w3.org/2000/svg"
 width="718.000000pt" height="371.000000pt" viewBox="0 0 718.000000 371.000000"
 preserveAspectRatio="xMidYMid meet">
<metadata>
Created by potrace 1.16, written by Peter Selinger 2001-2019
</metadata>
<g transform="translate(0.000000,371.000000) scale(0.100000,-0.100000)"
fill="#000000" stroke="none">
<path d="M2695 3159 c-346 -226 -636 -416 -642 -423 -10 -9 3 -23 63 -66 41
-29 77 -57 80 -62 3 -4 -271 -8 -608 -8 l-613 1 -150 136 -150 136 -6 -144
c-4 -79 -7 -174 -8 -211 l-1 -67 -97 -3 c-89 -3 -98 -5 -100 -23 -2 -13 8 -27
30 -40 24 -15 46 -48 87 -130 l55 -109 3 -404 3 -404 -75 66 -74 66 -7 -267
c-4 -154 -4 -278 1 -292 14 -38 46 -34 56 6 11 42 93 122 183 178 l71 45 652
0 652 1 257 -189 c607 -444 871 -626 900 -620 10 2 19 13 21 25 2 16 -20 42
-98 110 -148 130 -222 240 -257 380 -22 90 -21 272 1 376 37 173 138 407 248
579 44 69 53 77 74 72 28 -7 44 19 27 45 -8 12 -4 24 17 51 45 58 48 67 17 48
-15 -10 -38 -25 -52 -34 -24 -16 -27 -15 -69 20 -75 61 -138 128 -178 190 -21
33 -38 64 -38 71 0 19 42 52 95 75 149 64 551 122 942 137 l172 6 1196 -288
c657 -159 1192 -292 1188 -295 -5 -4 -476 -116 -1048 -250 -572 -133 -1046
-245 -1052 -247 -10 -4 -13 10 -13 51 l0 56 130 177 c71 97 127 180 122 185
-8 8 -868 16 -922 8 -48 -7 -53 -36 -8 -54 59 -26 124 -109 197 -254 39 -78
42 -88 39 -156 l-3 -73 -450 118 c-247 65 -458 118 -468 119 -16 0 -17 -8 -12
-77 3 -43 10 -170 15 -283 14 -276 38 -573 51 -638 16 -80 54 -82 77 -3 27 89
175 227 431 399 150 101 343 222 355 222 3 0 6 -139 6 -310 l0 -310 25 0 25 0
0 328 0 328 43 21 c35 18 246 73 277 73 6 0 11 -141 12 -372 l3 -373 25 0 25
0 3 382 2 381 153 36 c83 20 591 139 1127 265 947 222 975 229 978 252 3 24
-6 26 -1260 328 -695 167 -1272 309 -1283 314 -11 6 -172 156 -357 334 -186
177 -342 323 -347 323 -11 0 -250 -374 -414 -647 -71 -120 -117 -187 -121
-178 -3 8 -10 53 -17 100 -18 140 9 316 78 500 58 155 186 388 282 510 48 61
65 85 59 85 -2 0 -286 -185 -633 -411z m405 169 c-98 -164 -191 -393 -227
-560 -24 -112 -24 -308 1 -398 23 -83 67 -177 112 -236 19 -25 34 -47 32 -49
-2 -2 -105 69 -229 158 -408 293 -659 480 -653 486 6 7 987 650 992 650 2 1
-11 -23 -28 -51z m686 -500 l306 -293 -133 -7 c-388 -20 -772 -79 -907 -138
-25 -11 -47 -19 -48 -17 -9 9 452 747 466 747 5 0 147 -132 316 -292z m-2921
-196 l59 -55 -24 -16 c-14 -9 -53 -37 -88 -63 -70 -53 -108 -63 -98 -25 3 12
6 82 6 156 l0 133 43 -38 c23 -20 69 -62 102 -92z m1670 -269 c121 -88 308
-222 415 -297 107 -76 195 -142 195 -146 0 -5 -248 -171 -552 -369 l-552 -361
-366 0 -365 0 0 441 0 442 91 174 c50 96 88 177 85 180 -3 3 -148 9 -323 14
-175 4 -319 8 -321 8 -12 3 19 26 77 61 l67 40 632 0 c459 0 632 3 632 11 0 6
15 0 33 -13 17 -14 131 -97 252 -185z m-1875 -7 c0 -44 22 -82 41 -71 4 3 17
25 28 49 20 47 38 63 51 50 5 -5 -16 -52 -48 -106 -31 -54 -59 -94 -63 -90 -3
4 -16 32 -28 62 -13 30 -36 76 -52 103 l-29 47 50 0 50 0 0 -44z m423 27 c4
-3 -21 -59 -55 -124 l-62 -118 -36 89 c-20 48 -46 104 -58 124 l-21 36 113 0
c62 0 116 -3 119 -7z m266 1 l61 -7 -62 -119 c-62 -118 -63 -119 -75 -91 -10
24 -90 195 -101 216 -5 9 93 9 177 1z m-138 -206 l39 -98 0 -445 0 -445 -130
0 -130 0 0 440 0 440 46 93 c26 50 58 111 71 135 l26 43 20 -33 c11 -18 37
-77 58 -130z m-318 10 l42 -103 3 -447 3 -448 -68 0 c-67 0 -69 1 -121 48
l-53 47 1 418 0 418 62 105 c71 123 64 125 131 -38z m2202 -410 c-67 -116
-143 -282 -179 -397 -103 -321 -81 -577 70 -788 l46 -64 -124 87 c-104 75
-261 189 -711 517 -37 27 -65 52 -62 55 6 6 988 650 993 651 2 1 -13 -27 -33
-61z m1099 32 c13 -13 4 -29 -72 -132 l-86 -117 -38 70 c-34 62 -56 97 -117
181 -14 19 -12 19 142 16 123 -2 159 -6 171 -18z m416 12 c0 -4 -42 -65 -94
-135 l-94 -128 -32 63 c-18 35 -50 89 -71 120 -59 86 -56 88 132 88 87 0 159
-3 159 -8z m-260 -233 c37 -71 41 -85 38 -141 l-3 -62 -147 -34 c-81 -19 -154
-32 -163 -28 -12 4 -15 24 -15 94 l0 88 92 126 92 127 32 -45 c18 -25 51 -81
74 -125z m-762 -190 c228 -60 417 -109 419 -109 2 0 3 -6 3 -12 0 -7 -31 -31
-68 -52 -335 -196 -667 -446 -733 -553 -12 -19 -23 -33 -24 -31 -9 8 -55 705
-55 826 0 49 2 53 21 47 11 -4 208 -56 437 -116z m-2942 -135 c52 -48 94 -89
94 -93 0 -3 -26 -22 -58 -43 -31 -20 -79 -56 -106 -79 -45 -40 -49 -41 -43
-19 4 14 7 91 7 173 0 81 3 147 6 147 3 0 48 -39 100 -86z"/>
</g>
</svg>
