<?xml version="1.0" standalone="no"?>
<!DOCTYPE svg PUBLIC "-//W3C//DTD SVG 20010904//EN"
 "http://www.w3.org/TR/2001/REC-SVG-20010904/DTD/svg10.dtd">
<svg version="1.0" xmlns="http://www.w3.org/2000/svg"
 width="782.000000pt" height="371.000000pt" viewBox="0 0 782.000000 371.000000"
 preserveAspectRatio="xMidYMid meet">
<metadata>
Created by potrace 1.16, written by Peter Selinger 2001-2019
</metadata>
<g transform="translate(0.000000,371.000000) scale(0.100000,-0.100000)"
fill="#000000" stroke="none">
<path d="M4146 3461 c-20 -31 -276 -696 -331 -858 -5 -15 -63 -17 -83 -4 -11
6 -6 24 23 82 l37 74 -74 -71 c-40 -40 -83 -77 -95 -83 -13 -7 -23 -17 -23
-24 0 -6 -79 -91 -176 -188 l-176 -176 174 -62 c95 -35 177 -67 181 -71 5 -4
-85 -103 -198 -219 l-207 -211 28 -11 c16 -6 130 -47 254 -91 124 -44 227 -82
229 -84 4 -3 -38 -245 -44 -252 -1 -1 -154 34 -340 78 -186 44 -339 80 -341
80 -2 0 -4 158 -4 351 l0 351 151 156 151 157 -99 6 c-54 4 -124 7 -155 8
l-58 1 0 301 0 301 156 161 156 162 -109 6 c-59 4 -370 6 -691 5 -506 -1 -584
-3 -592 -16 -15 -23 -7 -33 42 -57 53 -25 98 -77 162 -188 43 -75 135 -272
150 -322 l7 -23 -594 0 -594 0 -246 185 c-136 102 -251 185 -255 185 -11 0
-22 -452 -21 -843 0 -152 -3 -281 -6 -287 -10 -17 -16 -1247 -5 -1274 15 -40
45 -33 58 13 24 77 190 204 402 306 l74 35 638 0 638 0 0 -345 0 -345 25 0 25
0 0 1067 0 1067 191 350 c106 193 193 353 195 355 7 8 44 -33 94 -104 l50 -73
0 -311 0 -311 -134 0 c-106 0 -136 -3 -146 -15 -16 -20 0 -41 39 -48 42 -9
132 -96 195 -190 l56 -82 0 -337 c0 -290 -2 -338 -15 -338 -8 0 -53 9 -100 20
-47 11 -87 20 -89 20 -5 0 90 -301 199 -626 99 -293 157 -445 179 -464 24 -19
46 -1 46 39 0 66 46 138 159 251 132 131 420 348 601 453 31 17 128 45 305 86
143 34 268 64 277 67 12 3 54 -41 158 -170 77 -97 145 -178 149 -180 4 -3 16
1 26 8 17 12 8 26 -118 182 -75 93 -133 172 -129 175 10 9 341 84 345 78 40
-51 304 -378 313 -388 11 -12 16 -12 29 -1 9 7 14 19 11 27 -3 7 -71 94 -152
194 -80 99 -144 182 -142 184 2 3 80 23 174 45 l169 41 19 -23 c10 -13 99
-123 198 -245 99 -123 183 -223 188 -223 16 0 33 30 23 43 -6 6 -87 108 -182
225 -94 117 -174 218 -177 225 -4 10 737 189 1904 460 79 18 83 20 80 45 -3
25 -35 36 -1313 433 -1087 339 -1314 412 -1331 433 -12 13 -146 168 -299 345
-152 177 -278 321 -280 321 -2 0 -6 -4 -9 -9z m290 -391 l255 -295 -38 -3
c-134 -8 -356 -36 -460 -57 -119 -24 -288 -78 -299 -96 -3 -5 -9 -9 -14 -9
-14 0 100 306 277 748 3 7 10 11 15 10 5 -2 124 -136 264 -298z m-1830 204
c55 -4 108 -12 117 -19 16 -11 0 -44 -167 -350 l-185 -337 -14 34 c-28 66 -30
78 -13 78 10 0 16 9 16 24 0 19 -6 25 -26 28 -22 3 -31 16 -63 93 -85 204
-163 342 -238 426 l-38 42 255 -7 c140 -3 300 -9 356 -12z m463 7 l93 -6 -102
-107 -102 -108 -45 63 c-25 34 -59 76 -75 93 -22 23 -28 38 -23 53 6 19 13 21
83 20 42 -1 119 -4 171 -8z m-2259 -425 c102 -76 186 -140 187 -144 1 -4 -44
-32 -100 -62 -56 -30 -135 -79 -175 -107 -40 -29 -76 -53 -80 -53 -4 1 -17 9
-29 19 l-23 19 7 241 c4 172 9 238 17 232 6 -5 94 -70 196 -145z m5223 -528
c675 -210 1224 -385 1220 -389 -5 -4 -435 -107 -957 -229 l-950 -223 -23 29
c-106 130 -97 109 -134 342 -18 116 -36 212 -40 212 -11 0 -301 -314 -312
-338 -15 -33 3 -49 41 -33 39 16 102 1 215 -52 79 -36 97 -50 144 -107 l54
-65 -28 -7 c-15 -4 -95 -23 -176 -41 l-149 -35 -61 75 c-140 170 -128 143
-166 381 -18 116 -36 212 -40 211 -9 -1 -301 -311 -313 -333 -16 -29 11 -51
44 -36 34 16 123 -7 231 -60 77 -38 87 -46 165 -145 52 -66 78 -107 70 -109
-44 -15 -329 -77 -337 -74 -5 1 -59 65 -119 140 l-109 137 -33 208 c-18 114
-36 212 -40 216 -11 12 -320 -321 -320 -345 0 -24 23 -33 49 -19 29 16 109 -3
215 -52 89 -41 89 -41 193 -171 57 -71 102 -130 100 -132 -2 -2 -128 -33 -279
-68 l-276 -65 -88 21 c-49 11 -93 24 -98 28 -5 5 1 60 15 129 23 120 23 120
49 115 16 -4 31 0 39 9 13 16 9 22 -33 51 -18 12 -18 20 27 251 26 130 52 244
58 251 6 8 9 21 5 29 -3 8 0 40 6 70 l11 56 198 172 c109 94 197 173 195 175
-2 2 -86 16 -186 32 -101 16 -184 31 -187 33 -8 8 102 49 191 72 184 47 587
91 661 73 17 -4 582 -180 1258 -390z m-3725 260 c31 -90 32 -98 32 -250 l0
-158 -641 0 -641 0 -184 136 c-101 75 -184 137 -184 139 0 10 174 119 265 167
l110 58 605 0 606 0 32 -92z m1485 -68 c8 -30 38 -37 56 -14 15 20 16 19 170
-4 86 -13 158 -26 159 -27 4 -4 -24 -30 -178 -163 -58 -51 -108 -92 -111 -92
-3 0 -13 26 -23 58 -22 68 -79 184 -113 230 l-24 32 29 0 c21 0 31 -6 35 -20z
m-169 -52 c-22 -104 -18 -200 12 -274 14 -36 24 -67 22 -70 -5 -4 -296 100
-306 110 -4 5 275 296 284 296 0 0 -5 -28 -12 -62z m121 -45 c59 -103 106
-247 98 -300 -3 -24 -11 -43 -17 -43 -7 0 -34 14 -60 30 -43 27 -47 34 -41 57
5 23 4 25 -9 14 -38 -32 -68 135 -46 254 7 40 17 64 24 62 6 -2 29 -35 51 -74z
m-2745 -272 c0 -3 -43 -28 -95 -54 -53 -27 -128 -72 -168 -101 l-73 -52 -37
24 c-42 28 -41 16 -28 257 5 113 9 134 29 162 l23 32 174 -130 c96 -73 175
-134 175 -138z m2069 190 l93 -6 -102 -107 -102 -108 -45 63 c-25 34 -68 86
-96 115 l-51 52 104 -1 c58 -1 147 -4 199 -8z m-729 -451 l0 -230 -648 0 -648
0 -167 123 c-91 67 -167 125 -167 128 0 10 148 104 250 158 l95 51 643 0 642
0 0 -230z m1410 145 c30 -9 58 -20 62 -24 4 -4 -13 -110 -37 -236 -25 -127
-45 -231 -45 -232 0 -2 -4 -3 -8 -3 -18 0 -76 67 -96 110 -30 68 -27 198 9
310 32 99 33 103 49 97 6 -2 36 -12 66 -22z m-186 -145 c-7 -36 -14 -85 -14
-110 0 -60 25 -155 51 -192 12 -16 20 -31 18 -33 -3 -2 -120 38 -288 101 l-43
17 143 143 c79 79 144 142 145 141 1 -1 -4 -31 -12 -67z m1576 -56 c11 -66 21
-128 23 -140 3 -19 -1 -19 -72 13 -42 18 -93 36 -114 39 -20 4 -40 10 -43 15
-5 9 176 202 183 195 2 -2 13 -57 23 -122z m-476 -14 c10 -63 20 -125 23 -137
5 -22 4 -22 -61 7 -37 17 -88 36 -115 43 -26 7 -49 16 -50 21 -5 13 170 199
179 189 4 -4 15 -60 24 -123z m-4056 71 c-7 -9 -14 -18 -15 -20 -2 -2 -3 10
-3 29 0 28 2 31 15 20 12 -10 13 -16 3 -29z m3592 4 c0 -3 9 -64 21 -136 11
-72 19 -133 16 -135 -2 -2 -36 9 -76 26 -40 16 -88 32 -107 36 -19 3 -37 11
-40 16 -3 5 34 51 83 103 80 84 103 105 103 90z m-3382 -132 c80 -60 152 -113
160 -119 11 -8 -9 -23 -94 -70 -60 -32 -142 -83 -182 -112 -72 -51 -74 -52
-97 -35 -24 18 -24 21 -25 171 0 83 4 152 9 152 5 0 11 13 14 29 5 26 51 91
64 91 3 0 71 -48 151 -107z m1522 -413 l0 -250 -646 0 -646 0 -184 136 c-101
75 -184 139 -184 142 0 15 130 99 255 164 l110 58 648 0 647 0 0 -250z m553
-11 c27 -7 37 -15 37 -29 0 -15 7 -20 25 -20 16 0 25 6 25 16 0 10 6 13 18 10
9 -3 199 -49 422 -101 223 -52 411 -97 418 -100 8 -3 -35 -38 -100 -81 -62
-42 -165 -115 -228 -162 -142 -106 -346 -308 -379 -375 -13 -27 -25 -47 -27
-45 -13 14 -225 643 -299 887 -8 26 -11 26 88 0z m-2070 -137 c92 -68 167
-125 167 -126 0 -2 -37 -22 -82 -46 -113 -58 -212 -122 -280 -181 l-57 -49 5
182 c7 270 9 293 34 328 12 17 26 27 33 23 7 -3 87 -62 180 -131z"/>
</g>
</svg>
