<?xml version="1.0" standalone="yes"?>
<svg xmlns="http://www.w3.org/2000/svg" width="802" height="371">
<!-- <path style="fill:#ffffff; stroke:none;" d="M0 0L0 371L802 371L802 0L0 0z"/>
--><path style="fill:#000000; stroke:none;" d="M299 101C265.33 110.555 231.453 119.738 198 130.025C180.444 135.423 158.345 145.556 140 146.235C130.163 146.6 118.505 141.75 109 139.373C89.3894 134.471 69.4558 130.47 50 125C54.187 139.534 64.5018 153.817 71.8603 167C74.5263 171.776 80.2119 178.342 80.2191 184C80.2274 190.463 74.0951 199.299 71.2469 205C63.8924 219.72 57.053 234.87 50.5787 250C48.9499 253.806 39.8151 269.716 44.6073 272.914C48.1104 275.251 57.378 266.367 61 264.926C75.7518 259.058 94.2855 258.025 110 258C135.235 257.959 154.082 267.831 177 277.719C205.355 289.953 233.669 302.287 262 314.576C272.661 319.2 283.318 323.85 294 328.421C300.744 331.307 306.732 332.759 307 341C309.225 341.599 312.448 343.968 314.761 343.253C318.642 342.054 323.727 327.614 327.09 324.001C337.182 313.159 352.967 300.263 367 294.994C378.314 290.746 395.965 294 408 294L498 294L498 342C512.707 341.817 511.11 331.92 520.174 322.015C529.807 311.486 545.39 298.817 559 293.969C570.778 289.774 588.541 293 601 293L694 293L694 345L699 345L699 192L699 146L699.51 123L712.999 102L742.344 59L757 36C748.782 33.5709 739.497 35.4924 731 34.9105C708.447 33.3661 685.631 33 663 33C658.128 33 634.909 30.1962 634.037 37.0355C633.686 39.7891 637.094 40.7337 639.015 41.5293C645.443 44.19 650.237 48.8605 654.826 54C669.823 70.7953 682.749 94.7067 690 116L600 116L560 115.397L526 86L526 85L542.026 63L562 33C530.752 31.6581 499.3 30 468 30C460.689 30 453.254 29.572 446 30.5764C443.535 30.9177 438.898 30.7077 438.466 34.0394C438.07 37.0974 454.201 46.1492 456.985 49C471.245 63.5994 482.196 84.255 490 103L402 103L364 102.397L338 81L338 80L352.72 60L371 32C340.143 28.1003 307.117 29 276 29C268.734 29 261.191 28.4133 254.001 29.5911C251.908 29.9339 247.636 30.2072 247.636 33.1705C247.636 36.7152 263.791 44.6682 266.829 48.0038C280.351 62.8483 291.302 82.511 299 101z"/>
<path style="fill:#ffffff; stroke:none;" d="M263 35C274.264 49.7311 286.053 62.1671 294.742 79C297.929 85.1761 300.907 96.7818 308 99L309 55L333 76L334 76C342.966 64.6942 354.879 50.511 360 37L263 35M453 36L453 37C470.08 49.0312 481.002 70.7749 490.244 89C493.798 96.0096 498.476 103.297 500 111C504.676 108.049 504 103.014 504 98C504.001 87.6364 505 77.3885 505 67L522 82L551 38L453 36M649 39L649 40C671.489 57.1349 685.502 88.4125 696 114L715.026 88L747 41L649 39M314 67L313 106L314 106C317.649 100.59 329.417 88.5647 328.887 82.0008C328.447 76.5668 318.125 69.903 314 67M510 80L510 98L511 98L518 86L510 80M334 86L314 117L326 126.079L335 120.898L356 107C352.469 99.4339 341.53 89.5114 334 86M522 91C518.588 96.9895 512.901 102.405 510.702 109C506.292 122.23 509 140.19 509 154L552 120C546.96 109.192 531.723 97.7685 522 91M307 327L307 165L307 126C306.998 120.58 306.839 112.58 302.301 108.643C298.95 105.735 291.635 109.385 288 110.421L249 121.579C227.319 127.76 205.67 134.064 184 140.291C170.891 144.058 153.746 146.25 142 153.225C135.879 156.859 130.99 163.008 126 168C117.411 176.592 105.182 188.272 103.344 201C102.509 206.787 106.66 211.489 109.667 216C116.815 226.724 124.725 245.391 135.326 252.786C152.156 264.527 176.205 270.557 195 278.86C217.259 288.695 239.741 298.026 262 307.86C276.587 314.305 291.688 322.59 307 327M331 131L355 154.285L366 163.397L406 164L498 164L498 127C497.991 121.753 497.6 114.435 493.351 110.603C490.4 107.942 484.656 109 481 109L451 109L392 109C383.342 109 372.373 107.205 364 109.499C352.13 112.752 340.691 123.817 331 131M504 170L504 255L505 255L505 238C518.902 248.592 530.805 261.962 544 273.424C548.704 277.511 553.109 283.757 559 286.142C569.834 290.528 588.342 287 600 287L694 287L694 166L694 135C694 131.878 695.046 126.221 692.972 123.603C691.109 121.25 686.617 122.001 684 122L661 122L593 122C582.835 122 569.827 119.837 560 122.498C545.24 126.496 528.072 141.895 518.174 153C513.733 157.982 511.271 170.628 504 170M317 128L317 136L322 131L317 128M61 134L97 198L98 198C104.744 178.196 124.731 168.731 133 151L61 134M326 136C317.484 144.696 310.786 167.807 317.028 179.985C319.094 184.017 323.777 186.915 327 190L328 190L360 167L360 166L326 136M332 195C342.773 203.208 353.172 219.73 366 224.397C376.839 228.341 394.469 225 406 225L498 225L498 170L405 170C393.075 170 378.64 167.78 367 170.394C355.653 172.941 338.656 185.746 332 195M317 189L317 201L318 201L323 195L323 194L317 189M85 191L52 262C75.1672 252.498 101.259 252 126 252C120.057 236.32 106.493 221.341 96.5139 208C92.425 202.533 89.9167 195.767 85 191M327 198C315.01 214.189 309.432 237.524 326 252L327 252L359 229C353.838 217.937 336.959 205.016 327 198M331 256L331 257C340.918 266.135 354.253 283.852 367 288.4C377.921 292.297 395.408 289 407 289L498 289L498 231L409 231C396.181 231 379.365 228.111 367 231.499C354.372 234.96 340.43 247.32 331 256M510 251L509 325L510 325C521.409 310.025 537.16 299.696 553 290L524 262.576L510 251M317 252L317 262L318 262L322 257L322 256L317 252M316 327L317 327C327.183 312.108 344.22 300.4 360 292C356.421 286.961 351.408 283.303 347 279C342.897 274.995 332.932 262.428 327.039 262.346C321.703 262.271 318.252 271.851 317.468 276C314.408 292.187 316 310.539 316 327z"/>
</svg>
