<?xml version="1.0" standalone="yes"?>
<svg xmlns="http://www.w3.org/2000/svg" width="502" height="371">
<!-- <path style="fill:#ffffff; stroke:none;" d="M0 0L0 371L502 371L502 0L0 0z"/>
--><path style="fill:#000000; stroke:none;" d="M137 107C142.654 87.077 152.133 69.113 163.67 52C168.733 44.4897 175.861 38.0215 180 30L135 56.1998L43 112C52.0917 123.001 69.1097 131.073 81 139C97.9547 150.303 114.871 161.659 132 172.692C140.642 178.258 149.299 185.448 159 189L159 191L120 213.6L44 260L44 261C76.0945 282.832 108.023 305.32 141 325.808C148.657 330.565 156.074 335.823 164 340.134C166.223 341.343 171.852 344.551 173.338 340.678C174.59 337.416 171.114 334.454 168.981 332.615C162.584 327.102 155.843 322.253 150.093 316C135.546 300.181 135.14 282.025 136 262C165.39 284.59 197.845 304.241 229 324.308C236.516 329.149 244.036 334.424 252 338.506C254.092 339.579 258.986 341.911 260.338 338.552C262.946 332.071 244.9 321.729 241.004 317.961C226.332 303.767 222 286.741 222 267C254.268 284.965 283.659 308.951 315 328.576C322.537 333.295 329.949 338.801 338 342.622C340.076 343.607 345.305 345.583 345.94 341.757C346.496 338.406 342.158 335.182 339.999 333.289C333.126 327.265 325.888 322.169 320.096 315C307.369 299.249 307.948 282.876 308 264C340.093 282.282 369.898 305.697 401 325.692C408.253 330.355 415.479 335.155 423 339.381C425.33 340.69 429.658 343.198 432.214 340.968C436.527 337.206 426.273 330.46 424 328.611C410.492 317.625 399.047 305.594 395.45 288C389.305 257.948 405.645 225.038 422.347 201.002C425.231 196.851 430.696 196.56 432.934 193.394C434.319 191.434 432.938 188.738 433.809 186.576C435.213 183.088 438.409 180.473 440 177C436.219 178.205 431.373 182.943 427.424 182.494C423.05 181.996 417.96 175.874 415 172.985C404.061 162.311 397.166 150.306 395.286 135C390.131 93.0187 422.04 62.8379 441 30C425.03 34.6976 409.217 48.1668 395 56.7971C366.395 74.1621 336.905 90.5352 309 109C314.515 92.0506 321.148 75.9489 331.003 61C337.264 51.5029 348.395 41.6259 352 31L297 64L225 108C230.577 88.2 238.916 70.1496 250.355 53C256.063 44.4419 264.305 37.0987 269 28L226 53.1891L137 107z"/>
<path style="fill:#ffffff; stroke:none;" d="M244 49L174 91.8002L143 112L232 171L218.665 143L216 113L222.435 95L235.862 65L244 49M155 51C123.144 72.0789 88.5896 95.8315 54 112L80 130.859L144 173C140.248 166.261 135.364 160.322 132.695 153C124.375 130.174 129.381 106.856 138.201 85C142.086 75.3711 155.019 60.9188 155 51M416 51C384.167 72.064 349.562 95.8445 315 112L346 134.333L405 173C400.594 165.266 395.354 158.603 392.519 150C385.448 128.537 390.582 105.316 399.012 85C403.07 75.2189 415.697 61.1711 416 51M328 52C296.648 74.7769 260.217 95.7888 226 114L226 115L317 175C296.786 144.314 297.928 115.32 312.424 82C316.379 72.9108 327.041 61.5777 328 52M135 114C134.523 137.121 135.256 155.592 153.001 172.985C156.491 176.407 162.724 183.658 168 183.787C172.307 183.893 176.995 179.466 181 178C176.837 182.769 175.584 189.073 172.09 193.401C170.316 195.598 166.998 195.83 165.04 198.148C152.037 213.544 144.15 234.099 138 253L167 236.2L247 188L247 187C206.904 168.032 174.959 132.903 135 114M308 116C301.865 136.563 310.085 161.579 326.015 175.572C329.559 178.685 335.023 184.924 340 185.292C344.337 185.614 349.475 181.158 353 179C338.385 202.369 315.377 224.364 311 254L348 232.424L418 190L418 188L339 136.333L308 116M223 120C223 139.575 226.281 156.713 241.004 170.961C244.426 174.273 250.802 181.447 256 181.198C260.055 181.003 264.637 177.059 268 175C265.903 178.171 262.382 181.339 261.243 185C260.592 187.093 261.727 189.679 260.269 191.513C258.28 194.014 254.11 193.503 251.76 196.149C238.262 211.35 226.708 236.892 224 257L332 192L332 191C292.947 172.53 261.559 139.182 223 120M142 258L142 259L200 298L232 318C226.36 309.437 221.241 302.025 218.428 292C208.83 257.794 228.114 225.643 244 197L203 220.95L142 258M157 198L86 241.4L55 261L110 298L144 320C140.905 312.642 135.619 306.719 133.004 299C125.67 277.35 130.216 254.706 138.604 234C143.033 223.066 155.676 209.177 157 198M415 198L315 259L315 261L404 320C400.367 313.616 395.727 307.931 393.065 301C384.631 279.042 388.799 255.261 397.452 234C400.841 225.675 404.915 217.765 409.424 210C411.514 206.402 415.365 202.237 415 198M329 200L227 262L255 281.424L318 323C313.836 316.313 308.921 310.461 306.065 303C297.116 279.627 302.766 254.2 312.424 232C316.607 222.385 327.813 210.017 329 200z"/>
</svg>
