<?xml version="1.0" standalone="no"?>
<!DOCTYPE svg PUBLIC "-//W3C//DTD SVG 20010904//EN"
 "http://www.w3.org/TR/2001/REC-SVG-20010904/DTD/svg10.dtd">
<svg version="1.0" xmlns="http://www.w3.org/2000/svg"
 width="599.000000pt" height="378.000000pt" viewBox="0 0 599.000000 378.000000"
 preserveAspectRatio="xMidYMid meet">
<metadata>
Created by potrace 1.16, written by Peter Selinger 2001-2019
</metadata>
<g transform="translate(0.000000,378.000000) scale(0.100000,-0.100000)"
fill="#000000" stroke="none">
<path d="M2370 3429 l-95 -190 -972 -742 c-907 -692 -971 -743 -955 -758 20
-20 529 -372 902 -625 390 -265 716 -475 817 -528 25 -12 33 -23 33 -42 0 -40
30 -235 41 -271 5 -17 16 -34 24 -37 20 -7 45 21 45 50 0 120 282 411 724 746
l138 106 1263 428 c1236 419 1263 428 1261 453 -3 23 -52 39 -1227 403 -673
208 -1226 382 -1229 387 -21 32 -663 811 -669 811 -3 0 -49 -86 -101 -191z
m429 -282 c152 -186 278 -343 279 -348 2 -5 -18 -9 -46 -9 -87 0 -363 -29
-517 -55 -191 -32 -321 -66 -412 -110 -40 -19 -73 -32 -73 -29 0 3 37 85 83
182 86 183 194 357 341 545 99 127 100 128 8 58 -45 -34 -82 -59 -82 -56 0 3
23 51 51 107 l51 102 20 -24 c11 -14 145 -177 297 -363z m-617 -103 c-22 -44
-72 -133 -112 -199 -97 -162 -268 -512 -323 -660 -97 -262 -136 -441 -144
-655 -6 -180 8 -281 61 -420 44 -120 110 -213 229 -326 l102 -97 -70 43 c-134
83 -652 429 -1005 672 -452 312 -493 341 -492 353 1 10 1785 1375 1790 1370 2
-2 -15 -38 -36 -81z m2135 -659 c631 -195 1156 -358 1166 -363 13 -5 -353
-133 -1215 -425 l-1233 -417 -507 113 -508 114 0 -41 c0 -37 39 -471 56 -621
l7 -59 -54 44 c-211 176 -296 295 -351 495 -19 69 -22 105 -22 260 0 195 13
280 74 490 38 129 181 490 205 513 2 2 12 -2 24 -10 18 -11 24 -8 61 29 49 51
135 93 260 127 204 55 547 100 792 104 l97 2 1148 -355z m-1802 -1140 c237
-52 438 -99 448 -103 16 -6 2 -21 -79 -82 -335 -255 -605 -514 -687 -659 l-24
-42 -22 183 c-12 101 -32 302 -46 448 -13 146 -27 284 -30 308 -2 23 -1 42 3
42 4 0 201 -43 437 -95z"/>
</g>
</svg>
