<?xml version="1.0" standalone="no"?>
<!DOCTYPE svg PUBLIC "-//W3C//DTD SVG 20010904//EN"
 "http://www.w3.org/TR/2001/REC-SVG-20010904/DTD/svg10.dtd">
<svg version="1.0" xmlns="http://www.w3.org/2000/svg"
 width="288.000000pt" height="371.000000pt" viewBox="0 0 288.000000 371.000000"
 preserveAspectRatio="xMidYMid meet">
<metadata>
Created by potrace 1.16, written by Peter Selinger 2001-2019
</metadata>
<g transform="translate(0.000000,371.000000) scale(0.100000,-0.100000)"
fill="#000000" stroke="none">
<path d="M1305 3453 c-66 -8 -76 -13 -73 -35 2 -15 18 -26 58 -41 130 -48 286
-268 476 -667 l59 -125 3 -465 c2 -400 1 -463 -12 -450 -18 20 -664 857 -681
884 -10 16 -105 576 -105 620 0 14 -40 -26 -189 -189 -160 -175 -251 -282
-251 -294 0 -5 7 -14 16 -22 12 -10 20 -10 35 -1 48 31 148 7 322 -76 l118
-56 375 -485 374 -485 0 -370 c0 -314 -2 -368 -14 -356 -7 8 -193 236 -412
505 l-398 490 -52 316 c-28 174 -53 322 -56 329 -4 14 -442 -440 -470 -487
-25 -42 -10 -61 35 -45 18 7 53 12 76 12 56 0 199 -48 327 -110 l102 -49 422
-518 c232 -285 426 -517 431 -515 5 1 9 -85 9 -213 l0 -215 25 0 25 0 0 1120
0 1120 289 422 289 423 -46 7 c-95 13 -1026 31 -1107 21z m837 -61 c113 -4
209 -10 212 -13 4 -3 -107 -171 -245 -373 l-251 -367 -98 198 c-118 237 -215
389 -313 489 l-73 74 281 -1 c154 0 373 -4 487 -7z m-1112 -555 c18 -120 30
-220 28 -223 -3 -2 -43 13 -89 35 -99 46 -209 81 -251 81 -16 0 -28 4 -26 9 7
20 293 329 299 323 3 -4 21 -105 39 -225z m-124 -709 c23 -139 40 -254 39
-256 -2 -2 -34 12 -71 31 -97 49 -239 97 -307 105 l-57 7 172 182 c95 100 175
182 178 183 3 0 24 -114 46 -252z"/>
</g>
</svg>
