<?xml version="1.0" standalone="no"?>
<!DOCTYPE svg PUBLIC "-//W3C//DTD SVG 20010904//EN"
 "http://www.w3.org/TR/2001/REC-SVG-20010904/DTD/svg10.dtd">
<svg version="1.0" xmlns="http://www.w3.org/2000/svg"
 width="336.000000pt" height="371.000000pt" viewBox="0 0 336.000000 371.000000"
 preserveAspectRatio="xMidYMid meet">
<metadata>
Created by potrace 1.16, written by Peter Selinger 2001-2019
</metadata>
<g transform="translate(0.000000,371.000000) scale(0.100000,-0.100000)"
fill="#000000" stroke="none">
<path d="M457 3379 c-26 -15 -20 -38 11 -45 85 -19 112 -28 162 -56 62 -35
140 -93 218 -163 l52 -47 0 -354 0 -354 -227 -2 c-220 -3 -228 -4 -228 -23 0
-12 9 -22 25 -26 14 -4 50 -14 80 -23 69 -19 184 -95 278 -181 l72 -67 0 -349
0 -349 -134 0 c-74 0 -146 -4 -160 -10 -49 -18 -21 -60 39 -60 81 0 244 -68
380 -158 150 -100 370 -302 533 -490 l72 -82 0 -125 0 -125 30 0 30 0 0 129 0
128 517 387 517 386 -131 0 c-72 0 -138 3 -147 6 -14 5 -16 47 -16 363 l0 356
242 155 243 155 -243 3 -242 2 2 356 3 356 237 153 237 152 -107 7 c-171 10
-2325 6 -2345 -5z m785 -58 c3 -3 -66 -52 -154 -109 l-160 -102 -66 61 c-37
33 -101 83 -142 111 -41 27 -76 51 -77 52 -2 1 131 1 295 -2 163 -2 300 -7
304 -11z m661 10 l69 -6 -161 -102 c-88 -57 -163 -103 -166 -103 -3 0 -42 32
-87 70 -45 39 -105 85 -134 103 -30 18 -54 35 -54 40 0 8 434 7 533 -2z m761
0 l69 -6 -163 -104 c-113 -73 -166 -102 -175 -95 -8 5 -42 35 -78 67 -36 31
-95 78 -133 102 l-68 45 239 -1 c132 -1 271 -4 309 -8z m-571 -42 c64 -33 123
-76 209 -152 l78 -68 0 -352 0 -352 -355 -3 -355 -2 2 357 3 357 184 118 c102
65 186 118 188 118 2 0 23 -10 46 -21z m-648 -73 c22 -16 68 -55 103 -84 l62
-54 0 -357 0 -356 -330 -3 -330 -2 0 352 0 353 183 116 182 117 45 -26 c25
-14 63 -39 85 -56z m-240 -914 l50 -7 -152 -98 c-83 -53 -159 -100 -168 -103
-12 -5 -34 10 -73 48 -65 62 -117 103 -182 141 l-45 27 260 -1 c143 0 283 -4
310 -7z m745 -15 c-19 -13 -97 -63 -172 -111 l-138 -88 -69 64 c-39 36 -96 82
-128 104 -32 21 -62 42 -67 46 -6 4 129 8 299 8 l310 0 -35 -23z m695 -43
c-55 -36 -133 -86 -173 -111 l-72 -45 -68 63 c-37 35 -94 82 -127 104 -33 21
-64 43 -69 47 -6 4 129 8 300 8 l309 0 -100 -66z m-552 20 c63 -33 149 -97
218 -161 l69 -65 0 -354 0 -354 -257 0 c-142 0 -302 3 -355 7 l-98 6 0 351 0
351 183 117 c100 65 188 118 195 118 7 0 27 -7 45 -16z m-691 -43 c40 -27 103
-77 141 -111 l67 -62 0 -354 0 -354 -330 0 -330 0 0 349 0 349 178 115 c97 63
182 116 189 116 6 1 44 -21 85 -48z m1002 -950 l160 -6 -453 -339 -453 -340
-56 65 c-243 277 -509 501 -715 600 l-82 40 720 -7 c396 -4 792 -9 879 -13z"/>
</g>
</svg>
