<?xml version="1.0" standalone="yes"?>
<svg xmlns="http://www.w3.org/2000/svg" width="320" height="371">
<!-- <path style="fill:#ffffff; stroke:none;" d="M0 0L0 371L320 371L320 0L0 0z"/>
--><path style="fill:#000000; stroke:none;" d="M153 346L159 346L159 259C159 250.95 155.658 233.241 160.028 226.39C164.06 220.069 178.415 215.278 185 211.78C205.784 200.74 226.171 188.959 247 178L247 177L233 176L233 109L234.318 80L279 32C265.259 28.7285 250.034 31.8716 236 30.9105C198.219 28.3232 158.849 28.5415 121 29.0185C110.302 29.1534 99.7528 31.2488 89 30.9854C74.3461 30.6263 59.7181 30 45 30C41.8825 30 31.8813 28.6181 31.1759 33.2199C30.6221 36.8329 44.2414 41.7064 47 43.9352C57.6768 52.5615 72.2921 68.5262 76.3511 82C78.8473 90.2862 77 101.386 77 110C77 128.998 77.1301 148.002 76.9992 167C76.9827 169.392 77.2686 172.423 75.3966 174.258C73.6065 176.012 65.4283 175.606 67.4074 179.741C68.6189 182.272 72.6487 182.205 75 182.59C81.9211 183.72 88.4631 185.513 95 188.062C113.351 195.217 138.528 209.192 150.682 225.015C156.232 232.24 153 249.214 153 258L153 346z"/>
<path style="fill:#ffffff; stroke:none;" d="M151 73L152 73L186 37C171.288 34.2688 153.971 35.024 139 35C135.872 34.995 125.653 33.389 124.346 37.3179C123.192 40.786 128.968 44.927 130.985 47C138.687 54.9125 144.309 64.2954 151 73M48 36L48 37C60.78 46.0024 71.4451 60.43 79 74C91.0696 65.498 104.51 51.0529 113 39L97 36.7145L48 36M199 36L230 74C242.378 65.2747 257.273 49.3889 266 37L199 36M152 176L227 176L227 114C227 95.014 228.591 81.0844 217.279 65C212.661 58.4332 201.871 41.2761 193.004 40.8318C186.638 40.5128 175.352 56.6482 171 61C165.1 66.8999 155.487 73.9084 152.6 82C149.72 90.0717 152 102.462 152 111L152 176M82 175C102.14 175 126.404 171.335 146 176L146 104C146 92.0754 148.211 79.2884 141.329 69C136.918 62.4043 128.122 46.5316 119.999 44.4969C113.515 42.8726 100.218 60.6305 96.0394 65C91.8225 69.4099 84.7285 75.2363 82.6034 81C79.6629 88.9753 82 101.533 82 110L82 175M95 181L95 182C110.54 186.25 125.159 196.737 138 206.155C143.014 209.833 149.718 218.23 156 219.211C161.652 220.094 170.161 212.793 175 210.255C191.809 201.439 208.202 191.838 225 183C214.258 178.493 195.682 182 184 182C154.408 182 124.672 181 95 181z"/>
</svg>
