<?xml version="1.0" standalone="no"?>
<!DOCTYPE svg PUBLIC "-//W3C//DTD SVG 20010904//EN"
 "http://www.w3.org/TR/2001/REC-SVG-20010904/DTD/svg10.dtd">
<svg version="1.0" xmlns="http://www.w3.org/2000/svg"
 width="350.000000pt" height="371.000000pt" viewBox="0 0 350.000000 371.000000"
 preserveAspectRatio="xMidYMid meet">
<metadata>
Created by potrace 1.16, written by Peter Selinger 2001-2019
</metadata>
<g transform="translate(0.000000,371.000000) scale(0.100000,-0.100000)"
fill="#000000" stroke="none">
<path d="M1920 3471 c0 -4 -26 -35 -58 -67 -32 -32 -272 -306 -533 -609 -262
-302 -482 -555 -490 -561 -8 -6 -140 -30 -294 -54 -154 -23 -284 -46 -288 -50
-5 -4 52 -115 126 -246 l134 -238 -30 -50 c-51 -86 -96 -187 -90 -202 8 -21
33 -17 60 8 20 18 39 23 100 26 65 4 79 1 104 -17 23 -17 33 -19 49 -11 15 8
43 3 127 -25 59 -19 120 -43 134 -52 15 -10 244 -253 510 -540 454 -491 485
-522 504 -509 17 12 20 23 17 84 -6 112 30 255 119 484 l50 127 465 487 c255
268 463 492 461 498 -2 6 -228 211 -502 456 l-498 445 -80 313 c-44 171 -84
312 -88 312 -5 0 -9 -4 -9 -9z m56 -352 c34 -131 58 -239 54 -239 -5 0 -55 11
-112 25 -132 31 -270 49 -319 41 -22 -3 -39 -4 -39 -2 0 4 147 188 279 349 35
42 67 75 70 71 3 -3 33 -113 67 -245z m-136 -249 c226 -46 171 -8 707 -486
263 -234 479 -429 481 -433 1 -4 -200 -219 -447 -478 l-449 -470 -74 -11 c-40
-6 -162 -23 -270 -38 -109 -15 -198 -32 -198 -37 0 -12 13 -35 154 -272 56
-93 103 -174 105 -179 2 -5 -187 196 -420 447 l-423 457 -88 342 -88 343 20
60 c11 33 28 72 38 86 9 14 140 168 291 343 209 241 279 315 292 311 9 -3 32
3 51 15 45 27 184 27 318 0z m-1032 -713 c-2 -8 -61 -113 -132 -235 l-129
-222 -109 191 c-59 105 -108 194 -108 198 0 5 414 76 468 80 8 1 12 -5 10 -12z
m67 -480 c37 -147 65 -270 62 -273 -3 -3 -48 8 -101 25 -53 17 -103 31 -110
31 -37 0 -26 151 25 340 17 63 34 125 36 138 3 13 9 20 13 15 4 -4 37 -128 75
-276z m-181 113 c-13 -52 -29 -130 -35 -172 -6 -43 -13 -78 -14 -78 -2 0 -18
25 -35 55 l-32 56 68 119 c38 65 70 118 71 117 1 -1 -9 -45 -23 -97z m-107
-259 l31 -49 -68 -4 -69 -3 31 57 c17 32 34 56 37 53 4 -2 21 -26 38 -54z
m1485 -672 c-47 -118 -93 -267 -111 -362 l-17 -87 -137 230 c-75 127 -137 234
-137 238 0 10 424 70 428 61 2 -4 -10 -40 -26 -80z"/>
<path d="M1303 2630 c-40 -17 -25 -43 33 -59 94 -25 211 -136 333 -316 l71
-104 0 -595 0 -596 25 0 25 0 0 593 0 594 230 236 c127 129 227 238 223 240
-17 10 -918 17 -940 7z m827 -57 c5 -4 -351 -363 -361 -363 -3 0 -32 39 -64
88 -33 48 -105 133 -160 189 l-101 101 341 -5 c187 -3 342 -7 345 -10z"/>
</g>
</svg>
