<?xml version="1.0" standalone="yes"?>
<svg xmlns="http://www.w3.org/2000/svg" width="391" height="371">
<path style="fill:#ffffff; stroke:none;" d="M0 0L0 371L391 371L391 0L0 0z"/>
<path style="fill:#000000; stroke:none;" d="M91 26L90 33L44 33C40.8078 33 30.654 31.4922 29.9213 36.1844C29.4734 39.0528 32.9702 40.3123 35.0046 41.1659C42.0549 44.1241 47.1081 49.1752 51.9159 55C66.6094 72.8017 83.2346 99.2692 88.625 122C94.0446 144.854 90 172.58 90 196L90 345L95 345L95 202L96 124C111.837 133.133 117.564 156.693 123 173C129.555 192.666 127 214.422 127 235L127 345L132 345L132 219C132 195.959 131.044 170.579 148.39 152.329C152.661 147.835 159.544 145.474 165 142.753C184.823 132.867 200.169 131 222 131L362 131L362 125L245 125C228.821 125 206.484 129.016 191 124.351C173.246 119.003 153.484 102.246 138 92L169 79.3287L232 79L362 79L362 74L229 74C210.542 74 185.773 78.3725 168 73.5008C157.911 70.7351 149.452 61.4703 140 57L153 35L106 33.581L91 26z"/>
<path style="fill:#ffffff; stroke:none;" d="M46 39C60.9804 60.2663 76.764 78.414 87 103L88 103L90 39L46 39M96 39L94 111L95 111L131 58C121.279 51.4478 108.015 39.3567 96 39M115 40L115 41L135 53L142 41L115 40M135 62L109 101C118.013 97.5888 123.992 93.9414 124 84C135.429 91.4339 146.603 80.8809 158 77L158 75L135 62M130 96L129 118L163 120L153 141L183 128L149 106.189L130 96M100 118L123 118L124 100C114.969 103.306 105.543 110.152 100 118M107 123L121 150L122 150L123 124L107 123M129 124L128 159C141.14 149.853 147.891 139.673 154 125L129 124M135 161L129 173C132.663 170.599 135.137 165.378 135 161z"/>
</svg>
