<?xml version="1.0" standalone="no"?>
<!DOCTYPE svg PUBLIC "-//W3C//DTD SVG 20010904//EN"
 "http://www.w3.org/TR/2001/REC-SVG-20010904/DTD/svg10.dtd">
<svg version="1.0" xmlns="http://www.w3.org/2000/svg"
 width="529.000000pt" height="371.000000pt" viewBox="0 0 529.000000 371.000000"
 preserveAspectRatio="xMidYMid meet">
<metadata>
Created by potrace 1.16, written by Peter Selinger 2001-2019
</metadata>
<g transform="translate(0.000000,371.000000) scale(0.100000,-0.100000)"
fill="#000000" stroke="none">
<path d="M3990 3422 c-42 -13 -31 -42 25 -71 67 -35 129 -114 208 -269 70
-136 98 -200 159 -357 l38 -100 0 -422 0 -423 -430 0 -430 0 0 244 0 243 165
299 c91 164 162 301 157 306 -9 9 -898 26 -1409 27 -285 1 -334 -1 -347 -14
-19 -20 -11 -42 19 -49 43 -11 105 -97 175 -241 38 -77 82 -179 99 -226 30
-82 31 -92 31 -242 0 -86 -2 -157 -4 -157 -2 0 -75 41 -161 90 -87 50 -160 89
-162 86 -6 -6 -22 -420 -23 -594 0 -94 4 -172 10 -183 16 -30 38 -23 59 20 11
21 38 54 60 73 37 31 164 109 203 124 17 6 18 -21 20 -432 l3 -439 25 0 25 0
5 455 5 455 130 52 c122 49 135 53 218 53 l87 0 0 -510 0 -510 25 0 25 0 0
510 0 510 255 0 255 0 0 -515 0 -515 25 0 25 0 0 515 0 515 430 0 430 0 0
-530 0 -530 -1091 0 -1091 0 -492 205 c-271 113 -497 205 -502 205 -11 0 -24
-140 -24 -262 0 -38 -4 -68 -8 -68 -21 0 -141 130 -165 180 -52 109 -55 257
-6 417 48 159 249 513 299 526 11 3 20 13 20 24 0 10 14 35 31 56 36 43 32 46
-18 12 -43 -29 -48 -27 -131 53 -105 101 -141 216 -121 382 24 199 149 458
336 697 41 52 70 93 64 92 -5 -2 -246 -170 -535 -374 l-526 -370 31 -24 c49
-40 472 -327 624 -424 77 -49 144 -93 148 -97 4 -4 -199 -153 -452 -331 l-461
-324 28 -23 c36 -30 690 -468 769 -516 l62 -37 -2 -224 c-2 -198 0 -226 15
-241 20 -21 45 -12 57 19 35 90 315 215 780 348 l173 49 1094 0 c723 0 1094
-3 1094 -10 0 -5 11 -10 25 -10 14 0 25 5 25 10 0 6 75 10 205 10 l205 0 0 25
0 25 -205 0 -205 0 0 979 0 979 220 380 c121 210 220 385 220 390 0 5 -62 12
-137 16 -229 11 -756 16 -783 8z m733 -61 l107 -6 -187 -327 c-104 -180 -190
-327 -193 -327 -3 -1 -22 45 -44 102 -88 232 -204 446 -289 535 l-42 44 270
-7 c149 -4 318 -10 378 -14z m-3442 -423 c-80 -123 -166 -316 -197 -443 -27
-107 -24 -264 6 -340 12 -33 31 -72 42 -87 11 -16 16 -28 13 -28 -7 0 -417
275 -533 358 -57 40 -61 46 -45 57 304 216 729 515 731 515 2 0 -6 -15 -17
-32z m1234 -95 c138 -6 139 -7 173 -38 l34 -31 -118 -212 c-65 -116 -120 -210
-122 -207 -2 2 -25 57 -52 122 -59 148 -97 222 -154 306 l-46 67 73 0 c41 0
136 -3 212 -7z m693 -19 l32 -13 -35 -63 c-19 -35 -77 -138 -128 -230 -50 -92
-95 -164 -98 -160 -3 4 -22 48 -42 97 -51 130 -90 214 -125 270 l-30 49 19 38
20 39 177 -7 c109 -4 190 -12 210 -20z m464 7 l138 -6 -111 -200 c-61 -110
-122 -220 -136 -244 l-25 -43 -43 109 c-52 132 -116 262 -159 323 -18 25 -31
51 -28 58 4 13 121 14 364 3z m-274 -285 c24 -56 60 -143 78 -194 l34 -93 0
-239 0 -240 -255 0 -255 0 0 245 0 246 137 249 138 249 39 -61 c21 -34 59
-107 84 -162z m-568 31 c26 -56 64 -146 84 -200 l36 -97 0 -250 0 -250 -87 0
-87 0 -133 76 -133 75 0 176 0 176 71 131 c40 72 94 171 121 219 59 104 51
107 128 -56z m-515 -594 l135 -77 0 -126 0 -126 -82 -43 c-92 -48 -148 -85
-192 -127 l-28 -27 6 244 c6 240 14 359 22 359 3 0 65 -35 139 -77z m353 -200
c17 -9 32 -20 32 -23 0 -4 -39 -22 -87 -41 -49 -19 -91 -35 -95 -37 -5 -2 -8
40 -8 93 l0 96 63 -36 c34 -20 77 -43 95 -52z m-1533 -106 c-137 -234 -205
-483 -176 -642 6 -33 26 -90 44 -128 19 -37 30 -66 26 -65 -13 5 -579 389
-583 397 -3 5 730 530 741 531 1 0 -23 -42 -52 -93z m590 -849 c228 -95 411
-176 407 -179 -4 -4 -43 -17 -87 -29 -125 -34 -380 -118 -489 -162 -123 -49
-166 -70 -240 -120 l-59 -40 6 283 c8 349 15 432 33 425 8 -3 201 -83 429
-178z"/>
</g>
</svg>
