<?xml version="1.0" standalone="no"?>
<!DOCTYPE svg PUBLIC "-//W3C//DTD SVG 20010904//EN"
 "http://www.w3.org/TR/2001/REC-SVG-20010904/DTD/svg10.dtd">
<svg version="1.0" xmlns="http://www.w3.org/2000/svg"
 width="417.000000pt" height="371.000000pt" viewBox="0 0 417.000000 371.000000"
 preserveAspectRatio="xMidYMid meet">
<metadata>
Created by potrace 1.16, written by Peter Selinger 2001-2019
</metadata>
<g transform="translate(0.000000,371.000000) scale(0.100000,-0.100000)"
fill="#000000" stroke="none">
<path d="M968 3032 c-368 -224 -668 -410 -668 -413 0 -7 794 -540 1008 -677
100 -65 113 -76 110 -98 -3 -22 -78 -71 -553 -359 -302 -184 -551 -337 -552
-342 -5 -14 933 -641 1151 -770 95 -56 120 -63 130 -37 8 22 -8 39 -126 136
-190 155 -261 296 -261 513 0 164 39 309 140 513 36 73 66 132 67 130 1 -2 -2
-245 -7 -541 -9 -481 -8 -540 6 -554 21 -22 44 -10 52 26 10 45 77 114 173
179 96 63 281 162 306 162 13 0 16 -21 18 -143 l3 -142 25 0 25 0 3 142 3 143
419 0 420 0 298 -198 c361 -241 591 -388 636 -407 30 -13 36 -13 46 0 19 23 7
39 -77 106 -173 139 -263 264 -292 407 -14 67 -14 210 -1 288 29 165 128 393
251 579 61 91 62 93 95 88 40 -7 56 17 30 45 -14 17 -13 22 24 66 22 27 40 50
40 52 0 2 -27 -13 -60 -32 l-59 -36 -76 62 c-174 142 -245 287 -245 498 0 289
135 591 427 952 15 18 23 31 18 28 -6 -3 -274 -166 -598 -362 l-588 -356 -294
0 c-162 0 -295 2 -295 5 0 2 72 120 160 262 l160 258 -87 7 c-49 4 -260 9
-471 10 -320 3 -384 1 -391 -11 -15 -23 -3 -38 44 -55 69 -27 146 -124 246
-312 l53 -99 -49 37 c-242 181 -367 270 -371 265 -4 -3 -8 -241 -11 -529 -3
-288 -7 -525 -10 -528 -10 -10 -114 117 -148 181 -49 94 -66 167 -66 289 -1
173 36 311 138 515 66 132 155 270 247 383 36 45 63 82 59 81 -4 -1 -308 -184
-675 -407z m411 127 c-116 -187 -198 -395 -225 -571 -32 -210 14 -399 133
-545 l45 -55 -54 35 c-256 163 -887 592 -881 598 13 12 1028 627 1031 624 1
-1 -21 -40 -49 -86z m2269 -46 c-103 -163 -182 -354 -219 -528 -18 -86 -16
-257 4 -335 23 -87 70 -180 124 -247 25 -31 39 -52 32 -48 -60 34 -929 619
-925 623 9 8 1031 630 1038 631 4 1 -21 -43 -54 -96z m-1341 48 l62 -6 -147
-237 -147 -237 -67 -1 -68 0 -66 133 c-80 158 -138 251 -202 319 l-47 50 310
-7 c171 -4 338 -10 372 -14z m-617 -358 l198 -148 -87 -45 c-96 -51 -188 -108
-241 -150 l-35 -28 -28 23 -29 22 8 236 c4 131 9 237 12 237 2 0 93 -66 202
-147z m331 -205 c-24 -39 -37 -45 -44 -21 -2 10 -8 26 -12 36 -6 15 -1 17 35
17 l42 0 -21 -32z m587 9 c-21 -12 -38 -25 -38 -29 0 -3 152 -108 337 -232
l337 -226 -612 0 -612 0 0 189 0 190 41 65 41 66 272 0 271 -1 -37 -22z m-669
-63 c19 -50 21 -76 21 -241 0 -116 -4 -183 -10 -181 -28 9 -370 272 -367 282
8 26 287 195 323 196 6 0 21 -25 33 -56z m-234 -309 c94 -69 171 -129 172
-133 2 -4 -32 -25 -74 -47 -42 -22 -119 -68 -172 -102 l-96 -62 -30 23 c-26
21 -30 30 -33 82 -5 115 13 307 32 337 10 15 21 27 25 27 4 0 83 -56 176 -125z
m255 -445 c0 -241 -2 -280 -15 -280 -8 0 -100 64 -205 142 -165 123 -188 143
-169 150 16 6 20 14 15 31 -4 19 6 30 67 72 66 45 282 164 300 165 4 0 7 -126
7 -280z m1554 153 c154 -100 194 -130 184 -139 -7 -6 -118 -75 -246 -153
l-233 -141 -600 0 -599 0 0 280 0 280 649 0 649 0 196 -127z m-2129 -268
c-102 -159 -190 -381 -221 -555 -20 -116 -14 -236 17 -336 28 -90 48 -128 110
-211 29 -37 46 -63 38 -57 -8 5 -220 147 -471 314 -301 200 -454 308 -448 314
6 6 234 146 508 312 312 190 498 297 500 289 2 -7 -13 -39 -33 -70z m309 -53
l185 -139 -57 -27 c-81 -40 -166 -91 -244 -148 l-67 -49 -26 18 -26 18 7 200
c6 182 18 265 39 265 3 0 88 -62 189 -138z m2000 106 c-5 -7 -28 -44 -52 -81
-24 -38 -68 -119 -97 -180 -96 -201 -136 -351 -136 -518 0 -164 38 -281 130
-402 28 -38 46 -65 39 -61 -83 49 -678 448 -678 455 0 5 -5 9 -10 9 -6 0 -62
35 -126 77 -77 51 -111 79 -102 84 7 5 243 148 523 318 281 171 511 311 513
311 2 0 0 -6 -4 -12z m-1734 -523 c0 -240 -1 -255 -18 -255 -10 0 -100 61
-200 136 -205 154 -198 139 -97 207 57 39 292 166 308 167 4 0 7 -115 7 -255z
m1169 251 c-2 -2 -125 -76 -274 -166 -148 -90 -276 -168 -283 -174 -10 -10 12
-29 100 -89 l112 -77 -382 0 -382 0 0 255 0 255 557 0 c306 0 554 -2 552 -4z
m-1431 -401 c89 -66 161 -122 161 -125 1 -3 -36 -25 -82 -49 -123 -66 -213
-126 -275 -184 l-55 -52 7 220 c6 208 8 223 32 273 18 36 29 50 38 45 7 -5 86
-62 174 -128z"/>
</g>
</svg>
