<?xml version="1.0" standalone="yes"?>
<svg xmlns="http://www.w3.org/2000/svg" width="523" height="371">
<path style="fill:#ffffff; stroke:none;" d="M0 0L0 371L523 371L523 0L0 0z"/>
<path style="fill:#000000; stroke:none;" d="M212 22C191.042 38.1073 167.327 51.8852 145 66.0532C136.574 71.4001 126.2 81.8804 116 82.8951C102.443 84.2436 88.3458 80.7323 75 82.2855C72.2189 82.6092 63.7523 81.9599 62.7515 85.2994C61.5702 89.2416 69.712 92.8239 71.9599 95.044C79.8843 102.87 85.0947 113.988 89.6914 124C104.716 156.725 100 192.592 100 228C100 237.846 103.773 256.997 96 264L96 266C104.548 273.701 100 298.032 100 309L106 309L106 272C131.007 290.181 159.189 305.758 186 321.15C192.207 324.713 198.325 328.995 204.999 331.647C207.051 332.463 211.159 333.758 212.11 330.685C213.391 326.543 206.653 322.691 204 320.735C194.152 313.472 185.091 305.545 180.232 294C170.129 269.996 181.756 249.828 188 227L189 227C189.01 230.628 188.421 248.875 193.914 247.94C196.883 247.434 197.677 243.15 199.005 240.999C201.944 236.236 206.586 232.257 211 228.899C226.754 216.915 249.519 203.93 269 199.529C288.185 195.194 312.319 199 332 199L463 199L463 193L327 193L287 193C280.804 193 272.934 194.274 267 192.298C253.953 187.953 240.514 176.172 229 168.656C208.806 155.474 182.741 144.917 177.286 119C172.276 95.1914 183.238 70.2233 194.872 50C198.864 43.061 213.074 29.831 212 22z"/>
<path style="fill:#ffffff; stroke:none;" d="M190 44L130 83L130 84L143 84L128.302 110.907L141 121.05L184 147C170.095 122.024 166.872 101.592 176.692 74C179.89 65.0143 189.728 53.1998 190 44M75 88L103 139L104 139L118 113L96 98L110 90C100.413 85.977 85.3612 88 75 88M107 98L107 100L122 109L133 90C121.357 89.0811 117.015 92.4241 107 98M106 257C128.169 248.597 149.074 229.527 169 216.692C174.628 213.067 187.803 207.796 189.682 200.907C192.12 191.966 190.985 178.341 191 169C191.005 165.736 191.74 161.249 189.972 158.329C187.667 154.521 181.716 152.194 178 150.011C168.95 144.695 159.974 139.245 151 133.797C145.932 130.721 129.159 116.459 123.379 119.16C120.674 120.425 119.05 124.584 117.6 127C112.981 134.694 106.133 142.726 106.004 152C105.518 186.985 106 222.011 106 257M197 162L196 198L213 188L195.818 214L195 234C215.511 219.565 234.781 205.244 259 197L259 195C238.212 182.231 219.977 169.271 197 162M189 210L107 264L107 266L183 312C180.513 306.085 176.373 301.079 174.066 295C168.324 279.877 169.844 264.313 173.884 249C176.138 240.458 179.419 231.903 183.37 224C185.493 219.754 189.816 214.899 189 210z"/>
</svg>
