<?xml version="1.0" standalone="no"?>
<!DOCTYPE svg PUBLIC "-//W3C//DTD SVG 20010904//EN"
 "http://www.w3.org/TR/2001/REC-SVG-20010904/DTD/svg10.dtd">
<svg version="1.0" xmlns="http://www.w3.org/2000/svg"
 width="626.000000pt" height="371.000000pt" viewBox="0 0 626.000000 371.000000"
 preserveAspectRatio="xMidYMid meet">
<metadata>
Created by potrace 1.16, written by Peter Selinger 2001-2019
</metadata>
<g transform="translate(0.000000,371.000000) scale(0.100000,-0.100000)"
fill="#000000" stroke="none">
<path d="M2475 3154 c-270 -217 -513 -417 -541 -442 -29 -26 -214 -177 -412
-337 -215 -173 -356 -294 -352 -300 5 -6 -144 -133 -370 -315 -209 -168 -379
-308 -380 -311 0 -11 906 -445 1052 -502 78 -32 84 -32 96 -10 9 14 18 12 83
-24 114 -62 974 -482 1159 -565 91 -41 189 -83 219 -93 52 -17 55 -17 68 0 18
26 1 43 -137 133 -149 97 -217 168 -275 286 -63 127 -79 207 -79 396 0 116 6
184 22 270 44 236 132 495 253 749 58 121 71 142 86 136 84 -34 105 -38 121
-22 20 20 7 38 -55 74 l-43 25 31 57 c18 31 36 60 41 66 4 5 8 14 8 19 0 6
-29 -18 -65 -54 l-64 -64 -58 46 c-74 58 -137 150 -165 241 -67 218 13 555
203 859 27 43 48 78 46 78 -1 0 -223 -178 -492 -396z m270 89 c-149 -356 -135
-658 41 -853 l36 -40 -34 14 c-53 23 -700 334 -706 341 -4 3 5 27 18 53 21 39
80 92 349 309 179 145 326 261 328 260 1 -2 -13 -40 -32 -84z m-780 -649 c-60
-149 -86 -264 -92 -404 -4 -96 -2 -140 11 -190 22 -89 66 -175 121 -237 l46
-52 -103 48 c-221 103 -613 293 -620 300 -4 4 12 41 37 83 43 73 55 84 337
312 160 130 293 234 295 232 2 -2 -13 -43 -32 -92z m657 -208 l257 -121 -252
-245 c-139 -135 -282 -274 -319 -309 l-67 -63 -84 55 c-165 110 -237 249 -237
457 0 128 40 299 104 443 l25 57 158 -76 c87 -42 274 -131 415 -198z m202
-293 c-191 -416 -285 -793 -271 -1087 12 -261 105 -459 275 -588 35 -27 61
-48 58 -48 -23 0 -1246 599 -1246 610 0 4 135 139 300 300 294 286 300 292
329 282 43 -15 66 13 38 47 -12 14 22 50 267 289 154 149 282 272 283 272 1 0
-14 -35 -33 -77z m-1577 -65 c-169 -386 -166 -697 8 -896 57 -64 78 -71 -290
105 -399 193 -446 216 -442 226 5 15 701 576 716 576 7 1 11 -5 8 -11z m408
-185 c182 -88 374 -179 428 -203 53 -25 97 -47 97 -50 0 -6 -572 -566 -605
-592 -23 -18 -25 -17 -117 39 -51 32 -115 80 -143 108 -167 170 -187 435 -57
773 27 72 39 92 51 89 9 -3 165 -77 346 -164z"/>
<path d="M3600 3423 c-41 -2 -80 -9 -87 -15 -21 -17 -15 -38 15 -49 76 -31 97
-43 141 -84 99 -93 240 -321 362 -585 l69 -150 0 -320 0 -320 -100 0 -100 0
-366 235 c-201 129 -369 235 -373 235 -10 0 -25 -465 -25 -782 -1 -180 1 -209
16 -224 22 -22 34 -12 59 46 40 92 167 185 424 310 242 118 278 130 379 130
l86 0 0 -770 0 -770 25 0 25 0 0 770 0 770 415 0 415 0 0 -770 0 -770 30 0 30
0 0 770 0 770 410 0 410 0 0 25 0 25 -410 0 -410 0 0 328 0 328 286 418 c157
229 284 419 281 422 -14 14 -758 27 -1362 25 -165 -1 -361 0 -435 2 -74 2
-169 2 -210 0z m844 -75 c21 -7 59 -31 84 -53 l45 -41 -198 -289 c-109 -160
-209 -305 -222 -323 l-25 -33 -98 198 c-115 233 -231 412 -325 502 l-67 64
384 -6 c262 -4 395 -10 422 -19z m1018 4 l56 -7 -251 -367 c-139 -203 -255
-368 -259 -368 -5 0 -8 5 -8 11 0 18 -136 294 -193 390 -30 52 -80 129 -111
172 l-56 78 37 56 38 56 345 -8 c190 -4 370 -10 402 -13z m-832 -9 c0 -5 -6
-15 -13 -24 -11 -15 -15 -15 -42 7 l-30 24 43 0 c23 0 42 -3 42 -7z m36 -206
c70 -98 128 -201 226 -402 l83 -170 3 -333 3 -332 -416 0 -415 0 0 323 0 323
227 332 c125 183 230 332 233 332 3 0 28 -33 56 -73z m-1139 -1058 c172 -111
311 -204 309 -206 -2 -3 -67 -33 -143 -67 -219 -99 -357 -181 -450 -269 l-53
-50 0 200 c0 234 11 593 18 593 3 0 146 -91 319 -201z"/>
</g>
</svg>
