<?xml version="1.0" standalone="yes"?>
<svg xmlns="http://www.w3.org/2000/svg" width="719" height="371">
<!-- <path style="fill:#ffffff; stroke:none;" d="M0 0L0 371L719 371L719 0L0 0z"/>
--><path style="fill:#000000; stroke:none;" d="M130 104C134.32 85.1558 143.729 66.8037 154.721 51C160.441 42.7753 168.94 35.1094 173 26C159.078 31.2691 145.66 41.7318 133 49.5756C101.557 69.0578 69.4818 92.3494 36 108L36 110C76.0551 132.3 110.457 166.352 152 186L152 187C111.598 204.409 75.4895 234.652 37 256L37 258C67.7724 275.132 96.5689 297.6 126 317.003C137.495 324.581 152.796 338.666 167 339C166.094 326.988 148.882 319.814 141.808 311C129.079 295.139 127.461 278.5 129 259C161.093 277.282 190.898 300.697 222 320.692C229.253 325.355 236.478 330.157 244 334.381C246.142 335.584 250.925 338.366 252.914 335.393C255.619 331.348 247.459 325.805 245 323.804C233.102 314.121 222.54 303.997 217.746 289C210.672 266.869 217.984 243.296 227.309 223C230.57 215.901 235.643 209.447 238 202L239 202C239 206.898 236.612 223.033 242.414 225.338C245.532 226.576 247.642 222.94 249.375 221.074C253.603 216.522 259.369 213.359 265 210.862C288.162 200.591 313.44 194.094 338 188.13C376.299 178.828 417.733 183 457 183L662 183L662 177L457 177L391 177C380.057 177 367.788 178.549 357 176.671C317.426 169.783 281.623 142.818 242 136L240 172C233.536 166.349 227.868 160.446 223.454 153C196.814 108.065 238.853 59.9923 262 25C247.628 27.7794 231.434 41.8714 219 49.5756C189.819 67.6562 157.281 83.1841 130 104z"/>
<path style="fill:#ffffff; stroke:none;" d="M136 107L167 129.333L226 168C220.725 159.452 215.211 151.82 212.428 142C202.585 107.263 221.849 75.1205 238 46L204 65.8002L136 107M47 109L83 134L138 170C133.089 162.545 127.588 155.622 124.749 147C112.923 111.077 132.75 78.5258 149 48L114 68.1998L47 109M128 110C127.026 132.677 127.947 153.153 146.015 169.829C149.53 173.074 155.927 180.024 161 180.149C165.34 180.256 170.171 175.79 174 174C170.218 179.019 166.111 190.898 160 191C149.212 210.377 136.111 227.907 131 250L239 185L239 183L128 110M248 144L246.015 169L247.603 177.546L261 172L253.714 187.643L246.179 191.333L245 215C277.904 198.704 310.731 189.935 346 180L346 179L248 144M237 192C205.615 214.801 169.25 235.771 135 254L166 276.333L225 315C206.463 284.962 205.481 257.527 219.862 225C224.194 215.203 235.792 202.199 237 192M149 195L79 237.8L48 258L139 318C134.061 310.502 128.737 303.585 125.699 295C117.719 272.45 124.178 248.227 133.012 227C136.798 217.902 149.018 204.489 149 195z"/>
</svg>
