<?xml version="1.0" standalone="yes"?>
<svg xmlns="http://www.w3.org/2000/svg" width="763" height="371">
<!-- <path style="fill:#ffffff; stroke:none;" d="M0 0L0 371L763 371L763 0L0 0z"/>
--><path style="fill:#000000; stroke:none;" d="M465 74L463 128L395 128C385.399 128 372.11 130.362 363 127.185C330.803 115.956 305.071 87.6745 273 76L271 127L203 127C193.325 127 180.178 129.297 171 126.031C138.974 114.635 113.426 85.2611 81 75C81 131.35 77 187.654 77 244C77 257.292 75.1597 270.823 76.7145 284C77.086 287.149 75.6946 294.815 79.4151 296.338C83.7142 298.098 88.5113 286.581 91.0401 284.039C101.728 273.296 116.495 266.594 130 260.219C143.087 254.042 157.711 246.219 172 243.379C182.025 241.386 193.789 243 204 243L269 243C267.288 256.543 267.995 270.352 268 284C268.001 287.54 267.019 295.66 271.259 297.338C275.447 298.995 279.675 287.694 282.174 285.171C292.974 274.26 308.298 267.253 322 260.781C334.778 254.745 349.988 246.665 364 244.326C374.206 242.621 385.66 244 396 244L460 244C460 256.461 459.061 268.6 459.91 281C460.11 283.904 458.83 291.426 463.093 292.079C465.952 292.516 467.279 288.945 468.359 286.995C471.693 280.977 476.462 276.732 482 272.746C501.603 258.639 525.408 249.199 548 241.054C562.189 235.938 581.046 239 596 239L694 239L694 233L599 233C585.261 233 567.258 236.092 554 232.502C541.035 228.99 527.643 217.833 516 211.15C504.285 204.425 492.735 197.409 481 190.719C477.947 188.979 470.674 186.244 470.971 181.907C471.282 177.357 476.932 172.918 480 170.093C490.809 160.141 505.643 153.387 519 147.576C531.155 142.287 543.963 135.298 557 132.518C571.239 129.481 588.448 132 603 132L697 132L697 126L599 126C585.919 126 567.448 129.358 555 125.301C547.683 122.916 540.641 117.279 534 113.424C511.997 100.655 488.854 82.7335 465 74z"/>
<path style="fill:#ffffff; stroke:none;" d="M470 84L468 172L503 148.259L547 129L515 109.576L470 84M86 85L84 173C109.697 154.916 134.495 141.444 164 130L117 102.15L86 85M278 86L276 174C301.192 154.926 326.58 144.294 355 131L355 130C330.646 115.638 304.533 95.6584 278 86M84 188L145 223.281L169 236.502L201 237L269 237L271 133L206 133C195.342 133 183.52 131.569 173 133.326C159.359 135.604 145.599 143.557 133 149C112.988 157.646 93.5081 167.75 84 188M276 189L333 222.011L360 237.301L392 238L460 238L463 134L397 134C386.374 134 374.476 132.505 364 134.329C348.914 136.955 332.598 145.955 319 152.753C301.801 161.352 282.311 169.343 276 189M467 190L465 279L512 249.258L545 235L467 190M84 195L82 284L83 284C97.9367 262.854 136.665 247.656 161 241L140 226.85L84 195M276 196L274 284L309 260.258L353 241L325 223.989L276 196z"/>
</svg>
