<?xml version="1.0" standalone="yes"?>
<svg xmlns="http://www.w3.org/2000/svg" width="549" height="371">
<path style="fill:#ffffff; stroke:none;" d="M0 0L0 371L549 371L549 0L0 0z"/>
<path style="fill:#000000; stroke:none;" d="M323 28L323 33C307.327 33 291.717 32 276 32C271.987 32 262.607 30.3268 260.086 34.3896C257.789 38.0927 269.356 43.5218 271.536 46.0401C281.964 58.0852 288.789 73.4275 294.846 88C299.57 99.3659 297 114.837 297 127L297 208C297 219.929 300.702 237.78 291.571 246.852C284.695 253.683 265.173 250 256 250L172 250C162.637 250 146.299 253.118 138 248.487C117.64 237.126 101.14 212.465 79 205L78 249L49 250C49.4675 256.004 53.9167 256.455 57.9992 260.109C63.6712 265.185 68.2946 271.46 72.1389 278C80.0861 291.519 78 308.74 78 324L84 324C84 315.311 82.1636 304.156 85.6381 296C92.8951 278.965 123.672 261.43 141 256.634C154.574 252.878 172.924 256 187 256L284 256L281 262C300.025 275.676 318.218 290.601 337 304.626C339.753 306.682 352.945 318.439 355.828 312.667C357.769 308.781 351.232 304.188 348.989 301.961C339.026 292.065 336.322 281.742 332 269C348.795 279.494 364.024 293.359 380 305.116C382.626 307.048 394.082 317.164 396.828 311.667C398.888 307.542 391.352 302.359 389.011 299.985C379.527 290.368 376.279 279.669 373 267C388.473 280.389 405.413 292.599 422 304.576C424.191 306.158 438.849 318.316 439.824 310.848C440.439 306.136 432.862 300.966 430.04 298C423.971 291.62 419.317 283.792 418 275C432.575 285.478 446.391 296.981 461 307.421C464.143 309.667 473.178 318.25 477.377 314.954C479.848 313.014 477.24 309.658 475.851 308C468.581 299.317 468 295.171 468 284C468 249.378 463.903 212.259 473 179L468 183L468 127C468 119.222 466.057 108.334 468.843 101C478.289 76.1391 503.123 56.8752 515 33C489.667 33 464.366 31 439 31C434.805 31 416.095 28.5624 415.06 34.2238C414.437 37.6353 419.873 38.9437 422 40.2238C428.633 44.2156 433.555 50.8178 438 57L385 57C377.351 57 367.356 58.694 360 56.4861C352.369 54.1956 338.027 42.3142 340 34L323 28z"/>
<path style="fill:#ffffff; stroke:none;" d="M430 37C443.138 55.6681 456.084 72.5836 465 94L466 94L504 38L430 37M273 38C282.786 52.0574 294.146 66.1489 299 83L300 83L301 74C306.999 76.4551 309.288 71.683 312.308 67C318.593 57.2524 323 50.7568 323 39L273 38M333 45C327.127 55.6038 328 65.0998 328 77L352 59L333 45M322 62L311 80L322 86L322 62M462 103C459.579 92.8083 451.354 70.0528 442.39 64.0278C438.378 61.3305 429.661 63 425 63L379 63C362.709 63 351.94 64.2213 339 75.3001C335.509 78.2887 329.519 82.8907 329.377 87.9599C329.104 97.6688 350.905 103 358 103L462 103M307 85C305.161 91.2211 301.067 118.953 311.005 119.002C319.43 119.044 331.645 108.844 340 106L340 104L307 85M317 123L317 124L348 141.582L385 142L462 142L462 108L386 108L349 108.529L317 123M339 145C335.104 140.421 314.815 125.119 309.224 129.426C304.443 133.108 299.363 156.752 307.148 158.917C310.576 159.871 314.253 156.438 317 154.873C323.93 150.923 331.453 147.569 339 145M314 163L314 164C324.04 169.344 340.896 186.251 351 177L349 184C364.47 184 380.724 187.74 392 176L389 184C401.6 184 426.831 189.421 433 176L434 176L432 184L462 184L462 148L384 148L346 148.379L314 163M304 205L339 187C334.51 180.005 322.195 175.07 315 171.016C311.843 169.237 308.387 167.678 305.742 171.164C300.528 178.037 304 196.618 304 205M332 247L333 247L380 189C371.524 189 354.579 185.749 347.225 190.179C343.086 192.672 342.081 199.753 340.667 204C336.142 217.587 332.119 232.6 332 247M373 249L374 249L423 189C414.459 189 394.565 185.28 387.419 190.028C383.695 192.502 382.658 200.01 381.333 204C376.561 218.369 373.002 233.818 373 249M429 189L415 247L448.247 208L462 189L429 189M335 194C324.786 199.961 308.88 203.968 304.009 216C301.968 221.043 303 227.656 303 233L326.414 206L335 194M373 207L341.586 245L332.037 258.91L343 269.35L376 294C366.262 274.965 365.563 255.829 368.156 235C369.142 227.08 375.21 214.469 373 207M416 207L373 258L373 259C385.563 270.537 402.407 286.052 418 293L410.121 270.015L404.778 261.536L408.941 253L413.004 223L416 207M332 208L300.424 246L291.033 259.949L302 270.35L335 295C330.802 286.795 329.11 265.361 322 261L329.004 225L332 208M455 208L456 209L455 208M454 210C443.768 221.117 434.305 233.246 424.803 245C421.467 249.128 415.352 254.301 415.242 260C415.13 265.813 420.98 269.289 425 272.424C435.147 280.337 445.46 290.253 457 296C447.621 277.667 446.717 258.123 449.285 238C450.302 230.035 456.292 217.547 454 210M461 210C456.715 239.123 449.224 263.289 461 292L462 292L462 235L461 210M84 216L83 250L114 250L94 276L132 254L117 240.374L84 216M63 255L76 273L77 273L78 255L63 255M83 255L83 279L102 256L83 255M417 274L418 275L417 274z"/>
</svg>
