<?xml version="1.0" standalone="no"?>
<!DOCTYPE svg PUBLIC "-//W3C//DTD SVG 20010904//EN"
 "http://www.w3.org/TR/2001/REC-SVG-20010904/DTD/svg10.dtd">
<svg version="1.0" xmlns="http://www.w3.org/2000/svg"
 width="373.000000pt" height="371.000000pt" viewBox="0 0 373.000000 371.000000"
 preserveAspectRatio="xMidYMid meet">
<metadata>
Created by potrace 1.16, written by Peter Selinger 2001-2019
</metadata>
<g transform="translate(0.000000,371.000000) scale(0.100000,-0.100000)"
fill="#000000" stroke="none">
<path d="M1490 3423 c-36 -2 -75 -5 -87 -8 -33 -8 -30 -43 5 -56 76 -30 118
-58 168 -112 99 -110 222 -316 340 -567 l59 -125 3 -327 3 -328 -363 0 -363 0
-360 231 c-198 127 -365 233 -371 236 -15 6 -23 -143 -30 -592 -6 -379 -3
-425 31 -425 9 0 25 22 39 53 27 61 94 126 196 193 85 55 288 157 424 213 l98
41 349 0 349 0 0 -770 0 -770 25 0 25 0 0 770 0 770 595 0 595 0 0 25 0 25
-595 0 -595 0 0 324 0 323 290 424 291 424 -78 6 c-43 4 -211 10 -373 13 -162
3 -365 8 -450 10 -85 1 -184 1 -220 -1z m763 -62 c136 -5 250 -11 253 -14 5
-5 -300 -457 -454 -675 l-44 -63 -98 198 c-118 238 -215 389 -313 489 l-73 74
241 0 c132 -1 352 -5 488 -9z m-1365 -1286 l312 -200 -33 -14 c-17 -8 -108
-52 -202 -97 -190 -92 -299 -160 -376 -235 l-52 -51 7 299 c7 345 16 505 26
501 4 -2 147 -93 318 -203z"/>
</g>
</svg>
