<?xml version="1.0" standalone="yes"?>
<svg xmlns="http://www.w3.org/2000/svg" width="552" height="371">
<!-- <path style="fill:#ffffff; stroke:none;" d="M0 0L0 371L552 371L552 0L0 0z"/>
--><path style="fill:#000000; stroke:none;" d="M505 21L439 61.4244L370 103C374.73 112.258 389.501 118.668 398 124.333L450 159C458.657 164.772 468.045 172.828 478 176L478 177L301 177L305 170C301.607 171.806 297.007 175.894 293 175.613C289.009 175.333 284.908 170.809 282.004 168.385C271.916 159.967 264.459 147.867 261.668 135C255.213 105.237 271.285 73.1075 287.355 49C293.064 40.4352 302.297 32.5616 306 23L263 48.6003L175 102C179.489 71.6042 202.555 49.6964 218 25C202.972 28.5297 187.226 42.4642 174 50.3997C142.964 69.0211 111.183 87.0279 81 107L81 109L183 176L183 177C166.064 177 151.787 170.33 136 164.692C109.343 155.172 82.9181 144.759 56 136C51.9879 157.611 52.2652 182.034 52.0039 204C51.9536 208.225 50.5946 223.428 55.4298 225.338C59.4267 226.917 62.5989 220.81 65.1042 218.761C71.9057 213.198 80.8406 209.701 89 206.681C109.561 199.073 130.744 193.439 152 188.127C166.125 184.596 181.451 180.536 196 184L196 186L143 217.576L82 255L82 256C112.1 279.871 146.371 300.921 179 321.192C186.952 326.132 194.654 331.682 203 335.956C205.046 337.004 210.204 339.325 211.248 335.681C212.081 332.775 208.816 329.898 206.981 328.171C200.965 322.509 193.782 318.236 188.289 311.996C175.524 297.494 169.457 277.081 174 258C205.772 275.688 235.598 298.964 266 318.997C273.171 323.722 280.429 328.629 288 332.691C290.315 333.932 294.926 336.897 297.338 334.353C300.88 330.618 292.338 324.544 290 322.615C278.042 312.747 266.538 302.52 262.155 287C255.051 261.845 264.273 235.2 276.309 213C281.074 204.21 288.148 196.158 292 187C296.281 188.928 299.779 188.331 299 183L480 183L480 184L438 208.797L369 251L369 252C399.573 275.565 433.414 296.375 466 317.053C473.925 322.083 481.673 327.576 490 331.945C492.038 333.015 497.206 335.321 498.248 331.681C499.468 327.425 492.69 322.992 490 320.804C480.708 313.245 472.049 305.759 466.323 295C452.264 268.581 463.252 237.598 475.756 213C484.144 196.5 492.21 183 512 183L512 177L500 177L506 169C501.847 169.952 497.206 174.414 493 173.993C485.31 173.224 475.681 160.767 471.49 155C448.859 123.859 465.615 83.1127 483.204 54C487.872 46.2737 493.159 38.9456 498.921 32C501.518 28.868 505.863 25.2827 505 21z"/>
<path style="fill:#ffffff; stroke:none;" d="M481 43C449.163 64.0666 414.566 87.8426 380 104L380 105L471 165C453.29 136.561 450.798 110.612 463.604 79C466.917 70.8228 471.045 62.6566 475.427 55C477.5 51.3782 481.366 47.2527 481 43M282 44L180 106L216 131L271 167C266.836 160.313 261.921 154.461 259.065 147C250.126 123.652 255.929 98.1949 265.427 76C269.596 66.2601 280.804 54.162 282 44M193 46L92 107L92 109L183 169C163.011 139.739 162.261 111.586 176.281 79C180.491 69.2137 191.981 56.1753 193 46M174 102L175 103L174 102M173 109C169.313 128.857 173.418 149.767 187.174 164.996C191.139 169.386 196.978 175.488 203 176.721C209.034 177.958 213.547 174.722 219 173L216 177L275 177L275 176L173 109M61 144L58 216C89.3102 195.552 124.909 192.861 159 180L127 167.947L61 144M210 183C210.733 189.573 201.092 195.259 197.344 201C188.207 214.997 179.41 231.522 176 248L283 184L260 183L210 183M380 251L411 273.333L470 312C464.637 303.387 459.244 295.938 456.428 286C446.585 251.264 465.849 219.12 482 190L448 209.8L380 251M281 191L223 226.6L179 253L179 254L270 314C251.891 284.915 249.768 258.037 263.427 226C267.614 216.18 280.668 201.138 281 191M93 255L93 257L183 316C177.864 307.751 172.239 300.498 169.439 291C159.121 256.002 178.707 223.265 195 194L161 213.8L93 255z"/>
</svg>
