<?xml version="1.0" standalone="yes"?>
<svg xmlns="http://www.w3.org/2000/svg" width="615" height="371">
<!-- <path style="fill:#ffffff; stroke:none;" d="M0 0L0 371L615 371L615 0L0 0z"/>
--><path style="fill:#000000; stroke:none;" d="M472 28C428.512 57.3375 387.401 89.8099 344 119.344C333.575 126.438 323.092 133.566 313 141.127C310.324 143.131 303.622 146.646 304.752 150.852C305.815 154.812 312.14 152.558 315 152.901C323.318 153.9 331.883 158.856 339 163.012C361.18 175.962 370.452 200.394 386 220L366 230.646L330 232L275 233C280.245 244.247 292.701 252.849 300.892 262C317.095 280.101 332.689 298.689 350 316C355.932 321.932 361.641 328.334 368 333.811C369.896 335.444 373.682 338.791 376.392 336.917C378.669 335.343 377.21 331.992 376.539 330C374.547 324.082 375.876 318.828 377.746 313C383.912 293.784 395.832 270.26 415 262C418.345 267.845 421.372 262.73 420 258L469.005 229.4L552 180L550 175L539 180L521.532 152L520 141C510.326 142.918 503.008 125.012 498.333 118C491.154 107.231 477.535 93.5941 474.419 81C470.288 64.3036 478.81 44.1929 472 28M154 182C148.612 182 142.226 182.933 137 181.501C130.842 179.813 125.337 174.766 120 171.424C101.952 160.123 81.4243 141.01 61 135C61 160.992 59 186.946 59 213C59 217.239 56.5193 235.941 62.1736 236.94C65.6432 237.553 66.9142 232.176 68.2238 230C71.9521 223.806 78.1233 219.338 84 215.344C104.416 201.469 129.069 188 154 188L154 342L160 342L160 188L244 188L244 342L250 342L250 188L332 188L332 182L250 182L250 139L250.702 118L265 96L308 32C253.711 32 199.279 30 145 30L107 30C104.03 30.0002 95.6014 28.8292 94.9213 33.1844C94.2726 37.3384 105.269 40.6607 107.996 42.8194C118.592 51.2074 126.616 64.3162 133.138 76C140.375 88.9628 150.493 104.341 153.61 119C157.715 138.305 154 162.242 154 182z"/>
<path style="fill:#ffffff; stroke:none;" d="M111 35L134.189 66L158 111L202 47C195.307 37.9341 187.143 37.9113 177 36.7145C155.621 34.192 132.535 35 111 35M246 110L248 110L297 38C288.952 35.6211 279.357 37.0956 271 36.9962C257.365 36.834 243.703 36 230 36C222.761 36 212.092 34.9055 211.005 45C210.393 50.6929 219.321 59.3607 222.308 64C231.606 78.4434 239.411 94.1532 246 110M201 37L201 38L206 41L207 38L201 37M467 39L434 63L469 79C468.909 68.0468 471.166 48.928 467 39M205 52L174.333 97L160.702 118L160 139L160 182L244 182C244 162.417 247.459 139.185 243.621 120C241.012 106.955 232.22 93.7561 226.244 82C221.544 72.7553 214.583 56.6827 205 52M398 94L429 109L428 69C419.124 72.3642 398.769 83.8817 398 94M434 69C434 82.8635 431.223 100.706 435.703 114C439.305 124.688 449.728 135.592 456 145C459.388 150.082 466.566 166.101 473.09 166.978C476.411 167.425 480.309 163.986 483 162.424C491.715 157.367 500.406 152.261 509 147C505.917 137.326 497.94 128.41 492.333 120C485.398 109.598 478.687 96.0446 469.674 87.3789C460.453 78.5124 445.96 72.8981 434 69M358 118L393 134L392 98C380.257 98.5443 366.216 110.066 358 118M398 100L399.702 139L411.975 158L434 191L467 172C450.404 142.19 431.524 111.411 398 100M350 124L316 146L316 147L352 163C351.993 152.328 354.062 133.679 350 124M357 124C357 137.015 354.324 153.446 357.939 166C363.026 183.665 380.762 201.827 391 217L429 195C425.743 186.407 419.086 178.628 414 171C398.995 148.495 384.815 130.438 357 124M66 145L65 222C85.4963 207.985 104.586 195.084 128 186L128 184C109.009 171.188 87.3969 153.11 66 145M476 173L491.001 197L498.04 203.748L509 198.4L535 183L520 161L512.816 152.878L502 157.719L476 173M438 196L459 228L492 209L471 177L438 196M536 182L539 181L536 182M432 199L395 221L415 253C428.014 250.015 442.868 238.366 454 231L432 199M389 225C372.617 235.029 359.58 246.63 354 266C374.485 266 392.821 266.675 411 257L389 225M288 239C293.452 246.74 305.895 263.248 315 266.382C319.429 267.907 326.269 266 331 266C335.157 266 342.8 267.46 346.363 264.972C352.972 260.358 359.155 244.223 363 237L288 239M350 272C348.318 278.163 345.267 284.475 345.345 291C345.515 305.222 358.192 317.387 369 325L392 271L350 272M320 272L340 292L344 272L320 272z"/>
</svg>
