<?xml version="1.0" standalone="no"?>
<!DOCTYPE svg PUBLIC "-//W3C//DTD SVG 20010904//EN"
 "http://www.w3.org/TR/2001/REC-SVG-20010904/DTD/svg10.dtd">
<svg version="1.0" xmlns="http://www.w3.org/2000/svg"
 width="570.000000pt" height="371.000000pt" viewBox="0 0 570.000000 371.000000"
 preserveAspectRatio="xMidYMid meet">
<metadata>
Created by potrace 1.16, written by Peter Selinger 2001-2019
</metadata>
<g transform="translate(0.000000,371.000000) scale(0.100000,-0.100000)"
fill="#000000" stroke="none">
<path d="M2416 3224 c-42 -115 -114 -305 -159 -421 l-82 -213 -615 0 -615 0
-239 220 c-131 121 -242 220 -246 220 -13 0 -26 -862 -14 -908 11 -40 46 -24
61 26 25 87 122 187 293 302 148 99 71 90 750 90 330 0 600 -4 600 -9 0 -4
-17 -55 -39 -112 -65 -174 -105 -305 -98 -323 10 -26 40 -19 69 18 67 84 297
144 673 176 l120 10 712 -182 c392 -100 711 -183 709 -185 -2 -2 -300 -75
-662 -162 l-658 -159 -421 103 c-231 57 -421 102 -422 101 -2 -2 32 -115 118
-391 33 -104 62 -198 65 -207 5 -17 -14 -18 -300 -18 l-306 0 0 356 0 355 166
210 c91 116 163 213 161 216 -3 2 -263 7 -579 10 -469 3 -576 2 -591 -9 -25
-18 -13 -44 24 -52 61 -12 154 -123 248 -296 l41 -75 0 -357 0 -358 -90 0 -90
0 -263 219 -262 219 -6 -112 c-10 -184 -10 -800 1 -816 14 -22 42 -1 53 41 23
89 171 219 392 343 99 55 101 56 182 56 l82 0 3 -148 c3 -144 3 -147 26 -150
22 -3 22 -3 22 147 l0 151 215 0 214 0 3 -148 c3 -144 3 -147 26 -150 22 -3
22 -3 22 147 l0 151 314 0 314 0 31 -93 c16 -50 55 -181 86 -291 91 -323 103
-353 135 -336 12 7 19 25 22 64 9 111 122 278 328 488 l125 127 1130 277 c622
152 1134 280 1138 284 13 11 -14 58 -37 64 -11 3 -183 47 -381 97 -198 51
-363 95 -367 98 -5 4 173 50 393 103 221 53 403 99 406 102 13 12 -9 44 -30
43 -12 -1 -531 131 -1154 293 l-1132 294 -253 315 c-139 173 -260 323 -268
334 -15 18 -21 5 -94 -189z m323 -178 l221 -275 -43 -5 c-23 -3 -104 -12 -180
-21 -76 -9 -144 -18 -150 -20 -11 -3 -197 210 -206 236 -4 13 121 359 130 359
4 0 106 -123 228 -274z m-2045 -293 c99 -92 185 -170 189 -174 5 -4 -24 -28
-65 -54 -109 -70 -230 -168 -283 -227 l-47 -53 6 175 c3 96 6 248 6 338 0 89
3 162 6 162 3 0 88 -75 188 -167z m1751 47 l76 -89 -28 -7 c-54 -11 -158 -47
-197 -66 l-39 -20 7 26 c17 69 89 255 97 251 4 -3 42 -46 84 -95z m1632 -360
c593 -154 1086 -284 1096 -288 12 -5 -117 -40 -370 -100 l-388 -93 -745 191
c-410 105 -753 193 -762 196 -15 4 -259 283 -281 320 -5 8 19 16 76 24 73 10
215 25 274 29 12 0 507 -125 1100 -279z m-1387 68 c104 -123 126 -154 112
-159 -9 -3 -60 -9 -112 -13 -202 -15 -459 -70 -553 -118 -22 -11 -41 -17 -43
-15 -9 9 101 297 113 297 7 0 22 13 34 29 30 41 120 86 225 115 49 13 90 22
92 21 2 -2 61 -72 132 -157z m-1287 -235 c15 -7 27 -16 27 -19 0 -3 -49 -68
-109 -145 l-110 -139 -27 47 c-52 93 -117 187 -163 236 l-46 49 200 -7 c139
-5 208 -12 228 -22z m534 13 c1 -1 -54 -72 -122 -159 l-124 -157 -27 47 c-38
69 -132 209 -149 223 -12 10 -12 15 1 35 l15 24 202 -6 c111 -3 203 -6 204 -7z
m-406 -151 c26 -37 65 -103 88 -145 l41 -77 0 -357 0 -356 -215 0 -215 0 0
356 0 355 118 150 c64 82 121 147 127 146 5 -2 31 -34 56 -72z m3311 -337
c221 -56 397 -103 392 -105 -5 -1 -504 -124 -1109 -272 l-1100 -270 -169 48
c-94 26 -171 52 -173 58 -4 10 185 192 281 271 46 38 61 43 260 91 116 28 423
102 681 165 259 63 485 115 503 115 19 1 214 -45 434 -101z m-1949 -219 l38
-10 -53 -47 c-29 -25 -101 -93 -159 -150 l-107 -103 -133 36 c-74 20 -139 42
-146 48 -10 11 -123 361 -123 384 0 8 467 -100 683 -158z m-2135 -244 l192
-160 -36 -20 c-103 -57 -283 -184 -340 -240 l-64 -63 0 203 c0 111 3 263 7
338 l6 136 22 -17 c11 -9 107 -89 213 -177z m1724 -83 l97 -27 -41 -54 c-22
-29 -53 -78 -68 -108 -22 -42 -29 -51 -34 -37 -10 36 -66 244 -66 249 0 8 9 6
112 -23z m338 -96 c80 -23 146 -45 146 -51 1 -5 -46 -62 -103 -126 -134 -149
-216 -257 -256 -341 -18 -37 -35 -67 -38 -67 -12 -1 -97 314 -88 324 5 5 9 29
9 52 0 52 24 103 92 196 42 57 54 67 72 61 11 -4 86 -26 166 -48z"/>
</g>
</svg>
