<?xml version="1.0" standalone="no"?>
<!DOCTYPE svg PUBLIC "-//W3C//DTD SVG 20010904//EN"
 "http://www.w3.org/TR/2001/REC-SVG-20010904/DTD/svg10.dtd">
<svg version="1.0" xmlns="http://www.w3.org/2000/svg"
 width="506.000000pt" height="371.000000pt" viewBox="0 0 506.000000 371.000000"
 preserveAspectRatio="xMidYMid meet">
<metadata>
Created by potrace 1.16, written by Peter Selinger 2001-2019
</metadata>
<g transform="translate(0.000000,371.000000) scale(0.100000,-0.100000)"
fill="#000000" stroke="none">
<path d="M769 3263 c-79 -125 -194 -308 -255 -408 l-111 -180 -121 -5 c-66 -3
-124 -8 -127 -12 -14 -14 4 -36 48 -57 43 -21 97 -77 97 -100 0 -6 -10 -30
-21 -55 -36 -72 -6 -100 53 -50 l31 25 25 -43 c13 -24 37 -70 53 -103 l29 -60
-1 -530 c-1 -291 1 -550 5 -575 3 -25 13 -153 21 -285 17 -270 39 -479 55
-519 7 -20 16 -27 32 -24 16 2 25 16 38 55 9 29 37 78 61 109 114 149 471 407
920 667 l115 67 1536 360 c845 198 1544 360 1552 360 11 0 16 9 16 28 l0 27
-1532 369 -1532 369 -414 396 c-228 218 -418 397 -421 399 -4 1 -72 -100 -152
-225z m539 -213 c233 -222 367 -357 359 -361 -6 -3 -79 -9 -162 -13 -171 -8
-409 -29 -568 -51 -136 -19 -130 -19 -112 8 l15 24 -127 6 c-71 4 -156 7 -190
7 l-63 0 81 133 c168 273 383 607 389 605 4 -2 174 -163 378 -358z m1929 -767
c793 -191 1439 -351 1435 -354 -10 -9 -2962 -699 -2989 -699 -18 0 -917 231
-1111 286 l-52 15 0 343 0 344 120 164 120 165 112 16 c245 37 788 80 888 71
19 -2 684 -160 1477 -351z m-2883 306 l-16 -31 -29 28 c-16 15 -29 29 -29 31
0 2 20 3 45 3 l46 0 -17 -31z m301 22 c50 -4 83 -10 75 -13 -8 -4 -64 -19
-125 -33 -60 -15 -136 -38 -167 -50 -32 -13 -60 -19 -63 -15 -6 9 14 53 43 98
13 19 22 22 81 21 36 -1 107 -4 156 -8z m14 -101 c-66 -94 -165 -229 -169
-230 -4 0 -38 62 -88 161 -4 9 92 46 178 68 95 25 95 25 79 1z m947 -1323 c2
-1 -61 -41 -139 -87 -184 -109 -413 -261 -557 -369 -128 -96 -287 -248 -316
-301 l-18 -35 -7 46 c-18 120 -59 765 -59 935 l0 101 547 -144 c301 -79 548
-145 549 -146z"/>
</g>
</svg>
