<?xml version="1.0" standalone="no"?>
<!DOCTYPE svg PUBLIC "-//W3C//DTD SVG 20010904//EN"
 "http://www.w3.org/TR/2001/REC-SVG-20010904/DTD/svg10.dtd">
<svg version="1.0" xmlns="http://www.w3.org/2000/svg"
 width="609.000000pt" height="371.000000pt" viewBox="0 0 609.000000 371.000000"
 preserveAspectRatio="xMidYMid meet">
<metadata>
Created by potrace 1.16, written by Peter Selinger 2001-2019
</metadata>
<g transform="translate(0.000000,371.000000) scale(0.100000,-0.100000)"
fill="#000000" stroke="none">
<path d="M4553 3331 c-38 -17 -29 -49 16 -61 90 -24 219 -185 344 -430 84
-166 159 -345 155 -373 -2 -16 -121 -96 -508 -342 l-505 -320 -192 3 -193 3 0
307 0 307 206 320 205 320 -68 7 c-68 7 -776 14 -823 8 -14 -2 -189 0 -390 5
-375 7 -420 4 -420 -30 0 -9 19 -24 44 -34 96 -42 205 -202 331 -491 l45 -103
0 -308 0 -309 -320 0 -320 0 -330 247 -330 248 0 78 c0 52 5 88 16 109 36 69
173 292 267 432 l100 150 -22 17 -22 18 51 94 50 94 -62 6 c-96 10 -830 21
-861 13 -44 -11 -35 -41 22 -72 32 -17 66 -48 95 -88 49 -64 164 -291 212
-414 l28 -73 -40 -39 c-21 -21 -280 -262 -574 -535 -294 -274 -535 -502 -535
-508 0 -21 882 -643 1035 -729 64 -37 85 -41 104 -23 22 23 10 42 -89 145
-132 137 -161 219 -152 430 9 215 101 510 253 810 l63 125 -7 -290 c-11 -473
-9 -832 5 -847 10 -9 13 -112 13 -446 l0 -433 23 3 22 3 5 480 c5 472 5 481
27 510 74 105 290 255 547 381 l109 54 308 0 309 0 0 -630 0 -630 30 0 30 0 0
630 0 630 380 0 380 0 0 -630 0 -630 25 0 25 0 0 630 0 630 157 0 c134 0 154
-2 138 -13 -11 -7 -73 -47 -138 -87 l-118 -74 23 -18 c47 -36 919 -619 1063
-710 226 -143 265 -159 265 -108 0 13 -30 45 -87 92 -187 155 -265 265 -298
423 -58 275 58 641 324 1025 l66 95 5 -1025 5 -1025 25 0 25 0 3 1064 c2 996
3 1066 20 1084 16 19 16 20 0 14 -10 -4 -18 -4 -18 -1 0 3 115 184 256 402
141 218 258 401 261 407 5 15 -180 23 -687 30 -244 3 -393 2 -407 -4z m655
-52 c191 -6 348 -12 350 -14 3 -2 -433 -681 -449 -699 -5 -6 -20 17 -36 55
-55 129 -183 376 -241 465 -33 49 -86 116 -116 147 l-56 57 101 0 c55 0 257
-5 447 -11z m-3560 -18 c106 -5 195 -11 198 -14 3 -3 -26 -64 -65 -135 -70
-127 -74 -133 -217 -268 -114 -108 -147 -135 -155 -123 -5 8 -9 17 -9 22 0 17
-112 258 -155 336 -26 46 -67 107 -91 137 l-44 54 172 0 c95 -1 260 -5 366 -9z
m1455 -237 c37 -4 67 -9 65 -13 -11 -26 -334 -519 -337 -515 -3 3 -30 60 -61
127 -69 151 -138 269 -209 354 l-53 65 263 -6 c145 -4 295 -9 332 -12z m843
-3 l42 -6 -107 -165 c-58 -91 -135 -211 -170 -265 -61 -96 -64 -99 -74 -75 -6
14 -41 88 -78 165 -77 160 -129 245 -196 316 l-47 51 294 -8 c162 -3 314 -9
336 -13z m-643 -41 c73 -65 187 -259 283 -483 l34 -79 0 -304 0 -304 -380 0
-380 0 0 313 0 312 188 292 c103 161 192 293 198 293 6 0 32 -18 57 -40z
m-1734 -257 c-29 -54 -63 -115 -75 -136 l-22 -39 -17 53 -18 53 88 83 c48 46
89 83 92 83 2 0 -19 -44 -48 -97z m-148 -181 l22 -68 -96 -194 c-193 -395
-277 -671 -277 -914 0 -168 37 -278 128 -385 l47 -55 -60 38 c-128 82 -301
203 -822 576 -34 25 -61 49 -60 54 4 11 1080 1015 1089 1016 4 0 17 -31 29
-68z m3503 -269 c-56 -85 -133 -219 -170 -298 -194 -416 -192 -758 6 -1003
l50 -62 -42 26 c-42 26 -740 492 -885 590 -40 27 -71 53 -70 57 3 9 1107 715
1121 716 4 1 0 -11 -10 -26z m-3108 -270 l290 -219 -130 -69 c-174 -93 -322
-192 -407 -272 l-69 -65 0 432 c0 345 3 430 13 422 6 -5 143 -108 303 -229z"/>
</g>
</svg>
