<?xml version="1.0" standalone="yes"?>
<svg xmlns="http://www.w3.org/2000/svg" width="400" height="371">
<path style="fill:#ffffff; stroke:none;" d="M0 0L0 371L400 371L400 0L0 0z"/>
<path style="fill:#000000; stroke:none;" d="M310 83L191 83L156 83L140 82.3966L125 71L125 70L130 63C111.825 63 104.862 48.7551 91 39L90 62L51 62C47.7451 62 39.288 60.5544 37.662 64.3896C36.0949 68.0861 48.5506 73.614 50.9961 76.0154C63.1157 87.9164 73.3194 105.25 79.6481 121C84.4953 133.063 81 152.078 81 165L81 265C72.2942 259.239 61.308 249.993 51 248C51 268.838 52.1349 291.357 49.4244 312C48.739 317.22 47.1571 333.413 51.588 337.149C55.0808 340.094 63.1969 326.436 66.0147 324.095C80.8434 311.773 100.862 302.934 119 296.696C137.607 290.296 164.388 295 184 295L325 295L325 333L331 333L331 188C331 166.847 326.766 140.611 331.394 120C333.031 112.706 338.919 105.457 342.576 99C350.296 85.3646 357.798 71.6012 365.579 58C369.34 51.4261 374.641 44.5281 376 37C351.3 37 326.709 35 302 35C297.478 35 280.38 32.5147 278.752 38.2593C277.584 42.3756 287.429 46.4896 289.826 49.0401C298.922 58.7153 303.86 71.4827 310 83z"/>
<path style="fill:#ffffff; stroke:none;" d="M291 41L291 42C311.15 57.421 317.739 89.0582 328 111L348.424 76L366 43L291 41M96 52L96 62L108 63L108 62L96 52M51 67L51 68C64.7358 77.6821 77.9436 99.0214 83 115C94.8537 105.817 90 81.4335 90 68L51 67M96 68L95 100L96 100L117 72C112.007 66.897 102.696 68 96 68M121 75C113.682 86.7507 95.9502 100.842 95 115L96 115C105.161 102.976 118.712 93.0739 132 86L121 75M89 119L88 119C85.0961 131.197 87 145.494 87 158L87 232C87 240.706 83.0629 262.578 88.6034 269.482C91.7782 273.439 97.7568 275.795 102 278.424C107.873 282.063 114.279 287.658 121 289.501C132.509 292.656 148.073 290 160 290L325 290L325 142C325 127.183 323.749 115.875 318.2 102C316.656 98.1394 315.3 91.409 311.606 89.0278C308.387 86.9521 302.656 88 299 88L268 88L180 88C167.6 88 150.89 85.0672 139 88.6489C126.341 92.4623 111.701 105.272 103.185 115C100.846 117.672 96.3272 130.515 93.0039 130.515C89.1508 130.515 89.6247 121.624 89 119z"/>
<path style="fill:#000000; stroke:none;" d="M315 114C300.487 130.625 286.532 147.876 272.611 165C266.203 172.883 259.349 184.675 250.91 190.397C245.088 194.344 232.802 192 226 192L175 192C167.822 192 157.752 193.796 151 191.146C129.215 182.594 113.752 155.901 91 150C91 172.359 90 194.61 90 217C90 221.558 87.6529 235.957 91.588 238.953C93.3295 240.279 95.3144 239.284 96.3657 237.681C102.101 228.936 107.074 222.819 116 216.746C126.341 209.711 140.652 200.06 153 197.39C168.633 194.011 187.998 197 204 197C215.593 197 233.078 193.703 244 197.6C255.823 201.817 267.972 215.534 278 223.13C287.635 230.428 297.154 237.839 307 244.859C309.921 246.942 314.931 251.676 318.851 251.003C327.407 249.534 311.793 235.851 310.093 234C289.667 211.747 296.016 173.091 304.344 147C306.935 138.884 317.178 121.937 315 114z"/>
<path style="fill:#ffffff; stroke:none;" d="M298 144L269.92 178L255 198L299 231C294.608 214.942 289.54 201.111 291.17 184C292.331 171.803 299.476 155.734 298 144M97 161L95 226C110.322 214.008 124.76 202.594 143 195C133.298 182.352 111.276 168.102 97 161M57 258L55 325L79 308.258L113 292L57 258z"/>
</svg>
