<?xml version="1.0" standalone="yes"?>
<svg xmlns="http://www.w3.org/2000/svg" width="652" height="371">
<path style="fill:#ffffff; stroke:none;" d="M0 0L0 371L652 371L652 0L0 0z"/>
<path style="fill:#000000; stroke:none;" d="M219 65C213.955 69.4083 216 87.4059 216 94C216 120.002 213 145.979 213 172L154 172C145.561 172 134.004 174.033 126 171.182C98.9285 161.54 78.6464 133.135 51 125C51 150.66 49 176.281 49 202C49 206.824 46.3773 224.151 51.4151 226.673C55.5425 228.739 58.4674 219.31 60.3403 217.001C68.0409 207.508 80.2222 200.675 91 195.248C102.807 189.302 115.911 180.996 129 178.379C137.793 176.621 148.047 178 157 178L214 178L213 227L186 205C183.672 234.502 184 264.367 184 294C184 299.656 180.961 319.313 185.738 322.953C189.765 326.023 196.79 308.932 199.3 306C212.237 290.89 235.062 274.571 254 267.966C260.584 265.67 269.105 267 276 267L322 267L476 267L476 261L428 261L428 157C428 143.764 424.142 123.419 428.738 111C436.396 90.3091 461.989 77.7132 470 57C446.96 57 424.059 56 401 56C397.654 56 379.978 53.9453 380.921 59.831C381.441 63.0705 391.444 66.7377 393.999 69.0934C402.456 76.8904 410.429 87.4059 415 98L325 98C335.361 86.7428 351.471 71.2756 357 57C329.642 57 302.396 55.5027 275 56.0046C266.753 56.1558 259.668 59.5041 251 58.9105C244.455 58.4622 216.498 54.0072 219 65z"/>
<path style="fill:#ffffff; stroke:none;" d="M345 63C334.685 62.9932 315.556 57.7031 306.289 63.0278C293.898 70.1485 297.7 78.5633 303.575 88C305.655 91.3411 307.646 97.2774 312.105 97.8326C317.575 98.5135 320.786 93.7237 323.803 90C330.883 81.2636 339.372 72.7468 345 63M397 62L415.947 87L425 98L425 103C437.068 94.1165 450.527 75.9902 458 63L397 62M233 64L233 65L260 89.2006L271.961 93.7593L288 76C276.32 59.4206 251.252 64 233 64M220 65L220 66L234 74C230.392 69.1126 225.878 66.4091 220 65M287 65L292 71L296 65L287 65M222 74C222 85.6032 219.323 99.6823 221.148 110.96C221.74 114.613 225.24 117.715 229 117.933C237.264 118.412 247.896 108.335 256 106C248.997 89.7491 237.732 81.3452 222 74M291 81L278 98L302 98L291 81M257 95L261 103L267 101L267 100L257 95M309 145C309 135.618 313.012 113.899 306.991 106.318C303.957 102.499 296.304 104 292 104C284.696 104 274.25 102.072 268.863 108.225C262.07 115.982 263.418 140.84 274 144.301C284.024 147.579 298.481 145 309 145M315 145L423 145C423 135.453 427.182 112.547 419.362 105.603C414.957 101.692 402.586 104 397 104L340 104C333.915 104 323.052 101.898 318.228 106.318C310.893 113.039 315 135.702 315 145M236 122L260 136L259 111L236 122M221 121L221 125L224 122L221 121M229.005 127.302C219.081 130.385 219.046 147.856 219.005 155.999C218.98 160.936 220.751 166.452 227 165.243C235.234 163.65 244.186 156.517 252 153.15C254.64 152.013 258.845 150.963 259.663 147.79C261.628 140.16 242.215 133.015 237 129.99C234.682 128.645 231.854 126.417 229.005 127.302z"/>
<path style="fill:#000000; stroke:none;" d="M432 129C432 154.69 430 180.296 430 206C430 211.263 427.333 227.724 432.498 230.914C436.83 233.588 439.587 224.325 441.394 222C448.996 212.213 461.211 205.474 472 199.781C483.164 193.89 496.543 185.871 509 183.379C518.098 181.559 528.734 183 538 183L597 183L597 177L536 177C527.524 177 516.085 178.993 508 176.298C480.322 167.072 459.387 139.366 432 129z"/>
<path style="fill:#ffffff; stroke:none;" d="M56 135L55 213L56 213C69.0215 194.896 97.8224 183.828 118 176L118 174C99.0085 161.188 77.3969 143.11 56 135M438 140C433.46 164.457 436 192.125 436 217C456.995 202.385 476.82 190.971 500 180L500 179C481.056 166.23 459.32 148.081 438 140M309 194L309 150C297.612 150 279.282 146.537 269.148 152.558C265.937 154.465 266.024 157.643 266.001 161C265.952 168.088 262.66 187.265 269.148 191.633C278.338 197.819 298.268 194 309 194M315 150L315 194L423 194L423 150L315 150M259 156L233 169L233 171L260 186L259 156M219 221L260 200C259.866 188.679 244.719 184.124 236 179.15C232.443 177.122 227.418 173.042 223.533 176.477C219.403 180.128 220.023 186.056 219.999 191C219.95 200.983 219 210.959 219 221M266 203L266 261L309 261L309 200L266 203M315 200L315 261L423 261L423 200L315 200M259 206C247.795 211.303 227.217 216.904 221.476 229.011C218.833 234.584 225.331 238.188 229 241.247C237.966 248.722 247.7 260.889 260 261L260 224L259 206M191 217L189 308L190 308C203.231 289.598 226.114 273.742 247 265L225 245.08L191 217M213 227L214 228L213 227z"/>
</svg>
