<?xml version="1.0" standalone="yes"?>
<svg xmlns="http://www.w3.org/2000/svg" width="530" height="371">
<path style="fill:#ffffff; stroke:none;" d="M0 0L0 371L530 371L530 0L0 0z"/>
<path style="fill:#000000; stroke:none;" d="M404 59C368.525 68.6831 333.423 84.4419 299 97.4236C286.582 102.107 268.253 112.943 255 112.943C236.829 112.943 218.01 97.0993 200 94L209 140L132 140C122.472 140 107.883 142.738 99 139.142C80.2118 131.536 70.3406 105.575 51 99C51 137.041 50 175.054 50 213C50 222 49.9533 231.001 50.0008 240C50.0144 242.575 49.4834 248.045 53.1196 248.534C56.1974 248.948 57.0194 245.095 57.9259 242.995C60.6859 236.602 65.9687 231.753 71 227.09C85.7917 213.383 99.2106 207 119 207L119 247L125 247L125 207L177 207L177 252L183 252L183 207L216 207L216 202L183 202C183 197.556 181.884 191.335 183.603 187.174C187.168 178.544 206.965 167.578 215 163C215.202 165.474 217.399 177.103 221.977 171.392C223.978 168.896 224.005 163.137 225 160L226 160C226.89 170.896 230.496 182.466 233.424 193C234.509 196.902 237.954 203.492 236.16 207.424C233.569 213.106 227.171 218.358 223.05 223C214.892 232.19 206.953 241.565 199.08 251C196.404 254.207 186.518 262.889 189.137 267.664C191.527 272.023 203.438 263.746 207 262.746C225.143 257.653 246.396 257.566 265 259.093C281.846 260.477 301.626 274.292 317 281.139C357.868 299.339 398.296 319.82 440 336C444.005 330.242 443 323.752 443 317L443 279L443 179C443 163.216 440.781 145.588 443.214 130C444.541 121.498 452.259 112.327 456.603 105C468.786 84.4538 487.799 61.7488 495 39C467.005 39 439.065 37 411 37C406.578 37 386.063 34.403 385.06 40.1844C384.498 43.4234 388.852 44.8042 391.001 45.9807C396.585 49.0381 400.536 53.7629 404 59z"/>
<path style="fill:#ffffff; stroke:none;" d="M398 42L422.742 78L441 119L468 74L485 44L398 42M236 145C249.261 146.958 262.556 156.828 276 156.642C285.086 156.516 295.298 150.647 304 148.141C329.866 140.693 355.47 131.843 381 123.333C392.291 119.57 403.66 115.967 415 112.344C420.681 110.529 425.335 108.254 429 114L372 132L372 133L406 134C397.719 143.509 382.134 157.877 378.514 170C374.491 183.473 378 202.93 378 217C378 224.321 374.825 241.4 379.028 247.501C381.789 251.509 390.639 253.084 395 254.797C409.214 260.381 423.479 266.267 438 271L438 181C438 164.291 440.426 145.477 437.674 129C436.308 120.82 431.888 112.653 428.799 105C424.143 93.4614 418.486 75.0868 409.366 66.3611C406.056 63.1948 400.587 66.4113 397 67.6921C386.288 71.5176 375.654 75.5913 365 79.5756C334.062 91.1458 302.878 102.076 272 113.808C258.038 119.113 240.376 129.255 236 145M208 103L219 157L220 157C223.096 150.84 222.696 146.556 221 140C233.084 142.72 243.436 127.319 250 118L208 103M57 111C57 126.036 49.7685 154.902 60 167L61 167C69.9658 158.059 80.4806 149.449 92 144C86.0852 132.317 67.699 118.537 57 111M359 138L375 163L376 163L394 139L359 138M258 224C267.297 209.296 274.074 184.964 278 168L280 168L298.781 205L308.39 221.006L328 229.189L372 246L372 191C372 180.571 373.419 170.308 367.988 161C364.132 154.39 359.232 144.475 352 141.042C343.583 137.047 322.487 148.198 314 150.999C292.113 158.223 275.336 162.552 259.09 180C255.133 184.249 247.825 190.925 247.092 197C246.213 204.276 254.445 217.753 258 224M65 172L99 201.258L119 202C119 197.108 120.107 190.638 118.397 186C113.917 173.852 96.1614 163.572 84 162C85.6326 151.999 107.183 156 115 156C147.64 156 180.328 157 213 157L211 146L135 146C124.046 146 109.517 143.493 99 146.649C88.49 149.802 69.808 162.132 65 172M231 149C228.018 162.722 237.196 181.414 240 195L241 195L269 161L231 149M103 162L103 163L122 180L123 180L146 163C134.774 158.29 115.219 162 103 162M161 162L161 163C167.036 166.776 173.297 176.944 180 178.542C185.905 179.95 200.416 166.339 204 162L161 162M125 202L177 202C177 188.306 171.63 167.626 154 165.927C149.614 165.505 145.231 170.213 142 172.626C128.798 182.484 125 185.394 125 202M60 176C52.3724 192.341 56 214.335 56 232L92 205L92 203L60 176M279 182L262 234L301 222C295.853 209.637 288.536 191.434 279 182M244 208L202 258C221.996 252.379 242.435 253 263 253L260 245C258.328 246.356 254.963 249.581 253.12 246.623C250.943 243.129 255.139 237.012 254.631 233C253.656 225.294 248.307 214.41 244 208M265 240C270.19 258.977 291.715 262.852 308 270.309C333.91 282.172 360.09 293.445 386 305.309C402.74 312.974 420.233 323.14 438 328L438 277C416.521 271.137 394.52 255.062 372 255C369.454 247.679 352.782 244.816 346 242.189C333.831 237.475 319.012 228.676 306 227.415C293.393 226.193 275.408 233.431 265 240z"/>
</svg>
