<?xml version="1.0" standalone="yes"?>
<svg xmlns="http://www.w3.org/2000/svg" width="624" height="371">
<path style="fill:#ffffff; stroke:none;" d="M0 0L0 371L624 371L624 0L0 0z"/>
<path style="fill:#000000; stroke:none;" d="M319 25L319 29C299.01 28.9868 279.034 27 259 27C254.029 27 241.379 24.8503 238.047 29.5486C235.056 33.7666 245.544 38.5373 247.826 41.0154C258.193 52.2701 264.195 67.9862 269.8 82C274.486 93.7139 280.59 106.493 282.674 119C284.899 132.345 283 147.473 283 161L283 246L279 244C279 267.995 277 291.965 277 316C277 323.761 274.51 336.725 277.742 343.851C279.924 348.66 283.402 345.583 284 342L288 342C288.4 329.661 304.469 321.464 314 315.861C324.689 309.577 337.767 301.031 350 298.39C368.351 294.429 391.207 298 410 298L410 342L416 342L416 298L527 298L527 342L533 342L533 190L533 143L533.419 120L545.333 101L575.424 57L591 32C559.64 32 528.396 30 497 30C492.008 30 469.418 27.1179 467.832 33.2238C466.752 37.3824 474.586 38.6451 477 40.1443C485.701 45.548 492.336 54.6732 498 63L443 63L458 30C434.98 30 412.067 28 389 28C384.655 28 369.313 25.6385 367.752 31.1844C366.724 34.8353 372.87 37.2042 374.96 39.1327C381.647 45.3027 386.537 54.6849 390 63C368.956 62.9396 351.144 40.2455 332 33L333 30L319 25z"/>
<path style="fill:#ffffff; stroke:none;" d="M250 33C264.973 55.6591 278.789 80.1516 285 107C290.972 101.88 293.695 92.9032 297.258 86C305.494 70.0434 318.212 53.358 319 35L250 33M380 34C384.273 40.9241 390.765 57.7456 397.39 61.9722C401.207 64.4068 408.644 63 413 63C418.974 63 429.151 64.964 434.61 62.3966C440.85 59.4609 446.487 42.3715 448 36C426.964 30.9918 401.595 34 380 34M483 36L483 37C500.072 49.0255 510.641 70.7765 519.753 89C523.279 96.0508 526 104.943 531 111L565.333 61L580 38L483 36M329 38C319.871 53.6438 323 76.3301 323 94L350 76.2592L374 65L329 38M317 60L299 96L318 105L317.09 77L317 60M323 108L361 125.61L410 126C409.998 111.526 404.068 98.4812 399.343 85C397.825 80.6665 396.327 72.8099 392.362 70.0278C386.698 66.0539 376.367 70.854 371 73.1505C354.284 80.3036 328.341 88.6306 323 108M400 69L413 108L414 108L432 69L400 69M416 126L527 126C526.99 110.719 517.115 96.2505 510.258 83C508.057 78.7455 505.682 71.5526 500.896 69.6034C491.818 65.9066 475.788 69 466 69C459.564 69 445.011 66.2758 439.637 70.0278C435.83 72.6855 433.772 79.9613 431.753 84C425.028 97.4505 416.002 110.615 416 126M294 104C287.011 120.788 288 135.891 288 154L288 217C288 227.104 283.616 247.893 294 253L294 148C294 135.473 298.828 115.505 294 104M301 104C301 113.717 300 123.283 300 133C300 136.297 299.049 141.452 301.603 144.03C305.635 148.1 310.714 145.871 315 143.752C327.007 137.817 339.827 134.396 352 129C339.759 118.858 316.271 108.399 301 104z"/>
<path style="fill:#000000; stroke:none;" d="M54 131C51.3696 139.899 53.1061 150.753 52.9961 160C52.8023 176.293 52 192.636 52 209C52 213.539 49.4605 231.248 54.3897 233.338C58.0634 234.895 64.4686 220.613 67.0154 218.001C80.0437 204.638 99.2652 192.129 117 185.966C131.238 181.019 152.947 185 168 185L280 185L280 179L167 179C152.94 179 131.183 183.14 118 178.262C93.7988 169.306 77.8565 141.085 54 131z"/>
<path style="fill:#ffffff; stroke:none;" d="M314 150L314 151L352 169.219L367.711 173.393L377.35 163L397 139L409 174L410 174L410 132L362 132.465L314 150M416 132L416 174L527 174L527 132L416 132M59 142L57 217L75 202.884L111 182L111 181L59 142M394 151L376 174L403 174L394 151M301 198L352 176C343.315 168.804 330.123 164.814 320 159.753C316.338 157.922 311.306 154.282 307.005 155.647C296.182 159.081 298.479 189.47 301 198M309 200L309 202L361 226.39L410 227C410 221.091 412.554 207.412 408.972 202.564C404.38 196.349 382.255 195.192 375 195.015C371.435 194.927 356.267 198.714 354.997 196.624C352.386 192.328 362.109 182.797 364 179L309 200M365 189L410 195L405 179C390.841 179 372.478 174.352 365 189M416 179C416 184.208 414.873 191.008 416.894 195.91C418.505 199.819 422.826 202.27 426 204.801C434.31 211.426 444.691 223.442 455 226.487C461.828 228.504 470.914 227 478 227L527 227L527 179L416 179M416 205L416 227L444 227L444 226L416 205M302 206L300 253L353 230L335 220.753L302 206M303 260C316.859 269.427 333.871 286.846 350 291.49C367.262 296.46 392.003 292 410 292L410 233C394.559 233 377.228 230.788 362 233.326C351.259 235.116 340.074 240.17 330 244.2C320.572 247.971 309.398 251.71 303 260M416 233L416 292L527 292L527 233L463 233L486 252.4L521 279L518 285L474 250L452 233.589L416 233M288 257L288 326L342 295L321 279.33L288 257z"/>
</svg>
