<?xml version="1.0" standalone="yes"?>
<svg xmlns="http://www.w3.org/2000/svg" width="541" height="371">
<path style="fill:#ffffff; stroke:none;" d="M0 0L0 371L541 371L541 0L0 0z"/>
<path style="fill:#000000; stroke:none;" d="M211 158C177.024 158 142.995 157 109 157C101.003 157 92.9967 156.892 85 157.004C82.8311 157.034 77.6358 156.762 77.6358 160.095C77.6358 163.882 91.9488 168.211 95 170.525C107.819 180.251 112 187.311 112 203C106.511 203 99.2134 204.261 94 202.4C85.9916 199.543 78.0722 189.775 72 184C69.0827 181.226 61.0556 176.474 61.0556 171.999C61.0556 168.564 65.633 165.55 68 163.666C75.15 157.974 83.468 151.533 92 148.075C101.809 144.099 117.486 147 128 147L209 147L209 141L126 141C116.569 141 100.578 144.066 92 139.987C73.737 131.303 63.4117 108.574 45 100C44.9749 137.888 44.9133 176.124 43.9853 214C43.7638 223.045 42.2112 231.907 43.4244 241C43.7331 243.314 43.522 249.364 47.0039 249.364C49.9722 249.364 50.5917 245.025 51.5532 242.999C54.2925 237.229 59.2966 232.375 64 228.174C79.0215 214.756 92.1249 208 112 208L112 239L95 231C93.3475 237.941 94.5001 244.962 93.8302 252C91.8447 272.865 92 294.017 92 315C92 320.428 89.1326 338.775 94.4182 341.914C96.5581 343.184 98.3413 341.555 99.4861 339.851C104.334 332.633 109.518 327.453 117 322.814C140.973 307.949 169.951 297.74 197 290.04C206.246 287.408 217.447 289 227 289L285 289L474 289L474 283L437 283L437 168C437 153.816 432.671 131.204 437.854 118C440.54 111.159 446.754 104.945 451 99C463.468 81.5432 478.554 64.7441 489 46C445.465 42.5641 401.677 45.0556 358 43.9854C318.646 43.0211 277.232 39.0967 238 42.8302C219.783 44.5639 201.228 42 183 42C178.815 42 166.447 40.5025 164.256 45.2731C162.558 48.9703 168.887 50.3792 171.001 51.5571C178.911 55.9642 184.875 64.4733 189.575 72C197.172 84.1666 207.775 99.7698 210.621 114C213.359 127.687 211 144.04 211 158z"/>
<path style="fill:#ffffff; stroke:none;" d="M178 48L178 49C195.427 61.3782 205.132 86.2859 214 105C224.335 95.5289 232.009 80.5557 239.975 69C242.184 65.7953 248.561 59.3181 246.252 55.1852C242.757 48.9289 233.075 49.0023 227 49C210.682 48.9937 194.373 48 178 48M284 105L304.141 77L320 52C305.593 47.3139 288.137 48.001 273 48C266.986 47.9996 258.787 47.1111 257.238 55.0008C256.35 59.5201 262.346 65.4615 264.656 69C272.173 80.5149 277.251 93.1399 284 105M362 106L395 60C384.906 46.3273 362.237 49 347 49C344.229 49 330.533 47.3252 330.331 51.3179C330.091 56.0615 338.386 63.2171 340.971 67C349.316 79.2105 355.686 92.6756 362 106M434 111C450.492 94.7802 465.841 70.6992 478 51C460.007 51 442.027 50.2106 424 49.9962C416.242 49.9039 407.079 46.7195 404.236 57C402.852 62.004 409.75 68.1543 412.329 72C420.68 84.4478 426.482 98.1187 434 111M250.667 50.3333L251.333 50.6667L250.667 50.3333M394 50L394 51L399 54L400 51L394 50M325 57C316.347 68.2574 308.775 80.406 300.576 92C296.349 97.9771 289.557 104.897 287.51 112C283.021 127.571 287 149.774 287 166L287 283L359 283L359 168C359 151.045 362.597 129.42 358.39 113C353.947 95.6553 339.481 67.6656 325 57M252 62C243.354 72.144 236.158 83.9801 228.656 95C225.07 100.267 219.525 105.869 217.563 112C212.814 126.84 217 149.395 217 165L217 283L281 283L281 149C281 137.676 282.48 125.198 280.787 114C278.48 98.7464 263.788 71.7427 252 62M399 64C391.07 74.3161 384.087 85.3786 376.576 96C372.962 101.11 367.303 106.939 365.513 113C361.028 128.185 365 150.146 365 166L365 283L431 283L431 178C431 159.485 434.458 137.094 430.61 119C426.87 101.408 411.705 76.4589 399 64M50 112C50 121.568 50.7369 131.473 49.8302 141C48.9692 150.048 46.7335 160.59 53 168L54 168L85 145C79.4216 133.071 60.78 119.504 50 112M177 203L209 203L209 208L177 208L177 253L171 253L171 208L118 208C118 216.311 114.543 234.548 119.028 241.61C122.971 247.82 135.611 251.559 142 254.753C163.071 265.289 187.113 283 211 283L211 162L187 178.626L177.603 187.093L177 203M96 163L96 164L115 181L116 181L139 164C127.774 159.29 108.219 163 96 163M155 163L155 164L173 181L198 164C186.774 159.29 167.219 163 155 163M118 203L171 203C171 189.055 169.148 182.832 158 173.439C155.112 171.006 151.043 166.816 147 166.722C142.7 166.623 138.21 171.47 135 173.873C121.866 183.708 118 186.453 118 203M54 177C44.7901 190.53 49 218.016 49 234L50 234C59.1325 222.014 72.3173 213.79 85 206C79.9379 195.369 63.7796 183.469 54 177M100 240L97 330C126.106 309.738 156.229 296.989 190 286L190 285L100 240z"/>
</svg>
