<?xml version="1.0" standalone="yes"?>
<svg xmlns="http://www.w3.org/2000/svg" width="502" height="371">
<path style="fill:#ffffff; stroke:none;" d="M0 0L0 371L502 371L502 0L0 0z"/>
<path style="fill:#000000; stroke:none;" d="M216 88L143 88C132.551 88 119.07 90.2556 109 87.3619C86.4614 80.8852 68.9549 58.2522 46 53C46 72.361 45 91.6096 45 111C45 114.571 42.9501 127.879 48.0401 128.534C51.8112 129.019 60.7327 116.661 64 114L62 255L48 246C48 265.329 47 284.621 47 304C47 310.681 44.1204 322.308 53 323C56.9741 307.277 78.3001 297.557 92 291.576C107.442 284.834 124.323 287 141 287L229 287C228.878 297.362 219.257 303.118 212 309.424C207.574 313.271 202.498 316.835 205 323C214.092 319.478 222.16 309.821 229 303L229 338L235 338C235 327.27 231.193 307.623 236.028 298.001C241.582 286.946 257.959 277.289 267 268.911C284.162 253.007 301.448 237.189 319 221.715C331.186 210.971 340.581 201.19 356 195.424C372.843 189.127 391.004 182.904 409 181.17C412.834 180.8 426.862 185.151 428.762 182.381C431.349 178.611 424.314 173.307 422 171.289C414.7 164.925 398.211 157.009 394.603 147.91C392.723 143.169 394 136.037 394 131L394 93C394 88.2355 392.319 79.4811 395.603 75.6096C399.445 71.081 406.951 68.3904 412 65.3966C424.005 58.2784 436.097 51.2866 448 44L448 43L285 42L293 28C261.295 28 229.719 26 198 26C190.771 26 183.188 25.3499 176.001 26.1744C173.782 26.4289 169.636 27.0297 169.636 30.0355C169.636 33.5864 184.08 40.113 186.985 43.0146C199.059 55.0725 209.424 72.2878 216 88z"/>
<path style="fill:#ffffff; stroke:none;" d="M185 32L205.656 57L232 107L233 107C244.768 89.5556 262.55 70.6566 270 51L263.995 49.4992C261.679 48.9696 249.195 45.9676 257.103 42.6026C267.114 38.342 275.988 46.5901 282 34L185 32M280 48L291 57.0363L307 68.7485L318 64L343 49L323 48L280 48M362 48L362 49L391 68.618L402 64.1497L428 49L407 48L362 48M310 151L304 151L304 99C304 92.208 305.788 82.4126 303.397 76.0038C300.257 67.5897 283.559 56.6551 275 55C266.795 68.2952 257.598 81.2413 248.576 94C244.341 99.9884 237.814 106.966 235.563 114C230.728 129.11 235 152.108 235 168L235 289C260.751 270.863 283.876 245.517 307 224.089C316.175 215.586 331.92 206.161 337.697 194.996C340.855 188.892 341.35 180.66 342.881 174C347.004 156.068 350.021 137.711 355 120L389 145L389 97C389 90.9326 390.751 81.5318 387.972 76.0008C383.748 67.5922 361.998 50.8865 352 51.6065C344.378 52.1555 334.468 60.7218 328 64.6003C323.192 67.4834 312.99 70.9814 310.603 76.3287C307.991 82.1811 310 92.6441 310 99L310 151M52 63L50 117C55.1345 113.493 62.948 109.506 64 103C72.9355 105.431 92.3538 95.0775 100 90C85.31 81.0093 68.4041 68.1929 52 63M76 107L76 109L131 133.61L163 134L229 134C229 122.753 229.793 102.796 219.301 95.0278C216.749 93.1382 211.98 94 209 94L182 94C158.286 94 131.372 90.4228 108 94.3256C96.9102 96.1775 86.2698 102.724 76 107M70 113L68 159L122 137L99 125.691L70 113M358 130L345 193C367.867 185.264 391.438 175.068 416 175L416 174L358 130M75 162C81.927 170.381 101.373 183.952 112 186.581C122.393 189.152 135.472 186.81 146 186.09C160.563 185.092 175.423 185.678 190 185.039C198.967 184.647 208.024 185 217 185C219.91 185 224.948 185.912 227.397 183.972C230.216 181.739 229 175.151 229 172L229 140C197.639 140 163.016 135.831 132 140.3C112.651 143.088 92.1123 152.996 75 162M70 167L70 210L104 191L104 189L70 167M77 213C83.7337 221.147 100.74 233.536 111 236.49C121.807 239.602 136.764 237 148 237L229 237L229 190C205.705 190 182.304 192 159 192C144.206 192 125.249 189.744 111 193.789C98.7274 197.272 87.4805 206.097 77 213M72 219C66.0982 231.692 68 246.346 68 260L104 240C96.0262 232.364 82.5338 222.357 72 219M75 265L100 281.298L140 282L229 282L229 243L150 243C137.686 243 123.049 240.828 111 243.39C100.358 245.653 79.8821 255.009 75 265M53 257L52 309L92 285L92 283L70 269L63 274C61.9385 265.601 61.5331 260.592 53 257z"/>
</svg>
