<?xml version="1.0" standalone="yes"?>
<svg xmlns="http://www.w3.org/2000/svg" width="793" height="371">
<path style="fill:#ffffff; stroke:none;" d="M0 0L0 371L793 371L793 0L0 0z"/>
<path style="fill:#000000; stroke:none;" d="M175 80L189.054 52L202 33C167.774 47.2534 133.949 69.1585 102 88C104.943 75.2773 110.645 62.9493 117.698 52C121.866 45.5298 128.934 39.4346 131 32L69 66.1396L25 91L25 92C50.1132 113.729 79.4803 132.747 107 151.33C113.575 155.77 119.904 161.072 127 164.669C128.954 165.66 133.104 167.598 134.338 164.551C136.7 158.721 120.533 148.555 117.004 144.999C102.869 130.757 100 115.242 100 96C124.412 116.821 152.584 134.766 179 152.975C185.12 157.193 191.247 162.304 198 165.467C199.984 166.396 204.333 167.856 205.248 164.682C206.902 158.946 188.742 146.969 185.093 143C172.792 129.619 170.645 114.29 171 97C195.659 114.662 220.023 132.759 245 149.975C250.857 154.011 256.777 158.443 263 161.891C265.025 163.013 269.092 164.882 270.338 161.682C272.541 156.022 257.445 146.444 254.001 142.999C240.832 129.83 236 115.288 236 97L299 142.709L339 169C297.891 196.733 256.357 226.953 213 251L213 254C244.531 273.636 273.532 298.393 304 319.72C311.263 324.804 318.49 329.962 326 334.68C328.433 336.208 332.603 339.59 335.664 337.867C341.654 334.495 329.235 325.246 327 323.285C307.842 306.473 298.323 286.656 300.09 261C301.667 238.1 312.359 215.364 324 196C328.7 188.183 340.987 176.904 342.182 168C343.16 160.714 332.56 154.955 328 150.83C317.904 141.699 310.064 130.604 307.616 117C303.812 95.8636 312.433 73.656 323.425 56C327.94 48.748 335.276 42.0779 338 34L283 64.1396L237 90C241.931 66.1714 255.521 49.972 268 30L241 43.6913L175 80M411 186L347 150C347 170.336 345 190.651 345 211C345 215.096 342.914 228.7 348.235 230.248C351.792 231.283 359.838 219.282 363 217.043C376.618 207.402 394.707 198.771 411 195L411 332L416 332L416 193L461 193L461 332L466 332L466 193L516 193L516 334L522 334L522 193L580 193L580 194L553 215C555.977 224.682 574.859 233.581 583 239.28C610.84 258.769 638.723 278.148 667 297C675.767 302.845 684.603 308.94 694 313.741C696.657 315.098 701.649 318.241 704.353 315.381C708.917 310.553 695.024 299.91 692 297.17C673.849 280.72 665.844 258.417 668.17 234C672.923 184.092 698.643 135.7 725.053 94C735.778 77.0663 753.888 59.4899 761 41C739.755 51.9626 720.217 74.1952 702 89.7284C662.563 123.356 623.241 157.341 583 190C581.915 184.939 572.288 187 568 187L522 187C522 167.033 517.659 141.323 522.61 122C529.693 94.3474 547.147 69.4691 555 42C510.577 36.3858 464.628 39 420 39C409.298 39 398.734 37.8755 388 38.0038C384.979 38.04 379.04 37.7463 377.662 41.26C376.199 44.9906 382.546 48.5849 384.471 51.0154C390.893 59.1279 394.693 70.3037 397.997 80C402.798 94.0905 408.588 109.217 410.7 124C413.542 143.892 411 165.898 411 186z"/>
<path style="fill:#ffffff; stroke:none;" d="M388 44C397.977 65.0955 409.532 86.4307 413 110C417.245 107.104 418.739 100.65 420.6 96C424.974 85.0753 443.445 56.6181 431.906 47.4337C427.883 44.2312 422.779 45.1699 418 44.9606C407.974 44.5216 398.078 44 388 44M463 111C473.15 99.7208 477.693 78.0186 483.576 64C485.117 60.3274 490.266 52.3193 487.353 48.6134C483.859 44.1674 476.937 45.0079 472 45C462.412 44.9846 446.612 39.1759 444.795 53C444.03 58.8186 448.989 65.6613 450.947 71C455.612 83.7219 461.185 97.5325 463 111M519 113L520 113L546 47C534.388 46.968 522.583 45.8828 511 45.0895C507.614 44.8576 500.302 43.7527 497.786 46.6034C494.454 50.3789 501.436 59.2712 502.988 63C509.483 78.6039 516.531 96.2187 519 113M439.667 46.3333L440.333 46.6667L439.667 46.3333M247 47L172 89L197 108.151L242 140C231.307 117.392 226.794 99.7841 234.746 75C237.619 66.0464 246.126 55.9917 247 47M110 50C87.4527 64.8698 60.9094 80.5743 36 91L36 93L105 142C97.3583 121.809 90.7853 107.246 96.4784 85C98.5179 77.0307 101.577 69.3395 105.247 62C107.063 58.3676 110.387 54.0868 110 50M181 51L107 92L107 94L176 143C170.885 129.485 164.999 120.066 165 105C165 99.3035 166.792 92.9879 161 90L161 88C170.466 83.7896 171.501 71.6316 175.756 63C177.596 59.2681 180.877 55.1649 181 51M317 52L243 93L243 95L312 144C304.032 122.947 297.801 108.056 303.884 85C306.539 74.9364 317.097 61.8087 317 52M493 57L476.576 96L466.329 122L466 187L516 187L515.7 122L505.667 87L493 57M440 63C433.401 82.5056 420.41 101.851 416.379 122C412.358 142.102 416 166.48 416 187L461 187L460.7 124L442 63L440 63M728 76L624 163.586L585 196.576L562 217C603.892 245.266 643.739 278.451 688 303C680.203 291.931 671.011 284.356 666.516 271C650.694 223.986 677.055 169.081 698.258 128C704.441 116.022 711.454 104.436 718.576 93C721.654 88.0578 727.317 81.8032 728 76M352 160L351 218C367.867 207.496 384.505 196.332 404 191L389 180.421L352 160z"/>
<path style="fill:#000000; stroke:none;" d="M166 167L37 252L37 253C65.7601 277.887 99.0323 298.806 130 320.859C137.488 326.191 144.969 331.881 153 336.38C155.124 337.57 159.923 340.142 161.338 336.562C162.597 333.377 158.992 330.071 156.981 328.17C151.195 322.7 144.702 318.195 139.616 312C125.953 295.359 121.917 274.929 125.435 254C129.165 231.812 139.136 211.018 150.811 192C154.468 186.043 167.448 173.821 166 167z"/>
<path style="fill:#ffffff; stroke:none;" d="M341 167L342 168L341 167M144 189L47 252L77 275.151L134 316C129.188 307.356 123.891 299.617 121.036 290C114.459 267.844 120.092 244.016 128.064 223C131.834 213.061 143.699 199.171 144 189M319 189C289.515 211.664 255.489 233.913 223 252L254 276.151L310 316C292.905 288.298 289.802 261.07 301.054 230C304.382 220.809 308.114 211.56 312.861 203C315.107 198.95 319.69 193.729 319 189z"/>
</svg>
