<?xml version="1.0" standalone="yes"?>
<svg xmlns="http://www.w3.org/2000/svg" width="599" height="378">
<path style="fill:#ffffff; stroke:none;" d="M0 0L0 378L599 378L599 0L0 0z"/>
<path style="fill:#000000; stroke:none;" d="M246 15L226.61 52.9606L202 72.6258L156 107.651L80 165.651L32 202C41.1245 213.208 57.2586 220.781 69 229.141C98.2156 249.945 128.159 269.772 158 289.667C172.499 299.333 191.642 316.868 209 320C209.706 328.945 210.906 338.187 212.618 347C213.086 349.409 213.828 354.364 217.155 354.364C220.953 354.364 227.563 336.497 230.236 333C243.969 315.037 262.445 300.244 280 286.2C288.94 279.048 297.925 270.713 308 265.185C322.844 257.041 341.929 253.024 358 247.667C390.385 236.872 422.841 226.137 455 214.692C481.495 205.262 508.321 196.56 535 187.667C543.274 184.909 559.659 183.394 560 173L400 123.72L343 106.025L316.09 97.1566L299.576 78L265.2 36L246 15z"/>
<path style="fill:#ffffff; stroke:none;" d="M248 26L239 44L255 34C234.42 57.6315 212.727 87.4723 204 118C238.109 103.799 271.498 104.591 307 98L273.611 56L248 26M42 203C92.4235 237.022 141.231 277.376 195 306C183.994 292.35 171.855 283.09 165.425 266C146.288 215.133 173.254 154.472 197.309 110C205.078 95.6356 214.707 82.1154 221 67C199.645 76.0279 179.573 97.6964 161 111.627C136.173 130.247 111.823 149.502 87 168.127C72.2309 179.208 54.9189 189.826 42 203M193 130C173.455 180.379 142.607 247.995 190.17 293.424C195.559 298.571 201.369 304.561 208 308L201 237C225.794 240.339 250.534 247.929 275 253.21C284.239 255.204 295.516 259.848 305 258.812C325.98 256.518 348.955 244.348 369 237.667C410.399 223.867 451.597 209.468 493 195.667C511.511 189.496 529.97 181.403 549 177C533.16 167.032 508.923 163.679 491 158.28C453.246 146.907 415.755 134.654 378 123.28C355.318 116.447 328.895 102.993 305 104.039C278.541 105.198 250.476 108.128 225 115.721C218.928 117.53 212.317 119.575 207.004 123.108C201.768 126.59 199.855 131.379 193 130M208 244L217 340L218 340C236.136 310.501 268.72 283.234 298 265L298 264C268.34 260.006 236.818 252.102 208 244z"/>
</svg>
