<?xml version="1.0" standalone="yes"?>
<svg xmlns="http://www.w3.org/2000/svg" width="632" height="371">
<path style="fill:#ffffff; stroke:none;" d="M0 0L0 371L632 371L632 0L0 0z"/>
<path style="fill:#000000; stroke:none;" d="M26 22C26 45.0111 25 67.9478 25 91C25 94.4794 22.9107 112.364 28.1204 112.364C31.7639 112.364 33.555 105.37 35.3935 103C40.53 96.3797 47.7327 91.05 55 87L52.0008 223L55.7662 237.015L55 295L23 275C20.1849 297.275 21 320.534 21 343C21 347.676 18.6487 361.838 22.7377 364.953C26.7667 368.022 33.2578 354.794 36.0147 352.464C50.3078 340.381 68.722 332.277 86 325.45C102.097 319.089 124.861 323 142 323C183.723 323 225.63 323.778 267 325L267 243C267 235.164 263.769 218.066 268.028 211.39C270.755 207.114 278.577 205.095 283 203.14C298.632 196.228 309.975 194 327 194L487 194C484.119 201.531 497.666 207.889 503 211.71C515.744 220.837 528.247 230.303 541 239.421C546.613 243.434 555.35 247.551 559.397 253.184C562.928 258.1 561 268.21 561 274L561 325L566 325L566 257C568.14 258.29 577.925 263.765 576.94 256.941C576.07 250.918 567.819 248.912 566.318 242.996C564.263 234.898 566 224.346 566 216L566 158C566 147.332 563.226 132.086 566.818 122C576.969 93.4992 602.988 70.8391 615 43C589.308 43 563.709 41 538 41C532.606 41 515.338 38.232 512.086 43.4985C509.872 47.0851 525.041 55.9626 527.535 59C536.951 70.4629 544.139 84.4332 550 98C551.897 102.39 555.822 108.085 555.701 113C555.524 120.134 543.989 128.89 539.576 134C523.056 153.133 506.685 172.942 489 191C487.936 186.036 479.189 188 475 188L432 188L346 188C332.892 188 317.916 190.042 305 187.889C295.863 186.366 284.743 176.352 277 171.333C274.277 169.569 269.464 167.541 267.722 164.75C264.685 159.885 267 147.68 267 142C267 136.152 265.749 128.651 267.306 123C269.185 116.177 275.522 108.944 279.333 103C287.174 90.7717 294.752 78.3563 302.389 66C306.632 59.1351 312.985 51.8622 315 44C288.67 44 262.391 42 236 42C231.763 42 213.058 39.5198 212.06 45.1736C211.506 48.3143 215.941 49.7179 218.001 50.9005C223.557 54.0907 227.634 58.6192 231 64L132 64C118.482 64 99.9591 67.3149 87 63.4869C64.1913 56.7493 49.1351 28.0137 26 22z"/>
<path style="fill:#ffffff; stroke:none;" d="M32 33L30 98L55.4244 79.1196L79 66L32 33M525 47L525 48C546.548 63.4987 550.225 93.2562 564 114C577.511 93.582 594.307 71.4659 604 49C578.885 44.3375 550.54 47 525 47M226 48L226 49C244.27 64.1149 256.494 92.9503 264 115L265 115L305 49L226 48M63 81L63 83C78.1905 93.2393 96.6258 109.512 114 115.298C126.627 119.503 145.701 116 159 116L258 116L243.247 83L235.621 71.0278L222 70L191 70L121 70L86 70.3904L63 81M61 89L60 145L86 128.309L107 118L61 89M558 118C545.622 144.462 539.259 178.075 544.805 207C547.024 218.574 551.59 232.334 561 240L561 153C561 143.03 564.203 126.336 558 118M230 189L231 143L261 161L261 122L158 122C140.31 122 120.47 119.077 104 126.15C92.8958 130.919 81.8396 136.358 72 143.428C68.626 145.853 62.9029 149.466 62.1759 153.961C61.5742 157.681 66.5313 160.27 69 162.127C77.0324 168.167 84.9589 174.343 93 180.373C107.931 191.572 122.96 189 141 189L230 189M543 139L493 197L551 238C541.758 220.434 535.244 201.234 537.17 181C538.066 171.582 539.08 162.285 541.003 153C541.914 148.601 544.327 143.368 543 139M236 153L235 226L236 226C242.059 218.078 255.086 214.742 259.972 206.671C262.364 202.72 261 195.457 261 191C261 184.901 262.906 174.95 260.397 169.329C257.487 162.811 242.296 155.978 236 153M59 162L58 217L97 192L97 190L59 162M267 173L267 204L295 191L295 190L267 173M61 224C77.0879 234.853 96.5932 252.168 115 258.298C127.627 262.503 146.701 259 160 259L261 259L261 214C253.676 217.465 245.542 222.731 240.34 229.015C238.525 231.207 236.292 238.793 233 238.793C228.923 238.793 229.036 231.633 229.004 229C228.86 217.337 229 205.664 229 194L148 194C134.782 194 118.921 191.597 106 194.39C91.0422 197.624 69.6924 211.668 61 224M62 232L60 289C74.9568 278.588 89.4485 267.976 107 262L107 260L62 232M62 300C70.8222 304.893 79.4215 313.108 89 316.298C103.758 321.213 126.436 317 142 317L261 317L261 264L160 264C140.529 264 121.049 261.558 103 269.694C90.1658 275.48 65.1261 284.506 62 300M28 286L26 353C43.6985 340.545 60.6213 327.112 82 321L67 309.576L28 286z"/>
</svg>
