<?xml version="1.0" standalone="yes"?>
<svg xmlns="http://www.w3.org/2000/svg" width="438" height="371">
<path style="fill:#ffffff; stroke:none;" d="M0 0L0 371L438 371L438 0L0 0z"/>
<path style="fill:#000000; stroke:none;" d="M332 107L271 143.301L237 144C237.003 114.64 267.599 90.9758 274 63C253.647 63 233.343 61 213 61C208.991 61 195.541 59.162 193.89 64.2701C192.989 67.06 196.229 68.5186 198.019 69.7994C203.238 73.5334 206.784 78.527 209.988 84C219.92 100.964 230.998 124.121 231 144C217.34 144 197.992 147.535 185 143.301C165.775 137.035 151.32 118.156 132 112C141.402 87.5565 168.033 70.0023 176 45C150.321 45 124.637 43.0411 99 43C93.6544 42.9914 76.5635 40.7809 73.0864 45.7269C70.6079 49.2524 85.5442 56.6112 87.9105 59.0394C102.257 73.7603 111.546 94.4309 119.765 113C128.009 131.622 120.931 160.357 120.039 180C118.183 220.895 122 260.283 122 301C106.692 290.904 86.6115 277.083 69 272C69 294.691 67 317.315 67 340C67 344.888 64.7184 358.817 69.5486 361.914C72.6674 363.913 82.7571 349.591 86 347.348C102.701 335.799 124.255 325.748 144 320.76C159.123 316.939 178.418 320 194 320L296 320C307.456 320 313.156 323.123 323 328.719C325.977 330.412 331.943 335.065 335.548 332.879C341.069 329.531 331.205 322.128 329 320L343 322L343 184L343 141C343 134.427 341.753 126.37 343.499 120C345.339 113.287 350.928 106.857 354.576 101C366.073 82.5405 384.407 61.691 391 41C383.373 38.7455 374.881 40.4502 367 39.9105C348.804 38.6644 330.246 38 312 38C307.727 38 289.245 35.9963 288.466 42.0401C288.007 45.6005 302.132 53.9477 304.816 57C316.984 70.8426 324.988 90.1343 332 107z"/>
<path style="fill:#ffffff; stroke:none;" d="M302 44C315.676 63.4334 326.761 81.3922 337 103L346 99C342.901 102.378 338.299 106.344 341 111C354.511 90.582 371.307 68.4659 381 46L302 44M87 49L116.219 91L125.12 106.079L136 94L165 51L87 49M206 67C217.475 85.4274 229.025 104.495 234 126L235 126L264 69L206 67M334 113L314 144L337 144C337 134.851 339.712 120.676 334 113M129 117L128 175L177 147L177 146L129 117M284 143L284 144L305.621 143.397L321 121L284 143M133 179L160 195.95L173 203.127L187 196.424L218 177.319L229.972 168.674L231 150L185 150.529L157 162.753L133 179M237 150L237 165L261 151L237 150M237 209L280 209C282.866 187.733 294.696 169.272 303 150L273 150.51L252 162.808L237.603 173.21L237 209M286 209L337 209L337 150C330.039 150 316.367 147.367 310.329 151.028C306.033 153.632 303.895 160.706 301.753 165C295.004 178.534 288.035 193.899 286 209M230 176L180 208C194.985 212.429 215.361 209 231 209L230 176M129 185L128 236L157 219C156 213.835 163.135 211.144 167 209L167 207C156.183 199.842 141.782 187.472 129 185M170 220L196 238.025L231 261L231 215C211.14 215 188.316 211.432 170 220M237 215L237 249C237 253.563 235.727 260.434 237.603 264.674C239.15 268.171 243.974 270.316 247 272.333C259.547 280.698 269.326 280 284 280C276.467 256.889 276.977 238.822 278 215L237 215M284 215C281.926 231.396 280.442 247.768 284.735 264C285.903 268.418 287.265 276.31 291.394 278.972C294.807 281.173 301.114 280 305 280L337 280L337 215L284 215M129 246C146.543 255.73 164.83 273.576 184 279.351C197.554 283.434 216.848 280 231 280C231 263.212 215.91 258.274 203 249.667C191.957 242.305 176.993 226.995 164 224.056C160.245 223.207 156.199 226.15 153 227.753C144.481 232.023 133.214 236.988 129 246M129 254C129 266.697 128.02 279.368 128 292C127.995 295.357 126.668 302.516 129.603 304.936C133.339 308.015 138.979 302.618 142 300.695C153.157 293.593 165.602 289.486 177 283C166.201 272.856 143.456 257.316 129 254M237 273L237 280L247 280L247 279L237 273M75 282L73 349C84.6854 341.723 95.385 334.1 108 328.309C111.783 326.572 120.615 324.764 122.357 320.606C123.759 317.262 122.257 309.25 119.682 306.789C109.522 297.077 88.1864 286.8 75 282M139 309L139 311C148.394 315.722 159.709 314 170 314L231 314L231 286C216.727 286 199.993 283.581 186 286.379C169.347 289.709 153.576 300.915 139 309M237 286L237 314L299 314C289.468 304.871 269.695 290.165 257 286.51C250.97 284.774 243.245 286 237 286M269 286L269 287L308 312C303.646 305.82 292.779 289.402 285.896 286.603C281.195 284.692 274.021 286 269 286M295 286C302.1 304.728 318.34 314 337 314L337 286L295 286M133 314L130 319L137 317L137 316L133 314z"/>
</svg>
