<?xml version="1.0" standalone="yes"?>
<svg xmlns="http://www.w3.org/2000/svg" width="338" height="371">
<path style="fill:#ffffff; stroke:none;" d="M0 0L0 371L338 371L338 0L0 0z"/>
<path style="fill:#000000; stroke:none;" d="M270 22L235 58L179 115L145 151L153 154C149.624 158.146 141.817 169.944 136 169.944C131.986 169.944 128.077 163.878 126.043 161C119.154 151.252 115.781 138.917 116.015 127C116.502 102.262 126.691 76.4789 138.309 55C143.437 45.5181 151.744 36.2181 155 26C144.612 30.7582 135.7 41.2249 127 48.5756C106.948 65.518 87.1069 82.7122 67 99.5895C57.0395 107.95 39.5637 118.168 34 130C66.0635 143.816 95.4005 170.321 129 180C111.155 197.845 94.6001 216.943 76.9853 235C68.1437 244.064 54.3564 254.514 49 266C86.7207 281.684 123.384 300.003 161 316C169.931 319.798 178.79 323.904 188 326.996C190.427 327.811 195.819 330.284 197.762 327.394C200.718 322.998 191.738 318.472 189 316.861C174.043 308.062 160.827 299.035 152.809 283C139.319 256.024 143.284 222.037 151.155 194C154.4 182.44 159.971 170.791 162 159L200 177.258L237 194L165 269C200.29 289.598 239.831 305.274 277 322.231C285.844 326.265 294.797 330.596 304 333.757C306.349 334.564 312.183 336.31 313.248 332.697C314.521 328.383 306.783 324.893 304 323.203C291.6 315.67 280.742 308.448 272.699 296C255.668 269.641 260.376 236.999 266 208C270.417 209.812 289.105 220.901 292.762 215.397C294.691 212.493 291.025 209.553 288.981 208.093C284.593 204.96 271.198 200.426 270.363 194.535C269.773 190.37 273.305 183.893 274.692 180C279.53 166.419 288.047 153.722 292 140L252 178C248.696 168.907 244.282 160.661 242.46 151C236.862 121.316 244.757 89.8893 254.692 62C259.53 48.4194 268.047 35.7217 272 22L270 22z"/>
<path style="fill:#ffffff; stroke:none;" d="M251 51L189.999 113L155 149C162.99 149.119 168.023 138.399 174 134L165 154C184.395 162.075 202.807 172.585 222 181.139C226.852 183.301 236.641 190.418 241.995 188.644C253.064 184.975 240.387 166.941 238.428 160C231.541 135.589 235.334 109.156 241.373 85C243.697 75.7044 252.606 60.1576 251 51M132 52C104.629 78.1956 74.1762 104.091 44 127L44 128C69.7684 143.771 98.108 160.388 126 172C121.504 164.184 116.21 157.75 113.358 149C106.484 127.909 112.078 104.323 119.003 84C122.416 73.9841 131.009 62.304 132 52M154 162L142 175L142 176L149 181L154 162M271 169C264.402 175.598 251.373 184.622 265 191L271 169M134 183L59 264L168 312C161.921 304.461 154.458 298.778 149.782 290C131.71 256.076 141.215 223.537 146 188L134 183M248 193L262 199C258.574 194.137 253.311 186.868 248 193M175 267C208.438 286.516 246.904 303.996 283 318C276.833 309.246 268.716 302.814 263.809 293C250.575 266.537 253.221 232.671 261 205C256.046 203.313 248.246 197.289 243 198.708C235.052 200.858 227.154 213.116 221.83 219C207.094 235.286 187.648 249.044 175 267M284 318L285 319L284 318z"/>
</svg>
