<?xml version="1.0" standalone="yes"?>
<svg xmlns="http://www.w3.org/2000/svg" width="529" height="371">
<path style="fill:#ffffff; stroke:none;" d="M0 0L0 371L529 371L529 0L0 0z"/>
<path style="fill:#000000; stroke:none;" d="M46 128L92 159.333L111.972 174.093L114 191C93.7757 198.779 73.6601 218.227 56 230.86C49.2678 235.675 38.8157 240.486 35 248C55.0298 261.515 74.8912 275.261 95 288.667C103.833 294.555 113.999 303.735 125 304C124.098 292.03 107.92 285.456 103.468 274C95.3294 253.059 107.402 234.439 113 215L114 215C114 232.391 112.993 249.626 113 267C113.001 270.719 112.052 282.612 116.274 284.338C119.363 285.601 130.512 268.552 134 265.899C152.384 251.913 175.965 240.101 198 233.093C205.107 230.833 213.62 232 221 232L264 232L409 232C403.019 239.811 412.21 244.602 418 249.576C432.241 261.809 446.385 274.214 461 286C464.647 288.941 475.364 300.795 480.664 297.864C486.816 294.462 472.014 281.792 469.9 279C452.245 255.683 458.779 228.654 459 202C462.877 204.423 476.923 218.786 481.353 214.353C485.794 209.908 473.087 200.074 470.669 197C456.443 178.916 473.117 162.247 476 143L458 165C454.941 140.793 458.929 116.368 465.424 93C468.471 82.0402 474.083 71.1404 476 60L460.626 79L430.873 119L414.907 138.972L393 140L339 140L244 140L200 139.501L179 127.192L125 94L154 51C143.951 54.2076 134.553 63.1963 126 69.2909C108.73 81.5972 91.4337 93.9022 74 105.975C65.5532 111.825 50.708 118.729 46 128z"/>
<path style="fill:#ffffff; stroke:none;" d="M128 75L56 126L74 139.72L113 165C108.208 154.405 105.024 144.838 106.17 133C107.64 117.804 115.344 104.287 116 89C122.253 89.5364 127.427 80.7241 128 75M458 93L413 153L413 154L447 182C457.138 165.555 450.424 138.7 453.59 119C454.796 111.495 459.665 100.286 458 93M122 100C118.28 112.585 120.151 127.945 119.996 141C119.917 147.627 118.114 154.351 119.148 161C119.866 165.617 124.604 170.761 129 172.339C133.85 174.079 140.967 167.166 145 164.85C159.054 156.783 178.705 152.149 191 142L146 113.808L122 100M114 120L115 121L114 120M113 124L113 152L114 152L113 124M133 184L133 185C148.722 193.72 163.739 203.919 179 213.424C185.267 217.327 191.942 223 199 225.301C212.792 229.796 233.495 226 248 226L356 226L395 226C400.227 226 407.935 227.416 412.826 225.397C416.576 223.848 419.046 219.104 421.373 216C427.439 207.912 434.66 199.744 439.721 191.001C443.396 184.652 435.243 180.361 431 176.729C425.572 172.083 407.977 161.54 406.755 154.41C406.303 151.768 409.76 148.177 411 146L266 146C245.13 146 218.196 141.442 198 146.61C180.074 151.196 157.886 161.851 143.004 172.785C138.744 175.916 137.198 181.367 133 184M454 181L451 187L456 190L454 181M129 189C114.004 211.228 119 244.663 119 271L120 271C136.128 250.008 168.025 238.299 192 229L192 228L129 189M447 191L413 236L413 237C427.777 249.909 443.551 267.996 461 277C452.931 260.033 449.803 241.782 451.09 223C451.869 211.614 457.997 198.361 447 191M114 197L45 246L65 261.025L102 285C92.9483 264.988 94.2547 247.481 101.695 227C104.489 219.311 116.123 204.742 114 197z"/>
</svg>
