<?xml version="1.0" standalone="no"?>
<!DOCTYPE svg PUBLIC "-//W3C//DTD SVG 20010904//EN"
 "http://www.w3.org/TR/2001/REC-SVG-20010904/DTD/svg10.dtd">
<svg version="1.0" xmlns="http://www.w3.org/2000/svg"
 width="402.000000pt" height="371.000000pt" viewBox="0 0 402.000000 371.000000"
 preserveAspectRatio="xMidYMid meet">
<metadata>
Created by potrace 1.16, written by Peter Selinger 2001-2019
</metadata>
<g transform="translate(0.000000,371.000000) scale(0.100000,-0.100000)"
fill="#000000" stroke="none">
<path d="M1647 3421 c-88 -7 -112 -24 -76 -53 12 -10 29 -18 38 -18 10 0 38
-14 63 -30 121 -80 305 -369 447 -702 l41 -96 -2 -317 -3 -317 -210 162 c-115
89 -218 168 -228 175 -10 7 -76 175 -166 426 -82 228 -153 412 -157 411 -11
-4 -135 -153 -324 -387 -197 -244 -279 -354 -286 -381 -3 -13 -9 -24 -13 -24
-3 0 -30 16 -59 36 -30 20 -56 33 -60 30 -9 -10 -20 -365 -21 -692 -1 -244 2
-304 13 -313 22 -18 42 -3 55 41 30 99 241 242 564 382 l128 56 362 0 362 0
-128 -128 -127 -127 -475 -130 c-261 -71 -475 -133 -475 -137 0 -14 794 -504
867 -534 32 -14 37 -14 52 0 13 13 13 20 3 34 -60 84 -70 134 -52 269 14 107
39 213 87 358 l36 110 120 123 c67 67 125 122 129 122 4 0 8 -328 8 -730 l0
-730 25 0 25 0 2 734 3 734 480 -370 c264 -203 490 -377 503 -385 18 -12 25
-13 37 -3 8 7 15 16 15 19 0 4 -222 178 -493 387 l-494 379 546 5 546 5 0 25
0 25 -553 3 -553 2 507 503 c485 480 506 503 488 519 -18 16 -42 -6 -526 -484
l-508 -500 0 324 1 323 288 420 289 420 -77 7 c-42 3 -211 9 -376 12 -165 3
-370 8 -455 10 -85 2 -190 1 -233 -3z m991 -70 l53 -6 -248 -362 c-136 -199
-252 -362 -257 -363 -5 -1 -33 49 -62 112 -118 255 -246 459 -356 572 l-69 69
443 -7 c244 -5 467 -11 496 -15z m-1127 -739 c69 -191 124 -348 123 -350 -1
-2 -71 12 -156 31 -232 54 -290 62 -449 62 l-147 0 31 40 c50 65 356 445 411
511 28 34 53 59 56 57 3 -2 62 -160 131 -351z m-220 -332 c133 -23 354 -77
385 -94 12 -6 110 -78 217 -161 l195 -150 -348 -3 -348 -2 -284 181 c-155 100
-287 185 -291 189 -11 10 58 52 102 61 56 12 244 2 372 -21z m-253 -245 c161
-103 290 -191 285 -195 -4 -5 -37 -20 -73 -35 -202 -84 -419 -210 -519 -301
l-54 -49 7 383 c4 211 10 390 13 398 5 13 8 13 27 1 11 -8 153 -99 314 -202z
m777 -616 c-80 -233 -115 -485 -80 -572 5 -12 -20 -2 -83 35 -151 89 -622 383
-622 388 0 5 802 228 807 225 2 -1 -8 -35 -22 -76z"/>
</g>
</svg>
