<?xml version="1.0" standalone="no"?>
<!DOCTYPE svg PUBLIC "-//W3C//DTD SVG 20010904//EN"
 "http://www.w3.org/TR/2001/REC-SVG-20010904/DTD/svg10.dtd">
<svg version="1.0" xmlns="http://www.w3.org/2000/svg"
 width="753.000000pt" height="371.000000pt" viewBox="0 0 753.000000 371.000000"
 preserveAspectRatio="xMidYMid meet">
<metadata>
Created by potrace 1.16, written by Peter Selinger 2001-2019
</metadata>
<g transform="translate(0.000000,371.000000) scale(0.100000,-0.100000)"
fill="#000000" stroke="none">
<path d="M6127 3461 c-79 -11 -83 -51 -7 -71 132 -36 338 -331 509 -732 36
-84 41 -105 41 -172 l0 -76 -972 0 -973 0 -277 178 c-152 98 -280 180 -283
183 -3 3 92 147 210 320 l216 314 -53 7 c-86 10 -1002 30 -1075 23 -93 -9
-105 -13 -101 -36 2 -14 22 -28 63 -44 89 -36 190 -147 295 -324 16 -29 30
-54 30 -56 0 -3 -211 -5 -468 -5 l-468 0 -84 71 c-47 39 -91 77 -99 84 -11 11
0 33 74 140 48 69 85 129 82 131 -2 3 -115 9 -249 13 -201 7 -250 12 -271 25
-22 15 -25 15 -30 1 -6 -13 -46 -15 -319 -13 -323 2 -364 -2 -356 -38 2 -8 30
-26 62 -39 132 -53 263 -232 444 -603 l87 -177 3 -92 4 -93 -524 0 -523 0
-304 180 c-168 99 -308 180 -312 180 -14 0 -34 -695 -21 -750 11 -48 41 -47
64 1 35 75 178 169 398 262 195 83 142 77 710 77 l510 0 0 -460 0 -460 -280 0
-280 0 0 205 0 205 126 151 c69 83 124 153 121 155 -2 3 -200 7 -438 10 -362
4 -437 3 -453 -9 -24 -18 -15 -47 15 -47 29 0 115 -91 169 -181 l45 -74 3
-207 3 -208 -53 0 c-51 0 -66 8 -363 183 l-310 183 -7 -60 c-13 -124 -21 -680
-9 -708 16 -41 38 -34 63 18 15 32 39 60 79 89 130 96 467 245 553 245 l46 0
0 -150 0 -150 25 0 25 0 0 150 0 150 155 0 155 0 0 -150 0 -150 25 0 25 0 0
150 0 150 281 0 282 0 -6 -152 c-17 -402 -20 -748 -7 -823 12 -69 15 -75 36
-75 22 0 24 4 24 48 0 117 153 249 477 412 l140 70 567 0 566 0 0 -260 0 -260
25 0 25 0 0 284 c0 306 4 335 55 402 68 89 315 235 592 350 l82 34 965 0 966
0 0 -520 0 -520 25 0 25 0 0 1123 0 1122 289 420 288 420 -56 7 c-58 7 -887
29 -1001 27 -36 -1 -87 -5 -113 -8z m1040 -69 l33 -7 -250 -365 c-138 -201
-254 -363 -258 -362 -4 2 -30 54 -58 115 -111 243 -247 461 -356 571 l-69 69
463 -7 c255 -4 478 -10 495 -14z m-2900 -21 c117 -4 215 -10 219 -13 4 -4
-332 -508 -370 -555 -1 -1 -29 16 -61 37 -33 22 -63 40 -67 40 -5 0 -8 -33 -8
-72 0 -166 -1 -166 -106 41 -116 230 -196 353 -294 454 l-76 77 276 -1 c151 0
370 -4 487 -8z m-2042 -358 c-6 -330 -12 -404 -34 -403 -3 0 -28 51 -56 112
-106 237 -250 470 -361 583 l-65 65 261 0 262 0 -7 -357z m407 341 l67 -7 -61
-88 -61 -88 -31 26 c-17 14 -66 55 -108 91 -43 36 -78 67 -78 69 0 5 202 3
272 -3z m-200 -128 l117 -98 -91 -132 c-50 -72 -111 -161 -136 -199 -25 -37
-47 -66 -48 -64 -2 2 -1 141 3 310 6 282 7 305 23 294 9 -7 69 -56 132 -111z
m244 -207 l84 -71 -108 -65 c-141 -84 -291 -200 -342 -264 l-40 -51 0 31 c0
23 38 87 157 261 87 126 159 230 162 230 2 0 41 -32 87 -71z m1162 -205 c29
-59 50 -109 47 -113 -4 -3 -329 -211 -723 -461 -394 -250 -717 -459 -717 -465
0 -13 1092 -742 1216 -812 73 -41 96 -50 111 -42 10 5 18 16 18 24 0 8 -52 58
-115 111 -133 110 -185 171 -231 269 -43 94 -58 170 -57 295 2 223 94 481 271
764 64 101 219 306 232 306 4 0 21 -32 39 -71 l31 -72 0 -823 0 -824 -568 0
-569 0 -306 222 -307 222 1 605 c1 334 4 593 6 576 10 -88 13 -96 36 -93 16 2
25 14 34 48 29 103 180 236 438 387 l90 52 485 1 485 0 53 -106z m225 -38 c23
-17 22 -25 -8 -61 l-24 -30 -1 53 c0 55 4 60 33 38z m337 -218 c148 -95 267
-174 265 -176 -2 -2 -54 -26 -115 -52 -216 -94 -406 -208 -485 -289 -21 -23
-43 -41 -48 -41 -5 0 -6 118 -2 287 l8 287 51 78 c28 43 52 78 54 78 2 0 124
-78 272 -172z m-3532 -92 c101 -60 182 -110 180 -111 -2 -2 -43 -19 -93 -40
-137 -56 -298 -141 -362 -191 l-58 -45 -3 158 c-2 87 0 217 3 290 l7 131 71
-42 c40 -23 154 -91 255 -150z m2746 -53 c-31 -49 -84 -146 -119 -218 -220
-445 -216 -804 10 -1054 22 -25 33 -41 25 -37 -23 13 -952 634 -978 654 l-24
18 569 362 c312 199 569 361 570 362 1 0 -23 -39 -53 -87z m3056 -518 l0 -455
-969 0 -969 0 -344 221 c-189 121 -347 225 -352 229 -16 16 16 69 75 124 89
83 275 189 514 292 l100 44 973 0 972 0 0 -455z m-5312 173 c7 -10 -10 -37
-65 -106 l-76 -92 -34 57 c-19 32 -53 79 -75 106 l-39 47 139 0 c100 0 143 -4
150 -12z m305 -92 l-87 -105 -34 57 c-19 31 -49 76 -68 98 -18 23 -30 44 -27
48 4 3 73 6 155 6 l148 0 -87 -104z m-206 -13 c93 -134 93 -134 93 -355 l0
-198 -155 0 -155 0 0 204 0 203 83 102 c45 55 85 101 88 101 3 0 24 -26 46
-57z m2970 -389 c128 -82 233 -152 233 -155 0 -3 -30 -19 -67 -34 -111 -46
-316 -152 -399 -206 -42 -28 -101 -74 -132 -102 l-55 -52 7 310 c4 171 9 351
13 402 l6 91 81 -52 c44 -29 186 -119 313 -202z m-3589 -79 l184 -108 -79 -32
c-188 -76 -356 -168 -426 -234 l-29 -26 6 225 c4 124 9 257 12 297 l6 72 71
-43 c40 -23 155 -91 255 -151z m1677 -435 c132 -95 244 -176 248 -180 5 -4
-53 -40 -129 -79 -165 -86 -284 -163 -364 -238 l-60 -55 0 387 0 387 33 -24
c17 -14 140 -103 272 -198z"/>
</g>
</svg>
