<?xml version="1.0" standalone="yes"?>
<svg xmlns="http://www.w3.org/2000/svg" width="753" height="371">
<path style="fill:#ffffff; stroke:none;" d="M0 0L0 371L753 371L753 0L0 0z"/>
<path style="fill:#000000; stroke:none;" d="M666 130L536 130C517.219 130 493.22 134.03 475 129.582C468.492 127.993 462.563 122.583 457 119.053C443.915 110.75 431.011 100.627 417 94L460 30C451.488 27.4839 441.804 29.5134 433 28.9105C410.447 27.3661 387.631 27 365 27C360.042 27 337.345 24.1447 336.466 31.0355C335.945 35.1235 346.32 37.9427 349 40.213C360.118 49.6309 367.084 62.0373 375 74C345.913 74 314.889 77.1179 286 73.8912C280.225 73.2462 265.761 63.0183 264.73 56.9854C263.493 49.7454 276.91 37.5316 280 31C261.02 28.6013 240.69 32.6753 223 25L223 29C206.326 29 189.718 27.9936 173 28C169.333 28.0014 158.394 27.0378 156.662 31.2739C155.402 34.3561 158.867 35.6286 161.019 36.5293C169.735 40.1771 175.641 46.6626 181.335 54C197.782 75.1938 216 105.833 216 133L146 133L113 132.362L49 96C48.9281 122.065 43.1998 150.144 48 176C55.2179 175.439 59.9609 165.245 66 161.039C78.8544 152.089 94.9402 144.441 110 140.043C120.608 136.945 134.008 139 145 139L216 139L216 230L160 230L160.6 191L186 158C162.707 158 139.36 157 116 157C109.021 157 94.7265 153.676 94 163C122.544 170.451 118 208.12 118 230C107.76 229.971 100.533 224.517 92 219.4C77.4286 210.662 61.9431 198.837 46 193C42.3883 212.454 44 234.218 44 254C44 257.644 41.9132 271.838 47.1204 272.534C50.4109 272.973 60.3436 259.428 64 257.004C78.3754 247.475 100.425 235.147 118 235L118 265L124 265L124 235L154 235L154 265L160 265L160 235L216 235C215.904 269.885 210.904 305.336 216 340L222 340C222.002 319.985 242.009 308.979 258 300.309C266.271 295.824 275.724 289.396 285 287.39C296.112 284.988 309.638 287 321 287L396 287L396 339L402 339L402 297C402 289.804 400.975 281.61 404.442 275C413.958 256.858 442.195 246.199 460 238.579C483.243 228.631 509.031 232 534 232L666 232L666 336L672 336L672 181L672 135C672 128.234 670.544 119.473 672.702 113C675.381 104.965 682.882 96.9233 687.72 90C701.439 70.3658 720.721 49.0587 730 27C721.782 24.5709 712.497 26.4924 704 25.9105C681.112 24.3431 657.968 24 635 24C627.785 24 620.158 23.3046 613.001 24.2901C610.845 24.587 606.636 25.0721 606.636 28.0386C606.636 31.6776 612.551 32.5913 615 33.9159C622.182 37.8003 627.581 44.5642 632.37 51C648.988 73.3316 666 101.813 666 130z"/>
<path style="fill:#ffffff; stroke:none;" d="M622 30C641.356 54.0055 655.718 76.9693 669 105L670 105L700.141 61L719 32L622 30M351 33L351 34C372.215 48.9441 386.259 79.6026 396 103L397 103L398 82L412 90L449 35L351 33M171 34L171 35C192.135 49.8881 210.91 84.3777 218 109C223.918 105.266 222 96.1532 222 90C222 71.611 223 53.3559 223 35L171 34M237 35L257 53L258 53L269 36L237 35M229 37L227 97L228 97C234.373 87.632 240.791 78.2874 247.28 69C249.204 66.2466 253.521 61.7046 252.553 58.0394C250.667 50.8986 234.932 41.1293 229 37M258 63C251.24 73.021 244.555 83.1305 237.576 93C233.264 99.0975 227.516 105.294 227 113L228 113C238.341 97.3689 258.213 84.8377 275 77C270.9 71.2274 264.651 65.5759 258 63M222 127L222 203C222 212.199 219.085 227.307 222.603 235.826C226.108 244.314 242.74 252.001 250 257.371C259.557 264.44 271.686 276.778 283 280.436C292.939 283.649 307.57 281 318 281L396 281L396 169C396 146.431 398.637 124.051 390 103C380.404 107.676 373.432 121.311 367.667 130C348.416 159.019 329.779 200.001 343.066 235C348.13 248.341 358.233 257.595 369 266.424C371.507 268.48 379.663 273.49 377.744 277.64C376.204 280.97 370.981 277.75 369 276.691C360.338 272.057 352.282 266.309 344 261.053C321.401 246.712 299.13 231.715 277 216.656C265.934 209.126 254.986 199.962 243 194C252.919 185.567 265.058 179.342 276 172.308C299.576 157.151 323.18 141.962 347 127.192C356.396 121.366 365.631 115.29 375 109.424C378.532 107.213 384.973 104.603 386.867 100.674C389.274 95.6839 380.157 80.0062 374.957 79.1481C356.997 76.1846 336.222 79 318 79C307.108 79 293.59 76.8361 283 79.4182C267.788 83.1273 247.539 98.6857 237.174 110.015C232.621 114.99 229.399 129.043 222 127M403 92L403 102L404 102L408 95L403 92M412 99C409.071 104.26 404.33 109.136 402.72 115C398.261 131.239 402 153.168 402 170C422.824 155.345 442.179 142.773 466 133L433 111L412 99M54 106L53 163L84 144.248L104 135C88.8641 125.016 71.01 112.228 54 106M365 122L304 161.053L253 193L253 194L350 258C345.001 249.224 339.132 241.806 336.029 232C328.298 207.577 335.798 180.595 345.861 158C350.627 147.299 363.678 133.158 365 122M403 182L452 213.053L472 225.298L492 226L532 226L666 226L666 136L532 136C507.643 136 481.666 132.416 459 142.15C441.261 149.769 409.035 161.674 403 182M108 163L121 183C126.928 178.636 133.618 171.022 136 164L108 163M145 164L157 183L174 163L145 164M124 230L154 230C154 215.897 157.778 195.537 150.712 183C149.003 179.968 145.118 171.207 140.996 171.207C137.211 171.207 133.216 178.435 131.08 181C120.075 194.216 124 213.489 124 230M403 189L402 266C422.099 252.008 441.419 238.029 465 230L465 228L403 189M51 203L50 259L76 243.248L101 232L51 203M222 245L222 318L276 284L276 283C259.101 270.896 241.143 253.052 222 245z"/>
</svg>
