<?xml version="1.0" standalone="yes"?>
<svg xmlns="http://www.w3.org/2000/svg" width="590" height="371">
<!-- <path style="fill:#ffffff; stroke:none;" d="M0 0L0 371L590 371L590 0L0 0z"/>
--><path style="fill:#000000; stroke:none;" d="M459 111C443.995 111 422.256 115.045 408 110.436C402.875 108.779 398.251 104.062 394 100.873C389.915 97.8098 382.681 94.2514 381.319 88.9606C376.973 72.0884 391.389 54.0773 393 38C381.913 46.9467 367.556 63.3459 361 76L355 73C354.992 83.5962 348.783 89.2694 342.13 97C330.11 110.968 317.859 123.133 304 135.285C292.89 145.026 281.677 154.83 271 165.039C265.776 170.035 260.53 177.707 254 180.972C245.858 185.043 230.026 182 221 182L154 182C144.725 182 131.744 184.317 123 181.005C95.9596 170.764 74.2587 146.274 48 134C47.9971 159.981 46 185.947 46 212C46 216.513 43.4668 234.313 48.4151 236.338C52.1031 237.847 60.9827 222.837 64 220.184C79.6527 206.425 101.662 196.923 121 189.619C135.368 184.192 156.724 188 172 188C199.991 188 228.061 188.66 256 188.66C265.851 188.66 276.158 186.717 286 188.325C302.398 191.004 325.462 198.946 339 208.637C343.483 211.846 350.289 217.444 351.682 223C353.352 229.66 352 238.149 352 245L352 292C352 297.303 349.406 312.545 353.588 316.338C357.295 319.701 362.827 307.265 365.04 305.039C373.166 296.869 383.775 290.879 394 285.753C397.264 284.117 402.183 280.412 406 280.994C413.464 282.132 422.523 295.6 427.285 301C442.168 317.874 458.131 334.133 474 350L475 350C480.698 341.705 469.375 338.886 468.148 331C465.629 314.807 468 296.402 468 280L536 280L536 274L468 274L468 224L536 224L536 218L468 218L468 172L536 172L536 166L468 166L468 116L536 116L536 111L472 111C489.561 85.1846 512.65 59.2206 526 31C495.143 27.1002 462.117 28 431 28C423.711 28 416.224 27.4888 409.001 28.5803C406.838 28.9071 402.636 29.0179 402.636 32.0903C402.636 35.348 406.697 36.1624 409.001 37.2053C414.789 39.8258 419.386 44.1505 423.385 49C438.724 67.6009 448.762 89.3931 459 111z"/>
<path style="fill:#ffffff; stroke:none;" d="M418 34L440.947 63L465 109L466 109L497.424 63L515 36L418 34M377 65L365 80L375 87L377 65M360 85L359 124C368.553 125.972 373.106 127.92 382 123C379.518 109.033 375.566 89.0463 360 85M353 94L334 117L354 122L353 94M382 100C382.093 104.388 383.239 117.201 389.108 117.759C392.26 118.059 396.164 115.181 399 114L399 112L382 100M392 124C396.653 129.711 403.242 132.511 410 135.05C412.557 136.011 417.621 137.154 418.539 140.166C420.179 145.555 410.138 143.047 408 142.576C397.453 140.251 379.24 130.816 370 138L370 139C379.851 147.524 393.654 160.879 406 165.272C411.306 167.161 418.435 166 424 166L462 166L462 131C462 127.469 463.301 120.543 460.972 117.603C458.167 114.061 447.087 116 443 116C424.879 116 407.778 113.594 392 124M328 121C333.139 140.865 336.23 161.779 339.75 182C341.677 193.069 342.161 204.045 352 211L353.424 146L351.972 128.728L328 121M382 129L382 130L391 132C388.238 128.465 386.318 127.75 382 129M265 180L319 182L319 188L308 188L308 189L337 200L324 128L305 142.834L265 180M359 130L364 135L365 135L367 132L359 130M364 143C358.625 152.417 358.995 165.256 359 176C359.002 180.545 359.273 186.786 365.005 187.839C368.557 188.491 372.282 184.82 375 183.001C382.747 177.817 390.974 173.684 399 169C391.218 159.441 375.374 147.785 364 143M53 144L52 222C72.9973 207.267 92.7584 196 116 185L91 168.308L53 144M372 194L405 217.436L424 218L462 218L462 172C436.764 172 411.598 168.254 389 180.862C383.089 184.16 375.159 187.817 372 194M359 192L359 195L361 194L361 193L359 192M366 197C356.891 207.794 355.91 216.962 366 226.999C368.15 229.138 370.769 232.576 374 232.978C380.02 233.728 392.699 224.094 398 221L398 220L366 197M378 238L400.999 264L411.09 273.397L427 274L462 274L462 224L405 224.529L378 238M358 228C357.839 235.776 357.538 244.503 368 239L358 228M368 247L392 264C388.742 257.719 374.808 239.14 368 247M362 251C354.738 265.214 357 287.153 357 303L398 277C390.72 268.057 373.215 253.915 362 251M417 280L461 328L462 328L462 280L417 280z"/>
</svg>
