<?xml version="1.0" standalone="no"?>
<!DOCTYPE svg PUBLIC "-//W3C//DTD SVG 20010904//EN"
 "http://www.w3.org/TR/2001/REC-SVG-20010904/DTD/svg10.dtd">
<svg version="1.0" xmlns="http://www.w3.org/2000/svg"
 width="590.000000pt" height="371.000000pt" viewBox="0 0 590.000000 371.000000"
 preserveAspectRatio="xMidYMid meet">
<metadata>
Created by potrace 1.16, written by Peter Selinger 2001-2019
</metadata>
<g transform="translate(0.000000,371.000000) scale(0.100000,-0.100000)"
fill="#000000" stroke="none">
<path d="M4118 3421 c-42 -3 -82 -11 -88 -17 -18 -18 0 -43 37 -50 76 -14 185
-124 293 -297 65 -104 229 -422 230 -444 0 -10 -59 -13 -263 -13 l-263 0 -126
93 -127 92 0 63 c-1 81 31 238 68 339 16 43 34 92 40 108 l11 30 -22 -25 c-13
-15 -86 -101 -164 -192 l-140 -165 -27 19 -27 20 0 -52 0 -51 -137 -162 c-163
-192 -120 -149 -333 -337 -96 -85 -257 -230 -357 -322 l-182 -168 -658 0 -658
0 -368 236 c-203 130 -370 234 -372 232 -2 -2 -9 -165 -16 -363 -13 -416 -10
-628 9 -647 18 -18 41 0 57 46 8 21 31 56 52 78 82 85 299 211 536 312 l108
46 823 0 824 0 78 -24 c113 -34 265 -92 369 -141 69 -32 102 -55 143 -98 l52
-56 1 -203 c1 -112 0 -324 0 -473 -1 -148 2 -276 7 -283 16 -24 46 -9 56 28
21 72 167 186 373 289 57 28 107 51 112 51 17 0 551 -573 551 -592 0 -10 7
-18 17 -18 10 0 38 -20 63 -45 42 -42 47 -44 65 -31 19 14 18 17 -32 68 l-53
54 0 282 0 282 340 0 340 0 0 25 0 25 -340 0 -340 0 0 250 0 250 338 2 337 3
0 25 0 25 -337 3 -338 2 0 230 0 230 338 2 337 3 0 25 0 25 -337 3 -338 2 0
250 0 250 340 0 340 0 0 25 0 25 -324 0 -325 0 273 398 272 397 -75 6 c-42 4
-213 10 -381 13 -168 4 -372 8 -455 10 -82 2 -185 1 -227 -3z m989 -70 l52 -6
-249 -364 c-137 -200 -251 -366 -253 -368 -3 -2 -50 88 -105 199 -117 235
-217 392 -315 491 l-69 70 443 -7 c244 -5 467 -11 496 -15z m-1332 -350 c-8
-40 -15 -90 -15 -111 0 -21 -4 -42 -10 -45 -14 -9 -100 58 -95 73 5 15 128
160 133 157 1 -1 -4 -34 -13 -74z m-83 -188 c32 -24 60 -54 62 -66 2 -12 9
-50 15 -85 5 -35 22 -88 36 -119 14 -31 24 -57 23 -58 -2 -1 -22 -14 -46 -29
-45 -28 -53 -28 -161 6 l-34 10 7 191 c4 105 10 195 12 199 7 10 14 6 86 -49z
m-150 -176 l-3 -154 -101 29 c-56 15 -102 29 -104 30 -1 3 206 248 210 248 0
0 0 -69 -2 -153z m376 8 c45 -33 81 -63 82 -66 0 -3 -27 -18 -60 -34 -59 -28
-60 -28 -74 -9 -16 20 -42 97 -52 153 -8 40 -11 41 104 -44z m702 -345 l0
-250 -283 0 -284 0 -174 131 c-96 71 -178 134 -182 138 -5 5 5 18 22 30 l31
22 205 -51 c113 -29 212 -49 221 -46 9 3 14 15 12 27 -2 17 -23 30 -96 59 -88
35 -161 82 -169 107 -3 7 29 28 69 47 l73 36 278 0 277 0 0 -250z m-1261 181
c36 -11 93 -27 125 -36 l59 -16 -7 -412 c-3 -226 -10 -415 -14 -419 -4 -4 -25
10 -47 32 l-39 40 -72 379 c-39 208 -74 395 -78 415 -4 20 -4 36 0 36 4 0 37
-9 73 -19z m-50 -416 c38 -198 68 -361 67 -362 -1 -1 -42 15 -92 36 -49 21
-118 49 -154 62 l-65 24 63 3 c61 3 62 3 62 31 l0 29 -212 6 c-117 3 -241 9
-275 12 l-61 6 126 118 c231 214 467 420 470 407 1 -6 33 -174 71 -372z m591
345 c39 -34 34 -36 -40 -14 -53 16 -54 16 -30 30 32 17 29 18 70 -16z m-226
-26 c-3 -22 -32 -26 -57 -8 -42 30 -34 44 16 29 23 -7 41 -16 41 -21z m149
-225 c89 -67 166 -125 170 -129 5 -4 -40 -34 -100 -66 -59 -32 -133 -78 -165
-101 -32 -24 -63 -43 -68 -43 -6 0 -24 10 -40 22 l-30 22 1 130 c0 72 4 154 8
182 7 52 33 104 52 104 5 0 83 -55 172 -121z m-2935 -114 c154 -99 279 -181
277 -183 -2 -2 -66 -32 -142 -66 -224 -101 -357 -181 -457 -275 l-59 -56 7
255 c3 140 9 321 12 403 l7 148 37 -23 c21 -13 164 -104 318 -203z m3732 -285
l0 -230 -290 0 -289 0 -163 121 c-90 66 -164 124 -166 129 -5 13 109 87 233
152 l110 58 283 0 282 0 0 -230z m-1011 26 c9 -10 8 -16 -4 -26 -13 -11 -15
-8 -15 14 0 30 3 32 19 12z m214 -158 c84 -61 156 -115 161 -119 5 -4 -27 -26
-70 -48 -44 -22 -102 -54 -130 -71 l-51 -30 -76 79 c-75 77 -77 80 -77 129 0
28 5 54 10 57 6 3 10 14 10 23 0 21 47 92 61 92 6 0 79 -50 162 -112z m797
-408 l0 -250 -259 0 -259 0 -166 174 -167 175 43 27 c24 15 85 49 136 76 l92
48 290 0 290 0 0 -250z m-930 110 c0 -3 -15 -15 -32 -27 l-31 -22 -29 20 c-26
19 -28 25 -28 87 l0 66 60 -59 c33 -33 60 -62 60 -65z m184 -195 c61 -66 104
-115 96 -109 -8 6 -79 59 -158 117 l-142 105 26 21 c33 26 21 34 178 -134z
m-50 -64 l167 -124 -89 -47 c-122 -65 -224 -132 -284 -188 l-51 -47 7 234 c7
228 11 256 44 293 18 21 1 31 206 -121z m796 -396 c0 -135 -2 -245 -4 -245 -6
0 -450 470 -454 481 -2 5 94 9 227 9 l231 0 0 -245z"/>
</g>
</svg>
