<?xml version="1.0" standalone="yes"?>
<svg xmlns="http://www.w3.org/2000/svg" width="388" height="371">
<!-- <path style="fill:#ffffff; stroke:none;" d="M0 0L0 371L388 371L388 0L0 0z"/>
--><path style="fill:#000000; stroke:none;" d="M298 309L235 309L235 245L236.028 218L271 178C262.116 178 242.814 180.329 235.185 175.972C226.508 171.016 219.358 152.492 214.203 144C205.007 128.851 190.183 111.824 184.699 95C179.852 80.1287 184 57.6518 184 42C170.601 46.2696 157.194 58.9779 146 67.3734C143.114 69.5378 134.417 74.0967 135.752 78.6852C136.702 81.9524 145.222 80.876 148 81.7531C157.92 84.8851 169.174 91.4545 176.957 98.3256C184.338 104.842 189.087 115.671 194.189 124C205.024 141.685 215.407 159.802 227 177L180 177L159.185 176.397L146.189 158L133.419 136L133 84C119.575 87.1546 105.039 101.601 94 109.735C91.174 111.817 83.4671 116.264 84.7515 120.679C85.6456 123.752 90.7317 122.283 93 122.557C100.559 123.472 107.637 128.173 114 132C131.643 142.613 139.51 159.864 150 177C147.337 177 135.166 175.489 136.752 180.781C137.781 184.217 146.251 186.782 149 189.185C156.993 196.173 165.516 206.154 169.775 216C173.239 224.008 171 236.382 171 245L171 309C156.656 309 137.838 312.245 124 308.502C99.0309 301.747 76.9157 280.96 53 271C53 291.336 51 311.622 51 332C51 336.545 48.8306 349.164 53.4151 351.914C57.1245 354.138 64.9798 341.975 68 339.785C82.9425 328.955 102.466 321.735 120 316.348C136.777 311.194 159.495 315 177 315L298 315L298 342L304 342L304 191C304 168.503 299.644 140.959 304.39 119C306.261 110.348 312.521 101.712 316.691 94C327.085 74.7823 341.964 52.9543 348 32C324.675 32 301.395 30 278 30C273.059 30 257.291 27.4481 254.047 31.7384C250.961 35.8209 264.156 44.0447 266.482 47C279.004 62.9111 285.575 84.2735 292.576 103C301.284 126.293 298 152.424 298 177L298 309z"/>
<path style="fill:#ffffff; stroke:none;" d="M265 35C281.05 58.0602 292.273 82.1801 301 109L302 109L339 37L265 35M177 53L147 74L178 91C178 80.0894 181.211 63.0359 177 53M96 117L127 132L127 95C116.889 98.8333 102.879 108.671 96 117M153 183L156 186L153 183M162 183L176 208L178 208L199 184L162 183M211 183L232 210C240.786 205.903 253.923 191.743 258 183L238 183L242 191C234.487 192.49 235.629 186.052 229.815 183.603C224.713 181.455 216.484 183 211 183M205 187C198.025 193.975 186.042 203.108 181.817 212C178.98 217.97 188.01 224.304 189.269 229.814C191.066 237.672 182.568 228.944 181.403 227.005C180.214 225.026 179.084 223.036 178 221L177 221L177 309L230 309L230 247C230 238.045 231.874 226.658 229.501 218C226.527 207.151 214.548 192.534 205 187M58 281L57 340C75.1253 328.713 93.8189 316.902 115 312L90 297.691L58 281z"/>
</svg>
