<?xml version="1.0" standalone="no"?>
<!DOCTYPE svg PUBLIC "-//W3C//DTD SVG 20010904//EN"
 "http://www.w3.org/TR/2001/REC-SVG-20010904/DTD/svg10.dtd">
<svg version="1.0" xmlns="http://www.w3.org/2000/svg"
 width="461.000000pt" height="371.000000pt" viewBox="0 0 461.000000 371.000000"
 preserveAspectRatio="xMidYMid meet">
<metadata>
Created by potrace 1.16, written by Peter Selinger 2001-2019
</metadata>
<g transform="translate(0.000000,371.000000) scale(0.100000,-0.100000)"
fill="#000000" stroke="none">
<path d="M2302 2587 l-583 -372 26 -21 c14 -11 129 -90 254 -175 l228 -154
-385 -3 -385 -2 -384 221 c-282 163 -387 219 -393 209 -9 -15 -24 -440 -24
-717 -1 -170 1 -194 16 -210 21 -20 28 -15 61 47 47 91 254 215 565 339 l154
61 428 0 429 0 133 -87 c73 -47 162 -104 198 -126 36 -22 157 -108 270 -191
259 -191 399 -286 421 -286 9 0 20 7 23 16 5 12 -25 50 -107 133 -128 131
-159 183 -184 308 -11 57 -14 102 -8 157 l7 76 474 0 474 0 0 25 0 25 -465 0
c-313 0 -465 3 -465 10 0 45 104 272 177 387 55 88 139 197 210 274 34 38 63
71 63 74 0 2 -30 -13 -67 -34 -38 -21 -270 -152 -518 -291 -247 -139 -454
-255 -459 -258 -16 -9 2 200 24 278 44 156 183 411 309 565 54 66 76 96 69 94
-2 0 -265 -168 -586 -372z m329 99 c-132 -215 -202 -423 -202 -601 l-1 -94
-79 -46 -79 -46 -226 152 c-123 84 -223 156 -222 161 4 10 841 546 846 542 2
-1 -15 -31 -37 -68z m602 -372 c-75 -112 -150 -263 -186 -374 l-24 -75 -251
-3 -250 -2 -16 40 c-9 22 -16 46 -16 53 0 10 800 469 807 462 2 -1 -27 -46
-64 -101z m-2174 -284 c176 -102 321 -187 321 -190 0 -3 -28 -15 -62 -28 -109
-38 -340 -146 -425 -196 -45 -27 -105 -69 -133 -93 l-50 -45 0 184 c0 246 11
559 20 556 4 -2 152 -86 329 -188z m1391 -126 c6 -14 10 -30 10 -35 0 -14 -64
-11 -85 5 -18 13 -17 15 15 35 44 27 48 26 60 -5z m50 -114 c6 -11 9 -20 7
-20 -2 0 -12 9 -22 20 -10 11 -13 20 -7 20 6 0 16 -9 22 -20z m505 -102 c0
-139 18 -209 80 -312 19 -31 28 -53 22 -49 -58 35 -293 217 -332 257 -28 28
-80 77 -117 109 -37 31 -76 71 -88 87 l-21 30 228 0 228 0 0 -122z"/>
</g>
</svg>
