<?xml version="1.0" standalone="yes"?>
<svg xmlns="http://www.w3.org/2000/svg" width="507" height="371">
<path style="fill:#ffffff; stroke:none;" d="M0 0L0 371L507 371L507 0L0 0z"/>
<path style="fill:#000000; stroke:none;" d="M455 88C422.062 108.232 389.643 129.349 357 150.053C344.21 158.165 328.613 172.495 314 176.501C303.916 179.265 290.442 177 280 177L208 177L161 177C154.362 177 145.319 178.586 139 176.411C131.19 173.723 123.408 165.127 117 160C100.766 147.012 84.6215 132.011 67 121C64.6449 150.841 65 181.026 65 211C65 215.968 62.1686 237.124 67.3897 239.338C70.2469 240.549 80.1904 222.811 83.0008 220.001C96.969 206.032 121.203 187.67 141 183.39C153.016 180.793 167.71 183 180 183L261 183C275.329 183 297.598 178.768 311 183.843C330.075 191.068 348.987 208.992 366 220.333C384.915 232.943 403.678 245.827 423 257.808C426.8 260.164 438.751 270.283 443.392 266.929C447.118 264.236 441.972 259.211 439.981 257.428C430.47 248.91 420.652 242.09 413.815 231C392.384 196.238 413.259 151.77 432.425 121C437.217 113.307 442.537 106.068 448.2 99C450.735 95.8358 455.105 92.1701 455 88z"/>
<path style="fill:#ffffff; stroke:none;" d="M431 110C406.453 128.73 378.18 144.035 352 160.424C345.392 164.561 326.158 172.614 323.662 180.17C321.616 186.363 338.771 194.778 343 197.656C358.566 208.248 374.334 218.556 390 229C398.113 234.409 406.664 242.025 416 245C394.462 212.304 396.185 180.214 412.309 145C417.034 134.68 429.717 120.83 431 110M72 133L70 224L71 224C85.2228 205.333 109.451 189.974 131 181L112 163.881L72 133z"/>
</svg>
