<?xml version="1.0" standalone="no"?>
<!DOCTYPE svg PUBLIC "-//W3C//DTD SVG 20010904//EN"
 "http://www.w3.org/TR/2001/REC-SVG-20010904/DTD/svg10.dtd">
<svg version="1.0" xmlns="http://www.w3.org/2000/svg"
 width="639.000000pt" height="371.000000pt" viewBox="0 0 639.000000 371.000000"
 preserveAspectRatio="xMidYMid meet">
<metadata>
Created by potrace 1.16, written by Peter Selinger 2001-2019
</metadata>
<g transform="translate(0.000000,371.000000) scale(0.100000,-0.100000)"
fill="#000000" stroke="none">
<path d="M3270 2964 c-419 -316 -475 -354 -988 -680 -394 -251 -547 -343 -555
-335 -8 8 -139 11 -428 11 l-418 0 -196 166 c-108 91 -198 165 -200 163 -7 -8
-18 -667 -11 -693 10 -39 47 -32 58 10 16 64 123 160 284 254 l69 40 416 0
416 0 289 -196 c159 -107 371 -248 471 -312 101 -64 183 -122 183 -127 0 -13
936 -638 1033 -690 55 -30 70 -35 82 -25 8 7 15 18 15 26 0 7 -44 49 -98 93
-149 122 -213 225 -232 377 -19 149 27 350 124 540 l45 89 0 -108 c1 -60 6
-117 11 -128 18 -32 40 -22 61 29 11 26 35 62 52 80 75 79 253 185 474 283
l133 59 765 0 765 0 0 25 0 25 -763 0 -763 0 -353 230 c-195 127 -355 229
-358 226 -3 -2 -9 -118 -14 -258 -5 -139 -13 -256 -17 -260 -4 -4 -205 -132
-447 -286 l-440 -279 -75 61 c-86 71 -147 156 -175 241 -29 86 -27 250 3 364
43 161 47 152 43 -97 -3 -207 -1 -229 14 -242 16 -13 19 -12 34 9 51 77 157
143 354 220 l78 31 244 0 245 0 0 25 0 25 -239 0 -239 0 -218 125 c-121 69
-220 129 -222 135 -7 19 129 244 194 322 l22 27 123 -86 c150 -105 495 -333
531 -352 15 -7 34 -11 42 -8 31 12 16 45 -48 101 -44 38 -74 75 -93 114 -25
51 -28 68 -28 152 1 219 127 481 387 808 6 6 9 12 7 11 -2 0 -204 -151 -449
-335z m151 -10 c-141 -249 -186 -490 -118 -638 l27 -58 -28 18 c-149 97 -439
301 -439 309 0 10 599 465 605 460 2 -2 -19 -43 -47 -91z m-795 -546 c-18 -29
-56 -98 -83 -153 -167 -334 -176 -600 -26 -815 l18 -25 -30 19 c-150 96 -704
473 -702 478 2 6 847 548 854 548 2 0 -12 -24 -31 -52z m1376 -293 c155 -102
285 -190 286 -195 2 -6 -2 -10 -8 -10 -24 0 -322 -150 -407 -205 -48 -31 -112
-80 -140 -108 l-53 -51 0 110 0 111 57 79 c31 43 76 102 100 130 23 28 43 54
43 58 0 3 -42 -21 -93 -54 -52 -33 -96 -60 -98 -60 -3 0 6 356 10 383 0 5 5 6
10 3 5 -3 137 -89 293 -191z m-3225 -134 c29 -24 51 -47 48 -50 -2 -4 -42 -31
-90 -60 -47 -28 -115 -80 -152 -114 l-66 -62 6 139 c4 77 7 188 7 248 l0 109
98 -83 c53 -46 121 -103 149 -127z m1994 53 c93 -53 169 -100 169 -104 0 -4
-12 -11 -27 -15 -47 -11 -233 -103 -284 -140 l-49 -35 0 88 c0 108 11 302 18
302 2 0 80 -43 173 -96z m804 -349 c-112 -203 -167 -381 -168 -555 -2 -155 29
-251 120 -379 20 -27 -97 47 -486 310 -177 119 -265 185 -266 197 -2 26 849
566 853 543 1 -9 -22 -61 -53 -116z"/>
</g>
</svg>
