<?xml version="1.0" standalone="yes"?>
<svg xmlns="http://www.w3.org/2000/svg" width="527" height="371">
<!-- <path style="fill:#ffffff; stroke:none;" d="M0 0L0 371L527 371L527 0L0 0z"/>
--><path style="fill:#000000; stroke:none;" d="M270 68C253.295 73.3232 236.831 87.9709 222 97.3187C188.962 118.142 156.277 139.56 123 160C128.367 166.592 138.057 172.989 146 176L146 177C130.049 177 122.163 168.93 110 159.2C94.0928 146.475 78.266 131.788 61 121C58.6188 151.173 59 181.693 59 212C59 219.29 58.5801 226.721 59.044 233.995C59.188 236.254 59.7422 239.954 62.8812 239.534C66.2482 239.083 66.7687 233.434 67.9992 231C70.9362 225.19 76.295 220.465 81 216.09C98.6586 199.669 126.181 181.199 151 183.055C159.77 183.711 168.89 192.593 176 197.333C194.284 209.523 212.601 221.646 231 233.656C237.108 237.643 243.468 241.838 250 245.095C252.037 246.111 256.19 247.971 257.914 245.393C261.164 240.531 248.907 232.783 246 230.385C230.554 217.643 221.523 202.859 219 183L296 183L296 341L301 341L301 183L346 183C352.766 183 361.527 181.544 368 183.702C374.74 185.949 381.125 191.75 387 195.667L424 220.333C433.839 226.859 443.846 233.173 454 239.199C456.651 240.772 462.119 244.677 465.214 241.968C469.64 238.095 459.348 231.28 457 229.4C442.538 217.82 430.986 204.696 427.46 186C421.229 152.961 439.773 117.603 457.515 91C463.496 82.033 472.643 73.776 477 64C464.308 68.8037 452.491 78.743 441 85.9499C416.927 101.048 392.83 116.178 369 131.657C358.514 138.468 336.779 146.849 331 158L359 176L359 177L301 177L301 137L301.843 118L314.33 99L344.344 55L359 32C350.782 29.571 341.497 31.4924 333 30.9105C310.447 29.3661 287.631 29 265 29C260.128 29 236.909 26.1962 236.037 33.0355C235.536 36.9656 244.513 38.8687 247 40.6381C256.698 47.5368 263.454 58.2977 270 68z"/>
<path style="fill:#ffffff; stroke:none;" d="M251 35L251 36C273.415 53.0787 287.536 84.4934 298 110L317.025 84L349 37L251 35M269 69C245.548 100.638 219.027 135.524 219 177L296 177C296 158.979 299.153 137.658 295.621 120C292.18 102.799 279.825 83.9636 271 69L269 69M452 86L342 156L342 158L437 221C432.717 212.391 426.74 205.365 423.746 196C416.41 173.049 422.462 146.432 431.861 125C435.635 116.393 439.814 108.094 444.603 100C447.1 95.7811 451.426 90.8769 452 86M134 160C152.391 183.829 186.592 177 213 177C213.265 145.037 230.056 117.945 245 91L213 110.308L134 160M66 133L64 224L65 224C79.2228 205.333 103.451 189.974 125 181L106 163.881L66 133M167 183L167 184L231 226C221.663 211.826 215.175 200.119 213 183L167 183z"/>
</svg>
