<?xml version="1.0" standalone="yes"?>
<svg xmlns="http://www.w3.org/2000/svg" width="373" height="371">
<path style="fill:#ffffff; stroke:none;" d="M0 0L0 371L373 371L373 0L0 0z"/>
<path style="fill:#000000; stroke:none;" d="M198 181L150 181L127 180.301L108 168.808L51 133C50.7849 158.987 49 184.93 49 211C49 215.536 46.4613 233.253 51.3897 235.338C55.5908 237.116 58.0671 228.392 59.7894 226.004C66.3779 216.869 78.1999 210.396 88 205.255C100.111 198.903 113.537 190.57 127 187.529C148.576 182.654 175.858 187 198 187L198 340L203 340L203 187L322 187L322 181L203 181L203 139L203.513 118L219.975 93L262 31C230.943 28.5489 199.173 28 168 28C162.379 28 141.105 25.0705 138.256 31.2731C136.361 35.4004 145.686 37.5954 148 39.1088C158.082 45.702 165.64 56.8643 171.797 67C181.154 82.404 193.406 101.262 197.471 119C201.788 137.839 198 161.66 198 181z"/>
<path style="fill:#ffffff; stroke:none;" d="M153 34L153 35C175.481 52.1286 189.51 83.431 200 109L219.999 82L251 36L153 34M56 143L54 222C75.2133 207.057 94.3954 193.546 119 184L119 183L56 143z"/>
</svg>
