<?xml version="1.0" standalone="no"?>
<!DOCTYPE svg PUBLIC "-//W3C//DTD SVG 20010904//EN"
 "http://www.w3.org/TR/2001/REC-SVG-20010904/DTD/svg10.dtd">
<svg version="1.0" xmlns="http://www.w3.org/2000/svg"
 width="373.000000pt" height="371.000000pt" viewBox="0 0 373.000000 371.000000"
 preserveAspectRatio="xMidYMid meet">
<metadata>
Created by potrace 1.16, written by Peter Selinger 2001-2019
</metadata>
<g transform="translate(0.000000,371.000000) scale(0.100000,-0.100000)"
fill="#000000" stroke="none">
<path d="M1490 3423 c-36 -2 -75 -5 -87 -8 -33 -8 -30 -43 5 -56 76 -30 118
-58 168 -112 99 -110 222 -316 340 -567 l59 -125 3 -677 2 -678 -417 0 -418 1
-370 239 -370 239 -7 -47 c-9 -67 -23 -913 -14 -945 11 -46 43 -35 70 26 26
60 85 117 187 183 91 59 264 148 405 207 l112 47 411 0 411 0 0 -420 0 -420
25 0 25 0 0 420 0 420 540 0 540 0 0 25 0 25 -540 0 -540 0 0 674 0 673 290
424 291 424 -78 6 c-43 4 -211 10 -373 13 -162 3 -365 8 -450 10 -85 1 -184 1
-220 -1z m763 -62 c136 -5 250 -11 253 -14 5 -5 -300 -457 -454 -675 l-44 -63
-98 198 c-118 238 -215 389 -313 489 l-73 74 241 0 c132 -1 352 -5 488 -9z
m-1482 -1978 c169 -109 308 -201 309 -204 0 -3 -30 -19 -67 -34 -217 -90 -433
-216 -531 -308 l-55 -52 7 365 c6 342 11 430 23 430 3 0 144 -89 314 -197z"/>
</g>
</svg>
