<?xml version="1.0" standalone="yes"?>
<svg xmlns="http://www.w3.org/2000/svg" width="373" height="371">
<!-- <path style="fill:#ffffff; stroke:none;" d="M0 0L0 371L373 371L373 0L0 0z"/>
--><path style="fill:#000000; stroke:none;" d="M198 251L142 251C134.093 251 123.549 252.814 116 250.298C88.2929 241.062 67.5322 213.08 40 203C37.7613 210.574 39.304 219.159 38.9606 227C38.1763 244.911 37.0012 263.071 37 281C36.9997 285.249 35.2061 304.146 41.0401 305.079C44.374 305.612 49.6986 294.343 52.0154 292.015C61.8151 282.166 75.3677 274.507 88 268.861C97.4294 264.647 107.754 258.125 118 256.329C143.112 251.927 172.48 256 198 256L198 340L203 340L203 256L311 256L311 251L203 251L203 158C203 146.235 199.544 127.979 203.854 117C207.175 108.539 214.825 100.472 219.975 93C233.963 72.7045 250.009 52.5161 262 31C230.943 28.5489 199.173 28 168 28C162.379 28 141.105 25.0705 138.256 31.2731C136.564 34.9578 150.479 40.7756 153 43.0934C166.929 55.9001 175.997 73.4518 184.68 90C189.294 98.7948 195.245 109.288 197.471 119C201.105 134.858 198 154.731 198 171L198 251z"/>
<path style="fill:#ffffff; stroke:none;" d="M153 34L153 35C175.481 52.1286 189.51 83.431 200 109L219.999 82L251 36L153 34M45 213L43 291C63.4746 276.591 82.825 262.232 107 254L107 252L45 213z"/>
</svg>
