<?xml version="1.0" standalone="no"?>
<!DOCTYPE svg PUBLIC "-//W3C//DTD SVG 20010904//EN"
 "http://www.w3.org/TR/2001/REC-SVG-20010904/DTD/svg10.dtd">
<svg version="1.0" xmlns="http://www.w3.org/2000/svg"
 width="652.000000pt" height="371.000000pt" viewBox="0 0 652.000000 371.000000"
 preserveAspectRatio="xMidYMid meet">
<metadata>
Created by potrace 1.16, written by Peter Selinger 2001-2019
</metadata>
<g transform="translate(0.000000,371.000000) scale(0.100000,-0.100000)"
fill="#000000" stroke="none">
<path d="M2698 3144 c-10 -3 -18 -10 -18 -15 0 -5 -97 -9 -234 -9 -129 0 -241
-3 -250 -6 -31 -12 -18 -43 23 -54 37 -10 147 -88 137 -97 -2 -3 -44 18 -91
47 -48 28 -88 50 -90 48 -4 -5 -26 -575 -32 -830 l-6 -248 -436 0 -436 0 -374
240 c-206 132 -375 239 -376 238 -6 -6 -25 -678 -24 -818 1 -165 6 -194 35
-198 17 -2 25 7 39 44 10 26 38 67 61 91 84 83 302 208 546 312 l97 41 435 0
436 0 0 -255 0 -256 -137 117 -138 116 -6 -79 c-13 -162 -22 -1047 -10 -1075
20 -51 49 -31 65 43 9 41 87 139 163 202 85 72 227 167 359 241 l101 56 1106
0 1107 0 0 25 0 25 -235 0 -235 0 0 763 0 762 206 254 c113 139 202 256 199
259 -13 14 -807 28 -853 16 -38 -11 -25 -46 22 -62 22 -7 59 -28 82 -48 48
-38 153 -175 197 -254 l28 -50 -455 0 c-251 0 -456 2 -456 5 0 2 70 91 156
197 134 166 153 193 137 199 -23 8 -820 20 -845 13z m1883 -63 c4 -3 -68 -98
-160 -210 -145 -180 -167 -202 -171 -180 -3 13 -13 33 -23 44 -10 11 -50 69
-89 130 -39 60 -98 138 -131 172 l-60 63 314 -6 c173 -4 317 -9 320 -13z
m-1128 2 c2 -5 -59 -86 -136 -180 l-141 -173 -41 0 c-42 0 -42 1 -93 83 -28
45 -60 96 -71 113 l-21 30 55 67 55 67 195 0 c106 0 196 -3 198 -7z m-647 -49
c21 -16 46 -42 57 -56 l19 -25 -83 -102 c-45 -56 -85 -100 -89 -99 -4 2 -56
31 -116 66 -90 52 -116 73 -149 119 -22 30 -59 73 -83 95 l-43 40 224 -4 225
-3 38 -31z m154 18 c0 -5 -10 -18 -23 -30 l-23 -22 -29 30 -29 30 52 0 c29 0
52 -4 52 -8z m-616 -148 l113 -67 53 -89 c29 -49 51 -90 49 -92 -2 -2 -63 -34
-136 -71 l-132 -67 -41 23 c-39 22 -40 24 -40 74 0 87 13 355 17 355 2 0 55
-30 117 -66z m636 -87 l51 -82 -66 -3 c-36 -2 -94 -2 -129 0 l-64 3 70 88 c38
48 74 85 79 82 5 -3 31 -43 59 -88z m-367 -69 c30 -18 55 -37 56 -42 1 -5 -10
-15 -26 -21 -28 -12 -29 -11 -60 41 -18 30 -30 54 -28 54 2 0 28 -15 58 -32z
m470 -113 c14 -29 17 -67 17 -205 l0 -170 -181 0 c-176 0 -181 1 -225 26 l-44
26 0 139 0 138 38 41 39 40 170 0 169 0 17 -35z m1130 0 c14 -29 17 -67 17
-205 l0 -170 -540 0 -540 0 0 176 c0 162 2 178 21 205 l20 29 503 0 502 0 17
-35z m-1613 -172 l0 -122 -125 72 c-146 83 -147 72 10 147 70 34 102 45 107
37 4 -7 8 -67 8 -134z m-362 29 c9 -7 8 -13 -8 -27 -20 -18 -20 -18 -20 8 0
28 6 32 28 19z m212 -125 c143 -81 145 -83 148 -120 3 -32 0 -38 -25 -49 -81
-34 -222 -102 -265 -129 l-50 -30 -31 19 -32 18 -3 112 c-2 96 0 118 19 159
22 50 65 103 83 103 6 0 76 -37 156 -83z m-1555 -210 c154 -99 286 -184 293
-189 9 -8 -18 -24 -98 -59 -217 -94 -393 -198 -496 -292 l-57 -51 7 224 c3
124 9 305 12 403 l7 178 26 -18 c14 -9 152 -97 306 -196z m1770 83 c3 -5 1
-10 -4 -10 -6 0 -11 5 -11 10 0 6 2 10 4 10 3 0 8 -4 11 -10z m435 -255 l0
-225 -176 0 c-172 0 -178 1 -225 27 l-49 26 0 179 0 179 43 19 c36 16 68 19
225 19 l182 1 0 -225z m1130 0 l0 -225 -540 0 -540 0 0 225 0 225 540 0 540 0
0 -225z m-1630 15 c0 -82 -3 -150 -6 -150 -13 0 -274 153 -274 160 0 14 244
139 273 140 4 0 7 -67 7 -150z m-3 -253 l-2 -38 -100 -43 c-109 -47 -208 -102
-267 -148 l-38 -30 1 149 c0 215 9 276 43 312 l27 29 170 -97 169 -96 -3 -38z
m73 -1 c0 -3 -4 -8 -10 -11 -5 -3 -10 -1 -10 4 0 6 5 11 10 11 6 0 10 -2 10
-4z m430 -346 l0 -310 -225 0 -225 0 0 294 0 294 43 15 c31 12 89 16 225 16
l182 1 0 -310z m1130 0 l0 -310 -540 0 -540 0 0 310 0 310 540 0 540 0 0 -310z
m-1630 -30 l0 -280 -32 0 c-28 0 -62 24 -205 144 l-172 143 20 39 c11 22 40
55 66 74 48 36 288 160 311 160 9 0 12 -63 12 -280z m-392 -73 l274 -229 -74
-40 c-184 -100 -395 -258 -476 -358 l-45 -54 7 359 c8 444 14 567 29 558 7 -4
135 -110 285 -236z"/>
<path d="M4314 2133 c-4 -153 -8 -376 -8 -495 -1 -189 1 -219 16 -234 22 -22
32 -13 61 50 49 106 256 241 580 380 l108 46 444 0 445 0 0 30 0 30 -445 0
-446 0 -358 230 c-197 126 -365 232 -373 235 -14 6 -17 -27 -24 -272z m374 -9
c169 -108 311 -200 316 -205 5 -5 -2 -12 -16 -18 -77 -29 -267 -121 -358 -173
-115 -66 -163 -100 -227 -162 l-43 -40 0 209 c0 223 11 585 17 585 2 0 142
-88 311 -196z"/>
</g>
</svg>
