<?xml version="1.0" standalone="no"?>
<!DOCTYPE svg PUBLIC "-//W3C//DTD SVG 20010904//EN"
 "http://www.w3.org/TR/2001/REC-SVG-20010904/DTD/svg10.dtd">
<svg version="1.0" xmlns="http://www.w3.org/2000/svg"
 width="360.000000pt" height="371.000000pt" viewBox="0 0 360.000000 371.000000"
 preserveAspectRatio="xMidYMid meet">
<metadata>
Created by potrace 1.16, written by Peter Selinger 2001-2019
</metadata>
<g transform="translate(0.000000,371.000000) scale(0.100000,-0.100000)"
fill="#000000" stroke="none">
<path d="M523 3131 c-35 -16 -27 -40 20 -60 78 -34 145 -124 247 -330 32 -64
83 -180 114 -258 l56 -143 -2 -215 -3 -215 -295 169 c-265 151 -296 166 -302
149 -10 -25 -23 -717 -14 -751 9 -39 43 -36 61 6 19 45 67 88 163 146 76 46
355 171 381 171 8 0 11 -192 11 -745 l0 -745 25 0 25 0 0 755 c0 595 3 757 13
760 6 3 329 4 716 3 l705 -3 -542 -344 c-298 -189 -542 -346 -542 -350 1 -8
16 -19 535 -366 482 -323 665 -441 739 -477 43 -21 47 -21 63 -5 16 15 15 18
-3 38 -10 12 -62 57 -114 101 -206 173 -274 309 -273 548 0 226 88 476 267
763 59 95 61 97 98 97 34 0 38 3 38 25 0 16 -6 25 -15 25 -21 0 -18 10 15 50
l29 35 1 -827 0 -828 25 0 25 0 1 863 c0 474 0 931 -1 1015 l-1 153 215 373
c118 205 218 379 221 388 8 20 -92 26 -555 34 -303 5 -358 4 -374 -8 -26 -21
-15 -44 31 -63 21 -9 51 -28 66 -43 70 -67 190 -291 293 -547 l49 -120 3 -171
3 -171 -105 -66 -106 -67 -760 0 -760 0 0 229 0 230 224 388 224 388 -86 6
c-168 13 -826 20 -849 10z m769 -59 l77 -7 -184 -320 c-102 -176 -189 -321
-193 -323 -5 -1 -26 42 -47 95 -91 235 -195 428 -277 518 l-53 58 300 -8 c165
-4 335 -10 377 -13z m1774 -1 l82 -6 -107 -185 c-59 -102 -145 -250 -191 -328
l-83 -144 -57 139 c-110 265 -181 398 -266 492 l-48 54 294 -8 c162 -4 332
-10 376 -14z m-2389 -1062 c145 -83 263 -153 261 -154 -2 -2 -49 -22 -106 -44
-183 -73 -351 -164 -414 -225 l-28 -27 0 98 c0 150 13 503 18 503 2 0 124 -68
269 -151z m1881 -201 c-139 -216 -226 -408 -275 -607 -37 -148 -39 -331 -4
-441 31 -99 63 -162 124 -240 28 -36 44 -60 36 -55 -8 6 -233 156 -501 335
-269 179 -488 327 -488 330 1 9 1094 699 1109 700 11 0 11 -4 -1 -22z"/>
</g>
</svg>
