<?xml version="1.0" standalone="no"?>
<!DOCTYPE svg PUBLIC "-//W3C//DTD SVG 20010904//EN"
 "http://www.w3.org/TR/2001/REC-SVG-20010904/DTD/svg10.dtd">
<svg version="1.0" xmlns="http://www.w3.org/2000/svg"
 width="675.000000pt" height="371.000000pt" viewBox="0 0 675.000000 371.000000"
 preserveAspectRatio="xMidYMid meet">
<metadata>
Created by potrace 1.16, written by Peter Selinger 2001-2019
</metadata>
<g transform="translate(0.000000,371.000000) scale(0.100000,-0.100000)"
fill="#000000" stroke="none">
<path d="M4488 2967 c-302 -397 -342 -453 -324 -458 12 -3 128 -23 258 -44
164 -27 235 -42 229 -49 -70 -87 -501 -659 -501 -664 0 -5 124 -28 275 -52
151 -24 280 -47 286 -51 6 -3 -107 -160 -279 -385 -159 -208 -289 -380 -287
-382 3 -3 697 -115 858 -138 70 -10 127 -22 127 -27 0 -5 -18 -32 -40 -59 -22
-28 -38 -54 -35 -58 2 -4 24 -10 47 -13 24 -4 196 -31 383 -61 287 -46 446
-70 676 -101 22 -3 43 1 55 10 17 12 18 15 3 30 -8 8 -66 29 -128 45 -193 51
-283 116 -351 253 -54 109 -74 222 -67 372 3 61 11 135 17 165 l12 55 221 -32
c261 -38 292 -39 301 -16 10 25 -4 33 -121 64 -59 16 -136 43 -170 61 -117 58
-206 178 -244 328 -14 57 -20 342 -7 355 4 4 105 -7 225 -24 120 -17 234 -33
254 -36 22 -3 43 1 55 10 17 12 18 15 3 30 -8 8 -66 29 -128 45 -137 36 -199
68 -271 140 -107 106 -145 225 -144 445 1 150 13 235 50 348 9 27 14 50 11 53
-2 2 -118 -145 -257 -328 -139 -183 -262 -343 -273 -355 -18 -21 -21 -21 -70
-6 -192 57 -311 187 -351 385 -30 146 -16 364 35 527 10 35 18 66 16 67 -2 2
-159 -200 -349 -449z m233 123 c-13 -169 7 -298 69 -446 13 -30 12 -33 -42
-101 l-56 -70 -224 37 c-150 24 -222 40 -221 48 3 13 475 634 479 629 1 -1 -1
-45 -5 -97z m904 -362 c0 -154 3 -181 24 -248 12 -41 31 -91 41 -110 l18 -36
-54 -72 c-30 -40 -57 -72 -59 -72 -8 0 -439 70 -448 73 -4 1 5 20 21 41 28 37
32 39 88 40 53 1 59 3 62 23 3 17 -3 24 -27 30 -17 4 -31 13 -31 18 0 8 357
485 363 485 1 0 2 -78 2 -172z m-671 -264 c33 -22 44 -34 32 -34 -19 0 -128
16 -174 26 -26 5 -26 3 -1 97 l10 38 41 -46 c23 -26 64 -62 92 -81z m-233
-142 c-24 -289 64 -514 249 -635 42 -27 43 -28 15 -23 -16 2 -62 10 -101 16
l-72 11 14 46 c8 26 12 48 10 50 -2 2 -19 -16 -37 -41 -18 -25 -37 -46 -42
-46 -18 0 -512 82 -516 85 -3 4 424 570 462 612 11 13 22 22 23 20 1 -1 -1
-44 -5 -95z m247 57 c89 -13 162 -27 162 -32 0 -4 -16 -29 -36 -56 -20 -27
-37 -53 -38 -57 0 -5 109 -27 244 -49 135 -22 246 -45 247 -50 1 -8 -306 -422
-348 -469 -6 -6 -31 -3 -66 8 -190 59 -307 187 -348 382 -15 70 -20 266 -9
323 4 18 12 30 18 28 6 -2 84 -15 174 -28z m809 -130 c26 -28 67 -62 91 -76
23 -14 42 -27 40 -28 -2 -2 -51 4 -111 13 -88 13 -106 19 -103 31 22 86 29
111 32 111 2 0 25 -23 51 -51z m-155 -252 c-9 -272 69 -469 229 -576 33 -22
55 -41 48 -41 -48 0 -179 26 -179 36 0 6 5 25 11 43 17 47 6 47 -32 -2 l-34
-43 -260 42 c-143 24 -261 43 -263 43 -2 1 9 19 25 42 28 40 29 40 78 35 28
-3 56 -2 63 3 23 14 9 44 -26 55 l-34 12 184 241 c101 133 186 242 189 243 3
0 4 -60 1 -133z m-627 -387 c72 -11 134 -20 138 -20 5 0 -13 -27 -38 -61 -26
-33 -45 -62 -43 -64 2 -3 130 -25 284 -50 153 -25 282 -47 286 -48 7 -2 -165
-232 -369 -494 l-63 -82 -53 16 c-192 57 -310 186 -351 385 -18 88 -21 252 -6
348 16 100 17 101 53 95 18 -3 91 -14 162 -25z m-270 -86 c-12 -66 -7 -267 9
-344 30 -143 113 -274 220 -346 28 -19 44 -34 36 -34 -30 -1 -735 113 -743
120 -7 6 469 640 481 640 2 0 1 -16 -3 -36z m900 -431 c1 -166 2 -183 28 -259
43 -130 136 -252 226 -298 38 -20 39 -27 4 -21 -16 3 -188 30 -383 61 -195 31
-357 57 -359 59 -2 2 10 21 27 41 29 34 34 37 89 38 51 1 58 4 61 22 2 16 -6
24 -32 35 l-35 14 185 243 c102 133 186 242 187 242 1 0 2 -80 2 -177z"/>
<path d="M3328 3393 c-62 -4 -89 -23 -69 -47 6 -7 25 -16 42 -20 72 -14 193
-175 312 -416 l72 -145 3 -432 3 -433 -666 0 -665 0 0 418 0 419 275 308 c151
169 275 311 275 315 0 19 -1926 29 -1977 9 -39 -15 -25 -41 32 -57 70 -20 120
-54 200 -137 81 -83 162 -193 252 -342 l63 -106 0 -413 0 -414 -130 0 -130 0
-62 53 c-327 276 -610 509 -613 506 -7 -8 -26 -1026 -20 -1084 9 -83 13 -95
35 -95 14 0 22 11 30 43 18 67 53 118 137 198 85 81 231 183 390 272 l101 57
131 0 131 0 -2 -267 -3 -266 -377 -195 c-208 -108 -378 -198 -378 -201 0 -3
20 -18 43 -32 23 -14 186 -118 362 -231 408 -261 559 -351 582 -346 37 7 19
42 -47 93 -205 158 -271 291 -240 484 17 107 66 231 91 231 15 0 19 7 19 33 0
38 59 130 144 225 31 34 56 65 56 67 0 3 -42 -18 -93 -45 -52 -28 -97 -50
-100 -50 -4 0 -7 113 -7 250 l0 250 390 0 390 0 0 -267 -1 -268 -360 -185
c-199 -102 -368 -190 -377 -196 -12 -9 43 -48 289 -206 317 -203 590 -373 647
-402 39 -20 62 -15 62 12 0 13 -34 46 -94 92 -52 41 -110 94 -130 120 -77 100
-105 212 -86 339 14 92 66 231 86 231 8 0 14 10 14 26 0 30 68 137 137 216 26
29 54 61 62 72 10 11 -23 -1 -86 -33 -57 -28 -105 -51 -108 -51 -3 0 -5 113
-5 250 l0 250 658 0 657 -1 -75 -42 c-42 -23 -241 -134 -443 -246 -202 -113
-367 -209 -367 -213 0 -8 355 -247 705 -476 l190 -123 5 -192 5 -192 25 0 25
0 3 173 2 173 28 -19 c50 -36 108 -61 121 -53 25 16 5 46 -72 110 l-77 64 0
475 0 475 42 56 c23 31 62 80 86 109 24 28 41 52 36 51 -5 0 -43 -20 -84 -43
l-75 -44 -3 428 -2 428 210 307 c115 169 210 310 210 315 0 10 -732 30 -842
23z m749 -66 c2 -3 -71 -114 -163 -248 -92 -134 -172 -252 -179 -261 -10 -15
-21 1 -79 119 -77 157 -156 282 -224 355 l-47 51 344 -6 c189 -4 346 -8 348
-10z m-2235 -29 c94 -40 100 -27 -125 -280 -111 -125 -205 -227 -208 -227 -3
-1 -30 38 -59 87 -110 180 -250 350 -355 430 l-30 23 365 -6 c334 -6 369 -9
412 -27z m780 23 l186 -6 -235 -263 -235 -263 -35 58 c-73 120 -176 264 -239
331 -35 39 -64 74 -64 78 0 4 14 23 32 41 l32 33 185 -1 c103 -1 270 -4 373
-8z m-657 -21 c-3 -5 -12 -7 -20 -3 -21 7 -19 13 6 13 11 0 18 -4 14 -10z m47
-138 c66 -71 158 -197 232 -321 l66 -109 0 -416 0 -416 -390 0 -390 0 0 418 0
417 213 237 c116 131 215 238 218 238 4 0 27 -22 51 -48z m-855 -1280 c1 -4
-34 -27 -79 -52 -186 -102 -386 -252 -459 -343 l-39 -50 0 250 c0 137 3 345 7
460 l6 211 281 -235 c155 -129 282 -238 283 -241z m2533 -106 c0 -8 -18 -45
-39 -83 -168 -290 -186 -600 -47 -793 21 -29 36 -53 34 -55 -2 -2 -173 109
-381 247 -207 138 -375 253 -373 255 8 9 791 443 799 443 4 0 7 -6 7 -14z m0
-513 l0 -386 -20 18 c-32 29 -89 153 -101 220 -15 78 -5 211 21 304 19 66 87
231 96 231 2 0 4 -174 4 -387z m-2243 -130 c-71 -141 -100 -291 -78 -408 11
-58 53 -157 88 -204 20 -28 23 -29 -375 225 -139 89 -254 165 -255 169 -1 4
144 82 323 175 l325 169 3 -29 c2 -17 -10 -54 -31 -97z m830 -17 c-56 -129
-71 -191 -71 -296 -1 -109 24 -200 75 -269 16 -23 27 -41 24 -41 -6 0 -533
334 -603 383 l-44 29 324 168 323 167 3 -30 c2 -17 -11 -62 -31 -111z"/>
</g>
</svg>
