<?xml version="1.0" standalone="no"?>
<!DOCTYPE svg PUBLIC "-//W3C//DTD SVG 20010904//EN"
 "http://www.w3.org/TR/2001/REC-SVG-20010904/DTD/svg10.dtd">
<svg version="1.0" xmlns="http://www.w3.org/2000/svg"
 width="577.000000pt" height="371.000000pt" viewBox="0 0 577.000000 371.000000"
 preserveAspectRatio="xMidYMid meet">
<metadata>
Created by potrace 1.16, written by Peter Selinger 2001-2019
</metadata>
<g transform="translate(0.000000,371.000000) scale(0.100000,-0.100000)"
fill="#000000" stroke="none">
<path d="M1625 3352 c-38 -2 -74 -7 -81 -13 -7 -6 -114 -10 -262 -10 l-250 0
-7 -132 c-4 -73 -9 -280 -10 -462 -2 -181 -8 -422 -13 -535 -5 -113 -7 -288
-4 -390 5 -181 5 -185 -14 -170 -10 8 -72 59 -137 113 -65 55 -121 96 -125 92
-10 -9 -20 -411 -21 -812 -1 -292 1 -333 15 -348 21 -20 40 -6 49 38 23 109
182 260 435 412 58 34 128 74 157 89 l52 26 1062 0 1062 0 416 -274 c431 -283
641 -417 686 -438 21 -10 29 -9 42 5 21 21 14 30 -93 113 -157 122 -244 239
-273 364 -18 76 -13 228 9 316 21 82 122 298 162 347 l24 29 249 -164 c291
-192 449 -293 522 -334 50 -27 53 -28 70 -12 16 16 16 19 -3 39 -10 12 -56 50
-100 85 -147 114 -235 233 -263 354 -18 76 -13 228 9 316 35 139 157 364 259
479 70 78 69 79 -34 27 -147 -73 -1059 -543 -1063 -547 -2 -2 55 -43 127 -91
l131 -87 -37 -22 c-21 -12 -228 -119 -461 -238 l-422 -217 -175 0 -175 0 0
763 0 762 205 252 c113 139 205 254 205 256 0 8 -291 17 -574 18 -244 1 -291
-1 -303 -14 -21 -20 -10 -34 37 -47 23 -6 62 -31 95 -62 55 -50 152 -175 143
-184 -3 -2 -175 -3 -382 -2 l-378 3 117 143 c64 79 114 146 112 149 -3 2 -135
6 -293 9 -159 2 -320 5 -359 7 -38 1 -101 1 -140 -1z m573 -59 l121 -6 -101
-124 -100 -123 -116 1 -117 0 -38 60 c-43 67 -46 53 32 147 l43 52 78 0 c42 0
131 -3 198 -7z m1159 -2 l91 -6 -165 -203 c-91 -112 -169 -200 -173 -195 -4 4
-20 29 -35 56 l-27 47 31 0 c26 0 31 4 31 25 0 23 -4 25 -44 25 -44 0 -45 1
-99 78 -30 42 -78 101 -107 130 l-53 52 229 -1 c126 -1 270 -4 321 -8z m-1794
-21 l69 0 55 -53 56 -54 -49 -61 c-29 -37 -57 -62 -68 -62 -25 0 -405 196
-431 222 l-20 20 160 -6 c88 -3 191 -6 228 -6z m257 -7 c-1 -5 -11 -20 -23
-36 l-23 -27 -34 35 -34 35 57 0 c31 0 57 -3 57 -7z m-675 -44 c58 -33 104
-82 179 -194 l47 -70 -38 -14 c-21 -8 -74 -33 -119 -56 -78 -40 -82 -41 -112
-26 l-32 15 0 105 c0 109 10 271 17 271 2 0 28 -14 58 -31z m379 -198 c6 -10
-87 -45 -103 -39 -8 3 -101 136 -101 144 0 7 198 -95 204 -105z m296 25 c0 -4
-25 -6 -55 -6 l-56 0 32 40 32 40 24 -35 c12 -18 23 -36 23 -39z m86 -141 l44
-80 0 -112 0 -113 -170 0 c-163 0 -173 1 -220 25 l-50 25 0 73 0 72 78 97 77
97 99 -2 98 -2 44 -80z m164 79 c0 -13 -84 -104 -90 -97 -4 5 -20 29 -35 56
l-27 47 76 0 c42 0 76 -3 76 -6z m972 -89 l48 -90 0 -102 0 -103 -540 0 -540
0 0 113 0 112 67 83 66 82 426 -2 425 -3 48 -90z m-1463 68 c-7 -10 -31 -40
-53 -67 l-40 -48 -18 37 c-11 20 -17 40 -13 43 5 6 115 47 134 51 2 1 -3 -7
-10 -16z m-151 -118 c23 -47 32 -79 32 -115 0 -28 -2 -50 -5 -50 -3 0 -64 31
-136 68 l-129 69 97 46 c54 25 100 46 103 46 3 1 20 -28 38 -64z m-127 -145
l160 -81 -3 -35 c-3 -35 -4 -35 -130 -88 -70 -29 -138 -60 -150 -68 -21 -14
-27 -13 -65 5 l-43 21 0 117 c0 126 8 164 43 191 12 10 23 18 25 18 1 0 74
-36 163 -80z m239 -126 c0 -2 -7 -4 -15 -4 -8 0 -15 4 -15 10 0 5 7 7 15 4 8
-4 15 -8 15 -10z m410 -204 l0 -180 -180 0 c-162 0 -185 2 -221 20 l-40 21 3
141 3 142 55 18 c42 13 93 17 218 17 l162 1 0 -180z m1140 0 l0 -180 -540 0
-540 0 0 180 0 180 540 0 540 0 0 -180z m-1630 5 c0 -63 -2 -115 -4 -115 -2 0
-59 29 -125 63 l-121 64 72 33 c78 36 158 69 171 70 4 0 7 -52 7 -115z m-366
6 c3 -5 -1 -11 -9 -15 -9 -3 -15 0 -15 9 0 16 16 20 24 6z m3992 -43 c-87
-137 -148 -299 -166 -443 -21 -157 21 -317 113 -437 20 -27 34 -48 29 -47 -13
1 -516 335 -519 345 -2 6 19 36 47 68 27 31 50 59 50 62 0 2 -40 -16 -88 -40
l-89 -45 -102 68 c-57 38 -103 72 -104 75 -2 7 840 445 855 446 4 0 -7 -24
-26 -52z m-3776 -63 c140 -70 150 -77 150 -103 0 -27 -6 -31 -87 -62 -49 -18
-126 -52 -173 -75 -83 -41 -86 -42 -117 -27 l-33 16 0 113 c0 63 4 113 9 113
5 0 12 9 16 19 6 21 64 81 77 81 5 0 76 -34 158 -75z m640 -330 l0 -195 -180
0 c-162 0 -185 2 -220 20 l-40 20 0 158 0 158 48 16 c35 12 91 16 220 17 l172
1 0 -195z m1140 0 l0 -195 -540 0 -540 0 0 195 0 195 540 0 540 0 0 -195z
m-1634 -122 c-2 -2 -68 29 -146 70 l-141 74 93 41 c51 22 116 49 143 60 l50
20 3 -131 c1 -71 1 -132 -2 -134z m-166 22 c161 -80 170 -87 170 -114 0 -27
-5 -30 -87 -61 -49 -18 -130 -54 -181 -80 l-93 -47 -25 20 c-25 20 -25 20 -22
163 3 142 3 143 32 173 17 17 31 31 33 31 2 0 80 -38 173 -85z m-296 -352 c7
-86 18 -108 47 -92 10 5 19 16 19 23 0 7 9 21 20 31 19 17 21 16 77 -30 32
-26 86 -71 120 -99 l62 -51 -55 -30 c-185 -100 -415 -270 -491 -364 l-46 -56
8 449 c4 247 9 455 12 462 3 8 43 -19 112 -77 l108 -90 7 -76z m3406 157
c-167 -277 -200 -551 -93 -765 14 -27 41 -69 60 -92 19 -24 32 -43 28 -43 -8
0 -74 42 -452 292 -266 176 -333 225 -333 242 0 18 66 54 413 233 226 117 415
212 419 212 3 1 -16 -35 -42 -79z m-2450 -150 l0 -200 -220 0 -220 0 0 184 0
183 53 16 c37 11 100 16 220 16 l167 1 0 -200z m1140 0 l0 -200 -540 0 -540 0
0 200 0 200 540 0 540 0 0 -200z m-1630 -25 l0 -175 -36 0 c-31 0 -53 15 -159
102 l-123 103 30 19 c24 15 273 125 286 126 1 0 2 -79 2 -175z"/>
</g>
</svg>
