<?xml version="1.0" standalone="no"?>
<!DOCTYPE svg PUBLIC "-//W3C//DTD SVG 20010904//EN"
 "http://www.w3.org/TR/2001/REC-SVG-20010904/DTD/svg10.dtd">
<svg version="1.0" xmlns="http://www.w3.org/2000/svg"
 width="665.000000pt" height="371.000000pt" viewBox="0 0 665.000000 371.000000"
 preserveAspectRatio="xMidYMid meet">
<metadata>
Created by potrace 1.16, written by Peter Selinger 2001-2019
</metadata>
<g transform="translate(0.000000,371.000000) scale(0.100000,-0.100000)"
fill="#000000" stroke="none">
<path d="M1003 3399 c-42 -16 -28 -46 30 -65 73 -24 190 -144 277 -284 71
-116 190 -347 239 -463 l31 -76 0 -315 0 -316 -92 0 -93 0 -374 240 c-206 132
-375 239 -377 238 -5 -6 -24 -676 -23 -818 1 -165 6 -194 35 -198 17 -2 25 7
39 44 10 26 38 67 61 91 84 83 302 208 546 312 90 38 104 41 187 41 l91 0 0
-771 0 -770 23 3 22 3 3 768 2 767 420 0 420 0 2 -767 3 -768 23 -3 22 -3 0
770 0 771 415 0 415 0 0 25 0 25 -415 0 -415 0 0 325 0 325 291 426 c160 234
290 426 288 428 -21 19 -2049 34 -2096 15z m657 -48 c218 -6 260 -10 290 -26
46 -24 100 -65 100 -76 0 -5 -100 -156 -222 -334 l-222 -324 -86 177 c-133
273 -234 429 -349 540 l-55 52 144 -1 c80 0 260 -4 400 -8z m1187 -10 l161 -6
-255 -373 -255 -374 -38 84 c-86 193 -207 408 -294 522 l-44 59 35 54 36 53
246 -6 c135 -4 319 -9 408 -13z m-737 -8 c0 -5 -6 -15 -13 -24 -11 -15 -15
-15 -40 7 l-28 24 40 0 c23 0 41 -3 41 -7z m63 -239 c37 -54 118 -200 180
-323 l112 -224 3 -334 3 -333 -421 0 -420 0 0 328 0 327 228 332 c125 183 232
331 237 330 6 -2 40 -48 78 -103z m-1148 -1037 c154 -99 286 -184 293 -189 9
-8 -18 -24 -98 -59 -217 -94 -394 -198 -494 -290 l-59 -53 7 234 c3 129 9 311
12 403 l7 168 26 -18 c14 -9 152 -97 306 -196z"/>
<path d="M4955 3148 c-247 -138 -456 -253 -463 -255 -15 -6 11 64 64 169 46
91 75 137 142 221 30 38 52 70 50 72 -2 2 -226 -120 -498 -270 -272 -151 -496
-273 -497 -271 -2 2 8 39 21 82 43 135 139 307 238 427 22 26 38 47 35 47 -8
0 -1048 -578 -1050 -583 -4 -9 777 -571 956 -688 53 -35 99 -59 111 -57 45 6
27 36 -74 123 -141 121 -198 202 -236 330 -17 58 -26 227 -13 240 4 3 105 -65
225 -153 121 -87 314 -225 429 -307 351 -249 384 -267 399 -228 5 12 -10 32
-56 72 -35 31 -93 86 -130 123 -110 111 -169 257 -167 413 1 94 -8 98 254 -92
264 -191 629 -447 688 -482 30 -19 40 -21 52 -11 8 7 15 18 15 25 0 7 -43 50
-95 95 -144 122 -208 212 -240 337 -14 52 -21 203 -11 203 3 0 119 -82 258
-183 227 -164 538 -385 673 -477 27 -19 64 -39 82 -45 l34 -12 -641 -418
c-352 -230 -640 -419 -640 -421 0 -8 893 -653 1068 -771 123 -83 164 -98 176
-66 5 12 -13 34 -66 82 -184 165 -254 263 -294 411 -24 92 -23 277 4 396 50
222 181 494 337 699 86 113 85 116 -45 230 -155 135 -216 236 -241 397 -32
209 69 496 259 732 31 38 49 67 41 64 -8 -3 -234 -128 -503 -277 -269 -149
-491 -269 -494 -266 -9 8 26 131 58 209 37 89 112 217 172 293 51 65 72 93 67
92 -2 0 -206 -113 -454 -251z m245 40 c-117 -200 -175 -430 -150 -595 14 -91
48 -188 88 -246 15 -23 32 -49 37 -57 5 -8 -13 1 -40 21 -28 20 -180 130 -340
244 -159 114 -300 215 -312 224 -12 9 -22 21 -23 26 0 7 749 431 768 435 1 0
-11 -24 -28 -52z m-1389 -79 c-93 -175 -140 -368 -127 -511 8 -89 49 -213 92
-278 19 -29 34 -54 34 -56 0 -6 -87 55 -432 304 -158 114 -288 209 -288 212 1
6 764 428 768 425 1 -1 -20 -44 -47 -96z m705 -11 c-29 -57 -62 -136 -75 -176
-19 -58 -30 -76 -52 -88 -34 -17 -36 -29 -10 -44 18 -9 19 -18 14 -98 -9 -145
24 -281 97 -388 17 -26 30 -48 28 -49 -3 -3 -100 66 -606 430 -62 44 -112 83
-112 86 0 4 758 428 767 429 0 0 -22 -46 -51 -102z m1385 34 c-99 -169 -160
-390 -148 -542 8 -98 47 -221 93 -288 19 -30 34 -55 32 -57 -2 -2 -140 96
-308 217 -168 120 -329 236 -357 256 -29 20 -53 39 -53 42 0 6 764 430 768
426 2 -2 -10 -26 -27 -54z m12 -1389 c-92 -156 -174 -361 -209 -523 -27 -126
-25 -311 4 -413 26 -93 49 -140 109 -225 l44 -64 -33 23 c-214 150 -825 594
-850 618 -16 15 18 39 475 338 271 177 495 322 499 322 4 1 -14 -34 -39 -76z"/>
<path d="M3760 1599 c-355 -232 -646 -422 -647 -423 -3 -2 515 -382 771 -565
282 -201 419 -291 445 -291 53 0 34 31 -101 163 -194 189 -236 275 -245 497
-4 103 -1 144 17 230 47 230 180 506 350 730 33 44 60 80 58 80 -2 0 -293
-189 -648 -421z m405 159 c-105 -181 -189 -396 -221 -563 -23 -124 -15 -323
16 -415 29 -84 60 -146 104 -203 20 -26 33 -47 30 -47 -15 0 -877 625 -882
639 -2 7 973 651 985 651 2 0 -12 -28 -32 -62z"/>
</g>
</svg>
