<?xml version="1.0" standalone="yes"?>
<svg xmlns="http://www.w3.org/2000/svg" width="665" height="371">
<!-- <path style="fill:#ffffff; stroke:none;" d="M0 0L0 371L665 371L665 0L0 0z"/>
--><path style="fill:#000000; stroke:none;" d="M157 182C151.612 182 145.226 182.933 140 181.501C133.842 179.813 128.337 174.766 123 171.424C104.952 160.123 84.4243 141.01 64 135C64 160.992 62 186.946 62 213C62 217.239 59.5193 235.941 65.1736 236.94C68.6433 237.553 69.9142 232.176 71.2238 230C74.9521 223.806 81.1233 219.338 87 215.344C107.416 201.469 132.069 188 157 188L157 342L163 342L163 188L247 188L247 342L253 342L253 188L335 188L335 182L253 182L253 139L253.702 118L268 96L311 32C256.711 32 202.279 30 148 30L110 30C107.03 30.0002 98.6014 28.8292 97.9213 33.1844C97.2726 37.3384 108.269 40.6607 110.996 42.8194C121.592 51.2074 129.616 64.3162 136.138 76C143.375 88.9628 153.493 104.341 156.61 119C160.715 138.305 157 162.242 157 182M449 81L463.054 53L476 34C441.783 48.2496 407.942 70.1628 376 89C381.185 66.5894 396.019 52.5518 406 33L361 57.1396L299 92L299 93C324.101 114.718 353.491 133.754 381 152.33C387.575 156.77 393.904 162.072 401 165.669C402.954 166.66 407.104 168.598 408.338 165.551C410.7 159.721 394.533 149.555 391.004 145.999C376.869 131.757 374 116.242 374 97C398.412 117.821 426.584 135.766 453 153.975C459.12 158.193 465.247 163.304 472 166.467C473.984 167.396 478.333 168.856 479.248 165.682C480.902 159.946 462.742 147.969 459.093 144C446.792 130.619 444.645 115.29 445 98C469.659 115.661 494.024 133.76 519 150.975C524.857 155.011 530.777 159.443 537 162.891C539.025 164.013 543.092 165.882 544.338 162.682C546.541 157.022 531.445 147.444 528.001 143.999C514.832 130.83 510 116.288 510 98L573 143.709L613 170C571.889 197.735 530.36 227.951 487 252L487 255C518.533 274.637 547.531 299.393 578 320.72C585.263 325.804 592.49 330.962 600 335.68C602.433 337.208 606.603 340.59 609.664 338.867C615.654 335.495 603.235 326.246 601 324.285C581.884 307.51 572.325 287.616 574.089 262C575.663 239.151 586.383 216.322 598 197C602.7 189.183 614.987 177.904 616.182 169C617.16 161.714 606.56 155.956 602 151.83C591.947 142.734 584.052 131.536 581.616 118C577.821 96.9156 586.456 74.6198 597.425 57C601.94 49.7481 609.276 43.0778 612 35L557 65.1396L511 91C515.931 67.1714 529.521 50.9719 542 31L515 44.6944L449 81z"/>
<path style="fill:#ffffff; stroke:none;" d="M114 35L137.189 66L161 111L205 47C198.307 37.9341 190.143 37.9113 180 36.7145C158.621 34.192 135.535 35 114 35M249 110L251 110L300 38C291.952 35.6211 282.357 37.0956 274 36.9962C260.365 36.834 246.703 36 233 36C225.761 36 215.092 34.9055 214.005 45C213.393 50.6929 222.321 59.3607 225.308 64C234.606 78.4434 242.411 94.1532 249 110M204 37L204 38L209 41L210 38L204 37M521 48L446 90L471 109.151L516 141C505.586 118.982 500.631 101.2 508.519 77C511.499 67.8557 520.111 57.1527 521 48M384 51C361.453 65.8698 334.909 81.5743 310 92L310 94L379 143C371.358 122.809 364.785 108.246 370.478 86C372.518 78.0308 375.577 70.3394 379.247 63C381.063 59.3676 384.387 55.0867 384 51M208 52L177.333 97L163.702 118L163 139L163 182L247 182C247 162.417 250.459 139.185 246.621 120C244.012 106.955 235.22 93.7561 229.244 82C224.544 72.7553 217.583 56.6827 208 52M455 52L381 93L381 95L450 144C444.885 130.485 438.999 121.066 439 106C439 100.304 440.792 93.9879 435 91L435 89C444.681 84.8936 445.376 72.7655 449.759 64C451.643 60.2315 455.009 56.268 455 52M591 53L517 94L517 96L586 145C578.032 123.947 571.801 109.056 577.884 86C580.555 75.8769 591.106 62.9119 591 53M69 145L68 222C88.4963 207.985 107.586 195.084 131 186L131 184C112.009 171.188 90.3969 153.11 69 145z"/>
<path style="fill:#000000; stroke:none;" d="M440 168L311 253L311 254C339.76 278.887 373.032 299.806 404 321.859C411.455 327.168 418.917 333.001 427 337.329C429.068 338.437 433.959 340.979 435.338 337.552C436.612 334.385 432.976 331.056 430.981 329.17C425.195 323.7 418.702 319.195 413.616 313C399.953 296.359 395.917 275.929 399.435 255C403.165 232.812 413.136 212.018 424.811 193C428.468 187.043 441.448 174.821 440 168z"/>
<path style="fill:#ffffff; stroke:none;" d="M615 168L616 169L615 168M418 190L321 253L351 276.151L407 316C403.465 308.526 398.571 301.989 396.029 294C388.889 271.564 393.123 248.631 401.053 227C404.076 218.756 407.6 210.683 411.861 203C414.048 199.058 417.865 194.555 418 190M497 253L528 277.151L584 317C578.513 308.109 573.294 300.199 570.428 290C560.397 254.291 579.534 221.984 594 191L568 206.808L497 253z"/>
</svg>
