<?xml version="1.0" standalone="no"?>
<!DOCTYPE svg PUBLIC "-//W3C//DTD SVG 20010904//EN"
 "http://www.w3.org/TR/2001/REC-SVG-20010904/DTD/svg10.dtd">
<svg version="1.0" xmlns="http://www.w3.org/2000/svg"
 width="471.000000pt" height="371.000000pt" viewBox="0 0 471.000000 371.000000"
 preserveAspectRatio="xMidYMid meet">
<metadata>
Created by potrace 1.16, written by Peter Selinger 2001-2019
</metadata>
<g transform="translate(0.000000,371.000000) scale(0.100000,-0.100000)"
fill="#000000" stroke="none">
<path d="M3350 3402 c-26 -5 -36 -13 -38 -29 -3 -17 5 -24 34 -33 99 -33 227
-211 357 -497 l47 -102 0 -326 0 -325 -137 -90 -138 -90 -652 0 -653 0 0 418
0 418 215 314 216 315 -73 7 c-83 8 -628 11 -1200 6 -297 -2 -390 -6 -400 -16
-18 -18 1 -44 41 -55 77 -19 188 -170 312 -423 l79 -161 0 -412 0 -411 -49 0
c-46 0 -59 7 -379 229 l-330 228 -6 -30 c-4 -17 -9 -232 -12 -477 -5 -382 -4
-448 8 -464 21 -27 42 -15 56 32 28 92 185 212 450 344 119 58 158 73 204 76
l58 4 0 -746 0 -746 25 0 25 0 0 745 0 745 355 0 355 0 0 -740 0 -740 25 0 25
0 0 740 0 740 606 0 607 0 -297 -194 c-163 -107 -297 -199 -298 -203 -1 -9
240 -160 670 -420 l292 -176 0 -244 0 -244 23 3 c22 3 22 3 25 231 l2 228 44
-26 c49 -28 84 -32 93 -9 7 19 -24 53 -88 96 l-48 33 -1 547 0 547 64 86 c36
47 68 90 72 96 8 14 -26 -4 -83 -42 -23 -16 -44 -29 -47 -29 -3 0 -6 141 -6
313 l0 312 216 315 215 315 -118 6 c-199 10 -726 18 -763 11z m-1127 -61 c147
-5 270 -11 273 -14 5 -5 -243 -376 -324 -485 l-25 -34 -66 134 c-74 149 -160
286 -221 351 -22 24 -37 47 -33 50 8 8 53 8 396 -2z m1903 -4 c3 -3 -74 -122
-172 -265 l-177 -260 -73 147 c-81 164 -150 272 -217 345 l-46 49 340 -5 c187
-3 342 -8 345 -11z m-2488 -13 c57 -3 102 -10 100 -14 -6 -15 -343 -509 -348
-509 -3 -1 -33 57 -67 127 -74 150 -164 292 -230 363 l-47 50 244 -6 c135 -3
291 -8 348 -11z m274 -184 c27 -41 85 -147 129 -236 l79 -161 0 -417 0 -416
-355 0 -355 0 0 413 0 413 126 184 c70 102 156 227 192 279 l65 95 35 -40 c18
-21 56 -73 84 -114z m-1019 -1037 c133 -92 259 -179 279 -194 l37 -26 -132
-65 c-177 -87 -305 -167 -383 -240 l-64 -60 0 119 c0 178 13 633 17 633 3 0
113 -75 246 -167z m2787 -195 c-102 -197 -151 -365 -153 -528 -2 -147 34 -262
115 -369 22 -29 37 -52 32 -49 -5 3 -124 75 -264 160 -385 235 -524 322 -524
332 -1 10 584 395 601 396 6 0 13 4 15 8 2 7 228 162 235 162 1 0 -24 -51 -57
-112z m64 -927 c-10 -10 -71 69 -108 139 -48 91 -60 156 -54 291 7 138 36 245
111 403 l52 110 3 -469 c1 -257 -1 -471 -4 -474z"/>
</g>
</svg>
