<?xml version="1.0" standalone="yes"?>
<svg xmlns="http://www.w3.org/2000/svg" width="471" height="371">
<path style="fill:#ffffff; stroke:none;" d="M0 0L0 371L471 371L471 0L0 0z"/>
<path style="fill:#000000; stroke:none;" d="M217 180L217 124L217.702 98L231.28 77L261 33C218.537 27.6335 174.48 32 132 32C121.667 32 111.333 31.9463 101 32.0008C98.4137 32.0144 92.5048 31.5307 91.9213 35.1705C91.3877 38.4987 103.526 44.5091 105.91 47.0146C116.289 57.9227 123.246 72.5755 129.742 86C142.645 112.668 136 150.795 136 180C125.318 179.992 118.468 173.637 110 167.72C94.8211 157.114 76.6259 139.617 59 134C59 159.337 57.0407 184.699 57 210C56.9941 213.688 55.8523 232.364 61.0903 232.364C64.3486 232.364 65.2125 228.239 66.4375 225.999C69.1117 221.111 73.6712 217.08 78 213.669C92.8073 202.002 116.632 186.053 136 186L136 336L141 336L141 186L212 186L212 335L217 335L217 186L337 186L337 187L277 225L301 241.192L348 270L372.972 286.21L374 301L374 334L380 334L380 289C382.459 290.143 393.241 297.073 393.963 290.852C394.814 283.517 380.76 280.955 380.059 272.996C378.181 251.689 380 229.398 380 208C380 196.829 377.734 182.851 380.419 172C382.602 163.177 391.505 157.268 395 149L380 158L380 116C380 109.831 378.658 101.79 381.086 96C390.738 72.9765 415.402 55.842 423 32C400.018 31.9849 377.027 30 354 30C349.357 30 333.736 27.5765 331.176 32.4954C329.332 36.0367 335.939 38.2165 338 39.4784C346.311 44.5673 351.867 53.8365 356.796 62C362.878 72.0711 370.819 84.4438 373.471 96C376.22 107.982 374 122.721 374 135C374 142.03 376.636 155.915 372.397 161.816C360.405 178.507 339.183 180 321 180L217 180z"/>
<path style="fill:#ffffff; stroke:none;" d="M345 36L362.716 60L378 89L413 37L345 36M183 37C194.659 54.0503 205.983 69.7183 214 89L216 89L250 38L183 37M107 38C118.659 55.0503 129.983 70.7183 138 90L140 90L174 39L107 38M179 43L153.975 79L141.702 98L141 124L141 180L212 180L212 126C212 117.098 213.465 106.702 211.471 98C209.043 87.408 202.35 76.3667 196.999 67C192.146 58.5045 187.075 48.8084 179 43M65 145L63 218L93 196.427L120 182L65 145M372 170C345.88 190.077 311.747 203.257 288 226C313.253 241.512 338.77 261.267 366 273C350.905 250.08 348.674 226.94 358.425 201C361.735 192.196 372.018 178.985 372 170M373 182C362.087 208.212 344.284 250.113 374 272L374 210L373 182z"/>
</svg>
