<?xml version="1.0" standalone="no"?>
<!DOCTYPE svg PUBLIC "-//W3C//DTD SVG 20010904//EN"
 "http://www.w3.org/TR/2001/REC-SVG-20010904/DTD/svg10.dtd">
<svg version="1.0" xmlns="http://www.w3.org/2000/svg"
 width="558.000000pt" height="371.000000pt" viewBox="0 0 558.000000 371.000000"
 preserveAspectRatio="xMidYMid meet">
<metadata>
Created by potrace 1.16, written by Peter Selinger 2001-2019
</metadata>
<g transform="translate(0.000000,371.000000) scale(0.100000,-0.100000)"
fill="#000000" stroke="none">
<path d="M4050 3421 c-121 -9 -133 -37 -36 -76 95 -39 183 -135 301 -331 36
-60 65 -112 65 -116 0 -5 -647 -8 -1437 -8 l-1438 0 -370 238 c-223 144 -373
234 -376 228 -9 -15 -30 -859 -23 -916 10 -84 13 -92 37 -88 14 2 24 13 31 36
29 103 239 247 564 388 l147 64 1448 0 1448 0 67 -137 67 -138 3 -307 3 -308
-143 0 c-79 0 -241 3 -360 7 l-218 6 0 156 1 156 164 230 c91 127 165 233 165
236 0 18 -1710 36 -1754 19 -39 -14 -32 -38 17 -59 71 -30 147 -131 241 -318
l56 -113 0 -140 0 -140 -132 0 -132 0 -439 196 c-240 108 -440 194 -443 191
-13 -12 81 -664 109 -757 11 -38 17 -45 37 -45 18 0 26 6 28 23 9 64 202 173
462 260 242 82 262 86 394 77 l116 -7 0 -439 0 -439 25 0 25 0 0 440 0 440
118 0 c66 0 167 -3 225 -7 l107 -6 0 -434 0 -434 23 3 22 3 3 433 2 432 84 0
c45 0 158 -3 249 -7 l167 -6 0 -429 0 -428 30 0 30 0 0 430 0 430 288 -6 c158
-2 320 -7 360 -10 l72 -6 0 -569 c0 -448 -3 -569 -12 -569 -25 0 -2973 470
-2995 477 -12 5 -167 138 -344 296 -177 158 -325 284 -329 280 -18 -20 -170
-862 -170 -942 0 -71 31 -78 63 -14 49 94 278 201 615 289 73 19 147 34 165
33 18 0 700 -107 1517 -237 l1485 -238 3 -192 2 -192 30 0 30 0 0 1123 0 1124
286 417 c157 230 284 420 281 422 -12 12 -1007 34 -1127 25z m986 -70 l52 -6
-252 -367 c-138 -202 -254 -368 -258 -368 -5 0 -8 5 -8 12 0 6 -40 93 -90 193
-106 216 -224 398 -317 491 l-67 67 444 -7 c245 -5 468 -11 496 -15z m-3906
-281 c157 -100 291 -188 298 -194 10 -10 -1 -18 -55 -41 -215 -90 -427 -211
-519 -297 l-64 -60 0 183 c0 101 3 282 7 402 l6 217 21 -13 c12 -8 149 -96
306 -197z m1775 -366 c17 -2 41 -13 54 -23 l24 -18 -113 -162 c-63 -88 -116
-161 -119 -161 -4 0 -25 38 -49 84 -55 109 -111 195 -162 250 l-41 44 188 -4
c103 -3 202 -7 218 -10z m567 -7 l27 -12 -126 -177 -127 -177 -48 96 c-27 52
-71 128 -98 168 -46 67 -48 74 -34 94 15 20 22 21 197 21 120 -1 191 -5 209
-13z m454 4 l141 -6 -124 -175 c-68 -96 -128 -179 -133 -184 -5 -5 -27 27 -51
75 -51 103 -130 227 -163 258 -14 13 -23 28 -20 32 6 10 134 10 350 0z m-339
-103 c49 -64 115 -178 154 -264 28 -61 29 -69 29 -220 l0 -157 -82 6 c-46 4
-158 7 -250 7 l-168 0 0 153 0 152 133 187 c72 103 135 188 138 188 4 0 25
-24 46 -52z m-486 -100 c23 -39 59 -109 80 -154 l39 -82 0 -147 0 -147 -22 6
c-13 3 -114 6 -225 6 l-203 0 0 146 0 146 123 174 122 173 22 -25 c12 -13 41
-57 64 -96z m-1106 -358 c187 -84 349 -157 359 -162 16 -9 -12 -22 -160 -72
-209 -73 -349 -137 -420 -194 l-52 -41 -11 57 c-9 47 -50 333 -77 531 -4 34
-3 43 8 39 7 -3 166 -74 353 -158z m-785 -695 c129 -115 241 -214 248 -220 10
-9 -11 -18 -95 -40 -247 -65 -480 -158 -565 -226 -25 -20 -38 -25 -38 -16 0
28 100 582 132 731 l10 48 37 -34 c20 -19 142 -128 271 -243z"/>
</g>
</svg>
