<?xml version="1.0" standalone="no"?>
<!DOCTYPE svg PUBLIC "-//W3C//DTD SVG 20010904//EN"
 "http://www.w3.org/TR/2001/REC-SVG-20010904/DTD/svg10.dtd">
<svg version="1.0" xmlns="http://www.w3.org/2000/svg"
 width="420.000000pt" height="371.000000pt" viewBox="0 0 420.000000 371.000000"
 preserveAspectRatio="xMidYMid meet">
<metadata>
Created by potrace 1.16, written by Peter Selinger 2001-2019
</metadata>
<g transform="translate(0.000000,371.000000) scale(0.100000,-0.100000)"
fill="#000000" stroke="none">
<path d="M2330 3410 c-41 -4 -226 -5 -410 -2 -284 4 -338 2 -354 -10 -26 -21
-15 -45 26 -53 100 -22 210 -127 349 -333 l69 -103 0 -465 0 -464 -501 0 -502
0 -314 180 c-174 99 -319 180 -323 180 -12 0 -22 -229 -24 -523 -1 -212 1
-259 13 -266 21 -13 38 -3 49 27 29 82 196 183 490 299 l114 44 486 -3 487 -3
74 -27 c143 -52 334 -180 499 -333 l82 -77 0 -599 0 -599 25 0 25 0 0 599 0
599 335 211 c206 130 345 211 360 211 18 0 28 7 35 24 5 13 15 26 22 29 8 4 7
6 -4 6 -17 1 -18 31 -18 480 l0 479 225 234 226 233 -133 6 c-73 4 -358 9
-633 13 -275 3 -545 8 -600 10 -55 2 -134 0 -175 -4z m25 -74 l30 -12 -176
-178 -175 -178 -45 68 c-73 109 -167 222 -231 275 l-59 49 313 -6 c202 -5 324
-11 343 -18z m560 14 c3 -5 15 -10 26 -10 22 0 94 -34 103 -49 6 -9 -279 -311
-293 -311 -5 0 -30 33 -56 73 -57 85 -163 215 -206 252 -26 21 -29 28 -19 40
10 12 50 15 226 15 131 0 215 -4 219 -10z m188 -11 c-8 -8 -16 -8 -30 0 -16 9
-14 10 12 11 21 0 26 -3 18 -11z m536 2 l114 -6 -178 -182 c-97 -101 -180
-183 -184 -183 -4 0 -33 37 -64 83 -31 46 -88 119 -126 164 l-69 80 26 27 27
26 170 -1 c93 -1 221 -4 284 -8z m-1106 -159 c32 -37 85 -107 118 -155 l59
-88 0 -480 0 -479 -325 0 -325 0 0 469 0 469 181 186 181 186 26 -20 c15 -11
53 -51 85 -88z m696 -82 c32 -41 77 -105 99 -141 l42 -66 0 -468 0 -468 -46 7
c-26 3 -163 6 -305 6 l-259 0 0 471 0 472 167 168 167 169 39 -37 c21 -21 65
-72 96 -113z m-2497 -1023 l218 -124 -98 -38 c-146 -58 -324 -150 -398 -206
l-66 -49 6 187 c4 104 9 239 12 301 l6 112 51 -29 c29 -16 150 -85 269 -154z
m2466 -166 l74 -6 -305 -191 -305 -192 -39 40 c-106 111 -283 244 -418 315
l-80 42 500 -1 c275 0 533 -3 573 -7z"/>
</g>
</svg>
