<?xml version="1.0" standalone="no"?>
<!DOCTYPE svg PUBLIC "-//W3C//DTD SVG 20010904//EN"
 "http://www.w3.org/TR/2001/REC-SVG-20010904/DTD/svg10.dtd">
<svg version="1.0" xmlns="http://www.w3.org/2000/svg"
 width="549.000000pt" height="371.000000pt" viewBox="0 0 549.000000 371.000000"
 preserveAspectRatio="xMidYMid meet">
<metadata>
Created by potrace 1.16, written by Peter Selinger 2001-2019
</metadata>
<g transform="translate(0.000000,371.000000) scale(0.100000,-0.100000)"
fill="#000000" stroke="none">
<path d="M3238 3408 l-3 -23 -313 0 c-258 0 -314 -2 -321 -14 -14 -22 -2 -39
34 -51 73 -24 181 -178 282 -401 l53 -117 0 -754 1 -753 -38 -48 -38 -47 -750
0 -750 0 -300 231 -300 231 -6 -138 c-4 -77 -7 -178 -8 -226 l-1 -87 -142 -3
c-127 -3 -143 -5 -146 -21 -3 -12 9 -22 40 -36 55 -23 122 -97 190 -210 l53
-86 5 -190 5 -190 25 0 25 0 5 142 5 141 35 43 c80 100 210 192 418 299 l98
50 728 0 c706 0 729 -1 713 -18 -10 -10 -17 -23 -17 -29 0 -11 434 -348 596
-462 107 -75 144 -88 144 -48 0 15 -25 46 -74 94 -56 54 -83 88 -109 144 -32
66 -65 184 -55 194 2 3 78 -53 168 -123 276 -212 432 -322 457 -322 46 0 28
41 -51 117 -56 54 -83 88 -109 144 -33 69 -65 185 -54 195 3 3 94 -63 202
-147 266 -205 413 -309 436 -309 43 0 32 31 -38 103 -39 40 -82 92 -97 116
-28 43 -66 141 -66 168 0 7 48 -24 108 -70 157 -123 412 -311 449 -333 31 -17
34 -17 50 -1 16 16 14 20 -40 75 l-57 58 0 557 c0 453 3 563 14 585 7 15 17
38 20 52 l7 25 -20 -25 -21 -25 0 422 0 422 231 331 c127 183 229 333 227 335
-8 9 -879 25 -928 18 -46 -7 -56 -12 -58 -30 -3 -18 4 -24 38 -34 48 -15 120
-76 168 -143 l33 -46 -408 0 -408 0 -60 53 c-34 28 -80 68 -104 89 -42 36 -42
36 -26 62 l17 26 -46 0 c-36 0 -52 6 -80 30 -34 31 -35 31 -38 8z m-171 -78
l163 0 0 -64 c0 -65 -1 -66 -85 -196 -76 -115 -88 -129 -105 -120 -28 15 -29
14 -32 -42 l-3 -53 -66 136 c-73 150 -121 229 -183 303 l-41 49 94 -6 c52 -4
168 -7 258 -7z m1863 1 l116 -6 -196 -281 -195 -281 -80 156 c-97 190 -159
286 -232 363 l-56 58 264 -1 c145 -1 316 -4 379 -8z m-1496 -137 c47 -41 86
-77 86 -79 0 -2 -37 -28 -82 -58 -46 -31 -100 -72 -120 -92 l-38 -37 0 127 c0
122 1 130 28 171 15 24 30 44 33 44 3 0 45 -34 93 -76z m-208 -351 c-3 -3 -32
12 -65 32 l-60 37 62 93 62 93 3 -125 c1 -69 1 -128 -2 -130z m1256 145 c64
-117 138 -274 138 -294 0 -12 -96 -14 -569 -14 l-570 0 -100 62 c-56 34 -101
65 -101 69 0 58 96 154 235 235 l50 29 425 5 c234 3 427 6 430 8 3 1 31 -44
62 -100z m-1072 -328 c0 -3 -35 -21 -77 -39 -43 -18 -109 -51 -148 -73 -69
-39 -70 -39 -104 -23 l-34 16 6 147 c3 81 8 155 12 164 6 14 34 0 176 -85 92
-56 169 -104 169 -107z m1210 -200 l0 -170 -576 0 -576 0 -112 67 c-61 37
-130 79 -154 94 l-42 27 82 43 c46 23 119 57 163 75 l80 33 568 1 567 0 0
-170z m-1373 -96 c70 -42 134 -82 141 -89 10 -9 -5 -18 -67 -44 -44 -18 -115
-53 -157 -77 -85 -48 -91 -50 -117 -29 -17 12 -18 23 -11 117 5 72 13 113 26
138 16 29 44 60 54 60 2 0 61 -34 131 -76z m1373 -309 l0 -185 -154 0 -155 0
15 38 16 37 -32 -37 -31 -38 -196 0 c-152 0 -194 3 -190 13 21 56 19 61 -9 25
l-29 -37 -189 -1 c-163 0 -187 2 -182 15 3 8 9 23 13 33 4 9 -4 5 -18 -11
l-24 -27 -160 96 c-88 53 -161 97 -163 99 -5 5 180 97 263 131 l80 33 573 1
572 0 0 -185z m-1372 -110 c83 -49 152 -93 152 -96 0 -4 -21 -14 -47 -24 -81
-30 -217 -102 -267 -140 -26 -20 -50 -34 -53 -31 -3 3 -2 79 2 171 6 143 10
169 27 191 11 14 23 24 27 22 5 -2 76 -43 159 -93z m320 -417 c-132 -161 -245
-297 -250 -303 -21 -23 30 262 72 402 16 55 38 120 49 146 l20 47 176 0 175 0
-242 -292z m656 280 c-7 -12 -475 -580 -496 -603 -6 -6 -7 15 -3 55 15 155 60
352 112 491 l25 69 185 0 c145 0 183 -3 177 -12z m394 -6 c-5 -20 -460 -573
-466 -567 -2 2 1 46 8 97 14 113 68 329 105 421 l27 67 165 0 c155 0 165 -1
161 -18z m-1260 -40 c-7 -10 -83 -102 -168 -205 l-155 -188 -3 82 c-4 100 13
139 82 191 38 28 234 134 254 138 2 0 -3 -8 -10 -18z m367 -204 c-30 -119 -55
-286 -55 -366 0 -34 -5 -64 -10 -67 -7 -4 -8 -11 -2 -18 6 -7 15 -45 21 -86
13 -86 44 -182 74 -230 28 -46 27 -45 -227 149 -156 119 -215 170 -214 183 3
18 428 540 435 534 1 -2 -8 -47 -22 -99z m434 27 c-28 -101 -59 -287 -59 -359
0 -54 -4 -66 -32 -100 l-32 -39 35 -31 c29 -26 38 -42 48 -95 7 -36 26 -94 42
-130 16 -35 28 -65 27 -67 -8 -7 -453 347 -452 359 1 14 434 541 439 535 2 -2
-5 -35 -16 -73z m-844 -36 c-27 -103 -55 -277 -55 -350 0 -29 -6 -51 -15 -59
-19 -16 -19 -29 -1 -49 8 -9 20 -47 26 -85 13 -83 44 -178 73 -225 13 -22 16
-32 6 -26 -11 7 -347 262 -441 336 -21 16 -20 17 43 95 165 204 383 464 386
461 2 -2 -8 -46 -22 -98z m1239 44 c-57 -187 -84 -413 -66 -560 11 -97 48
-225 77 -270 9 -13 12 -23 8 -23 -5 1 -100 72 -213 158 l-205 158 -3 43 c-4
48 -28 14 266 369 78 94 144 172 146 172 2 0 -2 -21 -10 -47z m66 -395 c-1
-389 -2 -421 -16 -394 -76 139 -90 371 -38 626 17 84 46 190 51 190 1 0 3
-190 3 -422z m-3525 168 c127 -97 231 -180 233 -184 1 -4 -19 -18 -45 -31 -82
-39 -229 -129 -296 -180 -35 -26 -70 -52 -78 -56 -12 -8 72 97 183 226 l48 56
-47 7 c-25 3 -95 6 -156 6 l-110 0 7 92 c3 50 6 129 6 176 0 66 3 82 13 75 6
-6 116 -90 242 -187z m-315 -306 c0 -55 -2 -100 -4 -100 -2 0 -20 25 -40 56
-21 31 -56 76 -78 100 l-41 44 82 0 81 0 0 -100z m227 94 c21 -6 17 -12 -49
-93 -39 -47 -84 -102 -99 -121 l-29 -35 0 128 0 127 78 0 c42 0 87 -3 99 -6z"/>
</g>
</svg>
