<?xml version="1.0" standalone="no"?>
<!DOCTYPE svg PUBLIC "-//W3C//DTD SVG 20010904//EN"
 "http://www.w3.org/TR/2001/REC-SVG-20010904/DTD/svg10.dtd">
<svg version="1.0" xmlns="http://www.w3.org/2000/svg"
 width="839.000000pt" height="371.000000pt" viewBox="0 0 839.000000 371.000000"
 preserveAspectRatio="xMidYMid meet">
<metadata>
Created by potrace 1.16, written by Peter Selinger 2001-2019
</metadata>
<g transform="translate(0.000000,371.000000) scale(0.100000,-0.100000)"
fill="#000000" stroke="none">
<path d="M4157 3303 c-41 -76 -102 -187 -135 -248 l-60 -110 -788 -517 -789
-517 -87 -1 -88 0 0 418 0 418 215 314 216 315 -73 7 c-83 8 -628 11 -1200 6
-297 -2 -390 -6 -400 -16 -18 -18 1 -44 41 -55 77 -19 188 -170 312 -423 l79
-161 0 -412 0 -411 -49 0 c-46 0 -59 7 -379 229 l-330 228 -6 -30 c-4 -17 -9
-232 -12 -477 -5 -382 -4 -448 8 -464 21 -27 42 -15 56 32 28 92 185 212 450
344 119 58 158 73 204 76 l58 4 0 -746 0 -746 25 0 25 0 0 745 0 745 355 0
355 0 0 -740 0 -740 25 0 25 0 0 740 0 740 73 0 73 0 275 -186 c605 -412 1026
-689 1180 -776 l87 -50 7 -86 c24 -348 30 -382 65 -382 15 0 22 10 31 46 31
122 272 352 624 596 l80 55 1510 371 c831 204 1524 372 1540 374 25 2 30 8 30
28 0 17 -6 26 -20 28 -28 5 -2917 902 -2931 910 -7 4 -139 149 -294 322 -155
173 -288 321 -295 328 -10 11 -26 -12 -88 -125z m-1894 38 c147 -5 270 -11
273 -14 5 -5 -243 -376 -324 -485 l-25 -34 -66 134 c-74 149 -160 286 -221
351 -22 24 -37 47 -33 50 8 8 53 8 396 -2z m2262 -301 l238 -265 -149 -12
c-328 -27 -568 -69 -697 -123 l-68 -28 86 165 c47 91 98 182 115 203 16 20 27
40 24 43 -4 3 33 79 81 168 l87 161 23 -23 c13 -13 130 -143 260 -289z m-2847
284 c57 -3 102 -10 100 -14 -6 -15 -343 -509 -348 -509 -3 -1 -33 57 -67 127
-74 150 -164 292 -230 363 l-47 50 244 -6 c135 -3 291 -8 348 -11z m274 -184
c27 -41 85 -147 129 -236 l79 -161 0 -417 0 -416 -355 0 -355 0 0 413 0 413
126 184 c70 102 156 227 192 279 l65 95 35 -40 c18 -21 56 -73 84 -114z m1882
-357 c-237 -358 -373 -678 -415 -972 -14 -103 -6 -292 16 -376 38 -139 133
-297 233 -386 62 -56 66 -58 -308 189 -542 357 -931 624 -927 635 3 9 1401
933 1416 936 2 1 -5 -11 -15 -26z m2409 -499 c771 -239 1403 -436 1404 -438 1
-1 -658 -164 -1464 -363 l-1467 -361 -414 130 c-227 71 -416 127 -419 124 -3
-3 -1 -103 4 -223 5 -120 8 -219 7 -221 -4 -7 -213 174 -249 217 -95 111 -146
218 -170 357 -51 290 43 641 282 1057 47 81 67 104 33 37 -41 -81 -14 -127 43
-72 98 93 333 146 812 185 22 2 75 4 118 5 76 2 104 -6 1480 -434z m-5310
-181 c133 -92 259 -179 279 -194 l37 -26 -132 -65 c-177 -87 -305 -167 -383
-240 l-64 -60 0 119 c0 178 13 633 17 633 3 0 113 -75 246 -167z m3353 -899
c187 -58 342 -108 347 -111 4 -2 -46 -43 -110 -90 -237 -173 -408 -323 -493
-432 l-55 -71 -6 83 c-4 45 -12 190 -18 322 -6 132 -13 277 -16 323 -4 48 -2
82 3 82 5 0 162 -48 348 -106z"/>
</g>
</svg>
