<?xml version="1.0" standalone="yes"?>
<svg xmlns="http://www.w3.org/2000/svg" width="839" height="371">
<!-- <path style="fill:#ffffff; stroke:none;" d="M0 0L0 371L839 371L839 0L0 0z"/>
--><path style="fill:#000000; stroke:none;" d="M422 27C415.787 41.8432 406.034 64.2714 394.79 75.8156C385.714 85.1344 371.799 91.4674 361 98.6667C336.495 115.003 311.866 131.273 287 147.053C266.055 160.344 246.498 180 221 180L221 124L221.702 98L235.28 77L265 33C222.537 27.6335 178.48 32 136 32C125.667 32 115.333 31.9463 105 32.0008C102.414 32.0144 96.5048 31.5307 95.9213 35.1705C95.3877 38.4987 107.526 44.5091 109.91 47.0146C120.289 57.9228 127.246 72.5755 133.742 86C146.645 112.668 140 150.795 140 180C129.318 179.992 122.468 173.637 114 167.72C98.8211 157.114 80.6259 139.617 63 134C63 159.337 61.0407 184.699 61 210C60.9941 213.688 59.8523 232.364 65.0903 232.364C68.3486 232.364 69.2125 228.239 70.4375 225.999C73.1117 221.111 77.6712 217.08 82 213.669C96.8073 202.002 120.632 186.053 140 186L140 336L145 336L145 186L216 186L216 335L221 335L221 186C241.478 186 256.447 201.298 273 212.333C300.336 230.558 327.57 248.913 355 266.997C365.205 273.725 378.551 279.01 387.682 286.966C390.635 289.539 389.848 293.492 390.09 297C390.687 305.67 391.45 314.326 392.089 323C392.309 325.993 392.495 334.385 396.965 334.248C400.275 334.147 400.673 329.283 401.612 326.999C404.074 321.007 408.874 315.748 413.17 311C428.121 294.474 450.73 274.777 471 265.124C491.943 255.151 520.406 252.472 543 247.116C592.426 235.398 641.722 222.946 691 210.627C710.651 205.714 730.351 201.039 750 196.127C758.565 193.985 769.198 189.288 778 191L780 185L778 183C767.327 183.471 755.103 177.165 745 174.025L674 152.025C629.332 138.147 584.556 124.58 540 110.344C523.087 104.94 498.722 102.227 484.004 92.2979C474.396 85.8162 466.343 73.6962 458.715 65C447.701 52.4439 434.607 40.6402 425 27L422 27z"/>
<path style="fill:#ffffff; stroke:none;" d="M187 37C198.659 54.0503 209.983 69.7183 218 89L220 89L254 38L187 37M424 37L411.258 60L409 69C398.772 79.7186 391.667 95.3883 386 109C413.87 97.5689 446.031 94 476 94L444.086 58L424 37M111 38C122.659 55.0503 133.983 70.7183 142 90L144 90L178 39L111 38M183 43L157.975 79L145.702 98L145 124L145 180L216 180L216 126C216 117.098 217.465 106.702 215.471 98C213.043 87.408 206.35 76.3667 200.999 67C196.146 58.5045 191.075 48.8084 183 43M382 92L313 137.344L243 183C252.101 194.792 270.607 203.405 283 211.667C309.222 229.148 335.499 251.517 364 265C358.699 254.769 350.324 247.126 346.065 236C334.076 204.68 343.616 169.441 356.424 140C361.225 128.965 367.092 118.225 373.424 108C376.259 103.423 381.822 97.4494 382 92M377 114L376 114C355.26 158.421 327.647 211.35 364.464 256C371.06 264 380.371 271.292 389 277L387 232L445 250.025L472 257.816L498 251.873L547 239.873L703 201.576L764 187C756.709 182.418 746.248 180.765 738 178.28C722.96 173.749 708.041 168.811 693 164.28C644.882 149.785 597.23 133.698 549 119.576C533.269 114.969 517.655 109.839 502 104.975C491.837 101.816 482.805 98.1569 472 99.5756C448.131 102.71 424.437 102.709 401 109.427C393.413 111.602 388.01 117.397 381.02 119.828C376.761 121.309 376.686 116.811 377 114M69 145L67 218L97 196.427L124 182L69 145M394 240C394 257.728 395.913 275.337 395.999 293C396.034 300.217 394.896 312.993 399 319C415.78 294.433 442.825 282.513 463 262L394 240M365 265L367 267L365 265z"/>
</svg>
