<?xml version="1.0" standalone="no"?>
<!DOCTYPE svg PUBLIC "-//W3C//DTD SVG 20010904//EN"
 "http://www.w3.org/TR/2001/REC-SVG-20010904/DTD/svg10.dtd">
<svg version="1.0" xmlns="http://www.w3.org/2000/svg"
 width="604.000000pt" height="371.000000pt" viewBox="0 0 604.000000 371.000000"
 preserveAspectRatio="xMidYMid meet">
<metadata>
Created by potrace 1.16, written by Peter Selinger 2001-2019
</metadata>
<g transform="translate(0.000000,371.000000) scale(0.100000,-0.100000)"
fill="#000000" stroke="none">
<path d="M2141 3282 c-92 -158 -345 -621 -410 -748 -81 -161 -89 -185 -67
-203 13 -11 21 -8 51 18 77 67 209 114 426 150 176 30 582 71 569 58 -3 -3
-33 -21 -67 -41 -35 -21 -63 -42 -63 -49 0 -7 -103 -82 -228 -169 l-227 -156
-125 9 c-69 5 -142 11 -162 13 -27 3 -38 0 -38 -9 0 -7 32 -88 70 -179 l70
-167 -25 -43 c-42 -71 -29 -100 30 -72 30 14 44 15 102 5 139 -24 148 -30 393
-269 124 -120 216 -217 205 -214 -71 16 -896 174 -907 174 -10 0 -13 -9 -11
-27 2 -16 15 -140 29 -278 33 -322 71 -606 89 -671 22 -76 54 -81 73 -11 19
67 58 121 164 223 128 122 289 248 519 404 l177 120 1222 365 c672 201 1226
365 1231 365 5 0 9 -232 9 -585 0 -572 0 -585 19 -585 11 0 22 4 25 9 3 5 6
389 6 855 l1 845 184 323 c101 177 183 323 182 324 -7 8 -710 23 -747 17 -35
-7 -46 -13 -48 -30 -2 -16 7 -25 40 -42 77 -37 163 -176 275 -446 l58 -140 3
-227 3 -227 -33 10 c-18 5 -548 149 -1178 321 -630 171 -1148 316 -1152 322
-4 6 -13 11 -20 11 -8 0 -163 161 -345 357 l-332 358 -40 -68z m369 -361 c200
-216 268 -296 258 -302 -7 -5 -38 -9 -69 -9 -72 0 -357 -27 -482 -46 -187 -27
-338 -67 -461 -119 -15 -6 -2 24 49 121 83 158 364 664 378 682 8 10 15 8 32
-10 13 -13 145 -155 295 -317z m3056 96 c3 -3 -63 -125 -147 -272 -117 -205
-155 -263 -160 -249 -85 220 -162 375 -236 475 l-45 62 292 -6 c160 -3 294 -8
296 -10z m-1521 -772 c622 -169 1133 -311 1138 -315 4 -3 -529 -167 -1185
-363 -656 -195 -1193 -355 -1194 -354 -2 2 304 444 341 493 19 24 52 42 164
85 78 30 141 57 141 61 0 8 -245 239 -267 252 -25 14 -48 -16 -33 -43 6 -12
10 -26 8 -31 -2 -5 -65 71 -140 170 l-138 180 0 91 c0 82 2 91 18 87 9 -3 526
-144 1147 -313z m-1222 243 c3 -35 4 -64 3 -66 -2 -1 -31 11 -65 27 l-61 29
52 35 c29 20 56 36 59 37 3 0 9 -28 12 -62z m-63 -96 l75 -37 157 -205 c174
-226 170 -217 140 -330 -15 -56 -44 -104 -202 -332 -102 -147 -187 -267 -190
-268 -3 0 -119 108 -256 239 l-251 240 -52 181 c-45 160 -50 183 -38 201 8 11
124 96 258 189 177 123 250 168 264 164 11 -3 54 -22 95 -42z m-703 -298 l33
-5 -27 -42 c-15 -23 -41 -73 -59 -112 l-32 -69 -17 39 c-9 22 -25 60 -35 85
-10 25 -25 62 -34 82 l-16 38 77 -6 c43 -3 93 -7 110 -10z m1300 -224 c3 -6
-167 -74 -172 -69 -1 2 3 33 11 69 7 36 14 83 14 104 l0 39 73 -69 c39 -38 73
-71 74 -74z m-1218 -25 c17 -61 31 -113 31 -116 0 -5 -62 8 -137 27 -28 7 -14
77 28 142 22 35 42 62 44 60 1 -1 17 -53 34 -113z m85 -599 c237 -46 439 -86
449 -88 12 -2 -39 -42 -145 -115 -286 -197 -494 -371 -588 -492 -30 -38 -55
-69 -57 -68 -5 6 -45 317 -67 532 -14 132 -28 257 -31 278 -3 20 -2 37 1 37 3
0 200 -38 438 -84z"/>
<path d="M1203 3044 c-25 -11 -14 -43 20 -57 69 -29 153 -155 243 -362 28 -66
55 -130 58 -142 l7 -23 -368 0 -368 1 -158 145 c-87 80 -161 143 -165 139 -13
-13 -15 -604 -2 -620 18 -21 36 -8 54 40 21 53 98 128 203 195 l78 50 373 0
372 0 10 -26 c6 -15 10 -188 10 -420 l0 -394 -384 0 -384 0 -164 150 -163 149
-8 -66 c-4 -37 -6 -180 -5 -317 3 -230 4 -251 21 -254 12 -3 22 9 37 42 25 60
90 123 194 191 l84 55 386 0 386 0 0 -420 0 -420 25 0 25 0 0 853 0 852 184
322 c102 178 181 325 176 328 -12 8 -762 16 -777 9z m695 -58 c6 -7 -293 -525
-301 -523 -5 1 -30 54 -56 117 -81 196 -153 325 -217 394 l-28 29 299 -7 c165
-4 301 -9 303 -10z m-1221 -485 l71 -65 -71 -49 c-40 -27 -93 -69 -119 -95
l-48 -46 0 144 c0 80 3 168 6 197 l7 52 42 -37 c23 -20 73 -66 112 -101z m-41
-848 c57 -53 104 -99 104 -102 0 -3 -30 -26 -66 -50 -36 -24 -87 -64 -115 -88
l-49 -45 0 139 c0 133 8 243 17 243 3 0 52 -43 109 -97z"/>
</g>
</svg>
