<?xml version="1.0" standalone="yes"?>
<svg xmlns="http://www.w3.org/2000/svg" width="604" height="371">
<path style="fill:#ffffff; stroke:none;" d="M0 0L0 371L604 371L604 0L0 0z"/>
<path style="fill:#000000; stroke:none;" d="M217 36L200 68C181.773 62.6125 156.048 65 137 65C133.514 65 118.921 63.5356 118.752 69.0401C118.644 72.5393 129.863 79.6929 132.254 83.0008C141.512 95.8098 146.372 110.831 153 125L103 125L81 123.987L46 95L46 144C46 147.162 44.2942 157.95 48.2099 159.248C51.3679 160.296 52.8213 154.858 53.9938 152.999C58.4949 145.865 66.0194 140.23 73 135.695C88.373 125.71 116.104 131 134 131C138.932 131 150.655 128.862 154.397 132.603C158.252 136.459 156 148.899 156 154L156 213L103 213L80 211.972L46 183L46 248C52.5964 247.486 53.2211 241.488 57.1852 237.004C62.9866 230.442 72.5577 222.514 81 219.702C88.0138 217.366 97.6613 219 105 219L156 219L156 303L162 303L162 193L162.39 135L170 119L171 119C169.593 122.628 161.955 134.847 166.604 137.914C168.787 139.353 171.333 137.191 173 135.956C178.553 131.842 184.349 128.727 191 126.721C216.998 118.881 243.706 119.882 270 115L270 116C248.698 123.754 233.98 148.403 212 155.437C202.263 158.553 189.086 154.083 179 154L192.233 188L189.284 201.392L199 201.144L218 205.279L233 218.91L265 249L172 231C173.129 257.289 177.288 283.91 180.718 310C181.449 315.559 181.216 332.177 187.208 334.824C190.61 336.327 199.751 318.121 202.428 315C218.702 296.028 241.616 281.72 262 267.586C286.449 250.635 316.68 244.859 345 236.576C383.072 225.44 420.925 213.549 459 202.424C480.012 196.285 502.899 191.65 523 183L523 300L529 300C529 259.399 530.742 218.247 530.742 178C530.742 163.289 525.491 145.795 529.498 131C536.03 106.885 559.045 88.0958 566 64C546.004 64 526.023 62 506 62C501.512 62 488.842 59.8837 486.137 64.4954C484.436 67.3933 488.129 69.1928 490.043 70.3982C497.193 74.9008 501.744 82.7186 505.691 90C512.323 102.233 520.365 117.146 522.674 131C524.899 144.347 523 159.469 523 173C470.821 158.193 418.352 144.33 366 130.151C341.833 123.606 311.505 120.083 289.285 108.596C279.852 103.719 272.656 93.8706 265.715 86C255.501 74.4199 244.787 63.0611 234.015 52C228.621 46.4619 224.153 39.3355 217 36z"/>
<path style="fill:#ffffff; stroke:none;" d="M219 46C202.199 69.5271 186.111 99.3122 175 126C208.717 116.361 242.619 109.293 278 109L244.09 72L219 46M499 68L514.216 93L527 122L557 69L499 68M131 71L150.219 103L160 125L189 73L131 71M193 78L194 79L193 78M189 85L190 86L189 85M188 87L189 88L188 87M185 92L186 93L185 92M184 94L185 95L184 94M183 96L184 97L183 96M182 98L181 100L182 98M180 101L181 102L180 101M179 103L180 104L179 103M178 105L171 119L172 119L178 105M52 108L51 145L74 128L52 108M288 115L288.564 132L314 167L315 167L314 160C324.673 161.189 339.951 178.436 346 187C337.31 189.011 323.306 192.819 316.465 198.649C302.591 210.471 290.573 233.487 281 249L341 231.424L459 196.28L518 179L518 178L288 115M281 116L272 122L272 124L282 128L281 116M275 248C285.547 229.484 302.989 213.567 311.468 194C313.266 189.85 315.413 182.507 314.397 178C313.085 172.177 306.994 166.589 303.424 162C294.374 150.365 283.285 128.577 266 128.343C258.596 128.243 248.841 138.199 243 142.28C235.141 147.772 219.75 154.483 215.183 163.093C212.591 167.981 216.194 175.148 217.579 180C222.863 198.512 230.569 208.772 245 221.83C254.064 230.031 263.507 243.547 275 248M188 161L197 183L198 183L208 162L188 161M321 171L319 190L335 185L321 171M210 176C205.353 182.047 202.069 187.234 202 195L217 198L210 176M52 196L51 233L74 215L52 196M179 238L188 322C204.637 308.261 218.35 291.555 236 278.374C245.045 271.62 261.158 264.629 267 255C238.291 252.731 206.885 245.214 179 238z"/>
</svg>
