<?xml version="1.0" standalone="yes"?>
<svg xmlns="http://www.w3.org/2000/svg" width="570" height="371">
<!-- <path style="fill:#ffffff; stroke:none;" d="M0 0L0 371L570 371L570 0L0 0z"/>
--><path style="fill:#000000; stroke:none;" d="M150 55L149 101L83 102C83.5146 108.629 90.1552 111.564 93.5324 117C100.314 127.915 106.794 142.395 109.482 155C111.874 166.215 110 179.549 110 191L110 264C92.0282 252.808 75.697 232.618 56 225C56 252.677 54 280.318 54 308C54 312.041 51.7443 333.364 58.0139 333.364C61.4707 333.364 68.1331 318.868 71.0147 316.039C81.9735 305.283 100.098 290.849 116 291C118.072 278.269 140.757 282 150 282L150 291L156 291L156 282L195 282L195 290L201 290L201 282L504 282L504 276L230 276C240.78 262.8 262.772 247.35 280 244.329C296.077 241.51 314.674 244 331 244L493 244L493 238L346 238L301 238L280 237.437L239 210L239 209L279 187.637L301 187L346 187L493 187L493 181L347 181L302 181L280 180.49L243 156L243 155C254.788 147.732 267.367 138.102 281 134.61C288.993 132.562 298.782 134 307 134L360 134L496 134L496 128L348 128L303 128C296.207 128 287.548 129.421 281 127.487C260.035 121.295 245.966 96.6924 225 90L225 102L173 100L173 99L197 89.213L233 89L305 89L489 89L489 83L290 83L228 83L197 82.6065L150 55z"/>
<path style="fill:#ffffff; stroke:none;" d="M156 65L155 101L188 86L188 85L156 65M231 101C231 113.002 229.999 124.952 230 137C230 141.901 229.336 147.929 235.019 150.004C239.081 151.487 242.852 147.739 246 145.695C254.643 140.085 264.131 136.176 273 131C262.151 119.97 244.85 107.89 231 101M181 107L199 146L219 107L181 107M95 107L114 147C118.737 138.885 123.055 130.413 127.247 122C128.835 118.813 131.725 114.637 129.353 111.148C124.326 103.751 102.849 107 95 107M154 147C160.566 135.751 170.714 120.827 173 108C169.168 107.516 164.667 106.138 161.019 108.028C154.854 111.221 149.174 121.766 149 107C131.086 107.063 148.22 137.857 154 147M224 110L201.394 155L201 194L201 276L222 276L223 156L224.09 125L224 110M177 115L156.39 156L156 195L156 276L195 276L195 168C195 151.917 189.964 126.113 177 115M135 120C128.79 130.63 119.34 144.018 116.418 156C114.553 163.649 116 173.148 116 181L116 231L116 259C116 262.608 115.201 267.315 117.603 270.334C124.634 279.17 140.055 276 150 276L150 173C150 156.402 147.551 132.525 135 120M230 155L230 158L232 155L230 155M236 160C228.641 171.326 227.994 179.802 228 193C228.002 197.182 227.668 205.118 234.005 204.758C238.103 204.526 242.668 199.838 246 197.692C254.182 192.422 263.014 187.741 272 184C263.445 175.805 247.573 162.72 236 160M228 268L249 252.453L272 240C262.903 233.862 253.926 227.525 245 221.14C242.333 219.233 237.714 214.5 234.105 215.458C229.315 216.728 228.957 224.103 228.425 228C226.654 240.977 228 254.908 228 268M62 237L60.9961 268L60 318C71.0041 309.129 80.6976 299.83 93 292.449C97.4397 289.785 107.246 286.732 109.397 281.787C112.51 274.63 107.072 269.939 102 266.127C89.5553 256.773 76.3423 243.063 62 237M116 277L116 280L118 279L118 278L116 277z"/>
</svg>
