<?xml version="1.0" standalone="no"?>
<!DOCTYPE svg PUBLIC "-//W3C//DTD SVG 20010904//EN"
 "http://www.w3.org/TR/2001/REC-SVG-20010904/DTD/svg10.dtd">
<svg version="1.0" xmlns="http://www.w3.org/2000/svg"
 width="503.000000pt" height="371.000000pt" viewBox="0 0 503.000000 371.000000"
 preserveAspectRatio="xMidYMid meet">
<metadata>
Created by potrace 1.16, written by Peter Selinger 2001-2019
</metadata>
<g transform="translate(0.000000,371.000000) scale(0.100000,-0.100000)"
fill="#000000" stroke="none">
<path d="M3618 3430 c-28 -17 -21 -40 16 -55 71 -30 128 -97 214 -255 35 -64
142 -302 142 -315 0 -3 -572 -5 -1271 -5 l-1270 0 -282 185 -282 184 -6 -62
c-4 -34 -7 -116 -8 -182 -1 -66 -4 -171 -8 -232 l-6 -112 -158 1 c-115 2 -161
-1 -172 -11 -23 -18 -12 -35 34 -55 57 -26 118 -107 199 -270 l70 -139 0 -553
c0 -305 -2 -554 -4 -554 -2 0 -58 31 -124 69 l-120 69 -7 -92 c-4 -50 -8 -227
-8 -394 -2 -251 0 -304 12 -311 22 -14 36 -4 55 40 33 74 219 185 485 288
l105 41 1428 0 1428 0 0 -190 0 -190 25 0 25 0 0 189 c0 159 2 190 15 195 8 3
15 15 15 26 0 11 -7 23 -15 26 -13 5 -15 115 -15 903 l1 896 234 425 234 425
-72 6 c-150 13 -891 21 -909 9z m656 -50 c126 -5 231 -11 233 -13 5 -5 -390
-727 -397 -727 -3 0 -27 62 -55 137 -55 150 -161 377 -218 466 -21 32 -56 78
-78 102 l-42 45 164 0 c90 0 267 -5 393 -10z m-3108 -457 c124 -80 221 -149
217 -153 -5 -3 -42 -21 -83 -40 -41 -18 -121 -59 -177 -91 -88 -50 -110 -59
-153 -59 l-50 0 0 184 c0 173 7 306 17 306 3 0 106 -66 229 -147z m2883 -275
l31 -86 0 -896 0 -896 -1085 0 -1085 0 0 635 0 635 154 252 154 253 -31 7
c-18 4 -230 10 -472 14 -242 3 -474 9 -515 13 l-75 7 150 75 150 74 1290 5
c710 3 1293 3 1297 0 4 -3 21 -44 37 -92z m-3187 -194 c5 -75 16 -98 44 -87 7
2 18 19 24 36 15 44 88 117 109 110 45 -16 42 -23 -67 -184 -59 -87 -109 -159
-112 -159 -3 0 -17 27 -31 59 -35 79 -116 214 -157 262 l-34 39 110 0 109 0 5
-76z m88 73 c0 -2 -9 -12 -20 -22 -19 -18 -20 -17 -20 3 0 15 6 22 20 22 11 0
20 -2 20 -3z m629 -22 c7 -7 1 -25 -18 -55 -16 -25 -70 -112 -120 -194 l-90
-149 -18 44 c-34 86 -115 245 -150 292 -56 79 -55 80 182 75 116 -2 209 -8
214 -13z m528 -1 c21 -4 13 -19 -99 -204 l-121 -200 -43 98 c-49 112 -103 211
-143 262 -15 19 -30 40 -34 47 -6 9 42 11 205 7 117 -3 223 -7 235 -10z m-443
-79 c40 -53 104 -175 152 -293 l44 -107 0 -627 0 -628 -245 0 -245 0 0 634 0
633 112 184 c61 101 118 196 127 211 9 16 19 28 22 28 4 0 18 -16 33 -35z
m-492 -58 c23 -40 66 -127 95 -194 l53 -123 0 -640 0 -640 -47 0 c-41 0 -69
13 -220 98 l-173 97 0 568 0 569 117 173 c65 95 121 171 125 169 4 -3 27 -37
50 -77z m-419 -1387 c42 -24 77 -48 77 -52 0 -4 6 -8 14 -8 22 0 318 -172 309
-180 -4 -4 -49 -23 -99 -43 -185 -73 -348 -161 -417 -226 l-29 -26 6 245 c4
135 9 271 12 303 6 56 7 58 28 44 11 -7 56 -33 99 -57z"/>
</g>
</svg>
