<?xml version="1.0" standalone="yes"?>
<svg xmlns="http://www.w3.org/2000/svg" width="503" height="371">
<path style="fill:#ffffff; stroke:none;" d="M0 0L0 371L503 371L503 0L0 0z"/>
<path style="fill:#000000; stroke:none;" d="M399 91L227 91L173 91C164.86 91 154.921 92.5409 147 90.581C125.27 85.2046 109.406 60.8211 88 54L86 113C77.7715 111.041 68.4295 111.791 60 112.015C57.6524 112.077 52.4438 112.036 51.9213 115.224C51.3758 118.552 61.4145 124.427 63.5355 127.001C71.2919 136.413 79.3403 150.094 82.3904 162C85.1838 172.904 83 186.766 83 198L83 271L58 257C54.3833 276.481 56 298.194 56 318C56 322.012 53.9308 334.708 58.2994 336.824C61.571 338.408 70.8214 325.517 74 323.359C87.9749 313.871 110.787 300.878 128 300.04C220.838 295.521 315.038 300 408 300L408 339L414 339L414 187C414 164.617 409.497 136.807 414.394 115C415.961 108.018 421.442 101.296 424.745 95C435.768 73.9831 453.424 51.7841 460 29C435.039 28.4847 409.984 26.0096 385 26C380.341 25.9982 362.783 23.9651 360.662 29.2986C359.099 33.2279 371.237 40.1169 373.699 43C385.688 57.0377 390.489 75.0346 399 91z"/>
<path style="fill:#ffffff; stroke:none;" d="M373 32C389.557 55.784 398.814 79.9431 411 106L430.309 72L451 34L373 32M93 64L92 113C107.904 112.998 123.719 100.767 138 94L138 93L93 64M114 112L114 113L222 115L191.499 168L191 208L191 294L408 294L408 157C408 139.767 412.537 114.243 401.725 99.3179C398.647 95.0685 388.629 97 384 97L333 97L212 97C191.17 97 166.405 93.2971 146 97.3789C134.901 99.599 123.905 106.789 114 112M65 118L85 153L87 153L107 121C97.7024 119.41 86.2756 144.351 86.0039 125.002L86 118L65 118M92 118L92 121L94 120L94 119L92 118M115 121L115 122L135 159C143.642 149.089 153.483 133.338 158 121C146.983 118.377 125.201 115.556 115 121M167 120L189 160L212 121L167 120M162 126L138.649 166L138 207L138 294L185 294L185 205C185 191.74 187.885 174.528 183.185 162C179.141 151.218 172.872 131.314 162 126M111 127C104.025 137.339 92.9002 149.276 88.7276 161C85.9977 168.67 88 179.912 88 188L88 246C88 252.991 85.2211 267.616 89.0278 273.61C91.1747 276.991 96.6337 278.928 100 280.85C110.401 286.786 119.69 293.992 132 294L132 188C132 167.946 127.694 140.833 111 127M63 267L61 325C78.5373 314.079 95.724 302.546 116 297C102.763 285.918 79.4459 272.204 63 267z"/>
</svg>
