<?xml version="1.0" standalone="yes"?>
<svg xmlns="http://www.w3.org/2000/svg" width="549" height="371">
<path style="fill:#ffffff; stroke:none;" d="M0 0L0 371L549 371L549 0L0 0z"/>
<path style="fill:#000000; stroke:none;" d="M496 41C466.563 63.4609 432.355 84.9868 400 103C398.864 97.7001 386.577 100 382 100L323 100C294.701 100 265.176 102.454 237 99.9722C228.824 99.2519 220.486 97.2357 212 97C195.58 96.5439 173.738 101.154 158 96.5278C150.41 94.2963 142.764 88.2495 136 84.1945C122.781 76.2692 109.245 68.8795 96 61C88.6159 56.6071 79.6009 49.048 71 48C71 75.7102 69 103.282 69 131C69 136.713 66.0596 155.243 71.5486 158.762C74.6136 160.727 86.5693 143.509 90 140.899C104.352 129.982 121.549 122.812 138 115.719C143.917 113.168 152.467 107.939 159 107.927C169.085 107.907 179.205 131.375 183.219 139C191.593 154.909 190 170.496 190 188L190 262C181.265 262 169.276 264.127 161 261.182C138.237 253.082 115.981 235.195 95 223.15C87.2529 218.702 78.8398 211.705 70 210C70 238.361 68 266.598 68 295C68 299.854 65.2437 319.573 71.1844 321.248C75.2234 322.388 76.8575 315.352 78.5687 313C84.2554 305.183 92.7902 299.815 101 295.012C118.526 284.758 141.82 271.841 162 268.329C170.918 266.776 180.956 268 190 268L190 285L195 285L195 268L350 268L386 268C389.985 268 396.987 269.727 398 265C420.484 277.53 441.228 294.131 463 307.947C466.831 310.378 481.778 322.627 486.199 318.164C489.778 314.551 481.259 308.479 479 306.615C465.337 295.339 455.917 283.122 454.17 265C450.487 226.789 480.78 198.825 498 169L465 188.657L404 227C404 213.126 400.661 194.295 404.649 181C409.017 166.439 420.909 152.462 428 139L429 139C439.69 150.664 457.565 159.257 471 167.576C473.052 168.846 485.364 176.878 485.364 169.853C485.364 163.325 471.379 155.901 467.518 151C457.749 138.602 456.763 123.913 460.015 109C463.802 91.6322 473.024 75.4772 483.025 61C486.603 55.8222 496.873 47.5107 496 41z"/>
<path style="fill:#ffffff; stroke:none;" d="M77 58L75 145C98.8937 128.235 123.273 111.857 152 104C149.93 97.0092 139.964 93.5736 134 90.1497C116.235 79.9512 96.6383 63.7766 77 58M473 63C450.321 80.4322 423.993 97.0855 399 111L423 128.667L461 153C448.747 129.712 451.833 108.643 462.001 85C464.964 78.1105 472.138 70.3232 473 63M170 106L192 144C202.499 135.452 213.965 118.119 220 106L170 106M195 262L394 262L394 261C353.866 238.656 319.727 202.74 278 183L314 159.308L395 107C384.973 102.792 367.896 106 357 106L269 106C258.42 106 237.42 101.957 228.093 107.028C223.873 109.323 220.913 115.212 218.151 119C211.074 128.706 201.111 139.064 196.14 150C192.091 158.906 195 174.307 195 184L195 262M391 114L379 132L417 132L417 131L391 114M372 129L289 182L289 183L361 231C345.75 206.265 347.148 182.376 358.427 156C361.951 147.762 370.986 137.614 372 129M383 137L401 173L402 173L421 138L383 137M401 230L401 229L398 229L398 192C398 183.102 396.55 176.252 393.139 168C390.535 161.701 383.547 140.207 375.104 140.207C371.986 140.207 370.39 144.744 369.248 147C365.775 153.86 362.486 160.71 360.003 168C352.935 188.749 351.747 213.068 368.04 229.996C371.337 233.421 376.888 239.947 382 240.289C388.032 240.693 395.917 232.83 401 230M472 191C452.06 206.325 429.07 218.265 408 232C403.544 234.905 387.715 241.582 386.921 247.145C386.183 252.317 400.356 258.904 404 261.333C422.862 273.908 441.175 287.963 461 299C445.811 273.861 445.864 250.095 457.011 223C460.457 214.624 472.805 199.565 472 191M76 220L74 307L116 280.309L153 264L101 233.719L76 220z"/>
</svg>
