<?xml version="1.0" standalone="no"?>
<!DOCTYPE svg PUBLIC "-//W3C//DTD SVG 20010904//EN"
 "http://www.w3.org/TR/2001/REC-SVG-20010904/DTD/svg10.dtd">
<svg version="1.0" xmlns="http://www.w3.org/2000/svg"
 width="549.000000pt" height="371.000000pt" viewBox="0 0 549.000000 371.000000"
 preserveAspectRatio="xMidYMid meet">
<metadata>
Created by potrace 1.16, written by Peter Selinger 2001-2019
</metadata>
<g transform="translate(0.000000,371.000000) scale(0.100000,-0.100000)"
fill="#000000" stroke="none">
<path d="M4489 2984 c-261 -168 -480 -308 -486 -311 -8 -3 -13 3 -13 16 l0 21
-834 0 c-554 0 -835 3 -838 10 -2 7 -141 13 -381 17 l-378 6 -417 243 -417
244 -6 -43 c-13 -82 -32 -951 -23 -1007 8 -46 13 -56 31 -58 18 -3 26 6 44 47
24 57 80 112 171 172 101 65 321 172 503 244 l169 68 39 -44 c57 -63 121 -165
189 -298 l58 -116 0 -552 0 -553 -148 0 -149 0 -444 259 c-412 240 -444 257
-451 238 -8 -28 -28 -673 -27 -877 1 -183 5 -205 39 -205 19 0 26 7 34 33 32
112 281 268 696 435 l155 62 148 3 147 3 0 -90 c0 -90 0 -91 25 -91 25 0 25 1
25 90 l0 90 1015 0 c887 0 1015 2 1015 15 0 9 133 -74 333 -206 498 -331 547
-358 555 -303 2 16 -21 40 -97 102 -155 128 -219 239 -228 404 -7 101 8 208
43 317 55 170 200 423 330 575 32 39 52 67 44 64 -8 -3 -217 -134 -465 -291
l-450 -286 -3 240 -2 241 116 204 c64 112 121 204 125 204 5 0 84 -50 176
-111 221 -148 353 -229 374 -229 18 0 33 26 23 41 -3 6 -40 39 -82 75 -143
122 -192 219 -192 379 0 206 122 484 319 728 40 48 70 87 68 87 -2 0 -217
-138 -478 -306z m-3319 -74 c311 -181 359 -213 360 -230 0 -3 -55 -27 -122
-54 -268 -105 -503 -234 -609 -333 -27 -25 -52 -44 -55 -41 -6 6 14 809 22
856 6 39 -41 62 404 -198z m3564 153 c-83 -128 -153 -286 -185 -420 -39 -164
-17 -340 56 -448 25 -35 25 -36 2 -24 -29 15 -598 398 -614 413 -9 8 79 70
370 258 210 136 384 247 386 248 2 0 -5 -12 -15 -27z m-2524 -408 c0 -2 -64
-93 -142 -200 l-141 -196 -56 108 c-59 113 -101 179 -158 251 l-34 42 265 0
c146 0 266 -2 266 -5z m1698 -47 c-42 -29 -310 -201 -596 -383 -287 -181 -521
-333 -522 -336 0 -3 28 -25 63 -49 119 -82 720 -483 806 -537 47 -29 86 -58
86 -63 0 -6 47 -42 105 -80 l105 -70 -1002 0 -1003 0 0 558 0 557 166 228 165
227 851 0 852 0 -76 -52z m150 -132 c73 -49 131 -90 129 -91 -1 -1 -94 1 -206
4 l-203 6 47 65 c57 78 87 111 95 108 4 -2 66 -43 138 -92z m-373 -137 c-208
-352 -246 -669 -106 -886 l40 -62 -77 49 c-175 111 -653 438 -653 446 1 8 828
541 843 543 4 1 -17 -40 -47 -90z m440 -8 l91 -6 -101 -177 -101 -177 -39 92
c-45 108 -97 207 -132 248 l-25 29 109 -1 c59 -1 149 -4 198 -8z m-331 -42
c42 -50 100 -160 150 -285 l36 -91 0 -246 c0 -237 1 -246 20 -249 14 -2 -9
-21 -80 -66 l-100 -64 -65 52 c-84 67 -126 119 -167 206 -30 64 -33 78 -36
189 -3 104 0 133 22 219 32 124 150 376 175 376 5 0 25 -19 45 -41z m891 -585
c-72 -121 -133 -262 -167 -384 -19 -69 -23 -110 -23 -220 0 -154 19 -229 81
-322 19 -28 38 -56 41 -62 9 -14 22 -22 -404 263 -273 182 -353 240 -353 256
1 15 98 82 438 297 240 152 440 277 443 277 4 1 -22 -47 -56 -105z m-3541
-406 c210 -121 385 -224 389 -228 4 -4 -52 -30 -125 -59 -287 -114 -520 -242
-627 -344 l-53 -52 6 240 c12 471 19 665 24 665 3 0 176 -100 386 -222z"/>
</g>
</svg>
