<?xml version="1.0" standalone="yes"?>
<svg xmlns="http://www.w3.org/2000/svg" width="619" height="371">
<path style="fill:#ffffff; stroke:none;" d="M0 0L0 371L619 371L619 0L0 0z"/>
<path style="fill:#000000; stroke:none;" d="M140 177C134.345 177 127.426 178.07 122 176.301C93.9589 167.161 73.3762 137.35 45 129C45 155.361 43 181.663 43 208C43 211.76 41.2314 231.364 47.1204 231.364C50.4373 231.364 51.6085 226.206 52.9938 224C56.6062 218.246 62.4414 213.53 68 209.746C88.9809 195.463 114.46 182 140 182L140 336L146 336L146 182L219 182L219 336L225 336L225 245C257.316 269.84 292.881 291.382 327 313.656C334.845 318.778 342.759 324.088 351 328.557C353.276 329.791 358.72 332.584 360.712 329.397C363.671 324.663 351.821 317.438 349 315.08C333.972 302.518 324.238 288.615 321.428 269C315.846 230.03 344.067 199.028 360 167L392 188L392 189C383.755 192.854 369.212 199.756 365 208C399.78 227.363 431.232 253.432 465 274.576C472.985 279.575 480.802 284.922 489 289.572C491.452 290.962 496.443 294.244 499.238 291.957C503.641 288.354 494.288 281.663 492 279.804C477.602 268.109 465.585 255.854 461.808 237C455.207 204.056 472.928 168.727 490.667 142C496.848 132.688 506.395 124.053 511 114C500.722 117.275 491.044 125.494 482 131.308C466.072 141.548 449.928 151.452 434 161.692C426.701 166.385 413.733 178.608 405.004 179.172C400.797 179.444 397.818 174.007 395.865 171C389.844 161.728 386.285 150.079 386.015 139C385.281 108.995 400.527 78.2011 417.029 54C423.3 44.802 431.469 36.6152 437 27C420.913 32.0924 405.28 45.9936 391 54.9499C357.233 76.1283 323.963 98.1386 290 119L312 135.025L353 162L353 164L316 186.576L225 244L225 182L317 182L317 177L225 177L225 133C225 126.562 223.555 118.037 226.086 112C235.473 89.6077 255.669 68.0952 269.344 48C274.091 41.0244 280.413 34.1196 283 26C231.678 26 180.27 24 129 24C116.667 24 104.333 23.9413 92 24.0008C89.0219 24.0151 81.8893 23.4608 80.7515 27.2593C79.4843 31.49 89.4485 34.0786 92 35.9283C102.523 43.5565 110.138 55.9146 116.576 67C124.733 81.0479 135.809 98.0461 139.471 114C143.861 133.131 140 157.357 140 177M512 336L518 336L518 181L518 135L518.702 113L530.999 94L561.67 49L576 26C544.961 26 514.048 24 483 24C477.024 24 456.736 20.8582 453.086 26.5486C451.046 29.7299 469.137 40.0325 471.91 43.0008C488.676 60.9413 500.12 85.5743 509.572 108C513.042 116.234 512 125.236 512 134L512 178L512 336z"/>
<path style="fill:#ffffff; stroke:none;" d="M96 30L118.947 59L143 105C154.68 92.8045 163.598 76.0356 173.001 62C175.583 58.1456 183.04 51.0231 181.543 46C179.317 38.5276 168.192 32.3641 161 31.3009C139.808 28.1682 117.387 30 96 30M222 105L223 105L255.025 58L272 32C258.998 31.9914 244.955 32.0631 232 30.8302C223.553 30.0264 212.369 28.123 204.04 30.3179C199.297 31.5678 192.501 41.2484 191.788 46C190.993 51.2955 198.003 58.6709 200.6 63C208.729 76.5477 215.248 90.7498 222 105M468 30L468 31C490.995 48.5223 502.994 79.6612 515 105L516 105L546.72 60L565 32L468 30M176 31L176 32L186 42L193 32L176 31M301 119C311.026 131.131 329.894 139.929 343 148.667C347.342 151.561 353.659 157.752 359 158.212C363.315 158.584 368.338 153.949 372 152L364 163L397 184C391.761 173.736 384.964 165.596 382.236 154C373.345 116.199 394.472 81.6021 412 50L381 68.5756L301 119M186 53L158.656 93L146.51 112L146 133L146 177L219 177C219 157.033 223.34 131.323 218.39 112C212.995 90.9376 198.414 71.7062 188 53L186 53M486 136C461.096 152.479 434.974 172.242 408 185C410.896 188.58 428.025 199.022 425.477 204.091C424.117 206.797 419.79 204.586 418 203.725C412.069 200.873 405.513 194.099 399 193.096C392.582 192.106 379.689 202.911 375 207C407.086 228.646 438.822 253.806 473 272C467.799 264.392 462.309 257.794 459.054 249C449.101 222.113 457.71 193.036 468.861 168C473.168 158.33 484.794 146.182 486 136M51 139L49 217C69.3435 202.726 89.3921 186.73 114 180L114 179L51 139M347 174L237 244L237 246L333 310C328.232 302.344 322.829 295.604 319.695 287C310.123 260.717 317.916 232.577 328.861 208C333.4 197.808 345.735 184.679 347 174z"/>
</svg>
