<?xml version="1.0" standalone="no"?>
<!DOCTYPE svg PUBLIC "-//W3C//DTD SVG 20010904//EN"
 "http://www.w3.org/TR/2001/REC-SVG-20010904/DTD/svg10.dtd">
<svg version="1.0" xmlns="http://www.w3.org/2000/svg"
 width="619.000000pt" height="371.000000pt" viewBox="0 0 619.000000 371.000000"
 preserveAspectRatio="xMidYMid meet">
<metadata>
Created by potrace 1.16, written by Peter Selinger 2001-2019
</metadata>
<g transform="translate(0.000000,371.000000) scale(0.100000,-0.100000)"
fill="#000000" stroke="none">
<path d="M858 3462 c-68 -6 -78 -56 -13 -68 20 -3 58 -23 84 -43 110 -83 208
-228 359 -530 l107 -215 3 -333 3 -333 -98 0 -98 0 -371 239 -372 238 -6 -41
c-3 -23 -9 -246 -13 -496 -6 -424 -5 -457 11 -473 23 -23 33 -15 60 46 13 29
42 69 65 90 95 86 323 214 546 306 89 37 105 41 186 41 l89 0 0 -770 0 -770
25 0 25 0 0 770 0 770 375 0 375 0 0 -770 0 -770 25 0 25 0 0 770 0 770 460 0
460 0 0 25 0 25 -460 0 -460 0 0 328 0 327 289 422 289 422 -62 5 c-172 15
-1779 30 -1908 18z m662 -55 c80 -3 116 -9 153 -25 52 -23 160 -124 155 -145
-5 -19 -392 -586 -400 -586 -5 -1 -8 4 -8 11 0 7 -40 93 -89 193 -104 210
-228 402 -316 491 -62 61 -63 63 -37 66 28 3 359 0 542 -5z m1197 -15 c7 -5
-78 -138 -239 -372 -137 -201 -252 -364 -255 -363 -4 1 -30 52 -58 115 -63
137 -151 298 -217 395 l-48 73 57 86 58 87 345 -8 c190 -4 350 -10 357 -13z
m-800 2 c21 -6 21 -7 -14 -56 l-36 -49 -56 53 c-30 29 -58 54 -60 56 -9 5 145
1 166 -4z m35 -331 c86 -144 147 -265 207 -405 l41 -95 0 -312 0 -311 -375 0
-375 0 0 323 0 322 207 303 c114 166 210 302 213 302 4 0 41 -57 82 -127z
m-1135 -934 c164 -105 304 -197 311 -203 10 -10 -6 -21 -85 -55 -218 -95 -407
-206 -501 -294 l-55 -52 7 383 c6 341 10 412 21 412 2 0 138 -86 302 -191z"/>
<path d="M4578 3463 c-45 -5 -68 -28 -47 -47 8 -7 37 -21 64 -31 126 -46 321
-330 486 -707 l49 -113 0 -1107 0 -1108 25 0 25 0 0 1123 0 1122 289 422 289
422 -62 5 c-161 15 -1018 29 -1118 19z m692 -59 c201 -3 370 -9 377 -12 7 -5
-76 -134 -238 -372 -138 -201 -252 -365 -255 -365 -3 0 -32 56 -63 125 -114
247 -235 442 -346 557 -81 84 -83 83 70 77 50 -2 254 -6 455 -10z"/>
<path d="M3632 2976 c-393 -250 -714 -457 -714 -462 0 -5 138 -103 308 -217
170 -114 310 -211 311 -215 1 -4 -250 -167 -559 -362 -308 -195 -596 -378
-640 -406 l-80 -51 54 -38 c117 -86 1021 -685 1135 -754 66 -40 129 -71 140
-69 10 2 19 13 21 25 3 17 -15 36 -75 85 -178 144 -243 225 -290 360 -31 90
-41 238 -24 359 27 184 143 459 290 680 38 58 76 111 84 118 13 10 40 -4 169
-90 84 -56 156 -105 161 -108 4 -4 -56 -47 -133 -96 -77 -49 -137 -92 -133
-96 17 -15 704 -476 918 -616 293 -191 387 -246 408 -237 42 16 11 55 -138
178 -219 182 -291 430 -215 743 55 231 216 537 403 768 36 44 64 81 62 83 -2
2 -240 -148 -531 -332 -405 -257 -531 -333 -541 -324 -34 28 -112 161 -134
229 -21 65 -24 92 -24 219 0 119 4 161 24 235 62 240 218 533 407 765 35 44
61 80 57 80 -4 -1 -329 -205 -721 -454z m446 158 c-307 -489 -354 -937 -127
-1224 23 -29 35 -51 26 -47 -25 10 -337 215 -337 222 0 4 16 27 36 51 20 24
33 44 30 44 -4 0 -28 -14 -53 -32 -26 -17 -52 -31 -58 -31 -6 0 -143 89 -304
198 l-293 198 54 33 c29 18 283 179 563 358 281 179 513 325 517 325 4 1 -21
-42 -54 -95z m751 -856 c-174 -268 -279 -573 -279 -807 1 -165 55 -322 156
-446 26 -33 42 -55 34 -50 -8 6 -234 157 -502 335 -268 179 -488 328 -488 331
0 7 195 134 221 144 10 3 48 -14 95 -43 111 -69 160 -93 178 -86 40 15 3 64
-119 156 -25 18 -43 37 -42 41 2 6 795 516 804 517 1 0 -25 -42 -58 -92z
m-1355 -325 c-155 -236 -261 -475 -299 -674 -22 -116 -20 -277 5 -373 24 -96
79 -202 139 -269 l46 -51 -40 24 c-118 70 -965 644 -963 651 3 8 1116 719
1126 719 2 0 -4 -12 -14 -27z"/>
</g>
</svg>
