<?xml version="1.0" standalone="no"?>
<!DOCTYPE svg PUBLIC "-//W3C//DTD SVG 20010904//EN"
 "http://www.w3.org/TR/2001/REC-SVG-20010904/DTD/svg10.dtd">
<svg version="1.0" xmlns="http://www.w3.org/2000/svg"
 width="399.000000pt" height="371.000000pt" viewBox="0 0 399.000000 371.000000"
 preserveAspectRatio="xMidYMid meet">
<metadata>
Created by potrace 1.16, written by Peter Selinger 2001-2019
</metadata>
<g transform="translate(0.000000,371.000000) scale(0.100000,-0.100000)"
fill="#000000" stroke="none">
<path d="M516 3433 c-9 -55 -20 -924 -12 -957 10 -40 47 -32 60 12 30 105 263
262 602 405 l112 47 219 0 219 0 18 -47 c10 -27 40 -110 67 -186 l49 -138 0
-885 0 -884 -316 0 -316 0 -346 240 c-191 132 -350 236 -354 232 -11 -11 -24
-948 -14 -986 11 -45 44 -31 67 28 10 27 38 70 61 94 64 65 225 168 404 258
l159 79 328 3 327 3 0 -221 0 -220 30 0 30 0 0 220 0 220 545 0 545 0 0 -220
0 -220 25 0 25 0 0 1118 0 1117 291 423 c160 233 289 426 287 427 -2 2 -136 9
-298 14 -385 14 -885 14 -911 1 -27 -15 -24 -39 9 -51 76 -31 97 -43 141 -84
99 -93 240 -321 362 -585 l69 -150 0 -870 0 -870 -545 0 -545 0 0 885 0 885
96 185 96 185 329 0 329 0 0 25 0 25 -316 0 -315 0 110 214 111 213 -77 7
c-119 9 -816 20 -846 12 -42 -10 -37 -48 8 -65 52 -19 117 -101 190 -242 36
-70 65 -130 65 -133 0 -3 -95 -6 -211 -6 l-211 0 -362 231 c-198 128 -366 236
-372 241 -8 5 -13 -4 -18 -29z m1685 -59 l65 -7 -97 -186 -97 -186 -161 -3
-161 -2 -44 95 c-57 122 -110 208 -161 264 l-40 44 315 -7 c173 -3 345 -9 381
-12z m-1308 -204 c169 -107 306 -198 307 -201 0 -3 -30 -19 -67 -34 -111 -46
-333 -161 -408 -211 -38 -25 -94 -69 -124 -98 l-53 -51 6 389 c4 214 9 393 12
398 3 5 9 8 14 6 4 -2 145 -91 313 -198z m2563 181 l81 -6 -251 -367 c-138
-202 -253 -367 -256 -367 -3 0 -48 89 -101 197 -114 232 -229 411 -324 501
l-67 64 419 -8 c230 -4 454 -10 499 -14z m-1416 -415 c0 -3 -35 -73 -79 -156
l-79 -152 -25 74 c-13 40 -39 110 -56 156 l-30 82 134 0 c74 0 135 -2 135 -4z
m-1175 -1954 c154 -106 281 -196 282 -200 1 -4 -69 -42 -155 -84 -184 -91
-289 -158 -378 -240 l-64 -60 0 169 c0 311 12 623 24 616 6 -4 137 -94 291
-201z"/>
</g>
</svg>
