<?xml version="1.0" standalone="no"?>
<!DOCTYPE svg PUBLIC "-//W3C//DTD SVG 20010904//EN"
 "http://www.w3.org/TR/2001/REC-SVG-20010904/DTD/svg10.dtd">
<svg version="1.0" xmlns="http://www.w3.org/2000/svg"
 width="360.000000pt" height="371.000000pt" viewBox="0 0 360.000000 371.000000"
 preserveAspectRatio="xMidYMid meet">
<metadata>
Created by potrace 1.16, written by Peter Selinger 2001-2019
</metadata>
<g transform="translate(0.000000,371.000000) scale(0.100000,-0.100000)"
fill="#000000" stroke="none">
<path d="M2296 3128 c-26 -21 -15 -44 31 -63 21 -9 51 -28 66 -43 35 -34 113
-154 161 -251 34 -66 116 -250 116 -258 0 -2 -344 -3 -764 -3 l-764 0 -323
185 c-248 142 -325 181 -331 171 -4 -8 -11 -181 -15 -385 -5 -294 -4 -373 7
-386 21 -25 37 -17 59 28 14 28 42 59 79 87 66 50 294 162 434 214 l97 36 772
-2 772 -3 23 -60 23 -60 0 -777 1 -778 -797 0 -798 0 -324 185 c-203 116 -327
182 -331 175 -9 -14 -20 -348 -20 -585 0 -181 4 -205 36 -205 7 0 22 20 34 45
38 78 212 183 482 289 l117 46 801 0 800 0 0 -210 0 -210 25 0 25 0 0 210 0
210 25 0 c20 0 25 5 25 25 0 20 -5 25 -25 25 l-25 0 0 781 0 782 215 372 c118
204 217 378 220 387 8 20 -92 26 -555 34 -303 5 -358 4 -374 -8z m770 -57 l81
-6 -160 -277 -160 -278 -51 0 -51 1 -58 137 c-69 164 -156 317 -223 391 l-48
54 294 -8 c162 -4 332 -10 376 -14z m-2280 -417 c132 -75 250 -143 263 -151
23 -15 21 -16 -75 -54 -151 -60 -320 -147 -390 -200 l-64 -48 0 98 c0 179 13
491 21 491 4 0 114 -61 245 -136z m2004 -202 c0 -13 -29 -48 -30 -35 0 6 -3
18 -6 27 -4 12 0 16 15 16 12 0 21 -4 21 -8z m-1932 -1567 c116 -66 212 -122
212 -125 0 -3 -35 -18 -78 -33 -128 -48 -335 -152 -405 -206 l-67 -50 0 97 c0
53 3 188 7 299 l6 202 57 -32 c31 -18 152 -86 268 -152z"/>
<path d="M1485 2224 c-20 -20 -4 -44 30 -44 12 0 50 -14 85 -32 69 -34 200
-157 280 -262 l45 -59 5 -516 5 -516 25 0 25 0 3 512 2 512 231 203 231 203
-163 6 c-90 3 -304 7 -476 8 -274 1 -314 -1 -328 -15z m661 -43 l171 -6 -171
-150 c-93 -82 -175 -150 -182 -150 -6 0 -38 34 -72 76 -67 83 -177 190 -226
220 l-31 19 170 -1 c94 -1 247 -4 341 -8z"/>
</g>
</svg>
