<?xml version="1.0" standalone="yes"?>
<svg xmlns="http://www.w3.org/2000/svg" width="360" height="371">
<path style="fill:#ffffff; stroke:none;" d="M0 0L0 371L360 371L360 0L0 0z"/>
<path style="fill:#000000; stroke:none;" d="M266 120L164 120C149.369 120 130.115 123.324 116 119.502C91.6447 112.905 71.7634 90.6503 48 82C48 101.006 48.5112 121.137 46.2855 140C45.7354 144.662 44.3573 158.743 48.588 161.953C52.6246 165.016 57.555 154.442 60.0154 152.326C71.3949 142.539 87.139 136.197 101 130.811C118.937 123.841 135.995 125 155 125L227 125L257 125C260.378 125 265.611 124.061 268.298 126.603C278.071 135.854 274 159.05 274 171L274 292L199 292L199 219L200.028 190.17L212 178.834L246 148C221.379 148 196.69 147 172 147C167.366 147 150.954 144.489 148.086 148.584C145.135 152.799 154.867 154.401 157 155.349C169.009 160.687 178.53 171.953 186.551 182C195.161 192.785 193 204.845 193 218L193 292L140 292L114 291.362L48 255C48 274.006 48.5112 294.137 46.2855 313C45.7473 317.562 44.5054 331.849 48.588 334.953C52.5277 337.948 58.3927 326.619 61.0039 324.468C73.9336 313.812 91.4788 307.279 107 301.425C124.372 294.874 145.646 298 164 298L274 298L274 340L279 340L279 298L284 298L284 292L279 292L279 187C279 172.261 275.413 152.12 279.649 138C288.153 109.648 313.807 86.8395 324 59C299.691 58.933 275.397 57 251 57C246.949 57 229.176 54.6226 228.466 60.1736C227.966 64.087 240.708 71.6267 243.32 75C253.013 87.5179 261.819 104.712 266 120z"/>
<path style="fill:#ffffff; stroke:none;" d="M241 62C250.407 75.513 258.633 88.0442 265.745 103C267.784 107.29 269.848 117.247 274.394 119.397C281.514 122.764 285.363 114.883 288.15 110C296.621 95.1643 308.154 80.0597 314 64L241 62M54 92L52 150L105 123L105 121L54 92M275 125L277 129L279 125L275 125M165 152L165 153C177.864 160.4 186.85 172.649 196 184L197 184L231 153L165 152M54 265L52 323L106 295C91.8368 283.143 70.7533 272.822 54 265z"/>
</svg>
