<?xml version="1.0" standalone="no"?>
<!DOCTYPE svg PUBLIC "-//W3C//DTD SVG 20010904//EN"
 "http://www.w3.org/TR/2001/REC-SVG-20010904/DTD/svg10.dtd">
<svg version="1.0" xmlns="http://www.w3.org/2000/svg"
 width="624.000000pt" height="371.000000pt" viewBox="0 0 624.000000 371.000000"
 preserveAspectRatio="xMidYMid meet">
<metadata>
Created by potrace 1.16, written by Peter Selinger 2001-2019
</metadata>
<g transform="translate(0.000000,371.000000) scale(0.100000,-0.100000)"
fill="#000000" stroke="none">
<path d="M3190 3434 c0 -13 -24 -14 -212 -7 -346 12 -572 10 -591 -6 -27 -22
-20 -39 26 -59 100 -44 224 -269 362 -657 l55 -155 0 -650 c0 -635 0 -650 -19
-641 -18 10 -19 2 -26 -207 -14 -390 -12 -777 4 -795 17 -21 51 -5 51 23 0 13
7 20 20 20 16 0 20 7 20 34 0 28 8 42 48 77 77 69 216 155 392 242 l165 82
312 3 313 3 0 -226 0 -225 25 0 25 0 0 225 0 225 560 0 560 0 0 -225 0 -225
25 0 25 0 0 1123 0 1122 289 420 c175 255 284 422 277 426 -14 8 -806 30
-1006 28 -181 -2 -205 -6 -205 -38 0 -20 8 -26 50 -38 39 -12 64 -30 120 -86
38 -40 85 -93 103 -119 l33 -48 -286 0 -285 0 13 33 c8 17 43 89 78 159 35 70
61 129 59 131 -9 8 -703 30 -793 25 -62 -3 -91 -9 -98 -19 -13 -21 -7 -31 32
-51 19 -11 48 -34 64 -52 32 -36 125 -195 125 -214 0 -8 -18 -12 -46 -12 -41
0 -69 15 -294 152 -162 99 -246 156 -243 165 4 9 -4 13 -23 13 -16 0 -42 9
-59 20 -36 24 -45 25 -45 4z m-172 -61 l172 -6 0 -53 c0 -50 -12 -77 -161
-364 -89 -171 -164 -312 -169 -315 -4 -2 -13 15 -19 38 -22 73 -142 369 -183
452 -52 102 -102 181 -141 223 l-31 32 180 0 c98 0 257 -3 352 -7z m1171 -4
c163 -6 298 -13 300 -15 2 -2 -26 -65 -62 -139 l-66 -135 -198 0 -198 0 -49
97 c-27 53 -69 120 -93 150 l-43 53 57 0 c31 0 190 -5 352 -11z m1364 -25
c188 -5 257 -10 254 -18 -3 -7 -116 -175 -252 -373 l-248 -362 -98 197 c-118
239 -230 412 -328 506 l-72 69 243 -6 c134 -4 359 -10 501 -13z m-2045 -140
c114 -70 215 -132 224 -138 14 -10 -1 -19 -95 -60 -148 -63 -263 -126 -344
-188 l-66 -51 5 234 c5 221 6 237 28 282 13 26 28 47 33 47 4 0 101 -57 215
-126z m-326 -395 l3 -157 -50 23 c-99 44 -145 69 -145 78 0 6 42 90 93 188
l92 179 2 -78 c2 -42 4 -147 5 -233z m784 131 c60 -148 144 -417 144 -459 l0
-41 -244 0 -245 0 -197 95 c-109 53 -199 97 -201 98 -1 2 6 21 16 43 46 94
189 187 471 306 96 40 124 47 168 45 l54 -2 34 -85z m364 86 c0 -2 -44 -95
-99 -207 l-98 -204 -17 55 c-13 42 -92 266 -123 346 -4 12 25 14 166 14 94 0
171 -2 171 -4z m714 -35 c88 -139 236 -462 236 -515 l0 -36 -560 0 -560 0 0
58 c-1 53 7 73 117 295 l117 237 313 0 313 0 24 -39z m-2094 -491 c-4 -107 -7
-350 -5 -540 6 -523 5 -618 -1 -707 l-6 -83 -29 21 -29 20 0 670 0 669 37 74
c20 42 38 74 39 73 1 -1 -2 -90 -6 -197z m580 -82 c0 -4 -7 -8 -15 -8 -25 0
-284 -100 -365 -140 l-75 -37 -40 19 -40 20 2 111 c2 62 6 153 9 203 l6 92
259 -126 c142 -69 259 -130 259 -134z m580 -239 c0 -244 -6 -255 -57 -108 -73
208 -85 239 -94 234 -5 -3 -68 -80 -140 -170 -127 -160 -132 -165 -167 -165
-26 0 -105 34 -269 113 -127 61 -233 117 -234 122 -3 14 148 79 316 136 l140
48 253 1 252 0 0 -211z m1170 1 l0 -210 -560 0 -560 0 0 210 0 210 560 0 560
0 0 -210z m-1286 -94 c19 -60 34 -111 32 -113 -2 -2 -63 -2 -135 -1 l-132 3
92 118 c51 65 96 114 99 110 4 -5 24 -57 44 -117z m-687 -23 c123 -60 223
-110 223 -113 0 -3 -48 -22 -108 -42 -144 -49 -268 -102 -337 -144 -58 -34
-80 -41 -89 -26 -3 4 -2 90 2 191 l7 183 33 29 c18 16 36 29 40 29 4 0 107
-48 229 -107z m288 -219 c-74 -103 -72 -143 5 -102 51 27 182 24 335 -7 68
-14 135 -29 149 -35 l26 -10 0 -125 0 -125 -252 0 -253 0 -262 127 c-145 70
-263 130 -263 134 0 23 493 219 552 219 13 0 3 -19 -37 -76z m486 -11 c15 -46
26 -83 24 -83 -2 0 -49 11 -104 24 -122 30 -282 50 -327 41 -19 -3 -34 -3 -34
0 0 3 17 28 37 55 l38 50 169 -2 169 -3 28 -82z m1199 -153 l0 -240 -372 0
-373 0 -165 131 c-219 173 -210 161 -210 265 l0 84 560 0 560 0 0 -240z m-931
-157 l103 -83 -146 0 -146 0 0 116 0 116 43 -33 c23 -19 89 -71 146 -116z
m-1066 16 c139 -67 253 -122 255 -123 1 -2 -58 -24 -130 -50 -154 -55 -321
-132 -374 -173 l-37 -28 6 230 c5 208 10 265 24 265 2 0 118 -55 256 -121z
m827 -454 l0 -295 -311 0 -311 0 -234 162 c-184 127 -231 164 -222 175 37 45
230 136 441 208 l132 45 253 0 252 0 0 -295z m741 40 c309 -245 322 -255 341
-239 10 10 15 21 11 25 -5 4 -132 105 -283 224 -151 120 -282 224 -290 231
-12 12 35 14 318 14 l332 0 0 -295 0 -295 -560 0 -560 0 0 295 0 295 185 0
184 0 322 -255z m-1931 -5 c16 -11 32 -30 35 -41 4 -12 14 -19 25 -17 11 2
107 -58 235 -146 l216 -149 -143 -72 c-165 -82 -257 -137 -345 -206 l-63 -49
0 350 c0 192 3 350 6 350 3 0 19 -9 34 -20z m-93 -702 c-2 -24 -4 -5 -4 42 0
47 2 66 4 43 2 -24 2 -62 0 -85z"/>
<path d="M535 2298 c-12 -182 -11 -906 1 -918 18 -18 43 0 54 39 29 108 187
238 465 382 l132 69 807 0 806 0 0 25 0 25 -817 0 -818 0 -300 231 c-165 127
-305 235 -312 241 -8 6 -13 -18 -18 -94z m321 -204 c140 -107 254 -197 254
-199 0 -2 -44 -27 -97 -55 -150 -80 -283 -171 -368 -251 l-77 -74 6 315 c6
314 14 460 22 460 3 0 120 -88 260 -196z"/>
</g>
</svg>
