<?xml version="1.0" standalone="no"?>
<!DOCTYPE svg PUBLIC "-//W3C//DTD SVG 20010904//EN"
 "http://www.w3.org/TR/2001/REC-SVG-20010904/DTD/svg10.dtd">
<svg version="1.0" xmlns="http://www.w3.org/2000/svg"
 width="584.000000pt" height="371.000000pt" viewBox="0 0 584.000000 371.000000"
 preserveAspectRatio="xMidYMid meet">
<metadata>
Created by potrace 1.16, written by Peter Selinger 2001-2019
</metadata>
<g transform="translate(0.000000,371.000000) scale(0.100000,-0.100000)"
fill="#000000" stroke="none">
<path d="M4273 3444 c-23 -11 -14 -44 15 -55 69 -27 100 -48 152 -100 100
-101 229 -313 351 -576 l64 -138 3 -1117 2 -1118 25 0 25 0 0 1120 0 1120 290
422 289 423 -82 6 c-113 9 -1119 20 -1134 13z m831 -54 c153 -5 281 -11 283
-13 6 -6 -493 -732 -502 -730 -4 1 -31 53 -60 115 -116 250 -246 459 -356 571
l-67 67 212 0 c116 0 337 -5 490 -10z"/>
<path d="M1522 3429 c-14 -5 -22 -16 -20 -25 3 -18 10 -22 78 -50 99 -41 234
-219 374 -492 69 -137 75 -152 59 -160 -59 -32 -991 -435 -1003 -434 -8 0
-143 48 -299 106 -157 58 -287 104 -289 101 -2 -2 43 -133 100 -291 l105 -287
-54 -171 c-101 -323 -193 -643 -196 -682 -3 -57 28 -58 66 -3 49 71 159 104
382 115 l130 6 294 -193 c163 -107 296 -201 299 -211 2 -11 14 -18 27 -18 12
0 134 -74 271 -164 l249 -164 5 -44 c4 -35 9 -44 28 -46 18 -3 22 1 22 26 0
17 6 32 15 35 7 3 24 29 36 57 29 67 108 138 242 218 107 64 279 148 399 196
l66 26 956 0 956 0 0 25 0 25 -968 0 -968 0 -354 230 c-194 127 -359 235 -367
241 -10 9 -13 72 -13 299 0 328 3 346 83 429 83 86 300 213 540 315 l108 46
954 0 955 0 0 25 0 25 -966 0 -967 0 -241 157 c-133 86 -245 159 -249 163 -4
4 76 129 179 279 102 150 185 274 183 275 -7 7 -758 26 -969 25 -118 0 -225
-4 -238 -10z m970 -58 l146 -6 -154 -225 c-85 -123 -158 -228 -163 -233 -6 -6
-44 12 -99 47 -49 31 -91 56 -94 56 -3 0 -8 -59 -12 -132 -6 -121 -12 -147
-36 -148 -3 0 -13 19 -22 43 -29 68 -150 286 -214 383 -32 49 -92 122 -132
163 l-74 74 354 -8 c194 -4 419 -10 500 -14z m-262 -483 c27 -18 50 -35 50
-38 0 -3 -27 -45 -61 -95 l-61 -90 6 79 c3 43 6 101 6 128 0 26 2 48 5 48 3 0
28 -15 55 -32z m337 -220 l234 -153 -43 -19 c-278 -127 -459 -232 -552 -319
-28 -26 -52 -47 -54 -47 -3 0 -2 100 2 223 l6 222 83 122 c45 67 84 122 86
123 2 0 109 -69 238 -152z m-492 -60 l25 -53 0 -1042 0 -1042 -247 163 -248
162 -3 496 -2 496 231 209 231 208 -59 7 c-102 12 -893 12 -905 0 -17 -17 -2
-41 29 -47 100 -21 239 -135 359 -295 l64 -85 0 -472 c0 -260 -3 -473 -6 -473
-7 0 -521 337 -546 358 -26 22 -218 465 -218 504 0 49 26 131 70 219 41 81
173 283 193 296 11 7 998 441 1005 442 2 1 14 -23 27 -51z m-1208 -346 c57
-20 103 -40 103 -44 0 -4 -20 -35 -44 -70 -72 -104 -138 -224 -166 -304 l-26
-76 -52 134 c-45 116 -182 488 -182 494 0 1 60 -20 133 -47 72 -28 178 -66
234 -87z m1016 -100 l48 -7 -173 -155 c-95 -85 -175 -155 -179 -155 -3 0 -33
34 -66 75 -63 77 -189 205 -233 234 -23 15 -7 16 265 15 160 0 312 -4 338 -7z
m-1203 -402 c7 -19 30 -71 51 -115 55 -115 189 -418 189 -425 0 -4 -55 -10
-122 -13 -124 -6 -250 -32 -308 -62 -18 -9 -34 -14 -37 -11 -3 2 27 112 66
243 107 355 133 435 141 426 4 -4 13 -24 20 -43z m1826 -645 c159 -103 295
-193 303 -201 12 -11 7 -16 -30 -30 -92 -37 -327 -158 -409 -211 -47 -30 -109
-78 -137 -106 l-53 -51 0 170 c0 326 12 625 25 620 7 -2 142 -88 301 -191z"/>
</g>
</svg>
