<?xml version="1.0" standalone="no"?>
<!DOCTYPE svg PUBLIC "-//W3C//DTD SVG 20010904//EN"
 "http://www.w3.org/TR/2001/REC-SVG-20010904/DTD/svg10.dtd">
<svg version="1.0" xmlns="http://www.w3.org/2000/svg"
 width="485.000000pt" height="371.000000pt" viewBox="0 0 485.000000 371.000000"
 preserveAspectRatio="xMidYMid meet">
<metadata>
Created by potrace 1.16, written by Peter Selinger 2001-2019
</metadata>
<g transform="translate(0.000000,371.000000) scale(0.100000,-0.100000)"
fill="#000000" stroke="none">
<path d="M1625 2160 c-4 -137 -9 -250 -10 -250 -2 0 -175 110 -385 245 -210
135 -385 245 -389 245 -11 0 -24 -391 -25 -732 -1 -229 1 -259 16 -274 22 -22
43 -7 52 36 14 74 164 190 392 303 120 60 317 147 333 147 3 0 6 -103 6 -230
0 -202 2 -231 17 -246 21 -21 43 -7 51 34 9 44 81 117 185 186 102 68 333 186
464 236 l77 30 966 0 965 0 0 25 0 25 -980 0 -981 0 -366 235 c-201 129 -369
235 -373 235 -4 0 -11 -112 -15 -250z m381 -42 c173 -110 312 -203 310 -206
-3 -2 -55 -26 -116 -52 -208 -91 -385 -195 -476 -282 -30 -28 -56 -49 -59 -47
-2 3 0 160 5 349 5 190 10 366 10 393 0 26 3 47 6 47 3 0 147 -91 320 -202z
m-798 -10 l315 -202 -34 -15 c-130 -56 -367 -177 -434 -221 -44 -28 -104 -75
-132 -103 -29 -28 -55 -49 -57 -46 -3 3 -1 160 4 349 5 190 10 366 10 393 0
26 3 47 6 47 4 0 149 -91 322 -202z"/>
</g>
</svg>
