<?xml version="1.0" standalone="yes"?>
<svg xmlns="http://www.w3.org/2000/svg" width="610" height="371">
<path style="fill:#ffffff; stroke:none;" d="M0 0L0 371L610 371L610 0L0 0z"/>
<path style="fill:#000000; stroke:none;" d="M51 24C51 49.69 49 75.3338 49 101C49 106.229 46.4878 122.98 52.2701 125.824C55.6624 127.493 62.5852 114.38 65.0039 112.039C78.3611 99.1131 97.0954 90.6613 114 83.4275C134.068 74.8401 154.47 77 176 77L277 77L277 73L278 73L299.471 119L300 175L300 290L194 290L194 194C194 180.072 191.12 162.528 194.418 149C200.352 124.665 226.53 105.768 231 81C210.971 81 191.057 80 171 80C166.847 80 153.396 77.8348 151.176 82.2739C149.56 85.5052 160.701 92.3841 162.764 95.0146C173.262 108.403 179.623 125.218 185.575 141C191.633 157.064 189 176.046 189 193L189 290L143 290C136.293 290 127.284 291.549 121 288.914C95.4879 278.219 76.8313 251.936 51 242C51 268.351 49 294.659 49 321C49 328.373 45.8987 344.213 56 345C59.3378 330.954 73.3539 322.236 85 315.204C96.4635 308.282 110.72 299.035 124 296.379C144.102 292.358 168.48 296 189 296L189 317L194 317L194 296L300 296L300 341L306 341L306 187L306 140C306 132.885 304.53 123.868 306.51 117C308.623 109.671 315.717 102.251 320.025 96C332.799 77.4666 352.023 57.0453 360 36C387.741 48.3579 400.081 78.0343 412.755 104C424.555 128.174 420 157.586 420 184L420 342L426 342L426 187L426 140L426.703 118L438.333 100L474 47C489.62 65.3262 496.001 88.6253 506 110C495 110 483.999 109.948 473 110.001C469.977 110.015 463.098 109.457 461.89 113.259C460.794 116.712 475.021 125.872 477.482 129C489.723 144.559 497.714 165.49 504.308 184C510.561 201.555 508 221.558 508 240L508 342L514 342L514 237L514.279 189.576L526.397 168L558 112L514 111C530.283 88.1989 546.147 60.3889 558 35C530.6 29.9132 499.859 32.668 472 31.9854C419.718 30.7043 367.247 29.0201 315 29C296.277 28.9928 277.697 27.97 259 28C255.29 28.006 242.314 27.2373 240.662 31.2739C238.783 35.866 248.412 37.9921 251 39.8002C262.508 47.8411 269.445 60.5831 277 72L174 72C160.421 72 140.89 75.5944 128 71.2979C120.64 68.8444 113.471 62.5681 107 58.3441C95.4108 50.7789 83.5562 43.6119 72 35.9969C65.5764 31.7641 58.5474 25.7736 51 24z"/>
<path style="fill:#ffffff; stroke:none;" d="M57 34L55 112C75.5108 97.5654 94.7815 83.2438 119 75L119 73L57 34M255 34L255 35C277.172 51.8935 292.102 83.4868 302 109L304 109L353 36L255 34M376 35C380.401 43.2448 389.102 50.1256 394.565 58C405.56 73.8489 415.025 92.0218 422 110L424 110C438.931 88.0502 458.615 65.9599 470 42C460.494 37.1244 453.25 37.8057 443 36.8302C421.053 34.7417 398.05 35 376 35M510 105L511 105L548 40C530.69 40 513.303 38.0067 496 38C492.462 37.9986 481.096 36.1508 479.458 40.3179C477.726 44.7203 486.386 53.3677 488.547 57C497.39 71.8642 504.645 88.5714 510 105M163 85L181.742 116L192 139L222 87L163 85M475 116C489.459 136.771 503.216 158.145 510 183L511 183L548 118C538.765 117.271 515.895 112.566 509 119C504.186 112.325 482.835 116 475 116M57 253L55 330C73.6462 316.867 91.3678 300.52 114 294L96 279.656L57 253z"/>
</svg>
