<?xml version="1.0" standalone="no"?>
<!DOCTYPE svg PUBLIC "-//W3C//DTD SVG 20010904//EN"
 "http://www.w3.org/TR/2001/REC-SVG-20010904/DTD/svg10.dtd">
<svg version="1.0" xmlns="http://www.w3.org/2000/svg"
 width="610.000000pt" height="371.000000pt" viewBox="0 0 610.000000 371.000000"
 preserveAspectRatio="xMidYMid meet">
<metadata>
Created by potrace 1.16, written by Peter Selinger 2001-2019
</metadata>
<g transform="translate(0.000000,371.000000) scale(0.100000,-0.100000)"
fill="#000000" stroke="none">
<path d="M516 3433 c-9 -55 -20 -924 -12 -957 10 -40 47 -32 60 12 30 105 263
262 602 405 l112 47 741 0 741 0 0 25 0 25 -746 0 -746 0 -362 231 c-198 128
-366 236 -372 241 -8 5 -13 -4 -18 -29z m377 -263 c169 -107 306 -198 307
-201 0 -3 -30 -19 -67 -34 -111 -46 -333 -161 -408 -211 -38 -25 -94 -69 -124
-98 l-53 -51 6 389 c4 214 9 393 12 398 3 5 9 8 14 6 4 -2 145 -91 313 -198z"/>
<path d="M2418 3410 c-26 -16 -22 -39 10 -51 76 -31 97 -43 141 -84 99 -93
240 -321 362 -585 l69 -150 0 -870 0 -870 -530 0 -530 0 0 720 0 720 184 323
185 322 -37 7 c-55 10 -682 22 -725 14 -49 -9 -51 -41 -4 -61 86 -36 189 -206
303 -503 l44 -113 0 -714 0 -715 -336 0 -336 0 -346 240 c-191 132 -350 236
-354 232 -11 -11 -24 -948 -14 -986 11 -45 44 -31 67 28 10 27 38 70 61 94 64
65 225 168 404 258 l159 79 348 3 347 3 0 -106 0 -105 25 0 25 0 0 105 0 105
530 0 530 0 0 -220 0 -220 25 0 25 0 0 1118 0 1117 275 400 c309 450 279 421
379 367 110 -60 272 -300 432 -642 l59 -125 5 -1125 5 -1125 23 -3 22 -3 0
1119 0 1120 33 48 c18 27 127 186 242 354 114 168 211 309 215 313 12 13 107
-137 170 -268 59 -123 150 -343 150 -363 0 -8 -46 -10 -162 -6 -201 7 -272 -2
-276 -33 -3 -18 5 -26 37 -39 98 -39 210 -218 352 -564 l64 -155 5 -760 5
-760 23 -3 22 -3 0 763 1 763 219 380 c150 259 216 382 207 386 -6 3 -102 9
-212 13 -109 4 -201 8 -202 10 -2 2 94 171 212 376 119 205 214 375 211 377
-2 3 -118 9 -258 13 -139 5 -397 15 -573 21 -176 7 -534 14 -795 15 -261 1
-707 5 -990 9 -370 4 -520 3 -532 -5z m1038 -59 l81 -6 -251 -367 c-138 -202
-253 -367 -256 -367 -3 0 -48 89 -101 197 -114 232 -229 411 -324 501 l-67 64
419 -8 c230 -4 454 -10 499 -14z m842 -1 c280 -8 306 -10 347 -30 25 -12 47
-26 51 -31 5 -9 -454 -689 -465 -689 -3 1 -49 89 -103 198 -114 233 -215 390
-314 490 l-72 72 127 0 c69 -1 262 -5 429 -10z m984 -29 c103 -4 190 -10 194
-13 4 -4 -352 -634 -370 -655 -2 -2 -22 48 -46 110 -61 156 -179 390 -234 465
-50 68 -52 72 -34 90 14 14 193 15 490 3z m-3075 -480 c9 -4 -32 -85 -133
-261 -80 -140 -149 -258 -153 -263 -4 -4 -25 37 -46 90 -58 150 -163 349 -214
405 l-45 51 289 -8 c160 -4 296 -10 302 -14z m2883 -303 c0 -10 2 -10 8 -1 6
10 51 11 195 6 103 -3 187 -10 187 -14 0 -13 -367 -641 -374 -640 -5 0 -30 55
-57 122 -98 244 -190 412 -272 497 l-41 42 177 0 c135 0 177 -3 177 -12z
m-4225 -1556 c154 -106 281 -196 282 -200 1 -4 -69 -42 -155 -84 -184 -91
-289 -158 -378 -240 l-64 -60 0 169 c0 311 12 623 24 616 6 -4 137 -94 291
-201z"/>
</g>
</svg>
