<?xml version="1.0" standalone="no"?>
<!DOCTYPE svg PUBLIC "-//W3C//DTD SVG 20010904//EN"
 "http://www.w3.org/TR/2001/REC-SVG-20010904/DTD/svg10.dtd">
<svg version="1.0" xmlns="http://www.w3.org/2000/svg"
 width="522.000000pt" height="371.000000pt" viewBox="0 0 522.000000 371.000000"
 preserveAspectRatio="xMidYMid meet">
<metadata>
Created by potrace 1.16, written by Peter Selinger 2001-2019
</metadata>
<g transform="translate(0.000000,371.000000) scale(0.100000,-0.100000)"
fill="#000000" stroke="none">
<path d="M925 2997 c-8 -25 -26 -704 -25 -957 0 -146 -4 -380 -9 -520 -12
-280 -14 -663 -5 -697 13 -46 57 -36 69 17 22 102 283 264 685 426 l145 59
1195 5 1195 5 0 25 0 25 -1195 5 -1195 5 -410 239 c-225 131 -414 242 -418
246 -5 4 -4 16 2 26 5 11 18 36 27 57 46 104 298 254 694 414 l145 58 1188 3
1187 2 0 25 0 25 -1190 0 -1190 0 -446 259 c-265 155 -447 255 -449 248z m442
-303 c213 -124 389 -227 391 -229 1 -1 -62 -28 -140 -60 -302 -122 -509 -235
-617 -338 l-53 -52 6 285 c7 311 18 620 22 620 1 0 177 -102 391 -226z m36
-1134 c185 -107 333 -198 329 -201 -4 -3 -63 -28 -132 -55 -156 -61 -398 -179
-491 -239 -39 -26 -96 -70 -127 -98 l-55 -52 7 280 c3 154 9 358 13 453 l6
172 57 -32 c32 -18 208 -121 393 -228z"/>
</g>
</svg>
