<?xml version="1.0" standalone="yes"?>
<svg xmlns="http://www.w3.org/2000/svg" width="522" height="371">
<path style="fill:#ffffff; stroke:none;" d="M0 0L0 371L522 371L522 0L0 0z"/>
<path style="fill:#000000; stroke:none;" d="M92 70C92 124.914 88.0035 180.1 88 235L88 276C88 279.91 86.6439 287.349 89.7377 290.377C93.4649 294.025 102.867 277.94 106 275.326C124.2 260.135 148.211 251.357 170 242.797C194.81 233.05 226.564 238 253 238L418 238L418 232L255 232L205 232L181 231.351L156 217.397L96 183C104.723 156.248 143.155 144.139 167 134.6C194.301 123.68 225.884 128 255 128L420 128L420 122L259 122L209 122C201.148 122 191.649 123.447 184 121.582C176.075 119.649 167.993 113.096 161 108.989C139.791 96.5329 115.626 76.8192 92 70z"/>
<path style="fill:#ffffff; stroke:none;" d="M98 80L96.9105 105L95 168C120.451 150.089 145.128 135.106 175 125L175 124L98 80M96 190L94.9105 215L93 279L94 279C110.792 255.228 147.707 246.265 173 235L139 214.576L96 190z"/>
</svg>
