<?xml version="1.0" standalone="yes"?>
<svg xmlns="http://www.w3.org/2000/svg" width="596" height="371">
<!-- <path style="fill:#ffffff; stroke:none;" d="M0 0L0 371L596 371L596 0L0 0z"/>
--><path style="fill:#000000; stroke:none;" d="M278 79L276 133L208 133C198.62 133 185.959 135.21 177 132.301C144.46 121.735 118.965 90.5147 86 81C86 137.252 82 193.754 82 250L82 290C82.0002 293.305 80.8411 301.006 85.1736 302.248C88.7142 303.264 95.3715 290.543 98.0039 288.093C110.348 276.605 126.945 269.833 142 262.78C152.616 257.807 165.394 251.264 177 249.326C187.206 247.621 198.66 249 209 249L273 249C273 261 272.943 273.001 273.001 285C273.017 288.267 272.541 295.087 276.259 296.744C279.677 298.267 287.41 284.488 290.001 282.093C303.349 269.759 322.457 261.898 339 254.85C348.561 250.777 358.801 245.681 369 243.518C383.252 240.495 400.438 243 415 243L507 243L507 238L413 238C399.072 238 381.528 240.88 368 237.582C354.488 234.287 339.972 222.042 328 215.011C317.026 208.565 305.935 202.312 295 195.799C292.09 194.066 284.776 191.441 284.393 187.532C283.905 182.568 290.69 177.183 294 174.465C305.287 165.194 318.772 158.658 332 152.694C344.077 147.25 357.879 139.613 371 137.329C385.531 134.799 402.249 137 417 137L510 137L510 131L414 131L369 130.351L347 118.011L304 92.9892L278 79z"/>
<path style="fill:#ffffff; stroke:none;" d="M284 89L282 176C307.653 158.459 332.663 146.621 361 134L332 116.397L284 89M92 91L90.9105 116L89 179C114.451 161.089 139.128 146.106 169 136L169 135L92 91M90 194L145 226.011L174 242.351L206 243L274 243L276 139L210 139C199.476 139 187.331 137.326 177 139.379C161.933 142.374 145.678 150.932 132 157.753C115.822 165.821 94.4622 174.721 90 194M281 195L279 283C303.975 265.476 328.626 250.574 358 241L334 225.603L281 195M90 201L88.9105 226L87 290L88 290C104.792 266.228 141.707 257.265 167 246L133 225.576L90 201z"/>
</svg>
