<?xml version="1.0" standalone="no"?>
<!DOCTYPE svg PUBLIC "-//W3C//DTD SVG 20010904//EN"
 "http://www.w3.org/TR/2001/REC-SVG-20010904/DTD/svg10.dtd">
<svg version="1.0" xmlns="http://www.w3.org/2000/svg"
 width="596.000000pt" height="371.000000pt" viewBox="0 0 596.000000 371.000000"
 preserveAspectRatio="xMidYMid meet">
<metadata>
Created by potrace 1.16, written by Peter Selinger 2001-2019
</metadata>
<g transform="translate(0.000000,371.000000) scale(0.100000,-0.100000)"
fill="#000000" stroke="none">
<path d="M2786 2888 c-7 -31 -15 -304 -26 -838 -5 -245 -12 -518 -16 -607 l-7
-163 -500 0 -500 0 -416 242 c-229 132 -420 244 -424 248 -5 4 -4 16 2 26 5
11 18 36 27 57 46 104 298 254 694 414 l145 58 498 3 497 3 0 24 0 25 -500 0
-500 0 -446 259 c-265 155 -447 255 -449 248 -8 -25 -26 -704 -25 -957 0 -146
-4 -380 -9 -520 -12 -280 -14 -663 -5 -697 13 -46 57 -36 69 17 22 102 283
264 685 426 l145 59 505 3 505 3 0 -213 c0 -233 5 -268 35 -268 15 0 27 15 44
52 38 87 140 165 356 273 137 69 235 112 390 171 l115 44 698 0 697 0 0 25 0
25 -705 0 -705 0 -415 241 c-282 165 -415 247 -415 259 0 30 56 105 111 147
119 91 314 192 583 301 l141 57 715 5 715 5 0 25 0 25 -715 5 -715 5 -424 249
c-234 136 -430 250 -437 253 -8 3 -15 -5 -18 -19z m447 -288 c212 -124 383
-228 379 -231 -4 -3 -72 -32 -152 -64 -163 -65 -384 -174 -478 -236 -34 -22
-88 -64 -119 -92 l-56 -52 6 240 c15 539 20 666 27 663 3 -2 180 -104 393
-228z m-1926 -16 c213 -124 389 -227 391 -229 1 -1 -62 -28 -140 -60 -302
-122 -509 -235 -617 -338 l-53 -52 6 285 c7 311 18 620 22 620 1 0 177 -102
391 -226z m1885 -1041 c205 -119 379 -221 386 -228 10 -9 -15 -22 -110 -59
-163 -64 -426 -193 -513 -251 -38 -26 -92 -68 -119 -94 l-48 -46 6 405 c6 356
12 490 21 490 2 0 171 -97 377 -217z m-1849 -93 c185 -107 333 -198 329 -201
-4 -3 -63 -28 -132 -55 -156 -61 -398 -179 -491 -239 -39 -26 -96 -70 -127
-98 l-55 -52 7 280 c3 154 9 358 13 453 l6 172 57 -32 c32 -18 208 -121 393
-228z"/>
</g>
</svg>
