<?xml version="1.0" standalone="no"?>
<!DOCTYPE svg PUBLIC "-//W3C//DTD SVG 20010904//EN"
 "http://www.w3.org/TR/2001/REC-SVG-20010904/DTD/svg10.dtd">
<svg version="1.0" xmlns="http://www.w3.org/2000/svg"
 width="763.000000pt" height="371.000000pt" viewBox="0 0 763.000000 371.000000"
 preserveAspectRatio="xMidYMid meet">
<metadata>
Created by potrace 1.16, written by Peter Selinger 2001-2019
</metadata>
<g transform="translate(0.000000,371.000000) scale(0.100000,-0.100000)"
fill="#000000" stroke="none">
<path d="M4646 2833 c-3 -70 -8 -191 -12 -268 l-6 -140 -503 3 -504 2 -443
259 -443 258 -7 -96 c-4 -53 -11 -167 -14 -253 l-6 -158 -502 0 -501 0 -438
255 c-241 140 -442 255 -446 255 -13 0 -22 -246 -27 -710 -2 -239 -9 -558 -14
-708 -15 -418 -13 -754 4 -778 19 -25 47 -9 58 32 28 108 283 266 689 428
l165 66 496 0 495 0 -1 -260 c-1 -230 1 -261 16 -276 22 -22 45 -12 53 25 8
40 73 111 149 165 115 83 376 210 621 302 l90 34 493 0 492 0 0 -221 c0 -133
4 -228 10 -240 19 -34 46 -23 64 26 45 117 261 251 686 426 l155 64 713 3 713
3 -3 22 -3 22 -707 3 -707 2 -413 241 c-227 133 -414 242 -416 244 -2 1 5 21
14 44 44 111 295 263 693 420 l154 61 703 0 704 0 0 25 0 25 -701 0 -702 0
-437 255 c-240 140 -444 257 -452 260 -14 5 -17 -11 -22 -122z m587 -264 c136
-79 247 -146 247 -149 -1 -3 -62 -29 -138 -59 -279 -109 -504 -232 -611 -334
l-53 -52 6 380 c3 209 9 412 12 451 l7 72 141 -82 c77 -45 252 -147 389 -227z
m-3950 57 c196 -115 357 -211 357 -215 0 -4 -17 -13 -37 -20 -85 -30 -285
-117 -396 -172 -148 -74 -243 -135 -315 -202 l-55 -52 7 325 c3 179 9 382 13
453 l6 127 31 -18 c17 -10 192 -112 389 -226z m1910 -6 c202 -118 364 -217
360 -221 -5 -4 -62 -28 -128 -54 -266 -104 -520 -243 -620 -339 l-48 -46 6
398 c4 218 10 421 13 450 7 50 8 52 28 39 12 -7 186 -110 389 -227z m-486
-467 c-1 -126 -1 -248 1 -273 2 -25 -1 -142 -7 -260 -6 -118 -11 -232 -11
-252 l0 -38 -495 0 -496 0 -434 252 c-375 219 -432 255 -421 268 7 8 16 26 19
40 26 109 325 288 752 451 l100 38 497 1 497 0 -2 -227z m1919 -45 c-5 -287
-13 -541 -22 -695 l-6 -93 -491 0 -491 0 -420 245 c-494 288 -454 263 -440
273 6 4 16 23 23 43 34 106 275 257 671 420 l155 64 510 5 c281 3 511 6 512 8
2 1 1 -121 -1 -270z m427 -515 c205 -119 380 -221 389 -228 14 -9 -6 -20 -118
-64 -284 -113 -534 -250 -631 -347 l-46 -47 6 324 c8 343 17 579 24 579 3 0
172 -97 376 -217z m-3800 -63 c202 -118 367 -217 367 -220 0 -3 -62 -30 -137
-60 -162 -64 -402 -181 -491 -240 -34 -23 -88 -65 -119 -93 l-56 -52 6 315 c4
173 10 377 13 453 7 136 7 137 28 124 12 -7 186 -110 389 -227z m2124 -131
c90 -52 163 -96 163 -99 -1 -3 -64 -30 -142 -60 -271 -105 -512 -238 -614
-337 l-47 -45 6 398 c4 220 10 422 13 450 l6 51 227 -132 c124 -72 299 -174
388 -226z"/>
</g>
</svg>
