<?xml version="1.0" standalone="no"?>
<!DOCTYPE svg PUBLIC "-//W3C//DTD SVG 20010904//EN"
 "http://www.w3.org/TR/2001/REC-SVG-20010904/DTD/svg10.dtd">
<svg version="1.0" xmlns="http://www.w3.org/2000/svg"
 width="972.000000pt" height="371.000000pt" viewBox="0 0 972.000000 371.000000"
 preserveAspectRatio="xMidYMid meet">
<metadata>
Created by potrace 1.16, written by Peter Selinger 2001-2019
</metadata>
<g transform="translate(0.000000,371.000000) scale(0.100000,-0.100000)"
fill="#000000" stroke="none">
<path d="M6627 2834 c-4 -92 -7 -204 -7 -248 0 -45 -3 -91 -6 -103 l-6 -23
-496 0 -496 0 -449 261 c-246 144 -450 259 -452 258 -2 -2 -6 -94 -9 -204 -4
-110 -9 -224 -12 -252 l-5 -53 -495 0 -495 0 -447 260 c-375 218 -448 257
-453 242 -10 -27 -31 -778 -28 -957 2 -88 0 -276 -5 -417 l-8 -258 -501 0
-501 0 -432 252 c-418 243 -432 252 -418 272 8 11 14 28 14 37 0 30 97 125
182 180 95 61 327 174 513 251 l130 53 510 5 510 5 0 25 0 25 -502 3 -502 2
-443 258 -443 258 -7 -75 c-11 -136 -28 -894 -20 -961 4 -36 4 -99 0 -140 -11
-130 -29 -864 -22 -941 10 -115 40 -132 78 -46 31 70 107 137 247 217 117 67
353 175 511 234 l97 36 498 0 498 0 -3 -220 c-3 -247 2 -285 38 -285 19 0 26
7 34 33 34 119 315 289 756 458 l115 44 488 0 487 0 0 -258 c0 -209 3 -262 14
-278 19 -25 47 -9 58 33 11 43 82 113 175 174 97 64 333 179 523 256 l145 58
497 3 497 3 3 -230 c3 -198 5 -233 20 -247 22 -22 30 -15 63 51 57 118 291
257 730 434 l90 36 715 5 715 5 0 25 0 25 -708 3 -708 2 -414 241 -414 241 14
36 c46 115 289 264 695 428 l145 59 713 3 712 2 0 25 0 25 -708 0 -707 0 -440
256 c-242 141 -445 258 -451 261 -7 3 -13 -49 -17 -163z m455 -150 l389 -227
-163 -66 c-295 -121 -497 -233 -600 -333 l-51 -50 6 309 c8 356 18 593 25 593
3 0 180 -102 394 -226z m-3846 -5 c208 -121 382 -224 386 -228 4 -4 -53 -31
-128 -60 -276 -108 -529 -248 -628 -347 l-49 -49 7 240 c15 555 19 665 26 665
4 0 178 -99 386 -221z m1932 -19 l384 -222 -139 -55 c-278 -109 -515 -238
-625 -341 l-51 -47 6 330 c9 431 17 577 31 566 6 -4 183 -108 394 -231z
m-3845 -14 c208 -121 377 -222 377 -225 0 -3 -64 -31 -142 -61 -271 -105 -512
-238 -614 -337 l-47 -45 6 383 c8 428 13 522 32 511 6 -4 181 -106 388 -226z
m3369 -488 c0 -145 1 -270 0 -278 0 -8 -3 -103 -7 -210 -3 -107 -8 -219 -11
-247 l-5 -53 -497 0 -496 0 -433 252 c-333 194 -429 254 -419 262 8 6 19 28
26 48 37 118 366 306 840 481 8 3 237 6 508 6 l492 1 2 -262z m1918 80 c0 -95
-5 -332 -12 -525 l-12 -353 -496 0 -497 0 -432 251 c-388 226 -430 253 -418
268 8 9 17 29 21 44 25 105 324 280 786 460 l65 25 498 1 497 1 0 -172z m822
-849 c-4 -3 -56 -25 -117 -49 -270 -106 -529 -247 -636 -347 l-49 -46 0 59 c0
111 21 819 25 831 2 7 161 -79 394 -215 214 -125 387 -230 383 -233z m-4202
180 c210 -122 380 -223 378 -224 -2 -2 -61 -26 -133 -55 -289 -115 -503 -232
-613 -334 l-65 -61 7 240 c18 646 18 666 32 661 8 -3 185 -105 394 -227z
m1911 -6 l390 -227 -118 -46 c-336 -134 -584 -272 -669 -373 l-27 -32 6 340
c7 339 16 565 24 565 2 0 180 -102 394 -227z m-3461 -243 c0 -4 -17 -12 -37
-19 -85 -30 -285 -117 -396 -172 -151 -75 -248 -137 -316 -202 l-53 -52 6 385
c3 212 9 415 12 451 l7 66 388 -226 c214 -124 389 -228 389 -231z"/>
</g>
</svg>
