<?xml version="1.0" standalone="no"?>
<!DOCTYPE svg PUBLIC "-//W3C//DTD SVG 20010904//EN"
 "http://www.w3.org/TR/2001/REC-SVG-20010904/DTD/svg10.dtd">
<svg version="1.0" xmlns="http://www.w3.org/2000/svg"
 width="660.000000pt" height="371.000000pt" viewBox="0 0 660.000000 371.000000"
 preserveAspectRatio="xMidYMid meet">
<metadata>
Created by potrace 1.16, written by Peter Selinger 2001-2019
</metadata>
<g transform="translate(0.000000,371.000000) scale(0.100000,-0.100000)"
fill="#000000" stroke="none">
<path d="M5480 3395 c-549 -106 -602 -121 -570 -159 8 -10 29 -16 56 -16 54 0
128 -33 219 -97 80 -57 257 -221 251 -232 -3 -4 4 -45 14 -92 30 -131 42 -119
-120 -119 -77 0 -140 2 -140 4 0 2 34 63 76 136 41 73 73 134 71 137 -12 12
-512 22 -907 18 -239 -3 -685 -6 -990 -7 -305 -2 -561 -7 -567 -11 -26 -16
-13 -42 30 -62 44 -21 95 -81 142 -168 l27 -48 -34 14 c-18 8 -221 108 -451
221 -230 113 -420 206 -423 206 -2 0 -4 -37 -5 -82 -2 -191 24 -148 -302 -507
l-288 -319 -204 -3 c-112 -2 -206 -7 -209 -10 -3 -3 18 -68 48 -145 52 -135
53 -140 38 -171 l-16 -33 -141 0 -142 0 -259 244 -259 245 -7 -162 c-4 -89 -7
-319 -5 -512 l2 -350 22 -3 c18 -3 24 4 33 40 28 105 146 228 350 364 l126 84
125 0 125 0 -58 -117 c-33 -64 -57 -123 -56 -132 5 -24 34 -25 57 -2 30 30
124 28 232 -3 161 -47 140 -28 468 -409 l301 -348 0 -140 c0 -78 5 -149 10
-160 17 -31 47 -24 60 16 13 39 76 99 96 91 7 -3 24 8 36 23 42 53 321 176
610 270 106 34 141 41 208 41 l80 0 0 -165 0 -165 25 0 25 0 0 165 0 165 250
0 250 0 0 -165 0 -165 30 0 30 0 0 165 0 165 255 0 255 0 0 -160 0 -160 30 0
30 0 0 160 0 160 250 0 250 0 0 -160 0 -160 25 0 25 0 0 160 0 160 268 2 267
3 0 25 0 25 -267 3 -268 2 0 656 0 657 91 158 90 159 154 0 c84 0 160 2 167 5
11 4 29 -66 82 -317 37 -178 70 -333 73 -345 l5 -23 -230 0 c-130 0 -242 -4
-257 -10 -39 -15 -28 -42 21 -56 23 -7 52 -18 65 -24 76 -40 193 -169 296
-327 l53 -81 0 -601 0 -601 25 0 25 0 0 603 0 602 233 240 232 240 -205 5
-205 5 -97 455 c-53 250 -97 465 -97 477 -1 18 305 523 351 581 16 19 -11 15
-362 -53z m254 -17 c-24 -43 -258 -415 -265 -422 -5 -6 -43 24 -91 70 -103 98
-178 156 -259 199 l-62 33 49 10 c27 6 166 33 309 61 143 27 269 52 280 54 38
9 46 7 39 -5z m-3454 -378 c0 -3 -16 -21 -35 -40 l-35 -34 0 57 0 57 35 -17
c19 -9 35 -19 35 -23z m390 -184 l333 -163 -99 -33 c-125 -41 -345 -127 -448
-174 -87 -40 -239 -137 -256 -164 -8 -12 -10 61 -5 267 l5 284 66 74 c36 40
67 73 68 73 2 0 153 -74 336 -164z m1896 98 c17 -2 45 -19 63 -38 l33 -34 -47
-81 -47 -81 -151 0 -152 0 -47 84 c-27 46 -48 88 -48 92 0 5 9 24 20 42 l20
33 163 -6 c89 -3 176 -8 193 -11z m632 0 c28 -3 52 -8 52 -11 0 -3 -28 -54
-62 -114 l-62 -109 -152 0 -151 0 -47 80 c-25 44 -46 84 -46 89 0 6 9 26 21
46 l21 35 187 -5 c102 -3 210 -8 239 -11z m-1730 -26 c68 -32 72 -53 23 -137
l-42 -71 -158 0 -158 0 -47 80 c-26 45 -62 98 -82 120 l-35 39 228 -6 c201 -4
233 -7 271 -25z m606 -7 c14 -14 26 -28 26 -32 0 -4 -21 -44 -47 -88 l-47 -81
-161 0 -161 0 -27 53 c-14 28 -34 63 -43 77 -15 24 -15 28 7 64 l22 38 203 -4
c198 -3 203 -3 228 -27z m-504 9 c0 -5 -2 -10 -4 -10 -3 0 -8 5 -11 10 -3 6
-1 10 4 10 6 0 11 -4 11 -10z m599 -144 c17 -29 31 -56 31 -60 0 -3 -30 -6
-66 -6 -36 0 -64 3 -62 8 8 18 61 112 64 112 1 0 16 -24 33 -54z m572 -28 l19
-38 -66 0 -66 0 27 48 c16 26 30 51 33 56 6 11 26 -14 53 -66z m-1132 0 l23
-38 -61 0 -61 0 28 50 c30 54 32 53 71 -12z m-1467 -225 c-4 -290 1 -338 36
-331 9 2 25 19 34 39 49 105 296 233 710 370 81 27 155 49 164 49 17 0 61 -90
118 -242 l36 -97 0 -646 0 -645 -84 0 -85 0 -447 220 c-246 121 -450 220 -454
220 -5 0 -11 -84 -15 -187 -4 -104 -10 -229 -14 -279 l-6 -92 -280 324 -280
324 -32 122 c-17 68 -32 131 -32 141 -1 16 23 17 379 17 l380 0 0 25 0 25
-390 0 c-214 0 -390 2 -390 4 0 12 95 275 109 302 12 23 536 614 545 614 0 0
-1 -125 -2 -277z m1268 122 c0 -3 -32 -61 -71 -130 l-72 -126 -37 93 c-21 51
-45 110 -54 131 l-16 37 125 0 c69 0 125 -2 125 -5z m287 -80 c19 -44 48 -115
64 -158 l29 -78 0 -655 0 -654 -250 0 -250 0 0 652 0 652 93 163 92 163 93 -2
93 -3 36 -80z m244 33 c-16 -29 -49 -88 -73 -130 l-44 -77 -50 121 c-27 66
-50 125 -52 129 -2 5 53 9 123 9 l126 0 -30 -52z m302 40 c3 -7 30 -75 61
-151 l56 -139 0 -664 0 -664 -255 0 -255 0 0 656 0 657 91 158 90 159 104 0
c73 0 104 -4 108 -12z m287 8 c0 -11 -131 -231 -136 -229 -4 1 -28 54 -54 117
l-47 116 118 0 c66 0 119 -2 119 -4z m287 -53 c14 -32 43 -103 64 -157 l39
-100 0 -658 0 -658 -250 0 -250 0 0 662 0 662 87 153 87 153 98 0 99 0 26 -57z
m238 -5 c-19 -35 -50 -89 -67 -120 -18 -32 -35 -58 -38 -58 -3 0 -24 49 -48
108 -23 59 -45 113 -48 120 -5 9 22 12 116 12 l121 0 -36 -62z m-4316 -586
l155 -148 -46 -27 c-90 -53 -244 -175 -315 -250 l-73 -77 0 208 c0 115 3 284
7 375 l6 166 56 -49 c31 -27 125 -116 210 -198z m649 180 c-13 -29 -94 -172
-98 -172 -3 0 -19 38 -36 85 l-31 84 66 4 c36 2 74 4 84 5 10 1 17 -1 15 -6z
m147 -9 c-3 -10 -18 -53 -33 -95 -15 -43 -30 -78 -33 -78 -3 0 -13 33 -22 73
-10 39 -20 82 -23 95 -6 21 -4 22 56 22 55 0 61 -2 55 -17z m-120 -185 c10
-46 20 -89 22 -95 4 -10 -10 -13 -50 -13 -54 0 -56 1 -62 32 -6 25 0 44 26 94
19 35 37 64 40 64 3 0 14 -37 24 -82z m4362 -78 c108 0 193 -4 191 -9 -1 -5
-84 -91 -182 -192 -159 -163 -180 -182 -190 -165 -49 82 -155 216 -230 290
l-89 89 153 -6 c84 -4 241 -7 347 -7z m-4437 -180 c21 -52 37 -96 35 -98 -2
-2 -22 2 -44 8 -23 6 -69 12 -101 13 -33 1 -60 2 -60 4 0 1 19 41 42 88 37 75
46 85 67 83 19 -3 29 -18 61 -98z m75 68 c-14 -71 -16 -74 -30 -42 -29 70 -29
74 5 74 30 0 31 -1 25 -32z m95 -211 c0 -4 -13 -1 -30 8 -27 14 -30 20 -30 64
0 27 3 64 7 82 6 31 8 27 30 -56 12 -49 23 -93 23 -98z m1100 -399 c215 -105
387 -195 383 -199 -5 -3 -39 -17 -78 -29 -161 -52 -348 -126 -474 -187 l-135
-66 -58 64 -59 64 6 130 c12 300 18 415 21 415 3 0 180 -86 394 -192z m-383
-545 l-37 -38 0 75 0 75 37 -38 38 -37 -38 -37z"/>
<path d="M6575 20 c-18 -19 -17 -20 3 -20 15 0 22 6 22 20 0 11 -2 20 -3 20
-2 0 -12 -9 -22 -20z"/>
</g>
</svg>
