<?xml version="1.0" standalone="yes"?>
<svg xmlns="http://www.w3.org/2000/svg" width="475" height="371">
<!-- <path style="fill:#ffffff; stroke:none;" d="M0 0L0 371L475 371L475 0L0 0z"/>
--><path style="fill:#000000; stroke:none;" d="M363 26C363.561 33.2647 372.054 36.3758 376.239 42C384.537 53.1498 389.17 66.5358 395 79L301 79L322 49C304.563 54.5564 292.271 72.5407 275 78.2979C261.578 82.7719 241.145 79 227 79L147 79C135.764 79 120.807 81.6018 110 78.49C103.612 76.6505 97.4814 70.9876 92 67.3333C76.768 57.1787 60.0991 42.481 43 36C43 92.6216 42.2723 149.371 41.9992 206C41.9047 225.611 40.177 245.306 41.0394 265C41.8073 282.538 41 300.321 41 318C41 321.74 39.0713 333.552 43.4144 335.338C47.0469 336.832 55.0543 322.826 58 320.3C71.1792 309.001 93.656 295.348 111 292.329C129.585 289.094 151.126 292 170 292C201.049 292 233.047 289.74 264 292.055C273.923 292.797 284.612 303.409 293 308.396C295.488 309.875 301.249 314.231 304.238 311.929C309.306 308.026 291.662 294.662 289 292L401 292L401 344L406 344L406 175L406 122L406.394 95L417.579 74L444 27C417.601 26.9971 389.179 21.1399 363 26z"/>
<path style="fill:#ffffff; stroke:none;" d="M376 31C386.681 48.1508 396.673 64.5875 403 84L405 84L434 32L376 31M48 46C48 62.7976 39.8308 96.939 54 108L55 108C69.0018 96.896 85.5246 88.7592 102 82L102 81L48 46M296 72L287 78L287 79C291.925 78.9413 296.056 77.7175 296 72M60 112C75.7481 120.768 91.7063 138.51 109 143.49C122.894 147.49 142.532 144 157 144L263 144L263 143C250.183 135.864 230.97 125.622 222 114L266 86C261.031 83.9149 254.35 85 249 85L213 85L143 85C132.254 85 119.494 83.1245 109 85.5293C101.014 87.3594 93.2718 92.1172 86 95.7531C77.2292 100.138 66.3613 104.303 60 112M232 115C241.123 123.737 253.487 130.325 264 137.333C269.68 141.12 273.968 144.61 281 143C276.567 121.512 281.778 104.774 290 85C268.303 85 249.523 103.179 232 115M286 139L322 116L302 144L401 144C401 124.182 402.463 104.291 398 85L325 85C318.024 85 303.365 82.2167 297.39 86.0278C293.617 88.4346 291.77 95.0463 290.204 99C284.905 112.377 283.348 124.924 286 139M48.3333 111.667L48.6667 112.333L48.3333 111.667M47 179C64.6391 166.721 81.2957 154.05 102 147C92.1022 137.521 78.4064 130.604 67 123C63.5285 120.686 57.5857 114.834 53.1883 117.658C47.6398 121.222 48.3652 128.401 47.8302 134C46.4054 148.912 47 164.009 47 179M296 139L290 143L290 144C293.475 143.724 295.992 142.838 296 139M52 184C68.8902 195.394 87.9712 212.95 107 220.157C119.647 224.946 140.487 221 154 221L236 221C248.419 221 264.083 223.523 276 220L276 219L222 183L222 181L269 151C263.784 148.811 256.619 150 251 150L212 150L143 150C132.17 150 119.627 148.253 109 150.379C100.135 152.152 91.0039 157.687 83 161.756C72.1173 167.288 59.1672 173.853 52 184M284 150L285 151L284 150M296 155C297.829 156.251 312.962 167.957 304.897 168.759C300.478 169.199 295.173 164.321 291 163C285.467 180.004 282.336 193.586 288 211L319 192L299 221L401 221L401 150L322 150C314.619 150 299.053 146.696 296 155M233 181L248 193.333L283 216C280.848 201.431 277.171 189.939 281.155 175C282.447 170.154 287.69 161.883 283.667 157.519C277.585 150.921 271.949 155.368 266 159.333C255.116 166.589 244.428 174.638 233 181M49 189C44.911 202.834 46.9991 220.606 47 235C47.0003 240.184 46.6837 248.417 54.0008 248.787C58.6341 249.022 64.2185 243.488 68 241.204C78.2324 235.022 89.4559 228.326 101 225L85 212.667L49 189M292.667 216.333L293.333 216.667L292.667 216.333M60 253L60 254C74.412 263.723 91.5191 279.804 108 285.298C121.156 289.683 141.138 286 155 286L258 286L258 285L219 259L265 228C259.784 225.811 252.619 227 247 227L208 227L143 227C132.483 227 120.322 225.314 110 227.379C92.7843 230.823 74.3181 243.341 60 253M230 258L230 259C242.707 268.767 261.608 285.987 278 286C275.07 263.312 279.277 247.953 288 227C267.436 227 245.99 245.709 230 258M304 227C312.798 240.62 299.184 232.385 292 231C287.456 244.345 281.978 255.54 282 270C282.007 274.406 281.68 280.938 285.005 284.397C289.62 289.195 308.576 286 315 286L401 286L401 227L304 227M48.3333 253.667L48.6667 254.333L48.3333 253.667M47 321L101 289C91.9054 279.076 77.1996 272.132 66 264.667C62.3371 262.225 56.711 256.681 52.3295 260.362C47.279 264.604 47.0299 272.954 47.0008 279C46.9333 292.999 47 307.001 47 321M280 292L282 294L282 292L280 292z"/>
</svg>
