<?xml version="1.0" standalone="yes"?>
<svg xmlns="http://www.w3.org/2000/svg" width="562" height="371">
<!-- <path style="fill:#ffffff; stroke:none;" d="M0 0L0 371L562 371L562 0L0 0z"/>
--><path style="fill:#000000; stroke:none;" d="M67 35C67 56.6799 66 78.2804 66 100C66 106.048 63.4698 119.571 67.0231 124.638C69.0254 127.493 71.4361 125.204 72.3164 122.89C73.898 118.734 78.1617 101.169 85.0401 103.921C92.5702 106.934 98.806 118.392 102.796 125C109.342 135.84 108 146.738 108 159L108 217C96.0943 206.034 81.927 188.32 67 182C67 204.385 66 226.611 66 249C66 253.209 63.7015 268.35 68.3897 270.338C71.8244 271.794 72.9181 267.182 73.8102 264.995C77.2584 256.545 84.9937 250.155 92 244.668C98.8092 239.336 107.622 232.163 116 229.649C129.847 225.494 149.545 229 164 229C163.982 256.285 161.329 283.704 161.004 311C160.94 316.358 158.949 334.495 163.599 337.953C167.397 340.778 177.654 324.306 181 321.669C200.271 306.479 225.23 297.012 248 288.425C271.036 279.738 302.56 285 327 285L492 285L492 279L455 279L455 165C455 150.685 450.758 128.384 455.843 115C466.18 87.7939 496.521 69.2415 507 42C478.647 42 450.363 40 422 40C417.851 40 396.636 37.5973 396.636 44.0355C396.636 47.771 410.028 53.2231 412.91 56.0903C424.764 67.8827 433.969 83.9403 441 99L248 99L287 41C261.657 41 236.315 39 211 39C206.8 39 187.811 37.0656 187.037 43.0394C186.572 46.6292 196.608 50.086 198.999 52.1852C208.334 60.3786 216.219 72.5771 221 84C206.167 72.6005 186.477 57.6241 169 51L168 79L119 79L99.0934 77.3966L67 35z"/>
<path style="fill:#ffffff; stroke:none;" d="M201 45L201 46C211.968 53.7474 219.408 67.3828 225.691 79C228.823 84.7906 231.572 93.4662 238.985 95.0332C244.14 96.1227 247.342 88.403 249.72 85C258.512 72.4169 267.939 60.0624 276 47L201 45M412 46C426.577 66.6939 442.029 84.0507 452 108L453 108L496 48L412 46M72 52L72 106L73 106L78.4792 94.9691L91.5532 82L87.4244 73L72 52M175 62L173 140L174 140C186.229 122.998 212.178 112.722 231 105C229.389 95.9657 223.152 92.403 216 87.6674C202.835 78.95 189.306 68.6872 175 62M90 94L146 95C137.061 106.774 119.993 119.196 114.742 133C112.763 138.204 114 145.508 114 151L114 190L114 214C114.001 216.617 113.25 221.109 115.603 222.972C120.988 227.237 139.214 224 146 224L232 224L232 229L169 229L169 230L234 267L234 110C216.634 115.913 198.142 125.761 184.001 137.464C181.213 139.771 173.353 153.716 170.235 152.654C165.327 150.983 167 139.854 167 136C167 118.942 168 102.032 168 85L118 85C106.317 85 97.4498 83.4323 90 94M91 99L111 127L134 100L91 99M441 99L441 105L298 105L260 105C255.06 105 247.652 103.685 243.228 106.318C236.09 110.566 240 135.49 240 143L240 241C240 250.257 236.203 268.608 245.019 274.135C260.697 283.964 286.966 279 305 279L449 279L449 153C449 135.583 452.957 113.434 441 99M73 195L72 254L108 227L108 225L73 195M169 237L167 326L168 326C182.979 304.912 221.681 289.652 246 283L240 278L240 284L234 284C233.999 271.68 225.933 269.382 216 263.719C200.582 254.93 185.372 243.853 169 237z"/>
</svg>
