<?xml version="1.0" standalone="no"?>
<!DOCTYPE svg PUBLIC "-//W3C//DTD SVG 20010904//EN"
 "http://www.w3.org/TR/2001/REC-SVG-20010904/DTD/svg10.dtd">
<svg version="1.0" xmlns="http://www.w3.org/2000/svg"
 width="562.000000pt" height="371.000000pt" viewBox="0 0 562.000000 371.000000"
 preserveAspectRatio="xMidYMid meet">
<metadata>
Created by potrace 1.16, written by Peter Selinger 2001-2019
</metadata>
<g transform="translate(0.000000,371.000000) scale(0.100000,-0.100000)"
fill="#000000" stroke="none">
<path d="M665 2935 c-4 -227 -4 -430 -1 -450 6 -30 11 -36 28 -33 17 2 24 14
33 53 11 51 51 132 85 173 15 19 23 21 38 13 29 -16 105 -103 155 -179 84
-127 78 -81 75 -556 l-3 -425 -197 179 -196 179 -6 -37 c-10 -68 -17 -787 -8
-817 14 -49 44 -40 60 18 23 82 143 196 329 313 l86 54 250 0 250 0 -7 -117
c-3 -65 -9 -305 -12 -533 -5 -366 -4 -417 9 -435 21 -26 48 -11 60 34 11 42
86 118 176 176 99 64 349 185 528 255 l153 60 1185 0 1185 0 0 25 0 25 -185 0
-185 0 0 833 1 832 254 348 c140 192 255 352 255 357 0 8 -481 22 -842 24
-201 1 -229 -1 -244 -16 -23 -23 -8 -41 48 -57 109 -33 296 -288 438 -596 l40
-87 0 -819 0 -819 -976 0 -976 0 -74 42 -74 42 0 817 0 818 22 15 c20 14 131
16 1000 16 l978 0 0 30 0 30 -965 2 -965 3 194 280 c107 154 192 283 188 287
-10 10 -919 23 -956 14 -42 -10 -32 -45 18 -63 58 -19 100 -56 160 -136 56
-76 152 -235 145 -241 -2 -3 -119 69 -259 160 -140 90 -258 164 -262 164 -5 0
-8 -61 -8 -135 l0 -135 -354 0 -353 0 -148 210 c-82 116 -152 213 -156 215 -3
3 -10 -182 -14 -410z m1922 316 l181 -6 -171 -247 c-95 -135 -175 -250 -179
-253 -4 -4 -28 6 -53 21 -38 24 -54 45 -100 132 -69 129 -145 242 -208 310
l-50 52 199 -1 c109 -1 281 -4 381 -8z m2220 -10 l162 -6 -215 -295 c-118
-162 -219 -299 -223 -303 -5 -5 -42 56 -83 135 -96 185 -191 330 -273 412
l-64 66 267 -1 c147 -1 340 -5 429 -8z m-3929 -408 c-34 -34 -72 -64 -85 -67
-16 -5 -23 -14 -23 -30 0 -19 -51 -115 -54 -103 -1 1 0 130 2 285 l3 284 109
-154 109 -153 -61 -62z m1134 98 c247 -159 265 -173 286 -217 13 -25 22 -47
20 -48 -2 -2 -77 -39 -168 -83 -180 -88 -286 -154 -367 -227 l-53 -48 0 194
c0 199 11 598 16 598 2 0 122 -76 266 -169z m-334 -388 c-2 -181 1 -338 5
-350 10 -27 45 -31 53 -5 26 87 80 143 229 237 91 57 314 169 359 181 l26 6 0
-792 c0 -491 -4 -790 -9 -788 -6 2 -156 89 -336 193 l-325 190 320 3 320 2 0
25 0 25 -590 0 -590 0 0 459 0 458 155 179 c85 98 155 182 155 185 0 7 -260
19 -434 19 l-131 0 52 50 52 50 346 0 346 0 -3 -327z m-486 170 l156 -6 -115
-134 c-106 -122 -133 -148 -133 -124 0 18 -103 166 -152 217 l-51 54 69 0 c38
0 139 -3 226 -7z m-279 -1104 l178 -161 -58 -36 c-99 -61 -202 -140 -265 -205
l-61 -62 6 49 c4 27 7 167 7 312 0 145 4 264 8 264 4 0 88 -72 185 -161z
m1234 -526 l203 -118 0 -47 c0 -44 2 -48 25 -48 21 0 25 5 25 30 0 17 2 30 4
30 3 0 21 -10 41 -22 l37 -21 -84 -32 c-309 -117 -559 -250 -680 -363 l-51
-47 6 330 c4 182 10 385 13 451 l7 121 126 -73 c69 -41 217 -127 328 -191z"/>
</g>
</svg>
