<?xml version="1.0" standalone="no"?>
<!DOCTYPE svg PUBLIC "-//W3C//DTD SVG 20010904//EN"
 "http://www.w3.org/TR/2001/REC-SVG-20010904/DTD/svg10.dtd">
<svg version="1.0" xmlns="http://www.w3.org/2000/svg"
 width="444.000000pt" height="371.000000pt" viewBox="0 0 444.000000 371.000000"
 preserveAspectRatio="xMidYMid meet">
<metadata>
Created by potrace 1.16, written by Peter Selinger 2001-2019
</metadata>
<g transform="translate(0.000000,371.000000) scale(0.100000,-0.100000)"
fill="#000000" stroke="none">
<path d="M1448 3263 c-9 -2 -19 -11 -22 -18 -6 -16 19 -45 39 -45 27 0 106
-105 163 -218 33 -64 85 -183 116 -264 l56 -146 0 -856 0 -856 -45 0 c-43 0
-73 18 -451 260 -223 143 -409 260 -413 260 -16 0 -38 -1001 -24 -1065 7 -30
14 -41 30 -43 18 -3 24 4 34 39 36 120 280 284 665 449 l116 50 1074 0 1074 0
0 25 0 25 -145 0 -145 0 0 828 0 827 204 357 c113 197 201 360 198 362 -9 5
-724 23 -877 22 -60 0 -452 2 -870 6 -418 3 -767 4 -777 1z m558 -64 c17 -5
43 -23 59 -39 l28 -29 -113 -208 c-62 -114 -122 -223 -133 -241 l-20 -34 -57
145 c-68 171 -127 288 -187 369 l-44 59 218 -6 c120 -4 232 -11 249 -16z m591
-1 c24 -6 47 -16 52 -22 6 -7 -37 -96 -129 -264 -75 -139 -140 -255 -142 -258
-3 -2 -24 46 -48 108 -24 62 -73 172 -110 245 l-66 131 23 40 23 39 178 -4
c97 -2 196 -9 219 -15z m560 -20 c24 -11 52 -33 64 -49 l20 -29 -121 -222
c-67 -123 -125 -226 -129 -231 -4 -4 -24 39 -45 95 -48 131 -133 308 -180 377
-36 53 -42 71 -29 85 4 4 91 4 193 1 154 -6 192 -10 227 -27z m-1027 18 c0
-11 -19 -15 -25 -6 -3 5 1 10 9 10 9 0 16 -2 16 -4z m1758 -10 c2 -2 -73 -137
-166 -301 -94 -163 -172 -293 -175 -288 -3 4 -22 51 -43 103 -52 134 -114 264
-161 341 l-40 67 26 47 26 47 265 -6 c145 -4 266 -8 268 -10z m-604 -11 c-4
-8 -10 -15 -14 -15 -4 0 -13 7 -20 15 -11 13 -8 15 13 15 19 0 25 -4 21 -15z
m-547 -107 c49 -81 126 -250 177 -386 l46 -124 0 -849 0 -849 -280 0 -280 0 0
861 0 862 146 268 c81 148 149 269 153 269 4 0 21 -24 38 -52z m-502 -211 c29
-67 67 -163 84 -213 l31 -91 0 -847 0 -846 -250 0 -250 0 0 858 0 859 137 251
137 251 29 -50 c16 -28 53 -105 82 -172z m1120 53 c29 -58 78 -169 109 -247
l56 -142 0 -830 0 -831 -255 0 -255 0 0 854 0 854 132 242 c151 278 128 267
213 100z m-2064 -1842 c192 -123 349 -226 349 -229 0 -4 -21 -14 -47 -24 -97
-35 -391 -185 -478 -243 -49 -33 -116 -86 -149 -118 l-59 -59 7 220 c3 121 9
322 12 448 4 125 9 227 12 227 3 0 162 -100 353 -222z"/>
<path d="M489 2463 c-6 -849 -6 -1209 1 -1232 12 -46 41 -33 60 27 32 98 124
206 264 312 l53 40 459 2 459 3 0 25 0 25 -462 5 -463 5 -116 135 c-64 74
-122 142 -130 151 -12 14 -7 23 42 77 30 34 92 91 137 127 l81 65 459 0 458 0
-3 23 -3 22 -461 5 -462 5 -177 205 c-97 113 -181 207 -186 208 -5 2 -10 -100
-10 -235z m211 -68 l120 -140 -42 -34 c-24 -19 -81 -72 -127 -118 -66 -64 -87
-80 -98 -72 -10 9 -13 68 -13 277 0 264 0 266 19 247 11 -11 74 -83 141 -160z
m32 -650 l88 -100 -28 -23 c-98 -84 -179 -162 -214 -205 l-39 -50 3 254 c2
193 7 261 17 281 l14 28 36 -42 c20 -23 75 -87 123 -143z"/>
</g>
</svg>
