<?xml version="1.0" standalone="no"?>
<!DOCTYPE svg PUBLIC "-//W3C//DTD SVG 20010904//EN"
 "http://www.w3.org/TR/2001/REC-SVG-20010904/DTD/svg10.dtd">
<svg version="1.0" xmlns="http://www.w3.org/2000/svg"
 width="562.000000pt" height="371.000000pt" viewBox="0 0 562.000000 371.000000"
 preserveAspectRatio="xMidYMid meet">
<metadata>
Created by potrace 1.16, written by Peter Selinger 2001-2019
</metadata>
<g transform="translate(0.000000,371.000000) scale(0.100000,-0.100000)"
fill="#000000" stroke="none">
<path d="M1852 3313 c-49 -9 -36 -56 19 -67 80 -16 218 -199 348 -466 l81
-164 0 -241 0 -240 -667 0 -668 0 -3 -22 c-3 -17 3 -24 25 -28 87 -20 172 -74
266 -173 l57 -61 0 -65 0 -66 -108 0 -109 0 -168 152 -167 153 52 48 c57 52
199 151 267 186 42 21 49 21 618 21 l575 0 0 25 0 25 -587 0 -588 0 -225 205
c-124 112 -228 204 -231 205 -17 1 -27 -1452 -10 -1478 15 -25 45 -9 54 29 19
79 146 205 319 312 l92 57 108 0 108 0 0 -155 c0 -85 -2 -155 -5 -155 -3 0
-42 18 -86 41 -45 22 -83 39 -84 37 -17 -17 -38 -1025 -22 -1080 12 -44 44
-37 66 15 53 123 339 275 834 442 l162 55 1373 0 1372 0 0 25 0 25 -185 0
-185 0 0 833 1 832 254 348 c140 192 255 352 255 356 0 11 -428 22 -1045 27
-1000 7 -2140 11 -2163 7z m711 -65 c21 -5 54 -24 72 -41 l34 -32 -160 -230
c-88 -126 -166 -236 -172 -242 -10 -10 -28 17 -85 130 -86 172 -174 308 -247
382 l-54 56 287 -7 c158 -3 304 -10 325 -16z m729 1 c120 -19 125 -1 -81 -297
-101 -144 -184 -262 -186 -262 -2 0 -34 61 -71 136 -37 75 -100 186 -141 247
-40 61 -72 113 -71 116 2 3 14 22 27 42 l24 35 216 -3 c119 -2 246 -8 283 -14z
m721 -16 c47 -15 117 -65 117 -84 0 -9 -292 -434 -315 -457 -10 -11 -22 5 -63
92 -70 145 -150 280 -222 371 -88 110 -93 107 199 99 169 -4 250 -10 284 -21z
m-1303 2 c-10 -12 -16 -13 -26 -4 -20 16 -18 19 12 19 22 0 25 -2 14 -15z
m2097 6 l162 -6 -215 -295 c-118 -162 -219 -299 -224 -304 -5 -5 -30 35 -60
95 -67 135 -152 278 -212 357 -27 35 -48 67 -48 71 0 4 14 27 30 49 l30 42
188 -1 c103 -1 260 -5 349 -8z m-622 -21 c-16 -18 -19 -18 -41 -3 -13 8 -24
17 -24 19 0 2 19 4 42 4 40 0 41 0 23 -20z m-633 -184 c33 -50 98 -166 144
-259 l84 -170 0 -849 0 -848 -365 0 -365 0 0 860 0 860 192 275 191 276 29
-28 c17 -15 57 -68 90 -117z m-742 -52 c33 -56 88 -160 123 -230 l62 -129 3
-857 2 -858 -325 0 -325 0 0 859 0 858 178 256 177 256 22 -27 c12 -15 49 -73
83 -128z m1437 29 c72 -106 158 -259 213 -378 l40 -87 0 -819 0 -819 -335 0
-335 0 0 854 0 855 171 245 c94 136 174 244 179 241 4 -2 34 -44 67 -92z
m-3358 -563 c82 -74 150 -138 150 -141 1 -4 -44 -37 -99 -74 -55 -36 -127 -91
-161 -122 l-60 -56 -25 25 -25 24 7 262 7 262 28 -22 c16 -13 96 -84 178 -158z
m1411 -940 l0 -600 -67 0 -68 0 -400 204 -400 204 -3 171 -2 171 265 0 265 0
2 -232 3 -233 25 0 25 0 3 233 2 232 160 0 160 0 0 30 0 30 -160 0 -160 0 0
68 0 68 172 127 c95 70 174 127 175 127 2 0 3 -270 3 -600z m-803 574 l82 -7
-121 -89 -120 -89 -77 73 c-42 41 -89 84 -106 96 l-30 21 145 1 c80 0 182 -3
227 -6z m601 -3 l64 -6 -120 -87 -120 -88 -64 63 c-34 35 -83 78 -107 95 l-44
32 164 -1 c90 -1 193 -4 227 -8z m-403 -47 c22 -15 75 -61 118 -103 l77 -76 0
-67 0 -68 -265 0 -265 0 1 68 0 67 141 103 c77 56 143 102 147 102 3 0 24 -12
46 -26z m-809 -195 c85 -77 154 -144 153 -147 0 -4 -43 -34 -96 -67 -52 -33
-135 -98 -184 -145 l-89 -85 1 135 c2 251 12 394 32 423 10 15 20 27 23 27 3
0 75 -63 160 -141z m424 -601 c0 -45 2 -48 25 -48 22 0 25 4 25 35 l0 35 365
-182 c201 -101 365 -185 365 -189 0 -3 -26 -13 -57 -23 -127 -39 -415 -151
-531 -206 -154 -74 -234 -122 -295 -179 -26 -24 -50 -41 -53 -38 -7 6 12 687
22 824 l7 82 63 -32 64 -31 0 -48z"/>
</g>
</svg>
