<?xml version="1.0" standalone="no"?>
<!DOCTYPE svg PUBLIC "-//W3C//DTD SVG 20010904//EN"
 "http://www.w3.org/TR/2001/REC-SVG-20010904/DTD/svg10.dtd">
<svg version="1.0" xmlns="http://www.w3.org/2000/svg"
 width="551.000000pt" height="371.000000pt" viewBox="0 0 551.000000 371.000000"
 preserveAspectRatio="xMidYMid meet">
<metadata>
Created by potrace 1.16, written by Peter Selinger 2001-2019
</metadata>
<g transform="translate(0.000000,371.000000) scale(0.100000,-0.100000)"
fill="#000000" stroke="none">
<path d="M4245 3456 l-36 -45 -144 -3 c-121 -2 -147 -6 -162 -20 -15 -16 -15
-20 -3 -31 8 -8 33 -19 56 -25 22 -7 58 -27 79 -45 l39 -34 -20 -26 c-10 -14
-93 -116 -184 -226 l-165 -200 -1060 0 -1060 -1 -398 181 c-218 100 -400 179
-404 175 -8 -7 -22 -243 -22 -381 l-1 -100 -148 3 c-167 4 -215 -4 -220 -34
-2 -16 6 -23 37 -33 77 -22 180 -153 291 -366 l52 -100 -8 -660 c-12 -993 -13
-965 26 -965 14 0 27 14 42 46 47 101 262 226 632 365 l128 49 394 0 394 0 0
-40 c0 -36 3 -40 25 -40 23 0 25 4 25 40 l0 40 607 0 606 0 -23 -25 c-13 -14
-22 -26 -19 -28 2 -2 83 -64 179 -139 492 -378 550 -416 566 -373 4 10 -21 44
-74 99 -127 133 -172 255 -172 469 0 224 52 441 176 744 9 21 12 34 6 28 -5
-5 -143 -171 -306 -367 l-296 -358 -625 0 -625 0 0 589 0 588 185 249 c101
137 185 252 185 255 0 7 -395 19 -622 19 -129 0 -159 -3 -172 -16 -21 -21 -16
-27 48 -58 83 -41 182 -175 282 -380 l44 -90 0 -578 0 -578 -394 0 -393 0
-384 215 -384 214 -3 349 -2 348 169 226 c193 258 146 222 421 314 l145 49
1054 3 1053 2 -31 -35 c-17 -20 -31 -37 -31 -39 0 -5 434 -338 572 -439 119
-87 150 -103 168 -92 23 14 6 45 -65 115 -137 135 -180 262 -172 510 4 137 36
342 57 363 13 14 116 -159 223 -373 l102 -205 5 -1130 5 -1130 25 0 25 0 3
1122 2 1123 285 415 c157 229 285 419 285 424 0 4 -100 11 -222 15 -123 3
-318 9 -435 13 l-211 6 19 43 c10 24 17 44 14 44 -2 0 -20 -20 -40 -44z m-105
-126 c-11 -16 -24 -31 -28 -34 -4 -2 -25 11 -46 30 l-39 34 67 0 67 0 -21 -30z
m653 14 c131 -4 237 -10 235 -14 -6 -16 -503 -737 -506 -735 -2 2 -31 63 -66
136 -70 151 -166 323 -233 417 l-44 63 22 67 c12 37 24 71 27 76 2 4 77 6 166
2 88 -3 268 -9 399 -12z m-673 -138 c0 -3 -11 -51 -24 -108 -39 -163 -49 -256
-44 -411 6 -151 31 -258 79 -337 l21 -34 -38 29 c-22 16 -130 98 -241 183
l-203 154 56 67 c30 36 128 155 217 263 142 173 177 211 177 194z m-2629 -422
c6 -3 -68 -31 -163 -63 l-173 -56 -174 3 -173 4 7 191 c3 106 8 199 11 208 4
13 65 -11 330 -132 179 -82 330 -151 335 -155z m1208 -120 c2 -1 -63 -93 -145
-203 l-148 -199 -58 104 c-70 127 -129 214 -182 272 l-40 44 284 -7 c157 -4
287 -9 289 -11z m-1946 -156 c6 -113 17 -145 48 -133 8 3 20 18 25 34 6 15 26
39 45 53 46 35 169 102 175 95 3 -3 -52 -82 -122 -176 l-128 -170 -48 90 c-57
109 -123 209 -178 272 l-42 47 110 0 109 0 6 -112z m210 69 c-45 -24 -98 -56
-117 -71 l-36 -27 0 70 0 71 118 0 117 -1 -82 -42z m3137 -1210 c-39 -158 -50
-246 -50 -390 0 -142 17 -234 60 -325 16 -35 30 -66 30 -68 0 -3 -46 30 -102
73 -221 166 -358 274 -358 283 0 5 10 20 23 34 12 14 112 135 222 270 110 134
201 243 202 242 1 -1 -11 -54 -27 -119z m-2932 -159 c321 -178 371 -208 343
-208 -24 0 -291 -109 -400 -164 -127 -63 -205 -111 -260 -162 l-41 -36 6 353
c5 343 8 399 20 399 3 0 153 -82 332 -182z"/>
</g>
</svg>
