<?xml version="1.0" standalone="yes"?>
<svg xmlns="http://www.w3.org/2000/svg" width="551" height="371">
<!-- <path style="fill:#ffffff; stroke:none;" d="M0 0L0 371L551 371L551 0L0 0z"/>
--><path style="fill:#000000; stroke:none;" d="M428 20C424.309 24.2242 421.055 29.4142 415 29.9414C409.578 30.4134 393.318 27.0309 390.086 32.4151C386.659 38.1255 405.168 39.7453 404.384 47.0038C403.965 50.8733 398.786 55.1497 396.414 58C388.812 67.1328 379.393 84.3432 368.91 89.9722C363.589 92.8296 353.909 91 348 91L297 91L205 91C190.854 91 173.825 93.5981 160 90.6096C131.025 84.3458 106.227 59.21 77 54L75 103C65.6696 103 56.3294 102.874 47 103.004C44.5605 103.038 39.4573 102.827 38.9213 106.171C38.369 109.616 49.5006 114.579 51.8295 117.04C61.0341 126.766 69.5901 140.477 74.3804 153C78.6904 164.267 76 180.049 76 192C76 218.966 78.384 247.164 75.8302 274C74.7855 284.978 74.9475 295.96 75.0008 307C75.016 310.156 74.491 316.876 77.5733 318.914C81.4753 321.492 84.4734 313.083 86.2245 311.004C93.5731 302.278 104.932 296.707 115 291.756C129.173 284.787 146.324 275.938 162 273.326C185.691 269.377 212.962 273 237 273L237 282L243 282L243 273L363 273C357.928 280.38 366.558 284.336 372 288.576C386.186 299.628 400.471 310.557 415 321.151C418.311 323.566 428.892 333.81 433.392 330.867C436.35 328.933 433.322 324.744 431.852 323C425.453 315.407 418.239 309.634 414.696 300C405.878 276.025 410.782 248.668 418.344 225C421.534 215.017 427.939 204.37 429 194L428 194L385.247 246L366.83 266.397L330 267L243 267L243 188C243 177.284 240.264 162.209 243.564 152C249.991 132.121 272.842 118.296 281 99C260.651 99 240.387 98 220 98C215.792 98 202.803 95.8657 200.086 99.7269C197.319 103.66 206.947 106.785 208.996 108.394C219.113 116.335 226.068 129.712 231.752 141C239.061 155.515 237 171.062 237 187L237 267L186 267C177.735 267 168.095 268.36 160 266.61C150.672 264.592 141.236 257.088 133 252.424C117.82 243.829 97.3235 236.652 84.3179 225.046C78.7905 220.113 82 201.978 82 195C82 183.713 79.0892 167.748 82.564 157C85.7384 147.181 96.4629 137.218 102.627 129C107.038 123.118 111.643 114.051 118.09 110.275C146.174 93.8266 179.928 96 211 96L365 96L360 105C377.737 116.721 393.701 131.319 411 143.71C418.331 148.961 425.6 156.511 435 157C434.41 146.217 421.567 139.552 416.76 130C406.812 110.231 407.026 77.8691 417 58C426.622 78.3387 442.689 96.7437 448.39 119C450.288 126.409 449 135.387 449 143L449 190L449 342L455 342L455 189L455 142C455 134.883 453.532 125.87 455.51 119C457.664 111.519 464.706 104.41 469.001 98C482.856 77.3212 504.177 55.2776 513 32L426 30L428 20z"/>
<path style="fill:#ffffff; stroke:none;" d="M405 36L410 41L411 41L415 35L405 36M452 111L480.67 70L502 38C493.554 35.5036 483.752 37.3439 475 36.9606C460.282 36.3161 439.498 32.0741 425.214 36.3179C421.306 37.4788 419.212 44.3305 419.039 48C418.75 54.0926 426.546 61.9092 429.6 67C438.13 81.2164 444.918 96.0536 452 111M410 51L368 102L368 103L414 138C399.832 110.959 402.94 79.3327 412 51L410 51M83 63L81 103L117 103.671L148 94L129 83.5756L83 63M213 103L213 104C226.798 113.925 230.645 131.503 241 144L269 105C252.223 101.006 230.295 103 213 103M53 109L53 110L80 149L105 115C98.7428 117.605 92.1495 120.772 87.054 125.326C84.9109 127.241 82.3043 132.793 79.0903 132.793C72.7826 132.793 75 112.997 75 109L53 109M81 109L81 122L101 111L81 109M411 224C398.499 242.283 377.215 257.882 368 278L413 311C405.521 293.012 402.931 276.426 405.285 257C406.438 247.492 413.072 233.068 411 224M83 232L81 306C102.307 291.433 124.74 277.895 150 271L130 257.769L83 232z"/>
</svg>
