<?xml version="1.0" standalone="no"?>
<!DOCTYPE svg PUBLIC "-//W3C//DTD SVG 20010904//EN"
 "http://www.w3.org/TR/2001/REC-SVG-20010904/DTD/svg10.dtd">
<svg version="1.0" xmlns="http://www.w3.org/2000/svg"
 width="478.000000pt" height="371.000000pt" viewBox="0 0 478.000000 371.000000"
 preserveAspectRatio="xMidYMid meet">
<metadata>
Created by potrace 1.16, written by Peter Selinger 2001-2019
</metadata>
<g transform="translate(0.000000,371.000000) scale(0.100000,-0.100000)"
fill="#000000" stroke="none">
<path d="M575 3108 c-7 -248 -9 -543 -6 -883 1 -93 -3 -363 -9 -600 -21 -870
-24 -1149 -11 -1173 19 -36 40 -26 65 32 14 31 45 75 73 101 90 87 300 212
511 304 l93 41 439 0 c438 0 440 0 440 -21 0 -29 18 -59 35 -59 9 0 26 23 39
52 47 107 193 214 488 358 l183 90 638 0 637 0 0 25 0 25 -633 0 -634 0 -179
121 c-98 67 -248 169 -332 226 l-153 104 23 41 c55 98 279 246 566 373 l102
45 630 0 630 0 0 25 0 25 -632 0 -633 0 -360 244 c-198 135 -361 252 -363 260
-3 14 -53 16 -459 16 l-455 0 -353 240 c-195 132 -358 240 -363 240 -6 0 -13
-109 -17 -252z m371 -45 c167 -113 303 -208 301 -209 -2 -2 -80 -42 -173 -88
-191 -95 -325 -180 -402 -256 l-52 -51 0 224 c0 238 10 587 17 587 3 0 142
-93 309 -207z m1261 -410 c-4 -98 -10 -307 -13 -465 l-7 -288 -434 0 -435 0
-343 232 c-281 190 -341 235 -337 250 9 37 106 129 201 193 101 67 294 169
421 223 l75 31 439 1 439 0 -6 -177z m391 -118 c155 -104 281 -192 281 -195 0
-3 -80 -44 -177 -92 -197 -96 -304 -163 -391 -244 -33 -30 -62 -51 -64 -47 -3
4 -1 161 4 348 4 187 8 366 9 398 l0 59 28 -19 c16 -10 155 -103 310 -208z
m-1648 -448 c162 -110 296 -201 298 -202 2 -2 -75 -41 -170 -88 -201 -100
-318 -174 -406 -260 l-64 -62 6 245 c12 463 18 580 30 573 6 -4 144 -96 306
-206z m1237 -299 c-4 -35 -10 -228 -13 -430 l-7 -368 -442 0 -442 0 -319 216
c-176 119 -320 217 -322 219 -2 1 21 28 49 59 72 79 201 162 424 272 l190 94
444 0 444 0 -6 -62z m561 -331 c56 -39 102 -73 102 -76 -1 -3 -76 -43 -168
-88 -191 -93 -327 -180 -409 -259 l-56 -55 7 328 c3 180 9 365 13 410 l6 82
201 -136 c110 -75 247 -168 304 -206z m-1820 -289 c163 -110 298 -202 300
-203 1 -1 -73 -39 -164 -84 -194 -95 -344 -190 -420 -266 l-54 -54 1 132 c0
73 4 247 8 387 8 227 14 290 27 290 2 0 138 -91 302 -202z"/>
</g>
</svg>
