<?xml version="1.0" standalone="no"?>
<!DOCTYPE svg PUBLIC "-//W3C//DTD SVG 20010904//EN"
 "http://www.w3.org/TR/2001/REC-SVG-20010904/DTD/svg10.dtd">
<svg version="1.0" xmlns="http://www.w3.org/2000/svg"
 width="535.000000pt" height="371.000000pt" viewBox="0 0 535.000000 371.000000"
 preserveAspectRatio="xMidYMid meet">
<metadata>
Created by potrace 1.16, written by Peter Selinger 2001-2019
</metadata>
<g transform="translate(0.000000,371.000000) scale(0.100000,-0.100000)"
fill="#000000" stroke="none">
<path d="M538 3444 c-14 -3 -32 -12 -39 -20 -16 -20 0 -35 65 -59 116 -42 287
-281 448 -625 65 -140 72 -212 59 -600 -28 -801 -33 -973 -27 -1065 4 -55 6
-244 5 -420 -1 -287 0 -323 15 -338 16 -15 46 -14 46 3 0 4 9 10 20 13 13 3
20 14 20 31 0 59 215 170 555 286 l148 50 493 0 493 0 7 37 c22 129 210 287
542 456 l150 77 631 0 631 0 0 25 0 25 -634 0 -633 0 -319 241 c-175 133 -325
247 -332 254 -11 10 -10 20 8 55 59 116 255 262 551 411 l119 59 630 0 630 0
0 30 0 30 -637 0 -638 0 -355 270 c-195 148 -358 270 -362 270 -5 0 -8 -7 -8
-15 0 -13 -60 -15 -478 -15 l-478 0 -183 90 -182 90 97 142 c54 79 104 151
113 161 12 14 12 20 3 26 -22 14 -1109 36 -1174 25z m815 -60 c153 -4 276 -10
275 -13 -13 -28 -172 -251 -179 -251 -5 0 -86 39 -180 86 -94 47 -173 83 -176
80 -6 -6 -22 -303 -23 -436 l0 -105 -80 154 c-103 199 -196 338 -288 430 l-74
74 224 -7 c122 -3 348 -9 501 -12z m54 -337 c-8 -12 -76 -112 -152 -222 l-138
-200 7 270 c4 149 9 280 12 292 6 21 11 19 146 -48 137 -68 139 -70 125 -92z
m391 -162 c2 -2 -27 -13 -65 -25 -193 -64 -427 -165 -527 -227 l-40 -25 36 48
c19 27 88 127 152 221 l117 173 162 -81 c89 -45 163 -83 165 -84z m1017 -267
c-3 -128 -8 -288 -11 -355 l-6 -123 -469 0 -469 0 -355 177 c-195 98 -355 183
-355 190 0 55 248 183 565 292 l150 51 478 0 478 0 -6 -232z m370 -9 c168
-128 305 -234 305 -238 0 -3 -53 -33 -117 -66 -167 -86 -346 -207 -435 -294
-43 -42 -79 -72 -82 -66 -2 6 0 182 5 390 4 209 8 408 9 443 0 34 2 62 5 62 3
0 143 -104 310 -231z m-1704 -337 l323 -158 -134 -46 c-220 -75 -374 -145
-497 -226 l-23 -14 0 301 c0 165 2 301 4 301 2 0 149 -71 327 -158z m1319
-279 c0 -49 -3 -199 -7 -335 l-6 -248 -468 0 -468 0 -352 172 -351 172 33 29
c80 67 258 151 509 238 l165 58 473 0 472 1 0 -87z m398 -483 c149 -113 271
-207 272 -210 0 -3 -53 -32 -118 -65 -175 -90 -364 -219 -451 -309 l-74 -77 7
368 c3 202 9 410 13 460 l6 93 37 -28 c20 -15 159 -119 308 -232z m-1728 29
l305 -151 -120 -42 c-213 -76 -374 -146 -462 -201 l-43 -26 0 285 c0 157 3
286 8 286 4 0 145 -68 312 -151z m1310 -479 l0 -300 -470 0 -470 0 -322 161
c-364 182 -343 160 -216 225 101 51 227 102 398 160 l155 53 463 1 462 0 0
-300z m-1306 -174 c168 -83 303 -153 299 -157 -5 -3 -39 -17 -78 -29 -176 -56
-400 -152 -502 -215 l-43 -26 0 291 c0 165 4 290 9 288 5 -1 146 -70 315 -152z"/>
</g>
</svg>
