<?xml version="1.0" standalone="no"?>
<!DOCTYPE svg PUBLIC "-//W3C//DTD SVG 20010904//EN"
 "http://www.w3.org/TR/2001/REC-SVG-20010904/DTD/svg10.dtd">
<svg version="1.0" xmlns="http://www.w3.org/2000/svg"
 width="530.000000pt" height="371.000000pt" viewBox="0 0 530.000000 371.000000"
 preserveAspectRatio="xMidYMid meet">
<metadata>
Created by potrace 1.16, written by Peter Selinger 2001-2019
</metadata>
<g transform="translate(0.000000,371.000000) scale(0.100000,-0.100000)"
fill="#000000" stroke="none">
<path d="M3873 3331 c-38 -17 -29 -46 22 -65 47 -18 163 -132 148 -146 -4 -4
-342 -130 -751 -280 l-742 -273 -266 98 c-145 54 -268 95 -271 91 -5 -5 71
-408 84 -442 4 -12 -80 -14 -553 -14 l-559 0 -230 209 -230 208 -7 -36 c-10
-50 -18 -1378 -9 -1421 9 -45 37 -52 52 -13 31 79 44 99 92 150 54 57 167 143
273 206 60 36 64 37 163 37 l101 0 0 -200 0 -200 25 0 25 0 0 200 0 200 270 0
270 0 0 -225 0 -225 25 0 25 0 0 225 0 225 165 0 165 0 0 25 0 25 -165 0 -165
0 0 84 0 84 157 116 157 116 16 -52 c24 -80 69 -78 70 2 1 19 7 48 13 64 12
28 14 24 41 -95 16 -68 44 -179 62 -247 l34 -123 -172 -197 c-221 -254 -318
-375 -318 -396 0 -22 28 -32 49 -18 42 30 92 51 158 66 94 21 347 39 482 34
l106 -3 852 -383 c758 -340 855 -381 873 -370 20 13 20 17 20 1042 l0 1030
255 429 c140 236 255 432 255 436 0 18 -1028 39 -1067 22z m864 -60 l122 -6
-63 -105 c-35 -58 -137 -228 -226 -379 l-162 -273 -59 143 c-115 281 -232 489
-331 591 l-49 51 323 -8 c178 -4 378 -10 445 -14z m-557 -376 c47 -93 110
-231 140 -305 l55 -135 3 -727 c1 -401 -1 -728 -5 -728 -4 0 -139 50 -300 112
l-293 112 0 400 0 401 136 170 136 170 -93 6 c-52 4 -132 8 -179 9 l-85 2 40
13 c22 8 154 50 293 95 144 47 252 86 252 93 -1 39 -17 36 -395 -84 -209 -66
-393 -125 -410 -131 -156 -54 -704 -228 -719 -228 -25 0 -406 122 -406 130 0
10 121 148 179 205 l51 49 737 272 c406 150 747 272 758 271 15 -2 40 -42 105
-172z m-1820 -312 c69 -25 128 -49 133 -53 4 -3 -23 -40 -60 -81 -38 -41 -84
-94 -105 -119 -35 -43 -37 -44 -72 -33 -41 13 -44 6 -26 -55 7 -26 5 -42 -7
-68 -9 -19 -22 -33 -27 -31 -6 2 -19 39 -28 83 -9 43 -33 156 -52 249 -20 94
-38 180 -41 192 -5 22 -5 22 77 -8 46 -17 139 -51 208 -76z m-1581 -163 c82
-74 150 -137 150 -140 0 -3 -34 -26 -77 -52 -42 -25 -117 -79 -165 -118 -85
-69 -89 -71 -108 -54 -18 16 -19 33 -19 258 0 133 3 251 6 264 l6 23 29 -23
c15 -13 95 -84 178 -158z m3048 -96 l121 -7 -95 -118 c-52 -66 -96 -119 -98
-119 -1 0 -23 35 -47 78 -25 42 -65 98 -88 125 l-42 47 65 0 c35 0 118 -3 184
-6z m-291 -29 c38 -29 105 -120 158 -216 l36 -66 0 -381 c0 -226 -4 -382 -9
-382 -19 0 -636 241 -647 253 -6 6 -72 126 -145 264 -74 139 -137 253 -140
253 -6 0 -181 -488 -195 -545 -4 -15 -10 -23 -14 -18 -4 4 -31 64 -60 133 -29
69 -57 128 -62 131 -17 11 79 136 190 246 87 86 125 117 161 129 78 28 675
222 685 223 5 1 24 -10 42 -24z m-1417 -89 c6 -25 11 -49 11 -55 0 -7 -198 -9
-615 -6 -338 2 -627 0 -642 -4 -46 -12 -36 -42 18 -55 68 -18 132 -60 220
-144 l79 -77 0 -88 0 -87 -103 0 -104 0 -166 151 c-92 83 -167 154 -167 158 0
21 122 118 246 196 l87 55 562 0 563 0 11 -44z m392 -47 c104 -33 189 -61 189
-62 0 -2 -49 -52 -108 -113 -60 -61 -127 -139 -150 -173 l-41 -62 -11 40 c-76
284 -101 431 -73 431 3 0 90 -27 194 -61z m-1051 -74 c0 -6 -228 -175 -237
-175 -3 0 -38 31 -77 68 -39 37 -84 78 -101 90 l-30 21 223 1 c122 0 222 -2
222 -5z m587 -1 c-3 -4 -59 -45 -124 -93 l-117 -87 -61 61 c-33 34 -80 76
-104 93 l-44 32 228 0 c126 0 226 -3 222 -6z m-461 -50 c21 -14 74 -60 117
-102 l77 -77 0 -82 0 -83 -270 0 -270 0 0 83 1 82 137 102 c75 56 144 102 153
102 9 1 34 -11 55 -25z m-808 -227 l153 -139 -105 -68 c-57 -38 -141 -103
-186 -146 l-81 -78 3 255 c3 227 5 258 22 291 11 21 24 34 30 31 6 -4 80 -70
164 -146z m2135 -119 c85 -160 102 -198 88 -202 -9 -3 -42 -10 -74 -16 -72
-14 -208 -60 -264 -89 -42 -21 -43 -21 -43 -2 0 32 173 522 181 514 4 -4 54
-97 112 -205z m-404 -201 l49 -115 -18 -61 c-11 -34 -17 -68 -14 -76 10 -24
42 -17 58 13 l14 27 21 -45 20 -45 -197 -6 c-169 -6 -317 -22 -412 -46 -28 -7
-32 -12 249 310 126 145 166 185 173 174 4 -8 30 -67 57 -130z m875 -166 c171
-66 319 -123 329 -126 9 -4 17 -14 17 -22 0 -11 7 -14 27 -10 19 3 115 -29
322 -108 l296 -113 3 -261 2 -261 -22 10 c-13 6 -391 176 -841 378 l-819 367
-28 67 -29 67 23 15 c54 35 172 74 331 109 54 12 101 -1 389 -112z"/>
</g>
</svg>
