<?xml version="1.0" standalone="yes"?>
<svg xmlns="http://www.w3.org/2000/svg" width="530" height="371">
<path style="fill:#ffffff; stroke:none;" d="M0 0L0 371L530 371L530 0L0 0z"/>
<path style="fill:#000000; stroke:none;" d="M404 59C368.525 68.6831 333.423 84.4419 299 97.4236C286.582 102.107 268.253 112.943 255 112.943C236.829 112.943 218.01 97.0993 200 94L209 140L132 140C122.472 140 107.883 142.738 99 139.142C80.2118 131.536 70.3406 105.575 51 99C51 137.041 50 175.054 50 213C50 222 49.9533 231.001 50.0008 240C50.0144 242.575 49.4834 248.045 53.1196 248.534C56.1974 248.948 57.0194 245.095 57.9259 242.995C60.6859 236.602 65.9687 231.753 71 227.09C85.7917 213.383 99.2106 207 119 207L119 247L125 247L125 207L177 207L177 252L183 252L183 207L216 207L216 202L183 202C183 197.556 181.884 191.335 183.603 187.174C187.168 178.544 206.965 167.578 215 163C215.216 165.636 216.432 175.734 221.412 171.953C224.424 169.666 225.25 159.727 227.454 156C234.659 143.814 245.001 130.242 256.004 121.275C264.521 114.333 278.76 111.692 289 107.947C311.691 99.6478 334.408 91.3715 357 82.8079C369.621 78.0237 382.377 73.5926 395 68.8079C398.61 67.4397 405.032 63.7761 408.61 66.5278C412.589 69.5873 415.046 76.6103 417.247 81C423.312 93.0994 428.579 105.436 433.6 118C442.032 139.097 438 165.522 438 188L438 328L318 263.309L286 246.219L270.702 236.787L261.997 214L247 172C240.201 175.453 236.096 184.013 231.626 190C220.802 204.495 210.384 219.287 199.86 234C197.515 237.278 185.226 251.245 189.647 255.149C192.596 257.754 205.95 248.576 210 247.428C225.899 242.922 250.879 239.454 267 244.105C282.488 248.573 297.848 260.037 312 267.691C353.889 290.349 396.061 317.702 440 336C444.005 330.242 443 323.752 443 317L443 279L443 179C443 163.216 440.781 145.588 443.214 130C444.541 121.498 452.259 112.327 456.603 105C468.786 84.4538 487.799 61.7488 495 39C467.005 39 439.065 37 411 37C406.578 37 386.063 34.403 385.06 40.1844C384.498 43.4234 388.852 44.8042 391.001 45.9807C396.585 49.0381 400.536 53.7629 404 59z"/>
<path style="fill:#ffffff; stroke:none;" d="M398 42L422.742 78L441 119L468 74L485 44L398 42M208 103L219 157L220 157L250 118L208 103M57 111C57 126.036 49.7685 154.902 60 167L61 167C69.9658 158.059 80.4806 149.449 92 144C86.0852 132.317 67.699 118.537 57 111z"/>
<path style="fill:#000000; stroke:none;" d="M367 160L346 158.972L311 127L311 216C311 222.999 310.952 230 311.001 236.999C311.014 238.975 310.52 243.401 313.26 243.94C316.083 244.495 325.22 228.668 328.001 226.174C340.932 214.571 350.323 213 367 213L367 257L373 257L373 213L427 213L427 207L373 207L373 166L427 166L427 160L373 160C374.854 143.249 395.034 130.51 401 115C385.02 114.67 369.047 114 353 114C350.43 114 338.429 112.415 339.037 117.015C339.502 120.533 348.158 125.115 350.535 128.001C357.555 136.519 365.343 148.947 367 160z"/>
<path style="fill:#ffffff; stroke:none;" d="M352 119L369 148C377.3 143.76 386.42 128.51 390 120L352 119M317 141C317 152.319 312.618 169.914 318 180L319 180L339 164C335.008 155.44 324.674 146.406 317 141M65 172L99 201.258L119 202C119 197.108 120.107 190.638 118.397 186C113.917 173.852 96.1614 163.572 84 162C85.6326 151.999 107.183 156 115 156C147.64 156 180.328 157 213 157L211 146L135 146C124.046 146 109.517 143.493 99 146.649C88.49 149.802 69.808 162.132 65 172M103 162L103 163L122 180L123 180L146 163C134.774 158.29 115.219 162 103 162M161 162L161 163C167.036 166.776 173.297 176.944 180 178.542C185.905 179.95 200.416 166.339 204 162L161 162M125 202L177 202C177 188.306 171.63 167.626 154 165.927C149.614 165.505 145.231 170.213 142 172.626C128.798 182.484 125 185.394 125 202M367 207L367 166C353.153 166 344.366 165.764 333 174.668C330.439 176.674 324.398 180.401 324.346 184.09C324.288 188.16 330.417 192.417 333 195C344.703 206.703 351.079 207 367 207M60 176C52.3724 192.341 56 214.335 56 232L92 205L92 203L60 176M244 184C228.623 202.03 212.532 223.286 201 244C221.651 237.283 242.659 237.56 264 238C258.738 221.828 254.155 197.575 244 184M318 190L316 229L317 229L340 210C334.715 202.497 326.557 193.623 318 190z"/>
</svg>
