<?xml version="1.0" standalone="no"?>
<!DOCTYPE svg PUBLIC "-//W3C//DTD SVG 20010904//EN"
 "http://www.w3.org/TR/2001/REC-SVG-20010904/DTD/svg10.dtd">
<svg version="1.0" xmlns="http://www.w3.org/2000/svg"
 width="804.000000pt" height="378.000000pt" viewBox="0 0 804.000000 378.000000"
 preserveAspectRatio="xMidYMid meet">
<metadata>
Created by potrace 1.16, written by Peter Selinger 2001-2019
</metadata>
<g transform="translate(0.000000,378.000000) scale(0.100000,-0.100000)"
fill="#000000" stroke="none">
<path d="M2150 3274 c-250 -139 -456 -249 -458 -244 -6 15 59 158 108 241 27
44 75 113 106 152 32 39 51 68 43 65 -8 -3 -234 -128 -503 -277 -269 -149
-490 -270 -492 -268 -1 1 10 41 25 88 37 115 120 270 203 379 64 84 66 90 36
74 -33 -17 -1021 -564 -1025 -567 -4 -5 730 -532 920 -661 84 -56 136 -86 150
-84 45 6 24 40 -79 129 -176 153 -234 264 -242 457 -2 61 -2 112 1 112 4 0
142 -98 309 -218 319 -230 608 -433 669 -470 44 -27 65 -28 74 -4 5 13 -10 31
-62 77 -157 138 -213 207 -254 316 -26 67 -42 190 -34 251 l7 49 33 -25 c18
-14 179 -130 356 -257 355 -254 549 -386 570 -389 29 -4 39 1 39 20 0 12 -35
49 -96 102 -53 45 -114 104 -135 131 -48 60 -93 155 -108 225 -11 52 -15 182
-6 182 2 0 140 -98 307 -218 360 -259 617 -440 674 -472 43 -25 78 -22 72 7
-2 9 -49 57 -106 107 -113 99 -169 172 -209 268 -35 85 -44 258 -18 375 36
163 139 363 266 516 17 20 29 37 26 37 -3 0 -229 -124 -502 -276 -274 -151
-500 -273 -503 -270 -7 8 23 114 55 196 37 94 117 231 185 317 33 41 58 76 56
77 -2 2 -208 -111 -458 -250z m226 -6 c-30 -57 -69 -148 -87 -203 -27 -85 -33
-119 -37 -225 -6 -169 20 -263 109 -399 19 -28 5 -21 -102 55 -391 278 -598
430 -596 439 2 7 739 426 764 434 1 1 -22 -45 -51 -101z m-1347 5 c-74 -127
-131 -303 -144 -443 -11 -135 36 -308 111 -407 14 -18 22 -33 19 -33 -6 0
-447 313 -645 459 -73 53 -80 61 -63 71 40 25 748 418 755 419 4 1 -11 -29
-33 -66z m733 35 c-21 -26 -100 -195 -122 -261 -12 -37 -29 -72 -38 -77 -47
-27 -48 -28 -27 -44 18 -13 20 -26 20 -143 1 -113 4 -137 29 -208 15 -44 45
-106 66 -137 21 -32 36 -58 34 -58 -3 0 -139 96 -302 213 -163 117 -325 233
-359 258 -34 24 -63 46 -63 49 0 7 764 429 769 425 2 -3 -1 -10 -7 -17z m1307
-113 c-98 -199 -136 -393 -105 -549 17 -84 61 -189 102 -243 14 -18 22 -33 19
-33 -3 0 -126 86 -273 192 -147 105 -309 221 -359 257 -51 36 -92 68 -92 71 0
5 762 429 766 426 1 -1 -25 -55 -58 -121z"/>
<path d="M3791 3412 c-400 -628 -581 -933 -581 -981 0 -39 45 -35 83 7 27 30
144 80 248 106 221 56 622 104 1024 122 l150 7 1460 -353 c803 -193 1461 -353
1462 -354 1 -1 -573 -136 -1275 -301 -702 -164 -1285 -301 -1294 -303 -16 -4
-18 4 -18 64 l0 69 156 213 c86 117 154 216 150 219 -8 8 -1090 17 -1122 9
-36 -9 -29 -47 10 -57 62 -17 163 -149 246 -321 38 -77 40 -87 40 -175 0 -51
-3 -93 -7 -93 -5 0 -255 65 -558 144 -302 79 -552 142 -554 140 -6 -6 26 -633
45 -884 16 -213 37 -357 54 -374 17 -17 43 6 60 55 23 69 53 109 142 195 98
94 231 196 418 321 142 94 382 243 394 243 3 0 6 -169 6 -375 l0 -375 25 0 25
0 0 393 0 394 48 25 c26 14 106 39 178 56 72 17 143 34 158 38 l26 6 0 -456 0
-456 30 0 30 0 0 463 0 462 1293 303 c710 167 1322 310 1360 318 60 14 67 18
67 40 0 13 -2 24 -4 24 -13 0 -3035 732 -3051 739 -11 5 -189 169 -395 366
-206 197 -393 375 -415 396 l-40 38 -74 -117z m513 -373 l329 -314 -109 -7
c-648 -44 -1017 -103 -1188 -190 l-39 -20 38 69 c45 81 278 459 431 700 l109
172 50 -48 c28 -26 198 -189 379 -362z m437 -1175 c16 -8 29 -17 29 -20 0 -7
-22 -39 -128 -182 l-83 -114 -67 118 c-37 65 -89 142 -117 172 l-50 55 194 -7
c141 -5 201 -11 222 -22z m518 10 c3 -3 -229 -324 -234 -324 -2 0 -24 39 -50
88 -26 48 -66 114 -90 147 -40 57 -42 61 -27 83 l15 24 191 -7 c105 -4 193 -9
195 -11z m-394 -153 c23 -36 61 -103 84 -148 37 -74 41 -90 41 -156 l0 -73
-179 -43 c-113 -26 -188 -40 -205 -35 l-26 6 0 109 0 109 113 154 c61 84 116
151 120 149 5 -3 28 -35 52 -72z m-845 -354 c444 -116 505 -135 508 -152 2
-16 -24 -35 -124 -94 -400 -235 -754 -508 -844 -649 l-28 -42 -6 52 c-11 101
-26 304 -41 578 -8 151 -17 315 -20 363 l-6 89 28 -6 c15 -4 255 -66 533 -139z"/>
<path d="M966 1732 c-351 -230 -639 -422 -640 -427 -1 -10 304 -237 719 -534
444 -318 495 -349 512 -305 4 11 -33 54 -129 147 -123 119 -140 140 -177 217
-49 100 -71 195 -71 306 0 279 149 643 396 967 20 26 34 47 32 47 -1 0 -290
-189 -642 -418z m419 186 c-56 -91 -145 -280 -179 -378 -107 -305 -100 -576
19 -775 20 -33 48 -72 63 -88 14 -15 23 -27 20 -27 -17 0 -898 642 -895 652 2
6 983 654 995 657 2 1 -9 -18 -23 -41z"/>
<path d="M2720 1730 c-354 -231 -645 -422 -647 -424 -7 -6 864 -638 1076 -779
116 -78 153 -91 165 -60 5 13 -13 35 -71 88 -167 151 -220 220 -272 353 -24
62 -26 79 -26 232 0 142 3 178 24 255 58 222 192 486 353 693 26 34 47 62 45
62 -2 0 -293 -189 -647 -420z m415 178 c-177 -289 -276 -635 -246 -859 16
-124 55 -230 118 -321 l53 -79 -67 48 c-127 89 -778 563 -805 585 l-27 23 492
322 c271 176 496 322 500 322 5 1 -4 -18 -18 -41z"/>
</g>
</svg>
