<?xml version="1.0" standalone="yes"?>
<svg xmlns="http://www.w3.org/2000/svg" width="782" height="371">
<!-- <path style="fill:#ffffff; stroke:none;" d="M0 0L0 371L782 371L782 0L0 0z"/>
--><path style="fill:#000000; stroke:none;" d="M415 23L391.95 80L381 112L373 111L379 95L343 130L325 150L361 163L319 206L371 225L365.411 247.306L347 244.873L298 234L298 186L299.028 165L329 132L297 131L297 90L298.028 72L329 38C293.317 37.2634 257.669 37 222 37C213.667 37 205.332 36.9434 197 37.0008C194.273 37.0195 189.694 36.6839 188.752 40.0934C187.729 43.7932 199.186 50.1496 201.535 53.0008C212.388 66.1711 217.803 82.7931 225 98L144 98C133.415 98 117.999 100.843 108 97.2724C88.1244 90.1743 74.8493 67.6351 55 60C55 93.7751 55.44 128.217 53.9606 162C52.7026 190.73 50.0126 220.258 52.6998 249C53.9267 262.122 52 276.686 52 290C52 293.44 50.5786 301.895 54.4144 303.824C58.1404 305.698 62.8317 294.389 65.0934 292.171C75.2716 282.187 89.7899 273.66 103 268.352C114.326 263.801 131.881 267 144 267L234 267L234 336L240 336L240 191C240 169.432 235.838 143.054 240.39 122C245.806 96.9539 269.753 76.6373 277 52C299.331 68.0638 291 106.767 291 131C286.554 131 265.291 128.441 263.752 133.26C262.615 136.818 269.951 138.811 272 140.394C279.264 146.007 286.822 154.608 290.722 163C293.597 169.187 292 178.312 292 185L292 232L272 228C278.539 256.524 289.179 285.593 299.424 313C301.256 317.899 305.502 337.364 312.046 337.364C316.847 337.364 316.039 329.051 317.417 326C321.798 316.295 331.245 308.175 339 301.17C363.804 278.766 390.364 261.265 423 254.21C429.835 252.732 443.322 246.547 449.996 249.201C454.404 250.954 457.555 256.444 460.4 260C466.837 268.047 473.02 276.416 480 284L481 284L485 281L458 246L489.961 239.218L500.8 250L524 279C530.717 275.183 526.099 270.635 522.4 266C514.368 255.938 506.455 245.709 498 236L530.985 229.777L542.919 242L572 278L573 278L577 275L540 227C589.703 213 640.889 203.84 691 191.373C702.3 188.562 713.695 186.164 725 183.374C731.941 181.661 737.271 181.836 739 174C719.261 171.085 699.067 161.951 680 156.025C639.66 143.489 599.239 131.201 559 118.344C540.053 112.29 520.919 106.813 502 100.67C494.129 98.114 483.988 96.7944 477.001 92.2724C470.645 88.1591 465.897 80.6744 461 75C446.761 58.5006 432.522 35.8962 415 23z"/>
<path style="fill:#ffffff; stroke:none;" d="M416 35L388 109C414.87 99.3852 440.33 98.1367 468 93L433.87 53L416 35M201 42C210.368 55.7024 218.838 68.6179 225.421 84C227.846 89.6664 228.965 97.4394 236 98L237 113C248.617 98.9793 256.011 78.9565 264.861 63C266.73 59.631 274.652 49.4101 271.342 45.7423C268.158 42.2149 259.265 44.2361 255 43.8302C237.284 42.1443 218.801 42 201 42M295 64L316 43L291 43L282.497 44.6034L295 64M61 71C58.7992 82.8544 55.3508 113.065 64 122L65 122L99 101L99 99L61 71M393 113L393 114L431 120C418.827 130.633 400.538 141.52 391.589 155.004C388.616 159.482 389.737 164.824 388.286 169.715C383.537 185.728 380.143 203.408 378 220L382.37 224.727L376.514 229.317L372 251L392 254.896L447 243C439.305 231.366 429.899 218.22 417 212.309C412.07 210.049 406.485 207.419 401 207.108C398.636 206.974 393.651 208.622 391.971 206.357C389.654 203.234 395.658 198.047 397.425 196C405.232 186.954 414.241 175.875 424 169C424.432 189.941 428.59 210.737 441.6 227C444.664 230.83 449.038 238.87 454.09 240.096C462.516 242.143 478.694 235.335 487 233C479.692 220.297 470.45 211.021 457 205.425C453.63 204.023 437.209 202.816 436.306 200.643C434.776 196.958 440.865 192.225 442.965 190C451.235 181.238 459.471 172.529 468 164C470.411 183.062 471.27 203.813 483.611 219C486.444 222.486 490.445 229.66 495.171 230.592C504.823 232.495 518.102 224.808 528 224C520.291 206.703 500.251 200.639 483 202C484.462 188.877 506.095 170.986 516 163C516.684 178.941 518.446 211.404 534.089 220.223C537.874 222.356 544.088 219.82 548 218.87C559.98 215.961 572.037 213.35 584 210.373C630.359 198.84 679.786 192.336 725 177C715.272 171.057 700.96 168.785 690 165.576C669.236 159.495 648.72 152.522 628 146.28C592.569 135.607 557.433 123.954 522 113.28C507.228 108.83 491.312 101.041 476 99.1844C449.903 96.0195 417.157 103.63 393 113M70 125L70 126C80.3373 134.204 93.5515 147.827 106 152.272C116.777 156.121 133.582 153 145 153L234 153C234 139.448 237.631 115.401 227.005 104.603C224.477 102.034 219.262 103 216 103L187 103L133 103C124.893 103 114.837 101.413 107 103.637C94.0876 107.302 80.3888 116.761 70 125M374 117L389 148C397.973 142.814 412.095 132.188 417 123L390.015 119.343L382.039 121.113L374 117M362 120L335 148L366 158L360.571 138L362 120M368 122C366.616 132.938 364.615 142.729 370 153L374 151C371.978 157.991 377.178 160.56 383 163C385.828 151.49 379.267 127.76 368 122M65 130C57.7187 139.09 59.9951 152.005 60 163C60.002 167.365 59.7454 174.734 66.0046 174.923C69.5734 175.03 73.1738 171.235 76 169.436C83.3394 164.763 90.9602 160.347 99 157C93.7531 146.668 75.018 135.708 65 130M278 136L295 158L316 137L278 136M72 179L72 181L105 204.297L145 205L234 205L234 159L147 159C134.463 159 118.077 156.21 106 159.637C94.0597 163.026 81.9674 171.862 72 179M367 166C360.781 182.122 354.743 206.357 373 217L382 170L367 166M511 175L493 195L516 203L511 175M356 176L330 204L361 215L355.004 195L356 176M463 177L446 196L468 204C467.837 196.09 467.099 183.831 463 177M59 179L59 183L62 180L59 179M419 181L401 201L424 209L419 181M98 208C91.81 200.505 81.8146 194.922 74 189.127C71.3527 187.164 67.7774 183.706 64.5324 186.427C56.1434 193.461 57.9957 207.448 58 217C58.0016 220.581 57.2431 227.047 62.0586 227.979C65.8978 228.722 70.088 224.296 73 222.355C81.0216 217.008 89.6978 212.846 98 208M69 232C73.6801 241.216 95.9865 257.529 106 260.487C117.568 263.904 133.942 261 146 261L234 261L234 211L146 211C133.463 211 117.077 208.21 105 211.637C92.2882 215.245 79.6006 224.408 69 232M280 235L310 325L311 325C323.774 297.998 358.55 275.169 384 261L384 260C355.574 251.993 321.073 240.113 292 242L292 238L280 235M58 290C71.0685 280.803 83.1668 268.657 99 264C91.488 256.34 81.584 250.55 73 244.127C70.3669 242.156 65.9091 237.505 62.3434 239.737C58.3013 242.267 58.0539 248.818 58.0039 253C57.8564 265.329 58 277.67 58 290z"/>
</svg>
