<?xml version="1.0" standalone="no"?>
<!DOCTYPE svg PUBLIC "-//W3C//DTD SVG 20010904//EN"
 "http://www.w3.org/TR/2001/REC-SVG-20010904/DTD/svg10.dtd">
<svg version="1.0" xmlns="http://www.w3.org/2000/svg"
 width="1224.000000pt" height="371.000000pt" viewBox="0 0 1224.000000 371.000000"
 preserveAspectRatio="xMidYMid meet">
<metadata>
Created by potrace 1.16, written by Peter Selinger 2001-2019
</metadata>
<g transform="translate(0.000000,371.000000) scale(0.100000,-0.100000)"
fill="#000000" stroke="none">
<path d="M1355 3453 c-66 -8 -76 -13 -73 -35 2 -15 18 -26 58 -41 113 -42 253
-225 409 -538 144 -286 132 -217 129 -737 l-3 -447 -324 420 c-178 231 -337
436 -352 456 -27 34 -32 57 -76 343 -26 168 -50 305 -54 304 -22 -9 -407 -443
-422 -476 -15 -33 4 -49 38 -34 65 30 193 -3 357 -91 l98 -52 370 -480 370
-480 0 -370 c0 -362 0 -369 -19 -350 -10 11 -196 239 -413 506 l-395 486 -53
329 -53 329 -170 -175 c-171 -176 -317 -337 -317 -349 0 -3 4 -13 10 -21 7
-12 14 -12 43 -2 79 28 202 -2 400 -98 l105 -51 422 -519 c232 -286 426 -517
431 -514 5 3 9 -90 9 -210 l0 -216 25 0 25 0 0 1123 1 1122 288 420 288 420
-51 7 c-106 13 -1021 31 -1101 21z m1028 -71 l27 -7 -249 -363 c-137 -200
-252 -364 -255 -365 -3 -1 -34 59 -69 133 -120 257 -234 438 -350 554 l-68 69
468 -6 c257 -4 480 -11 496 -15z m-1307 -539 c18 -120 34 -223 34 -228 0 -6
-35 6 -77 27 -93 45 -222 88 -264 88 -17 0 -29 4 -27 10 5 15 291 330 295 326
3 -2 20 -103 39 -223z m-120 -724 c22 -137 39 -249 39 -249 -1 0 -44 20 -96
44 -117 54 -217 87 -287 95 l-54 6 173 183 c94 100 175 180 178 176 3 -3 24
-118 47 -255z"/>
<path d="M10200 3423 c-36 -2 -75 -5 -87 -8 -33 -8 -30 -43 5 -56 76 -30 118
-58 168 -112 99 -110 222 -316 340 -567 l59 -125 3 -322 3 -323 -386 0 -385 0
-372 240 -373 239 -6 -82 c-4 -45 -10 -266 -14 -492 -6 -363 -5 -412 8 -430
20 -26 48 -11 59 31 25 98 276 263 613 404 l97 40 379 0 379 0 0 -775 0 -775
25 0 25 0 0 775 0 775 570 0 570 0 0 25 0 25 -570 0 -570 0 0 319 0 318 290
424 291 424 -78 6 c-43 4 -211 10 -373 13 -162 3 -365 8 -450 10 -85 1 -184 1
-220 -1z m763 -62 c136 -5 250 -11 253 -14 5 -5 -300 -457 -454 -675 l-44 -63
-98 198 c-118 238 -215 389 -313 489 l-73 74 241 0 c132 -1 352 -5 488 -9z
m-1232 -1531 c-222 -98 -375 -189 -475 -281 l-59 -54 7 310 c3 171 9 351 12
401 l7 91 318 -205 319 -205 -129 -57z"/>
<path d="M4367 3411 c-88 -7 -112 -24 -76 -53 12 -10 29 -18 38 -18 55 0 186
-138 290 -303 65 -105 183 -335 174 -340 -15 -9 -1580 -457 -1596 -457 -9 0
-211 47 -448 105 -238 58 -434 103 -436 101 -6 -5 -10 2 163 -312 l144 -262
-96 -203 c-127 -269 -258 -562 -278 -623 -13 -37 -14 -52 -5 -62 17 -20 26
-18 55 15 75 85 316 131 674 131 l165 -1 870 -377 870 -377 3 -37 c3 -30 7
-38 23 -38 10 0 19 -5 19 -11 0 -6 9 -9 21 -7 15 2 25 17 38 54 39 115 176
245 406 384 l83 50 656 0 656 0 0 -240 0 -240 25 0 25 0 2 1123 c1 617 5 1003
8 857 3 -146 7 -266 8 -267 1 -2 11 -3 22 -3 14 0 22 11 30 43 31 117 175 255
423 406 l67 41 675 0 675 0 0 -825 0 -825 -678 0 -677 0 -260 240 c-143 131
-263 239 -266 240 -9 0 -19 -384 -19 -715 0 -248 2 -294 15 -305 18 -15 45 2
45 29 1 92 181 267 421 412 l82 49 669 0 668 0 0 -265 0 -265 25 0 25 0 0
1120 0 1120 290 423 289 422 -52 7 c-85 10 -1000 30 -1074 23 -94 -9 -105 -13
-101 -37 2 -14 19 -26 54 -39 125 -47 255 -218 425 -559 42 -85 80 -165 83
-177 l7 -23 -660 0 -661 0 -165 152 c-91 84 -165 155 -165 159 0 4 79 123 176
264 97 141 174 258 172 261 -20 19 -1174 32 -1209 14 -27 -15 -24 -39 9 -51
77 -31 98 -44 149 -92 71 -67 188 -244 281 -424 39 -77 72 -144 72 -147 0 -3
-288 -6 -640 -6 l-640 0 -123 112 c-67 61 -123 114 -125 118 -1 3 71 114 161
246 l164 239 -76 7 c-42 3 -211 9 -376 12 -165 3 -370 8 -455 10 -85 2 -190 1
-233 -3z m991 -70 l53 -6 -130 -189 c-72 -104 -134 -193 -138 -197 -4 -4 -62
41 -128 101 l-120 110 -6 -138 c-4 -75 -7 -174 -8 -218 -2 -129 -17 -121 -105
54 -95 187 -200 345 -288 435 l-69 70 443 -7 c244 -5 467 -11 496 -15z m1893
-9 l66 -7 -144 -210 c-79 -115 -148 -214 -153 -219 -6 -6 -39 19 -87 65 l-78
74 -6 -160 c-4 -88 -7 -180 -8 -205 -2 -53 -26 -94 -41 -70 -5 8 -10 27 -10
43 0 15 -4 27 -10 27 -5 0 -34 51 -64 113 -115 236 -225 405 -333 508 l-65 62
434 -7 c238 -4 463 -11 499 -14z m1796 -21 c117 -4 215 -10 218 -13 3 -3 -107
-170 -246 -372 l-251 -367 -98 198 c-118 238 -215 389 -313 489 l-73 74 276
-1 c151 0 370 -4 487 -8z m-3945 -426 c-40 -63 -167 -243 -170 -241 -2 2 0 94
4 204 l7 201 83 -77 c47 -43 80 -81 76 -87z m1840 -107 l-42 -63 0 105 0 105
42 -42 41 -42 -41 -63z m-1657 -45 c47 -42 85 -80 85 -84 0 -4 -30 -25 -67
-47 -38 -23 -106 -70 -153 -105 -60 -46 -89 -63 -100 -57 -8 5 -37 31 -64 59
l-50 51 105 154 104 153 28 -23 c15 -13 66 -58 112 -101z m1896 -69 c82 -76
149 -140 149 -143 0 -4 -26 -22 -57 -41 -101 -61 -247 -176 -316 -249 l-67
-71 0 226 0 226 65 94 c37 52 68 94 71 94 3 0 73 -61 155 -136z m-2328 -87
l27 -66 -2 -1040 -3 -1040 -520 225 c-286 124 -677 293 -869 376 l-348 151
-154 231 c-126 189 -154 237 -154 266 1 76 77 195 223 347 166 172 76 136 965
393 433 125 792 227 797 225 6 -1 22 -31 38 -68z m1906 -8 c19 -48 21 -70 21
-275 l0 -224 -664 0 -663 0 -176 162 -177 161 66 51 c36 28 109 79 162 113
l97 62 656 1 656 0 22 -51z m-1762 -206 l-27 -28 0 55 0 55 27 -28 28 -27 -28
-27z m-2210 -80 l362 -87 -118 -121 c-126 -129 -214 -245 -233 -307 -6 -21
-15 -38 -19 -38 -15 0 -123 182 -313 528 -58 107 -61 112 -48 112 4 0 170 -39
369 -87z m2610 -236 c4 -6 1 -13 -5 -15 -23 -7 -208 -135 -260 -179 -28 -24
-56 -43 -61 -41 -4 2 -31 24 -60 50 l-51 46 0 144 c0 78 5 159 10 179 6 20 29
57 51 83 l41 46 164 -151 c90 -83 167 -156 171 -162z m1383 -317 l0 -280 -660
0 -661 0 -167 153 c-92 85 -167 160 -167 168 0 17 131 117 246 188 l83 51 663
0 663 0 0 -280z m-1750 40 c0 -3 -13 -21 -30 -40 l-29 -35 -1 69 0 70 30 -29
c17 -16 30 -31 30 -35z m-2315 -59 c32 -52 66 -102 75 -111 18 -18 268 -384
276 -404 4 -11 -36 -14 -208 -19 -229 -6 -359 -23 -468 -63 -35 -13 -66 -22
-67 -20 -4 4 97 233 202 456 93 199 125 263 129 258 2 -1 29 -45 61 -97z
m2522 -126 c87 -80 158 -150 158 -154 0 -5 -47 -40 -105 -78 -58 -38 -132 -92
-165 -120 l-61 -50 -53 47 -53 47 4 149 c3 129 7 155 26 191 19 37 78 113 87
113 2 0 75 -65 162 -145z m1543 -475 l0 -290 -662 0 -663 1 -115 106 c-63 59
-143 133 -178 164 l-62 58 96 75 c53 41 135 97 182 125 l86 51 658 0 658 0 0
-290z m374 -125 c96 -88 175 -163 175 -167 1 -4 -38 -32 -86 -63 -121 -79
-265 -197 -313 -257 l-40 -51 0 170 c0 93 3 265 7 381 l6 211 38 -32 c21 -18
116 -104 213 -192z m-2137 173 c9 -10 4 -21 -18 -46 l-29 -32 0 55 c0 51 2 55
18 46 10 -5 24 -16 29 -23z m250 -232 l140 -129 -116 -77 c-144 -96 -238 -174
-292 -242 l-41 -52 4 264 c4 289 5 293 67 378 l32 43 33 -28 c18 -15 96 -86
173 -157z"/>
</g>
</svg>
