<?xml version="1.0" standalone="no"?>
<!DOCTYPE svg PUBLIC "-//W3C//DTD SVG 20010904//EN"
 "http://www.w3.org/TR/2001/REC-SVG-20010904/DTD/svg10.dtd">
<svg version="1.0" xmlns="http://www.w3.org/2000/svg"
 width="687.000000pt" height="371.000000pt" viewBox="0 0 687.000000 371.000000"
 preserveAspectRatio="xMidYMid meet">
<metadata>
Created by potrace 1.16, written by Peter Selinger 2001-2019
</metadata>
<g transform="translate(0.000000,371.000000) scale(0.100000,-0.100000)"
fill="#000000" stroke="none">
<path d="M2644 3462 c-365 -573 -559 -890 -615 -1005 -26 -52 -31 -71 -23 -84
17 -28 31 -26 72 11 22 20 65 47 97 61 181 80 668 151 1175 171 l165 6 1440
-347 c792 -191 1446 -350 1453 -354 7 -4 -558 -141 -1255 -304 -698 -164
-1278 -300 -1290 -303 -22 -6 -23 -4 -23 63 l0 69 156 213 c86 117 153 215
149 219 -8 9 -1086 16 -1120 8 -38 -10 -33 -42 9 -56 65 -21 152 -133 240
-307 45 -91 46 -95 46 -188 0 -52 -2 -95 -4 -95 -3 0 -254 65 -558 145 -304
80 -554 145 -557 145 -9 0 30 -728 55 -995 17 -195 26 -241 49 -264 15 -15 18
-14 36 8 10 13 19 32 19 44 0 78 212 279 505 480 125 85 434 277 447 277 4 0
8 -169 8 -375 l0 -375 25 0 25 0 0 395 0 395 50 25 c37 19 322 95 356 95 2 0
5 -204 6 -452 l3 -453 25 0 25 0 3 461 2 462 23 4 c12 3 624 146 1360 318
1283 301 1337 315 1337 336 0 13 -8 25 -17 28 -10 3 -699 169 -1532 370
l-1515 365 -55 54 c-80 77 -720 685 -756 719 -28 25 -31 26 -41 10z m421 -442
c193 -184 352 -338 353 -342 2 -4 -20 -8 -50 -8 -76 0 -430 -27 -588 -46 -282
-32 -517 -83 -627 -134 l-63 -29 21 41 c31 60 212 356 394 645 l160 252 25
-23 c14 -12 183 -173 375 -356z m386 -1186 c39 -4 75 -14 89 -24 l23 -18 -39
-53 c-21 -30 -70 -96 -107 -147 l-69 -94 -43 81 c-48 88 -90 154 -142 219
l-34 42 128 0 c70 0 158 -3 194 -6z m597 -9 c3 -3 -204 -292 -228 -319 -5 -5
-24 23 -43 61 -20 38 -60 106 -90 151 -51 77 -54 82 -39 103 15 22 17 22 206
15 105 -4 192 -9 194 -11z m-401 -137 c22 -35 62 -103 87 -153 43 -83 46 -94
46 -165 l0 -75 -178 -42 c-98 -23 -190 -39 -205 -36 l-27 5 0 109 0 109 113
155 c61 85 114 155 117 155 3 0 24 -28 47 -62z m-859 -364 c284 -74 521 -139
526 -144 17 -17 -2 -37 -76 -80 -443 -261 -794 -528 -888 -677 -17 -26 -30
-42 -30 -35 0 6 -7 85 -15 174 -8 90 -21 291 -29 448 -9 157 -18 322 -21 368
-3 55 -2 82 6 82 6 0 243 -61 527 -136z"/>
<path d="M398 3462 c-55 -4 -76 -22 -53 -46 9 -9 27 -16 40 -16 67 0 224 -152
344 -332 l61 -91 0 -484 0 -483 -218 0 c-219 0 -247 -4 -235 -36 2 -7 28 -20
56 -28 95 -28 200 -131 336 -331 l61 -89 0 -170 0 -170 -38 37 -39 38 -6 -113
c-4 -62 -7 -242 -7 -399 0 -251 2 -288 16 -300 14 -11 18 -10 30 6 8 10 14 25
14 33 0 7 6 23 12 35 11 19 14 5 18 -93 5 -115 5 -115 30 -115 l25 0 3 150 c2
138 4 151 25 173 25 27 150 116 218 155 l46 27 366 0 367 0 0 -255 0 -255 25
0 25 0 0 255 0 254 148 3 147 3 0 25 0 25 -147 3 -148 3 0 322 1 322 228 235
229 235 -106 6 c-59 4 -162 7 -229 8 l-123 1 0 483 0 482 230 236 230 237
-133 6 c-224 9 -719 14 -777 7 -64 -7 -81 -33 -33 -52 133 -51 236 -147 361
-334 l72 -108 0 -478 0 -479 -227 -2 c-227 -3 -228 -3 -231 -25 -3 -17 3 -24
25 -28 114 -24 260 -166 401 -391 l32 -51 0 -316 0 -317 -367 0 -368 0 -142
128 -143 127 0 195 0 196 227 234 226 235 -109 6 c-60 4 -162 7 -226 8 l-118
1 0 484 0 484 225 234 226 233 -83 6 c-95 8 -749 17 -820 11z m726 -61 l59 -6
-178 -182 c-97 -101 -180 -183 -183 -183 -4 0 -34 42 -67 92 -33 50 -103 135
-156 189 l-96 99 281 -1 c154 -1 307 -4 340 -8z m1053 3 l82 -7 -182 -187
-181 -188 -44 67 c-84 125 -167 223 -239 284 l-45 37 263 0 c145 0 301 -3 346
-6z m-1092 -1453 l100 -6 -180 -186 c-133 -137 -183 -182 -190 -173 -5 7 -39
54 -75 105 -36 52 -104 133 -151 181 l-87 88 242 -1 c132 -1 286 -4 341 -8z
m1038 2 l136 -6 -181 -188 -181 -189 -66 98 c-36 53 -109 141 -162 195 l-96
97 207 0 c114 0 268 -3 343 -7z m-1333 -1072 c0 -229 -2 -248 -20 -271 l-20
-25 0 186 c0 250 9 369 26 362 11 -4 14 -53 14 -252z m190 69 c52 -47 96 -89
98 -94 1 -4 -32 -30 -75 -58 -43 -28 -95 -64 -115 -80 l-38 -30 0 187 c0 177
1 187 18 174 9 -8 60 -52 112 -99z"/>
</g>
</svg>
