<?xml version="1.0" standalone="yes"?>
<svg xmlns="http://www.w3.org/2000/svg" width="687" height="371">
<!-- <path style="fill:#ffffff; stroke:none;" d="M0 0L0 371L687 371L687 0L0 0z"/>
--><path style="fill:#000000; stroke:none;" d="M641 179L641 180L608 187.116L543 202.349L433 228.116L384 240C384 216.794 406.183 202.712 416 183C386.747 182.919 357.335 182 328 182C321.004 182 313.995 181.872 307.001 182.005C304.888 182.045 300.636 181.9 300.636 185.015C300.636 188.424 314.354 198.255 316.961 202C327.096 216.561 331 228.541 331 246L248 224.627L219 218C224.694 248.668 222.723 282.787 224.91 314C225.305 319.63 224.433 342.356 231.184 344.248C234.438 345.161 235.603 341.241 236.448 338.995C239.324 331.356 244.957 324.681 251.004 319.285C274.382 298.427 302.488 277.328 331 264L331 338L337 338L337 281C337 275.03 334.871 264.042 339.318 259.39C347.993 250.317 366.669 250.843 378 247L378 338L384 338L384 273L385.028 247.303L404 241.21L455 229.21L657 182L657 177C634.629 168.607 609.216 165.355 586 159.626C532.73 146.479 479.389 133.542 426 120.884C402.665 115.352 375.041 112.531 353 103.146C343.689 99.1812 336.047 88.9666 329 82.0038C316.261 69.4167 302.668 57.6669 290 45C285.373 40.3732 272.854 24.2068 266.093 24.2068C260.727 24.2068 253.926 39.9268 251.308 44C237.527 65.4365 223.92 87.0226 211.011 109C208.31 113.597 196.628 129.053 201.032 134.377C203.011 136.77 206.202 134.32 208 133.036C214.82 128.166 221.967 125.115 230 122.721C259.69 113.872 292.302 112.192 323 110.09C359.803 107.569 394.333 120.164 430 128.349C500.36 144.496 570.138 165.258 641 179M79 170C67.643 169.512 56.4197 168.868 45 169.004C42.1264 169.038 34.8783 168.683 33.7515 172.255C32.6721 175.677 37.9448 176.331 40.0008 177.129C47.3557 179.983 53.6465 186.243 58.8295 192C65.5682 199.484 76.1131 211.026 78.581 221C80.8326 230.1 79 241.637 79 251L71 245C68.5068 264.728 69 286.115 69 306C69 310.595 67.0849 322.898 71.5694 325.914C75.8891 328.818 77.4549 319.376 78 317L79 317L79 340L85 340C85 331.931 82.1672 317.27 86.0278 310.09C88.9946 304.572 96.9172 300.371 102 297.004C124.475 282.113 160.712 289 187 289L187 340L192 340L192 289L222 289L222 283L192 283L192 239C192 233.421 190.476 225.103 193.028 220C202.702 200.652 228.871 190.575 238 171L192 170L192 103L193.028 75L238 26C228.181 23.6622 217.056 25 207 25C192.641 25 178.389 24 164 24C159.989 24 142.026 21.6716 141.176 27.2199C140.613 30.8939 153.281 35.1827 156 37.2392C167.554 45.9794 179.581 60.7011 185.583 74C189.314 82.266 187 95.0681 187 104L187 170C175.661 169.766 164.405 168.868 153 169.004C150.245 169.037 142.955 168.651 141.407 171.58C139.679 174.852 145.022 176.312 147.004 177.089C156.451 180.79 164.072 189.304 170.384 197C176.011 203.862 183.513 212.447 186.301 221C188.246 226.968 187 234.78 187 241L187 283L139 283C132.01 283 122.685 284.608 116 282.436C110.884 280.774 106.948 275.847 103 272.424C97.6963 267.826 89.2188 262.351 86.0278 255.999C82.6634 249.303 83.0528 226.929 85.858 220C88.3988 213.724 95.3232 208.677 100 204C110.425 193.575 122.503 183.062 131 171L85 170L85 102L86.0278 74L100 59L131 26C107.78 21.6893 80.645 24 57 24C52.4605 24 35.5156 21.5177 33.7515 27.1697C32.5969 30.8692 44.5305 34.1357 47 35.9283C59.0541 44.6781 70.0098 58.8576 76.9452 72C81.2879 80.2292 79 92.9075 79 102L79 170z"/>
<path style="fill:#ffffff; stroke:none;" d="M51 30L82 68C92.9158 59.9658 111.284 43.2574 117 31L51 30M158 30L158 31C170.669 40.6526 181.274 54.1222 189 68C201.714 59.0439 216.056 43.6972 225 31L158 30M266 32C248.759 62.9678 223.732 91.1912 210 124C250.102 107.326 297.911 104 341 104L322 84L285 48.9606L266 32M50 175L50 176C63.9139 185.204 72.3989 199.796 82 213L83 213L118 176L50 175M158 175L158 176C170.531 185.548 181.351 199.261 189 213C201.873 203.932 215.939 188.863 225 176L158 175M313 187L334 220L350.844 199L353.289 190.514L342 188L313 187M381 220C390.261 212.351 399.053 198.437 405 188L375 187.09L365.427 189.318L368.283 198L381 220M359 197C350.887 208.927 337.007 220.967 337 236C336.999 239.072 335.954 244.696 338.028 247.258C342.594 252.898 364.032 244.545 370 243.116C372.83 242.438 376.701 241.992 377.682 238.772C381.993 224.629 367.806 208.039 361 197L359 197M226 225L232 332L233 332C245.594 306.717 279.813 287.942 303 273.424C309.953 269.071 316.957 264.811 323.999 260.603C325.967 259.428 330.364 257.737 330.364 254.931C330.364 249.762 310.071 247.163 306 246C279.496 238.427 252.533 232.474 226 225M76 257L75 311C83.3732 304.026 79 280.297 79 270C79 265.097 79.6901 260.614 76 257M85 265L85 301L108 286L85 265z"/>
</svg>
