<?xml version="1.0" standalone="yes"?>
<svg xmlns="http://www.w3.org/2000/svg" width="525" height="371">
<!-- <path style="fill:#ffffff; stroke:none;" d="M0 0L0 371L525 371L525 0L0 0z"/>
--><path style="fill:#000000; stroke:none;" d="M440 78L321 78L286 78L270 77.3966L255 66L255 65L260 59L246 55.9676L221 35L220 57L181 57C177.745 57 169.288 55.5544 167.662 59.3896C166.133 62.9961 179.484 69.517 181.985 72.0146C193.641 83.6547 203.514 100.734 209.648 116C214.495 128.063 211 147.078 211 160L211 260L181 243C181 265.695 180 288.276 180 311C180 315.374 177.652 330.562 182.299 332.824C185.336 334.302 195.042 319.997 198 317.669C212.536 306.232 234.852 294.629 253 290.529C272.782 286.059 297.705 290 318 290L455 290L455 328L461 328L461 185C461 163.208 457.143 137.368 461.275 116C462.626 109.013 468.114 102.114 471.576 96C479.674 81.6982 487.918 67.4383 495.769 53C499.426 46.2747 504.639 39.6331 506 32C481.298 32 456.688 30 432 30C427.618 30 410.396 27.7177 408.752 33.2955C407.509 37.5124 417.421 41.5039 419.826 44.0432C428.991 53.7184 433.844 66.4526 440 78z"/>
<path style="fill:#ffffff; stroke:none;" d="M421 36L421 37C441.094 53.214 447.534 83.6213 458 106L472.421 82L497 38L421 36z"/>
<path style="fill:#000000; stroke:none;" d="M121 132C111.279 132 92.698 135.593 84.0895 130.972C64.7984 120.618 56.4515 92.383 37 82C37 130.27 36 178.657 36 227L36 261C36.0002 263.528 34.8587 271.364 39.0147 271.364C42.8185 271.364 43.4237 264.57 44.4753 262C48.1753 252.956 55.9884 245.618 63 239.09C69.0337 233.471 77.0486 225.379 85 222.703C95.1987 219.27 110.266 222 121 222L121 324L127 324L127 222L201 222L201 216L127 216L127 138L201 138L201 132L127 132C127 99.3408 162.038 73.4679 171 43C146.682 42.9973 122.389 41 98 41C93.9492 41 76.1758 38.6226 75.466 44.1736C75.0166 47.6883 79.7764 49.0679 82.0008 50.6482C87.2396 54.3699 91.2076 59.6051 94.5748 65C106.041 83.371 120.985 109.927 121 132z"/>
<path style="fill:#ffffff; stroke:none;" d="M89 47L124 113L145.85 76L161 48L110 47L89 47M226 47L226 58L238 58L238 57L226 47M183 63L214 110C224.633 99.5313 220 76.9209 220 63L183 63M226 63L225 95L226 95L247 67C242.455 62.359 232.29 63.0173 226 63M225 110L262 81C259.949 78.089 256.15 72.2068 252.09 72.2068C248.664 72.2068 245.892 77.6479 244.127 80C237.88 88.3249 225.777 99.3057 225 110M220 113L219 113C211.938 129.665 217 156.959 217 175L217 239C217 245.61 214.63 257.975 218.028 263.79C220.572 268.144 227.823 270.988 232 273.576C237.809 277.175 244.371 282.684 251 284.501C260.229 287.031 272.45 285 282 285L455 285L455 172L454.674 116L443 83L321 83C305.963 83 281.951 78.4189 268 84.0749C255.713 89.0563 241.832 100.005 233.301 110C230.108 113.74 228.142 122.508 224.456 125.029C219.069 128.714 220 115.2 220 113M42 96L41 169L78 136C71.9453 123.016 53.6806 104.297 42 96z"/>
<path style="fill:#000000; stroke:none;" d="M445 109C431.366 125.799 417.258 142.213 403.611 159C396.969 167.171 389.785 179.57 380.961 185.397C375.026 189.315 362.884 187 356 187L305 187C297.822 187 287.752 188.796 281 186.146C259.253 177.609 243.664 150.891 221 145C221 167.372 220 189.608 220 212C220 216.558 217.653 230.957 221.588 233.953C223.801 235.638 225.784 233.719 226.845 231.852C231.886 222.974 238.508 216.997 247 211.333C256.878 204.745 269.286 196.218 281 193.529C297.45 189.754 318.12 193 335 193C346.698 193 363.934 189.784 375 193.589C387.863 198.011 401.229 213.049 412 221.349C420.853 228.17 429.823 234.9 439 241.279C441.621 243.102 446.174 247.111 449.681 246.044C453.097 245.005 451.029 240.805 449.681 238.999C444.891 232.58 438.258 228.161 434.313 221C421.154 197.108 427.352 165.732 434.721 141C437.184 132.732 447.274 117.198 445 109z"/>
<path style="fill:#ffffff; stroke:none;" d="M121 216L121 138C110.248 138 95.249 135.283 85 138.563C76.5589 141.265 68.5747 149.92 62.0008 155.579C57.7673 159.224 47.2622 167.85 47.331 174C47.3936 179.592 58.2755 188.093 61.9645 192C68.5044 198.926 75.3964 210.664 84 214.972C93.0012 219.48 110.985 216 121 216M428 139C415.081 156.142 393.361 173.254 385 193L429 226C424.736 210.409 419.588 196.619 421.17 180C422.034 170.918 423.456 161.913 425.424 153C426.39 148.629 428.925 143.389 428 139M227 156L225 221C240.592 210.019 255.029 195.465 274 190L274 189L227 156M43 180L41 254L42 254C50.4505 239.31 64.9945 229.323 78 219L78 218L43 180M187 253L185 320L211 302.258L243 287L187 253z"/>
</svg>
