<?xml version="1.0" standalone="no"?>
<!DOCTYPE svg PUBLIC "-//W3C//DTD SVG 20010904//EN"
 "http://www.w3.org/TR/2001/REC-SVG-20010904/DTD/svg10.dtd">
<svg version="1.0" xmlns="http://www.w3.org/2000/svg"
 width="525.000000pt" height="371.000000pt" viewBox="0 0 525.000000 371.000000"
 preserveAspectRatio="xMidYMid meet">
<metadata>
Created by potrace 1.16, written by Peter Selinger 2001-2019
</metadata>
<g transform="translate(0.000000,371.000000) scale(0.100000,-0.100000)"
fill="#000000" stroke="none">
<path d="M4155 3403 c-90 -8 -99 -39 -22 -76 35 -18 66 -44 93 -79 57 -75 151
-238 168 -295 l7 -23 -863 0 -864 0 -63 64 -64 64 22 28 c12 16 19 29 14 30
-4 2 -33 5 -63 9 -54 6 -59 9 -180 121 l-125 115 -3 -113 -3 -113 -242 3
c-158 3 -252 0 -270 -7 -42 -16 -31 -43 23 -60 89 -28 203 -171 330 -413 l60
-115 0 -721 0 -721 -142 89 -143 89 -7 -42 c-9 -61 -22 -798 -14 -830 10 -40
43 -36 61 8 22 50 68 99 144 149 81 54 292 160 417 210 l91 36 1017 0 1016 0
0 -190 0 -190 30 0 30 0 0 1074 0 1074 225 398 224 399 -37 6 c-33 6 -228 13
-662 23 -85 2 -177 2 -205 -1z m637 -61 c91 -4 169 -10 172 -13 4 -3 -80 -160
-186 -348 -106 -187 -195 -338 -199 -333 -3 4 -32 72 -64 152 -92 233 -181
399 -267 503 l-39 47 208 -1 c114 0 283 -4 375 -7z m-2467 -152 l59 -60 -62 0
-62 0 0 60 c0 33 1 60 3 60 1 0 29 -27 62 -60z m-252 -107 l127 -6 0 -202 0
-202 -35 -39 c-19 -21 -34 -33 -35 -26 0 18 -99 197 -158 285 -26 39 -73 99
-105 134 l-59 63 68 0 c38 0 126 -3 197 -7z m385 -18 c21 -16 21 -17 -91 -166
l-112 -149 -3 72 c-2 40 0 115 3 166 l7 92 87 0 c62 0 93 -4 109 -15z m129
-119 l42 -40 -78 -51 c-107 -70 -201 -146 -255 -207 l-46 -50 0 31 c0 25 28
69 131 206 146 195 128 185 206 111z m1872 -140 c17 -41 44 -111 61 -156 l30
-81 0 -855 0 -854 -1025 0 -1025 0 -170 106 -170 105 0 736 c0 720 0 735 20
760 l20 26 0 -59 c0 -33 4 -65 9 -72 14 -23 45 -9 51 23 20 94 135 210 345
344 l80 51 872 0 871 0 31 -74z m-2234 -1836 c110 -67 203 -126 208 -129 4 -4
-30 -22 -75 -40 -194 -79 -386 -188 -467 -264 l-43 -42 6 315 c4 173 9 329 13
347 l5 32 77 -48 c42 -26 166 -103 276 -171z"/>
<path d="M4134 2225 l-319 -386 -508 1 -509 0 -286 209 -287 208 -7 -31 c-4
-17 -10 -211 -13 -431 -6 -343 -5 -403 7 -419 20 -26 47 -14 55 24 15 78 180
207 416 326 l128 64 479 0 c263 0 480 -4 482 -8 6 -15 522 -410 647 -495 57
-40 88 -46 98 -21 4 10 -21 42 -74 97 -132 135 -173 247 -173 468 0 210 46
427 141 662 26 64 46 117 44 117 -1 0 -146 -173 -321 -385z m141 22 c-42 -155
-58 -274 -58 -417 1 -147 21 -250 68 -345 13 -27 23 -50 22 -52 -3 -2 -50 34
-335 253 l-132 102 227 275 c125 152 229 275 230 274 0 -1 -9 -41 -22 -90z
m-1717 -296 c100 -72 182 -134 182 -136 0 -2 -20 -13 -44 -24 -67 -29 -252
-138 -314 -183 -30 -22 -72 -59 -94 -81 l-40 -41 6 304 c4 168 9 320 12 337
l5 33 52 -38 c29 -21 134 -98 235 -171z"/>
<path d="M772 3290 c-35 -15 -23 -40 33 -69 31 -17 67 -48 97 -85 60 -74 179
-308 252 -493 46 -117 56 -152 56 -203 l0 -60 -187 2 -187 3 -224 245 c-123
135 -227 246 -231 248 -22 8 -29 -1843 -8 -1872 20 -28 44 -10 52 40 14 96
147 250 340 394 l80 60 183 0 182 0 0 -515 0 -515 25 0 25 0 0 515 0 515 370
0 370 0 0 25 0 25 -370 0 -370 0 0 390 0 390 370 0 370 0 0 25 0 25 -370 0
-370 0 0 59 c0 59 1 61 225 447 l224 389 -107 6 c-217 13 -807 20 -830 9z
m756 -59 l92 -6 -176 -305 c-96 -168 -182 -316 -191 -328 -14 -23 -17 -19 -72
120 -97 240 -190 408 -274 496 l-42 44 285 -7 c157 -4 327 -10 378 -14z m-904
-689 l166 -184 -91 -70 c-99 -76 -229 -202 -256 -249 -10 -16 -22 -29 -27 -29
-6 0 -7 103 -3 272 4 149 7 319 7 377 0 104 0 105 19 86 10 -11 93 -102 185
-203z m586 -602 l0 -390 -187 0 -188 0 -175 192 c-96 105 -181 200 -188 210
-11 15 -9 24 17 60 50 73 212 222 316 291 39 27 41 27 222 27 l183 0 0 -390z
m-633 -182 c76 -84 156 -172 176 -194 l37 -42 -75 -56 c-104 -78 -210 -179
-263 -251 l-44 -60 6 360 c7 323 10 395 20 395 2 0 66 -69 143 -152z"/>
</g>
</svg>
