<?xml version="1.0" standalone="no"?>
<!DOCTYPE svg PUBLIC "-//W3C//DTD SVG 20010904//EN"
 "http://www.w3.org/TR/2001/REC-SVG-20010904/DTD/svg10.dtd">
<svg version="1.0" xmlns="http://www.w3.org/2000/svg"
 width="851.000000pt" height="371.000000pt" viewBox="0 0 851.000000 371.000000"
 preserveAspectRatio="xMidYMid meet">
<metadata>
Created by potrace 1.16, written by Peter Selinger 2001-2019
</metadata>
<g transform="translate(0.000000,371.000000) scale(0.100000,-0.100000)"
fill="#000000" stroke="none">
<path d="M2960 3451 c-38 -10 -32 -42 11 -63 70 -33 150 -147 235 -338 l43
-95 -472 -3 -472 -2 -136 136 -136 136 -6 -54 c-4 -29 -7 -90 -7 -135 l0 -83
-392 0 -393 0 -388 154 c-213 84 -389 151 -391 147 -2 -3 -9 -135 -16 -292
-10 -226 -10 -297 0 -337 9 -41 9 -110 0 -324 -13 -298 -9 -351 28 -356 15 -2
25 4 34 22 21 47 153 115 335 172 l72 22 3 -81 c3 -80 4 -82 28 -82 25 0 25 1
28 91 l3 92 117 30 c64 17 136 35 160 41 l42 9 0 -116 0 -117 -232 -232 c-128
-128 -230 -234 -228 -236 3 -3 85 -34 182 -69 l177 -64 -209 -215 -208 -216
261 -93 c144 -52 272 -97 285 -102 19 -7 23 -13 18 -36 -12 -56 -66 -403 -66
-422 0 -15 7 -20 25 -20 14 0 25 6 25 13 0 41 72 452 81 463 6 7 8 18 4 24 -4
6 15 149 41 317 l49 306 186 196 c103 108 185 197 184 199 -4 4 -389 77 -491
93 -80 13 -81 14 -71 36 6 13 16 23 24 23 7 0 13 11 13 24 0 14 4 36 10 51 7
17 7 24 0 20 -6 -4 -10 27 -10 84 l0 91 150 0 150 0 0 -135 0 -135 25 0 25 0
0 135 0 135 165 0 165 0 0 -576 0 -577 -119 124 -118 124 -7 -205 c-4 -113 -6
-344 -4 -515 l3 -310 22 -3 c17 -3 24 3 29 25 14 64 27 91 73 155 53 71 171
178 288 258 l71 50 566 0 566 0 0 -235 c0 -226 1 -235 19 -235 11 0 22 4 26
10 3 5 6 507 5 1116 0 1045 1 1107 17 1121 113 89 449 148 963 169 l165 6
1090 -232 c600 -128 1093 -235 1097 -239 4 -3 -208 -51 -470 -105 -262 -55
-580 -120 -705 -146 l-228 -48 -53 67 -54 66 -33 210 c-18 116 -34 212 -36
214 -11 14 -323 -323 -323 -349 0 -24 18 -29 52 -16 37 14 109 -4 217 -55 73
-33 94 -49 129 -94 l42 -54 -72 -15 c-167 -36 -213 -44 -219 -38 -4 4 -39 46
-78 95 l-71 87 -36 217 c-19 120 -36 219 -38 220 -3 4 -243 -250 -291 -307
-46 -55 -38 -74 26 -65 55 8 111 -8 226 -62 64 -29 81 -44 138 -115 36 -45 62
-84 58 -88 -4 -4 -57 -17 -118 -29 -60 -12 -119 -24 -131 -27 -18 -5 -39 17
-130 129 l-109 136 -34 215 c-19 119 -38 215 -41 214 -16 -7 -303 -315 -313
-336 -15 -33 3 -48 41 -34 42 14 109 -2 218 -53 89 -41 92 -44 187 -160 53
-65 94 -122 91 -126 -2 -4 -28 -11 -58 -14 -40 -5 -82 0 -175 21 l-122 28 -94
116 -93 117 -31 194 c-38 237 -39 241 -51 234 -33 -20 -310 -330 -310 -346 0
-25 20 -32 53 -20 34 13 110 -6 218 -55 73 -34 85 -44 148 -123 38 -47 66 -87
62 -89 -4 -1 -135 27 -290 63 -155 36 -288 65 -294 65 -8 0 -11 -15 -10 -42
25 -469 47 -738 66 -796 19 -57 41 -53 72 12 33 70 102 133 265 240 144 95
377 229 388 222 4 -2 52 -61 107 -130 55 -68 103 -125 106 -125 3 -1 14 5 24
13 17 12 12 22 -88 143 l-106 130 87 41 c48 22 107 44 132 47 l45 6 149 -186
c81 -102 152 -185 156 -185 16 0 32 30 23 42 -5 7 -70 87 -143 178 l-133 165
104 22 c57 12 122 25 144 28 l40 6 95 -117 c282 -350 270 -337 291 -319 17 17
12 25 -148 224 -91 113 -170 211 -175 217 -6 8 34 20 136 40 80 15 147 26 149
23 2 -2 91 -112 197 -244 240 -298 213 -270 233 -247 17 18 9 29 -179 261
-107 134 -194 245 -192 247 5 5 1397 294 1416 294 7 0 255 -161 550 -357 679
-453 737 -486 737 -423 0 19 -24 45 -109 115 -127 106 -176 164 -222 260 -108
226 -78 507 91 850 68 138 189 331 271 430 78 96 82 100 64 90 -8 -4 -319
-201 -691 -437 -372 -235 -685 -428 -695 -428 -10 0 -521 108 -1134 239
l-1116 238 -322 272 c-177 150 -326 270 -331 266 -5 -3 -65 -83 -132 -178 -68
-94 -127 -176 -132 -182 -11 -11 201 404 216 422 6 9 5 14 -4 17 -21 7 -607
26 -754 25 -71 -1 -141 -4 -155 -8z m663 -58 c92 -3 167 -9 167 -13 0 -8 -360
-702 -370 -713 -4 -4 -20 27 -35 70 -105 292 -216 525 -291 610 -24 28 -44 55
-44 59 0 6 158 3 573 -13z m620 -363 l254 -215 -121 -7 c-362 -23 -633 -57
-783 -101 -45 -13 -79 -19 -76 -13 23 39 128 191 260 379 l155 217 28 -22 c16
-13 143 -120 283 -238z m-3431 33 c164 -65 298 -121 298 -125 0 -4 -84 -5
-187 -2 -158 5 -191 4 -208 -9 -16 -13 -17 -17 -6 -31 7 -9 19 -16 25 -16 6 0
25 -11 41 -24 l30 -24 -25 -11 c-14 -5 -61 -24 -105 -41 -44 -17 -100 -43
-125 -58 -25 -15 -49 -27 -55 -27 -10 0 -10 93 1 348 4 75 9 137 13 137 3 0
140 -53 303 -117z m1348 -38 l74 -75 -82 0 -82 0 0 38 c0 32 10 112 14 112 1
0 35 -34 76 -75z m5824 -42 c-86 -131 -169 -289 -224 -429 -85 -212 -112 -443
-71 -604 27 -107 66 -188 131 -269 29 -35 46 -60 38 -55 -192 117 -943 627
-930 632 15 5 16 44 1 59 -7 7 149 111 528 352 296 187 540 341 542 341 2 0
-5 -12 -15 -27z m-5964 -378 l0 -295 -165 0 -165 0 0 171 0 171 98 124 97 123
68 1 67 0 0 -295z m309 251 l43 -44 -63 -43 c-35 -23 -96 -71 -137 -107 -99
-86 -102 -83 -102 99 l0 139 108 0 108 0 43 -44z m951 18 c6 -14 10 -27 10
-30 0 -2 -197 -4 -438 -4 l-438 0 -29 30 -29 30 457 0 457 0 10 -26z m-2332 1
c1 -1 -18 -8 -43 -15 -44 -12 -48 -12 -68 9 l-22 22 65 -7 c36 -4 66 -8 68 -9z
m498 2 c7 -1 -19 -39 -56 -84 l-68 -83 -59 88 -60 88 116 -3 c64 -2 121 -5
127 -6z m343 0 c8 -1 -13 -35 -54 -85 l-67 -84 -26 44 c-14 23 -40 62 -59 85
-18 23 -33 43 -33 45 0 4 207 -1 239 -5z m-612 -49 c18 -18 50 -64 72 -103
l41 -70 0 -172 c0 -158 -1 -173 -17 -173 -10 1 -81 25 -158 54 l-140 54 -3
121 -3 122 82 99 c45 55 84 100 88 100 4 0 21 -15 38 -32z m-127 16 c0 -9 -98
-125 -106 -125 -4 0 -17 18 -31 40 -27 46 -32 41 64 71 67 21 73 22 73 14z
m549 -122 l41 -70 0 -171 0 -171 -150 0 -150 0 0 170 0 169 82 102 82 102 27
-31 c15 -16 45 -62 68 -100z m1753 -47 c36 -104 38 -117 38 -237 l0 -128 -496
0 -496 0 -128 122 c-105 99 -127 125 -119 139 11 22 146 131 223 181 l59 38
441 -2 441 -3 37 -110z m-2477 44 c34 -59 35 -62 35 -169 l0 -108 -197 75
c-109 41 -202 79 -207 84 -15 14 32 58 99 92 63 31 201 86 222 87 7 0 28 -27
48 -61z m-169 -254 c109 -41 199 -75 201 -75 2 0 3 -40 3 -88 l0 -89 -116 -38
c-64 -21 -158 -59 -210 -85 -52 -26 -96 -45 -97 -41 -2 3 0 92 4 196 4 105 8
214 8 243 1 28 3 52 5 52 3 0 93 -34 202 -75z m1509 -55 l100 -100 -124 0
-124 0 6 79 c5 74 18 121 35 121 4 0 52 -45 107 -100z m2965 -93 c11 -70 20
-133 20 -141 0 -11 -20 -6 -82 19 -46 19 -100 37 -120 40 l-38 7 96 104 c53
58 98 103 100 101 2 -2 12 -60 24 -130z m-796 -17 c9 -63 19 -123 22 -132 4
-14 -6 -12 -59 12 -36 16 -87 34 -113 41 -27 6 -52 15 -57 18 -4 4 34 51 85
105 63 68 93 94 98 84 4 -7 15 -65 24 -128z m-395 -4 c11 -73 21 -138 21 -145
0 -7 -19 -2 -47 13 -40 20 -85 35 -182 62 -8 3 22 42 80 103 52 55 97 100 100
100 4 1 16 -59 28 -133z m799 -3 c12 -75 20 -139 18 -141 -2 -2 -19 4 -38 14
-18 10 -71 30 -117 45 l-84 27 93 96 c51 53 96 96 100 96 3 0 16 -62 28 -137z
m-3710 31 c51 -20 92 -37 90 -39 -2 -1 -39 -12 -83 -24 -44 -12 -88 -24 -97
-27 -16 -5 -18 2 -18 60 0 36 3 66 8 66 4 0 49 -16 100 -36z m1287 -72 c-6 -5
-41 -31 -80 -57 -38 -27 -89 -67 -111 -87 l-42 -39 -31 27 c-29 24 -31 30 -31
95 l0 69 152 0 c84 0 148 -4 143 -8z m1025 -247 l0 -225 -483 0 -482 0 -128
128 -129 129 54 45 c29 25 87 68 128 97 l75 51 483 0 482 0 0 -225z m-1087
-175 c37 -35 67 -67 67 -70 0 -4 -29 -26 -65 -49 -36 -24 -96 -72 -134 -107
-67 -62 -69 -63 -86 -44 -15 17 -17 38 -13 182 4 163 8 188 46 231 17 19 9 26
185 -143z m1642 65 l280 -65 38 -42 c67 -76 72 -67 -81 -153 -198 -112 -356
-220 -439 -300 l-72 -70 -6 45 c-11 98 -45 572 -45 643 0 13 6 16 23 12 12 -3
148 -34 302 -70z m-2268 -70 l93 -18 -141 -148 c-78 -82 -143 -149 -144 -149
-2 0 -17 44 -34 98 -24 78 -61 163 -119 273 -3 6 90 -9 345 -56z m-484 -35
c-19 -98 -12 -194 21 -265 19 -42 22 -55 11 -55 -14 0 -295 99 -305 107 -2 2
61 69 140 148 79 79 145 143 146 142 1 -1 -5 -36 -13 -77z m162 -68 c64 -154
102 -312 75 -312 -16 0 -70 29 -108 57 -24 18 -31 30 -27 44 5 14 3 17 -9 13
-43 -16 -65 161 -37 291 l13 60 29 -34 c16 -19 44 -73 64 -119z m3050 66 l40
-10 -38 -19 -37 -20 -25 28 c-39 45 -38 46 60 21z m-1015 -308 l0 -250 -488 0
-487 0 -138 138 -139 139 63 57 c35 31 99 81 143 111 l80 55 483 0 483 0 0
-250z m-1145 -151 c72 -72 125 -133 119 -135 -15 -6 -143 -101 -198 -148 l-47
-39 -25 24 -26 24 4 175 c3 120 8 184 18 203 7 15 16 27 19 27 4 0 65 -59 136
-131z m-906 44 c47 -15 87 -27 87 -28 4 -1 -75 -478 -80 -483 -13 -13 -102 56
-130 101 -50 81 -48 242 6 384 11 29 22 53 26 53 3 0 44 -12 91 -27z m-195
-105 c-28 -128 -20 -236 22 -319 13 -27 22 -49 19 -49 -8 0 -309 110 -314 116
-4 4 268 284 277 284 2 0 0 -15 -4 -32z m876 -349 c0 -101 2 -118 17 -123 19
-8 43 17 43 43 0 9 9 31 21 50 l20 34 40 -39 c21 -21 39 -41 39 -44 0 -3 -37
-33 -82 -65 -84 -61 -238 -206 -276 -260 l-21 -30 -1 230 c0 127 3 294 7 372
l6 142 93 -97 93 -97 1 -116z m1370 96 l0 -155 -568 0 -568 0 -49 51 -50 50
56 53 c31 29 91 76 134 105 l77 51 484 0 484 0 0 -155z"/>
</g>
</svg>
