<?xml version="1.0" standalone="yes"?>
<svg xmlns="http://www.w3.org/2000/svg" width="851" height="371">
<path style="fill:#ffffff; stroke:none;" d="M0 0L0 371L851 371L851 0L0 0z"/>
<path style="fill:#000000; stroke:none;" d="M293 26C293.563 33.2898 302.151 36.4966 306.482 42C314.155 51.7495 320.016 64.2998 324 76L261 76L233 75.3966L202 48L202 76L151 76L125 75.4714L45 45C45 62.3576 43 79.6121 43 97C43 112.926 45.1841 127.909 43.2855 144C42.6237 149.609 39.9219 174.023 46.1852 176.338C50.0998 177.785 54.9709 170.349 58.0008 168.468C67.537 162.55 80.1082 158.52 91 156L91 172L97 172C97 167.396 95.4492 159.302 98.0278 155.303C102.007 149.133 122.076 146.932 129 146L129 172L135 172L135 146L164 146L164 172L169 172L169 146L202 146C198.372 158.274 201.047 174.383 201.91 187C202.654 197.864 201 209.063 201 220C201 232.83 202.621 245.172 201 258L178 235C177.928 260.938 176 287.05 176 313C176 318.006 173.468 335.745 178.58 338.673C182.865 341.126 185.233 329.315 186.529 327C193.753 314.088 207.105 304.066 219 295.721C230.588 287.591 244.384 290 258 290L338 290L338 337L344 337L344 174L344 131C344 126.135 342.546 118.428 345.603 114.301C350.226 108.06 359.899 105.863 367 104.13C385.635 99.5812 404.95 98.2162 424 96.9105C434.715 96.176 446.282 94.0989 457 95.1705C486.27 98.0972 516.211 107.668 545 113.789C588.432 123.025 633.261 129.985 676 142L676 143C642.477 144.443 606.924 157.004 574 163.6C565.318 165.34 556.668 167.202 548 168.997C544.882 169.642 540.338 171.389 537.289 169.883C522.055 162.356 521.155 129.618 520 115C507.173 120.982 494.169 138.638 486 150L480 116L478 116C470.862 125.368 461.672 133.202 453.834 142C451.668 144.431 446.323 148.709 447.712 152.562C448.651 155.168 461.68 154.517 465 155.698C479.235 160.763 486.058 169.205 496 180L468 186C463.411 175.703 453.11 168.932 447.899 159C441.8 147.376 441.649 127.982 440 115C429.642 122.296 407.891 140.723 407 154L406 154L400 116C390.224 122.886 381.2 133.907 373.428 143C371.545 145.204 366.2 150.063 368.288 153.393C369.796 155.798 382.534 155.135 386 156.461C398.95 161.414 407.325 168.395 415 180L356 167C356.062 189.354 357.662 212.788 360.285 235C360.786 239.241 360.398 254.8 366.167 255.534C369.598 255.971 378.814 241.031 382 238.3C398.394 224.248 418.168 215.76 436 204L457 231L458 231C463.815 222.251 446.511 207.79 441 201C447.792 199.043 458.677 189.993 465.91 193.893C474.348 198.442 482.011 212.546 487.999 220C489.983 222.47 493.362 228.714 497.026 228.654C503.232 228.554 497.165 220.726 495.799 219C488.338 209.569 480.909 200.06 473 191C479.53 189.31 493.692 183.604 499.961 186.893C509.997 192.158 519.143 209.18 526.2 218C528.678 221.098 532.635 228.483 536.98 228.963C544.702 229.816 535.432 218.531 534.197 217C525.302 205.973 516.795 194.236 507 184C513.498 182.173 527.46 176.75 533.911 179.317C538.933 181.316 542.912 188.958 546.25 193C555.939 204.731 566.417 216.448 575 229L581 226L581 225L541 176C552.707 175.496 564.534 171.693 576 169.4C598.344 164.93 620.744 160.464 643 155.576C653.967 153.167 671.975 145.748 683 147.992C690.142 149.444 698.141 156.969 704 161.141C717.073 170.45 730.647 179.098 744 188C760.228 198.819 776.467 209.602 793 219.95C796.411 222.085 807.078 230.458 811.214 226.957C815.654 223.198 805.268 216.125 803 214.25C788.693 202.423 776.896 189.912 773.463 171C767.438 137.81 785.676 102.749 803.515 76C809.496 67.0329 818.643 58.776 823 49C810.329 53.7957 798.435 63.6943 787 70.9468L719 114.053C708.66 120.612 694.955 133.423 683 136.124C677.525 137.361 669.393 134.121 664 132.881C651.393 129.983 638.685 127.338 626 124.8C587.572 117.113 549.333 108.362 511 100.211C495.256 96.8628 471.942 96.181 458 88.1574C441.515 78.6705 426.428 62.269 412 49.8696C407.264 45.7992 400.151 37.0612 394.039 35.4962C390.628 34.6224 388.333 38.7325 386.63 41.0008C381.183 48.2539 374.898 55.797 371 64L370 64L388 27C357.144 27 323.57 20.3248 293 26z"/>
<path style="fill:#ffffff; stroke:none;" d="M306 31C321.239 53.3084 334.831 78.3327 341 105L342 105L379 33C355.66 28.667 329.717 31 306 31M352 102C384.087 94.5768 415.96 90 449 90L408 54.5756L393.174 44.4614L381.291 59L352 102M51 53L49 102L79 88C77.3192 85.8709 71.2066 82.7353 71.2068 80.0154C71.2071 76.3322 77.7328 77.0047 80 77L110 77L110 76L51 53M208 62L208 76L222 76L208 62M369 64L370 65L369 64M368 66L369 67L368 66M798 71L732 113.053L692 138L692 146L783 206C779.113 197.266 772.746 190.384 769.746 181C762.504 158.343 768.367 132.25 777.427 111C781.254 102.026 785.634 93.3979 790.603 85C793.1 80.7811 797.426 75.8769 798 71M169 140L202 140L202 81C187.881 81 173.817 92.5901 169.514 107C166.648 116.598 169 129.997 169 140M207 81C207 85.5461 204.378 106.98 209.318 108.655C212.034 109.576 215.163 106.097 217 104.586C223.183 99.4969 229.665 94.8829 236 90C228.378 79.1887 218.918 81 207 81M237 81C243.103 89.3827 253.682 87 263 87L329 87L327 81L237 81M84 83L85 86L94 84L84 83M121 83L133 99L145 83L121 83M156 83L166 99L168 99L180 83L156 83M113 85L97.5887 106L97 129L129 140C129 122.068 132.901 94.7034 113 85M90 91L94 99L104 87L90 91M150 87L135.564 106L135 140L164 140C164 121.138 167.325 99.7882 150 87M50 111L91 126C91 112.837 90.1903 104.765 84 93C73.1602 95.5089 55.7475 100.827 50 111M338 140C338 127.684 338.933 115.801 335 104C333.995 100.985 333.262 95.9743 330.49 94.0278C324.805 90.0358 308.842 93 302 93C279.11 93 249.094 87.1525 230 101.155C225.968 104.112 217.639 108.836 216.346 114.001C215.535 117.236 219.027 119.98 221.005 122C226.464 127.576 233.278 137.168 241 139.486C250.021 142.194 262.603 140 272 140L338 140M51 118L49 166C58.8735 162.407 67.9262 157.025 78 153.667C81.4537 152.515 87.7538 151.649 89.9722 148.49C92.1019 145.457 91.9754 135.427 89.3966 132.702C82.4749 125.389 60.7417 120.255 51 118M210 121L207 140L231 140C225.894 132.751 218.183 124.647 210 121M515 127L497 147L520 154L515 127M435 128L418 147L440 155L435 128M475 128L457 148L481 156L475 128M378 148L401 156L397 129C389.609 132.449 382.655 141.391 378 148M97 135L97 147L116 143L116 142L97 135M207 146C207 148.328 206.918 150.675 207.019 153.002C207.849 172.063 227.964 150.921 235 147L207 146M338 193L338 148L275 148C265.344 148 253.387 146.096 244 148.419C238.139 149.869 219.207 161.288 219.207 168.001C219.207 170.781 222.184 173.178 224.005 174.91C229.493 180.132 236.889 189.775 244 192.397C251.975 195.337 264.533 193 273 193L338 193M486 151C486.656 159.228 494.923 175.909 504.015 177.593C511.536 178.985 522.524 174.45 530 173C524.038 161.32 511.343 155.69 499 152.903C494.253 151.831 490.257 153.787 486 151M407 154C407.216 160.792 411.102 164.878 415.2 170C426.438 184.049 442.644 191.749 461 187C450.135 165.716 430.861 152.117 407 154M208 167L209 168L208 167M213 172C206.311 182.153 202.445 205.497 210 216L211 216L236 196C231.867 187.138 220.948 177.599 213 172M362 174L367 244L368 244C381.292 225.133 410.946 208.768 432 200C418.133 179.72 384.408 180.312 362 174M415 180L416 181L415 180z"/>
<path style="fill:#000000; stroke:none;" d="M101 250C97.4755 249.971 81.8405 246.983 80.9213 252.263C80.4075 255.215 85.1977 257.016 87.0008 258.414C92.2045 262.449 98.1667 268.608 100.298 275C105.218 289.758 101 312.432 101 328L107 328L107 292L107.603 275L121 259L122 259C125.255 264.227 130.327 269.088 132.298 275C137.129 289.492 133 311.715 133 327L138 327L138 291L139.028 275L161 250L138 249C138 238.492 134.31 219.437 139.028 210C143.729 200.597 154.878 193.699 161 185L100 185C96.8163 185 81.6454 183.113 80.9213 187.263C80.4062 190.215 85.199 192.015 87.0008 193.414C91.8258 197.16 96.6361 202.529 99.4313 208C104.795 218.497 101 238.329 101 250z"/>
<path style="fill:#ffffff; stroke:none;" d="M94 190L105 203L115 191L94 190M126 190L135 202L148 190L126 190M433 191C435.833 195.517 438.137 195.72 443 194L433 191M121 194C116.791 198.209 110.718 202.62 108.028 208C102.99 218.076 107 238.763 107 250L132 249C132 230.434 137.105 207.027 121 194M215 220L215 221C222.643 228.643 232.777 243.628 243 247.397C250.975 250.337 263.533 248 272 248L338 248L338 198L273 198C263.956 198 251.621 195.829 243 198.702C232.543 202.188 222.591 212.414 215 220M210 226C205.591 238.097 204.046 258.944 211 270L236 252C231.851 243.103 218.897 230.149 210 226M183 249L182 321L183 321C189.613 312.079 197.292 304.549 206 297.665C209.075 295.234 216.527 291.783 217.654 287.816C218.744 283.981 213.725 281.276 211 280C210.045 282.344 207.887 291.973 204.245 290.654C198.246 288.482 201.857 273.688 200.682 269C198.907 261.918 188.794 253.084 183 249M216 274L216 275C228.617 287.615 241.082 285 258 285L338 285L338 254L273 254C263.822 254 251.841 251.964 243 254.51C233.059 257.373 223.588 267.372 216 274M94 255L103 267L115 256L94 255M126 255L135 267L148 255L126 255M207 274L208 275L207 274z"/>
</svg>
