<?xml version="1.0" standalone="yes"?>
<svg xmlns="http://www.w3.org/2000/svg" width="485" height="371">
<!-- <path style="fill:#ffffff; stroke:none;" d="M0 0L0 371L485 371L485 0L0 0z"/>
--><path style="fill:#000000; stroke:none;" d="M194 76C187.329 98.6794 172.081 121.628 161.742 143C159.271 148.107 150.034 161.839 152.647 167.547C154.659 171.944 165.094 162.616 168 161.465C183.059 155.499 202.004 155.001 218 155C244.033 154.998 263.759 166.021 287 176.691C311.285 187.841 335.589 198.99 360 209.861C371.061 214.787 383.06 222.872 395 225L395 226L284 226C269.21 226 248.061 229.884 234 225.301C226.313 222.795 218.719 216.424 212 211.997C194.849 200.695 176.851 186.133 158 178L156 228C130.019 213.535 105.767 189.524 78 179C78 204.665 76 230.285 76 256C76 260.166 73.563 279.18 79.1705 280.079C81.9757 280.528 83.0446 276.861 84.0309 274.995C86.8555 269.653 91.2414 265.736 96 262.131C114.18 248.36 135.863 239.198 157 231C153.726 242.078 155.996 256.462 156 268C156.001 270.848 155.034 278.416 159.171 279.079C162.001 279.533 171.797 264.336 175 261.899C191.418 249.404 211.685 239.623 231 232.465C245.085 227.244 266.059 231 281 231L367 231C385.252 231 402.252 229.034 419 237L420 231L429 231L429 226C405.677 226 388.944 216.899 368 207.309C342.366 195.571 316.461 184.362 291 172.255C276.89 165.546 254.669 160.354 243.329 149.61C222.462 129.839 216.213 94.3582 194 76z"/>
<path style="fill:#020000; stroke:none;" d="M195 76L196 77L195 76z"/>
<path style="fill:#0f0f0f; stroke:none;" d="M196 77L197 78L196 77z"/>
<path style="fill:#130000; stroke:none;" d="M193 78L194 79L193 78z"/>
<path style="fill:#3f0000; stroke:none;" d="M197 79L198 80L197 79z"/>
<path style="fill:#150000; stroke:none;" d="M192 80L193 81L192 80z"/>
<path style="fill:#180000; stroke:none;" d="M191 82L192 83L191 82z"/>
<path style="fill:#2f1300; stroke:none;" d="M199 82L200 83L199 82z"/>
<path style="fill:#0f0f0f; stroke:none;" d="M190 83L191 84L190 83M189 85L190 86L189 85z"/>
<path style="fill:#1f1f1f; stroke:none;" d="M201 85L202 86L201 85z"/>
<path style="fill:#010000; stroke:none;" d="M195 86L196 87L195 86z"/>
<path style="fill:#0f0f0f; stroke:none;" d="M188 87L189 88L188 87z"/>
<path style="fill:#ffffff; stroke:none;" d="M195 87L161 158C185.679 149.665 210.242 150 236 150C224.751 129.794 210.965 103.684 195 87z"/>
<path style="fill:#160000; stroke:none;" d="M202 87L203 88L202 87z"/>
<path style="fill:#3f0000; stroke:none;" d="M194 88L195 89L194 88z"/>
<path style="fill:#1f1f1f; stroke:none;" d="M196 88L197 89L196 88z"/>
<path style="fill:#0f0f0f; stroke:none;" d="M203 88L204 89L203 88M187 89L188 90L187 89z"/>
<path style="fill:#3f0000; stroke:none;" d="M193 90L194 91L193 90z"/>
<path style="fill:#230000; stroke:none;" d="M204 90L205 91L204 90z"/>
<path style="fill:#0f0f0f; stroke:none;" d="M186 91L187 92L186 91z"/>
<path style="fill:#1f1f1f; stroke:none;" d="M198 91L199 92L198 91z"/>
<path style="fill:#0f0f0f; stroke:none;" d="M205 91L206 92L205 91z"/>
<path style="fill:#3f0000; stroke:none;" d="M192 92L193 93L192 92z"/>
<path style="fill:#0f0f0f; stroke:none;" d="M185 93L186 94L185 93z"/>
<path style="fill:#3f0000; stroke:none;" d="M206 93L207 94L206 93M191 94L192 95L191 94z"/>
<path style="fill:#2f1800; stroke:none;" d="M200 94L201 95L200 94z"/>
<path style="fill:#0f0f0f; stroke:none;" d="M184 95L185 96L184 95z"/>
<path style="fill:#3f0000; stroke:none;" d="M190 96L191 97L190 96z"/>
<path style="fill:#0f0f0f; stroke:none;" d="M201 96L202 97L201 96z"/>
<path style="fill:#2f1600; stroke:none;" d="M208 96L209 97L208 96z"/>
<path style="fill:#3f0000; stroke:none;" d="M202 97L203 98L202 97z"/>
<path style="fill:#170000; stroke:none;" d="M183 98L184 99L183 98z"/>
<path style="fill:#3f0000; stroke:none;" d="M189 98L190 99L189 98z"/>
<path style="fill:#0f0f0f; stroke:none;" d="M203 99L204 100L203 99z"/>
<path style="fill:#1f1f1f; stroke:none;" d="M210 99L211 100L210 99z"/>
<path style="fill:#150000; stroke:none;" d="M182 100L183 101L182 100z"/>
<path style="fill:#3f0000; stroke:none;" d="M188 100L189 101L188 100z"/>
<path style="fill:#250000; stroke:none;" d="M204 100L205 101L204 100z"/>
<path style="fill:#160000; stroke:none;" d="M211 101L212 102L211 101z"/>
<path style="fill:#150000; stroke:none;" d="M181 102L182 103L181 102z"/>
<path style="fill:#3f0000; stroke:none;" d="M187 102L188 103L187 102z"/>
<path style="fill:#0f0f0f; stroke:none;" d="M205 102L206 103L205 102M212 102L213 103L212 102z"/>
<path style="fill:#150000; stroke:none;" d="M180 104L181 105L180 104z"/>
<path style="fill:#3f0000; stroke:none;" d="M186 104L187 105L186 104z"/>
<path style="fill:#230000; stroke:none;" d="M213 104L214 105L213 104z"/>
<path style="fill:#1f1f1f; stroke:none;" d="M207 105L208 106L207 105z"/>
<path style="fill:#0f0f0f; stroke:none;" d="M214 105L215 106L214 105z"/>
<path style="fill:#150000; stroke:none;" d="M179 106L180 107L179 106z"/>
<path style="fill:#3f0000; stroke:none;" d="M185 106L186 107L185 106M215 107L216 108L215 107z"/>
<path style="fill:#150000; stroke:none;" d="M178 108L179 109L178 108z"/>
<path style="fill:#3f0000; stroke:none;" d="M184 108L185 109L184 108z"/>
<path style="fill:#2f1800; stroke:none;" d="M209 108L210 109L209 108z"/>
<path style="fill:#150000; stroke:none;" d="M177 110L178 111L177 110z"/>
<path style="fill:#3f0000; stroke:none;" d="M183 110L184 111L183 110z"/>
<path style="fill:#0f0f0f; stroke:none;" d="M210 110L211 111L210 110z"/>
<path style="fill:#2f1700; stroke:none;" d="M217 110L218 111L217 110z"/>
<path style="fill:#3f0000; stroke:none;" d="M211 111L212 112L211 111z"/>
<path style="fill:#150000; stroke:none;" d="M176 112L177 113L176 112z"/>
<path style="fill:#3f0000; stroke:none;" d="M182 112L183 113L182 112z"/>
<path style="fill:#0f0f0f; stroke:none;" d="M212 113L213 114L212 113z"/>
<path style="fill:#1f1f1f; stroke:none;" d="M219 113L220 114L219 113z"/>
<path style="fill:#150000; stroke:none;" d="M175 114L176 115L175 114M181 114L182 115L181 114z"/>
<path style="fill:#250000; stroke:none;" d="M213 114L214 115L213 114z"/>
<path style="fill:#140000; stroke:none;" d="M174 116L175 117L174 116z"/>
<path style="fill:#150000; stroke:none;" d="M180 116L181 117L180 116z"/>
<path style="fill:#0f0f0f; stroke:none;" d="M214 116L215 117L214 116M221 116L222 117L221 116z"/>
<path style="fill:#3f0000; stroke:none;" d="M173 118L174 119L173 118z"/>
<path style="fill:#150000; stroke:none;" d="M179 118L180 119L179 118z"/>
<path style="fill:#250000; stroke:none;" d="M222 118L223 119L222 118z"/>
<path style="fill:#1f1f1f; stroke:none;" d="M216 119L217 120L216 119z"/>
<path style="fill:#0f0f0f; stroke:none;" d="M223 119L224 120L223 119z"/>
<path style="fill:#3f0000; stroke:none;" d="M172 120L173 121L172 120z"/>
<path style="fill:#150000; stroke:none;" d="M178 120L179 121L178 120z"/>
<path style="fill:#3f0000; stroke:none;" d="M224 121L225 122L224 121M171 122L172 123L171 122z"/>
<path style="fill:#150000; stroke:none;" d="M177 122L178 123L177 122z"/>
<path style="fill:#2f1600; stroke:none;" d="M218 122L219 123L218 122z"/>
<path style="fill:#0f0f0f; stroke:none;" d="M225 122L226 123L225 122z"/>
<path style="fill:#3f0000; stroke:none;" d="M170 124L171 125L170 124z"/>
<path style="fill:#170000; stroke:none;" d="M176 124L177 125L176 124z"/>
<path style="fill:#2f1800; stroke:none;" d="M226 124L227 125L226 124z"/>
<path style="fill:#3f0000; stroke:none;" d="M220 125L221 126L220 125M169 126L170 127L169 126z"/>
<path style="fill:#0f0f0f; stroke:none;" d="M175 127L176 128L175 127M221 127L222 128L221 127z"/>
<path style="fill:#1f1f1f; stroke:none;" d="M228 127L229 128L228 127M168 128L169 129L168 128z"/>
<path style="fill:#230000; stroke:none;" d="M222 128L223 129L222 128z"/>
<path style="fill:#0f0f0f; stroke:none;" d="M174 129L175 130L174 129z"/>
<path style="fill:#1f1f1f; stroke:none;" d="M167 130L168 131L167 130z"/>
<path style="fill:#0f0f0f; stroke:none;" d="M223 130L224 131L223 130M230 130L231 131L230 130M173 131L174 132L173 131z"/>
<path style="fill:#160000; stroke:none;" d="M224 131L225 132L224 131z"/>
<path style="fill:#1f1f1f; stroke:none;" d="M166 132L167 133L166 132z"/>
<path style="fill:#250000; stroke:none;" d="M231 132L232 133L231 132z"/>
<path style="fill:#1f1f1f; stroke:none;" d="M172 133L173 134L172 133M225 133L226 134L225 133z"/>
<path style="fill:#0f0f0f; stroke:none;" d="M232 133L233 134L232 133M165 134L166 135L165 134z"/>
<path style="fill:#1f1f1f; stroke:none;" d="M171 135L172 136L171 135z"/>
<path style="fill:#3f0000; stroke:none;" d="M233 135L234 136L233 135z"/>
<path style="fill:#0f0f0f; stroke:none;" d="M164 136L165 137L164 136z"/>
<path style="fill:#2f1600; stroke:none;" d="M227 136L228 137L227 136z"/>
<path style="fill:#0f0f0f; stroke:none;" d="M234 136L235 137L234 136z"/>
<path style="fill:#1f1f1f; stroke:none;" d="M170 137L171 138L170 137z"/>
<path style="fill:#0f0f0f; stroke:none;" d="M163 138L164 139L163 138z"/>
<path style="fill:#2f1a00; stroke:none;" d="M235 138L236 139L235 138z"/>
<path style="fill:#180000; stroke:none;" d="M163 139L164 140L163 139z"/>
<path style="fill:#3f0000; stroke:none;" d="M169 139L170 140L169 139M229 139L230 140L229 139z"/>
<path style="fill:#150000; stroke:none;" d="M162 141L163 142L162 141z"/>
<path style="fill:#3f0000; stroke:none;" d="M168 141L169 142L168 141z"/>
<path style="fill:#0f0f0f; stroke:none;" d="M230 141L231 142L230 141z"/>
<path style="fill:#1f1f1f; stroke:none;" d="M237 141L238 142L237 141z"/>
<path style="fill:#3f0000; stroke:none;" d="M231 142L232 143L231 142z"/>
<path style="fill:#230000; stroke:none;" d="M161 143L162 144L161 143M167 143L168 144L167 143z"/>
<path style="fill:#0f0f0f; stroke:none;" d="M232 144L233 145L232 144z"/>
<path style="fill:#1f1f1f; stroke:none;" d="M239 144L240 145L239 144z"/>
<path style="fill:#3f0000; stroke:none;" d="M160 145L161 146L160 145z"/>
<path style="fill:#150000; stroke:none;" d="M166 145L167 146L166 145z"/>
<path style="fill:#280000; stroke:none;" d="M233 145L234 146L233 145z"/>
<path style="fill:#260000; stroke:none;" d="M240 146L241 147L240 146z"/>
<path style="fill:#1f1f1f; stroke:none;" d="M159 147L160 148L159 147z"/>
<path style="fill:#180000; stroke:none;" d="M165 147L166 148L165 147z"/>
<path style="fill:#1f1f1f; stroke:none;" d="M234 147L235 148L234 147z"/>
<path style="fill:#0f0f0f; stroke:none;" d="M241 147L242 148L241 147M165 148L166 149L165 148z"/>
<path style="fill:#1f1f1f; stroke:none;" d="M158 149L159 150L158 149z"/>
<path style="fill:#3f0000; stroke:none;" d="M242 149L243 150L242 149z"/>
<path style="fill:#0f0f0f; stroke:none;" d="M164 150L165 151L164 150z"/>
<path style="fill:#2f0b00; stroke:none;" d="M197 150L198 151L197 150z"/>
<path style="fill:#3f0000; stroke:none;" d="M198 150L198 151L201 151L198 150z"/>
<path style="fill:#2d2d2d; stroke:none;" d="M243 150L244 151L243 150z"/>
<path style="fill:#0f0f0f; stroke:none;" d="M157 151L158 152L157 151z"/>
<path style="fill:#3e0000; stroke:none;" d="M187 151L188 152L187 151z"/>
<path style="fill:#3f0000; stroke:none;" d="M188 151L189 152L188 151M245 151L246 152L245 151z"/>
<path style="fill:#1f1f1f; stroke:none;" d="M163 152L164 153L163 152z"/>
<path style="fill:#2f1100; stroke:none;" d="M180 152L181 153L180 152z"/>
<path style="fill:#130000; stroke:none;" d="M181 152L182 153L181 152z"/>
<path style="fill:#230000; stroke:none;" d="M247 152L248 153L247 152z"/>
<path style="fill:#3f0000; stroke:none;" d="M175 153L176 154L175 153z"/>
<path style="fill:#160000; stroke:none;" d="M249 153L250 154L249 153z"/>
<path style="fill:#130000; stroke:none;" d="M156 154L157 155L156 154z"/>
<path style="fill:#3f0000; stroke:none;" d="M162 154L163 155L162 154M171 154L172 155L171 154z"/>
<path style="fill:#0f0f0f; stroke:none;" d="M252 154L253 155L252 154z"/>
<path style="fill:#1f1f1f; stroke:none;" d="M167 155L168 156L167 155z"/>
<path style="fill:#150000; stroke:none;" d="M168 155L169 156L168 155z"/>
<path style="fill:#3f0000; stroke:none;" d="M207 155L207 156L233 156L207 155z"/>
<path style="fill:#1f1f1f; stroke:none;" d="M254 155L255 156L254 155z"/>
<path style="fill:#3f0000; stroke:none;" d="M155 156L156 157L155 156z"/>
<path style="fill:#4f0000; stroke:none;" d="M161 156L162 157L161 156z"/>
<path style="fill:#120000; stroke:none;" d="M165 156L166 157L165 156z"/>
<path style="fill:#3f0000; stroke:none;" d="M192.667 156.333L193.333 156.667L192.667 156.333z"/>
<path style="fill:#1f1f1f; stroke:none;" d="M194 156L195 157L194 156z"/>
<path style="fill:#0f0f0f; stroke:none;" d="M242 156L243 157L242 156z"/>
<path style="fill:#3f0000; stroke:none;" d="M256 156L257 157L256 156z"/>
<path style="fill:#1f1f1f; stroke:none;" d="M162 157L163 158L162 157z"/>
<path style="fill:#3f0000; stroke:none;" d="M184 157L185 158L184 157z"/>
<path style="fill:#1f1f1f; stroke:none;" d="M185 157L186 158L185 157z"/>
<path style="fill:#140000; stroke:none;" d="M245 157L246 158L245 157z"/>
<path style="fill:#3f0000; stroke:none;" d="M258 157L259 158L258 157z"/>
<path style="fill:#1f1f1f; stroke:none;" d="M154 158L155 159L154 158z"/>
<path style="fill:#180200; stroke:none;" d="M160 158L161 159L160 158z"/>
<path style="fill:#3f0000; stroke:none;" d="M178 158L179 159L178 158z"/>
<path style="fill:#0f0f0f; stroke:none;" d="M179 158L180 159L179 158z"/>
<path style="fill:#3f0000; stroke:none;" d="M247 158L248 159L247 158z"/>
<path style="fill:#150000; stroke:none;" d="M260 158L261 159L260 158z"/>
<path style="fill:#2f1200; stroke:none;" d="M174 159L175 160L174 159z"/>
<path style="fill:#2f1600; stroke:none;" d="M249 159L250 160L249 159z"/>
<path style="fill:#0f0f0f; stroke:none;" d="M263 159L264 160L263 159z"/>
<path style="fill:#200000; stroke:none;" d="M170 160L171 161L170 160z"/>
<path style="fill:#1f1f1f; stroke:none;" d="M251 160L252 161L251 160M265 160L266 161L265 160z"/>
<path style="fill:#200000; stroke:none;" d="M153 161L154 162L153 161z"/>
<path style="fill:#250000; stroke:none;" d="M167 161L168 162L167 161z"/>
<path style="fill:#0f0f0f; stroke:none;" d="M253 161L254 162L253 161z"/>
<path style="fill:#2f1600; stroke:none;" d="M267 161L268 162L267 161z"/>
<path style="fill:#1f1f1f; stroke:none;" d="M165 162L166 163L165 162z"/>
<path style="fill:#150000; stroke:none;" d="M256 162L257 163L256 162z"/>
<path style="fill:#3f0000; stroke:none;" d="M269 162L270 163L269 162z"/>
<path style="fill:#0f0f0f; stroke:none;" d="M152 163L153 164L152 163z"/>
<path style="fill:#1f1f1f; stroke:none;" d="M163 163L164 164L163 163z"/>
<path style="fill:#3f0000; stroke:none;" d="M258 163L259 164L258 163z"/>
<path style="fill:#140000; stroke:none;" d="M271 163L272 164L271 163z"/>
<path style="fill:#2d0000; stroke:none;" d="M161 164L162 165L161 164z"/>
<path style="fill:#2f1600; stroke:none;" d="M260 164L261 165L260 164z"/>
<path style="fill:#0f0f0f; stroke:none;" d="M274 164L275 165L274 164z"/>
<path style="fill:#2f1f01; stroke:none;" d="M160 165L161 166L160 165z"/>
<path style="fill:#1f1f1f; stroke:none;" d="M262 165L263 166L262 165M276 165L277 166L276 165M159 166L160 167L159 166z"/>
<path style="fill:#0f0f0f; stroke:none;" d="M264 166L265 167L264 166z"/>
<path style="fill:#1f1f1f; stroke:none;" d="M278 166L279 167L278 166z"/>
<path style="fill:#3f0000; stroke:none;" d="M158 167L159 168L158 167z"/>
<path style="fill:#160000; stroke:none;" d="M267 167L268 168L267 167z"/>
<path style="fill:#3f0000; stroke:none;" d="M280 167L281 168L280 167z"/>
<path style="fill:#110000; stroke:none;" d="M157 168L158 169L157 168z"/>
<path style="fill:#230000; stroke:none;" d="M269 168L270 169L269 168z"/>
<path style="fill:#140000; stroke:none;" d="M282 168L283 169L282 168z"/>
<path style="fill:#280000; stroke:none;" d="M153 169L154 170L153 169z"/>
<path style="fill:#120000; stroke:none;" d="M156 169L157 170L156 169z"/>
<path style="fill:#3f0000; stroke:none;" d="M271 169L272 170L271 169z"/>
<path style="fill:#180000; stroke:none;" d="M284 169L285 170L284 169z"/>
<path style="fill:#0f0f0f; stroke:none;" d="M285 169L286 170L285 169z"/>
<path style="fill:#1f1f1f; stroke:none;" d="M273 170L274 171L273 170z"/>
<path style="fill:#0f0f0f; stroke:none;" d="M287 170L288 171L287 170M275 171L276 172L275 171z"/>
<path style="fill:#1f1f1f; stroke:none;" d="M289 171L290 172L289 171z"/>
<path style="fill:#0f0f0f; stroke:none;" d="M277 172L278 173L277 172z"/>
<path style="fill:#180000; stroke:none;" d="M278 172L279 173L278 172z"/>
<path style="fill:#3f0000; stroke:none;" d="M291 172L292 173L291 172z"/>
<path style="fill:#120000; stroke:none;" d="M280 173L281 174L280 173M293 173L294 174L293 173z"/>
<path style="fill:#3f0000; stroke:none;" d="M282 174L283 175L282 174z"/>
<path style="fill:#170000; stroke:none;" d="M295 174L296 175L295 174z"/>
<path style="fill:#1f1f1f; stroke:none;" d="M284 175L285 176L284 175z"/>
<path style="fill:#0f0f0f; stroke:none;" d="M298 175L299 176L298 175z"/>
<path style="fill:#1f1f1f; stroke:none;" d="M286 176L287 177L286 176M300 176L301 177L300 176z"/>
<path style="fill:#0f0f0f; stroke:none;" d="M288 177L289 178L288 177z"/>
<path style="fill:#3f0000; stroke:none;" d="M302 177L303 178L302 177z"/>
<path style="fill:#0f0f05; stroke:none;" d="M78 178L79 179L78 178z"/>
<path style="fill:#090000; stroke:none;" d="M159 178L160 179L159 178z"/>
<path style="fill:#140000; stroke:none;" d="M291 178L292 179L291 178z"/>
<path style="fill:#230000; stroke:none;" d="M304 178L305 179L304 178z"/>
<path style="fill:#1f1f1f; stroke:none;" d="M161 179L162 180L161 179z"/>
<path style="fill:#3f0000; stroke:none;" d="M293 179L294 180L293 179z"/>
<path style="fill:#160000; stroke:none;" d="M306 179L307 180L306 179z"/>
<path style="fill:#2f1600; stroke:none;" d="M81 180L82 181L81 180z"/>
<path style="fill:#1f1f1f; stroke:none;" d="M295 180L296 181L295 180z"/>
<path style="fill:#0f0f0f; stroke:none;" d="M309 180L310 181L309 180z"/>
<path style="fill:#1f1f1f; stroke:none;" d="M164 181L165 182L164 181M297 181L298 182L297 181M311 181L312 182L311 181z"/>
<path style="fill:#3f0000; stroke:none;" d="M84 182L85 183L84 182z"/>
<path style="fill:#0f0f0f; stroke:none;" d="M299 182L300 183L299 182z"/>
<path style="fill:#2f1600; stroke:none;" d="M313 182L314 183L313 182z"/>
<path style="fill:#0f0f0f; stroke:none;" d="M86 183L87 184L86 183z"/>
<path style="fill:#2f1a00; stroke:none;" d="M167 183L168 184L167 183z"/>
<path style="fill:#150000; stroke:none;" d="M302 183L303 184L302 183z"/>
<path style="fill:#3f0000; stroke:none;" d="M315 183L316 184L315 183z"/>
<path style="fill:#230000; stroke:none;" d="M87 184L88 185L87 184z"/>
<path style="fill:#0f0f0f; stroke:none;" d="M169 184L170 185L169 184z"/>
<path style="fill:#3f0000; stroke:none;" d="M304 184L305 185L304 184z"/>
<path style="fill:#150000; stroke:none;" d="M317 184L318 185L317 184z"/>
<path style="fill:#0f0f0f; stroke:none;" d="M89 185L90 186L89 185M157 185L158 186L157 185z"/>
<path style="fill:#3f0000; stroke:none;" d="M170 185L171 186L170 185z"/>
<path style="fill:#2f1600; stroke:none;" d="M306 185L307 186L306 185z"/>
<path style="fill:#0f0f0f; stroke:none;" d="M320 185L321 186L320 185z"/>
<path style="fill:#1f1f1f; stroke:none;" d="M77 186L78 187L77 186z"/>
<path style="fill:#160000; stroke:none;" d="M90 186L91 187L90 186z"/>
<path style="fill:#370000; stroke:none;" d="M157 186L158 187L157 186z"/>
<path style="fill:#0f0f0f; stroke:none;" d="M172 186L173 187L172 186z"/>
<path style="fill:#1f1f1f; stroke:none;" d="M308 186L309 187L308 186M322 186L323 187L322 186z"/>
<path style="fill:#3f0000; stroke:none;" d="M77 187L77 193L78 193L77 187z"/>
<path style="fill:#1f1f1f; stroke:none;" d="M92 187L93 188L92 187z"/>
<path style="fill:#3f0000; stroke:none;" d="M157 187L157 192L158 192L157 187z"/>
<path style="fill:#3f3f3f; stroke:none;" d="M163 187L164 188L163 187z"/>
<path style="fill:#280000; stroke:none;" d="M173 187L174 188L173 187z"/>
<path style="fill:#0f0f0f; stroke:none;" d="M310 187L311 188L310 187z"/>
<path style="fill:#1f1f1f; stroke:none;" d="M324 187L325 188L324 187z"/>
<path style="fill:#2f2f2f; stroke:none;" d="M83 188L84 189L83 188z"/>
<path style="fill:#ffffff; stroke:none;" d="M163 188L161 267L162 267C175.262 248.225 204.231 237.057 225 229L225 227C205.424 214.046 184.529 197.289 163 188z"/>
<path style="fill:#0f0f0f; stroke:none;" d="M164 188L165 189L164 188z"/>
<path style="fill:#1f1f1f; stroke:none;" d="M175 188L176 189L175 188z"/>
<path style="fill:#160000; stroke:none;" d="M313 188L314 189L313 188z"/>
<path style="fill:#3f0000; stroke:none;" d="M326 188L327 189L326 188z"/>
<path style="fill:#ffffff; stroke:none;" d="M83 189L81 267C101.511 252.565 120.781 238.244 145 230L145 228C126.035 215.217 104.35 197.092 83 189z"/>
<path style="fill:#2f1700; stroke:none;" d="M95 189L96 190L95 189z"/>
<path style="fill:#3f0000; stroke:none;" d="M166 189L167 190L166 189z"/>
<path style="fill:#230000; stroke:none;" d="M315 189L316 190L315 189z"/>
<path style="fill:#140000; stroke:none;" d="M328 189L329 190L328 189z"/>
<path style="fill:#1f1f1f; stroke:none;" d="M86 190L87 191L86 190z"/>
<path style="fill:#0f0f0f; stroke:none;" d="M97 190L98 191L97 190z"/>
<path style="fill:#2f1300; stroke:none;" d="M178 190L179 191L178 190z"/>
<path style="fill:#3f0000; stroke:none;" d="M317 190L318 191L317 190z"/>
<path style="fill:#180000; stroke:none;" d="M330 190L331 191L330 190z"/>
<path style="fill:#0f0f0f; stroke:none;" d="M331 190L332 191L331 190z"/>
<path style="fill:#3f0000; stroke:none;" d="M98 191L99 192L98 191z"/>
<path style="fill:#2f1300; stroke:none;" d="M169 191L170 192L169 191z"/>
<path style="fill:#1f1f1f; stroke:none;" d="M319 191L320 192L319 191z"/>
<path style="fill:#0f0f0f; stroke:none;" d="M333 191L334 192L333 191M89 192L90 193L89 192M100 192L101 193L100 192z"/>
<path style="fill:#140000; stroke:none;" d="M157 192L158 193L157 192z"/>
<path style="fill:#3f0000; stroke:none;" d="M181 192L182 193L181 192z"/>
<path style="fill:#0f0f0f; stroke:none;" d="M321 192L322 193L321 192z"/>
<path style="fill:#1f1f1f; stroke:none;" d="M335 192L336 193L335 192z"/>
<path style="fill:#250000; stroke:none;" d="M91 193L92 194L91 193M101 193L102 194L101 193z"/>
<path style="fill:#1f1f1f; stroke:none;" d="M172 193L173 194L172 193z"/>
<path style="fill:#0f0f0f; stroke:none;" d="M183 193L184 194L183 193M323 193L324 194L323 193z"/>
<path style="fill:#180000; stroke:none;" d="M324 193L325 194L324 193z"/>
<path style="fill:#3f0000; stroke:none;" d="M337 193L338 194L337 193z"/>
<path style="fill:#0f0f0f; stroke:none;" d="M92 194L93 195L92 194M103 194L104 195L103 194z"/>
<path style="fill:#280000; stroke:none;" d="M174 194L175 195L174 194z"/>
<path style="fill:#3f0000; stroke:none;" d="M184 194L185 195L184 194z"/>
<path style="fill:#120000; stroke:none;" d="M326 194L327 195L326 194M339 194L340 195L339 194z"/>
<path style="fill:#3f0000; stroke:none;" d="M94 195L95 196L94 195z"/>
<path style="fill:#0f0f0f; stroke:none;" d="M175 195L176 196L175 195M186 195L187 196L186 195z"/>
<path style="fill:#3f0000; stroke:none;" d="M328 195L329 196L328 195z"/>
<path style="fill:#170000; stroke:none;" d="M341 195L342 196L341 195z"/>
<path style="fill:#0f0f0f; stroke:none;" d="M95 196L96 197L95 196z"/>
<path style="fill:#1f1f1f; stroke:none;" d="M106 196L107 197L106 196z"/>
<path style="fill:#3f0000; stroke:none;" d="M177 196L178 197L177 196z"/>
<path style="fill:#280000; stroke:none;" d="M187 196L188 197L187 196z"/>
<path style="fill:#1f1f1f; stroke:none;" d="M330 196L331 197L330 196z"/>
<path style="fill:#0f0f0f; stroke:none;" d="M344 196L345 197L344 196z"/>
<path style="fill:#2f1700; stroke:none;" d="M97 197L98 198L97 197z"/>
<path style="fill:#0f0f0f; stroke:none;" d="M178 197L179 198L178 197z"/>
<path style="fill:#1f1f1f; stroke:none;" d="M189 197L190 198L189 197z"/>
<path style="fill:#0f0f0f; stroke:none;" d="M332 197L333 198L332 197z"/>
<path style="fill:#1f1f1f; stroke:none;" d="M346 197L347 198L346 197z"/>
<path style="fill:#2f1800; stroke:none;" d="M109 198L110 199L109 198z"/>
<path style="fill:#2f1a00; stroke:none;" d="M180 198L181 199L180 198z"/>
<path style="fill:#0f0f0f; stroke:none;" d="M334 198L335 199L334 198z"/>
<path style="fill:#3f0000; stroke:none;" d="M348 198L349 199L348 198z"/>
<path style="fill:#1f1f1f; stroke:none;" d="M100 199L101 200L100 199z"/>
<path style="fill:#0f0f0f; stroke:none;" d="M111 199L112 200L111 199z"/>
<path style="fill:#2f1300; stroke:none;" d="M192 199L193 200L192 199z"/>
<path style="fill:#140000; stroke:none;" d="M337 199L338 200L337 199z"/>
<path style="fill:#230000; stroke:none;" d="M350 199L351 200L350 199z"/>
<path style="fill:#160000; stroke:none;" d="M102 200L103 201L102 200z"/>
<path style="fill:#3f0000; stroke:none;" d="M112 200L113 201L112 200M162 200L162 207L163 207L162 200z"/>
<path style="fill:#1f1f1f; stroke:none;" d="M183 200L184 201L183 200z"/>
<path style="fill:#3f0000; stroke:none;" d="M339 200L340 201L339 200z"/>
<path style="fill:#160000; stroke:none;" d="M352 200L353 201L352 200z"/>
<path style="fill:#3f0000; stroke:none;" d="M82 201L82 207L83 207L82 201z"/>
<path style="fill:#0f0f0f; stroke:none;" d="M103 201L104 202L103 201M114 201L115 202L114 201z"/>
<path style="fill:#3f0000; stroke:none;" d="M195 201L196 202L195 201z"/>
<path style="fill:#1f1f1f; stroke:none;" d="M341 201L342 202L341 201z"/>
<path style="fill:#0f0f0f; stroke:none;" d="M355 201L356 202L355 201z"/>
<path style="fill:#230000; stroke:none;" d="M105 202L106 203L105 202z"/>
<path style="fill:#250000; stroke:none;" d="M115 202L116 203L115 202z"/>
<path style="fill:#1f1f1f; stroke:none;" d="M186 202L187 203L186 202z"/>
<path style="fill:#0f0f0f; stroke:none;" d="M197 202L198 203L197 202z"/>
<path style="fill:#1f1f1f; stroke:none;" d="M343 202L344 203L343 202M357 202L358 203L357 202z"/>
<path style="fill:#0f0f0f; stroke:none;" d="M106 203L107 204L106 203z"/>
<path style="fill:#1f1f1f; stroke:none;" d="M117 203L118 204L117 203z"/>
<path style="fill:#260000; stroke:none;" d="M188 203L189 204L188 203z"/>
<path style="fill:#230000; stroke:none;" d="M198 203L199 204L198 203z"/>
<path style="fill:#0f0f0f; stroke:none;" d="M345 203L346 204L345 203z"/>
<path style="fill:#2f1600; stroke:none;" d="M359 203L360 204L359 203z"/>
<path style="fill:#3f0000; stroke:none;" d="M108 204L109 205L108 204z"/>
<path style="fill:#0f0f0f; stroke:none;" d="M189 204L190 205L189 204M200 204L201 205L200 204z"/>
<path style="fill:#150000; stroke:none;" d="M348 204L349 205L348 204z"/>
<path style="fill:#3f0000; stroke:none;" d="M361 204L362 205L361 204z"/>
<path style="fill:#1f1f1f; stroke:none;" d="M120 205L121 206L120 205z"/>
<path style="fill:#3f0000; stroke:none;" d="M191 205L192 206L191 205z"/>
<path style="fill:#160000; stroke:none;" d="M201 205L202 206L201 205z"/>
<path style="fill:#3f0000; stroke:none;" d="M350 205L351 206L350 205z"/>
<path style="fill:#150000; stroke:none;" d="M363 205L364 206L363 205z"/>
<path style="fill:#2f1600; stroke:none;" d="M111 206L112 207L111 206z"/>
<path style="fill:#0f0f0f; stroke:none;" d="M192 206L193 207L192 206z"/>
<path style="fill:#1f1f1f; stroke:none;" d="M203 206L204 207L203 206z"/>
<path style="fill:#2f1600; stroke:none;" d="M352 206L353 207L352 206z"/>
<path style="fill:#0f0f0f; stroke:none;" d="M366 206L367 207L366 206z"/>
<path style="fill:#370000; stroke:none;" d="M82 207L83 208L82 207z"/>
<path style="fill:#2f1a00; stroke:none;" d="M123 207L124 208L123 207z"/>
<path style="fill:#1f1f1f; stroke:none;" d="M162 207L163 208L162 207z"/>
<path style="fill:#2f1a00; stroke:none;" d="M194 207L195 208L194 207z"/>
<path style="fill:#1f1f1f; stroke:none;" d="M354 207L355 208L354 207M368 207L369 208L368 207z"/>
<path style="fill:#0f0f0f; stroke:none;" d="M82 208L83 209L82 208z"/>
<path style="fill:#1f1f1f; stroke:none;" d="M114 208L115 209L114 208z"/>
<path style="fill:#0f0f0f; stroke:none;" d="M125 208L126 209L125 208z"/>
<path style="fill:#2f1600; stroke:none;" d="M206 208L207 209L206 208z"/>
<path style="fill:#0f0f0f; stroke:none;" d="M356 208L357 209L356 208z"/>
<path style="fill:#1f1f1f; stroke:none;" d="M370 208L371 209L370 208z"/>
<path style="fill:#160000; stroke:none;" d="M116 209L117 210L116 209z"/>
<path style="fill:#3f0000; stroke:none;" d="M126 209L127 210L126 209z"/>
<path style="fill:#1f1f1f; stroke:none;" d="M197 209L198 210L197 209z"/>
<path style="fill:#160000; stroke:none;" d="M359 209L360 210L359 209z"/>
<path style="fill:#3f0000; stroke:none;" d="M372 209L373 210L372 209z"/>
<path style="fill:#0f0f0f; stroke:none;" d="M117 210L118 211L117 210M128 210L129 211L128 210z"/>
<path style="fill:#3f0000; stroke:none;" d="M209 210L210 211L209 210z"/>
<path style="fill:#230000; stroke:none;" d="M361 210L362 211L361 210z"/>
<path style="fill:#140000; stroke:none;" d="M374 210L375 211L374 210z"/>
<path style="fill:#3f0000; stroke:none;" d="M119 211L120 212L119 211z"/>
<path style="fill:#260000; stroke:none;" d="M129 211L130 212L129 211z"/>
<path style="fill:#0f0f0f; stroke:none;" d="M200 211L201 212L200 211M211 211L212 212L211 211z"/>
<path style="fill:#3f0000; stroke:none;" d="M363 211L364 212L363 211z"/>
<path style="fill:#0f0f0f; stroke:none;" d="M377 211L378 212L377 211M120 212L121 213L120 212z"/>
<path style="fill:#1f1f1f; stroke:none;" d="M131 212L132 213L131 212z"/>
<path style="fill:#250000; stroke:none;" d="M202 212L203 213L202 212z"/>
<path style="fill:#230000; stroke:none;" d="M212 212L213 213L212 212z"/>
<path style="fill:#1f1f1f; stroke:none;" d="M365 212L366 213L365 212z"/>
<path style="fill:#0f0f0f; stroke:none;" d="M379 212L380 213L379 212z"/>
<path style="fill:#3f0000; stroke:none;" d="M122 213L123 214L122 213z"/>
<path style="fill:#0f0f0f; stroke:none;" d="M203 213L204 214L203 213M214 213L215 214L214 213M367 213L368 214L367 213z"/>
<path style="fill:#1f1f1f; stroke:none;" d="M381 213L382 214L381 213M134 214L135 215L134 214z"/>
<path style="fill:#3f0000; stroke:none;" d="M205 214L206 215L205 214z"/>
<path style="fill:#160000; stroke:none;" d="M215 214L216 215L215 214z"/>
<path style="fill:#0f0f0f; stroke:none;" d="M369 214L370 215L369 214z"/>
<path style="fill:#180000; stroke:none;" d="M370 214L371 215L370 214z"/>
<path style="fill:#3f0000; stroke:none;" d="M383 214L384 215L383 214z"/>
<path style="fill:#2f1300; stroke:none;" d="M125 215L126 216L125 215z"/>
<path style="fill:#2f0b00; stroke:none;" d="M156 215L157 216L156 215z"/>
<path style="fill:#0f0f0f; stroke:none;" d="M206 215L207 216L206 215z"/>
<path style="fill:#1f1f1f; stroke:none;" d="M217 215L218 216L217 215z"/>
<path style="fill:#120000; stroke:none;" d="M372 215L373 216L372 215M385 215L386 216L385 215z"/>
<path style="fill:#300000; stroke:none;" d="M76 216L77 217L76 216z"/>
<path style="fill:#3f0000; stroke:none;" d="M137 216L138 217L137 216M156 216L156 224L157 224L156 216z"/>
<path style="fill:#2f1800; stroke:none;" d="M208 216L209 217L208 216z"/>
<path style="fill:#3f0000; stroke:none;" d="M374 216L375 217L374 216z"/>
<path style="fill:#180000; stroke:none;" d="M387 216L388 217L387 216z"/>
<path style="fill:#0f0f0f; stroke:none;" d="M388 216L389 217L388 216z"/>
<path style="fill:#3f0000; stroke:none;" d="M76 217L76 224L77 224L76 217z"/>
<path style="fill:#1f1f1f; stroke:none;" d="M128 217L129 218L128 217z"/>
<path style="fill:#0f0f0f; stroke:none;" d="M139 217L140 218L139 217z"/>
<path style="fill:#2f1800; stroke:none;" d="M220 217L221 218L220 217z"/>
<path style="fill:#1f1f1f; stroke:none;" d="M376 217L377 218L376 217z"/>
<path style="fill:#0f0f0f; stroke:none;" d="M390 217L391 218L390 217z"/>
<path style="fill:#280000; stroke:none;" d="M130 218L131 219L130 218z"/>
<path style="fill:#3f0000; stroke:none;" d="M140 218L141 219L140 218z"/>
<path style="fill:#1f1f1f; stroke:none;" d="M211 218L212 219L211 218z"/>
<path style="fill:#0f0f0f; stroke:none;" d="M222 218L223 219L222 218M378 218L379 219L378 218z"/>
<path style="fill:#1f1f1f; stroke:none;" d="M392 218L393 219L392 218z"/>
<path style="fill:#0f0f0f; stroke:none;" d="M131 219L132 220L131 219M142 219L143 220L142 219z"/>
<path style="fill:#3f0000; stroke:none;" d="M223 219L224 220L223 219z"/>
<path style="fill:#0f0f0f; stroke:none;" d="M380 219L381 220L380 219z"/>
<path style="fill:#3f0000; stroke:none;" d="M394 219L395 220L394 219M133 220L134 221L133 220z"/>
<path style="fill:#280000; stroke:none;" d="M143 220L144 221L143 220z"/>
<path style="fill:#0f0f0f; stroke:none;" d="M214 220L215 221L214 220M225 220L226 221L225 220z"/>
<path style="fill:#140000; stroke:none;" d="M383 220L384 221L383 220z"/>
<path style="fill:#230000; stroke:none;" d="M396 220L397 221L396 220z"/>
<path style="fill:#0f0f0f; stroke:none;" d="M134 221L135 222L134 221z"/>
<path style="fill:#1f1f1f; stroke:none;" d="M145 221L146 222L145 221z"/>
<path style="fill:#250000; stroke:none;" d="M216 221L217 222L216 221M226 221L227 222L226 221z"/>
<path style="fill:#3f0000; stroke:none;" d="M385 221L386 222L385 221z"/>
<path style="fill:#160000; stroke:none;" d="M398 221L399 222L398 221z"/>
<path style="fill:#3f0000; stroke:none;" d="M136 222L137 223L136 222z"/>
<path style="fill:#0f0f0f; stroke:none;" d="M217 222L218 223L217 222M228 222L229 223L228 222z"/>
<path style="fill:#1f1f1f; stroke:none;" d="M387 222L388 223L387 222z"/>
<path style="fill:#0f0f0f; stroke:none;" d="M401 222L402 223L401 222z"/>
<path style="fill:#2f1300; stroke:none;" d="M148 223L149 224L148 223z"/>
<path style="fill:#3f0000; stroke:none;" d="M219 223L220 224L219 223z"/>
<path style="fill:#1f1f1f; stroke:none;" d="M389 223L390 224L389 223M403 223L404 224L403 223z"/>
<path style="fill:#260000; stroke:none;" d="M76 224L77 225L76 224z"/>
<path style="fill:#1f1f1f; stroke:none;" d="M139 224L140 225L139 224M231 224L232 225L231 224z"/>
<path style="fill:#0f0f0f; stroke:none;" d="M391 224L392 225L391 224z"/>
<path style="fill:#2f1b00; stroke:none;" d="M405 224L406 225L405 224z"/>
<path style="fill:#3f0000; stroke:none;" d="M151 225L152 226L151 225z"/>
<path style="fill:#2f1600; stroke:none;" d="M222 225L223 226L222 225z"/>
<path style="fill:#3f0000; stroke:none;" d="M233 225L233 226L390 226C377.83 220.893 356.253 225 343 225L233 225z"/>
<path style="fill:#3f0600; stroke:none;" d="M390 225L391 226L390 225z"/>
<path style="fill:#3f2400; stroke:none;" d="M391 225L392 226L391 225z"/>
<path style="fill:#3f3f3f; stroke:none;" d="M392.667 225.333L393.333 225.667L392.667 225.333z"/>
<path style="fill:#160000; stroke:none;" d="M394 225L395 226L394 225z"/>
<path style="fill:#3f0000; stroke:none;" d="M408 225L408 226L427 226L408 225z"/>
<path style="fill:#1b0000; stroke:none;" d="M427 225L428 226L427 225z"/>
<path style="fill:#0e0000; stroke:none;" d="M428 225L429 226L428 225z"/>
<path style="fill:#1f1f1f; stroke:none;" d="M142 226L143 227L142 226z"/>
<path style="fill:#0f0f0f; stroke:none;" d="M153 226L154 227L153 226z"/>
<path style="fill:#2a0000; stroke:none;" d="M144 227L145 228L144 227z"/>
<path style="fill:#3f0400; stroke:none;" d="M154 227L155 228L154 227z"/>
<path style="fill:#1f1f1f; stroke:none;" d="M225 227L226 228L225 227z"/>
<path style="fill:#0f0f0f; stroke:none;" d="M145 228L146 229L145 228z"/>
<path style="fill:#050000; stroke:none;" d="M156 228L157 229L156 228z"/>
<path style="fill:#0f0f0f; stroke:none;" d="M225 228L226 229L225 228z"/>
<path style="fill:#190800; stroke:none;" d="M226 228L227 229L226 228z"/>
<path style="fill:#1f1f1f; stroke:none;" d="M145 229L146 230L145 229z"/>
<path style="fill:#3f0000; stroke:none;" d="M223 229L224 230L223 229z"/>
<path style="fill:#120000; stroke:none;" d="M143 230L144 231L143 230z"/>
<path style="fill:#150000; stroke:none;" d="M221 230L222 231L221 230z"/>
<path style="fill:#0f0f0f; stroke:none;" d="M140 231L141 232L140 231z"/>
<path style="fill:#5f0000; stroke:none;" d="M155 231L156 232L155 231z"/>
<path style="fill:#060000; stroke:none;" d="M156 231L157 232L156 231z"/>
<path style="fill:#1f1f1f; stroke:none;" d="M218 231L219 232L218 231z"/>
<path style="fill:#2f2f08; stroke:none;" d="M233 231L234 232L233 231z"/>
<path style="fill:#290000; stroke:none;" d="M407 231L408 232L407 231z"/>
<path style="fill:#5f0000; stroke:none;" d="M420 231L421 232L420 231z"/>
<path style="fill:#2f1700; stroke:none;" d="M138 232L139 233L138 232z"/>
<path style="fill:#1f1f1f; stroke:none;" d="M153 232L154 233L153 232z"/>
<path style="fill:#3f0000; stroke:none;" d="M216 232L217 233L216 232z"/>
<path style="fill:#160000; stroke:none;" d="M230 232L231 233L230 232z"/>
<path style="fill:#0f0f0f; stroke:none;" d="M231 232L232 233L231 232z"/>
<path style="fill:#3f0000; stroke:none;" d="M409 232L410 233L409 232z"/>
<path style="fill:#0f0f0f; stroke:none;" d="M421 232L422 233L421 232z"/>
<path style="fill:#120000; stroke:none;" d="M136 233L137 234L136 233z"/>
<path style="fill:#210000; stroke:none;" d="M150 233L151 234L150 233z"/>
<path style="fill:#130000; stroke:none;" d="M214 233L215 234L214 233z"/>
<path style="fill:#2f1800; stroke:none;" d="M228 233L229 234L228 233z"/>
<path style="fill:#1f1f1f; stroke:none;" d="M411 233L412 234L411 233z"/>
<path style="fill:#0f0f0f; stroke:none;" d="M133 234L134 235L133 234z"/>
<path style="fill:#1f1f1f; stroke:none;" d="M148 234L149 235L148 234z"/>
<path style="fill:#260000; stroke:none;" d="M161 234L162 235L161 234z"/>
<path style="fill:#0f0f0f; stroke:none;" d="M211 234L212 235L211 234M226 234L227 235L226 234M413 234L414 235L413 234z"/>
<path style="fill:#1f1f1f; stroke:none;" d="M420 234L421 235L420 234z"/>
<path style="fill:#3f0000; stroke:none;" d="M81 235L81 247L82 247L81 235z"/>
<path style="fill:#1f1f1f; stroke:none;" d="M131 235L132 236L131 235z"/>
<path style="fill:#120000; stroke:none;" d="M145 235L146 236L145 235z"/>
<path style="fill:#3f0000; stroke:none;" d="M161 235L161 246L162 246L161 235z"/>
<path style="fill:#0f0f0f; stroke:none;" d="M209 235L210 236L209 235z"/>
<path style="fill:#200000; stroke:none;" d="M223 235L224 236L223 235z"/>
<path style="fill:#170000; stroke:none;" d="M416 235L417 236L416 235z"/>
<path style="fill:#1f1f1f; stroke:none;" d="M129 236L130 237L129 236M143 236L144 237L143 236M207 236L208 237L207 236M221 236L222 237L221 236z"/>
<path style="fill:#1f0100; stroke:none;" d="M419 236L420 237L419 236z"/>
<path style="fill:#3f0000; stroke:none;" d="M127 237L128 238L127 237z"/>
<path style="fill:#0f0f0f; stroke:none;" d="M141 237L142 238L141 237z"/>
<path style="fill:#1f1f1f; stroke:none;" d="M205 237L206 238L205 237z"/>
<path style="fill:#0f0f0f; stroke:none;" d="M219 237L220 238L219 237z"/>
<path style="fill:#3f0000; stroke:none;" d="M125 238L126 239L125 238z"/>
<path style="fill:#130000; stroke:none;" d="M138 238L139 239L138 238z"/>
<path style="fill:#3f0000; stroke:none;" d="M203 238L204 239L203 238z"/>
<path style="fill:#130000; stroke:none;" d="M216 238L217 239L216 238z"/>
<path style="fill:#140000; stroke:none;" d="M123 239L124 240L123 239z"/>
<path style="fill:#3f0000; stroke:none;" d="M136 239L137 240L136 239M201 239L202 240L201 239M214 239L215 240L214 239z"/>
<path style="fill:#150000; stroke:none;" d="M121 240L122 241L121 240z"/>
<path style="fill:#1f1f1f; stroke:none;" d="M134 240L135 241L134 240z"/>
<path style="fill:#3f0000; stroke:none;" d="M199 240L200 241L199 240z"/>
<path style="fill:#1f1f1f; stroke:none;" d="M212 240L213 241L212 240z"/>
<path style="fill:#150000; stroke:none;" d="M119 241L120 242L119 241z"/>
<path style="fill:#0f0f0f; stroke:none;" d="M132 241L133 242L132 241z"/>
<path style="fill:#3f0000; stroke:none;" d="M197 241L198 242L197 241z"/>
<path style="fill:#1f1f1f; stroke:none;" d="M210 241L211 242L210 241z"/>
<path style="fill:#140000; stroke:none;" d="M117 242L118 243L117 242z"/>
<path style="fill:#180000; stroke:none;" d="M129 242L130 243L129 242z"/>
<path style="fill:#0f0f0f; stroke:none;" d="M130 242L131 243L130 242z"/>
<path style="fill:#2f1700; stroke:none;" d="M195 242L196 243L195 242z"/>
<path style="fill:#0f0f0f; stroke:none;" d="M208 242L209 243L208 242z"/>
<path style="fill:#3f0000; stroke:none;" d="M115 243L116 244L115 243z"/>
<path style="fill:#150000; stroke:none;" d="M127 243L128 244L127 243z"/>
<path style="fill:#1f1f1f; stroke:none;" d="M193 243L194 244L193 243z"/>
<path style="fill:#0f0f0f; stroke:none;" d="M206 243L207 244L206 243z"/>
<path style="fill:#3f0000; stroke:none;" d="M113 244L114 245L113 244z"/>
<path style="fill:#150000; stroke:none;" d="M125 244L126 245L125 244z"/>
<path style="fill:#0f0f0f; stroke:none;" d="M191 244L192 245L191 244M204 244L205 245L204 244z"/>
<path style="fill:#1f1f1f; stroke:none;" d="M111 245L112 246L111 245z"/>
<path style="fill:#150000; stroke:none;" d="M123 245L124 246L123 245z"/>
<path style="fill:#0f0f0f; stroke:none;" d="M189 245L190 246L189 245M202 245L203 246L202 245z"/>
<path style="fill:#1f1f1f; stroke:none;" d="M109 246L110 247L109 246z"/>
<path style="fill:#150000; stroke:none;" d="M121 246L122 247L121 246z"/>
<path style="fill:#300000; stroke:none;" d="M161 246L162 247L161 246z"/>
<path style="fill:#150000; stroke:none;" d="M188 246L189 247L188 246z"/>
<path style="fill:#0f0f0f; stroke:none;" d="M200 246L201 247L200 246z"/>
<path style="fill:#1f1f1f; stroke:none;" d="M81 247L82 248L81 247z"/>
<path style="fill:#0f0f0f; stroke:none;" d="M107 247L108 248L107 247z"/>
<path style="fill:#150000; stroke:none;" d="M119 247L120 248L119 247z"/>
<path style="fill:#3f0000; stroke:none;" d="M186 247L187 248L186 247z"/>
<path style="fill:#0f0f0f; stroke:none;" d="M198 247L199 248L198 247z"/>
<path style="fill:#140000; stroke:none;" d="M106 248L107 249L106 248z"/>
<path style="fill:#160000; stroke:none;" d="M117 248L118 249L117 248z"/>
<path style="fill:#1f1f1f; stroke:none;" d="M184 248L185 249L184 248z"/>
<path style="fill:#0f0f0f; stroke:none;" d="M196 248L197 249L196 248z"/>
<path style="fill:#2f1600; stroke:none;" d="M104 249L105 250L104 249z"/>
<path style="fill:#1f1f1f; stroke:none;" d="M194 249L195 250L194 249z"/>
<path style="fill:#0f0f0f; stroke:none;" d="M102 250L103 251L102 250M114 250L115 251L114 250z"/>
<path style="fill:#3f0000; stroke:none;" d="M181 250L182 251L181 250M192 250L193 251L192 250z"/>
<path style="fill:#270000; stroke:none;" d="M101 251L102 252L101 251z"/>
<path style="fill:#1f1f1f; stroke:none;" d="M112 251L113 252L112 251z"/>
<path style="fill:#0f0f0f; stroke:none;" d="M179 251L180 252L179 251z"/>
<path style="fill:#260000; stroke:none;" d="M190 251L191 252L190 251z"/>
<path style="fill:#1f1f1f; stroke:none;" d="M99 252L100 253L99 252z"/>
<path style="fill:#3f0000; stroke:none;" d="M110 252L111 253L110 252z"/>
<path style="fill:#250000; stroke:none;" d="M178 252L179 253L178 252z"/>
<path style="fill:#0f0f0f; stroke:none;" d="M189 252L190 253L189 252z"/>
<path style="fill:#160000; stroke:none;" d="M108 253L109 254L108 253z"/>
<path style="fill:#0f0f0f; stroke:none;" d="M176 253L177 254L176 253z"/>
<path style="fill:#1f1f1f; stroke:none;" d="M187 253L188 254L187 253M96 254L97 255L96 254z"/>
<path style="fill:#0f0f0f; stroke:none;" d="M107 254L108 255L107 254z"/>
<path style="fill:#3f0000; stroke:none;" d="M175 254L176 255L175 254M185 254L186 255L185 254z"/>
<path style="fill:#2f1600; stroke:none;" d="M105 255L106 256L105 255z"/>
<path style="fill:#0f0f0f; stroke:none;" d="M184 255L185 256L184 255M93 256L94 257L93 256z"/>
<path style="fill:#2f0e00; stroke:none;" d="M172 256L173 257L172 256z"/>
<path style="fill:#2f1800; stroke:none;" d="M182 256L183 257L182 256z"/>
<path style="fill:#2f1c00; stroke:none;" d="M92 257L93 258L92 257z"/>
<path style="fill:#1f1f1f; stroke:none;" d="M102 257L103 258L102 257z"/>
<path style="fill:#260000; stroke:none;" d="M171 257L172 258L171 257z"/>
<path style="fill:#290000; stroke:none;" d="M100 258L101 259L100 258z"/>
<path style="fill:#2f1700; stroke:none;" d="M179 258L180 259L179 258z"/>
<path style="fill:#0f0f0f; stroke:none;" d="M89 259L90 260L89 259z"/>
<path style="fill:#1f1f1f; stroke:none;" d="M99 259L100 260L99 259z"/>
<path style="fill:#0f0f0f; stroke:none;" d="M168 259L169 260L168 259M88 260L89 261L88 260M167 260L168 261L167 260z"/>
<path style="fill:#3f0000; stroke:none;" d="M176 260L177 261L176 260z"/>
<path style="fill:#2f1200; stroke:none;" d="M87 261L88 262L87 261z"/>
<path style="fill:#2f1d00; stroke:none;" d="M96 261L97 262L96 261z"/>
<path style="fill:#2f1200; stroke:none;" d="M166 261L167 262L166 261z"/>
<path style="fill:#0f0f0f; stroke:none;" d="M175 261L176 262L175 261z"/>
<path style="fill:#2f1d01; stroke:none;" d="M86 262L87 263L86 262z"/>
<path style="fill:#0f0f0f; stroke:none;" d="M95 262L96 263L95 262z"/>
<path style="fill:#2f1800; stroke:none;" d="M165 262L166 263L165 262z"/>
<path style="fill:#3f0000; stroke:none;" d="M85 263L86 264L85 263z"/>
<path style="fill:#2f1700; stroke:none;" d="M164 263L165 264L164 263z"/>
<path style="fill:#190000; stroke:none;" d="M172 263L173 264L172 263z"/>
<path style="fill:#3f0000; stroke:none;" d="M84 264L85 265L84 264z"/>
<path style="fill:#250000; stroke:none;" d="M92 264L93 265L92 264z"/>
<path style="fill:#2f0f00; stroke:none;" d="M163 264L164 265L163 264z"/>
<path style="fill:#3f0000; stroke:none;" d="M171 264L172 265L171 264z"/>
<path style="fill:#2f1b00; stroke:none;" d="M83 265L84 266L83 265z"/>
<path style="fill:#2f2002; stroke:none;" d="M91 265L92 266L91 265z"/>
<path style="fill:#0f0f0f; stroke:none;" d="M162 265L163 266L162 265z"/>
<path style="fill:#2f2002; stroke:none;" d="M170 265L171 266L170 265z"/>
<path style="fill:#2f2f2f; stroke:none;" d="M82 266L83 267L82 266z"/>
<path style="fill:#2f0e00; stroke:none;" d="M90 266L91 267L90 266z"/>
<path style="fill:#2f1a00; stroke:none;" d="M169 266L170 267L169 266z"/>
<path style="fill:#0f0f0f; stroke:none;" d="M81 267L82 268L81 267M89 267L90 268L89 267z"/>
<path style="fill:#060000; stroke:none;" d="M161 267L162 268L161 267z"/>
<path style="fill:#2f1c00; stroke:none;" d="M168 267L169 268L168 267z"/>
<path style="fill:#0f0f0f; stroke:none;" d="M88 268L89 269L88 268z"/>
<path style="fill:#2f2f0a; stroke:none;" d="M167 268L168 269L167 268z"/>
<path style="fill:#2f1700; stroke:none;" d="M87 269L88 270L87 269z"/>
<path style="fill:#170000; stroke:none;" d="M166 269L167 270L166 269z"/>
<path style="fill:#3f0000; stroke:none;" d="M86 270L87 271L86 270z"/>
<path style="fill:#0f0f0f; stroke:none;" d="M165 271L166 272L165 271z"/>
<path style="fill:#3f0000; stroke:none;" d="M164 272L165 273L164 272M84 273L85 274L84 273z"/>
<path style="fill:#160000; stroke:none;" d="M163 274L164 275L163 274z"/>
<path style="fill:#290000; stroke:none;" d="M83 275L84 276L83 275z"/>
<path style="fill:#370000; stroke:none;" d="M156 277L157 278L156 277z"/>
<path style="fill:#2e0000; stroke:none;" d="M76 278L77 279L76 278z"/>
<path style="fill:#1f1f1f; stroke:none;" d="M162 278L163 279L162 278M82 279L83 280L82 279z"/>
<path style="fill:#0e0000; stroke:none;" d="M157 279L158 280L157 279z"/>
<path style="fill:#080000; stroke:none;" d="M161 279L162 280L161 279z"/>
<path style="fill:#2f0000; stroke:none;" d="M77 280L78 281L77 280z"/>
<path style="fill:#040000; stroke:none;" d="M81 280L82 281L81 280z"/>
<path style="fill:#0f0f0f; stroke:none;" d="M158 280L159 281L158 280z"/>
<path style="fill:#160000; stroke:none;" d="M159 280L160 281L159 280z"/>
<path style="fill:#0f0f0f; stroke:none;" d="M160 280L161 281L160 280z"/>
</svg>
