<?xml version="1.0" standalone="yes"?>
<svg xmlns="http://www.w3.org/2000/svg" width="682" height="371">
<path style="fill:#ffffff; stroke:none;" d="M0 0L0 371L682 371L682 0L0 0z"/>
<path style="fill:#000000; stroke:none;" d="M614 22L579 58L523 115L489 151L497 154C481.447 173.099 462.874 189.982 446.09 208C441.231 213.215 433.454 225.844 426 227.007C417.214 228.378 400.147 217.32 392 213.85C363.48 201.703 334.022 191.263 306 178L485 96L483 90L437 110.691L351 150.258L316 166.309L298 173.973L284 169.15L253 156L485 55L483 49C461.547 55.1778 440.432 67.1125 420 76.1396C384.752 91.7126 349.131 106.47 314 122.306C298.089 129.478 282.025 136.366 266 143.281C259.75 145.978 251.846 151.343 245 151.822C234.267 152.572 217.909 141.641 208 137.603C186.942 129.024 165.967 120.223 145 111.424C134.314 106.94 122.013 103.608 112.093 97.5864C106.504 94.1932 103.421 86.3845 100.05 81C90.5836 65.8768 81.7319 42.377 68 31C57.3404 64.3363 48.3762 98.3588 38.7091 132C36.3286 140.284 34.1263 148.614 32.1304 157C31.5283 159.53 30.047 163.933 32.0247 166.214C35.125 169.789 39.3236 162.844 41.1042 161.101C49.6632 152.723 63.675 150.467 75 148.424C113.029 141.565 143.702 170.835 179 181L179 182L127 203.86L106 212.437L86 207L40 193C44.7804 228.5 57.8254 263.104 65.5756 298C67.5083 306.702 69.6027 315.381 71.8843 324C72.5506 326.517 73.2507 331.358 76.2191 332.248C80.6783 333.586 81.1614 321.728 82.0285 319C86.8227 303.916 97.5368 290.272 107.211 278C119.142 262.863 133.864 257.559 151 249.691L203 225.691C213.817 220.725 227.893 210.712 239.715 209.283C245.34 208.603 252.992 213.926 258 216.14C271.982 222.322 285.981 228.478 300 234.576C338.714 251.416 377.268 268.624 416 285.424C433.049 292.82 450.913 303.704 469 308C470.575 300.519 463.797 299.339 458 296.85C444.954 291.246 432.036 285.345 419 279.719C381.238 263.424 343.615 246.77 306 230.14C286.903 221.696 267.765 211.728 248 205C258.95 199.811 270.09 195.006 281 189.742C285.847 187.402 292.519 182.856 298 182.769C308.24 182.607 322.575 192.1 332 195.989C361.284 208.074 392.193 225.7 423 233C413.515 242.485 398.673 253.835 393 266C430.721 281.684 467.384 300.003 505 316C513.931 319.798 522.79 323.904 532 326.996C534.427 327.811 539.819 330.284 541.762 327.394C544.718 322.998 535.738 318.472 533 316.861C518.043 308.062 504.827 299.035 496.809 283C483.102 255.591 487.521 221.434 495.424 193C498.555 181.738 504.026 170.469 506 159L544 177.258L581 194L509 269C544.29 289.598 583.831 305.274 621 322.231C629.844 326.265 638.797 330.596 648 333.757C650.349 334.564 656.183 336.309 657.248 332.697C658.521 328.383 650.783 324.893 648 323.203C635.6 315.67 624.742 308.448 616.699 296C599.668 269.641 604.376 236.999 610 208C614.417 209.812 633.105 220.901 636.762 215.397C638.691 212.493 635.025 209.553 632.981 208.093C628.593 204.96 615.198 200.426 614.363 194.535C613.773 190.37 617.305 183.893 618.692 180C623.53 166.42 632.047 153.722 636 140L596 178C592.696 168.907 588.282 160.661 586.46 151C580.862 121.316 588.757 89.8892 598.692 62C603.53 48.4196 612.047 35.7216 616 22L614 22z"/>
<path style="fill:#ffffff; stroke:none;" d="M70 45C67.3541 54.3237 59.8324 69.3663 61.5093 79C62.2658 83.3462 65.917 87.3379 68.1921 91C70.1879 94.2125 72.5676 99.8938 76.3256 101.357C82.5812 103.793 96.2433 98.8539 103 98C95.0545 81.2004 82.8416 58.4199 70 45M595 51L533.999 113L499 149C506.99 149.119 512.023 138.399 518 134L509 154C528.395 162.075 546.807 172.585 566 181.139C570.852 183.301 580.641 190.418 585.995 188.644C597.064 184.975 584.387 166.941 582.428 160C575.541 135.589 579.334 109.156 585.373 85C587.697 75.7045 596.606 60.1575 595 51M58 87L52 111L69 104L58 87M80 107C88.2074 141.943 126.281 151.888 155 164.281C163.853 168.101 177.274 177.533 187 177.292C192.25 177.162 198.304 173.373 203 171.231C213.368 166.501 227.144 163.154 236 156L152 120.989L110 104.21L80 107M39 154C56.2496 144.926 73.5548 144.393 92 140L73 109C49.5689 116.624 44.2063 131.29 39 154M195 181L228 196.306L242 200.566L290 179L259 165.281L244 160.317L228 166.424L195 181M498 162L437.985 226L403 264L512 312C506.439 305.103 499.44 299.835 494.877 292C479.98 266.424 480.253 235.215 486.004 207C488.006 197.178 490.499 187.512 493.667 178C495.292 173.12 498.47 167.154 498 162M615 169C608.402 175.598 595.373 184.622 609 191L615 169M84 249C92.149 252.612 106.019 259.338 115 258.694C126.134 257.895 139.898 247.946 150 243.309C176.903 230.957 203.989 215.538 232 206L232 204C218.566 199.425 201.182 185.523 187 185.423C177.03 185.352 162.999 194.664 154 198.769C139.613 205.333 122.113 209.894 109.039 218.815C99.2994 225.461 90.1837 239.07 84 249M592 193L606 199C602.574 194.137 597.311 186.868 592 193M519 267C552.438 286.516 590.904 303.996 627 318C620.833 309.246 612.716 302.814 607.809 293C594.575 266.537 597.221 232.671 605 205C600.046 203.313 592.246 197.289 587 198.708C579.052 200.858 571.154 213.116 565.83 219C551.094 235.286 531.648 249.044 519 267M48 201C50.015 215.964 51.7891 238.062 67 243.344C70.0819 244.414 74.5249 247.175 77.8264 245.787C85.6426 242.5 96.1262 225.001 101 218L48 201M60 247L65 269L66 269L74 252L60 247M80 254C76.0326 261.454 71.0552 268.527 69.4676 277C67.1737 289.242 72.7015 304.267 76 316L77 316C82.531 295.778 99.2309 281.235 110 264L80 254M628 318L629 319L628 318z"/>
</svg>
