<?xml version="1.0" standalone="no"?>
<!DOCTYPE svg PUBLIC "-//W3C//DTD SVG 20010904//EN"
 "http://www.w3.org/TR/2001/REC-SVG-20010904/DTD/svg10.dtd">
<svg version="1.0" xmlns="http://www.w3.org/2000/svg"
 width="682.000000pt" height="371.000000pt" viewBox="0 0 682.000000 371.000000"
 preserveAspectRatio="xMidYMid meet">
<metadata>
Created by potrace 1.16, written by Peter Selinger 2001-2019
</metadata>
<g transform="translate(0.000000,371.000000) scale(0.100000,-0.100000)"
fill="#000000" stroke="none">
<path d="M5525 2848 c-341 -347 -621 -634 -623 -637 -1 -4 16 -16 38 -26 l41
-20 -316 -335 c-174 -184 -333 -352 -354 -374 l-38 -38 -611 253 c-337 139
-608 257 -604 260 6 6 1545 718 1740 805 47 22 52 26 42 44 -6 11 -15 20 -19
20 -5 0 -419 -189 -920 -420 -502 -231 -917 -420 -924 -420 -20 0 -456 184
-452 190 2 4 524 234 1160 511 912 398 1155 508 1155 522 0 10 -6 20 -13 22
-7 3 -539 -225 -1182 -506 -644 -281 -1179 -513 -1190 -516 -27 -5 -1345 541
-1367 567 -9 11 -103 162 -210 336 -106 173 -194 312 -195 307 -12 -37 -258
-893 -304 -1058 -33 -115 -60 -228 -61 -250 -3 -35 0 -40 19 -40 14 0 30 13
45 35 45 68 189 123 406 155 196 29 161 38 586 -149 209 -92 390 -173 402
-179 22 -11 -9 -27 -349 -175 l-372 -162 -322 104 c-263 84 -323 100 -323 87
0 -21 149 -645 188 -786 17 -61 56 -214 87 -342 31 -127 63 -237 71 -244 26
-21 44 -3 44 46 0 99 72 239 230 450 54 72 113 144 131 161 23 21 236 124 635
308 331 152 604 276 608 276 4 0 515 -223 1135 -495 620 -272 1133 -495 1138
-495 19 0 22 40 5 49 -10 5 -507 223 -1107 486 -600 263 -1093 481 -1097 484
-4 3 108 59 247 123 l255 116 617 -255 c340 -141 622 -259 627 -263 4 -5 -57
-76 -135 -159 -79 -84 -145 -155 -147 -160 -4 -11 925 -431 1246 -562 185 -75
208 -82 227 -63 25 25 4 45 -126 119 -197 113 -298 226 -360 407 -78 231 -62
556 48 918 35 114 81 240 89 240 2 0 147 -68 321 -151 175 -83 344 -163 376
-178 l60 -26 -363 -368 c-209 -211 -359 -372 -354 -377 21 -19 1037 -499 1267
-597 146 -62 190 -71 195 -36 3 23 -6 31 -204 153 -31 19 -87 67 -124 106
-152 160 -218 398 -192 688 10 104 33 251 47 293 3 9 23 4 67 -16 35 -16 91
-39 126 -51 60 -22 64 -22 80 -6 16 16 15 19 -15 46 -17 16 -75 54 -128 85
-95 56 -96 57 -89 88 13 65 88 256 150 386 35 74 64 136 64 139 0 2 -85 -83
-189 -189 -216 -221 -195 -214 -250 -84 -48 113 -64 210 -63 380 0 294 93 647
254 969 27 54 48 99 46 101 -2 2 -282 -280 -623 -627z m-4656 154 c89 -144
161 -267 161 -272 0 -6 -15 -10 -32 -10 -35 0 -206 -26 -229 -35 -17 -6 -164
219 -162 247 3 31 93 342 98 336 2 -1 75 -121 164 -266z m5084 161 c-42 -108
-92 -279 -118 -398 -70 -326 -54 -590 50 -801 l44 -89 -32 -32 c-17 -18 -36
-33 -42 -33 -11 0 -206 91 -642 300 l-132 63 35 69 c62 123 60 129 -18 45 -67
-71 -94 -88 -111 -71 -5 5 979 1014 989 1014 2 0 -9 -30 -23 -67z m-5313 -397
c28 -47 51 -88 50 -93 -2 -4 -29 -18 -61 -30 -31 -12 -69 -29 -83 -39 -15 -9
-28 -15 -30 -13 -3 4 65 259 69 259 1 0 26 -38 55 -84z m1085 -347 c346 -144
633 -264 638 -268 7 -7 -472 -221 -496 -221 -6 0 -205 85 -442 189 l-430 189
-102 158 c-57 88 -103 162 -103 165 0 11 182 41 285 48 11 0 303 -116 650
-260z m-891 45 c54 -85 97 -156 95 -158 -2 -1 -49 -8 -104 -14 -132 -15 -294
-55 -369 -92 -33 -16 -62 -27 -64 -25 -9 9 71 271 89 289 11 12 33 37 50 58
20 25 53 46 102 67 40 17 79 30 87 30 8 0 58 -67 114 -155z m1841 -440 c126
-52 231 -96 232 -98 2 -2 -111 -55 -251 -119 l-253 -117 -232 102 c-127 55
-229 104 -225 107 5 6 483 218 495 220 3 1 109 -42 234 -95z m2285 -30 c-49
-139 -94 -325 -116 -474 -22 -154 -15 -390 15 -505 43 -164 136 -313 255 -408
36 -28 43 -37 26 -32 -27 8 -634 278 -937 415 l-182 83 82 88 c159 172 892
946 894 944 1 0 -15 -51 -37 -111z m1193 -11 c-14 -38 -35 -96 -46 -130 -12
-35 -24 -63 -27 -63 -3 0 -24 18 -45 40 l-39 40 89 90 c49 50 91 90 92 90 1 0
-10 -30 -24 -67z m-4050 -217 c125 -55 227 -102 227 -105 0 -4 -267 -129 -593
-279 l-592 -272 -150 52 c-82 28 -152 53 -154 54 -6 5 28 53 105 149 132 163
108 148 534 335 212 93 388 168 391 167 3 -1 108 -47 232 -101z m3917 9 c29
-30 51 -57 48 -60 -3 -3 -40 11 -83 30 l-78 36 23 24 c13 14 26 25 30 25 3 0
30 -25 60 -55z m-44 -81 c58 -27 74 -39 70 -52 -11 -39 -36 -183 -46 -262 -30
-246 13 -492 114 -658 37 -61 118 -151 176 -195 l35 -27 -65 29 c-357 161
-1070 503 -1070 513 0 6 152 164 338 353 243 247 342 341 355 338 9 -2 51 -20
93 -39z m-5226 -79 c135 -42 249 -81 254 -85 4 -5 -20 -41 -55 -82 -36 -40
-86 -103 -114 -140 -27 -38 -54 -68 -60 -68 -6 0 -55 15 -109 33 l-99 33 -43
180 c-47 195 -51 219 -31 212 6 -3 122 -40 257 -83z m-58 -404 c26 -9 47 -20
47 -26 0 -5 -20 -49 -44 -97 l-44 -87 -21 97 c-12 53 -24 108 -27 121 -6 26
-11 26 89 -8z m239 -80 c63 -22 128 -45 146 -51 l31 -11 -62 -77 c-124 -154
-222 -305 -262 -402 l-22 -55 -11 40 c-70 264 -76 355 -30 455 32 70 77 140
88 140 5 0 60 -18 122 -39z"/>
</g>
</svg>
