<?xml version="1.0" standalone="yes"?>
<svg xmlns="http://www.w3.org/2000/svg" width="560" height="371">
<path style="fill:#ffffff; stroke:none;" d="M0 0L0 371L560 371L560 0L0 0z"/>
<path style="fill:#000000; stroke:none;" d="M290 132L175 132C159.112 132 137.208 135.932 122 131.351C115.193 129.3 108.864 123.558 103 119.667C87.5034 109.387 70.3583 94.5792 53 88C53 106.653 51.03 125.365 51 144C50.961 168.235 52.7289 193.985 49.5756 218C47.9451 230.418 49 243.482 49 256C49 259.619 47.8549 266.445 50.8534 269.199C54.7125 272.744 60.8091 259.7 63.1736 257.428C75.4419 245.64 92.5262 237.796 108 231.15C127.445 222.8 150.123 226 171 226L290 226L290 339L296 339L296 222C351.614 245.154 405.94 273.178 460 299.756C472.83 306.064 485.732 312.45 499 317.799C501.983 319.002 510.17 323.372 512.712 319.411C515.662 314.816 504.759 309.664 502 308C486.396 298.589 475.062 285.916 470.478 268C460.34 228.375 482.336 189.221 497 154C500.551 155.377 506.701 159.234 510.551 157.382C517.19 154.188 504.296 147.841 502 147L507 136C504.157 137.474 499.797 142.634 496.576 142.232C486.104 140.925 478.559 121.735 477.3 113C473.372 85.7423 489.983 66.2175 500 43C483.842 49.8308 468.926 65.491 455 76.1157C418.408 104.032 383.068 136.671 344 161C343.375 166.61 336.192 170.118 332 173.349C320.055 182.553 307.402 191.134 296 201L296 142L296.843 115L309.33 96L340.001 51L354 29C322.295 29 290.719 27 259 27C254.501 27 230.636 24.3452 230.636 31.0247C230.636 34.6788 236.556 35.5838 239 36.9661C246.103 40.9835 251.294 47.5759 256.105 54C272.103 75.364 290 104.924 290 132z"/>
<path style="fill:#ffffff; stroke:none;" d="M246 33L268.947 62L293 108L314.72 77L343 35L246 33M479 65C466.997 76.0224 452.991 85.2935 440 95.1296C433.539 100.021 425.638 104.539 424 113L484 141C473.756 125.445 468.912 111.813 472.081 93C473.372 85.3386 480.951 72.0343 479 65M58 98L57 167C75.2336 154.941 91.9311 142.174 113 135L92 119.947L58 98M414 116C396.482 128.584 368.548 143.578 360 164L418 192C407.057 174.268 402.777 159.851 407.211 139C408.758 131.725 414.227 123.248 414 116M420 118C413.552 140.555 403.092 165.425 421.185 185.999C424.62 189.905 432.16 198.142 438 197.748C442.882 197.418 448.495 189.806 452 186.715C464.526 175.666 480.383 163.653 490 150L442 127.691L420 118M290 220L281 214L281 212C291.686 206.673 290 198.512 290 188L290 137L174 137C150.997 137 128.364 134.281 107 143.576C93.7538 149.338 80.4566 156.014 69 164.888C65.0536 167.945 58.3003 173.19 58.6582 178.907C58.9306 183.258 65.8151 186.256 69 188.308C79.6765 195.185 90.3975 202.013 101 209.003C106.222 212.446 111.93 217.742 118 219.49C132.735 223.733 153.651 220 169 220L290 220M485 163L448.167 198L445.269 207.357L438 208.692L429 215.424L386 255L386 257C418.822 270.665 449.8 294.148 484 304C478.786 296.568 472.531 290.517 468.873 282C457.463 255.436 463.607 225.587 471.424 199C474.581 188.264 485.115 173.826 485 163M350 167C337.017 178.235 322.716 188.295 309 198.626C304.934 201.689 296.296 205.995 296.296 211.896C296.296 217.049 306.248 219.877 310 221.753C324.753 229.129 339.775 236.661 355 243C344.387 226.886 339.634 212.432 343.261 193C344.664 185.483 351.496 174.23 350 167M357 170C345.301 191.968 342.383 222.785 362.001 240.907C365.843 244.456 374.377 251.945 380 251.698C384.843 251.485 389.625 244.263 393 241.285C404.471 231.168 424.528 217.878 431 204L357 170M56 187L55 256L111 223C96.8771 209.475 73.6775 195.363 56 187z"/>
</svg>
