<?xml version="1.0" standalone="no"?>
<!DOCTYPE svg PUBLIC "-//W3C//DTD SVG 20010904//EN"
 "http://www.w3.org/TR/2001/REC-SVG-20010904/DTD/svg10.dtd">
<svg version="1.0" xmlns="http://www.w3.org/2000/svg"
 width="560.000000pt" height="371.000000pt" viewBox="0 0 560.000000 371.000000"
 preserveAspectRatio="xMidYMid meet">
<metadata>
Created by potrace 1.16, written by Peter Selinger 2001-2019
</metadata>
<g transform="translate(0.000000,371.000000) scale(0.100000,-0.100000)"
fill="#000000" stroke="none">
<path d="M2358 3433 c-67 -7 -78 -55 -14 -67 19 -4 57 -23 84 -44 112 -84 209
-229 360 -532 l107 -215 3 -92 4 -93 -849 0 -848 0 -325 211 c-178 116 -329
213 -336 216 -12 4 -21 -188 -29 -637 -3 -135 -10 -432 -16 -660 -13 -443 -9
-503 27 -508 17 -2 25 6 38 42 38 99 225 225 529 357 l90 39 859 0 858 0 0
-565 0 -565 25 0 25 0 0 590 c0 325 2 590 4 590 3 0 118 -54 255 -120 138 -65
313 -147 389 -181 75 -34 349 -164 607 -289 681 -330 868 -415 903 -408 11 2
17 13 17 28 0 21 -18 36 -105 90 -233 144 -322 292 -337 555 -13 243 62 532
227 882 l58 122 62 -25 c67 -27 90 -26 90 5 0 13 -18 31 -55 53 l-54 32 31 56
31 55 -44 -42 c-25 -24 -50 -43 -56 -43 -7 0 -39 25 -72 56 -110 102 -154 240
-131 412 18 142 85 316 174 457 51 80 51 79 35 70 -30 -19 -855 -649 -875
-669 -11 -12 -165 -131 -342 -266 -177 -134 -317 -247 -311 -250 7 -5 -432
-351 -487 -383 -12 -7 -14 62 -14 425 l0 434 291 424 290 425 -33 6 c-73 15
-1035 33 -1140 22z m735 -59 c180 -4 330 -10 333 -15 4 -8 -439 -668 -484
-721 -13 -16 -19 -7 -66 95 -117 253 -256 477 -362 584 -48 48 -59 63 -46 66
9 3 80 3 157 1 77 -2 287 -7 468 -10z m1689 -386 c-107 -285 -92 -488 49 -671
20 -27 19 -26 -73 16 -151 71 -523 249 -527 253 -2 2 8 21 22 43 17 25 122
113 294 244 147 113 268 206 269 206 1 1 -14 -41 -34 -91z m-3930 -429 c145
-94 269 -177 276 -183 10 -9 -13 -23 -106 -64 -148 -66 -324 -170 -396 -234
l-56 -50 0 194 c0 185 10 508 16 508 1 0 121 -77 266 -171z m3277 -68 c-110
-261 -95 -524 39 -673 20 -23 30 -39 22 -36 -80 31 -590 284 -590 292 0 7 15
36 33 65 27 45 71 83 272 237 132 101 243 184 247 184 3 0 -7 -31 -23 -69z
m382 -96 c167 -80 326 -155 352 -168 l49 -23 -253 -234 c-139 -129 -258 -239
-266 -243 -17 -10 -88 31 -153 90 -33 30 -62 69 -87 121 -36 72 -38 82 -42
188 -2 89 1 128 18 195 17 68 69 219 76 219 1 0 138 -65 306 -145z m-1611
-403 l0 -349 -46 -33 -47 -33 47 -24 c25 -13 46 -28 46 -33 0 -7 -306 -10
-863 -10 l-863 0 -301 196 -301 196 9 30 c13 48 55 95 137 153 87 61 268 158
405 215 l92 39 843 1 842 0 0 -348z m1944 47 c-80 -159 -171 -443 -199 -624
-21 -130 -16 -325 9 -420 27 -100 81 -197 152 -274 46 -49 59 -69 43 -62 -36
13 -639 305 -833 403 l-168 84 208 194 c115 106 234 217 264 247 54 52 57 53
89 42 27 -10 35 -9 49 4 14 15 14 18 -3 37 -19 21 -18 21 21 59 61 61 387 361
391 361 2 0 -8 -23 -23 -51z m-1365 -111 c-22 -64 -45 -155 -51 -203 -21 -159
20 -317 107 -414 21 -22 35 -41 32 -41 -4 0 -458 216 -585 278 -28 14 -32 21
-30 46 3 26 37 56 282 243 154 117 281 212 282 210 2 -1 -15 -55 -37 -119z
m529 -117 c117 -55 235 -110 263 -122 27 -12 48 -26 47 -30 -3 -10 -508 -479
-515 -479 -2 0 -37 19 -76 42 -198 115 -277 273 -247 495 11 85 49 223 76 275
l14 27 113 -53 c61 -30 208 -99 325 -155z m-3158 -151 c146 -95 267 -174 269
-176 2 -2 -30 -18 -70 -35 -197 -87 -384 -198 -462 -274 -21 -21 -39 -36 -42
-34 -2 3 0 151 5 329 5 179 9 336 10 349 0 14 5 21 13 18 6 -2 131 -82 277
-177z"/>
</g>
</svg>
