<?xml version="1.0" standalone="no"?>
<!DOCTYPE svg PUBLIC "-//W3C//DTD SVG 20010904//EN"
 "http://www.w3.org/TR/2001/REC-SVG-20010904/DTD/svg10.dtd">
<svg version="1.0" xmlns="http://www.w3.org/2000/svg"
 width="906.000000pt" height="371.000000pt" viewBox="0 0 906.000000 371.000000"
 preserveAspectRatio="xMidYMid meet">
<metadata>
Created by potrace 1.16, written by Peter Selinger 2001-2019
</metadata>
<g transform="translate(0.000000,371.000000) scale(0.100000,-0.100000)"
fill="#000000" stroke="none">
<path d="M7690 3425 c-16 -19 3 -45 34 -45 79 0 257 -175 377 -370 l34 -55 -3
-277 -2 -278 -483 0 -482 0 149 149 149 149 -51 7 c-56 7 -1266 -3 -1294 -11
-34 -10 -20 -40 25 -58 24 -9 62 -32 84 -51 38 -32 143 -164 143 -179 0 -24
-81 20 -390 210 -193 119 -353 214 -356 212 -2 -3 -7 -101 -10 -219 -3 -118
-9 -227 -13 -243 l-7 -29 -60 56 c-112 103 -155 240 -134 416 18 139 84 314
174 456 51 80 51 79 35 70 -30 -19 -855 -648 -869 -664 -8 -9 -102 -83 -208
-164 l-193 -147 -730 0 -731 0 -224 137 c-123 75 -224 140 -224 143 0 9 146
77 278 129 l102 41 960 0 960 0 0 25 0 25 -961 0 -961 0 -305 176 c-168 97
-307 174 -309 172 -2 -3 -7 -167 -11 -366 -5 -287 -4 -364 7 -377 21 -25 39
-17 56 25 14 34 56 77 102 104 9 6 12 -23 12 -128 l0 -136 -587 0 -588 1 -228
185 c-126 103 -231 183 -235 179 -4 -4 -8 -87 -10 -186 l-3 -179 -59 0 c-108
0 -146 -36 -70 -66 22 -9 58 -37 80 -62 l40 -45 0 -103 c0 -56 4 -114 10 -128
15 -41 39 -32 62 25 21 50 22 50 34 27 10 -17 13 -82 14 -240 0 -120 -3 -218
-6 -218 -4 0 -74 47 -156 105 -82 58 -155 108 -162 111 -10 4 -14 -29 -19
-153 -10 -224 -8 -615 2 -631 14 -22 44 -9 52 21 16 61 94 132 237 216 l52 30
0 -69 c0 -68 1 -70 25 -70 25 0 25 1 25 84 l0 83 80 37 c74 34 85 36 180 36
l100 0 0 -120 0 -120 25 0 25 0 0 120 0 120 140 0 140 0 0 -115 0 -115 25 0
25 0 0 115 0 115 370 0 370 0 0 -65 c0 -36 -3 -65 -6 -65 -3 0 -34 20 -68 45
l-63 45 -6 -152 c-4 -83 -7 -251 -7 -373 0 -183 3 -225 15 -235 19 -16 31 -7
53 43 31 70 134 147 332 248 l105 54 1025 5 1025 5 3 23 3 22 -1018 0 -1018 0
-125 88 c-69 48 -125 92 -125 97 1 17 158 110 272 161 l108 49 628 3 628 2
132 -57 c72 -32 264 -123 426 -202 1009 -490 1081 -520 1089 -464 3 18 -18 36
-126 107 -142 93 -192 144 -246 246 -55 105 -70 175 -70 340 -1 257 68 511
223 830 l56 115 3 -100 c2 -55 -1 -226 -7 -380 -14 -359 -14 -690 -1 -716 17
-31 39 -22 59 24 36 82 158 172 371 274 175 83 280 123 326 123 l44 0 0 -365
0 -365 25 0 25 0 0 365 0 365 155 0 155 0 0 -360 0 -360 25 0 25 0 0 360 0
360 155 0 155 0 0 -355 0 -355 25 0 25 0 0 355 0 355 490 0 490 0 2 -582 3
-583 25 0 25 0 5 607 5 607 223 230 c122 126 222 232 222 235 0 3 -58 6 -128
6 -71 0 -177 3 -235 7 l-107 6 0 471 0 471 238 245 237 245 -145 6 c-80 4
-294 7 -476 8 -284 1 -333 -1 -344 -14z m653 -42 c103 -3 186 -10 185 -14 -2
-4 -83 -88 -180 -188 l-178 -181 -52 78 c-74 111 -165 218 -226 268 l-54 44
159 0 c87 0 243 -3 346 -7z m-2909 -270 c-37 -85 -74 -216 -85 -302 -22 -159
18 -312 106 -410 21 -22 35 -41 31 -41 -3 0 -138 63 -298 141 -161 77 -301
143 -310 146 -25 7 -23 15 15 63 23 30 534 435 555 439 1 1 -5 -16 -14 -36z
m-2937 -133 c234 -135 257 -150 233 -150 -23 0 -271 -110 -342 -151 -36 -21
-87 -55 -112 -74 l-46 -35 0 103 c0 56 3 180 7 275 5 137 9 172 19 168 8 -3
116 -64 241 -136z m3477 -420 c157 -96 286 -177 286 -180 0 -3 -42 -23 -92
-44 -206 -86 -388 -189 -473 -267 l-45 -42 0 98 0 97 28 -7 c50 -14 67 -11 70
11 2 16 -8 29 -42 50 -53 33 -57 53 -24 111 l22 38 -22 -19 -22 -19 0 85 c0
119 12 269 21 266 4 -2 136 -82 293 -178z m1349 92 c14 -6 -1 -26 -83 -107
l-101 -100 -22 30 c-12 16 -41 53 -64 81 l-41 51 26 27 c26 25 30 26 147 25
66 0 128 -4 138 -7z m-775 -34 l32 -20 -39 -46 c-22 -26 -57 -64 -79 -85 l-39
-38 -39 53 c-21 29 -63 79 -94 112 l-55 58 140 -7 c114 -6 146 -11 173 -27z
m359 11 l35 -22 -83 -83 c-46 -46 -86 -80 -90 -76 -4 4 -30 38 -59 76 l-51 69
27 28 c26 27 33 29 107 29 64 0 86 -4 114 -21z m-2131 -26 c-28 -57 -75 -223
-86 -306 -20 -167 21 -312 119 -420 l26 -29 -35 15 c-127 53 -570 272 -570
282 0 6 15 35 33 64 27 45 71 83 272 237 132 101 243 184 248 184 4 0 1 -12
-7 -27z m355 -133 c162 -77 320 -152 352 -168 l59 -28 -262 -243 c-174 -162
-267 -241 -277 -237 -36 14 -126 82 -159 120 -20 22 -50 70 -67 105 -27 57
-31 78 -35 170 -4 121 9 199 58 334 18 48 33 87 35 87 1 0 134 -63 296 -140z
m-4148 -40 l117 -95 -88 -8 c-48 -5 -124 -6 -169 -2 l-83 7 0 127 c0 70 3 131
6 134 7 7 16 0 217 -163z m1791 -67 l46 -29 -57 -24 c-92 -37 -213 -100 -275
-141 -80 -55 -82 -52 -79 179 1 103 5 197 7 209 6 22 40 4 358 -194z m4263
130 c28 -38 53 -74 57 -80 6 -10 -24 -13 -136 -13 l-143 0 80 80 c44 44 83 80
86 80 4 0 29 -30 56 -67z m-358 -12 c28 -38 51 -71 51 -75 0 -3 -60 -6 -132
-6 l-132 0 74 75 c41 41 78 75 81 75 4 0 30 -31 58 -69z m-299 -406 l0 -275
-123 0 c-88 0 -128 -4 -142 -14 -25 -18 -14 -42 23 -49 44 -9 110 -64 171
-142 l53 -70 -30 -3 c-26 -3 -89 32 -352 194 -354 218 -334 199 -284 276 31
49 139 124 288 200 146 74 342 157 374 158 l22 0 0 -275z m360 0 l0 -275 -155
0 -155 0 0 275 0 275 155 0 155 0 0 -275z m360 5 l0 -270 -124 0 c-68 0 -138
-3 -155 -6 l-31 -6 0 276 0 276 155 0 155 0 0 -270z m1030 90 l0 -180 -208 0
c-162 0 -212 -3 -227 -14 -16 -12 -17 -16 -6 -30 7 -9 21 -16 30 -16 41 0 123
-55 198 -133 66 -69 203 -252 203 -271 0 -3 -210 -6 -467 -6 l-468 0 138 138
139 139 -63 6 c-34 4 -104 7 -155 7 l-94 0 0 270 0 270 490 0 490 0 0 -180z
m-3874 132 c-3 -5 -46 -40 -95 -78 -50 -37 -86 -71 -80 -74 5 -4 -64 -63 -155
-132 l-165 -125 -273 -6 c-150 -4 -372 -10 -493 -13 l-220 -5 -147 113 c-140
108 -146 114 -130 132 19 20 292 157 362 180 38 13 147 15 723 16 373 0 676
-4 673 -8z m-2478 -40 c-7 -10 -53 -68 -103 -129 l-89 -111 -43 74 c-23 40
-47 75 -53 79 -17 11 -11 36 18 70 l27 34 128 0 c122 1 128 0 115 -17z m576
-114 c3 -73 8 -160 12 -193 3 -33 3 -178 -1 -322 l-7 -263 -374 0 -374 0 0
301 0 301 125 154 126 154 244 0 243 0 6 -132z m-1654 106 c0 -14 -3 -14 -15
-4 -8 7 -15 14 -15 16 0 2 7 4 15 4 8 0 15 -7 15 -16z m304 3 c17 -12 14 -16
-34 -47 -28 -18 -77 -53 -107 -76 l-56 -44 -24 35 c-17 25 -23 48 -23 89 l0
56 113 0 c78 0 119 -4 131 -13z m366 -16 c42 -35 40 -39 -49 -147 -58 -70 -66
-76 -75 -59 -6 10 -38 60 -72 111 l-60 92 30 15 c20 10 60 16 111 16 74 0 83
-2 115 -28z m82 17 c-9 -9 -15 -9 -24 0 -9 9 -7 12 12 12 19 0 21 -3 12 -12z
m-335 -115 c22 -32 56 -88 76 -124 l37 -66 0 -291 0 -292 -105 0 -104 0 -75
53 -75 52 -1 243 0 243 97 120 c53 65 100 119 104 119 3 0 24 -26 46 -57z
m4331 -95 c-64 -143 -129 -341 -159 -483 -31 -145 -34 -394 -6 -495 32 -114
85 -208 162 -286 l70 -71 -45 20 c-63 28 -752 362 -884 428 l-108 55 208 194
c115 106 234 218 266 248 55 53 57 54 89 43 27 -9 36 -9 48 4 13 13 12 17 -4
35 -19 21 -18 21 21 59 49 49 387 361 390 361 1 0 -21 -51 -48 -112z m-3975
64 c14 -21 39 -66 56 -100 l31 -61 0 -291 0 -290 -140 0 -140 0 0 296 0 296
76 94 c42 52 80 94 84 94 4 0 19 -17 33 -38z m-580 -42 c-39 -51 -53 -60 -53
-36 0 12 75 86 88 86 2 0 -14 -22 -35 -50z m3217 -70 c-51 -149 -68 -273 -52
-375 14 -92 57 -188 108 -245 l38 -42 -34 15 c-19 8 -169 78 -333 157 -283
136 -297 144 -280 160 10 10 83 67 163 127 80 60 208 158 284 216 77 59 141
106 142 104 2 -1 -15 -54 -36 -117z m470 -90 c129 -62 267 -127 307 -144 l72
-32 -236 -220 c-129 -120 -248 -229 -264 -242 l-29 -23 -68 41 c-163 96 -229
188 -253 349 -16 106 13 271 71 406 l19 45 73 -34 c40 -19 179 -84 308 -146z
m-3817 145 c4 -8 2 -17 -3 -20 -6 -4 -10 3 -10 14 0 25 6 27 13 6z m1823 -105
c125 -96 135 -105 118 -117 -11 -8 -54 -36 -97 -63 -42 -27 -97 -68 -122 -91
-24 -22 -49 -38 -55 -34 -6 4 -10 74 -10 195 0 185 4 224 21 218 5 -2 70 -50
145 -108z m5697 -17 l256 -6 -182 -188 c-171 -177 -183 -188 -197 -170 -8 10
-43 59 -77 107 -66 94 -155 193 -213 237 l-35 27 96 0 c53 0 211 -3 352 -7z
m-2051 -444 c-4 -4 -47 -24 -97 -44 -191 -78 -379 -185 -464 -264 l-44 -41 7
318 c4 174 9 336 12 358 l6 41 294 -180 c161 -100 290 -184 286 -188z m-2667
254 l-127 -97 108 -53 c60 -30 188 -91 284 -138 l175 -84 -571 -1 -572 0 -186
118 c-102 64 -184 122 -183 127 5 16 132 109 215 156 l77 44 360 11 c198 6
402 11 454 12 l93 2 -127 -97z m3723 10 l54 -6 -98 -98 c-54 -55 -101 -99
-105 -99 -3 0 -31 34 -63 76 l-57 77 27 28 c26 27 33 29 108 29 45 0 105 -3
134 -7z m-740 -35 c17 -11 32 -23 32 -27 0 -9 -159 -166 -163 -160 -2 2 -18
25 -36 51 -17 26 -57 75 -87 107 l-55 60 138 -6 c112 -4 144 -9 171 -25z m359
11 l35 -22 -83 -83 c-46 -46 -86 -80 -90 -76 -4 4 -30 38 -59 75 l-52 69 28
29 c26 27 33 29 107 29 64 0 86 -4 114 -21z m109 -106 c15 -21 39 -53 52 -70
l24 -33 -128 0 -128 0 69 70 c38 39 72 70 76 70 4 0 19 -17 35 -37z m-6313
-92 l117 -82 0 -88 0 -87 -37 -18 c-60 -29 -170 -103 -218 -147 l-45 -42 0
140 c0 77 3 208 7 291 l6 151 26 -18 c14 -10 79 -55 144 -100z m5962 67 c21
-29 43 -59 48 -65 7 -10 -16 -13 -109 -13 l-118 0 64 65 c35 36 67 65 70 65 3
0 23 -24 45 -52z m-3987 -172 l123 -78 -138 -68 c-76 -37 -160 -84 -187 -104
-26 -21 -53 -35 -59 -33 -9 3 -11 50 -8 172 2 137 7 177 22 212 l19 44 52 -34
c29 -18 108 -69 176 -111z m-1750 -55 l34 -25 -24 -12 c-13 -6 -33 -15 -45
-18 -22 -7 -23 -5 -23 44 0 56 -1 56 58 11z m1390 -229 c25 -19 32 -32 32 -58
0 -77 41 -112 63 -54 7 18 17 28 24 26 18 -7 222 -150 222 -156 1 -3 -24 -16
-55 -29 -88 -38 -245 -135 -302 -186 l-52 -47 0 134 c0 218 11 408 24 401 6
-4 26 -18 44 -31z"/>
</g>
</svg>
