<?xml version="1.0" standalone="no"?>
<!DOCTYPE svg PUBLIC "-//W3C//DTD SVG 20010904//EN"
 "http://www.w3.org/TR/2001/REC-SVG-20010904/DTD/svg10.dtd">
<svg version="1.0" xmlns="http://www.w3.org/2000/svg"
 width="562.000000pt" height="371.000000pt" viewBox="0 0 562.000000 371.000000"
 preserveAspectRatio="xMidYMid meet">
<metadata>
Created by potrace 1.16, written by Peter Selinger 2001-2019
</metadata>
<g transform="translate(0.000000,371.000000) scale(0.100000,-0.100000)"
fill="#000000" stroke="none">
<path d="M1728 3384 c-38 -12 -21 -64 22 -64 10 0 27 -8 39 -17 21 -18 11 -22
-424 -204 l-444 -187 -338 88 c-241 62 -339 83 -341 74 -3 -13 123 -457 193
-679 51 -162 67 -190 96 -175 15 9 19 21 19 63 0 39 8 69 34 120 36 70 119
190 186 267 l39 45 -6 -215 c-3 -118 -10 -217 -14 -220 -5 -3 -13 -199 -19
-435 -6 -237 -12 -446 -13 -465 -2 -34 -4 -32 -46 49 -31 61 -45 99 -48 142
-5 47 -9 59 -23 59 -27 0 -34 -15 -83 -165 -51 -158 -208 -698 -203 -702 1 -2
151 35 332 82 181 47 338 85 349 85 11 0 287 -107 614 -237 405 -162 596 -234
598 -225 3 6 11 12 19 12 11 0 14 29 14 164 0 182 7 211 62 267 72 72 245 164
500 267 l143 57 928 3 927 2 0 -380 0 -380 25 0 25 0 0 1046 0 1046 251 395
c138 217 249 396 247 398 -6 7 -603 25 -813 25 -223 0 -255 -5 -255 -40 0 -14
11 -22 39 -30 86 -23 198 -165 316 -401 73 -145 154 -330 162 -371 l6 -28
-896 0 -896 0 -293 156 c-161 86 -296 159 -300 163 -4 3 67 123 158 266 l165
260 -88 6 c-116 9 -943 20 -965 13z m879 -62 l81 -7 -139 -220 c-77 -120 -142
-221 -144 -223 -2 -2 -39 15 -82 37 -43 23 -82 41 -86 41 -4 0 -7 -44 -8 -97
-1 -140 -7 -148 -48 -55 -56 126 -138 276 -217 394 -41 61 -74 114 -74 119 0
5 -6 6 -13 3 -8 -3 -20 3 -28 12 -13 16 7 17 331 10 190 -5 382 -11 427 -14z
m2601 -1 l92 -6 -215 -339 c-118 -186 -216 -340 -218 -342 -2 -2 -14 22 -27
54 -97 239 -234 481 -330 585 l-64 70 334 -8 c184 -4 377 -10 428 -14z m-3301
-138 c71 -96 115 -173 188 -325 97 -202 125 -280 125 -343 l0 -55 -414 0 -415
0 -276 146 -277 147 60 59 59 60 444 188 c244 103 447 188 451 189 3 0 28 -29
55 -66z m-1292 -244 c132 -34 244 -65 249 -70 5 -5 -17 -36 -52 -73 -121 -130
-232 -282 -282 -387 l-28 -60 -30 98 c-49 157 -162 549 -162 561 0 7 10 8 33
1 17 -5 140 -37 272 -70z m1718 -94 c20 -10 37 -22 37 -25 0 -8 -92 -152 -94
-148 -5 11 7 199 12 196 4 -2 24 -12 45 -23z m597 -329 c0 -6 -64 -35 -143
-65 -187 -71 -327 -138 -426 -206 l-81 -54 0 191 0 192 70 112 70 112 255
-136 c140 -75 255 -141 255 -146z m-1680 -40 c68 -36 81 -46 65 -52 -174 -61
-326 -129 -405 -182 -24 -17 -48 -28 -52 -26 -10 6 -10 197 -1 351 l6 113 151
-79 c83 -44 189 -100 236 -125z m3590 -596 l0 -590 -922 -2 -923 -3 -355 201
-355 200 -3 207 -2 207 44 48 c71 76 257 173 533 277 l118 44 933 0 932 1 0
-590z m-2626 363 c4 -87 9 -200 12 -250 l5 -93 -513 0 -513 1 -149 136 -148
137 23 19 c36 30 231 122 349 166 l105 39 412 1 411 1 6 -157z m-1202 -234
c73 -66 134 -124 135 -127 1 -4 -42 -35 -96 -70 -54 -35 -129 -93 -166 -128
l-68 -64 5 231 c4 204 6 232 21 241 9 5 17 16 17 23 0 8 4 15 10 15 5 0 69
-54 142 -121z m1218 -419 l0 -260 -514 0 -515 0 -170 127 -171 127 52 54 c29
30 106 89 172 133 l119 79 513 0 514 0 0 -260z m376 -145 c169 -97 309 -177
311 -179 2 -2 -52 -25 -119 -51 -171 -67 -360 -164 -445 -229 l-73 -55 0 142
c0 142 11 547 15 547 1 0 141 -79 311 -175z m-1593 -40 c64 -48 117 -91 117
-96 0 -4 -8 -10 -18 -13 -18 -6 -149 -80 -193 -109 l-27 -18 -41 52 -41 52 0
93 c0 52 6 112 12 134 l13 39 30 -23 c16 -12 83 -62 148 -111z m-298 -85 l38
-55 -1 -110 c-2 -135 6 -179 35 -183 15 -2 22 4 27 24 9 33 54 94 70 94 12 0
112 -109 105 -114 -2 -1 -123 -33 -269 -70 -146 -37 -272 -69 -282 -72 -15 -4
-15 0 2 58 119 409 161 550 170 574 l11 27 28 -59 c16 -32 45 -84 66 -114z
m1513 -420 c1 -294 -1 -380 -11 -379 -6 0 -270 105 -586 232 l-574 232 -64 72
-64 71 43 30 c24 16 83 50 131 76 l88 46 518 0 518 0 1 -380z m-1396 218 l-22
-22 0 44 0 44 22 -22 22 -22 -22 -22z"/>
</g>
</svg>
