<?xml version="1.0" standalone="yes"?>
<svg xmlns="http://www.w3.org/2000/svg" width="562" height="371">
<!-- <path style="fill:#ffffff; stroke:none;" d="M0 0L0 371L562 371L562 0L0 0z"/>
--><path style="fill:#000000; stroke:none;" d="M180 43C158.379 46.7229 135.194 60.8044 115 69.4213C108.089 72.3702 99.52 77.7488 92 78.4475C86.0559 78.9998 78.7273 75.843 73 74.3704C56.8893 70.2277 39.5743 63.3537 23 62C26.3269 84.612 35.3885 108.23 42.3441 130C43.5177 133.673 46.9815 150.99 52.7253 149.11C55.964 148.049 56.1584 137.112 57.4645 134C62.5553 121.87 71.9886 110.417 81 101C75.4467 144.941 76 190.687 76 235L75 235C72.3785 227.796 67.7494 221.842 67.0208 214.001C66.8203 211.842 66.7204 208.352 63.9066 207.921C58.3532 207.071 55.2407 223.182 54.1412 227C47.7539 249.183 38.0863 272.08 35 295C51.3524 293.664 68.1003 287.101 84 283.127C89.965 281.635 97.8473 278.061 104 278.713C114.408 279.815 126.295 287.118 136 291C164.749 302.498 194.891 318.865 225 326L228 324C228 312.238 224.873 295.408 231.214 285.001C241.027 268.892 267.351 260.639 284 254C306.775 244.918 331.79 248 356 248L483 248L483 324L489 324L489 179L489 136L489.702 115L505 90L540 34C512.365 33.9818 484.724 32 457 32C452.746 32 432.821 29.5061 431.921 35.1736C431.473 37.9993 435.092 39.1847 437.005 40.1698C442.688 43.0976 447.435 47.9087 451.24 53C463.609 69.5484 480.901 97.0598 483 118L362 118L305 117.606L246 87L278 34C251.018 33.7767 224.074 32 197 32C192.177 32 173.588 29.3207 171.176 34.2994C169.285 38.202 177.699 41.2375 180 43z"/>
<path style="fill:#ffffff; stroke:none;" d="M184 37L184 38C190.446 40.5903 193.837 47.441 197.653 53C207.03 66.6624 215.648 82.2814 221 98L222 98L223 75L239.79 82.1837L247.947 72L268 39L184 37M445 37L445 38C468.631 54.6574 470.822 85.6235 487 107L516.192 61L529 39L445 37M85 96L116 112.424L140 124.606L167 125L221 125C221.058 104.124 209.887 83.8488 199.2 66C196.036 60.7162 191.845 50.7281 185.91 48.132C179.879 45.4938 165.753 54.6365 160 57.0108C136.856 66.562 99.6634 74.9362 85 96M31 70L50 135L51 135C56.9019 114.513 75.2109 100.752 87 84L31 70M228 85L228 102L229 102L237 89L228 85M242 92L228.649 114L228 152C248.788 137.799 270.189 130.111 293 120L276 109.691L242 92M86 104C86 118.039 82.0074 135.493 86 149L132 128C120.558 118.519 100.282 108.114 86 104M483 242L483 124L356 124C331.579 124 306.095 120.894 283 129.811C269.345 135.083 255.545 140.588 243 148.204C237.494 151.548 230.888 155.551 228.703 162C225.888 170.311 228 182.272 228 191C228 194.157 227.22 198.683 229.028 201.471C231.866 205.846 239.575 208.39 244 210.86C255.387 217.217 266.543 224.001 278 230.231C284.711 233.88 292.484 240.462 300 242.015C318.19 245.776 341.34 242 360 242L483 242M91 154L121 179.4L152 180L222 180L221 131C179.632 131 124.069 122.355 91 154M87 158C79.034 171.492 82 192.571 82 208L114 184C109.469 174.364 95.6738 164.104 87 158M87 212L87 213C96.2318 220.326 108.584 233.199 120 236.49C129.681 239.281 142.942 237 153 237L222 237L222 186L153 186C143.342 186 130.219 183.694 121 186.699C108.69 190.711 95.0561 202.189 87 212M230 210L228 278L229 278C244.729 258.554 272.367 258.087 291 244L230 210M83 218C81.9433 226.182 76.0538 250.24 90.0147 251.978C95.8245 252.701 107.869 242.995 113 240L83 218M62 223L43 287C60.7523 284.609 81.2493 279.319 98 273L89 262L88 262C86.0037 264.195 81.3 273.926 78.1705 273.369C73.8612 272.601 75.0002 263.971 75 261C74.999 245.785 70.5449 235.703 62 223M94 258L94 259C114.556 282.53 151.423 290.571 180 302C193.329 307.331 207.849 315.563 222 318L222 243L157 243C133.071 243 113.582 241.789 94 258M81 253L81 260L85 258L81 253z"/>
</svg>
