<?xml version="1.0" standalone="yes"?>
<svg xmlns="http://www.w3.org/2000/svg" width="786" height="371">
<path style="fill:#ffffff; stroke:none;" d="M0 0L0 371L786 371L786 0L0 0z"/>
<path style="fill:#000000; stroke:none;" d="M393 42L350.4 95L330.829 117.972L308 119L253 119L160 119L116 118.363L92 105.421L31 71C30.9837 95.6404 30.596 121.386 28.9105 146C28.5461 151.321 25.9944 169.347 30.7377 172.953C34.3331 175.686 43.815 160.505 47 158.015C64.0834 144.664 85.8608 136.458 106 128.95C128.227 120.663 156.449 125 180 125L326 125C321.132 132.736 330.437 136.956 336 141.4C349.92 152.518 365.576 169.057 382 176C369.863 189.904 358.557 204.612 346.999 219C342.445 224.669 337.059 234.324 330.711 237.972C323.111 242.339 305.695 239 297 239L213 239L213 197C213 191.192 211.607 183.272 214.434 178C223.636 160.836 246.68 149.591 253 131C216.293 131 179.611 130 143 130C134.336 130 125.663 129.883 117 130.004C114.565 130.038 109.914 129.785 109.466 133.12C108.951 136.949 118.465 139.728 121 141.681C130.629 149.096 138.038 160.616 144.139 171C154.597 188.8 149 218.707 149 239L114 238.031L53 203.719L30 192C30 217.704 28 243.293 28 269C28 274.022 25.346 291.073 31.2346 293.338C35.3614 294.925 36.9667 288.386 38.6489 286.001C43.8173 278.673 52.3798 274.053 60 269.719C76.56 260.3 98.0562 248.626 117 245.329C127.167 243.559 138.687 245 149 245L149 294L155 294L155 245L208 245L208 294L213 294L213 245L326 245L322 251C339.996 264.34 357.072 278.927 375 292.373C380.516 296.51 389.644 306.506 396.89 306.627C406.345 306.785 392.048 293.473 391.77 291.424C391.313 288.058 396.751 284.292 399 282.518C417.627 267.823 444.995 255.419 468 249.609C487.965 244.566 514.387 249 535 249L679 249C673.821 256.52 683.469 261.068 689 265.35C703.701 276.729 718.125 288.469 733 299.625C736.552 302.289 746.876 312.487 751.667 309.864C754.983 308.049 752.362 303.962 750.771 302C745.49 295.49 738.901 290.622 734.981 283C718.012 250 735.131 216.97 740 184L754 190L745.637 174.961L747 166L742 172L741 172C736.818 164.458 732.643 157.46 730.478 149C721.197 112.722 738.748 79.8265 748 46C741.218 49.6314 736.596 58.1329 731.75 64C720.28 77.8874 709.22 92.113 697.75 106C693.754 110.838 689.378 118.89 683.829 121.972C679.656 124.291 672.628 123 668 123L630 123L519 123C504.314 123 482.859 126.962 469 122.031C438.985 111.35 414.662 83.85 384 75L382 158L381 158C369.466 115.727 381.424 82.13 395 42L393 42z"/>
<path style="fill:#ffffff; stroke:none;" d="M376 73L331 130L378 166C373.205 149.348 367.465 134.913 369.17 117C370.095 107.282 371.318 97.5506 373.424 88C374.454 83.332 377.075 77.7043 376 73M730 76L699.197 114L685 134L732 170C724.052 150.885 720.81 132.699 723.286 112C724.619 100.85 731.026 86.8988 730 76M36 81L34 161L77 134.258L107 121L36 81M390 85C385.322 110.2 388 138.388 388 164L389 164C403.866 144.575 437.465 133.345 460 126L460 124L390 85M387 181C374.483 213.495 372.245 244.479 380 278L381 278L384 195L439 226.421L468 242.362L511 243L603 243L659 243L683.711 242.397L699.197 225L735 181L735 180C720.941 167.834 705.531 157.019 691 145.4C684.779 140.425 674.994 136.547 680 128L536 128C515.23 128 487.979 123.346 468 129.04C448.053 134.725 426.64 144.177 409 155.065C403.871 158.23 394.432 162.966 392.327 169.004C390.132 175.301 402.401 178.882 399.744 184.638C397.813 188.821 389.412 182.141 387 181M125 136L151 171C160.584 166.493 174.543 149.572 179 140C163.135 132.595 142.141 136 125 136M210 172C221.351 163.319 232.834 148.73 241 137C227.657 137 214.384 135.999 201 136C197.751 136 189.447 134.925 189.345 140.059C189.274 143.625 193.954 147.406 195.985 150C201.227 156.694 206.625 164.178 210 172M183 145L156.013 177L155 196L155 239L208 239C208 205.696 214.417 167.192 183 145M376 193L343.576 233L332.192 248.961L343 259.789L378 286C369.399 265.313 367.452 246.293 370.155 224C371.321 214.385 377.194 202.432 376 193M729 197L684 252L684 253L731 290C725.969 272.529 720.384 257.766 722.17 239C722.996 230.32 724.096 221.491 726.13 213C727.3 208.119 730.128 201.939 729 197M36 202L34 281L35 281C48.5016 262.658 84.2775 248.148 106 243C102.529 236.88 92.9925 233.571 87 230.15C71.091 221.07 53.5694 207.168 36 202M389 205L387 284C409.644 268.519 433.741 252.46 461 246L461 245L389 205z"/>
</svg>
