<?xml version="1.0" standalone="no"?>
<!DOCTYPE svg PUBLIC "-//W3C//DTD SVG 20010904//EN"
 "http://www.w3.org/TR/2001/REC-SVG-20010904/DTD/svg10.dtd">
<svg version="1.0" xmlns="http://www.w3.org/2000/svg"
 width="756.000000pt" height="371.000000pt" viewBox="0 0 756.000000 371.000000"
 preserveAspectRatio="xMidYMid meet">
<metadata>
Created by potrace 1.16, written by Peter Selinger 2001-2019
</metadata>
<g transform="translate(0.000000,371.000000) scale(0.100000,-0.100000)"
fill="#000000" stroke="none">
<path d="M6048 3443 c-39 -4 -64 -25 -53 -43 4 -7 28 -21 54 -31 63 -27 122
-87 193 -194 110 -164 298 -566 298 -634 l0 -31 -1007 0 -1006 0 -378 235
c-207 129 -382 235 -387 235 -6 0 -13 -107 -17 -267 -4 -148 -10 -333 -14
-413 l-7 -145 -17 56 c-74 238 -33 633 102 993 23 60 40 110 39 112 -2 1 -131
-171 -288 -382 l-285 -384 -1001 0 -1002 0 -378 236 -379 235 -7 -38 c-4 -21
-10 -245 -14 -498 -7 -420 -6 -461 9 -474 23 -19 44 -8 52 28 9 43 81 119 167
177 91 61 319 176 458 232 l105 42 973 0 973 0 -20 -26 -20 -26 152 -131 c84
-73 206 -177 270 -231 65 -54 116 -104 114 -111 -3 -6 -108 -149 -233 -318
l-229 -307 -542 0 -543 0 0 309 0 309 184 229 185 228 -67 6 c-37 4 -330 7
-652 8 -584 1 -610 0 -610 -31 0 -5 24 -19 53 -32 85 -38 174 -145 280 -337
l37 -66 0 -311 0 -312 -155 0 -155 0 -387 240 c-212 132 -387 239 -388 238 -5
-6 -25 -705 -24 -833 1 -151 7 -179 36 -183 17 -2 24 5 33 34 37 111 283 271
637 413 l101 41 151 0 151 0 0 -245 0 -245 25 0 25 0 0 245 0 245 245 0 245 0
0 -245 0 -245 25 0 25 0 0 245 0 245 520 0 c292 0 520 -4 520 -9 0 -5 -7 -14
-15 -21 -8 -7 -15 -16 -15 -20 0 -14 584 -509 655 -556 29 -19 55 -13 55 13 0
10 -20 41 -45 70 -25 28 -45 56 -45 62 0 23 77 94 164 153 97 64 312 173 460
232 l90 36 1008 0 1008 0 2 -457 3 -458 25 0 25 0 3 1121 2 1121 264 419 264
419 -31 6 c-70 15 -946 33 -1049 22z m626 -59 c186 -3 344 -8 351 -10 8 -4
-66 -131 -211 -360 -122 -194 -227 -361 -231 -369 -7 -11 -22 15 -58 97 -115
269 -247 497 -344 597 -49 50 -49 50 -22 54 14 3 60 3 101 1 41 -2 227 -6 414
-10z m-3008 -486 c-39 -177 -49 -276 -43 -447 5 -163 23 -255 68 -343 11 -22
16 -39 11 -37 -5 2 -107 87 -225 188 l-216 185 30 40 c135 186 395 533 397
530 2 -1 -8 -53 -22 -116z m-2737 -195 c262 -163 291 -184 270 -192 -243 -92
-508 -238 -608 -334 l-53 -52 6 373 c4 204 9 386 13 402 l6 30 36 -22 c20 -12
168 -105 330 -205z m3211 -13 c162 -100 301 -188 308 -195 11 -10 0 -18 -61
-44 -240 -99 -440 -211 -537 -298 -46 -42 -59 -49 -62 -35 -2 9 -1 152 3 317
4 165 8 338 8 384 l1 83 23 -14 c12 -8 155 -97 317 -198z m2400 -805 l0 -575
-1011 0 -1011 0 -380 236 c-208 130 -381 234 -383 232 -6 -6 -25 -526 -25
-698 -1 -132 -2 -142 -14 -114 -82 187 -60 587 50 927 l16 49 22 -20 c46 -42
75 -55 91 -42 23 19 19 27 -36 85 -50 53 -50 54 -35 83 45 87 312 247 621 371
l100 41 998 0 997 0 0 -575z m-4702 472 c17 -10 32 -21 32 -25 0 -9 -238 -306
-248 -310 -5 -1 -16 15 -26 35 -30 64 -140 225 -188 276 l-46 48 222 -3 c189
-3 226 -6 254 -21z m546 14 l59 -6 -138 -170 c-75 -93 -140 -171 -144 -172 -3
-2 -25 32 -49 75 -23 42 -66 108 -95 146 -29 38 -56 75 -62 82 -6 9 -3 19 9
33 18 20 29 21 190 20 94 -1 197 -4 230 -8z m-421 -138 c24 -32 72 -106 106
-165 l61 -106 0 -311 0 -311 -245 0 -245 0 0 309 0 308 133 166 c72 91 135
166 139 166 4 1 27 -25 51 -56z m1707 -499 c-38 -154 -53 -276 -54 -434 -1
-174 15 -268 65 -378 l28 -63 -24 18 c-95 71 -423 360 -420 370 5 15 419 572
423 569 1 -2 -7 -38 -18 -82z m-2752 -229 c160 -99 291 -182 292 -186 0 -3
-37 -20 -82 -39 -226 -91 -464 -227 -552 -315 l-49 -49 7 219 c3 121 9 304 12
407 l7 188 37 -23 c20 -12 168 -103 328 -202z m3220 -20 c177 -110 318 -202
314 -205 -4 -4 -38 -19 -77 -35 -111 -45 -337 -159 -415 -210 -40 -25 -97 -70
-128 -98 l-55 -52 7 305 c7 345 16 502 26 498 4 -2 152 -93 328 -203z"/>
</g>
</svg>
