<?xml version="1.0" standalone="yes"?>
<svg xmlns="http://www.w3.org/2000/svg" width="756" height="371">
<!-- <path style="fill:#ffffff; stroke:none;" d="M0 0L0 371L756 371L756 0L0 0z"/>
--><path style="fill:#000000; stroke:none;" d="M654 120L516 120L474 120C467.78 120 459.968 121.246 454 119.301C433.513 112.623 412.248 94.1814 394 82.6813C389.699 79.971 377.163 75.0172 375.929 69.7901C373.917 61.2666 383.729 46.3182 386 38L371.127 56L340.627 97L325.91 114.972L305 116L254 116L169 116L129 115.49L104 100.681L51 68C48.833 75.3313 50.4291 83.4271 49.9105 91C48.6644 109.196 48 127.754 48 146C48 150.833 45.6493 168.049 51.2731 170.338C54.4601 171.635 64.8541 156.043 68 153.465C84.2685 140.129 107.823 128.936 128 123.043C146.174 117.736 171.084 122 190 122L322 122C317.221 129.614 325.573 133.939 331 138.579C344.115 149.795 357.588 165.133 373 173C362.352 187.823 351.324 202.399 340.373 217C336.35 222.364 331.763 231.648 325.826 234.972C318.66 238.985 303.124 236 295 236L219 236L219 194L219.938 175L255 129C243.244 126.818 230.911 128.277 219 127.985C197.311 127.454 175.648 127.545 154 127.015C146.064 126.82 137.928 126.638 130 127.04C127.612 127.161 123.599 127.392 122.752 130.221C121.618 134.003 129.74 136.165 131.996 137.789C140.157 143.665 145.969 153.472 150.989 162C163.759 183.695 159 211.379 159 236C149.538 236 135.902 238.5 127 235.157C99.5471 224.85 78.2323 197.305 50 189C50 215.003 48 240.943 48 267C48 271.237 45.5194 289.957 51.1844 290.94C54.9407 291.591 56.6791 285.343 58.2485 283.004C63.1569 275.688 71.5329 270.408 79 266.011C94.1164 257.108 113.508 245.373 131 242.329C139.918 240.776 149.956 242 159 242L159 291L165 291L165 242L213 242L213 291L219 291L219 242L322 242L318 247L318 248C333.767 262.523 350.517 276.214 367 289.919C371.882 293.978 380.156 303.457 386.89 303.624C395.88 303.847 383.028 291.191 382.77 289C382.325 285.213 387.54 281.373 390 279.174C405.908 264.95 432.292 251.908 453 246.61C472.036 241.739 497.333 246 517 246L654 246L654 338L660 338L660 185L660 138L660.51 115L673.681 93L700.692 50L713 28C683.961 28 655.052 26 626 26C621.765 26 599.636 23.5392 599.636 30.0363C599.636 33.4049 604.707 34.615 607 35.9545C612.893 39.3968 617.081 44.6045 621.104 50C631.589 64.0624 639.356 80.9532 646.281 97C649.466 104.382 653.627 111.847 654 120z"/>
<path style="fill:#ffffff; stroke:none;" d="M614 32C631.203 56.4222 646.029 78.722 657 107L658 107L703 34L614 32M368 70L369 71L368 70M367 72L337.873 111L328.192 125.961L338 136.576L370 163C362.112 143.768 360.193 125.603 362.17 105C363.061 95.7119 369.641 80.6962 367 72M374 72C370.032 101.464 365.146 124.374 372 154L373 154L374.015 97L374 72M56 79L54 157C75.9397 141.56 96.6468 130.392 121 119L88 97.9499L56 79M381 82C376.397 106.797 379 134.783 379 160C399.895 145.454 420.869 129.874 446 123L446 122L381 82M378 178C370.458 210.602 361.204 241.81 372 275L373 275L375 192C391.674 203.033 409.083 213.019 426 223.681C434.05 228.755 443.694 237.31 453 239.582C472.1 244.245 497.309 240 517 240L654 240L654 126L515 126C495.777 126 469.378 121.292 451 126.904C433.328 132.301 415.704 141.614 400 151.204C394.332 154.665 385.895 159.568 383.238 166C380.564 172.473 392.34 176.023 389.744 181.638C387.809 185.821 380.188 179.245 378 178M137 133L161 168C169.052 163.921 175.244 153.008 180.799 146C182.845 143.419 187.297 139.071 183.663 136.009C180.531 133.371 175.756 134.189 172 133.83C160.36 132.718 148.703 133 137 133M195 137L195 138C203.125 146.495 210.338 157.18 215 168C225.798 162.529 237.331 144.083 244 134C231.09 134 204.763 127.549 195 137M190 143L165.589 175L165 195L165 236L213 236C213 210.466 217.766 182.471 204.396 160C200.693 153.777 196.727 146.204 190 143M367 191C355.384 209.653 340.902 229.856 326 246L326 247L370 284C362.817 266.724 359.058 248.87 361.285 230C362.314 221.292 363.391 212.593 365.211 204C366.09 199.845 368.256 195.136 367 191M55 199L54 277C74.6221 262.487 95.1421 247.106 120 240C116.313 234.251 107.738 230.748 102 227.192C87.4536 218.177 71.292 204.191 55 199M380 202L378 281C399.94 265.606 420.684 254.374 445 243L445 242L380 202z"/>
</svg>
