<?xml version="1.0" standalone="no"?>
<!DOCTYPE svg PUBLIC "-//W3C//DTD SVG 20010904//EN"
 "http://www.w3.org/TR/2001/REC-SVG-20010904/DTD/svg10.dtd">
<svg version="1.0" xmlns="http://www.w3.org/2000/svg"
 width="605.000000pt" height="371.000000pt" viewBox="0 0 605.000000 371.000000"
 preserveAspectRatio="xMidYMid meet">
<metadata>
Created by potrace 1.16, written by Peter Selinger 2001-2019
</metadata>
<g transform="translate(0.000000,371.000000) scale(0.100000,-0.100000)"
fill="#000000" stroke="none">
<path d="M1800 3312 c-42 -13 -37 -44 12 -70 24 -13 57 -42 75 -65 46 -61 115
-195 166 -322 44 -110 137 -378 137 -396 0 -5 -220 -9 -540 -9 l-540 0 -321
200 c-177 110 -324 199 -326 197 -2 -3 -6 -191 -10 -418 -6 -377 -5 -415 10
-428 23 -19 44 -8 52 28 8 38 99 122 186 174 l64 38 48 -50 47 -50 0 -345 0
-346 25 0 25 0 0 343 0 342 149 112 150 112 58 -39 c32 -21 89 -70 126 -108
l67 -70 0 -346 0 -346 25 0 25 0 0 343 0 342 177 133 177 132 163 0 163 0 0
-610 0 -610 -544 0 -544 0 -312 195 c-171 107 -315 195 -319 195 -16 0 -30
-796 -15 -834 12 -31 42 -18 62 27 36 82 187 183 434 292 l148 65 544 0 544 0
3 -455 c3 -351 7 -457 17 -467 18 -18 41 0 57 46 27 78 164 188 366 296 l94
50 1137 0 1137 0 3 -127 c3 -115 5 -128 22 -131 10 -2 22 0 27 5 6 6 9 451 9
1080 l0 1070 214 402 c129 242 210 404 203 406 -19 6 -619 25 -747 24 -136 -1
-164 -7 -168 -36 -3 -17 6 -26 42 -41 94 -42 229 -288 355 -645 l41 -119 -2
-901 -3 -901 -66 89 c-151 204 -264 430 -299 598 -6 32 -9 61 -6 64 2 3 33
-12 68 -33 35 -20 68 -40 73 -42 6 -3 -7 14 -28 39 -114 134 -120 145 -114
202 4 28 20 80 37 114 30 61 45 76 208 219 39 34 39 64 1 64 -25 0 -58 -18
-253 -138 -158 -97 -137 -100 -193 26 -95 212 -103 432 -20 572 39 65 72 101
147 159 95 74 124 106 117 125 -10 24 -34 19 -106 -21 -81 -45 -430 -262 -726
-451 -120 -77 -222 -139 -226 -136 -14 8 -20 132 -9 199 22 141 81 228 236
351 46 37 84 72 84 79 0 7 -7 18 -15 25 -17 14 -56 -4 -220 -103 -213 -130
-874 -550 -874 -557 0 -3 89 -59 198 -124 l199 -120 -122 -76 c-66 -42 -172
-108 -233 -148 l-113 -72 0 578 0 577 171 265 c95 146 174 272 176 281 4 15
-21 17 -249 23 -470 11 -1013 15 -1038 8z m579 -75 c25 -12 63 -44 85 -70 l40
-48 -143 -286 -142 -286 -43 124 c-92 264 -172 436 -248 536 l-48 64 227 -6
c205 -6 232 -9 272 -28z m2689 22 c180 -6 329 -13 331 -14 2 -2 -79 -159 -180
-349 -101 -190 -186 -342 -190 -338 -3 4 -23 54 -44 112 -91 254 -196 462
-278 556 l-39 44 36 0 c20 0 184 -5 364 -11z m-2154 -9 c78 0 87 -2 82 -17
-10 -26 -268 -423 -275 -422 -3 0 -40 71 -82 157 l-77 157 35 69 35 69 96 -6
c54 -4 137 -7 186 -7z m-354 -10 c0 -12 -30 -74 -33 -68 -1 2 -18 20 -36 41
l-35 37 52 0 c30 0 52 -5 52 -10z m75 -377 l55 -122 0 -596 0 -596 -141 -91
c-112 -73 -138 -93 -127 -103 7 -6 70 -47 141 -89 l127 -77 0 -265 0 -265
-102 82 c-57 44 -158 124 -225 177 l-123 95 0 734 0 733 146 292 146 292 24
-39 c13 -22 49 -95 79 -162z m-1852 -270 c136 -85 247 -155 247 -156 0 -1
-120 -2 -266 -2 l-266 0 6 59 c3 32 6 106 6 163 0 80 3 103 13 97 6 -4 123
-76 260 -161z m2853 -38 c-19 -24 -44 -70 -56 -102 -69 -184 -45 -371 80 -630
l59 -123 -28 -19 -28 -20 -149 90 c-82 49 -153 94 -157 98 -4 4 26 34 68 66
77 59 96 80 88 103 -9 24 -47 11 -150 -49 -57 -33 -108 -59 -112 -57 -19 7
-340 203 -341 208 0 8 738 479 752 480 5 0 -7 -20 -26 -45z m780 7 c-3 -5 -21
-32 -40 -60 -41 -62 -74 -155 -82 -238 -12 -118 34 -322 106 -464 17 -34 30
-63 28 -64 -29 -23 -86 -56 -96 -56 -15 0 -232 130 -232 140 0 3 31 29 68 58
88 66 116 97 109 116 -11 27 -40 18 -157 -49 -63 -36 -118 -65 -122 -65 -10 0
-307 178 -326 195 -13 12 92 83 623 418 129 81 129 81 121 69z m-3826 -199
c37 -14 130 -74 130 -83 0 -3 -24 -20 -54 -38 -30 -18 -79 -53 -110 -78 l-56
-45 0 136 0 135 28 -6 c15 -4 43 -13 62 -21z m274 17 l70 0 -79 -38 -80 -39
-45 36 c-25 19 -49 39 -55 44 -6 6 14 7 54 3 35 -3 96 -6 135 -6z m865 -3 c12
-2 -221 -187 -236 -187 -4 0 -43 35 -87 78 -45 43 -94 87 -110 98 l-28 20 223
-3 c123 -2 230 -5 238 -6z m-589 -1 c0 -5 -228 -176 -243 -182 -17 -6 -84 63
-71 75 25 24 242 111 277 111 20 0 37 -2 37 -4z m2664 -444 l147 -90 -92 -56
c-50 -32 -92 -56 -94 -54 -23 26 -111 214 -130 277 -10 32 -9 31 169 -77z
m-566 -124 c-117 -154 -129 -380 -33 -629 41 -107 69 -161 138 -271 31 -49 48
-84 39 -78 -9 5 -156 94 -327 198 l-310 189 0 153 0 153 250 158 c138 87 254
159 259 159 4 0 -3 -15 -16 -32z m1397 -44 c-19 -31 -39 -73 -45 -93 -7 -20
-14 -42 -16 -50 -4 -13 -60 63 -67 90 -2 8 139 107 155 109 3 0 -9 -25 -27
-56z m-1171 -43 l149 -90 -69 -44 c-357 -231 -338 -220 -346 -195 -10 38 -9
153 3 210 16 72 85 208 107 208 4 0 74 -40 156 -89z m546 84 c0 -2 -13 -25
-30 -51 -31 -49 -67 -149 -72 -199 -3 -29 -5 -27 -55 44 -29 41 -53 78 -53 82
0 8 189 129 202 129 4 0 8 -2 8 -5z m168 -100 l104 -64 -89 -57 c-233 -151
-219 -143 -230 -125 -12 20 0 128 21 187 19 55 63 124 79 124 6 0 59 -29 115
-65z m320 -81 c21 -32 41 -65 46 -71 4 -7 -32 11 -79 39 l-87 51 38 23 c21 13
39 22 41 20 1 -1 20 -29 41 -62z m-720 -10 l24 -36 -41 23 c-41 23 -47 30 -34
42 14 14 29 6 51 -29z m677 -76 c55 -34 101 -62 102 -63 2 -1 10 -40 18 -87
27 -155 116 -367 219 -520 20 -28 34 -54 32 -56 -6 -5 -851 560 -849 567 1 3
11 7 23 9 11 2 18 7 16 10 -7 12 308 212 324 206 8 -3 60 -33 115 -66z m-675
-9 c95 -57 119 -75 123 -97 3 -16 -1 -34 -10 -44 -13 -15 -13 -18 6 -28 12 -6
21 -19 21 -30 0 -70 103 -311 189 -442 28 -43 48 -78 45 -78 -17 0 -883 535
-877 541 8 8 375 247 381 248 2 1 57 -31 122 -70z m-2998 -210 c143 -89 255
-165 251 -170 -4 -4 -37 -19 -73 -34 -175 -73 -340 -167 -415 -236 l-45 -42 0
140 c0 182 12 503 18 503 3 0 122 -73 264 -161z m1908 46 l0 -114 -95 57 -94
57 87 57 c48 31 90 57 95 58 4 0 7 -52 7 -115z m1129 -415 l502 -305 -353 -3
-353 -3 -50 57 c-66 75 -164 212 -216 302 -47 83 -117 240 -126 285 l-6 30 50
-29 c27 -16 275 -166 552 -334z m668 20 l498 -330 -312 0 -312 0 -61 73 c-120
141 -235 333 -290 487 -29 78 -35 100 -26 100 3 0 229 -148 503 -330z m-1309
-76 c224 -136 409 -248 411 -250 2 -2 -188 -4 -422 -4 l-427 0 0 256 c0 226 2
255 15 250 9 -3 199 -117 423 -252z m-699 -133 l182 -143 -83 -47 c-119 -67
-226 -141 -280 -196 l-48 -47 0 179 c0 99 3 234 7 301 5 110 7 120 23 109 9
-7 98 -77 199 -156z"/>
</g>
</svg>
