<?xml version="1.0" standalone="yes"?>
<svg xmlns="http://www.w3.org/2000/svg" width="733" height="371">
<path style="fill:#ffffff; stroke:none;" d="M0 0L0 371L733 371L733 0L0 0z"/>
<path style="fill:#000000; stroke:none;" d="M248 116L258 123L258 124L155 124L107 123.582L45 91C45 109.66 43.1956 128.364 43.0039 147C42.9719 150.107 42.4356 163.886 47.8349 162.94C51.1248 162.364 54.4461 155.494 57.0046 153.326C65.7683 145.899 77.4787 141.339 88 137.011C91.4115 135.607 96.2719 132.786 99.9097 134.788C106.176 138.236 110.076 148.036 113.424 154C126.956 178.104 120 215.913 120 243C94.748 242.983 73.7318 216.85 50 210C49.5168 233.413 44.6859 258.763 49 282C56.1723 281.443 61.758 271.664 68 267.695C82.5542 258.442 102.613 249.002 120 249L120 266L125 266L125 249L161 249L161 266L167 266L167 249L198 249L198 266L203 266L203 249L239 249L239 266L245 266L245 249C251.209 249 259.06 247.722 265 249.702C280.324 254.81 295.422 269.562 309 278.308C317.374 283.702 329.938 288.949 336.436 296.518C341.039 301.879 341.497 313.278 343.427 320C344.179 322.615 345.079 327.383 348.171 328.248C351.617 329.213 362.997 316.48 367 314.309C384.993 304.548 401.872 299.961 422 297.13C484.433 288.351 546.697 278.087 609 268.424C626.988 265.635 644.975 262.665 663 260.13C672.313 258.821 683.29 259.104 692 256L692 250C668.286 251.018 644.376 243.642 621 239.424C573.263 230.811 525.736 221.037 478 212.424C460.978 209.353 443.984 206.079 427 202.803C418.94 201.248 409.604 200.801 402 197.607C391.884 193.358 381.313 184.09 373 177C404.76 163.777 438.047 160.841 472 155.576L622 132.424C638.661 129.84 655.36 127.472 672 124.754C678.812 123.641 685.496 124.322 692 122L692 116C660.638 117.347 626.906 106.765 596 100.803C539.41 89.8871 482.779 78.6331 426 68.75C408.496 65.7033 397.452 61.3866 383 50.8488C378.672 47.6929 368.924 37.5637 363.17 38.8279C359.381 39.6603 356.235 45.225 353.92 48C347.419 55.7906 341.095 66.2677 332.961 72.3627C308.167 90.9398 274.806 100.354 248 116z"/>
<path style="fill:#ffffff; stroke:none;" d="M364 45L349 64L355 62L346 74L394 67L394 66L364 45M337 162L333 144L392 161.646L428 156.272L506 144.272L604 129.272L662 120C653.906 116.109 642.825 115.737 634 114.001C613.711 110.009 593.35 106.247 573 102.576C535.613 95.83 498.341 88.3854 461 81.3889C436.072 76.718 412.369 70.1096 387 73.1551C374.189 74.6931 349.956 74.6754 339.529 82.8542C334.465 86.826 331.534 95.213 329.201 101C321.594 119.865 318.135 148.073 337 162M260 117L260 118L274 125L287 136L328 162C319.4 146.492 314.925 132.855 318.665 115C320.828 104.676 329.963 93.2701 327 83C304.673 89.5675 280.128 105.241 260 117M51 101C46.7114 115.509 49 135.805 49 151C56.3151 146.486 63.1897 141.48 71 137.781C79.7794 133.623 88.6937 132.354 93 123L51 101M106 130L122 158L124 158L141 134C134.237 126.336 115.548 130 106 130M164 158C167.993 154.453 181.687 139.708 178.288 134.214C175.475 129.668 152.419 126.466 150.447 132.318C148.801 137.202 161.272 153.327 164 158M200 158L202 158C205.085 153.001 219.222 138.991 217.542 133.228C215.726 126.998 191.973 128.51 189.578 134.059C187.228 139.503 197.736 152.563 200 158M242 158L263 130L237 130L228.458 132.318L231.922 140L242 158M269 131L245.728 165L245 190L245 243L256 243L256 242L250 239L250 238C274.342 227.865 297.405 213.558 321 201.753C325.754 199.374 342.635 193.387 343.498 187.787C344.96 178.296 333.455 172.818 327 168.808C307.478 156.68 289.065 142.171 269 131M145 138L125.513 166L125 191L125 243L161 243C161 209.79 170.057 164.164 145 138M223 138L203.564 166L203 191L203 243L239 243C239 211.403 248.932 161.768 223 138M184 141L167.564 165L167 190L167 243L198 243C198 210.872 206.652 167.066 184 141M341 152C343.43 164.529 345.832 170.93 356 179L357 179L363 171C369.695 173.875 376.669 168.456 383 166L383 165L341 152M340 210L394 201C389.163 195.707 372.521 180.576 365.015 181.578C356.798 182.675 343.564 203.019 340 210M349.333 183.667L349.667 184.333L349.333 183.667M332 202L262 238L262 240L327 282C316.406 262.895 314.251 245.907 321.692 225C324.188 217.989 331.788 209.107 332 202M334 280C334 276.336 347.796 281.932 351 283C369.778 289.259 387.295 297.498 407 293.667C465.306 282.329 525.955 272.561 585 266C610.11 263.21 638.759 261.017 663 254C655.05 250.431 644.58 249.997 636 248.389C617.333 244.891 598.626 241.502 580 237.8C539.092 229.67 498.044 221.981 457 214.576C437.018 210.97 416.292 204.188 396 206.075C376.926 207.848 345.903 208.609 330.419 221.185C326.959 223.995 325.933 229.91 324.721 234C320.376 248.662 321.299 269.476 334 280M55 219L54 270L83 253.309L102 245L55 219M341 286C343.67 291.258 364.949 309.222 345 301L349 319L383 300L383 299L341 286z"/>
</svg>
