<?xml version="1.0" standalone="no"?>
<!DOCTYPE svg PUBLIC "-//W3C//DTD SVG 20010904//EN"
 "http://www.w3.org/TR/2001/REC-SVG-20010904/DTD/svg10.dtd">
<svg version="1.0" xmlns="http://www.w3.org/2000/svg"
 width="512.000000pt" height="371.000000pt" viewBox="0 0 512.000000 371.000000"
 preserveAspectRatio="xMidYMid meet">
<metadata>
Created by potrace 1.16, written by Peter Selinger 2001-2019
</metadata>
<g transform="translate(0.000000,371.000000) scale(0.100000,-0.100000)"
fill="#000000" stroke="none">
<path d="M3825 3271 c-34 -5 -40 -10 -40 -30 0 -20 8 -27 43 -39 52 -17 117
-81 181 -176 50 -75 111 -179 111 -190 0 -3 -339 -6 -753 -6 l-753 0 -224 200
c-124 110 -228 200 -231 200 -4 0 -8 -85 -10 -189 -2 -104 -7 -193 -11 -196
-4 -4 -245 -10 -535 -12 l-528 -5 -300 175 c-296 172 -300 174 -307 149 -4
-14 -10 -174 -14 -356 -7 -342 -4 -376 32 -376 8 0 21 15 29 34 14 32 98 116
117 116 10 0 2 -303 -12 -480 -5 -63 -12 -284 -15 -490 -3 -206 -8 -387 -11
-402 l-6 -28 -45 35 c-25 19 -49 35 -53 35 -9 0 -20 -315 -20 -556 0 -149 3
-184 15 -194 22 -18 41 -6 49 31 13 65 145 169 343 268 l103 51 614 0 615 0
-6 -232 c-3 -133 -1 -248 4 -268 12 -46 44 -48 58 -5 35 104 155 205 408 339
l104 56 761 0 762 0 0 -185 0 -185 25 0 25 0 0 1048 0 1048 250 394 c207 328
247 396 232 401 -18 7 -790 30 -902 28 -36 -1 -83 -5 -105 -8z m932 -65 c3 -2
-93 -158 -213 -347 -217 -342 -218 -343 -231 -313 -167 375 -248 517 -354 627
l-48 50 421 -6 c232 -4 423 -9 425 -11z m-2385 -228 l160 -143 -73 -3 c-41 -2
-116 0 -166 3 l-93 7 0 139 c0 76 3 139 6 139 3 0 78 -64 166 -142z m-1574
-48 c117 -67 212 -124 210 -125 -2 -2 -54 -23 -115 -49 -62 -25 -135 -57 -162
-71 -28 -13 -57 -22 -65 -19 -8 3 -17 -2 -20 -13 -3 -10 -20 -27 -38 -37 -17
-11 -49 -35 -71 -55 l-39 -35 7 274 c4 151 9 279 12 283 3 4 19 -1 36 -11 18
-11 128 -75 245 -142z m1115 -164 c44 -18 118 -103 176 -201 38 -64 49 -93 53
-138 l5 -57 -424 0 -423 0 -273 126 c-149 70 -274 128 -277 131 -7 6 16 19
118 64 213 93 177 88 620 89 309 0 400 -3 425 -14z m227 -83 l0 -98 -44 65
c-24 36 -55 76 -70 89 -14 14 -26 28 -26 33 0 4 32 8 70 8 l70 0 0 -97z m380
93 c0 -2 -17 -15 -37 -27 -75 -45 -183 -130 -237 -185 l-56 -56 0 136 0 136
165 0 c91 0 165 -2 165 -4z m1672 -83 c22 -49 56 -127 74 -175 l34 -87 0 -826
0 -825 -759 0 -759 0 -89 68 c-49 37 -161 123 -251 191 l-162 124 0 574 c0
375 3 573 10 573 6 0 10 7 10 16 0 20 285 419 314 439 17 13 131 15 779 15
l758 0 41 -87z m-1822 -165 c-56 -79 -106 -147 -110 -152 -9 -9 -40 44 -40 68
0 22 96 122 175 182 38 29 71 51 73 49 2 -2 -42 -68 -98 -147z m-1393 -65
c136 -63 249 -116 251 -118 1 -1 -59 -24 -135 -50 -176 -61 -283 -108 -355
-155 l-58 -38 0 86 c0 48 3 158 7 245 6 144 8 157 24 152 10 -3 129 -58 266
-122z m1243 -376 l0 -224 -227 -6 c-126 -4 -382 -10 -570 -14 l-341 -6 -176
114 c-96 63 -175 116 -176 119 0 11 108 71 191 106 46 20 149 58 229 85 l145
48 463 1 462 0 0 -223z m-1355 -170 c83 -54 151 -101 152 -105 2 -4 -40 -29
-92 -55 -53 -27 -129 -73 -170 -102 -62 -45 -76 -51 -86 -39 -17 21 -7 361 11
391 8 12 19 19 25 15 5 -3 78 -50 160 -105z m1355 -342 l0 -235 -575 0 -575 0
-163 111 c-89 60 -162 115 -162 122 0 18 110 91 231 153 l112 57 478 12 c264
7 518 13 567 13 l87 2 0 -235z m-1366 -151 c86 -58 156 -107 156 -110 0 -3
-21 -15 -47 -26 -74 -32 -204 -107 -248 -143 -22 -17 -46 -30 -52 -28 -10 4
-13 46 -13 166 0 143 2 166 21 204 11 24 22 43 24 43 2 0 74 -48 159 -106z
m1363 -281 c-4 -75 -7 -162 -7 -195 l0 -58 -619 0 -618 0 -124 90 c-68 50
-125 95 -127 100 -5 14 124 94 241 151 l102 49 579 0 579 0 -6 -137z m-1622
-101 c12 -81 35 -95 62 -38 9 20 20 35 24 34 13 -6 228 -163 228 -168 1 -3
-33 -23 -75 -44 -101 -52 -214 -126 -269 -177 l-45 -42 0 84 c0 46 3 168 7
271 l6 187 26 -20 c21 -17 28 -34 36 -87z m2124 -282 c1 -3 -34 -23 -76 -44
-109 -53 -257 -152 -329 -219 l-61 -56 5 272 c2 150 8 276 13 281 5 6 9 31 9
58 l0 47 219 -167 c121 -92 220 -169 220 -172z"/>
</g>
</svg>
