<?xml version="1.0" standalone="yes"?>
<svg xmlns="http://www.w3.org/2000/svg" width="512" height="371">
<!-- <path style="fill:#ffffff; stroke:none;" d="M0 0L0 371L512 371L512 0L0 0z"/>
--><path style="fill:#000000; stroke:none;" d="M412 88L308 88C295.154 88 275.008 91.845 263 87.2577C244.257 80.0978 233.33 55.5356 215 47L214 87C189.642 87 165.39 88 141 88C131.14 88 118.507 90.0938 109 87.3619C86.4614 80.8852 68.9549 58.2522 46 53C46 72.361 45 91.6096 45 111C45 114.571 42.9501 127.879 48.0401 128.534C51.8112 129.019 60.7327 116.661 64 114L59 253L48 246C48 264.983 47 283.961 47 303C47 306.934 44.9674 319.423 48.588 321.914C52.3944 324.532 57.0269 314.109 59.044 312.015C68.6652 302.025 81.6929 295.744 94 289.757C105.402 284.211 121.546 287 134 287L221 287C217.395 299.196 220 315.289 220 328C220 331.116 218.698 338.81 222.414 340.338C226.562 342.043 232.394 328.696 235.04 326.039C246.028 315.009 263.234 304.097 278 298.966C291.19 294.383 311.067 298 325 298L429 298L429 335L435 335L435 192L435 148C435 141.473 433.694 133.305 435.51 127C437.536 119.964 443.715 113.167 447.576 107C459.862 87.3744 477.805 66.6209 486 45C458.3 45 430.713 43 403 43C398.819 43 377.867 40.5601 377.867 47.0355C377.867 50.9314 387.344 53.8188 389.985 56.1852C399.648 64.8413 405.34 77.1185 412 88z"/>
<path style="fill:#ffffff; stroke:none;" d="M392 49L392 50C410.661 64.856 425.777 96.2482 432 119L433 119L475 51L392 49M220 60L220 87L252 88C245.103 78.2896 230.919 64.8665 220 60M52 63L50 117C55.1345 113.493 62.948 109.506 64 103C72.9355 105.431 92.3538 95.0775 100 90C85.31 81.0093 68.4041 68.1929 52 63M220 93L219 119L250 95C242.354 90.4195 228.716 93 220 93M76 107L76 109L131 133.61L159 134L214 134C214 120.676 204.569 99.9259 191 94.7423C177.99 89.7722 155.931 94 142 94C130.419 94 116.171 91.7806 105 95.0432C94.9605 97.9753 85.6085 103 76 107M201 94L213 111L214 111L214 94L201 94M231 140L228 140L228 221C228 229.738 224.841 246.15 229.028 253.91C233.658 262.492 248.279 270.022 256 275.87C262.513 280.803 270.058 289.141 278 291.487C291.515 295.479 310.898 292 325 292L429 292L429 153C429 136.192 428.702 123.547 421.694 108C419.983 104.203 418.55 98.4272 415.362 95.6034C412.056 92.6745 405.091 94 401 94L363 94L290 94C282.243 94 268.047 91.2796 261.184 95.179C253.776 99.3884 247.886 112.136 243 119C238.455 125.385 231.872 131.967 231 140M244 105C235.985 111.361 218.52 121.197 225 133C230.579 128.392 244.609 112.338 244 105M70 113L68 160L122 137L99 125.691L70 113M74 163L74 165L109 186.581L145 186.015L222 185L222 140C171.397 140 118.528 133.634 74 163M69 169C63.4815 179.606 67 198.178 67 210L101 191L101 189L69 169M74 213C80.7337 221.147 97.74 233.536 108 236.49C118.526 239.521 133.058 237 144 237L222 237L222 190L154 192L108 193.789L74 213M69 219C63.9404 229.881 62.5746 247.412 66 259L101 240C93.0262 232.364 79.5338 222.357 69 219M73 264L98 281.436L136 282L221 282L222 243L145 243C133.306 243 119.444 240.956 108 243.39C97.7861 245.562 77.8483 254.511 73 264M53 257L52 309L90 285L90 283L67 268C65.4775 271.756 64.0571 273.356 60 274C59.1263 267.087 59.799 260.645 53 257M228 262L226 326L227 326C236.612 312.467 255.922 302.277 271 296L271 294L228 262z"/>
</svg>
