<?xml version="1.0" standalone="yes"?>
<svg xmlns="http://www.w3.org/2000/svg" width="466" height="371">
<path style="fill:#ffffff; stroke:none;" d="M0 0L0 371L466 371L466 0L0 0z"/>
<path style="fill:#000000; stroke:none;" d="M383 110L315 110L320 103C315.04 104.581 311.097 108.693 306 109.722C284.468 114.072 258 110 236 110C246.161 88.2364 265.332 68.1034 272 45C247.645 43.9541 223.443 43 199 43C195.01 43 177.751 40.6716 176.921 46.0934C176.384 49.6011 188.864 56.827 191.24 60C202.738 75.3579 208.121 93.3273 217 110L151 110C141.504 110 129.129 112.09 120 109.351C95.4489 101.985 76.1876 74.8569 51 70C51 122.847 49.6524 175.287 51.9606 228C52.8224 247.68 48.3887 267.715 53.2894 287C56.769 300.693 52.9775 317.007 53 331C53.0051 334.198 52.2364 344.034 56.2978 345.248C60.2111 346.419 65.3367 335.939 68.0394 333.616C79.2276 324 93.4873 317.631 107 312.012C141.003 297.872 185.477 305 222 305L222 326L228 326L228 305L388 305L388 324L393 324L393 186L393 143L393.638 122L406.799 98L438 43C414.28 40.0023 388.909 40.1161 365 40.0008C360.916 39.9811 343.181 38.494 342.466 44.0401C341.99 47.7347 354.931 55.7569 357.482 59C369.322 74.0492 375.004 92.9067 383 110z"/>
<path style="fill:#ffffff; stroke:none;" d="M355 46L375.742 78L391 113L428 48L355 46M189 48L189 49C201.372 58.1126 208.933 76.226 214.85 90C216.799 94.539 219.703 107.272 224.403 109.377C230.005 111.887 234.169 100.471 236.15 97C245.017 81.4671 255.431 66.1924 263 50L189 48M57 80C56.7049 94.2986 55.6651 108.709 55.0394 123C54.8836 126.556 53.4621 135.772 56.6034 138.263C60.0598 141.004 67.2015 133.811 70 132.065C82.8909 124.021 98.5505 120.267 111 112C94.553 101.117 75.5154 86.7787 57 80M64 144C77.3147 151.086 90.0654 159.439 103 167.2C108.435 170.461 114.647 175.704 121 176.775C143.665 180.6 169.991 177 193 177C203.014 177 213.381 177.239 220.397 168.482C224.477 163.39 222 150.261 222 144C222 136.508 224.48 122.658 218.914 116.603C216.52 113.999 211.169 115 208 115L180 115C161.062 115 139.671 112.208 121 115.326C109.799 117.196 98.0686 123.719 88 128.753C79.8221 132.841 69.9235 136.833 64 144M228 163C253.951 153.164 275.719 129.518 300 116C295.031 113.915 288.35 115 283 115L247 115C241.842 115 233.87 113.311 230.483 118.148C223.572 128.018 228 151.285 228 163M274 177L387 177L387 183L303 183C295.643 183 277.694 179.702 271.649 184.028C267.862 186.738 266.719 194.768 265.63 199C262.074 212.812 261 225.792 261 240L388 240L388 152C388 142.685 391.319 125.222 385.583 117.318C381.32 111.445 358.852 115 352 115C340.691 115 321.617 111.291 311.174 115.603C306.024 117.73 302.29 125.573 299.333 130C289.804 144.268 278.572 160.284 274 177M294 126C278.088 138.231 260.698 148.868 244 160C237.202 164.532 228.295 167.931 228 177C238.263 177 256.404 180.553 265.775 176.397C269.69 174.661 271.457 167.583 273.247 164C277.492 155.504 281.845 147.106 286.811 139C289.256 135.01 293.445 130.681 294 126M59 148C54.1486 159.497 56.0193 178.497 56 191C55.9925 195.84 55.3566 202.821 62.0046 203.356C67.0121 203.76 72.8356 198.185 77 195.862C88.069 189.686 99.9882 184.064 112 180L87 164.2L59 148M221 175L220 177L222 177L221 175M69 207L69 209L121 239.351L146 240L197 240L197 239L157 212L157 211L198 184C188.926 180.192 173.847 183 164 183C149.852 183 132.808 180.409 119 183.529C101.482 187.487 84.502 198.404 69 207M168 211C179.628 225.283 203.873 240 222 240L222 183C201.375 183 184.547 199.744 168 211M228 183L228 240L255 240C255 220.173 257.833 201.58 265 183L228 183M112 243L112 241C99.7911 234.229 87.9771 226.586 76 219.4C72.6243 217.374 66.2483 211.672 62.1088 213.828C57.4261 216.267 58.0017 222.608 58 227C57.9964 236.436 51.5837 261.958 65 264.076C69.6954 264.818 75.0729 259.854 79 257.781C89.6255 252.171 100.604 246.855 112 243M72 269C86.3007 278.463 105.463 293.969 122 298.501C131.515 301.108 144.152 299 154 299L222 299L222 268C222 264.058 222.931 258.671 220.397 255.326C210.224 241.898 191.57 245 177 245C140.307 245 101.93 242.995 72 269M217 245L217 246L222 248C221.346 244.946 219.993 245.064 217 245M228 245C228.033 254.318 233.715 257.121 241 261.999C252.113 269.441 263.322 277.498 275 284L259.698 258L254.57 245.603L228 245M262 245C266.149 265.048 282.671 291.147 303 298.4C310.293 301.003 321.296 299 329 299L388 299L388 245L262 245M228 261L228 299L287 299L287 298L228 261M59 333C76.0027 321.07 93.5213 308.601 114 303C108.07 292.473 86.3693 284.217 76 278C71.2687 275.163 66.2397 271.483 62.0324 277.19C58.5962 281.851 60.0021 289.536 60 295C59.9951 307.64 59 320.299 59 333z"/>
</svg>
