<?xml version="1.0" standalone="no"?>
<!DOCTYPE svg PUBLIC "-//W3C//DTD SVG 20010904//EN"
 "http://www.w3.org/TR/2001/REC-SVG-20010904/DTD/svg10.dtd">
<svg version="1.0" xmlns="http://www.w3.org/2000/svg"
 width="674.000000pt" height="371.000000pt" viewBox="0 0 674.000000 371.000000"
 preserveAspectRatio="xMidYMid meet">
<metadata>
Created by potrace 1.16, written by Peter Selinger 2001-2019
</metadata>
<g transform="translate(0.000000,371.000000) scale(0.100000,-0.100000)"
fill="#000000" stroke="none">
<path d="M5685 3101 l-430 -336 -265 7 c-146 4 -623 9 -1060 12 -437 3 -1076
8 -1420 11 l-624 6 -565 204 c-311 113 -566 203 -568 201 -8 -8 -34 -513 -35
-696 -2 -215 3 -250 41 -250 10 0 29 17 42 37 13 21 50 54 84 74 125 75 431
181 783 270 l173 44 20 -25 c29 -36 141 -268 185 -385 l39 -100 3 -547 3 -548
-55 0 c-47 0 -149 34 -666 221 -337 121 -614 219 -616 216 -19 -18 -47 -876
-31 -924 12 -32 39 -38 57 -12 56 83 178 149 431 234 268 89 759 215 839 215
l40 0 0 -231 0 -230 23 3 c22 3 22 3 25 230 l2 228 220 0 220 0 2 -227 3 -228
25 0 25 0 3 228 2 227 250 0 250 0 2 -232 3 -233 23 -3 22 -3 0 235 0 236 240
0 240 0 0 -236 0 -235 23 3 22 3 3 233 2 232 220 0 220 0 2 -233 3 -232 25 0
25 0 3 233 2 232 250 0 250 0 2 -237 3 -238 23 -3 22 -3 0 240 0 241 197 0
197 0 -33 -28 -33 -27 468 -232 c603 -298 642 -314 665 -287 12 14 9 20 -16
41 -17 14 -73 53 -125 87 -108 70 -173 145 -210 243 -29 74 -38 243 -20 347
31 177 116 375 245 571 14 21 16 27 5 20 -8 -5 -209 -161 -447 -347 l-432
-338 -231 0 -230 0 0 532 0 531 157 289 157 288 53 0 c29 0 53 -2 53 -4 0 -2
-21 -20 -46 -39 l-47 -37 440 -218 c458 -227 640 -312 672 -312 20 0 35 25 25
41 -3 5 -44 33 -91 61 -159 97 -243 197 -279 332 -18 69 -18 229 2 322 31 152
114 347 211 498 24 37 43 69 41 71 -2 1 -196 -149 -433 -334z m236 91 c-29
-58 -86 -228 -106 -317 -21 -95 -24 -249 -6 -325 19 -81 75 -189 121 -237 23
-24 39 -43 37 -43 -10 0 -733 358 -750 372 -16 12 14 39 350 301 202 158 368
287 370 287 2 0 -5 -17 -16 -38z m-4568 -253 c296 -107 397 -147 396 -159 -3
-30 1 -38 24 -44 15 -5 -38 -23 -183 -62 -398 -107 -698 -219 -783 -293 l-37
-33 0 157 c0 155 15 510 26 592 l5 42 77 -28 c42 -15 256 -93 475 -172z m976
-243 l23 -25 -118 -217 -118 -218 -14 35 c-82 203 -120 288 -156 350 l-44 74
42 12 c22 6 113 11 202 12 158 1 161 1 183 -23z m535 16 c5 -9 -246 -474 -252
-467 -3 2 -26 57 -51 122 -26 65 -70 162 -98 215 -46 88 -50 98 -36 117 14 20
23 21 223 21 115 0 211 -4 214 -8z m528 -9 c10 -9 18 -21 18 -26 0 -15 -231
-437 -239 -437 -4 0 -22 39 -41 88 -45 121 -120 277 -163 340 l-36 52 221 0
c192 0 224 -2 240 -17z m512 -12 l29 -30 -118 -216 c-64 -119 -118 -215 -120
-213 -1 2 -24 57 -50 123 -52 131 -103 237 -142 297 -43 64 -32 68 186 68
l187 0 28 -29z m529 17 c15 -12 5 -36 -110 -246 -70 -128 -130 -229 -133 -225
-4 5 -17 37 -30 73 -32 91 -105 251 -139 306 -28 45 -28 48 -12 75 l16 29 196
0 c141 0 200 -3 212 -12z m584 0 c-3 -7 -64 -121 -135 -252 -127 -233 -131
-239 -142 -210 -74 195 -142 341 -195 416 -19 25 -31 49 -28 52 4 3 119 6 256
6 195 0 248 -3 244 -12z m-2016 -213 c32 -66 77 -169 99 -229 l40 -109 0 -538
0 -539 -250 0 -250 0 0 548 0 549 132 242 132 243 20 -24 c10 -12 45 -77 77
-143z m1578 0 c27 -55 69 -155 95 -222 l46 -122 0 -536 0 -535 -250 0 -250 0
0 542 0 542 132 244 133 243 22 -28 c13 -15 45 -73 72 -128z m-1044 -18 c29
-61 71 -157 92 -212 l38 -100 3 -542 2 -543 -240 0 -240 0 0 537 0 537 111
206 c61 113 120 220 131 238 20 33 21 33 35 12 8 -11 38 -71 68 -133z m-1069
-16 c28 -64 66 -156 83 -204 l31 -89 0 -544 0 -544 -220 0 -220 0 0 546 0 547
122 223 c140 259 119 252 204 65z m1548 59 c19 -36 59 -129 90 -207 l56 -142
0 -545 0 -546 -220 0 -220 0 0 541 0 541 122 224 c80 145 125 219 131 211 4
-7 23 -41 41 -77z m1898 -1017 c-11 -21 -33 -76 -50 -123 -109 -310 -83 -566
74 -740 35 -38 25 -34 -248 99 -155 76 -330 162 -387 190 l-103 52 23 25 c12
13 30 24 40 24 10 0 19 6 21 14 4 17 642 517 646 506 2 -5 -6 -26 -16 -47z
m-4596 -237 c281 -101 525 -190 544 -198 l34 -14 -60 -13 c-135 -29 -451 -116
-616 -171 -193 -64 -351 -133 -410 -181 l-38 -30 0 157 c0 220 22 634 34 634
2 0 232 -83 512 -184z"/>
</g>
</svg>
