<?xml version="1.0" standalone="no"?>
<!DOCTYPE svg PUBLIC "-//W3C//DTD SVG 20010904//EN"
 "http://www.w3.org/TR/2001/REC-SVG-20010904/DTD/svg10.dtd">
<svg version="1.0" xmlns="http://www.w3.org/2000/svg"
 width="385.000000pt" height="371.000000pt" viewBox="0 0 385.000000 371.000000"
 preserveAspectRatio="xMidYMid meet">
<metadata>
Created by potrace 1.16, written by Peter Selinger 2001-2019
</metadata>
<g transform="translate(0.000000,371.000000) scale(0.100000,-0.100000)"
fill="#000000" stroke="none">
<path d="M2970 3454 c-304 -42 -654 -95 -693 -105 -31 -8 -38 -14 -35 -32 2
-18 12 -23 56 -29 63 -9 105 -30 192 -94 70 -52 257 -237 264 -263 9 -28 127
-793 124 -797 -2 -1 -53 14 -113 35 -61 21 -450 154 -865 296 l-755 257 -204
334 c-112 184 -207 334 -211 334 -3 0 -26 -69 -49 -152 -24 -84 -94 -331 -157
-548 -172 -594 -183 -640 -142 -648 11 -2 26 11 41 35 52 82 226 141 509 172
l86 10 549 -183 548 -183 -85 -26 c-47 -15 -276 -87 -508 -161 l-424 -134
-321 103 c-177 57 -323 102 -325 100 -4 -4 73 -335 138 -595 27 -107 72 -301
99 -430 63 -291 76 -339 96 -359 15 -15 17 -14 31 3 8 11 12 28 8 38 -9 29 22
131 66 219 72 142 247 396 288 418 26 13 1703 553 1707 549 1 -1 14 -35 28
-75 l26 -72 -125 -578 c-68 -318 -122 -583 -119 -590 5 -14 45 -18 45 -5 0 4
56 268 125 586 69 319 125 580 125 581 0 1 124 85 276 185 207 139 271 186
257 191 -10 3 -139 34 -288 69 -148 35 -271 64 -273 66 -7 5 -152 948 -148
959 2 6 85 126 183 266 99 140 183 260 187 267 10 16 -2 15 -214 -14z m92 -71
c-11 -16 -74 -107 -142 -203 -67 -96 -126 -179 -130 -184 -5 -4 -55 39 -112
96 -105 107 -182 170 -253 207 -22 12 -35 21 -30 21 6 1 145 20 310 44 165 24
317 44 338 45 l38 1 -19 -27z m-2144 -388 c102 -166 156 -262 148 -266 -6 -4
-40 -9 -76 -13 -36 -3 -93 -12 -128 -20 l-63 -13 -54 83 c-29 45 -63 100 -76
121 l-22 40 48 172 c26 95 51 169 56 164 4 -4 79 -125 167 -268z m-229 -236
c49 -77 55 -99 28 -99 -7 0 -45 -16 -85 -35 -40 -19 -72 -31 -72 -28 0 21 64
243 70 243 4 0 30 -36 59 -81z m1244 -359 c451 -155 826 -284 834 -288 8 -5
-106 -46 -279 -100 l-292 -93 -570 191 c-314 105 -576 194 -581 198 -6 4 -57
79 -113 167 l-103 160 33 8 c28 8 195 33 236 36 8 1 383 -125 835 -279z
m-1058 69 c53 -84 93 -155 88 -159 -4 -3 -53 -12 -108 -19 -128 -15 -283 -54
-360 -91 -33 -16 -61 -27 -62 -26 -2 2 14 63 35 137 38 134 44 146 113 218 34
35 142 89 180 91 11 0 52 -55 114 -151z m2019 -411 c3 -13 6 -34 6 -47 0 -19
-4 -22 -22 -17 -13 3 -51 11 -85 18 -35 6 -63 15 -63 18 0 7 123 48 146 49 7
1 14 -9 18 -21z m-240 -92 c23 -13 57 -46 77 -73 43 -56 109 -167 109 -182 0
-8 -424 129 -527 171 -26 10 -19 14 117 58 80 27 154 48 164 49 11 1 38 -10
60 -23z m451 -78 c165 -38 302 -71 303 -73 2 -2 -94 -69 -214 -149 l-218 -145
-36 93 c-45 114 -108 233 -162 305 l-40 53 33 -7 c19 -4 169 -38 334 -77z
m-593 -129 c164 -56 297 -104 295 -106 -2 -2 -379 -125 -838 -273 l-834 -270
-110 42 c-60 22 -120 45 -133 49 l-23 9 28 37 c50 68 190 237 216 262 19 17
167 68 539 186 282 90 524 164 537 164 13 1 158 -45 323 -100z m-1728 -139
c138 -44 257 -82 264 -85 8 -3 -17 -39 -65 -97 -43 -51 -96 -118 -117 -148
-22 -30 -41 -57 -43 -59 -1 -2 -48 13 -104 34 -70 27 -104 45 -110 59 -7 18
-89 357 -89 371 0 9 8 6 264 -75z m-54 -412 c30 -11 56 -22 58 -23 2 -2 -9
-23 -24 -47 -15 -23 -38 -68 -51 -98 -12 -30 -23 -52 -23 -49 0 8 -37 192 -45
228 -5 20 -3 22 12 16 10 -4 43 -16 73 -27z m236 -88 c60 -22 115 -42 122 -45
10 -4 5 -17 -18 -48 -113 -151 -235 -353 -270 -447 -12 -35 -13 -33 -45 110
-42 190 -38 243 30 377 26 51 53 93 60 93 7 0 61 -18 121 -40z"/>
</g>
</svg>
