<?xml version="1.0" standalone="yes"?>
<svg xmlns="http://www.w3.org/2000/svg" width="385" height="371">
<!-- <path style="fill:#ffffff; stroke:none;" d="M0 0L0 371L385 371L385 0L0 0z"/>
--><path style="fill:#000000; stroke:none;" d="M319 22C296.957 28.5766 270.857 28.9175 248 32.1304C242.996 32.8338 226.58 33.0538 224.256 38.2199C222.586 41.933 228.894 42.3699 231.001 42.8989C241.333 45.4936 250.347 52.9637 258 60.0895C263.765 65.4576 271.224 71.7806 274.687 79C277.61 85.0947 277.527 93.387 278.59 100C281.558 118.483 282.365 139.181 288 157L174 118.333L136 105.333L116.21 98.1566L105.189 82L83.6813 47L72 31C64.1861 65.0844 52.0436 98.201 43.1157 132C41.2893 138.914 31.8485 159.21 36.0664 165.638C38.1442 168.805 41.2682 165.721 42.8611 163.905C52.3844 153.05 67.3446 150.382 81 148.081C125.411 140.599 165.994 174.649 209 181L209 182L136 204.859L109 212.49L44 193C53.6657 227.382 61.6867 262.998 68.8009 298C70.5649 306.679 72.4169 315.424 74.6296 324C75.3153 326.657 76.0229 331.346 79.1659 332.248C83.5964 333.52 84.3718 318.181 85.615 315C91.7128 299.4 103.637 275.872 117.174 265.563C127.268 257.876 145.956 255.504 158 251.656C188.055 242.053 217.945 231.947 248 222.344C258.011 219.146 268.023 215.984 278 212.667C281.729 211.427 286.091 209.263 288.925 213.163C296.543 223.648 290.19 238.712 287.789 250C281.268 280.669 273.969 311.218 268 342L274 343L292.119 259L299.938 226.093L316 214L354 189L354 187C341.37 182.261 327.123 180.317 314 177.13C309.212 175.967 302.408 175.754 298.303 172.86C293.329 169.355 293.668 156.591 292.754 151C289.924 133.686 287.372 116.323 284.59 99C283.587 92.7565 280.245 83.0259 282.738 77C288.391 63.3394 301.271 50.0382 309.859 38C312.861 33.7914 319.44 27.2976 319 22z"/>
<path style="fill:#ffffff; stroke:none;" d="M240 39L240 40L279 71L307 30L240 39M74 45L65.8225 79L73.3079 92L81.0934 101.227L107 98L85.6813 62L74 45M62 88L57 111L74 104L64 88L62 88M84 107C86.8865 116.058 97.1772 134.602 105.185 139.914C111.209 143.91 120.169 145.39 127 147.667C142.65 152.883 158.548 157.648 174 163.424C186.651 168.154 206.47 178.771 220 178.157C238.845 177.301 258.452 164.839 277 161C263.23 150.7 239.265 147.302 223 141.656C197.708 132.876 172.393 124.162 147 115.667C135.773 111.911 123.808 105.616 112 104.184C102.591 103.044 93.2876 106.261 84 107M44 153C61.8153 146.625 78.129 142.385 97 140C93.2171 132.894 84.5045 113.27 76.8156 110.353C72.944 108.885 66.2287 112.527 63 114.479C50.0568 122.305 45.8979 138.906 44 153M275 169L290 172L289 163L275 169M230 182L284 200C279.733 190.86 272.993 177.235 263 173.407C255.519 170.542 236.599 177.968 230 182M276 175L298 218C310.916 211.89 331.265 200.318 340 189L276 175M88 250L113 258.725L132 253.667L168 242L280 206C268.805 197.625 249.281 194.76 236 190.333C230.535 188.512 223.857 184.977 218 185.558C199.226 187.421 179.074 197.835 161 203.28C146.72 207.582 125.528 210.557 113.17 218.854C103.692 225.217 93.0524 239.855 88 250M52 201C54.9277 211.414 55.0759 230.988 61.9375 239.351C63.8398 241.67 67.3189 242.411 70 243.424C73.2103 244.636 78.1617 247.512 81.6752 246.303C84.9244 245.185 87.2016 240.556 89.2106 238C94.4422 231.345 100.331 225.058 105 218L52 201M65 248L69 270L70 270L78 252L65 248M84 255C70.6799 276.764 74.9394 290.3 78 314L79 314L109 264L84 255z"/>
</svg>
