<?xml version="1.0" standalone="no"?>
<!DOCTYPE svg PUBLIC "-//W3C//DTD SVG 20010904//EN"
 "http://www.w3.org/TR/2001/REC-SVG-20010904/DTD/svg10.dtd">
<svg version="1.0" xmlns="http://www.w3.org/2000/svg"
 width="558.000000pt" height="371.000000pt" viewBox="0 0 558.000000 371.000000"
 preserveAspectRatio="xMidYMid meet">
<metadata>
Created by potrace 1.16, written by Peter Selinger 2001-2019
</metadata>
<g transform="translate(0.000000,371.000000) scale(0.100000,-0.100000)"
fill="#000000" stroke="none">
<path d="M1068 3323 c-379 -591 -575 -924 -562 -957 10 -27 34 -26 68 4 50 44
150 87 277 119 213 54 646 104 1004 117 l170 6 1435 -346 c789 -190 1443 -349
1453 -354 11 -4 -460 -119 -1260 -306 -703 -165 -1286 -301 -1295 -304 -16 -4
-18 4 -18 61 l0 65 160 219 160 218 -92 6 c-51 4 -307 7 -569 8 -396 1 -478
-1 -488 -13 -9 -11 -8 -18 4 -30 9 -9 22 -16 29 -16 23 0 95 -71 139 -138 25
-37 65 -109 91 -159 46 -92 46 -94 46 -193 0 -92 -2 -101 -17 -96 -73 22
-1096 287 -1098 284 -7 -6 29 -661 51 -928 22 -284 38 -349 79 -334 8 4 20 24
26 46 6 23 22 59 36 82 63 100 299 297 565 470 121 79 346 216 353 216 3 0 6
-168 7 -372 l3 -373 25 0 25 0 3 392 2 392 43 25 c34 19 319 96 357 96 6 0 10
-174 10 -455 l0 -455 25 0 25 0 0 463 0 463 1365 319 1366 320 -3 25 c-2 16
-10 26 -23 28 -47 8 -3012 723 -3032 732 -18 7 -506 467 -784 737 l-66 65 -95
-149z m561 -368 l303 -290 -198 -12 c-495 -30 -874 -90 -1067 -168 -34 -13
-62 -23 -64 -21 -5 5 237 405 411 679 l158 248 77 -73 c42 -41 213 -204 380
-363z m409 -1151 l32 -20 -104 -143 c-58 -79 -107 -145 -110 -148 -2 -3 -19
24 -37 58 -45 90 -115 197 -157 243 l-37 38 191 -4 c170 -3 194 -6 222 -24z
m434 17 l87 -6 -117 -162 c-64 -89 -119 -162 -122 -162 -3 -1 -21 29 -39 67
-18 37 -57 104 -87 149 -49 73 -53 84 -42 103 12 18 22 20 123 19 60 -1 149
-4 197 -8z m-272 -222 c81 -139 91 -170 88 -246 l-3 -68 -180 -42 c-98 -23
-189 -40 -202 -37 -22 6 -23 10 -23 118 l0 112 112 153 112 154 23 -29 c13
-16 46 -68 73 -115z m-902 -285 c480 -126 522 -139 522 -158 0 -16 -31 -39
-133 -100 -398 -238 -730 -492 -822 -629 -27 -39 -34 -45 -38 -30 -8 26 -34
380 -52 698 -17 307 -18 355 -7 355 4 0 242 -61 530 -136z"/>
</g>
</svg>
