<?xml version="1.0" standalone="no"?>
<!DOCTYPE svg PUBLIC "-//W3C//DTD SVG 20010904//EN"
 "http://www.w3.org/TR/2001/REC-SVG-20010904/DTD/svg10.dtd">
<svg version="1.0" xmlns="http://www.w3.org/2000/svg"
 width="466.000000pt" height="371.000000pt" viewBox="0 0 466.000000 371.000000"
 preserveAspectRatio="xMidYMid meet">
<metadata>
Created by potrace 1.16, written by Peter Selinger 2001-2019
</metadata>
<g transform="translate(0.000000,371.000000) scale(0.100000,-0.100000)"
fill="#000000" stroke="none">
<path d="M3438 3239 c-30 -17 -20 -39 25 -58 70 -30 142 -122 226 -288 22 -46
41 -85 41 -88 0 -3 -575 -4 -1277 -3 l-1278 3 -325 197 -325 197 -7 -27 c-5
-15 -11 -201 -15 -414 -6 -399 -5 -418 32 -418 7 0 23 21 36 47 27 54 102 119
198 171 l60 33 45 -93 c24 -51 58 -128 75 -171 l31 -78 -2 -599 -3 -598 -204
124 c-113 68 -209 120 -213 116 -5 -5 -11 -193 -15 -418 -6 -372 -5 -410 10
-423 23 -19 44 -8 52 28 16 72 189 188 451 302 l149 64 220 2 c121 1 579 2
1018 2 l797 1 173 -128 c380 -284 439 -321 458 -291 6 10 9 11 9 2 0 -7 11
-13 25 -13 l25 0 0 1018 0 1017 221 383 c122 211 219 385 216 388 -19 19 -898
31 -929 13z m807 -58 l41 -6 -190 -328 -189 -328 -53 132 c-100 249 -194 419
-277 508 l-42 43 335 -7 c184 -4 353 -10 375 -14z m-3410 -231 c121 -73 222
-134 224 -136 2 -2 -72 -1 -165 3 -94 3 -185 1 -204 -4 -48 -13 -47 -42 2 -65
20 -10 53 -39 73 -65 l36 -47 -33 -19 c-105 -63 -137 -86 -177 -122 l-44 -40
7 320 c5 176 10 324 13 328 3 4 15 2 26 -6 12 -8 121 -74 242 -147z m126 -240
c-63 -28 -115 -49 -117 -47 -1 1 -18 23 -38 50 l-36 47 153 0 152 -1 -114 -49z
m181 -170 c-70 -115 -130 -210 -133 -210 -3 0 -16 26 -29 58 -13 31 -40 92
-62 134 -21 43 -38 82 -38 87 0 8 88 49 245 114 33 14 79 26 102 26 l43 1
-128 -210z m735 196 c3 -3 -238 -400 -251 -414 -10 -11 -16 -4 -31 35 -34 92
-138 286 -183 341 l-44 54 254 -7 c139 -4 254 -8 255 -9z m1914 -63 c17 -43
45 -113 60 -156 l29 -78 0 -992 0 -992 -99 100 c-107 110 -153 188 -185 315
-61 242 -1 662 140 992 19 45 33 82 32 83 -5 4 -763 -896 -763 -906 0 -4 36
-36 80 -70 44 -33 82 -63 84 -65 2 -2 -341 -4 -762 -4 l-767 0 0 670 0 670
141 232 c77 128 147 243 155 256 l14 22 904 0 904 0 33 -77z m-2429 8 c47 -55
109 -167 171 -307 l52 -119 3 -677 2 -678 -182 0 -183 1 -95 58 -95 57 -3 620
-2 619 141 233 c77 127 144 232 149 232 5 0 24 -18 42 -39z m2219 -1127 c-48
-191 -64 -328 -58 -489 6 -166 28 -262 86 -373 22 -42 39 -77 38 -78 -4 -4
-564 420 -568 429 -4 8 523 638 529 633 1 -2 -11 -56 -27 -122z m-2700 -506
c148 -88 269 -164 269 -168 0 -3 -37 -21 -82 -39 -140 -57 -329 -157 -405
-216 l-73 -55 0 123 c0 169 12 517 18 517 3 0 126 -73 273 -162z"/>
</g>
</svg>
