<?xml version="1.0" standalone="yes"?>
<svg xmlns="http://www.w3.org/2000/svg" width="466" height="371">
<path style="fill:#ffffff; stroke:none;" d="M0 0L0 371L466 371L466 0L0 0z"/>
<path style="fill:#000000; stroke:none;" d="M373 91L207 91C178.814 91 147.82 94.4694 120 89.7755C113.967 88.7575 108.158 83.8947 103 80.8002C87.8822 71.7297 68.2898 54.334 51 51C51 72.9994 49.9922 95.0459 49.0394 117C48.8787 120.703 48.1618 135.905 53.0401 136.534C56.6756 137.003 59.1015 130.221 61.108 128.004C66.9702 121.527 75.0127 116.442 83 113L97.6713 148L98 187L98 265L55 240C55 261.675 53.0083 283.357 53 305C52.9982 309.618 51.077 322.928 55.5949 325.914C58.6804 327.953 69.7568 313.08 73 310.746C87.7343 300.143 112.481 286.091 131 286.001C173.614 285.793 216.292 286 259 286C278.465 286 301.958 282.369 321 286.279C327.576 287.629 333.759 294.196 339 298.127C354.993 310.121 372.507 328.697 393 329L393 191L393 148L393.638 127L406.799 103L438 48C414.28 45.0023 388.909 45.1161 365 45.0008C360.916 44.9811 343.181 43.494 342.466 49.0401C341.993 52.7115 350.665 56.7065 352.985 59.0154C362.14 68.1245 366.614 80.0585 373 91z"/>
<path style="fill:#ffffff; stroke:none;" d="M355 51L375.742 83L391 118L428 53L355 51M57 61L55 124L79 108C76.8036 102.331 66.4887 97.6298 65.7701 92.9761C65.1572 89.0073 71.6133 89.0372 74 89.0038C83.6626 88.869 93.3363 89 103 89L103 88L57 61M78 95C85.8565 108.779 94.1484 99.2415 106 96L78 95M88 110L100 137L109.05 125L126 96C113.399 96.2684 98.7401 103.733 88 110M138 96C146.895 109.46 156.493 123.236 161 139L170.4 126L187 98L138 96M164 280L315 280L315 279L299 268C322.923 236.257 350.015 203.218 378 175C359.042 221.21 338.449 289.101 388 324L388 168C388 146.004 391.358 116.736 376.006 98.3179C372.106 93.6391 359.542 96 354 96L292 96L225 96C217.106 96 203.565 93.3733 196.329 96.6034C188.02 100.312 180.426 120.291 175.8 128C172.11 134.15 166.134 140.973 164.418 148C160.83 162.698 164 181.861 164 197L164 280M131 99C123.576 114.882 108.686 129.21 103.649 146C101.327 153.738 103 163.964 103 172L103 225L103 257C103 260.694 101.98 266.204 104.603 269.215C117.702 284.248 141.428 280 159 280L159 189C159 171.917 161.27 154.046 154.799 138C149.405 124.622 143.145 107.627 131 99M360 204L324.576 246L308 267L363 308C360.914 300.758 356.777 294.332 354.745 287C351.232 274.321 351.194 260.066 352.09 247C353.025 233.353 361.24 217.163 360 204M61 251L59 314C76.0027 302.07 93.5213 289.601 114 284L99 273L61 251z"/>
</svg>
