<?xml version="1.0" standalone="no"?>
<!DOCTYPE svg PUBLIC "-//W3C//DTD SVG 20010904//EN"
 "http://www.w3.org/TR/2001/REC-SVG-20010904/DTD/svg10.dtd">
<svg version="1.0" xmlns="http://www.w3.org/2000/svg"
 width="506.000000pt" height="371.000000pt" viewBox="0 0 506.000000 371.000000"
 preserveAspectRatio="xMidYMid meet">
<metadata>
Created by potrace 1.16, written by Peter Selinger 2001-2019
</metadata>
<g transform="translate(0.000000,371.000000) scale(0.100000,-0.100000)"
fill="#000000" stroke="none">
<path d="M3937 3451 c-44 -26 -59 -29 -170 -33 -67 -3 -130 -9 -139 -13 -30
-12 -21 -42 20 -62 20 -10 36 -22 36 -27 -1 -5 -188 -115 -415 -243 -228 -129
-417 -237 -421 -241 -7 -7 696 -480 914 -617 43 -26 75 -51 73 -55 -2 -4 -73
-46 -158 -93 l-153 -87 -1029 343 -1029 343 -303 400 c-166 219 -306 400 -311
402 -14 4 -404 -859 -460 -1020 -25 -73 -26 -78 -10 -95 16 -16 20 -14 65 33
97 102 334 167 752 209 271 27 153 56 1269 -316 546 -182 992 -332 990 -334
-2 -2 -72 -42 -157 -90 l-153 -87 -862 -280 c-473 -154 -868 -280 -876 -281
-9 0 -213 70 -453 157 -241 87 -440 157 -442 154 -9 -9 27 -858 46 -1088 12
-149 16 -167 37 -175 19 -7 42 19 42 49 0 36 54 137 117 221 102 134 409 424
639 602 33 26 171 74 754 264 393 127 720 233 727 236 8 3 11 0 8 -9 -7 -18
972 -671 1080 -720 24 -11 29 -10 41 7 18 24 14 28 -107 126 -136 110 -194
194 -225 326 -20 85 -14 218 16 323 26 94 101 252 169 358 49 77 54 81 82 75
33 -6 50 17 29 42 -14 16 -10 24 39 78 31 34 18 35 -34 2 -22 -13 -46 -25 -53
-25 -21 0 -145 106 -185 159 -20 26 -51 78 -69 117 -33 68 -33 71 -33 214 0
137 2 150 32 237 40 115 110 256 124 248 28 -18 153 -307 228 -529 l51 -149 0
-1143 0 -1144 25 0 25 0 0 1150 0 1151 221 430 c121 237 218 433 215 436 -7 7
-314 22 -467 23 -69 0 -129 3 -132 7 -4 4 5 19 20 35 34 35 21 35 -40 -1z
m-2802 -433 l267 -353 -144 -12 c-321 -28 -596 -84 -729 -150 l-77 -38 16 40
c19 50 238 544 323 728 34 75 66 137 70 137 4 0 128 -159 274 -352z m2635 338
c0 -9 -30 -14 -35 -6 -4 6 3 10 14 10 12 0 21 -2 21 -4z m690 -14 c16 -6 -5
-53 -172 -381 l-191 -374 -47 134 c-74 211 -143 370 -206 481 l-26 46 38 57
39 57 274 -7 c150 -3 281 -9 291 -13z m-714 -85 c2 -7 -18 -57 -46 -112 -89
-175 -139 -376 -125 -503 13 -115 55 -225 111 -291 14 -18 25 -34 23 -36 -2
-2 -177 111 -388 251 -211 140 -381 258 -377 261 13 14 772 441 784 442 7 1
15 -5 18 -12z m47 -1224 c-54 -84 -118 -226 -149 -328 -24 -77 -27 -108 -28
-220 -1 -116 2 -138 25 -202 15 -40 45 -99 68 -133 l41 -60 -112 73 c-62 40
-238 157 -391 259 l-278 185 101 57 c80 46 152 74 352 139 227 74 252 84 253
105 1 18 -6 24 -37 34 -21 6 -38 14 -38 17 1 6 209 128 222 130 4 1 -9 -25
-29 -56z m-229 -121 c3 -5 -31 -20 -76 -35 -88 -28 -91 -26 -20 14 48 27 87
36 96 21z m-2586 -609 c204 -75 372 -138 372 -142 -1 -3 -26 -26 -58 -51 -286
-228 -550 -495 -645 -653 l-34 -56 -7 112 c-13 222 -25 496 -32 716 -7 218 -7
224 12 217 10 -4 187 -69 392 -143z"/>
</g>
</svg>
