<?xml version="1.0" standalone="yes"?>
<svg xmlns="http://www.w3.org/2000/svg" width="506" height="371">
<!-- <path style="fill:#ffffff; stroke:none;" d="M0 0L0 371L506 371L506 0L0 0z"/>
--><path style="fill:#000000; stroke:none;" d="M399 22C394.371 24.8332 389.541 28.3506 384 28.8951C377.88 29.4963 369.876 27.3072 364.148 29.8935C356.772 33.2241 365.679 37.7047 369 39L284 87C288.505 95.8165 302.879 101.919 311 107.333C334.253 122.835 357.657 142.153 383 154C376.007 159.747 361.117 170.481 352 171.422C339.386 172.725 319.899 161.475 308 157.344C273.155 145.247 237.992 133.997 203 122.333L165 109.667C158.854 107.618 151.044 106.27 146.171 101.775C137.805 94.0598 131.437 83.0803 124.627 74C111.832 56.9412 98.6973 40.1313 86 23L84 23C72.2102 51.3181 58.2569 78.7892 46.1505 107C43.8105 112.453 33.4434 129.879 38.0278 135.377C40.7791 138.677 54.1111 126.043 58 124.454C79.2932 115.751 103.31 113.331 126 111.17C150.618 108.825 171.878 118.626 195 126.333C226.993 136.998 259.142 147.284 291 158.344C308.288 164.346 326.867 173.322 345 176L345 177L313 193.932L198 231.344L159 244.001L140 249.487L112 239.808L51 218C51 249.967 52.7286 282.139 54.9105 314C55.35 320.419 53.1454 341.142 59.4144 344.914C64.2976 347.851 66.389 334.75 67.7608 332C75.4121 316.66 89.1879 302.705 102 291.576C115.53 279.822 128.953 264.038 145 255.673C155.364 250.27 167.942 248.019 179 244.333C214.424 232.525 252.891 224.101 287 209C291.919 217.108 305.163 222.775 313 228C332.953 241.302 352.83 254.725 373 267.692C379.535 271.893 386.039 276.623 393 280.095C395.04 281.112 399.187 282.969 400.914 280.393C403.973 275.828 392.707 269.178 390 266.999C376.586 256.203 367.452 242.536 366.184 225C363.755 191.388 390.994 169.114 404 144C400.322 145.082 395.85 148.913 392 148.413C387.699 147.854 383.002 142.759 380.015 139.91C368.233 128.675 361.972 113.233 363.09 97C364.204 80.8219 371.936 67.566 378 53L393 83L406.7 123L407 175L407 349L412 349L412 194C412 171.194 407.578 143.26 412.39 121C414.358 111.897 421.067 103.215 425.244 95C435.815 74.205 448.041 53.5195 457 32L438 30.9105L396 29L399 22z"/>
<path style="fill:#ffffff; stroke:none;" d="M86 34C69.9571 61.5908 58.1096 93.4835 46 123C77.1808 114.017 105.844 105 139 105L120.627 79L86 34M374.667 35.3333L375.333 35.6667L374.667 35.3333M382 46L382 47C394.361 64.3607 404.2 89.2621 409 110L421.247 89L447 37L415 35.7145L391.174 35.6034L382 46M294 88L294 89L369 138C359.128 117.126 353.757 101.213 360.721 78C363.824 67.658 374.624 54.4518 374 44L294 88M361 176C363.515 176.664 369.377 178.675 366.338 182.302C362.385 187.02 350.658 188.133 345 190.001C328.402 195.479 312.988 200.827 298 210L328 230.667L373 260C368.544 251.996 364.069 245.07 361.899 236C355.53 209.381 370.354 186.776 381 164C374.643 165.87 364.642 170.326 361 176M347 182L347 183L356 181L347 182M345 183L346 184L345 183M57 227L61 328C68.572 323.372 73.7411 311.587 80.0394 305C96.7718 287.5 114.519 270.441 134 256L134 254C109.1 245.898 82.8542 230.872 57 227z"/>
</svg>
