<?xml version="1.0" standalone="yes"?>
<svg xmlns="http://www.w3.org/2000/svg" width="485" height="371">
<path style="fill:#ffffff; stroke:none;" d="M0 0L0 371L485 371L485 0L0 0z"/>
<path style="fill:#000000; stroke:none;" d="M213 124L211 174L133 125L132 174L54 125C54 151.021 52 176.954 52 203C52 207.629 49.4302 225.559 55.2346 227.248C58.552 228.214 67.822 213.193 71 210.666C88.9788 196.367 110.45 188.612 131 179L132 228C140.022 227.38 146.167 213.197 153 208.156C170.008 195.606 191.014 185.761 211 179L212 227C219.933 226.387 225.333 213.077 232 208.156C248.461 196.005 269.365 184.9 289 178.904C301.319 175.143 318.155 178 331 178L419 178L419 172L330 172L289 171.49L267 158.053L213 124z"/>
<path style="fill:#ffffff; stroke:none;" d="M218 135L217 213L218 213C232.391 192.992 260.627 186.594 281 175L245 151.308L218 135M60 136L58.9606 163L58 214L59 214C73.2152 194.236 101.489 186.935 122 176L95 157.947L60 136M138 136L137 213L201 176L163 150.947L138 136z"/>
</svg>
