<?xml version="1.0" standalone="no"?>
<!DOCTYPE svg PUBLIC "-//W3C//DTD SVG 20010904//EN"
 "http://www.w3.org/TR/2001/REC-SVG-20010904/DTD/svg10.dtd">
<svg version="1.0" xmlns="http://www.w3.org/2000/svg"
 width="506.000000pt" height="371.000000pt" viewBox="0 0 506.000000 371.000000"
 preserveAspectRatio="xMidYMid meet">
<metadata>
Created by potrace 1.16, written by Peter Selinger 2001-2019
</metadata>
<g transform="translate(0.000000,371.000000) scale(0.100000,-0.100000)"
fill="#000000" stroke="none">
<path d="M845 3383 c-270 -423 -499 -799 -556 -914 -47 -97 -25 -129 49 -69
84 67 247 118 507 159 222 35 594 68 830 73 l110 2 1447 -349 c796 -193 1444
-353 1440 -356 -4 -3 -473 -115 -1042 -248 -569 -133 -1043 -244 -1052 -247
-10 -3 -18 0 -18 7 0 6 72 110 159 230 l159 218 -61 6 c-77 8 -1469 13 -1517
5 -53 -8 -51 -35 4 -61 59 -27 113 -92 193 -232 78 -138 85 -160 81 -268 l-3
-86 -553 145 c-304 79 -556 142 -559 138 -12 -12 36 -851 62 -1077 17 -152 27
-182 57 -177 16 2 25 16 38 55 9 29 37 78 61 109 101 131 387 346 772 579
l122 74 3 -379 2 -380 25 0 25 0 0 395 0 394 43 25 c36 21 311 96 353 96 12 0
14 -74 16 -452 l3 -453 25 0 25 0 3 462 c2 429 3 462 20 467 42 12 367 86 379
86 11 0 13 -96 13 -510 l0 -510 25 0 25 0 0 520 c0 286 2 520 5 520 3 0 504
117 1114 260 610 143 1117 260 1125 260 11 0 16 9 16 28 l0 27 -1532 369
-1532 369 -414 396 c-228 218 -417 397 -421 399 -4 1 -38 -46 -76 -105z m463
-333 c233 -222 367 -357 359 -361 -6 -3 -79 -9 -162 -13 -463 -21 -910 -91
-1092 -172 -31 -13 -57 -24 -59 -24 -2 0 15 33 38 73 114 201 528 859 538 855
4 -2 174 -163 378 -358z m466 -1214 c19 -8 36 -19 40 -24 4 -6 -42 -77 -100
-157 l-107 -146 -47 89 c-51 97 -95 165 -142 218 l-30 34 176 0 c129 0 186 -4
210 -14z m475 -4 c18 -10 34 -22 34 -26 0 -5 -46 -73 -103 -152 l-104 -143
-54 98 c-29 54 -71 121 -93 150 -38 51 -39 54 -23 72 15 17 32 19 163 19 122
0 152 -3 180 -18z m499 12 l30 -6 -121 -165 -120 -164 -48 90 c-26 50 -66 117
-89 150 -37 53 -40 61 -28 80 12 20 21 21 179 21 92 0 180 -3 197 -6z m-842
-141 c20 -31 59 -98 86 -149 48 -91 49 -95 46 -170 l-3 -77 -165 -39 c-91 -21
-181 -37 -200 -36 l-35 3 -3 108 -3 108 112 155 c62 85 116 154 120 154 4 0
24 -25 45 -57z m518 -92 c66 -115 93 -177 82 -188 -3 -4 -95 -27 -203 -53
l-198 -46 -3 67 -3 68 112 151 c131 178 113 178 213 1z m-1404 -265 c267 -70
502 -132 523 -137 67 -18 51 -39 -100 -130 -180 -108 -380 -241 -523 -348
-128 -96 -287 -247 -316 -301 l-18 -35 -8 50 c-10 68 -35 425 -48 675 -5 113
-12 240 -15 284 -5 62 -3 77 7 73 8 -2 232 -62 498 -131z"/>
</g>
</svg>
