<?xml version="1.0" standalone="no"?>
<!DOCTYPE svg PUBLIC "-//W3C//DTD SVG 20010904//EN"
 "http://www.w3.org/TR/2001/REC-SVG-20010904/DTD/svg10.dtd">
<svg version="1.0" xmlns="http://www.w3.org/2000/svg"
 width="411.000000pt" height="371.000000pt" viewBox="0 0 411.000000 371.000000"
 preserveAspectRatio="xMidYMid meet">
<metadata>
Created by potrace 1.16, written by Peter Selinger 2001-2019
</metadata>
<g transform="translate(0.000000,371.000000) scale(0.100000,-0.100000)"
fill="#000000" stroke="none">
<path d="M447 3463 c-4 -21 -9 -249 -13 -508 -5 -405 -4 -473 8 -489 22 -29
44 -14 57 40 10 40 26 62 94 129 88 88 188 158 362 254 l110 61 1079 0 c979 0
1078 -1 1072 -16 -3 -9 -6 -229 -6 -489 l0 -473 -162 5 c-197 6 -273 -3 -273
-32 0 -15 12 -24 45 -35 60 -20 87 -36 135 -79 65 -58 133 -140 206 -249 l69
-103 0 -325 0 -324 -645 0 -645 0 0 539 0 539 159 218 160 219 -32 7 c-40 9
-1853 31 -1878 23 -34 -11 -22 -43 24 -63 67 -30 134 -116 222 -290 l45 -87
-2 -367 -3 -366 -75 60 -75 60 -6 -118 c-11 -212 -19 -848 -11 -889 9 -50 37
-59 53 -18 30 77 58 119 115 173 78 72 241 181 374 249 l98 51 1061 0 1061 0
0 -245 0 -245 25 0 25 0 0 603 1 602 228 235 229 235 -57 6 c-31 4 -136 7
-233 8 l-178 1 0 478 0 477 235 242 235 241 -37 6 c-68 9 -867 17 -898 8 -49
-14 -39 -42 22 -62 93 -30 193 -124 313 -292 l41 -58 -1056 0 -1055 0 -268
212 c-147 116 -286 226 -308 245 l-41 33 -6 -37z m318 -277 c132 -104 244
-192 248 -196 5 -4 -31 -29 -80 -54 -139 -74 -307 -191 -384 -267 l-71 -70 6
378 c4 208 10 386 12 396 3 10 10 14 17 10 7 -4 120 -92 252 -197z m2833 178
c21 -4 4 -25 -154 -187 -97 -100 -180 -183 -184 -185 -4 -1 -28 30 -55 70 -64
98 -164 217 -226 271 l-51 43 323 -3 c178 -2 334 -6 347 -9z m-2818 -1056 c19
-9 46 -27 59 -41 l23 -26 -92 -125 c-51 -69 -94 -126 -96 -126 -2 0 -18 28
-35 63 -45 88 -115 195 -157 241 l-37 38 150 -4 c103 -4 161 -10 185 -20z
m130 -3 c-10 -12 -16 -13 -29 -3 -9 7 -18 14 -20 15 -2 2 10 3 29 3 28 0 31
-2 20 -15z m334 -19 c21 -15 35 -34 32 -41 -4 -12 -167 -237 -187 -259 -4 -5
-24 25 -45 65 -20 41 -53 99 -72 129 -19 30 -35 60 -35 66 0 6 11 25 24 43
l24 33 111 -4 c104 -3 113 -5 148 -32z m371 15 c22 -10 50 -29 62 -43 l23 -24
-94 -127 -94 -128 -42 78 c-23 43 -59 104 -81 137 l-39 59 25 33 26 34 87 0
c63 0 98 -6 127 -19z m-295 -1 c0 -5 -2 -10 -4 -10 -3 0 -8 5 -11 10 -3 6 -1
10 4 10 6 0 11 -4 11 -10z m424 -5 c-4 -8 -10 -15 -14 -15 -4 0 -13 7 -20 15
-11 13 -8 15 13 15 19 0 25 -4 21 -15z m398 7 c13 -6 -4 -35 -98 -164 -64 -87
-119 -158 -123 -158 -4 0 -17 19 -27 42 -10 24 -43 80 -71 126 -29 46 -53 86
-53 88 0 2 10 20 23 39 l22 35 155 -1 c85 0 163 -3 172 -7z m-784 -155 c22
-35 58 -100 81 -145 l41 -82 0 -545 0 -545 -185 0 -185 0 0 548 0 548 103 141
c56 78 103 142 104 142 0 1 19 -27 41 -62z m-398 -47 c20 -36 49 -89 64 -117
l26 -53 -2 -526 -3 -526 -172 137 -173 136 0 391 0 390 98 134 c110 152 95
149 162 34z m870 -71 l60 -117 0 -541 0 -541 -180 0 -180 0 0 543 0 543 102
138 101 138 18 -23 c10 -13 45 -76 79 -140z m1728 -115 l61 -7 -177 -183 c-97
-101 -179 -184 -182 -184 -4 0 -32 37 -62 83 -73 107 -177 227 -230 266 l-42
31 286 0 c157 0 312 -3 346 -6z m-2918 -936 l0 -158 30 0 29 0 3 131 3 130
173 -136 c95 -76 171 -139 169 -141 -2 -3 -60 -36 -128 -75 -160 -92 -237
-147 -326 -233 l-73 -69 0 260 c0 143 3 321 6 395 l7 136 53 -42 54 -41 0
-157z"/>
</g>
</svg>
