<?xml version="1.0" standalone="yes"?>
<svg xmlns="http://www.w3.org/2000/svg" width="411" height="371">
<!-- <path style="fill:#ffffff; stroke:none;" d="M0 0L0 371L411 371L411 0L0 0z"/>
--><path style="fill:#000000; stroke:none;" d="M44 21C44 47.0248 43 72.9433 43 99C43 104.113 40.2667 121.664 44.588 124.953C48.8131 128.169 54.9093 112.741 57.3002 110.015C68.7383 96.9724 91.1294 81.431 108 76.6373C114.699 74.7339 123.08 76 130 76L175 76L321 76L321 173L277 174C277.567 181.283 288.624 183.208 294 187.616C304.749 196.429 313.782 208.959 320.637 221C324.329 227.484 323 235.776 323 243L323 288L195 288L195 213L195.843 180L227 135C177.94 135 128.973 133 80 133L45 133C41.8836 133 34.9379 131.806 33.1759 135.263C31.4513 138.647 38.0958 140.904 39.9992 142.394C47.4287 148.207 52.3373 156.85 56.7693 165C69.9201 189.184 64 222.956 64 250L48 238C47.9971 264.314 46 290.636 46 317C46 322.335 43.2218 339.782 48.4144 342.914C51.9571 345.05 59.3848 329.696 62.0147 327C74.5696 314.128 94.4036 299.632 112 294.637C118.7 292.736 127.079 294 134 294L178 294L323 294L323 344L328 344L328 259C328 249.485 324.742 232.571 329.028 224C338.792 204.472 366.067 194.478 374 174L327 173L327 107C327 99.4418 324.602 86.8516 328.028 80C338.127 59.7982 364.437 49.6279 374 29C349.282 29 324.723 28 300 28C296.279 28 276.641 25.7198 277.466 31.8812C277.94 35.4199 289.108 38.714 292 40.8997C302.231 48.6329 309.854 59.4945 317 70L173 70L130 70L109 69.436L94 58.6505L60 31.7893L44 21z"/>
<path style="fill:#ffffff; stroke:none;" d="M50 32L48 111L49 111C61.5888 93.1288 82.7052 83.678 101 73C88.6104 57.7799 66.3957 42.8435 50 32M294 34L294 35C307.342 43.8255 316.207 57.9658 325 71C337.469 65.1853 353.107 46.2056 361 35L294 34M46 138L67 172C71.3103 167.537 85.5635 152.666 84.169 146.174C81.9251 135.726 53.8633 138.001 46 138M87 139L90 142L91 139L87 139M93 146L93 147L108 172C112.767 168.063 127.091 152.568 126.093 146.043C125.417 141.618 119.606 140.37 116 140.004C105.871 138.976 100.183 137.875 93 146M151 172C155.263 168.104 170.321 151.948 167.252 146.044C163.488 138.801 138.509 134.113 136.789 145.005C135.723 151.749 147.517 166.038 151 172M131 140L132 141L131 140M171 140L174 142L171 140M192 173C200.247 164.889 210.5 151.645 215 141C206.659 140.999 181.339 134.725 178.417 146.005C176.841 152.092 188.764 167.456 192 173M131 151L111.728 179L111 213L111 288L148 288L148 209C148 187.897 148.058 166.635 131 151M89 152C83.2267 160.037 74.3705 168.717 70.8434 178C65.8537 191.132 70 212.957 70 227C70 234.431 67.1899 249.082 71.0278 255.561C77.0136 265.667 95.2282 276.537 105 283L105 203C105 184.706 104.334 165.048 89 152M173 153L154.513 179L154 214L154 288L189 288L189 207C189 187.617 188.565 167.369 173 153M294 179L294 180C306.355 188.703 318.52 203.303 325 217C337.794 207.988 351.998 192.78 361 180L294 179M53 250L52 328L53 328C64.4148 311.795 86.9017 298.537 105 291L105 290L70 263L70 289L64 289C64 273.739 67.988 258.622 53 250z"/>
</svg>
