<?xml version="1.0" standalone="no"?>
<!DOCTYPE svg PUBLIC "-//W3C//DTD SVG 20010904//EN"
 "http://www.w3.org/TR/2001/REC-SVG-20010904/DTD/svg10.dtd">
<svg version="1.0" xmlns="http://www.w3.org/2000/svg"
 width="325.000000pt" height="371.000000pt" viewBox="0 0 325.000000 371.000000"
 preserveAspectRatio="xMidYMid meet">
<metadata>
Created by potrace 1.16, written by Peter Selinger 2001-2019
</metadata>
<g transform="translate(0.000000,371.000000) scale(0.100000,-0.100000)"
fill="#000000" stroke="none">
<path d="M1353 3324 c-22 -5 -37 -29 -27 -45 3 -5 22 -16 42 -25 20 -8 47 -25
60 -37 76 -70 197 -292 296 -544 46 -117 56 -152 56 -202 l0 -61 -328 0 -328
0 -277 245 c-153 135 -282 245 -286 245 -11 0 -20 -581 -20 -1281 -1 -458 2
-569 13 -584 16 -22 46 -14 46 12 0 38 50 123 106 180 73 74 181 154 322 238
l107 65 323 0 322 0 0 -515 0 -515 25 0 25 0 0 515 0 515 376 0 375 0 -3 23
-3 22 -372 3 -373 2 0 390 0 390 375 0 375 0 0 25 0 25 -375 0 -375 0 0 58 c0
57 3 62 217 432 119 206 218 382 220 391 4 14 -14 17 -134 22 -188 10 -753 17
-780 11z m690 -61 c81 -3 146 -9 145 -13 -18 -43 -375 -647 -379 -642 -4 4
-23 50 -44 102 -50 128 -153 342 -199 414 -20 32 -58 81 -84 108 l-47 51 230
-7 c127 -3 297 -9 378 -13z m-1185 -687 l213 -188 -98 -60 c-130 -80 -203
-136 -294 -226 -49 -48 -79 -70 -84 -62 -4 6 -4 180 0 386 l8 375 21 -19 c12
-10 117 -103 234 -206z m922 -606 l0 -390 -331 0 -330 0 -234 206 c-192 170
-233 210 -225 224 29 54 201 190 368 291 l97 59 328 0 327 0 0 -390z m-880
-265 c74 -65 143 -126 153 -135 17 -16 13 -19 -66 -67 -162 -100 -313 -221
-369 -297 l-28 -39 1 164 c1 260 14 593 23 607 6 9 27 -4 79 -50 40 -35 133
-117 207 -183z"/>
</g>
</svg>
