<?xml version="1.0" standalone="yes"?>
<svg xmlns="http://www.w3.org/2000/svg" width="325" height="371">
<path style="fill:#ffffff; stroke:none;" d="M0 0L0 371L325 371L325 0L0 0z"/>
<path style="fill:#000000; stroke:none;" d="M178 130L133 130C127.047 130 118.455 131.546 113 128.821C90.9613 117.81 77.856 89.6773 55 80C55 128.337 54 176.69 54 225L54 257C54 262.843 52.8496 268.443 60 269C62.7171 256.009 71.8514 247.335 82 239.424C90.9754 232.428 102.036 223.259 113 219.699C119.247 217.671 127.487 219 134 219L178 219L178 321L184 321L184 219L258 219L258 213L184 213L184 135L258 135L258 130L184 130C184 96.697 219.029 71.0826 228 40C204.008 40 180.055 38 156 38C151.441 38 134.386 35.4675 132.752 41.1736C131.848 44.3275 136.02 45.6983 138.005 46.99C143.761 50.7361 147.958 56.3203 151.655 62C163.702 80.5096 178 107.617 178 130z"/>
<path style="fill:#ffffff; stroke:none;" d="M146 44C160.817 65.288 170.069 86.6312 181 110C196.387 92.2905 208.052 65.7854 219 45L146 44M61 93L59.9853 142L60 167L106 133L106 131L61 93M178 213L178 135C158.301 135 133.108 130.759 114 135.418C104.957 137.623 95.5098 145.449 88 150.721C82.6809 154.455 67.2068 163.724 67.2068 170.999C67.2068 177.29 82.5757 186.884 87 190.834C94.3485 197.396 103.622 209.054 113 212.4C118.99 214.538 127.69 213 134 213L178 213M62 177L60 208L59 253L60 253C70.5604 236.117 89.8954 226.656 106 216C96.0573 202.176 76.4416 186.033 62 177z"/>
</svg>
