<?xml version="1.0" standalone="no"?>
<!DOCTYPE svg PUBLIC "-//W3C//DTD SVG 20010904//EN"
 "http://www.w3.org/TR/2001/REC-SVG-20010904/DTD/svg10.dtd">
<svg version="1.0" xmlns="http://www.w3.org/2000/svg"
 width="525.000000pt" height="371.000000pt" viewBox="0 0 525.000000 371.000000"
 preserveAspectRatio="xMidYMid meet">
<metadata>
Created by potrace 1.16, written by Peter Selinger 2001-2019
</metadata>
<g transform="translate(0.000000,371.000000) scale(0.100000,-0.100000)"
fill="#000000" stroke="none">
<path d="M1700 3402 c-45 -14 -36 -39 25 -67 95 -46 168 -147 302 -421 l78
-159 3 -827 2 -827 -142 89 -143 89 -7 -42 c-9 -61 -22 -798 -14 -830 10 -40
43 -36 61 8 22 50 68 99 144 149 81 54 292 160 417 210 l91 36 1017 0 1016 0
0 -190 0 -190 30 0 30 0 0 1074 0 1074 225 398 224 399 -42 7 c-63 10 -772 28
-847 21 -106 -9 -119 -36 -37 -76 106 -53 230 -265 371 -636 l46 -120 0 -856
0 -855 -1025 0 -1025 0 -170 106 -170 105 0 832 0 832 216 325 215 325 -88 6
c-143 11 -776 19 -803 11z m677 -58 l122 -6 -176 -264 c-97 -145 -179 -264
-182 -264 -3 0 -38 67 -77 148 -80 165 -152 279 -221 354 l-47 50 229 -6 c127
-4 285 -9 352 -12z m2415 -2 c91 -4 169 -10 172 -13 4 -3 -80 -160 -186 -348
-106 -187 -195 -338 -199 -333 -3 4 -32 72 -64 152 -92 233 -181 399 -267 503
l-39 47 208 -1 c114 0 283 -4 375 -7z m-2567 -2372 c110 -67 203 -126 208
-129 4 -4 -30 -22 -75 -40 -194 -79 -386 -188 -467 -264 l-43 -42 6 315 c4
173 9 329 13 347 l5 32 77 -48 c42 -26 166 -103 276 -171z"/>
<path d="M772 3290 c-35 -15 -23 -40 33 -69 31 -17 67 -48 97 -85 60 -74 179
-308 252 -493 46 -117 56 -152 56 -203 l0 -60 -187 2 -187 3 -224 245 c-123
135 -227 246 -231 248 -22 8 -29 -1843 -8 -1872 20 -28 44 -10 52 40 14 96
147 250 340 394 l80 60 183 0 182 0 0 -515 0 -515 25 0 25 0 0 515 0 515 370
0 370 0 0 25 0 25 -370 0 -370 0 0 390 0 390 370 0 370 0 0 25 0 25 -370 0
-370 0 0 59 c0 59 1 61 225 447 l224 389 -107 6 c-217 13 -807 20 -830 9z
m756 -59 l92 -6 -176 -305 c-96 -168 -182 -316 -191 -328 -14 -23 -17 -19 -72
120 -97 240 -190 408 -274 496 l-42 44 285 -7 c157 -4 327 -10 378 -14z m-904
-689 l166 -184 -91 -70 c-99 -76 -229 -202 -256 -249 -10 -16 -22 -29 -27 -29
-6 0 -7 103 -3 272 4 149 7 319 7 377 0 104 0 105 19 86 10 -11 93 -102 185
-203z m586 -602 l0 -390 -187 0 -188 0 -175 192 c-96 105 -181 200 -188 210
-11 15 -9 24 17 60 50 73 212 222 316 291 39 27 41 27 222 27 l183 0 0 -390z
m-633 -182 c76 -84 156 -172 176 -194 l37 -42 -75 -56 c-104 -78 -210 -179
-263 -251 l-44 -60 6 360 c7 323 10 395 20 395 2 0 66 -69 143 -152z"/>
<path d="M3025 2786 c-22 -16 -14 -46 13 -46 30 0 105 -54 154 -111 50 -59
114 -156 171 -260 l37 -66 0 -186 0 -187 -174 0 -174 0 -297 156 c-163 85
-299 154 -301 151 -2 -2 -7 -152 -11 -333 -5 -288 -4 -331 9 -342 19 -15 48
-6 48 16 0 50 177 153 412 241 l136 51 176 0 176 0 0 -385 0 -385 25 0 25 0 0
385 0 385 328 2 327 3 0 25 0 25 -327 3 -328 2 0 190 0 190 186 226 c102 125
188 232 190 239 4 9 -53 13 -243 18 -394 11 -536 9 -558 -7z m703 -51 c3 -3
-289 -359 -298 -363 -4 -1 -29 35 -55 80 -62 107 -115 180 -179 246 l-51 53
290 -7 c160 -3 291 -8 293 -9z m-825 -785 l87 -47 -102 -37 c-138 -51 -294
-126 -351 -170 l-47 -36 0 83 c0 46 3 159 7 250 l6 166 156 -81 c86 -45 195
-103 244 -128z"/>
</g>
</svg>
