<?xml version="1.0" standalone="yes"?>
<svg xmlns="http://www.w3.org/2000/svg" width="525" height="371">
<path style="fill:#ffffff; stroke:none;" d="M0 0L0 371L525 371L525 0L0 0z"/>
<path style="fill:#000000; stroke:none;" d="M211 260L181 243C181 265.695 180 288.276 180 311C180 315.374 177.652 330.562 182.299 332.824C185.336 334.302 195.042 319.997 198 317.669C212.536 306.232 234.852 294.629 253 290.529C272.782 286.059 297.705 290 318 290L455 290L455 328L461 328L461 185C461 163.208 457.143 137.368 461.275 116C462.626 109.013 468.114 102.114 471.576 96C479.674 81.6982 487.918 67.4383 495.769 53C499.426 46.2747 504.639 39.6331 506 32C481.632 32 457.351 30 433 30C427.882 30 412.331 27.5658 409.086 32.5841C406.614 36.4088 420.023 44.0865 422.331 47.0008C434.366 62.1956 441.477 81.1772 448.6 99C457.586 121.481 455 145.137 455 169L455 285L306 285C289.62 285 267.78 288.826 252 284.501C242.333 281.851 227.67 272.019 220.148 265.39C215.647 261.424 217 254.413 217 249L217 205L217 132C217 121.645 214.641 107.965 217.51 98C219.338 91.6504 224.936 85.5706 228.424 80C238.554 63.8225 250.717 48.6746 260 32C236.994 31.5251 214.071 30 191 30C186.182 30 171.239 27.5471 168.047 31.7377C164.91 35.8565 177.582 41.5975 179.961 44.0154C191.907 56.1571 199.847 73.5341 206.576 89C214.229 106.591 211 128.074 211 147L211 260z"/>
<path style="fill:#ffffff; stroke:none;" d="M182 36C193.808 53.2687 205.334 69.2394 213 89L215 89L249 37L182 36M421 36L421 37C441.094 53.214 447.534 83.6213 458 106L472.421 82L497 38L421 36z"/>
<path style="fill:#000000; stroke:none;" d="M121 132C111.279 132 92.698 135.593 84.0895 130.972C64.7984 120.618 56.4515 92.383 37 82C37 130.27 36 178.657 36 227L36 261C36.0002 263.528 34.8587 271.364 39.0147 271.364C42.8185 271.364 43.4237 264.57 44.4753 262C48.1753 252.956 55.9884 245.618 63 239.09C69.0337 233.471 77.0486 225.379 85 222.703C95.1987 219.27 110.266 222 121 222L121 324L127 324L127 222L201 222L201 216L127 216L127 138L201 138L201 132L127 132C127 99.3408 162.038 73.4679 171 43C146.682 42.9973 122.389 41 98 41C93.9492 41 76.1758 38.6226 75.466 44.1736C75.0166 47.6883 79.7764 49.0679 82.0008 50.6482C87.2396 54.3699 91.2076 59.6051 94.5748 65C106.041 83.371 120.985 109.927 121 132z"/>
<path style="fill:#ffffff; stroke:none;" d="M89 47L124 113L145.85 76L161 48L110 47L89 47z"/>
<path style="fill:#000000; stroke:none;" d="M340 178C329.592 178 314.801 180.683 305 177.006C284.916 169.472 266.193 150.778 245 147C245 162.915 245.495 180.229 243.424 196C242.899 200.002 241.708 212.259 245.588 214.914C248.044 216.594 250.233 213.538 251.594 211.942C256.311 206.414 261.559 202.982 268 199.753C292.532 187.457 312.931 184 340 184L340 261L345 261L345 184L411 184L411 178L345 178C345 167.673 341.686 150.44 345.988 141C354.435 122.469 376.029 110.825 384 92C362.983 92 342.054 91 321 91C317.24 91 302.145 88.8035 301.466 94.0394C300.963 97.9243 307.611 98.9989 310 100.652C316.687 105.28 321.855 112.33 326.329 119C330.961 125.903 337.068 133.924 339.363 142C342.394 152.669 340 166.931 340 178z"/>
<path style="fill:#ffffff; stroke:none;" d="M42 96L41 169L78 136C71.9453 123.016 53.6806 104.297 42 96M317 97L342 134C353.232 124.937 364.041 110.034 372 98C355.064 93.9678 334.396 97 317 97M121 216L121 138C110.248 138 95.249 135.283 85 138.563C76.5589 141.265 68.5747 149.92 62.0008 155.579C57.7673 159.224 47.2622 167.85 47.331 174C47.3936 179.592 58.2755 188.093 61.9645 192C68.5044 198.926 75.3964 210.664 84 214.972C93.0012 219.48 110.985 216 121 216M251 156L249 204C264.675 194.336 280.429 186.717 298 181L298 180L251 156M43 180L41 254L42 254C50.4505 239.31 64.9945 229.323 78 219L78 218L43 180M187 253L185 320L211 302.258L243 287L187 253z"/>
</svg>
