<?xml version="1.0" standalone="no"?>
<!DOCTYPE svg PUBLIC "-//W3C//DTD SVG 20010904//EN"
 "http://www.w3.org/TR/2001/REC-SVG-20010904/DTD/svg10.dtd">
<svg version="1.0" xmlns="http://www.w3.org/2000/svg"
 width="350.000000pt" height="371.000000pt" viewBox="0 0 350.000000 371.000000"
 preserveAspectRatio="xMidYMid meet">
<metadata>
Created by potrace 1.16, written by Peter Selinger 2001-2019
</metadata>
<g transform="translate(0.000000,371.000000) scale(0.100000,-0.100000)"
fill="#000000" stroke="none">
<path d="M537 3012 c-4 -169 -7 -364 -7 -434 l0 -128 -69 0 c-51 0 -74 -4 -86
-16 -20 -20 -6 -39 34 -47 15 -3 48 -21 72 -39 42 -32 44 -37 47 -90 3 -59 20
-85 47 -74 8 3 15 16 15 28 1 22 2 22 26 -7 13 -16 45 -62 69 -101 l45 -72 0
-467 0 -467 -86 67 c-47 37 -88 64 -91 61 -13 -12 -26 -839 -14 -868 16 -43
39 -34 65 25 43 96 183 207 403 320 l111 57 786 0 786 0 0 -185 0 -185 25 0
25 0 0 1048 0 1047 250 395 251 395 -48 7 c-68 9 -963 23 -996 14 -46 -11 -35
-43 26 -70 86 -38 169 -141 280 -347 26 -47 47 -89 47 -93 0 -3 -348 -6 -772
-6 l-773 1 -220 260 c-121 143 -225 265 -231 270 -8 6 -13 -79 -17 -299z
m2580 220 l31 -7 -211 -333 c-117 -184 -216 -334 -221 -333 -5 0 -26 39 -46
88 -98 234 -234 465 -326 557 l-49 49 395 -7 c217 -4 409 -10 427 -14z m-2313
-291 c86 -102 156 -188 156 -191 0 -4 -21 -22 -47 -41 -27 -18 -99 -84 -162
-146 -94 -94 -119 -113 -144 -113 l-30 0 6 227 c4 124 7 290 7 367 l0 141 29
-30 c16 -17 99 -113 185 -214z m1831 -341 l50 -115 3 -837 2 -838 -792 0 -793
1 -157 121 -158 121 0 489 0 489 185 202 185 202 -217 8 c-119 4 -219 10 -222
13 -8 8 147 154 227 215 l65 49 786 -2 786 -3 50 -115z m-2105 -210 c0 -5 -2
-10 -4 -10 -3 0 -8 5 -11 10 -3 6 -1 10 4 10 6 0 11 -4 11 -10z m69 -7 c-7
-10 -15 -20 -16 -22 -2 -2 -3 5 -3 17 0 14 6 22 16 22 14 0 15 -3 3 -17z m323
7 l130 0 -118 -127 c-64 -71 -129 -141 -144 -156 l-26 -28 -49 73 c-26 40 -60
89 -76 109 l-28 35 31 54 30 53 60 -7 c34 -3 119 -6 190 -6z m-247 -1313 c28
-22 53 -48 57 -58 4 -11 15 -19 25 -19 10 0 80 -48 156 -106 l139 -106 -93
-50 c-133 -72 -254 -154 -321 -219 l-57 -56 5 261 c6 324 12 409 27 399 7 -4
35 -25 62 -46z"/>
</g>
</svg>
