<?xml version="1.0" standalone="no"?>
<!DOCTYPE svg PUBLIC "-//W3C//DTD SVG 20010904//EN"
 "http://www.w3.org/TR/2001/REC-SVG-20010904/DTD/svg10.dtd">
<svg version="1.0" xmlns="http://www.w3.org/2000/svg"
 width="693.000000pt" height="371.000000pt" viewBox="0 0 693.000000 371.000000"
 preserveAspectRatio="xMidYMid meet">
<metadata>
Created by potrace 1.16, written by Peter Selinger 2001-2019
</metadata>
<g transform="translate(0.000000,371.000000) scale(0.100000,-0.100000)"
fill="#000000" stroke="none">
<path d="M2008 3441 c-208 -4 -301 -10 -309 -18 -20 -20 -2 -41 42 -53 99 -27
239 -211 390 -513 76 -152 89 -185 89 -227 l0 -50 -573 0 -573 0 -235 224
-234 224 -7 -122 c-5 -66 -7 -276 -5 -466 l2 -345 22 -3 c17 -3 24 3 28 25 17
81 94 177 223 277 62 47 63 48 84 30 29 -27 88 -116 142 -215 l46 -86 0 -466
0 -467 -103 0 -102 0 -255 222 -255 221 -6 -224 c-12 -427 -10 -683 5 -704 20
-27 40 -13 54 39 18 67 128 179 267 271 179 119 195 125 302 125 l93 0 0 -36
c0 -31 3 -35 23 -32 17 2 23 11 25 36 l3 32 215 0 214 0 0 -36 c0 -31 3 -35
23 -32 17 2 23 11 25 36 l3 32 259 0 258 0 16 -69 c9 -40 16 -115 16 -175 l0
-106 29 0 c25 0 30 -4 36 -37 15 -82 77 -269 95 -287 16 -16 22 -17 34 -6 9 7
16 21 16 30 0 62 182 178 480 307 157 68 165 71 1640 518 1153 350 1311 396
1353 391 26 -3 52 -8 57 -11 6 -4 10 -260 10 -701 l0 -694 25 0 25 0 0 728 c0
513 3 731 11 739 8 8 8 17 0 31 -7 14 -11 139 -11 379 l0 358 290 424 c160
233 289 425 288 427 -8 7 -619 24 -894 24 -237 0 -304 -3 -319 -14 -27 -19
-13 -43 33 -55 130 -36 300 -268 488 -671 l59 -125 3 -157 3 -157 -88 24 c-48
12 -614 159 -1258 325 l-1170 302 -137 137 c-76 74 -138 139 -138 144 0 5 41
65 91 135 l91 127 -79 7 c-122 10 -945 16 -1275 9z m1050 -55 c106 -2 195 -6
198 -9 8 -8 -116 -177 -128 -174 -6 1 -54 -68 -107 -153 -91 -146 -187 -285
-196 -285 -2 0 -27 47 -55 105 -29 58 -76 146 -106 197 -30 51 -54 95 -54 99
0 3 36 57 80 119 l80 112 47 -3 c27 -2 135 -5 241 -8z m-838 -3 c117 -6 124
-8 164 -38 57 -43 158 -166 151 -183 -7 -19 -287 -414 -290 -410 -1 2 -38 73
-82 158 -98 194 -194 339 -277 418 l-64 62 137 0 c76 0 193 -3 261 -7z m459
-18 c1 -2 -21 -38 -50 -79 l-54 -75 -20 27 c-11 15 -44 53 -75 86 l-55 59 125
-8 c69 -4 127 -8 129 -10z m3746 -24 l81 -6 -251 -367 c-137 -202 -252 -367
-255 -367 -3 0 -49 88 -102 197 -117 238 -215 391 -315 491 l-74 74 418 -8
c230 -4 454 -10 498 -14z m-3704 -495 l78 -159 1 -818 c0 -627 -3 -819 -12
-819 -6 0 -126 30 -265 67 l-253 67 0 754 0 754 152 214 151 214 35 -57 c19
-32 70 -130 113 -217z m671 13 c-4 -3 -43 -12 -87 -19 -102 -16 -297 -63 -364
-89 l-52 -20 13 22 c8 12 32 51 53 87 21 36 72 113 114 173 l75 107 128 -127
c70 -70 124 -130 120 -134z m-2427 -248 l39 -41 -74 0 c-98 0 -122 -7 -118
-33 2 -13 16 -25 38 -32 19 -7 35 -16 35 -22 0 -6 -36 -40 -81 -76 -45 -36
-100 -87 -123 -114 l-41 -48 0 211 c0 116 3 265 7 332 l6 121 136 -128 c75
-71 154 -148 176 -170z m3731 -101 c659 -171 1216 -315 1237 -321 l37 -10 -2
-191 -3 -191 -46 -13 c-47 -14 -50 -13 -1259 300 l-1213 314 -162 162 c-90 90
-167 160 -173 156 -5 -3 -65 -98 -133 -211 l-124 -206 -3 167 c-2 141 0 170
13 184 42 47 257 110 500 149 66 10 123 19 126 20 3 1 545 -139 1205 -309z
m-1306 -131 c0 -8 -15 -12 -120 -29 -90 -15 -292 -66 -336 -85 -21 -8 -38 -14
-40 -12 -4 3 39 77 153 265 l75 122 134 -126 c74 -70 134 -130 134 -135z
m-1170 -515 l0 -666 -26 6 c-17 5 -23 3 -19 -4 4 -7 -75 -10 -249 -10 l-256 0
0 474 0 474 82 103 c45 57 115 146 155 197 l73 92 120 0 120 0 0 -666z m-870
632 c14 -7 24 -19 24 -28 -1 -9 -48 -75 -104 -147 l-103 -131 -52 89 c-29 49
-71 113 -93 142 l-41 54 35 21 c32 20 45 21 172 17 75 -3 148 -11 162 -17z
m538 9 c2 -2 -52 -73 -119 -159 l-122 -156 -52 88 c-28 48 -71 114 -95 145
-41 55 -42 58 -26 76 16 18 30 19 214 14 108 -3 198 -7 200 -8z m-379 -184
c26 -42 62 -104 80 -138 l31 -62 0 -466 0 -465 -215 0 -215 0 0 474 0 474 116
146 c134 170 119 167 203 37z m3128 -283 c622 -161 1129 -296 1125 -299 -8 -8
-2585 -789 -2601 -789 -6 0 -59 13 -118 29 -60 16 -127 34 -151 41 l-42 11 2
567 3 566 32 22 c47 31 177 70 348 103 162 32 194 37 240 40 17 0 539 -131
1162 -291z m-3945 -706 c104 -90 188 -165 188 -167 0 -2 -38 -27 -84 -55 -109
-65 -252 -176 -300 -232 l-38 -43 6 214 c3 118 6 273 6 344 0 122 1 129 17
116 10 -8 102 -87 205 -177z m1863 -276 l240 -63 3 -94 2 -94 -98 -47 c-117
-57 -206 -113 -266 -168 l-43 -40 -26 92 c-59 211 -97 380 -97 434 0 53 1 56
23 50 12 -3 130 -34 262 -70z m498 -136 c4 -3 -36 -24 -90 -46 -54 -21 -101
-40 -105 -42 -5 -2 -8 30 -8 71 l0 75 98 -25 c53 -15 100 -29 105 -33z"/>
</g>
</svg>
