<?xml version="1.0" standalone="yes"?>
<svg xmlns="http://www.w3.org/2000/svg" width="693" height="371">
<path style="fill:#ffffff; stroke:none;" d="M0 0L0 371L693 371L693 0L0 0z"/>
<path style="fill:#000000; stroke:none;" d="M221 112L141 112C131.587 112 115.511 115.077 107 110.821C88.5723 101.607 78.761 76.7488 60 68C58.9735 91.9083 58 116.058 58 140C58 143.782 55.9848 161.163 61.2562 162.079C65.0259 162.734 66.6925 154.342 68.1188 152C74.5597 141.423 85.4798 136.238 93 127L94 127L112.363 158L113 189L113 252C107.495 252 100.206 253.245 95 251.258C74.3694 243.385 62.775 216.049 42 208C42 232.021 41 255.944 41 280C41 283.732 38.6895 302.332 44.8302 301.534C47.7918 301.149 48.0786 297.156 49.0733 294.999C51.4773 289.787 55.7376 285.046 60.0039 281.289C76.2978 266.941 91.3793 258 113 258L113 264L119 264L119 258L161 258L161 264L167 264L167 258L219 258L221 293C230.677 293.738 231.081 308.326 233.435 316C234.35 318.981 235.868 325.364 239.921 325.364C243.248 325.364 252.249 312.276 256 309.749C271.437 299.35 289.649 291.968 307 285.425C371.193 261.216 439.418 245.141 505 224.975C522.638 219.552 540.378 214.45 558 208.975C571.5 204.78 582.929 200.105 597 202L597 342L602 342L602 231C602 223.244 598.191 199.414 605 195C600.761 177.993 602 160.591 602 143C602 135.663 600.365 126.012 602.702 119C605.542 110.48 613.37 102.432 618.333 95C632.318 74.0605 648.748 54.0071 661 32C629.716 31.9138 598.307 29 567 29C559.584 29 552.37 29.0774 545 29.831C542.473 30.0894 537.903 29.5898 537.466 33.0903C536.933 37.3629 544.32 38.436 547 40.1335C555.241 45.3539 561.548 54.0609 566.971 62C578.15 78.3646 592.002 100.5 596.471 120C598.398 128.408 597 138.398 597 147L430 103.884L374 89.3742L347 81.9113L318 55L318 54L337 28C294.261 26.1647 251.759 27 209 27L179 27C176.276 27.0045 169.754 26.2485 169.176 30.1705C168.707 33.3532 172.9 34.2238 175.004 35.2091C181.144 38.0839 186.296 43.8302 190.535 49C203.41 64.6997 220.986 91.2226 221 112z"/>
<path style="fill:#ffffff; stroke:none;" d="M183 32L183 33C200.942 45.6385 217.95 74.9992 224 96L225 96L254 55C249.615 47.3045 242.412 37.7462 234 34.2284C228.358 31.869 220.989 33 215 33C204.317 33 193.719 32 183 32M282 94C293.733 84.3028 304.99 63.929 311 50L314 51L326 33L291 32L277.174 33.0278L268.86 43L262.209 55L268.85 68L282 94M244 33L257 49L258 49L268 34L244 33M552 35L552 36C574.481 53.1288 588.51 84.4309 599 110L601 110L650 37L552 35M257 60C247.881 71.8313 231.652 88.6132 227.51 103C224.883 112.122 227 124.528 227 134L227 201L227 237C227 240.804 225.614 248.094 228.028 251.297C230.609 254.722 238.126 255.103 242 256.151C254.299 259.478 266.583 263.153 279 266L279 145C279 114.691 279.452 83.9776 257 60M314 60L290 97L339 85L314 60M65 81L64 146L65 146L88 122C72.3493 114.818 93.3292 114 100 114C91.3016 102.182 77.0376 89.4462 65 81M285 140L286 140L311 98C321.392 108.392 332.948 123.777 346 130.721C361.562 139.001 383.912 141.047 401 145.374C439.041 155.007 477.046 164.905 515 174.884C539.221 181.253 572.48 196.67 597 191L597 153C573.272 149.805 549.165 140.975 526 134.884C469.297 119.976 412.345 102.811 355 90.669C339.279 87.3402 316.958 94.059 302 99.0008C297.072 100.629 288.867 102.4 286.028 107.213C281.72 114.514 285 131.591 285 140M312 107L290 145L339 134L312 107M167 252L221 250L221 118C214.669 118 205.069 116.187 199.171 118.603C195.336 120.174 192.778 124.863 190.35 128C183.71 136.577 169.85 148.381 167.314 159C165.144 168.086 167 179.664 167 189L167 252M99 123L116 151C124.088 144.458 133.761 132.514 138 123C127.466 118.084 109.432 117.756 99 123M164 151C173.566 143.663 182.614 130.221 189 120L158 120C155.172 120.001 148.542 119.097 147.917 123.148C147.441 126.239 151.057 129.674 152.653 132C156.819 138.074 160.881 144.319 164 151M142 128L119.589 158L119 187L119 252L161 252L161 192C161 167.907 161.837 145.62 142 128M285 268C295.301 269.388 306.624 276.114 317 275.362C331.55 274.307 348.058 266.357 362 262.025C391.605 252.827 421.395 244.224 451 235.025C491.5 222.442 536.249 214.177 575 197C554.63 186.091 525.361 183.898 503 177.849C453.404 164.433 402.546 147.787 352 138.681C337.578 136.082 315.754 142.937 302 147.344C297.198 148.883 289.956 150.485 286.603 154.532C281.821 160.307 285 177.725 285 185L285 268M48 220L46 285L63 270.899L88 254L48 220M227 258C227 277.677 235.056 295.943 239 315C247.709 308.938 255.694 302.83 265 297.576C268.597 295.545 275.555 293.736 277.972 290.351C280.112 287.355 280.298 274.646 277.397 272.14C273.981 269.189 266.316 268.467 262 267.374C250.29 264.409 238.621 261.298 227 258M285 274L285 288L305 280L285 274z"/>
</svg>
