<?xml version="1.0" standalone="no"?>
<!DOCTYPE svg PUBLIC "-//W3C//DTD SVG 20010904//EN"
 "http://www.w3.org/TR/2001/REC-SVG-20010904/DTD/svg10.dtd">
<svg version="1.0" xmlns="http://www.w3.org/2000/svg"
 width="499.000000pt" height="371.000000pt" viewBox="0 0 499.000000 371.000000"
 preserveAspectRatio="xMidYMid meet">
<metadata>
Created by potrace 1.16, written by Peter Selinger 2001-2019
</metadata>
<g transform="translate(0.000000,371.000000) scale(0.100000,-0.100000)"
fill="#000000" stroke="none">
<path d="M1998 3340 c-32 -20 -21 -44 33 -68 38 -18 62 -40 100 -90 47 -63
209 -372 209 -399 0 -10 -157 -13 -749 -13 l-750 0 -227 250 c-126 138 -231
250 -234 250 -16 0 -27 -1014 -11 -1038 16 -26 45 -9 53 31 24 116 136 247
344 403 l71 54 765 0 c720 0 766 -1 773 -17 4 -10 22 -60 41 -111 l34 -93 0
-709 0 -710 -435 0 -435 0 0 428 1 427 154 210 c85 116 155 213 155 216 0 14
-630 26 -664 13 -31 -12 -18 -42 27 -62 67 -30 132 -114 222 -288 l45 -88 0
-428 0 -428 -343 0 -342 0 -230 252 -230 252 -6 -209 c-12 -422 -10 -820 5
-840 21 -29 43 -12 50 38 15 96 142 246 328 386 l95 71 336 0 337 0 0 -105 0
-105 30 0 30 0 0 105 0 105 435 0 435 0 0 -325 0 -325 25 0 25 0 0 1068 0
1067 225 399 c124 219 225 402 225 406 0 19 -923 39 -952 20z m784 -59 l87 -6
-196 -348 -196 -349 -54 139 c-98 250 -203 447 -290 544 l-38 42 300 -8 c165
-4 339 -10 387 -14z m-2147 -360 c129 -141 156 -175 143 -182 -71 -40 -244
-195 -311 -279 l-60 -75 6 280 c4 154 7 327 7 385 l0 105 28 -30 c16 -17 100
-108 187 -204z m991 -598 l171 -6 -119 -164 c-66 -89 -122 -163 -124 -163 -2
0 -18 28 -35 63 -45 89 -115 196 -157 240 l-36 37 64 0 c36 0 142 -3 236 -7z
m-1050 -1035 c81 -90 163 -179 181 -199 l34 -36 -76 -57 c-103 -78 -209 -179
-263 -251 l-45 -60 7 280 c3 154 6 326 6 383 0 56 2 102 4 102 2 0 71 -73 152
-162z"/>
<path d="M2536 2299 c-9 -176 -17 -821 -10 -888 5 -42 12 -65 22 -69 18 -6 42
24 42 53 0 75 148 249 323 381 l98 74 810 0 810 0 -3 23 -3 22 -812 3 -812 2
-207 228 c-114 125 -217 238 -230 251 l-22 23 -6 -103z m248 -237 c91 -100
166 -184 166 -186 0 -2 -39 -35 -87 -73 -103 -80 -207 -180 -251 -242 l-32
-44 0 315 c0 350 6 447 25 426 7 -7 87 -95 179 -196z"/>
</g>
</svg>
