<?xml version="1.0" standalone="no"?>
<!DOCTYPE svg PUBLIC "-//W3C//DTD SVG 20010904//EN"
 "http://www.w3.org/TR/2001/REC-SVG-20010904/DTD/svg10.dtd">
<svg version="1.0" xmlns="http://www.w3.org/2000/svg"
 width="583.000000pt" height="371.000000pt" viewBox="0 0 583.000000 371.000000"
 preserveAspectRatio="xMidYMid meet">
<metadata>
Created by potrace 1.16, written by Peter Selinger 2001-2019
</metadata>
<g transform="translate(0.000000,371.000000) scale(0.100000,-0.100000)"
fill="#000000" stroke="none">
<path d="M526 3373 c-10 -87 -17 -697 -8 -728 13 -45 44 -40 60 10 25 76 153
182 343 284 l96 51 171 0 171 0 29 -42 c38 -55 114 -207 152 -303 30 -75 30
-77 30 -275 l0 -200 -272 0 -273 0 -240 186 -240 186 -7 -64 c-11 -109 -29
-1241 -20 -1273 13 -45 44 -40 60 10 25 76 153 182 343 284 l96 51 276 0 277
0 0 -405 0 -405 -276 0 -276 0 -240 186 c-132 102 -242 183 -245 180 -3 -3 -8
-180 -11 -393 -4 -351 -3 -390 12 -402 21 -18 41 -2 50 39 13 66 152 180 346
284 l85 46 278 0 277 0 0 -30 c0 -27 3 -30 30 -30 27 0 30 3 30 30 l0 30 195
0 195 0 0 -30 c0 -25 4 -30 25 -30 21 0 25 5 25 30 l0 30 190 0 190 0 0 -35
c0 -31 3 -35 25 -35 22 0 25 4 25 35 l0 35 200 0 200 0 0 -30 c0 -25 4 -30 25
-30 21 0 25 5 25 30 l0 30 390 0 389 0 3 -122 c3 -119 4 -123 26 -126 22 -3
22 -2 22 122 l0 126 615 0 615 0 0 -115 0 -115 25 0 25 0 0 1021 0 1022 200
393 200 393 -42 5 c-79 10 -674 26 -736 20 -93 -10 -105 -37 -32 -74 37 -19
91 -83 124 -147 l17 -33 -361 0 -360 0 54 109 55 108 -72 7 c-40 3 -223 9
-407 13 -346 6 -380 3 -380 -33 0 -8 15 -21 33 -29 17 -7 46 -28 63 -47 29
-31 84 -111 84 -123 0 -3 -59 -5 -131 -5 -71 0 -128 4 -125 9 3 5 -11 11 -32
15 -20 4 -464 9 -985 13 l-948 5 -6 -21 c-5 -20 -11 -21 -133 -21 l-128 0
-203 158 c-112 86 -220 170 -241 185 l-36 28 -6 -48z m403 -324 l34 -26 -102
-58 c-109 -61 -255 -165 -274 -196 -7 -11 -14 -19 -17 -19 -7 0 -1 492 6 537
l5 32 157 -122 c87 -67 173 -134 191 -148z m4440 185 c3 -3 -68 -152 -158
-330 -91 -178 -168 -321 -171 -317 -4 5 -31 73 -59 153 -64 177 -165 386 -221
459 l-42 54 323 -7 c177 -3 325 -9 328 -12z m-1466 -3 c98 -5 180 -11 183 -14
3 -3 -13 -41 -35 -86 l-41 -81 -223 1 -222 0 -62 95 -62 94 142 -1 c78 0 222
-4 320 -8z m995 -417 c22 -55 56 -147 76 -207 36 -106 36 -109 36 -272 l0
-165 -615 0 -615 0 0 158 1 157 127 250 127 250 390 5 390 5 22 -41 c12 -23
40 -86 61 -140z m-3088 171 c0 -2 -42 -75 -93 -162 -52 -87 -98 -167 -105
-178 l-11 -20 -7 20 c-21 62 -90 210 -124 269 -22 38 -40 70 -40 72 0 2 86 4
190 4 105 0 190 -2 190 -5z m425 -5 c5 -9 -174 -289 -185 -290 -3 0 -26 41
-50 92 -25 50 -62 118 -82 150 l-38 58 175 0 c100 0 176 -4 180 -10z m448 3
c5 -8 -194 -353 -203 -353 -3 0 -23 42 -44 93 -21 50 -58 127 -82 169 -24 43
-44 82 -44 88 0 12 366 14 373 3z m447 2 c0 -11 -202 -307 -206 -302 -3 2 -22
41 -44 86 -22 46 -60 114 -85 152 l-45 69 190 0 c105 0 190 -2 190 -5z m455
-106 c26 -61 69 -173 96 -250 l49 -140 0 -160 0 -159 -390 0 -390 0 0 225 0
225 123 185 122 184 172 1 171 0 47 -111z m288 -99 c-59 -115 -110 -210 -113
-210 -3 0 -25 57 -50 127 -25 70 -61 165 -82 210 l-36 83 195 0 195 0 -109
-210z m-1918 -25 l65 -131 0 -227 0 -227 -195 0 -195 0 0 202 0 202 108 183
107 183 23 -27 c12 -16 52 -87 87 -158z m389 47 c18 -37 50 -108 70 -158 l36
-91 0 -192 0 -191 -190 0 -190 0 0 226 0 226 102 152 103 153 17 -29 c10 -15
33 -59 52 -96z m481 -44 l75 -151 0 -218 0 -219 -200 0 -200 0 0 192 0 192 39
65 c186 317 183 312 197 300 8 -6 48 -79 89 -161z m-1995 -501 c63 -50 121
-95 128 -102 11 -10 -6 -23 -88 -69 -55 -32 -133 -82 -173 -112 -116 -87 -117
-86 -117 165 0 108 3 219 6 248 l7 52 61 -47 c33 -25 113 -86 176 -135z m740
-402 l0 -255 -272 0 -273 0 -173 134 c-95 73 -176 136 -179 140 -16 16 102
101 258 185 l94 51 273 0 272 0 0 -255z m450 0 l0 -255 -195 0 -195 0 0 255 0
255 195 0 195 0 0 -255z m430 0 l0 -255 -190 0 -190 0 0 255 0 255 190 0 190
0 0 -255z m450 0 l0 -255 -200 0 -200 0 0 255 0 255 200 0 200 0 0 -255z m830
0 l0 -255 -390 0 -390 0 0 255 0 255 390 0 390 0 0 -255z m1280 0 l0 -255
-615 0 -615 0 0 255 0 255 615 0 615 0 0 -255z m-4222 -136 c86 -67 161 -125
165 -129 5 -4 -22 -25 -60 -46 -108 -60 -224 -138 -278 -188 -27 -25 -50 -46
-50 -46 -8 0 9 415 17 445 12 39 36 85 45 85 2 0 75 -55 161 -121z m1232 -574
l0 -405 -195 0 -195 0 0 405 0 405 195 0 195 0 0 -405z m430 0 l0 -405 -190 0
-190 0 0 405 0 405 190 0 190 0 0 -405z m450 0 l0 -405 -200 0 -200 0 0 405 0
405 200 0 200 0 0 -405z m830 0 l0 -405 -390 0 -390 0 0 405 0 405 390 0 390
0 0 -405z m1280 0 l0 -405 -615 0 -615 0 0 405 0 405 615 0 615 0 0 -405z
m-4209 -302 l167 -129 -77 -42 c-109 -59 -215 -132 -272 -187 l-49 -48 0 165
c0 91 3 219 7 286 l6 121 26 -18 c14 -11 101 -77 192 -148z"/>
</g>
</svg>
