<?xml version="1.0" standalone="no"?>
<!DOCTYPE svg PUBLIC "-//W3C//DTD SVG 20010904//EN"
 "http://www.w3.org/TR/2001/REC-SVG-20010904/DTD/svg10.dtd">
<svg version="1.0" xmlns="http://www.w3.org/2000/svg"
 width="1119.000000pt" height="371.000000pt" viewBox="0 0 1119.000000 371.000000"
 preserveAspectRatio="xMidYMid meet">
<metadata>
Created by potrace 1.16, written by Peter Selinger 2001-2019
</metadata>
<g transform="translate(0.000000,371.000000) scale(0.100000,-0.100000)"
fill="#000000" stroke="none">
<path d="M6340 3459 c0 -40 -1 -41 -27 -35 -16 3 -260 9 -543 12 -532 7 -560
6 -560 -32 0 -8 12 -19 28 -25 76 -30 118 -58 169 -113 104 -112 246 -351 357
-604 l46 -102 0 -1115 0 -1115 25 0 25 0 0 1116 0 1116 226 332 c125 182 230
335 234 339 4 5 5 -146 2 -336 -3 -189 -2 -360 2 -380 10 -54 41 -51 65 7 26
60 68 105 155 165 41 28 76 51 78 51 3 0 -1 -1613 -5 -1616 -1 -1 -63 41 -137
93 l-135 94 -7 -43 c-3 -24 -10 -245 -13 -493 -6 -388 -5 -453 7 -469 22 -28
45 -14 58 33 25 92 190 217 475 357 l170 84 892 0 893 0 0 -220 0 -220 30 0
30 0 0 1122 0 1123 43 62 c23 34 45 63 49 63 4 0 170 -108 370 -241 386 -256
600 -392 634 -403 14 -4 26 -1 34 9 16 20 9 29 -103 121 -110 91 -151 140
-194 230 -79 166 -55 391 68 635 l41 83 44 -70 c25 -38 93 -166 152 -284 l107
-215 5 -1125 5 -1125 23 -3 22 -3 0 1120 0 1120 286 418 c157 229 288 422 291
429 10 25 -1193 42 -1219 16 -19 -19 0 -41 55 -62 55 -21 142 -89 130 -101
-14 -14 -607 -348 -611 -344 -2 1 72 113 164 247 91 133 168 248 171 254 6 16
-170 23 -712 30 -471 6 -515 4 -515 -31 0 -8 12 -20 28 -26 76 -30 118 -58
169 -113 104 -112 246 -351 357 -604 45 -100 46 -105 46 -207 l0 -105 -788 0
-787 0 -282 203 c-156 111 -283 205 -283 208 0 7 272 139 359 173 l64 26 744
0 743 0 0 25 0 25 -751 0 -751 0 -321 207 c-177 113 -346 221 -374 240 l-53
34 0 -42z m2922 -78 l97 -6 -182 -266 c-170 -249 -186 -269 -234 -295 -29 -16
-53 -32 -53 -36 0 -4 9 -13 19 -20 18 -11 17 -14 -16 -65 -20 -29 -39 -53 -42
-53 -3 0 -23 39 -45 88 -51 118 -165 328 -234 432 -31 47 -91 121 -133 164
l-78 79 402 -8 c221 -4 446 -10 499 -14z m-3007 -8 c65 -5 76 -9 73 -23 -3
-18 -479 -720 -488 -720 -3 0 -25 44 -49 98 -111 249 -246 467 -362 586 l-78
79 415 -7 c228 -3 448 -9 489 -13z m3680 4 c-11 -8 -51 -31 -88 -51 l-68 -38
-47 43 c-26 23 -51 46 -56 51 -6 4 55 8 134 8 124 0 142 -2 125 -13z m-3204
-189 l298 -191 -129 -57 c-220 -98 -374 -189 -472 -279 l-58 -53 0 114 c0 63
3 223 7 356 5 209 9 246 24 272 10 16 21 30 25 30 3 0 140 -86 305 -192z
m3787 183 l153 -6 -39 -55 c-21 -30 -137 -198 -256 -373 l-218 -319 -38 84
c-74 165 -188 377 -246 454 l-23 32 40 58 c23 32 55 75 72 96 l32 38 185 -2
c102 0 254 -3 338 -7z m-773 -265 c-89 -166 -143 -378 -130 -509 11 -117 53
-227 112 -298 18 -21 22 -31 11 -27 -9 4 -179 115 -377 248 -350 233 -361 241
-347 262 8 11 180 114 383 229 323 183 369 207 380 193 10 -13 4 -31 -32 -98z
m-2785 -604 c118 -85 219 -158 223 -162 5 -4 -49 -38 -120 -75 -156 -81 -276
-160 -343 -225 l-50 -49 0 173 c0 95 3 254 7 354 l6 181 31 -22 c17 -11 128
-91 246 -175z m1860 -577 l0 -375 -788 0 -788 0 -273 196 -273 196 49 50 c70
71 178 143 348 230 l150 77 788 1 787 0 0 -375z m-1880 -220 c129 -92 239
-171 243 -175 5 -4 -47 -37 -116 -72 -154 -81 -281 -165 -347 -230 l-50 -49 0
174 c0 285 12 538 24 528 6 -4 117 -84 246 -176z m1880 -545 l0 -330 -890 0
-891 0 -174 121 c-96 66 -177 125 -180 129 -17 28 80 132 195 210 36 24 133
79 215 122 l150 78 788 0 787 0 0 -330z m-2138 -146 c156 -107 284 -198 285
-202 1 -4 -64 -40 -145 -79 -181 -89 -313 -173 -393 -252 l-62 -60 7 362 c6
329 11 427 22 427 2 0 131 -88 286 -196z"/>
<path d="M2485 3423 c-51 -14 -39 -47 26 -68 73 -25 157 -108 250 -248 72
-109 227 -397 214 -397 -3 0 -302 -86 -666 -190 l-660 -191 -59 46 c-32 25
-61 45 -64 45 -3 0 -6 -29 -6 -63 l0 -64 -72 -21 -71 -21 -431 105 c-237 58
-439 107 -450 110 -21 7 -28 20 186 -364 l118 -213 -116 -247 c-132 -280 -221
-480 -253 -566 -17 -45 -19 -61 -10 -72 17 -21 30 -17 69 21 79 77 283 116
620 118 l205 2 95 -42 c65 -28 96 -47 98 -60 8 -53 13 -63 32 -63 13 0 24 10
30 25 8 21 13 23 32 15 13 -6 343 -149 733 -318 l710 -307 5 -40 c4 -35 8 -40
30 -40 19 0 26 6 30 25 3 15 11 33 18 40 7 8 25 40 40 70 38 75 157 164 360
268 326 167 385 181 495 113 81 -49 101 -56 117 -36 11 13 9 20 -15 45 l-29
30 837 0 837 0 0 25 0 25 -869 0 -869 0 -34 38 c-62 68 -82 124 -86 238 -5
131 19 230 92 379 57 115 144 255 158 255 8 0 152 -93 172 -111 4 -4 -30 -33
-78 -65 -47 -31 -86 -60 -86 -63 0 -7 703 -476 773 -516 26 -15 54 -24 62 -21
31 12 13 44 -65 115 -96 87 -135 149 -150 244 -31 178 69 450 254 692 44 59
88 116 96 128 8 11 -149 -89 -349 -223 l-364 -242 -19 23 c-63 82 -88 198 -69
321 14 91 56 214 104 303 l32 60 638 3 637 2 0 25 0 25 -620 2 -620 3 37 55
c20 30 63 88 95 128 33 39 57 72 53 72 -3 0 -93 -58 -200 -130 l-195 -130
-244 0 -243 0 -244 159 c-141 92 -244 166 -243 174 1 8 81 130 178 271 97 141
176 260 176 265 0 4 -78 11 -172 14 -249 10 -999 17 -1023 10z m720 -54 c209
-6 381 -12 383 -14 5 -4 -312 -465 -320 -465 -4 0 -46 25 -94 56 -47 30 -89
52 -92 49 -4 -4 -9 -64 -12 -133 -4 -109 -7 -127 -22 -130 -13 -2 -29 20 -64
90 -115 230 -209 374 -314 481 l-76 77 116 0 c63 0 286 -5 495 -11z m10 -514
l24 -20 -60 -84 -59 -84 0 115 c0 63 3 118 6 121 7 7 51 -16 89 -48z m292
-187 c120 -77 224 -147 232 -154 11 -10 4 -16 -40 -35 -109 -46 -326 -159
-403 -209 -43 -28 -103 -74 -132 -102 l-54 -51 0 221 0 221 86 126 c47 69 87
125 89 125 2 0 102 -64 222 -142z m-479 -63 c21 -52 22 -70 22 -280 l0 -225
-542 0 -543 0 -127 93 c-70 50 -127 94 -128 97 0 6 1248 367 1275 369 15 1 25
-12 43 -54z m1430 -54 c-7 -12 -23 -21 -38 -21 -23 0 -23 1 10 24 40 27 47 27
28 -3z m-485 -239 c-139 -92 -253 -170 -253 -173 0 -4 86 -64 190 -135 105
-70 190 -131 190 -134 0 -3 -183 -126 -406 -274 -326 -217 -402 -272 -392
-282 7 -7 141 -98 297 -203 178 -119 276 -191 262 -191 -12 0 -186 107 -386
237 l-365 237 0 298 c0 290 1 299 23 351 27 60 82 112 196 188 84 55 296 162
423 214 l83 34 195 1 195 0 -252 -168z m437 164 c0 -2 -15 -37 -33 -77 -111
-245 -125 -438 -42 -586 13 -24 22 -43 19 -43 -2 0 -40 24 -83 53 l-79 53 29
34 c55 65 53 73 -9 31 l-59 -40 -169 115 c-93 63 -170 118 -171 122 -2 4 111
82 250 174 234 154 255 166 300 167 26 1 47 -1 47 -3z m-3488 -166 c183 -45
349 -85 369 -91 l36 -9 -84 -83 c-117 -113 -209 -228 -250 -314 -19 -40 -37
-73 -38 -73 -7 0 -130 209 -230 390 -59 107 -116 210 -126 228 -10 17 -16 32
-14 32 3 0 154 -36 337 -80z m856 -137 l133 -96 -68 -34 c-37 -19 -89 -49
-116 -65 l-47 -30 -38 26 c-81 57 -77 49 -74 173 3 121 1 116 63 122 8 0 75
-42 147 -96z m-266 -490 c-2 -307 -5 -559 -7 -561 -2 -2 -45 15 -97 38 l-93
41 -153 230 c-173 260 -174 262 -122 366 69 137 305 381 408 420 31 12 59 22
62 22 3 1 4 -250 2 -556z m1538 212 l0 -155 -544 0 -543 0 -121 87 c-104 76
-118 89 -103 100 9 6 64 36 122 67 l104 56 543 0 542 0 0 -155z m1855 103
c-50 -81 -114 -223 -140 -313 -48 -166 -44 -288 15 -407 l28 -57 -227 151
c-124 83 -248 166 -274 186 l-48 34 66 45 66 44 68 -40 c78 -48 111 -53 111
-18 0 16 -15 36 -50 63 -27 21 -49 41 -49 44 0 4 448 307 457 309 2 1 -9 -18
-23 -41z m-3301 -109 c-15 -16 -29 -29 -31 -29 -2 0 -3 23 -3 51 l0 50 31 -22
30 -21 -27 -29z m191 -91 l114 -82 -77 -41 c-42 -23 -96 -53 -119 -68 -24 -15
-47 -27 -53 -27 -5 0 -30 14 -55 32 l-46 32 7 61 c4 33 13 72 20 86 12 24 78
89 90 89 3 0 57 -37 119 -82z m-904 -64 c28 -48 64 -101 79 -118 28 -33 280
-403 280 -411 0 -3 -53 -5 -117 -5 -231 0 -467 -31 -575 -75 -32 -12 -58 -19
-58 -15 0 8 163 366 276 608 26 56 51 102 55 102 4 0 31 -39 60 -86z m3147 14
c-83 -130 -152 -300 -174 -434 -24 -137 -12 -201 64 -358 5 -8 -104 63 -381
252 l-168 114 333 223 c183 123 335 224 337 224 2 1 -3 -9 -11 -21z m-988
-228 l0 -170 -543 0 -542 0 -125 91 c-69 50 -126 94 -128 97 -3 10 23 26 153
94 l110 58 538 0 537 0 0 -170z m-1440 21 c0 -4 -9 -16 -20 -26 -20 -18 -20
-17 -20 19 0 34 2 36 20 26 11 -6 20 -14 20 -19z m181 -128 l119 -87 -89 -46
c-106 -57 -173 -101 -225 -149 l-39 -36 7 154 c6 160 10 174 59 229 11 12 27
22 35 22 7 0 67 -39 133 -87z m1259 -538 l0 -425 -22 9 c-43 17 -1373 593
-1396 605 -23 12 -23 12 20 48 58 47 113 81 227 139 l94 49 539 0 538 0 0
-425z m421 223 l311 -202 -33 -15 c-19 -8 -106 -49 -194 -92 -178 -87 -287
-155 -372 -232 l-56 -52 7 275 c7 295 17 520 22 520 2 0 144 -91 315 -202z"/>
<path d="M9465 1346 c-313 -178 -571 -328 -572 -332 -3 -10 837 -570 986 -658
98 -58 125 -66 134 -41 8 20 -15 45 -113 123 -183 146 -250 296 -229 517 19
191 133 429 306 638 36 42 63 77 61 77 -1 -1 -259 -146 -573 -324z m340 102
c-100 -163 -168 -342 -187 -490 -10 -81 -9 -107 4 -177 18 -88 60 -189 105
-248 15 -20 21 -33 13 -28 -68 39 -750 496 -750 503 0 6 826 481 838 482 2 0
-9 -19 -23 -42z"/>
</g>
</svg>
