<?xml version="1.0" standalone="no"?>
<!DOCTYPE svg PUBLIC "-//W3C//DTD SVG 20010904//EN"
 "http://www.w3.org/TR/2001/REC-SVG-20010904/DTD/svg10.dtd">
<svg version="1.0" xmlns="http://www.w3.org/2000/svg"
 width="465.000000pt" height="371.000000pt" viewBox="0 0 465.000000 371.000000"
 preserveAspectRatio="xMidYMid meet">
<metadata>
Created by potrace 1.16, written by Peter Selinger 2001-2019
</metadata>
<g transform="translate(0.000000,371.000000) scale(0.100000,-0.100000)"
fill="#000000" stroke="none">
<path d="M1208 3410 c-28 -17 -21 -40 15 -55 64 -27 116 -94 197 -254 89 -179
150 -345 150 -413 l0 -58 -207 0 -208 0 -321 184 -322 183 -6 -51 c-4 -28 -9
-580 -12 -1227 -4 -1075 -3 -1178 11 -1193 21 -20 30 -14 55 35 11 21 43 56
70 78 62 49 250 145 402 205 l117 46 211 0 210 0 0 -325 0 -325 25 0 25 0 0
325 0 325 255 0 255 0 0 -320 0 -320 25 0 25 0 0 320 0 320 245 0 245 0 0
-330 0 -330 25 0 25 0 0 330 0 330 250 0 250 0 0 -325 0 -325 25 0 25 0 0 325
0 325 405 0 405 0 0 30 0 30 -405 0 -405 0 0 250 0 250 405 0 405 0 0 25 0 25
-405 0 -405 0 0 260 0 260 410 0 410 0 0 25 0 25 -410 0 -410 0 0 250 0 250
408 2 407 3 0 25 0 25 -407 3 -408 2 0 89 0 88 187 288 c136 209 183 289 173
295 -15 10 -561 23 -755 19 -77 -2 -480 0 -895 4 -528 5 -760 4 -772 -3z m602
-65 c14 -7 34 -22 44 -34 19 -20 17 -23 -115 -256 -74 -129 -136 -235 -139
-235 -3 0 -18 35 -33 78 -49 131 -153 335 -207 407 l-53 68 239 -8 c164 -5
247 -11 264 -20z m515 -4 c22 -10 50 -29 62 -42 l22 -24 -41 -65 c-23 -35 -79
-123 -126 -194 l-84 -130 -63 131 c-34 71 -83 163 -109 202 -25 39 -46 75 -46
79 0 4 9 22 21 41 l20 34 152 -7 c112 -6 162 -12 192 -25z m135 10 c0 -5 -6
-14 -13 -20 -11 -8 -18 -6 -32 9 -18 20 -17 20 13 20 18 0 32 -4 32 -9z m345
-1 c58 0 78 -4 105 -22 62 -43 64 -35 -80 -287 -72 -128 -134 -231 -136 -229
-2 3 -26 59 -54 126 -51 125 -100 226 -144 297 l-25 41 27 43 27 43 104 -6
c57 -3 136 -6 176 -6z m628 0 c106 0 118 -2 113 -16 -6 -16 -271 -429 -287
-447 -4 -5 -36 52 -72 126 -35 74 -85 166 -109 204 l-45 69 19 39 20 38 121
-7 c66 -3 174 -6 240 -6z m-1461 -207 c30 -54 79 -150 107 -214 49 -112 51
-119 51 -207 l0 -92 -255 0 -255 0 0 57 c0 55 5 65 142 305 78 136 145 248
148 248 4 0 31 -44 62 -97z m1108 -33 c23 -41 62 -120 88 -175 44 -95 47 -105
50 -202 l4 -103 -251 0 -251 0 0 56 c0 54 6 67 132 288 72 127 136 237 141
244 13 17 30 -4 87 -108z m-556 -42 c93 -192 146 -334 146 -393 l0 -45 -245 0
-245 0 0 98 0 97 128 197 c70 109 130 198 135 198 4 0 40 -69 81 -152z m-1691
-313 c228 -130 277 -165 234 -165 -24 0 -287 -118 -366 -164 l-81 -47 -40 23
-40 23 5 190 c6 212 13 297 23 291 4 -2 123 -70 265 -151z m737 -435 l0 -250
-204 0 -204 0 -241 138 c-132 75 -241 140 -241 143 0 11 189 105 325 161 l140
57 213 0 212 1 0 -250z m560 0 l0 -250 -255 0 -255 0 0 250 0 250 255 0 255 0
0 -250z m540 0 l0 -250 -245 0 -245 0 0 250 0 250 245 0 245 0 0 -250z m550 0
l0 -250 -250 0 -250 0 0 250 0 250 250 0 250 0 0 -250z m-2640 26 c0 -3 -4 -8
-10 -11 -5 -3 -10 -1 -10 4 0 6 5 11 10 11 6 0 10 -2 10 -4z m271 -157 c118
-67 220 -127 227 -134 10 -9 -9 -20 -85 -50 -105 -41 -272 -121 -336 -162 -39
-25 -40 -25 -79 -7 l-40 18 8 180 c3 100 11 192 16 206 11 31 47 70 64 70 6 0
108 -55 225 -121z m719 -429 l0 -260 -202 0 -202 0 -248 141 c-202 115 -246
144 -237 155 17 21 237 126 369 178 l115 45 203 0 202 1 0 -260z m560 0 l0
-260 -255 0 -255 0 0 260 0 260 255 0 255 0 0 -260z m540 0 l0 -260 -245 0
-245 0 0 260 0 260 245 0 245 0 0 -260z m550 0 l0 -260 -250 0 -250 0 0 260 0
260 250 0 250 0 0 -260z m-2655 20 c3 -5 1 -10 -4 -10 -6 0 -11 5 -11 10 0 6
2 10 4 10 3 0 8 -4 11 -10z m299 -168 c125 -71 224 -132 219 -135 -4 -2 -54
-23 -111 -46 -99 -40 -268 -122 -325 -158 -27 -17 -29 -17 -65 4 l-37 21 3
182 c1 108 7 191 13 203 18 35 52 68 65 63 6 -2 113 -63 238 -134z m706 -412
l0 -250 -209 0 -209 0 -240 138 -241 137 37 23 c61 38 199 103 327 153 l120
48 208 1 207 0 0 -250z m560 0 l0 -250 -255 0 -255 0 0 250 0 250 255 0 255 0
0 -250z m540 0 l0 -250 -245 0 -245 0 0 250 0 250 245 0 245 0 0 -250z m550 0
l0 -250 -250 0 -250 0 0 250 0 250 250 0 250 0 0 -250z m-2650 21 c0 -6 -4
-13 -10 -16 -5 -3 -10 1 -10 9 0 9 5 16 10 16 6 0 10 -4 10 -9z m291 -163
c229 -131 231 -132 203 -145 -16 -7 -86 -36 -155 -66 -150 -63 -265 -127 -327
-182 l-45 -40 6 238 c4 148 11 245 18 259 14 29 50 68 61 68 4 0 112 -59 239
-132z"/>
</g>
</svg>
