<?xml version="1.0" standalone="no"?>
<!DOCTYPE svg PUBLIC "-//W3C//DTD SVG 20010904//EN"
 "http://www.w3.org/TR/2001/REC-SVG-20010904/DTD/svg10.dtd">
<svg version="1.0" xmlns="http://www.w3.org/2000/svg"
 width="454.000000pt" height="371.000000pt" viewBox="0 0 454.000000 371.000000"
 preserveAspectRatio="xMidYMid meet">
<metadata>
Created by potrace 1.16, written by Peter Selinger 2001-2019
</metadata>
<g transform="translate(0.000000,371.000000) scale(0.100000,-0.100000)"
fill="#000000" stroke="none">
<path d="M2204 3217 c-67 -95 -154 -220 -193 -279 l-72 -108 -432 0 -432 0
-300 174 c-297 171 -300 173 -307 148 -4 -14 -10 -174 -14 -356 -7 -342 -4
-376 32 -376 8 0 21 15 29 34 14 32 98 116 116 116 10 0 4 -239 -11 -480 -6
-85 -13 -325 -17 -532 -5 -207 -11 -380 -15 -383 -4 -4 -29 12 -55 35 l-48 42
-6 -128 c-12 -239 -10 -619 3 -632 22 -22 37 -13 48 27 20 74 150 188 331 290
l56 31 522 -2 522 -3 73 -165 c154 -348 185 -390 197 -264 9 95 83 227 228
405 l67 83 771 395 c694 356 771 399 775 422 4 24 -32 51 -503 380 -280 195
-508 358 -508 362 -1 4 17 35 39 67 22 32 40 61 40 63 0 3 -68 8 -151 12
l-151 7 -128 90 -129 90 -122 297 c-67 163 -125 299 -128 303 -3 4 -61 -70
-127 -165z m216 -180 c53 -127 96 -233 95 -235 -1 -1 -53 6 -116 17 -151 25
-272 33 -336 23 -29 -5 -53 -6 -53 -2 0 18 301 443 308 435 3 -3 49 -110 102
-238z m-1622 -107 c117 -67 212 -124 210 -125 -2 -2 -54 -23 -115 -49 -62 -25
-134 -57 -161 -70 -29 -15 -58 -23 -71 -19 -16 4 -21 1 -21 -14 0 -10 -14 -27
-32 -37 -17 -11 -49 -35 -71 -55 l-39 -35 7 274 c4 151 9 279 12 283 3 4 19
-1 36 -11 18 -11 128 -75 245 -142z m1552 -155 c185 -30 199 -34 300 -104 l95
-66 -360 -7 c-198 -5 -366 -10 -372 -13 -24 -8 -15 -44 12 -51 29 -7 79 -62
113 -123 l23 -41 -450 0 -451 0 -255 127 c-140 70 -255 131 -255 134 0 7 117
62 238 112 l77 32 423 3 c378 2 422 1 422 -13 0 -25 28 -29 58 -9 20 14 53 20
127 25 55 3 114 6 130 7 17 1 73 -5 125 -13z m-1400 -310 c146 -73 239 -125
230 -129 -8 -3 -55 -20 -105 -37 -136 -47 -279 -113 -335 -153 -27 -20 -52
-36 -55 -36 -3 0 -5 44 -5 98 0 141 12 382 19 381 3 0 116 -56 251 -124z
m1645 75 c25 -10 85 -67 85 -82 0 -12 -130 -213 -137 -211 -3 1 -23 37 -43 80
l-37 79 46 72 c25 40 49 72 53 72 4 0 18 -4 33 -10z m305 -43 c41 -30 75 -60
74 -68 -1 -8 -27 -54 -59 -103 l-58 -88 -54 111 -55 110 28 46 c16 25 34 45
39 45 6 0 44 -24 85 -53z m-574 11 c17 -18 41 -48 53 -65 25 -37 26 -33 -46
-145 l-45 -69 -53 109 c-30 60 -70 130 -89 156 l-36 46 93 0 c92 0 93 0 123
-32z m131 24 l22 -7 -21 -34 -22 -33 -27 33 c-16 19 -29 37 -29 42 0 8 46 8
77 -1z m271 -4 c-6 -18 -25 -20 -31 -3 -5 10 0 15 14 15 12 0 19 -5 17 -12z
m306 -17 c-18 -30 -18 -30 -47 -13 -56 33 -54 42 7 42 l57 0 -17 -29z m-261
-218 l52 -108 3 -527 c2 -460 4 -527 18 -530 8 -2 -67 -45 -166 -96 l-181 -94
-301 36 c-165 20 -303 35 -305 32 -2 -2 7 -29 21 -60 l25 -56 -514 0 -514 0
-105 89 -105 89 22 20 c38 34 136 93 241 143 l101 49 598 0 597 0 0 -80 c0
-79 0 -80 25 -80 l25 0 0 523 0 523 56 90 c31 49 58 91 60 93 2 2 22 -34 44
-81 l40 -86 0 -526 0 -526 25 0 25 0 0 518 0 519 38 59 c21 32 55 85 75 117
20 31 39 57 43 57 3 0 29 -48 57 -107z m739 -224 c260 -182 478 -336 485 -342
9 -9 -118 -79 -547 -299 -307 -159 -561 -288 -564 -288 -3 0 -6 233 -6 518 l0
518 71 112 c40 62 75 112 80 112 4 0 221 -149 481 -331z m-1284 163 c31 -70
32 -76 32 -220 l0 -149 -252 -6 c-139 -4 -405 -10 -590 -14 l-337 -6 -173 113
c-95 62 -175 115 -178 117 -20 18 195 126 385 195 l120 43 475 5 c261 3 478 3
481 0 3 -3 20 -38 37 -78z m-1363 -315 c83 -54 151 -101 152 -105 2 -4 -40
-29 -92 -55 -53 -27 -129 -73 -170 -102 -62 -45 -76 -51 -86 -39 -17 21 -7
361 11 391 8 12 19 19 25 15 5 -3 78 -50 160 -105z m1395 -342 l0 -235 -595 0
-595 0 -163 111 c-89 60 -162 115 -162 122 0 18 110 91 231 153 l112 57 478
12 c264 7 527 13 587 13 l107 2 0 -235z m-1406 -151 c86 -58 156 -107 156
-110 0 -3 -21 -15 -47 -26 -81 -35 -206 -108 -254 -149 -26 -21 -49 -35 -53
-32 -3 4 -6 81 -6 172 0 147 2 169 21 208 11 24 22 43 24 43 2 0 74 -48 159
-106z m-259 -386 c11 -71 35 -90 56 -44 7 14 16 26 20 26 4 0 48 -34 98 -76
l91 -77 -63 -37 c-100 -58 -157 -100 -219 -158 l-58 -55 0 95 c0 52 3 170 7
261 l6 166 26 -18 c21 -15 28 -32 36 -83z m1625 -118 c257 -30 243 -22 180
-100 -80 -99 -149 -205 -185 -284 l-33 -71 -27 60 c-30 66 -173 391 -182 414
-5 11 1 13 28 8 19 -3 117 -16 219 -27z"/>
</g>
</svg>
