<?xml version="1.0" standalone="yes"?>
<svg xmlns="http://www.w3.org/2000/svg" width="454" height="371">
<!-- <path style="fill:#ffffff; stroke:none;" d="M0 0L0 371L454 371L454 0L0 0z"/>
--><path style="fill:#000000; stroke:none;" d="M46 53C46 72.361 45 91.6096 45 111C45 114.571 42.9501 127.879 48.0401 128.534C51.8112 129.019 60.7327 116.661 64 114L59 254L48 246C48 264.952 47 283.979 47 303C47 306.954 44.9662 319.393 48.5849 321.914C52.4134 324.58 55.6855 315.049 57.3403 313C65.5149 302.875 77.5126 295.21 89 289.324C96.6553 285.401 106.631 287 115 287L168 287C175.166 287 187.186 284.681 193.775 287.603C197.329 289.179 198.598 294.726 200.001 298C204.035 307.414 208.173 316.839 212.753 326C214.214 328.921 217.086 337.635 221.694 336.248C224.131 335.515 225.468 322.031 226.97 319C233.25 306.325 243.406 289.997 255.001 281.637C275.946 266.537 302.919 256.301 326 244.753C353.288 231.1 379.812 214.736 408 203C407.277 191.769 392.344 185.8 384 179.859C359.289 162.262 333.369 139.005 306 126L315 112C306.596 111.93 292.751 113.189 285 110.146C255.47 98.5537 242.104 60.3492 234 32C228.615 34.6313 225.826 40.2348 222.421 45C215.587 54.5646 208.854 64.2188 202.333 74C199.683 77.9756 196.871 84.4545 192.674 86.9722C185.493 91.2808 168.298 88 160 88C144.759 88 122.377 92.1468 108 87.0309C86.3539 79.3284 68.4812 58.1438 46 53z"/>
<path style="fill:#ffffff; stroke:none;" d="M231 43L202 87C218.169 84.9566 235.216 86.9163 251 91C246.884 75.9527 239.701 55.9494 231 43M52 63L50 117C55.1345 113.493 62.948 109.506 64 103C73.4494 105.028 92.0091 95.3064 100 90C85.31 81.0093 68.4041 68.1929 52 63M191 97L191 94C164.419 94 134.193 89.9516 108 94.3256C96.9102 96.1775 86.2698 102.724 76 107L76 109L127 133.61L156 134L215 134C213.331 128.763 210.084 123.93 205.961 120.259C204.341 118.817 200.294 116.922 200.782 114.225C201.687 109.23 214.528 111 218 111L274 111C250.039 88.0496 220.248 93.1941 191 97M70 113C65.941 126.732 68 145.63 68 160C83.9792 150.139 100.089 142.828 118 137C106.311 127.314 84.5927 117.204 70 113M281 116C273.161 127.634 280.182 134.256 285 146L298 127L281 116M212 117L228 147L240 131C232.821 118.12 225.688 117 212 117M254 146L255 146L268 126C261.654 115.053 249.602 116.127 247.723 130C247.071 134.814 251.788 141.851 254 146M269 117L272 120L273 117L269 117M294 117L294 118L302 122L304 117L294 117M239 118L242 124L244 124L247 118L239 118M271 131L257.419 154L257 188L257 259L251 259L251 187C251 168.836 252.465 153.219 243 137C229.423 151.453 231 166.561 231 185L231 259L226 259L226 243L131 243C110.089 243 84.6605 246.493 71 265L92 281.4L123 282L193 282L188 270L249 276.44L283 260C280.804 250.778 282 240.441 282 231L282 177C282 160.529 282.196 144.512 271 131M303 131L288.649 154L288 187L288 257L400 200L369 176.859L303 131M74 165C85.115 171.188 95.9551 182.283 108 186.298C114.735 188.543 123.955 187.011 131 187C145.928 186.976 161.01 186.174 176 185.996C186.981 185.865 197.957 185 209 185C213.155 185 219.878 186.268 223.682 184.397C227.209 182.661 226 176.189 226 173C226 163.858 227.44 147.154 218.502 141.028C211.726 136.384 192.161 140 184 140C154.256 140 128.008 138.397 100 149.6C91.7111 152.916 78.2828 156.623 74 165M69 169C63.4815 179.606 67 198.178 67 210L101 191L101 189L69 169M74 213C80.7337 221.147 97.74 233.536 108 236.49C118.807 239.602 133.764 237 145 237L226 237L226 190C202.705 190 179.304 192 156 192C141.206 192 122.249 189.744 108 193.789C95.7274 197.272 84.4805 206.097 74 213M69 219C63.0982 231.692 65 246.346 65 260L101 240C93.0262 232.364 79.5338 222.357 69 219M53 258L52 308L85 285L67 269L60 274C59.1762 267.481 59.59 261.176 53 258M198 277L218 323L245 282L198 277z"/>
</svg>
