<?xml version="1.0" standalone="yes"?>
<svg xmlns="http://www.w3.org/2000/svg" width="400" height="371">
<path style="fill:#ffffff; stroke:none;" d="M0 0L0 371L400 371L400 0L0 0z"/>
<path style="fill:#000000; stroke:none;" d="M278 42C294.775 44.4792 306.338 61.054 315.41 74C319.6 79.9783 323.82 85.5025 324 93L174 93L130 93L110 92.3966L90 75L51 39C51 76.5718 45.2707 115.579 50 153C57.5962 152.409 60.6112 138.73 65.439 133C75.6193 120.918 94.44 104.11 110 99.6381C116.682 97.7176 125.092 99 132 99L177 99L324 99L324 181L290 181C284.157 181 278.557 179.85 278 187C294.753 190.504 306.215 205.477 315.33 219C318.374 223.515 322.662 228.537 323.725 234C327.104 251.361 324 272.295 324 290L231 290L231 234L231.728 208L263 163C232.397 163 201.679 162 171 162L149 162C146.735 162.005 142.6 161.387 141.086 163.588C138.69 167.072 145.015 169.475 146.997 170.85C155.255 176.577 160.145 186.502 164.999 195C172.932 208.888 172 221.461 172 237L172 290C157.387 290 133.438 294.588 120 288.775C103.712 281.73 88.0478 269.388 73 259.95C66.2823 255.737 58.8577 249.52 51 248C51 270.674 50.0301 293.375 49.0394 316C48.8551 320.208 47.8148 335.534 52.2739 337.593C55.8973 339.265 57.7876 333.135 59.2485 331.039C64.6832 323.241 73.9344 318.195 82 313.579C94.2376 306.575 109.958 297.67 124 295.326C139.225 292.783 156.561 295 172 295L172 318L178 318L178 295L225 295L225 318L231 318L231 295L324 295L324 351L329 351L329 266C329 256.342 325.816 239.726 330.179 231C339.802 211.755 365.802 201.725 375 182L329 181L329 114C329 106.197 326.494 93.0671 330.028 86C339.629 66.7971 365.849 56.6232 375 37C350.367 37 325.697 36 301 36C293.925 36 278.736 32.5522 278 42z"/>
<path style="fill:#ffffff; stroke:none;" d="M295 41L326 79L328 79L362 42L295 41M56 52L55 135L56 135C67.5124 119.724 84.6064 105.228 102 97L86 79.9606L56 52M153 167L153 168C162.555 175.728 169.336 188.798 174 200L176 200L198 169L153 167M207 167L228 200C237.342 192.394 246.039 178.464 252 168L207 167M203 173C195.203 182.012 182.246 195.613 178.564 207C176.137 214.508 178 225.143 178 233L178 290L225 290C225 253.922 235.953 198.277 203 173M294 186L294 187C307.872 195.677 317.033 210.708 326 224L339.015 212L362 188C341.465 183.111 315.169 186.437 294 186M57 258L55 325L79 308.258L113 292L57 258z"/>
</svg>
