<?xml version="1.0" standalone="no"?>
<!DOCTYPE svg PUBLIC "-//W3C//DTD SVG 20010904//EN"
 "http://www.w3.org/TR/2001/REC-SVG-20010904/DTD/svg10.dtd">
<svg version="1.0" xmlns="http://www.w3.org/2000/svg"
 width="331.000000pt" height="371.000000pt" viewBox="0 0 331.000000 371.000000"
 preserveAspectRatio="xMidYMid meet">
<metadata>
Created by potrace 1.16, written by Peter Selinger 2001-2019
</metadata>
<g transform="translate(0.000000,371.000000) scale(0.100000,-0.100000)"
fill="#000000" stroke="none">
<path d="M2003 3319 c-19 -19 -3 -38 41 -50 91 -24 191 -112 315 -279 l71 -95
-202 -3 c-112 -2 -315 1 -453 7 -137 6 -364 11 -503 10 l-253 0 -323 164 -324
164 -6 -45 c-3 -25 -9 -186 -13 -357 -6 -319 -3 -355 32 -355 8 0 24 18 34 39
13 25 42 53 82 80 34 23 63 40 64 39 1 -2 -1 -68 -5 -148 -5 -80 -6 -318 -4
-530 4 -414 4 -743 -1 -748 -2 -2 -36 17 -76 43 l-74 45 -7 -32 c-4 -18 -10
-179 -14 -358 -7 -335 -4 -370 31 -370 8 0 25 21 37 46 15 32 39 60 79 89 67
49 233 136 361 189 l87 36 735 0 736 0 2 -307 3 -308 25 0 25 0 3 585 2 585
225 225 c124 124 225 228 225 232 0 5 -96 8 -212 8 -117 0 -223 3 -235 6 l-23
6 0 452 0 451 241 241 241 241 -144 6 c-245 12 -813 8 -825 -4z m735 -48 l102
-6 -179 -180 c-99 -98 -182 -177 -184 -175 -2 3 -28 41 -58 85 -30 44 -99 126
-155 183 l-100 102 235 -1 c130 -1 282 -4 339 -8z m-2066 -243 c194 -100 238
-127 238 -143 0 -12 5 -26 11 -32 7 -7 2 -12 -18 -17 -15 -4 -89 -32 -164 -62
-77 -31 -144 -52 -153 -48 -10 4 -16 1 -16 -9 0 -8 -21 -27 -47 -43 -27 -15
-66 -41 -87 -58 l-39 -30 7 265 c7 254 10 299 23 299 3 0 113 -55 245 -122z
m672 -194 c44 -17 40 -39 -40 -204 -43 -88 -82 -160 -88 -160 -24 0 -35 19
-71 115 -20 55 -54 132 -75 172 -38 70 -38 72 -17 76 36 7 274 8 291 1z m446
1 c0 -14 -191 -400 -197 -398 -3 1 -23 49 -44 108 -20 58 -53 138 -71 178 -28
58 -33 77 -25 95 10 21 14 22 174 22 89 0 163 -2 163 -5z m650 -200 l0 -205
-390 0 c-214 0 -390 2 -390 5 0 2 43 94 97 205 l96 200 294 0 293 0 0 -205z
m-1410 84 c53 -105 93 -213 77 -206 -161 65 -414 171 -420 176 -4 4 18 18 50
31 131 51 238 88 246 83 4 -2 25 -40 47 -84z m466 -176 c19 -52 34 -98 34
-103 0 -11 -208 -14 -234 -4 -9 3 -16 10 -16 14 0 5 30 71 66 147 l66 138 25
-49 c14 -27 40 -92 59 -143z m-346 -127 c6 -16 9 -30 8 -32 -2 -1 -79 -27
-173 -58 -93 -31 -205 -73 -248 -93 -76 -36 -79 -36 -105 -20 l-27 16 3 123
c1 68 5 164 8 214 l6 91 259 -106 c237 -97 260 -108 269 -135z m410 -266 l0
-220 -165 0 -165 0 0 209 0 209 38 10 c20 5 94 10 165 11 l127 1 0 -220z m880
0 l0 -220 -410 0 -410 0 0 220 0 220 410 0 410 0 0 -220z m-1270 -20 l0 -200
-36 0 c-28 0 -79 26 -231 117 l-196 117 64 29 c57 26 372 136 392 137 4 0 7
-90 7 -200z m-328 -106 c98 -59 178 -110 178 -113 0 -4 -17 -13 -37 -20 -80
-28 -241 -110 -307 -155 -37 -26 -69 -46 -70 -44 -1 2 0 91 3 199 5 175 8 199
25 218 11 12 22 21 25 21 3 0 85 -48 183 -106z m328 -384 l0 -240 -37 0 c-29
0 -81 26 -250 126 -117 69 -213 130 -213 135 0 38 377 218 458 219 l42 0 0
-240z m390 0 l0 -240 -165 0 -165 0 0 240 0 240 165 0 165 0 0 -240z m502 221
c20 -6 64 -32 97 -57 103 -77 291 -320 291 -376 l0 -28 -415 0 -415 0 0 241 0
240 203 -4 c119 -2 217 -9 239 -16z m785 5 c1 -1 -80 -84 -181 -185 l-184
-184 -50 74 c-68 101 -172 221 -233 269 l-50 39 348 -6 c191 -3 349 -6 350 -7z
m-2014 -371 c109 -64 196 -119 193 -122 -3 -3 -50 -25 -105 -48 -113 -48 -216
-104 -260 -141 -17 -14 -35 -23 -41 -19 -16 10 -7 460 9 451 3 -2 95 -56 204
-121z m337 -350 l0 -195 -98 0 -98 0 -140 86 c-76 47 -143 89 -147 93 -26 26
359 210 441 211 l42 0 0 -195z m390 0 l0 -195 -165 0 -165 0 0 195 0 195 165
0 165 0 0 -195z m890 0 l0 -195 -415 0 -415 0 0 195 0 195 415 0 415 0 0 -195z
m-1907 11 c12 -8 17 -24 17 -56 0 -71 37 -95 60 -40 7 17 16 30 20 30 5 0 67
-37 139 -81 l132 -81 -111 -48 c-133 -57 -257 -128 -323 -182 l-48 -40 6 253
c3 140 8 264 11 277 l5 23 37 -22 c20 -13 45 -28 55 -33z"/>
</g>
</svg>
