<?xml version="1.0" standalone="no"?>
<!DOCTYPE svg PUBLIC "-//W3C//DTD SVG 20010904//EN"
 "http://www.w3.org/TR/2001/REC-SVG-20010904/DTD/svg10.dtd">
<svg version="1.0" xmlns="http://www.w3.org/2000/svg"
 width="498.000000pt" height="371.000000pt" viewBox="0 0 498.000000 371.000000"
 preserveAspectRatio="xMidYMid meet">
<metadata>
Created by potrace 1.16, written by Peter Selinger 2001-2019
</metadata>
<g transform="translate(0.000000,371.000000) scale(0.100000,-0.100000)"
fill="#000000" stroke="none">
<path d="M2755 3398 c-116 -97 -396 -341 -507 -439 -35 -32 -39 -39 -29 -58 7
-12 21 -21 34 -21 51 0 140 -135 233 -353 19 -43 34 -83 34 -88 0 -7 -206 -9
-565 -7 l-566 2 -225 183 c-123 101 -229 183 -234 183 -6 0 -10 -44 -10 -108
0 -60 -3 -143 -6 -185 l-7 -77 -56 0 c-75 0 -101 -8 -101 -31 0 -12 15 -25 43
-37 24 -11 60 -39 80 -64 l37 -45 0 -111 c0 -61 3 -117 6 -126 8 -21 43 -20
50 2 3 9 12 33 21 52 27 62 34 13 31 -224 l-3 -224 -162 113 -161 113 -7 -122
c-3 -66 -7 -243 -8 -393 -2 -209 1 -275 11 -285 17 -17 44 0 54 37 11 42 72
100 173 166 49 33 93 59 97 59 4 0 8 -28 10 -62 3 -60 4 -63 28 -63 24 0 25 2
28 80 l3 81 75 37 c71 35 79 37 174 37 l99 0 3 -117 3 -118 25 0 25 0 3 118 3
117 134 0 135 0 0 -115 0 -115 25 0 25 0 0 115 0 115 365 0 365 0 0 -215 c0
-186 2 -215 16 -223 11 -6 -10 -11 -66 -15 -46 -4 -85 -9 -88 -11 -10 -10 524
-629 552 -639 8 -3 22 0 31 6 13 10 14 18 6 40 -36 95 17 260 171 529 l61 107
651 475 c358 261 659 481 670 489 15 11 17 17 7 35 -6 12 -16 22 -22 22 -10 0
-1230 751 -1252 770 -5 4 5 35 22 68 l30 60 -72 6 c-39 4 -92 7 -116 9 l-44 2
-103 284 c-57 156 -105 285 -106 286 -2 2 -61 -47 -133 -107z m200 -219 c48
-132 86 -242 84 -243 -7 -6 -226 11 -374 29 -79 10 -180 15 -232 13 l-93 -4
52 46 c99 87 469 400 472 400 2 0 43 -108 91 -241z m-161 -301 l26 -13 -120
-200 c-66 -110 -122 -200 -125 -200 -3 0 -27 50 -53 110 -55 126 -119 240
-165 292 l-32 36 222 -6 c155 -4 229 -10 247 -19z m208 -17 c65 -14 111 -30
146 -52 l51 -31 -70 -140 c-39 -77 -72 -139 -74 -137 -1 2 -20 49 -40 104 -20
55 -57 138 -81 184 -24 46 -44 85 -44 87 0 7 15 5 112 -15z m216 13 c24 -7 26
-12 13 -33 -8 -13 -15 -12 -46 5 -20 10 -39 22 -41 27 -6 8 42 9 74 1z m-311
-146 c37 -76 103 -248 103 -268 0 -4 -50 -10 -110 -12 -82 -2 -113 -7 -119
-17 -13 -20 -5 -33 28 -53 52 -29 121 -164 190 -366 l31 -94 0 -449 c0 -247
-4 -449 -8 -449 -4 0 -95 -9 -202 -20 -223 -23 -233 -23 -225 -10 3 5 6 324 5
709 l0 700 127 210 c70 116 130 208 133 206 4 -3 25 -42 47 -87z m985 -380
c543 -336 585 -364 570 -379 -9 -9 -300 -222 -646 -474 -617 -450 -630 -459
-683 -463 l-53 -4 0 457 0 458 125 242 124 243 -31 6 c-17 3 -70 6 -119 6 -49
0 -89 3 -89 6 0 4 35 73 77 155 l78 148 30 -19 c16 -10 294 -182 617 -382z
m-2744 217 l161 -130 -77 -7 c-42 -3 -119 -4 -169 -1 l-93 6 0 134 c0 74 4
133 8 131 5 -1 81 -61 170 -133z m1865 -175 c19 0 27 -5 27 -17 1 -17 1 -17
11 0 8 14 25 17 99 17 54 0 90 -4 90 -10 0 -6 -41 -92 -91 -193 l-92 -182 -24
65 c-39 108 -85 209 -120 267 -18 31 -33 58 -33 61 0 2 24 2 53 -2 28 -3 64
-6 80 -6z m-2103 -30 c0 -11 -2 -20 -3 -20 -2 0 -12 9 -22 20 -18 19 -17 20 3
20 15 0 22 -6 22 -20z m1080 14 c0 -10 -192 -244 -200 -244 -4 0 -13 13 -19
28 -6 15 -29 54 -51 87 l-39 59 30 38 31 38 124 0 c68 0 124 -3 124 -6z m550
-449 l0 -455 -365 0 -365 0 0 296 0 297 128 158 127 159 238 0 237 0 0 -455z
m-1328 434 c18 -10 14 -15 -48 -57 -38 -25 -88 -60 -110 -79 l-41 -33 -27 40
c-19 29 -26 52 -26 90 l0 50 116 0 c64 0 124 -5 136 -11z m367 -23 l34 -35
-73 -90 c-39 -50 -73 -91 -75 -91 -2 0 -22 30 -44 68 -22 37 -53 85 -69 107
l-30 40 26 17 c21 14 48 18 113 18 84 0 86 0 118 -34z m81 24 c0 -5 -4 -10 -9
-10 -6 0 -13 5 -16 10 -3 6 1 10 9 10 9 0 16 -4 16 -10z m-277 -212 l47 -83 0
-297 0 -298 -100 0 -100 0 -75 52 -75 52 0 246 0 246 97 119 96 119 32 -37
c17 -20 52 -73 78 -119z m326 13 l51 -84 0 -304 0 -303 -135 0 -135 0 0 298 0
299 78 96 c42 53 80 93 84 89 4 -4 30 -45 57 -91z m-615 4 c-27 -33 -40 -43
-48 -35 -8 8 0 20 29 45 56 48 63 43 19 -10z m-127 -17 c-3 -8 -6 -5 -6 6 -1
11 2 17 5 13 3 -3 4 -12 1 -19z m1 -555 l52 -36 0 -91 0 -91 -53 -29 c-74 -42
-156 -98 -199 -139 l-38 -35 0 222 c0 121 3 251 6 288 l7 67 86 -61 c47 -33
110 -76 139 -95z m192 -142 c0 -7 -64 -41 -75 -41 -3 0 -5 23 -5 50 l0 50 40
-26 c22 -15 40 -30 40 -33z m1955 -533 c-88 -152 -185 -381 -185 -440 -1 -61
-16 -51 -142 94 -203 234 -291 339 -287 342 4 3 578 63 627 65 23 1 22 0 -13
-61z"/>
</g>
</svg>
