<?xml version="1.0" standalone="yes"?>
<svg xmlns="http://www.w3.org/2000/svg" width="682" height="371">
<path style="fill:#ffffff; stroke:none;" d="M0 0L0 371L682 371L682 0L0 0z"/>
<path style="fill:#000000; stroke:none;" d="M589 88C544.581 88 500.393 86.5562 456 87.7407C438.346 88.2118 420.714 86.3514 403 87.8264C389.826 88.9233 375.357 87 362 87C358.752 87 350.251 85.5497 348.662 89.4144C347.389 92.5124 351.006 93.9951 353.019 95.2593C359.147 99.1062 363.144 104.996 366.947 111C380.803 132.877 386 151.508 386 177C374.034 177 358.532 179.621 347 176.363C315.479 167.457 287.308 141.741 255 136L253 178L249 178L249 115L250.028 88L263 74L297 39C272.058 38.7935 246.955 37 222 37C218.295 37 199.636 35.1539 199.636 41.0008C199.636 44.381 211.346 47.4876 214 49.5293C225.353 58.2624 234.071 70.2482 242 82L156 80L104 79.6096L37 47C32.0163 63.8606 35 86.4209 35 104C35 107.784 32.9637 120.583 37.2747 122.338C40.4315 123.623 52.488 110.37 56 108L55 202L55 249L39 240C39 259.044 38 277.942 38 297C38 301.273 35.9674 313.028 39.7269 315.953C43.6154 318.978 48.709 308.276 51.0154 306.184C62.2161 296.027 78.1285 289.743 92 284.2C107.364 278.06 126.63 281 143 281L245 281L245 343L251 343L251 262C251 250.272 248.374 234.917 253 224L254 224C255.832 225.321 257.32 226.09 259.371 224.379C268.156 217.05 274.043 210.339 285 205.309C304.546 196.335 327.686 186.807 349 183.325C360.802 181.396 374.045 183 386 183L386 299L391 299L391 183L441 183L441 299L447 299L447 183L495 183L495 299L500 299L500 183L550 183L550 299L556 299L556 186C568.256 195.947 583.392 209.778 589.157 225C592.897 234.875 590 250.483 590 261L590 341L596 341L596 259C596 249.729 592.849 233.357 597.028 225C606.25 206.556 630.079 194.923 642 178L594 177L594 114C594 106.442 591.602 93.8511 595.028 87C604.991 67.0743 632.527 57.3123 642 37C616.994 37 592.05 36 567 36C563.495 36 543.96 33.8659 544.921 39.8302C545.453 43.1336 558.083 47.1013 561 49.4676C571.127 57.6844 588.076 74.2145 589 88z"/>
<path style="fill:#ffffff; stroke:none;" d="M563 42L593 78C605.217 69.3941 619.394 55.2169 628 43C609.121 37.4197 582.726 42 563 42M217 43L248 80C260.54 71.1664 275.166 56.5403 284 44L217 43M42 56L40 111C45.2491 108.078 55.0031 103.85 57 98L91 87L91 81L42 56M104 88C107.264 96.9683 113.926 119.169 122 124C126.651 116.031 130.83 107.501 134.421 99C135.563 96.2947 137.889 92.2352 135.381 89.6034C130.668 84.6571 110.61 88 104 88M159 128L160 128L178 88L155 88L146.222 89.6034L148.691 100L159 128M166 128L244 128L244 88L202 88L185.637 89.0278L179.247 100L166 128M69 102L111 119C108.747 112.087 104.778 95.5692 97.787 92.1211C92.1164 89.3241 73.7118 98.4377 69 102M362 93C371.608 108.429 382.05 122.526 388 140L390 140C394.827 129.797 402.236 120.587 408.192 111C409.966 108.145 414.2 103.654 413.887 100.093C413.459 95.2324 405.759 93.7851 402 93.2894C389.047 91.5811 375.063 93 362 93M444 141L445 141L470 102C461.952 90.8201 449.254 93 437 93C432.22 93 423.92 91.9674 423.721 99.0046C423.592 103.598 428.759 109.181 430.988 113C436.055 121.678 441.231 131.314 444 141M497 140C506.056 134.505 512.966 117.966 518.576 109C520.888 105.303 525.218 100.413 520.833 96.652C513.609 90.4565 493.938 91.6933 485.04 93.1481C481.724 93.6903 478.722 96.5655 478.262 100.001C477.727 104.002 481.967 108.708 483.85 112C488.889 120.814 494.197 130.195 497 140M553 140C564.122 130.785 577.874 107.523 583 94C570.639 94 558.389 93 546 93C541.636 93 535.057 91.8304 533.198 97.0586C531.61 101.522 536.274 106.433 538.396 110C544.037 119.484 549.01 129.715 553 140M472.667 94.3333L473.333 94.6667L472.667 94.3333M588 98C578.26 112.438 561.323 131.284 556.51 148C554.124 156.286 556 167.398 556 176L589 176L589 122L588 98M141 99L128 126L153 128C150.848 118.704 147.135 106.405 141 99M528 105C519.375 116.864 503.942 134.761 500.419 149C498.312 157.514 500 168.243 500 177L535 177C538.531 177 545.457 178.301 548.397 175.972C551.829 173.254 550 162.938 550 159C550 141.202 540.333 118.13 528 105M62 106C62 116.703 60.9993 127.277 61 138C61.0002 141.468 60.1188 146.821 63.3179 149.215C66.8897 151.887 71.7118 148.332 75 146.781C84.2919 142.399 94.1822 139.226 104 136.28C106.799 135.44 114.128 134.52 114.454 130.791C114.903 125.639 106.521 123.83 103 122.397C89.5547 116.923 76.0057 109.831 62 106M418 106C409.852 118.313 394.968 134.654 391.419 149C389.313 157.514 391 168.243 391 177L441 177C441 167.727 442.441 157.103 440.621 148C437.771 133.746 428.024 117.904 420 106L418 106M473 107C465.055 119.007 451.494 134.165 447.51 148C445.043 156.567 447 168.104 447 177L495 177C495 153.832 492.366 123.479 473 107M123 177L156 177L156 147L154.821 135.603L141 134L124.603 136.938L123 148L123 177M162 177L244 177L244 134L184 134L163.028 135.603L162 147L162 177M72 155C85.1618 163.057 101.202 176.988 117 177L117 139C103.847 140.148 82.3196 146.663 72 155M261 145L259 178L297 179L275 203L338 180L307 165.139L261 145M66 158C57.3063 168.28 61 189.219 61 202L101 180L101 179L66 158M563 183L563 184C574.443 192.061 585.752 205.44 592 218C604.42 212.208 620.124 194.181 628 183L563 183M67 204C70.9316 208.62 76.8326 211.299 82 214.4C92.4587 220.675 104.456 230.888 117 231L117 183C99.1586 183.051 82.0208 195.637 67 204M123 183L123 231L156 231L156 183L123 183M162 183L162 231L245 231C244.559 222.846 238.624 216.288 233.87 210C227.319 201.333 219.935 191.97 210 186.998C195.945 179.965 177.252 183 162 183M217 184L217 185C230.348 193.83 238.451 207.577 248 220L249 220C256.306 211.36 253 194.828 253 184L217 184M259 184L258 210L283 185L259 184M62 210L62 254L103 234C92.6862 225.037 75.0208 214.122 62 210M69 257C81.1049 271.225 99.4634 276 117 276L117 237C100.63 237.047 82.2566 248.064 69 257M123 237L123 276L156 276L156 237L123 237M162 237L162 276L245 276L245 237L162 237M45 251L44 303L89 279L89 277L64 262C57.0892 272.484 57.6703 261.44 54.0617 256.529C51.9622 253.671 48.2006 252.172 45 251z"/>
</svg>
