<?xml version="1.0" standalone="no"?>
<!DOCTYPE svg PUBLIC "-//W3C//DTD SVG 20010904//EN"
 "http://www.w3.org/TR/2001/REC-SVG-20010904/DTD/svg10.dtd">
<svg version="1.0" xmlns="http://www.w3.org/2000/svg"
 width="682.000000pt" height="371.000000pt" viewBox="0 0 682.000000 371.000000"
 preserveAspectRatio="xMidYMid meet">
<metadata>
Created by potrace 1.16, written by Peter Selinger 2001-2019
</metadata>
<g transform="translate(0.000000,371.000000) scale(0.100000,-0.100000)"
fill="#000000" stroke="none">
<path d="M5462 3342 c-26 -18 -8 -43 44 -61 101 -34 214 -142 337 -322 44 -64
53 -84 49 -110 -5 -31 -5 -31 -51 -24 -68 10 -2310 15 -2338 4 -36 -13 -27
-36 25 -62 80 -39 192 -211 296 -455 36 -83 36 -85 36 -228 l0 -144 -198 0
-199 0 -452 205 c-249 113 -454 205 -456 205 -1 0 -6 -93 -10 -207 -4 -115 -9
-211 -11 -215 -2 -3 -13 -4 -24 -1 -20 5 -20 14 -20 457 l0 451 241 241 241
241 -144 6 c-245 12 -813 8 -825 -4 -19 -19 -3 -38 41 -50 91 -24 191 -112
315 -279 l71 -95 -202 -3 c-112 -2 -315 1 -453 7 -137 6 -364 11 -503 10
l-253 0 -323 164 -324 164 -6 -45 c-3 -25 -9 -186 -13 -357 -6 -319 -3 -355
32 -355 8 0 24 18 34 39 13 25 42 53 82 80 34 23 63 40 64 39 1 -2 -1 -68 -5
-148 -5 -80 -6 -318 -4 -530 4 -414 4 -743 -1 -748 -2 -2 -36 17 -76 43 l-74
45 -7 -32 c-4 -18 -10 -179 -14 -358 -7 -335 -4 -370 31 -370 8 0 25 21 37 46
15 32 39 60 79 89 67 49 233 136 361 189 l87 36 735 0 736 0 2 -307 3 -308 25
0 25 0 3 584 c2 591 5 638 37 594 17 -23 40 -11 60 31 40 85 234 181 627 312
l203 68 213 4 212 3 0 -580 0 -581 25 0 25 0 0 580 0 580 255 0 255 0 0 -580
0 -580 25 0 25 0 0 580 0 580 240 0 240 0 0 -580 0 -580 25 0 25 0 0 580 0
580 255 0 255 0 0 -580 0 -580 25 0 25 0 0 565 c0 426 3 565 12 565 22 0 204
-196 266 -287 l62 -91 0 -586 0 -586 30 0 30 0 0 587 0 588 226 226 226 226
-108 6 c-59 4 -165 7 -236 7 l-128 0 0 457 0 458 237 237 c130 131 235 239
232 242 -9 10 -934 17 -947 8z m828 -59 c2 -2 -77 -85 -176 -183 l-179 -180
-65 92 c-36 51 -109 137 -163 191 l-97 98 337 -7 c186 -3 340 -8 343 -11z
m-3552 -12 l102 -6 -179 -180 c-99 -98 -182 -177 -184 -175 -2 3 -28 41 -58
85 -30 44 -99 126 -155 183 l-100 102 235 -1 c130 -1 282 -4 339 -8z m-2066
-243 c194 -100 238 -127 238 -143 0 -12 5 -26 11 -32 7 -7 2 -12 -18 -17 -15
-4 -89 -32 -164 -62 -77 -31 -144 -52 -153 -48 -10 4 -16 1 -16 -9 0 -8 -21
-27 -47 -43 -27 -15 -66 -41 -87 -58 l-39 -30 7 265 c7 254 10 299 23 299 3 0
113 -55 245 -122z m672 -194 c44 -17 40 -39 -40 -204 -43 -88 -82 -160 -88
-160 -24 0 -35 19 -71 115 -20 55 -54 132 -75 172 -38 70 -38 72 -17 76 36 7
274 8 291 1z m446 1 c0 -14 -191 -400 -197 -398 -3 1 -23 49 -44 108 -20 58
-53 138 -71 178 -28 58 -33 77 -25 95 10 21 14 22 174 22 89 0 163 -2 163 -5z
m650 -200 l0 -205 -390 0 c-214 0 -390 2 -390 5 0 2 43 94 97 205 l96 200 294
0 293 0 0 -205z m-1410 84 c53 -105 93 -213 77 -206 -161 65 -414 171 -420
176 -4 4 18 18 50 31 131 51 238 88 246 83 4 -2 25 -40 47 -84z m3046 50 c17
-5 41 -20 54 -34 l23 -24 -24 -39 c-63 -105 -235 -371 -239 -372 -3 0 -27 49
-53 108 -57 129 -136 264 -195 332 l-43 50 223 -6 c123 -3 237 -10 254 -15z
m510 5 c50 -6 118 -58 109 -83 -3 -9 -60 -100 -127 -203 -106 -166 -138 -204
-138 -166 0 20 -118 257 -163 325 l-45 70 20 34 19 34 142 -3 c78 -1 160 -5
183 -8z m490 4 c78 -3 96 -7 127 -28 21 -14 36 -32 35 -41 -3 -17 -250 -408
-258 -408 -3 0 -27 50 -54 111 -28 61 -74 151 -103 200 l-54 89 24 42 25 42
83 -2 c46 -2 125 -4 175 -5z m715 -6 l46 -7 -96 -150 c-53 -83 -120 -188 -150
-234 l-54 -84 -67 140 c-37 77 -88 172 -113 211 l-45 70 23 33 22 34 194 -3
c107 -2 215 -6 240 -10z m-1049 -14 c-9 -9 -15 -9 -24 0 -9 9 -7 12 12 12 19
0 21 -3 12 -12z m1148 -418 l0 -400 -165 0 -165 0 0 148 0 148 161 252 c89
139 163 252 165 252 2 0 4 -180 4 -400z m-4394 203 c19 -52 34 -98 34 -103 0
-11 -208 -14 -234 -4 -9 3 -16 10 -16 14 0 5 30 71 66 147 l66 138 25 -49 c14
-27 40 -92 59 -143z m-346 -127 c6 -16 9 -30 8 -32 -2 -1 -79 -27 -173 -58
-93 -31 -205 -73 -248 -93 -76 -36 -79 -36 -105 -20 l-27 16 3 123 c1 68 5
164 8 214 l6 91 259 -106 c237 -97 260 -108 269 -135z m3073 205 c34 -51 137
-259 171 -343 24 -60 26 -79 26 -202 l0 -136 -255 0 -255 0 0 146 0 147 137
213 c75 118 139 214 143 214 4 0 19 -17 33 -39z m1119 -47 c26 -43 74 -140
108 -215 l60 -136 0 -141 0 -142 -255 0 -255 0 0 145 0 146 137 214 c76 118
142 214 148 212 5 -2 31 -39 57 -83z m-517 -76 c31 -59 71 -144 90 -189 35
-80 35 -83 35 -225 l0 -144 -240 0 -240 0 0 149 0 149 132 206 132 207 18 -23
c10 -13 43 -71 73 -130z m-3265 -348 l0 -220 -165 0 -165 0 0 209 0 209 38 10
c20 5 94 10 165 11 l127 1 0 -220z m880 0 l0 -220 -410 0 -410 0 0 220 0 220
410 0 410 0 0 -220z m-1270 -20 l0 -200 -36 0 c-28 0 -79 26 -231 117 l-196
117 64 29 c57 26 372 136 392 137 4 0 7 -90 7 -200z m1828 -36 c213 -97 389
-177 391 -180 2 -2 -2 -6 -10 -8 -319 -102 -475 -159 -602 -220 l-69 -33 126
126 c69 70 126 130 126 134 0 4 -83 7 -185 7 l-185 0 0 53 c0 79 12 297 17
297 2 0 178 -79 391 -176z m-2156 -70 c98 -59 178 -110 178 -113 0 -4 -17 -13
-37 -20 -80 -28 -241 -110 -307 -155 -37 -26 -69 -46 -70 -44 -1 2 0 91 3 199
5 175 8 199 25 218 11 12 22 21 25 21 3 0 85 -48 183 -106z m5376 -143 l72 -6
-178 -179 -179 -178 -56 78 c-71 101 -155 198 -213 246 l-46 37 144 4 c251 5
381 5 456 -2z m-5048 -241 l0 -240 -37 0 c-29 0 -81 26 -250 126 -117 69 -213
130 -213 135 0 38 377 218 458 219 l42 0 0 -240z m390 0 l0 -240 -165 0 -165
0 0 240 0 240 165 0 165 0 0 -240z m502 221 c20 -6 64 -32 97 -57 103 -77 291
-320 291 -376 l0 -28 -415 0 -415 0 0 241 0 240 203 -4 c119 -2 217 -9 239
-16z m341 12 l127 -6 0 -162 c0 -158 -1 -162 -24 -184 l-24 -23 -50 74 c-68
100 -172 220 -233 268 l-51 40 64 0 c34 0 120 -3 191 -7z m317 -138 l-135
-135 -3 112 c-4 171 -16 158 141 158 l132 0 -135 -135z m-1887 -240 c109 -64
196 -119 193 -122 -3 -3 -50 -25 -105 -48 -113 -48 -216 -104 -260 -141 -17
-14 -35 -23 -41 -19 -16 10 -7 460 9 451 3 -2 95 -56 204 -121z m337 -350 l0
-195 -98 0 -98 0 -140 86 c-76 47 -143 89 -147 93 -26 26 359 210 441 211 l42
0 0 -195z m390 0 l0 -195 -165 0 -165 0 0 195 0 195 165 0 165 0 0 -195z m890
0 l0 -195 -415 0 -415 0 0 195 0 195 415 0 415 0 0 -195z m-1907 11 c12 -8 17
-24 17 -56 0 -71 37 -95 60 -40 7 17 16 30 20 30 5 0 67 -37 139 -81 l132 -81
-111 -48 c-133 -57 -257 -128 -323 -182 l-48 -40 6 253 c3 140 8 264 11 277
l5 23 37 -22 c20 -13 45 -28 55 -33z"/>
</g>
</svg>
