<?xml version="1.0" standalone="no"?>
<!DOCTYPE svg PUBLIC "-//W3C//DTD SVG 20010904//EN"
 "http://www.w3.org/TR/2001/REC-SVG-20010904/DTD/svg10.dtd">
<svg version="1.0" xmlns="http://www.w3.org/2000/svg"
 width="454.000000pt" height="371.000000pt" viewBox="0 0 454.000000 371.000000"
 preserveAspectRatio="xMidYMid meet">
<metadata>
Created by potrace 1.16, written by Peter Selinger 2001-2019
</metadata>
<g transform="translate(0.000000,371.000000) scale(0.100000,-0.100000)"
fill="#000000" stroke="none">
<path d="M3348 3379 c-32 -18 -22 -47 21 -59 82 -22 198 -164 302 -372 l49
-98 -611 0 -610 0 -287 220 -287 220 -6 -62 c-4 -35 -10 -222 -14 -415 l-7
-353 -424 0 -424 0 -286 151 c-157 83 -287 149 -289 147 -4 -4 -25 -464 -25
-550 l0 -38 -70 50 c-39 28 -74 50 -78 50 -18 0 -51 -1238 -34 -1275 17 -37
38 -30 62 21 28 58 120 124 284 205 l119 59 599 0 599 0 -6 -67 c-3 -38 -7
-229 -8 -426 -2 -298 0 -359 12 -366 23 -15 40 -1 52 42 22 83 174 205 410
331 l106 56 676 0 677 0 0 -185 0 -185 25 0 25 0 0 1046 0 1046 251 395 c138
217 249 396 247 398 -2 2 -137 8 -300 14 -373 14 -727 14 -750 0z m870 -58
l92 -6 -215 -339 c-118 -186 -216 -340 -218 -342 -2 -2 -14 22 -27 54 -97 239
-234 481 -330 585 l-64 70 334 -8 c184 -4 377 -10 428 -14z m-1916 -385 c59
-44 108 -85 108 -91 0 -5 -35 -28 -77 -49 -116 -60 -250 -151 -320 -218 l-62
-60 5 253 c3 140 7 291 10 336 l6 83 111 -86 c62 -48 160 -123 219 -168z
m1494 -248 l49 -113 3 -837 2 -838 -680 -2 -680 -3 -119 90 -120 90 0 488 -1
489 183 190 c100 104 184 194 185 199 2 5 -46 10 -110 10 -62 1 -207 5 -323 8
l-210 6 65 66 c75 75 143 123 296 208 l109 61 651 0 650 0 50 -112z m-2897
-206 l93 -50 -48 -17 c-178 -65 -312 -128 -386 -181 l-48 -34 0 164 c0 89 3
197 6 239 l7 77 141 -74 c78 -41 183 -97 235 -124z m1529 -82 l84 0 -142 -150
-143 -150 -50 76 c-28 42 -85 113 -127 157 l-75 80 184 -6 c101 -4 222 -7 269
-7z m-497 -28 c59 -38 135 -123 209 -233 60 -90 60 -90 60 -165 l0 -74 -435 0
-435 0 0 58 0 59 167 149 167 149 -310 6 c-345 7 -399 4 -399 -25 0 -13 12
-22 43 -31 61 -19 140 -82 211 -170 59 -74 61 -78 61 -136 l0 -59 -216 0 -216
0 -159 111 c-136 94 -158 113 -149 128 25 48 174 129 386 210 l129 50 421 1
420 0 45 -28z m-432 -135 c-20 -18 -72 -65 -117 -105 l-80 -72 -52 65 c-28 35
-72 83 -97 105 l-46 40 214 0 214 -1 -36 -32z m-915 -222 c102 -71 186 -133
186 -136 0 -4 -24 -17 -54 -29 -80 -32 -247 -131 -321 -190 l-65 -52 0 135 c0
73 3 202 7 285 l6 152 27 -18 c15 -9 111 -75 214 -147z m686 -420 l0 -255
-266 0 -265 0 -166 113 c-92 61 -171 115 -177 119 -29 19 126 126 318 219
l121 59 218 0 217 0 0 -255z m930 -111 c0 -292 -3 -364 -12 -357 -7 5 -65 49
-128 98 -63 48 -120 94 -126 101 -9 11 -68 14 -308 14 l-296 0 0 255 0 255
435 0 435 0 0 -366z m-1528 -163 c5 -4 -43 -32 -105 -64 -61 -31 -145 -81
-185 -112 l-73 -55 7 193 c5 125 12 203 21 225 l14 33 157 -107 c86 -59 160
-110 164 -113z m1588 -315 c85 -65 159 -122 164 -126 5 -5 -27 -26 -70 -48
-116 -58 -259 -156 -331 -224 l-62 -60 5 253 c3 140 7 291 10 336 l6 83 61
-47 c34 -26 132 -101 217 -167z"/>
</g>
</svg>
