<?xml version="1.0" standalone="yes"?>
<svg xmlns="http://www.w3.org/2000/svg" width="454" height="371">
<path style="fill:#ffffff; stroke:none;" d="M0 0L0 371L454 371L454 0L0 0z"/>
<path style="fill:#000000; stroke:none;" d="M371 85L287 85L250 84.2724L232 71.3488L192 41L190.985 72L190 125L134 125L106 124.363L47 94L45 153L29 143C29 175.654 26 208.334 26 241L26 264C26.0012 266.554 25.2344 271.162 27.588 272.953C31.6452 276.04 35.0774 267.195 37.108 265.09C45.667 256.218 58.7765 250.173 70 245.428C81.7697 240.452 97.4081 243 110 243L192 243C192 264.386 191 285.612 191 307C191 311.856 188.618 325.947 193.39 328.914C197.066 331.199 201.86 319.313 204.043 317C214.827 305.574 229.021 297.215 243 290.248C255.819 283.86 273.934 287 288 287L384 287L384 324L390 324L390 179L390 136L390.702 115L406 90L441 34C413.365 33.9818 385.724 32 358 32C353.746 32 333.821 29.5061 332.921 35.1736C332.348 38.7825 343.549 43.6875 345.996 46.0401C357.369 56.9752 363.205 71.6442 371 85z"/>
<path style="fill:#ffffff; stroke:none;" d="M346 37L346 38C369.631 54.6574 371.822 85.6235 388 107L417.192 61L430 39L346 37M197 53L196 117L241 87C231.066 74.7962 211.025 60.1596 197 53M199 125L263 126C252.115 138.459 233.405 151.246 226.028 166C222.927 172.201 225 183.18 225 190L225 240C225 246.291 223.182 255.962 225.603 261.826C228.183 268.074 241.937 277.255 248 280.012C258.126 284.615 276.917 281 288 281L384 281L384 151C384 132.445 387.461 109.027 374.926 93.3179C372.128 89.8116 365.965 91 362 91L329 91L273 91C264.303 91 253.402 89.25 245 91.6373C237.081 93.8874 228.914 99.674 222 104.053C213.621 109.36 203.312 115.754 199 125M52 104L51 150L98 128C86.659 118.603 66.1626 108.08 52 104M127 180C126.998 163.502 111.696 146.261 95 144C96.3133 135.955 105.688 138 112 138C130.045 138 147.942 139 166 139C155.684 153.343 133.002 160.52 133 180L220 180C220 162.24 207.174 139.976 190 132.533C181.734 128.951 169.852 131 161 131C138.043 131 113.72 127.94 92 136.192C81.8104 140.064 60.1134 145.602 54.7515 156.025C52.405 160.587 60.0383 164.207 63 166.28C74.0507 174.016 81.2435 180 95 180L127 180M200 131L222 160C232.327 152.725 242.734 141.317 250 131L200 131M112 144L130 164L131 164L151 145L112 144M35 154C30.2301 170.137 33 192.141 33 209L76 184L76 182L35 154M39 212C45.7183 220.129 64.7094 234.022 75 236.581C90.5205 240.44 110.991 237 127 237L127 186C113.75 186 97.9593 183.634 85 186.39C68.5777 189.882 52.178 202.24 39 212M133 186L133 237L172 237L191 237.589L220 258L220 186L133 186M35 218C29.2867 230.289 32 246.682 32 260L67 240C59.0782 231.332 45.6005 223.015 35 218M198 250L197 314L242 284C232.009 271.727 212.101 257.198 198 250z"/>
</svg>
