<?xml version="1.0" standalone="yes"?>
<svg xmlns="http://www.w3.org/2000/svg" width="674" height="371">
<path style="fill:#ffffff; stroke:none;" d="M0 0L0 371L674 371L674 0L0 0z"/>
<path style="fill:#000000; stroke:none;" d="M567 98L390 98C374.225 98 363.87 89.0581 351 80.6559C347.785 78.5572 339.428 74.9013 338.591 70.8156C337.848 67.1895 343.12 61.8066 345.001 59C351.262 49.6548 359.63 40.3878 364 30L277 28L240 29C240.585 36.5307 248.82 37.0516 254 41.3287C262.75 48.5529 268.729 58.7043 275 68C240.827 75.0722 206.367 86.7649 173 97.0247C160.655 100.821 142.012 110.305 130 104C127.846 114.53 114.231 107.426 107 105.627C84.1171 99.9339 60.354 92.1449 37 89C43.7474 112.422 61.6898 135.854 73.7191 157C76.0125 161.031 82.6152 176.987 88.6852 175.11C91.0548 174.377 91.9502 159.418 93.8758 156C102.542 140.616 116.198 128.792 129 117L128 272L95.5787 234L79 217C68.1131 234.785 57.1936 252.679 47.2307 271C45.1362 274.852 36.6791 285.873 40.0679 290.381C42.5055 293.624 57.0219 284.833 61 283.884C82.806 278.682 105.756 280 128 280C128.002 282.981 126.995 291.169 131.224 291.94C135.689 292.754 136.402 284.455 142.004 285.188C153.311 286.669 165.257 292.926 176 296.656C197.6 304.154 219.619 310.71 241 318.808C258.237 325.336 277.344 329.105 293.941 337.108C299.445 339.762 296.06 352.364 301.976 352.364C306.012 352.364 314.689 339.452 319 336.865C336.057 326.628 358.191 315.627 378 312.326C398.556 308.9 422.148 312 443 312L576 312L576 339L581 339L581 185L581 138L581.513 116L596.576 93L625.33 51L639 29C607.718 28.9138 576.3 26.012 545 26C537.584 25.9972 530.373 26.6702 523 26.99C520.658 27.0915 516.41 26.9327 515.921 30.0903C515.435 33.2336 532.127 42.0375 534.91 45.0038C548.625 59.6227 559.333 79.5836 567 98z"/>
<path style="fill:#ffffff; stroke:none;" d="M531 32C549.417 56.0858 567.961 78.5177 578 108L579 108L629 34L531 32M256 34L281 66L297 62L298 68L284 71L300 104L301 104L303 50L330 68L331 68L353 36C322.227 30.2871 287.293 34 256 34M308 61L307 102C314.364 95.9135 324.81 81.3218 327 72L308 61M143 113C153.724 120.236 166.505 132.892 179 136.49C190.088 139.683 205.47 137 217 137L300 137C300 118.577 295.47 106.447 287.247 90C285.169 85.844 282.407 76.1877 277.787 74.3526C270.628 71.5089 252.335 80.4874 245 82.5787C221.316 89.3311 197.664 96.1801 174 103C164.554 105.722 150.905 107.11 143 113M306 139L307 139C321.353 120.551 348.725 109.254 370 101L344 83.3333L333.184 77.8812L321.67 92L306.702 115L306 139M48 98L84 163L85 163C88.5456 142.474 109.307 130.29 121 115L48 98M576 306L576 158C576 144.69 581.395 115.562 570.351 105.603C565.878 101.57 552.722 104 547 104L482 104L412 104C400.928 104 387.818 102.084 377 104.529C365.966 107.022 355.041 113.72 345 118.753C332.704 124.917 315.36 133.041 309.046 146C300.413 163.72 306 193.58 306 213L306 252C306 256.454 304.634 263.724 307.028 267.671C309.655 272.004 316.704 274.041 321 276.258C332.393 282.139 343.604 288.376 355 294.258C362.274 298.013 369.904 303.859 378 305.61C397.549 309.836 421.977 306 442 306L576 306M135 115C135 125.415 128.355 152.302 146 152.303C153.804 152.304 164.692 143.043 172 140L172 139L135 115M152 156L152 158L179 175.49L217 176L300 176L300 143L219 143L179 143.529L152 156M135 154L135 161L140 158L135 154M172 179C167.231 174.432 151.89 160.736 145 162.136C130.417 165.098 130.894 190.309 147 190.448C154.446 190.512 164.873 181.765 172 179M153 195L153 196L178 212.298L216 213L300 213L300 182L221 182C195.623 182 175.078 180.44 153 195M135 191L135 200L141 196L135 191M171 217L171 215C165.662 211.399 152.478 198.844 146 200.137C132.937 202.743 128.228 229.102 145 229.163C152.644 229.19 163.632 219.859 171 217M151 233L151 235L179 253.272L216 254L300 254L300 219L219 219L180 219.39L151 233M80 227L49 281C72.1988 273.582 96.9172 274 121 274L82 227L80 227M135 231L135 238L139 233L135 231M134 276L171 257L171 255C164.452 250.959 152.837 238.927 145 239.024C130.317 239.205 134 267.209 134 276M144 278L144 279L205 300.003L298 332L300 259L219 259C206.719 259 191.985 256.783 180 259.529C167.381 262.421 154.59 270.862 144 278M306 275L306 338C326.023 326.605 346.2 314.275 369 309L369 308L306 275z"/>
</svg>
