<?xml version="1.0" standalone="yes"?>
<svg xmlns="http://www.w3.org/2000/svg" width="605" height="371">
<path style="fill:#ffffff; stroke:none;" d="M0 0L0 371L605 371L605 0L0 0z"/>
<path style="fill:#000000; stroke:none;" d="M189 157L189 159C216.224 174.156 240.826 199.942 270 211L270 212L188 212L149 211.39L65 177.8L36 167C36 191.023 33.0015 214.989 33 239C32.9997 244.34 30.7225 259.733 36.3017 262.914C39.4465 264.706 41.4109 261.076 42.9506 259.02C47.651 252.744 55.0581 249.06 62 245.781C89.1612 232.949 121.393 222.695 151 217.464C162.463 215.438 175.372 217 187 217L258 217C264.148 217 270.928 216.203 277 217.225C280.518 217.817 283.398 220.397 286.955 220.717C289.999 220.99 290.862 219.632 291 217C297.211 217 305.088 215.712 311 217.818C316.906 219.922 322.326 226.659 328.89 226.639C336.174 226.617 328.578 219.217 326 218L326 217C334.595 217 346.99 214.737 355 218.086C359.801 220.092 368.031 228.782 373.667 226.353C378.496 224.272 371.716 218.586 370 217L432 217L427 221L427 223C456.46 235.265 483.742 252.658 513 265.424C519.991 268.475 526.69 272.607 534 274.891C536.219 275.585 540.554 276.291 540.963 272.891C541.421 269.084 535.583 266.56 533 265C524.298 259.745 515.824 253.606 510.105 245C496.21 224.091 503.736 197.424 512 176C526.604 184.524 542.501 191.833 558 198.576C560.917 199.845 571.218 205.776 573.673 201.4C576.014 197.226 566.529 192.765 564 191.192C550.746 182.953 540.441 172.642 536.888 157C532.028 135.602 540.293 112.031 549.809 93C553.764 85.0901 560.98 77.5966 563 69L497 119.997L460 150L495 167C485.407 179.507 468.391 189.033 456 198.789C450.714 202.952 444.556 209.55 438 211.487C421.704 216.301 398.021 212 381 212C375.117 212 365.872 213.869 361.638 208.852C352.413 197.92 358.812 183.681 362 172C369.692 175.685 372.648 170.08 366 165L366 164L383 142C374.802 144.411 365.357 155.471 357.015 155.415C347.36 155.35 341.893 135.237 340.615 128C334.803 95.0952 363.422 70.2487 378 45L354 58.1998L313 82.6003L189 157z"/>
<path style="fill:#ffffff; stroke:none;" d="M354 65C337.798 75.7209 320.66 85.2042 304 95.1998C295.736 100.158 286.242 104.227 283 114C295.499 120.958 306.875 129.983 319 137.576C322.7 139.893 328.313 145.145 332.977 144.433C339.993 143.362 335.358 132.446 334.846 128C333.111 112.946 338.057 97.5499 344.309 84C347.053 78.0547 353.243 71.4322 354 65M471 148L471 149C478.361 153.296 491.438 162.663 500 163.049C505.391 163.292 512.059 155.747 516 152.6C520.05 149.367 526.286 146.091 528.972 141.561C531.47 137.349 530.774 129.84 531.887 125C534.461 113.809 538.658 103.583 543 93L519 110.576L471 148M200 157L200 159L265 201C261.67 194.744 258.157 188.993 256.503 182C250.35 155.988 265.68 136.857 274 114L200 157M279 118C263.905 142.664 250.079 178.01 274.015 201.985C277.379 205.355 281.442 209.575 286 211.262C290.731 213.012 297.021 212 302 212L302 211L265 188L265 186L326 150C315.299 137.423 293.473 126.058 279 118M338 144L336 149L344 153L338 144M529 144L514 171L544 185L532.52 164L529 144M315 182L347 163C343.863 159.998 336.655 153.716 332.04 154.113C323.725 154.83 317.234 175.397 315 182M316 162L277 186L277 188L311 209C307.267 199.307 306.856 188.985 310.029 179C311.655 173.883 316.784 167.263 316 162M509 165L508 168L509 168L509 165M320 186L320 188L354 209C348.997 193.619 352.922 182.941 357 168C345.297 165.56 329.999 180.677 320 186M438 222L512 258C501.102 241.508 494.791 227.319 497.286 207C498.296 198.775 500.34 190.828 503.003 183C503.864 180.469 506.426 176.084 504.868 173.453C501.652 168.02 490.679 179.485 488 181.576C472.321 193.81 449.927 206.084 438 222M42 176L39 253C66.6525 234.11 104.512 219.509 138 215C131.303 208.502 118.621 205.848 110 202.4C88.613 193.845 64.6762 179.905 42 176M313 191C313.464 213.496 326.751 212 345 212L345 211L313 191z"/>
</svg>
