<?xml version="1.0" standalone="no"?>
<!DOCTYPE svg PUBLIC "-//W3C//DTD SVG 20010904//EN"
 "http://www.w3.org/TR/2001/REC-SVG-20010904/DTD/svg10.dtd">
<svg version="1.0" xmlns="http://www.w3.org/2000/svg"
 width="632.000000pt" height="371.000000pt" viewBox="0 0 632.000000 371.000000"
 preserveAspectRatio="xMidYMid meet">
<metadata>
Created by potrace 1.16, written by Peter Selinger 2001-2019
</metadata>
<g transform="translate(0.000000,371.000000) scale(0.100000,-0.100000)"
fill="#000000" stroke="none">
<path d="M2146 3200 c-247 -138 -452 -248 -454 -245 -9 9 53 149 106 239 29
50 78 121 108 158 30 38 53 68 51 68 -2 0 -228 -124 -501 -276 -274 -151 -500
-274 -501 -272 -2 2 10 44 26 93 51 151 123 276 263 455 6 8 -9 3 -34 -11 -25
-14 -262 -146 -527 -293 -266 -147 -483 -271 -483 -274 1 -8 32 -31 480 -352
363 -261 548 -387 574 -392 10 -1 23 5 30 15 9 16 3 26 -49 70 -231 197 -300
322 -293 531 l3 87 80 -58 c215 -158 722 -518 819 -582 108 -71 147 -84 154
-50 2 11 -30 45 -86 93 -50 41 -108 96 -130 121 -50 57 -106 163 -123 235 -14
58 -19 214 -7 225 4 4 118 -74 255 -172 521 -376 697 -496 722 -491 9 2 17 13
19 24 2 16 -17 38 -77 88 -197 164 -276 308 -269 488 l3 70 119 -87 c569 -415
879 -627 910 -623 45 6 27 36 -74 123 -189 163 -252 284 -252 484 0 201 86
424 244 632 38 50 66 89 61 87 -4 -3 -230 -128 -501 -278 -271 -150 -496 -270
-499 -266 -12 12 37 159 87 263 52 108 107 196 173 276 21 26 35 47 30 47 -4
-1 -210 -113 -457 -250z m230 -1 c-62 -115 -114 -277 -125 -384 -15 -152 17
-305 87 -408 15 -23 32 -49 37 -56 10 -17 -64 34 -435 302 -151 109 -275 203
-275 209 0 10 746 430 753 424 1 -2 -18 -41 -42 -87z m-1346 4 c-94 -163 -142
-330 -143 -493 -1 -100 3 -125 27 -194 25 -73 51 -124 94 -185 18 -26 -35 10
-461 317 -141 102 -254 189 -250 193 7 6 764 428 770 429 1 0 -16 -30 -37 -67z
m685 -54 c-29 -59 -63 -139 -76 -177 -19 -58 -28 -73 -51 -83 -33 -14 -35 -24
-8 -39 18 -10 19 -18 14 -98 -10 -140 32 -308 101 -398 14 -18 25 -35 25 -39
0 -8 -76 44 -415 289 -165 119 -301 220 -302 224 -2 6 758 432 764 428 1 -1
-23 -49 -52 -107z m1362 -9 c-165 -329 -165 -594 0 -829 18 -24 -70 36 -470
325 -131 95 -238 176 -239 181 0 6 753 432 759 428 1 0 -21 -48 -50 -105z"/>
<path d="M3337 3058 c-4 -166 -7 -361 -7 -435 l0 -133 -69 0 c-51 0 -74 -4
-86 -16 -20 -20 -6 -39 34 -47 15 -3 48 -21 72 -39 39 -30 44 -39 47 -78 4
-76 10 -92 34 -88 14 2 25 12 28 28 6 22 13 15 73 -76 l67 -102 0 -467 0 -466
-86 66 c-47 36 -89 64 -92 61 -3 -4 -10 -194 -15 -424 -10 -429 -7 -472 28
-472 9 0 25 22 39 53 43 96 197 217 424 331 l92 46 785 0 785 0 0 -185 0 -185
25 0 25 0 0 1048 0 1047 251 395 250 395 -58 7 c-86 9 -954 22 -986 14 -46
-11 -35 -43 26 -70 86 -38 167 -138 280 -348 26 -47 47 -89 47 -92 0 -3 -348
-6 -772 -6 l-773 0 -225 266 c-124 146 -227 267 -231 269 -3 3 -9 -131 -12
-297z m2570 214 l42 -7 -197 -310 c-108 -171 -206 -325 -218 -343 l-20 -32
-34 82 c-50 123 -161 342 -220 433 -29 44 -77 106 -108 139 l-57 58 385 -7
c212 -4 404 -10 427 -13z m-2149 -483 c-2 -3 -43 -40 -93 -81 -49 -41 -120
-107 -156 -146 -57 -61 -72 -72 -99 -72 l-33 0 6 233 c4 127 7 294 7 370 l0
138 185 -218 c102 -120 184 -221 183 -224z m1677 -149 l50 -115 3 -837 2 -838
-792 0 -793 0 -157 122 -158 121 0 489 0 489 185 202 185 202 -216 7 c-119 4
-219 9 -222 13 -8 8 117 128 211 203 l78 62 787 -2 786 -3 51 -115z m-2105
-210 c0 -5 -2 -10 -4 -10 -3 0 -8 5 -11 10 -3 6 -1 10 4 10 6 0 11 -4 11 -10z
m69 -7 c-7 -10 -15 -20 -16 -22 -2 -2 -3 5 -3 17 0 14 6 22 16 22 14 0 15 -3
3 -17z m293 7 l160 0 -118 -127 c-64 -71 -129 -141 -144 -157 l-27 -28 -56 83
c-31 46 -65 96 -76 110 l-20 25 30 53 c29 50 33 53 61 47 17 -3 102 -6 190 -6z
m-195 -1329 c17 -13 34 -32 36 -42 3 -11 13 -19 24 -19 10 0 80 -48 156 -106
l138 -106 -105 -58 c-145 -81 -251 -154 -313 -216 l-52 -52 5 261 c2 144 7
295 10 335 l6 73 31 -24 c18 -13 46 -34 64 -46z"/>
<path d="M965 1660 c-352 -231 -641 -423 -642 -427 -5 -17 1079 -797 1185
-852 26 -14 52 -1 52 25 0 7 -44 52 -97 100 -121 107 -173 169 -217 259 -123
251 -68 612 151 997 37 66 101 163 141 216 66 88 77 103 70 101 -2 0 -291
-189 -643 -419z m405 162 c-52 -85 -147 -293 -178 -392 -100 -313 -78 -584 61
-779 53 -75 54 -77 2 -40 -28 20 -133 96 -235 169 -304 218 -610 443 -610 449
0 7 984 650 988 646 2 -2 -11 -25 -28 -53z"/>
<path d="M2885 1767 c-253 -166 -541 -354 -639 -418 l-178 -116 224 -165 c506
-372 890 -643 965 -682 28 -14 33 -14 47 -1 8 9 13 22 10 30 -3 7 -49 51 -101
97 -53 45 -114 105 -135 132 -53 67 -105 172 -123 248 -19 82 -19 264 0 365
46 240 179 512 383 781 13 17 20 32 16 31 -5 0 -216 -136 -469 -302z m244 61
c-98 -166 -191 -397 -223 -553 -51 -245 -11 -471 111 -636 24 -34 39 -57 31
-53 -25 15 -473 338 -681 491 l-208 152 98 65 c474 310 898 586 901 586 1 0
-12 -24 -29 -52z"/>
</g>
</svg>
