<?xml version="1.0" standalone="yes"?>
<svg xmlns="http://www.w3.org/2000/svg" width="502" height="371">
<!-- <path style="fill:#ffffff; stroke:none;" d="M0 0L0 371L502 371L502 0L0 0z"/>
--><path style="fill:#000000; stroke:none;" d="M76 107L76 105C87.1933 101.775 97.3657 94.2684 109 92.3256C134.252 88.1088 163.376 92 189 92L353 92L353 86L188 86L136 86C127.74 86 118.087 87.3683 110 85.6096C86.8383 80.5727 69.1967 56.3075 46 51C46 70.361 45 89.6096 45 109C45 112.571 42.9501 125.879 48.0401 126.534C51.8112 127.019 60.7327 114.661 64 112L62 251L48 245C48 263.693 47 282.277 47 301C47 305.131 44.956 317.19 48.588 319.953C52.0629 322.596 60.8832 309.907 64 307.721C77.3509 298.36 98.6119 287.173 115 285.184C140.555 282.084 168.244 285 194 285L354 285L354 280L190 280L139 280L113 279.606L79 262L79 260C96.2874 255.02 111.891 244.284 130 241.325C141.171 239.5 153.687 241 165 241L235 241L276 241C282.236 241 289.971 239.781 296 241.51C311.491 245.952 328.922 261.547 342 270.859C369.663 290.557 398.526 308.848 427 327.343C433.893 331.821 440.83 336.355 448 340.381C450.208 341.621 453.91 343.87 456.381 341.958C461.03 338.361 451.238 331.453 449 329.614C435.211 318.288 423.301 306.285 420.084 288C414.883 258.436 430.629 218.864 450.669 197.102C454.267 193.194 460.648 197.675 462.914 194.381C464.754 191.705 461.015 188.69 460.996 186C460.977 183.232 463.682 180.308 465 178C461.941 178.899 458.209 181.707 455 181.363C450.966 180.93 446.899 176.181 444.09 173.575C434.105 164.311 427.057 151.57 425.289 138C419.807 95.9153 449.725 63.1629 471 31C456.531 34.3187 441.684 47.389 429 55C399.579 72.654 370.355 90.637 341 108.4C329.237 115.519 317.988 126.087 305 131.005C291.706 136.04 270.188 132 256 132L171 132C158.693 132 142.882 134.639 131 131.366C111.794 126.075 95.4028 111.609 76 107z"/>
<path style="fill:#ffffff; stroke:none;" d="M345 113L376 135.333L435 174C429.766 165.519 424.179 157.746 421.428 148C411.668 113.417 430.916 80.9983 447 52L416 70L345 113M52 61L50 115C55.1345 111.493 62.948 107.506 64 101C72.9355 103.431 92.3538 93.0775 100 88C85.31 79.0093 68.4041 66.1929 52 61M70 111L68 157L122 135L99 123.691L70 111M340 119C321.281 149.333 294.385 189.892 311.782 227C315.563 235.066 326.426 254.327 337 253.921C346.389 253.561 360.034 240.979 368 236.2C394.055 220.567 420.085 204.863 446 189L422 172.656L376 142L340 119M316 246C311.734 235.858 305.082 228.156 302.662 217C295.356 183.311 313.332 153.143 329 125C319.728 127.935 311.276 134.773 303 139.797C286.355 149.901 269.687 159.967 253 170C248.383 172.776 229.783 180.759 230.466 186.95C231.129 192.963 246.316 200.173 251 203.33C272.338 217.713 293.512 233.48 316 246M75 160C81.927 168.381 101.373 181.952 112 184.581C122.393 187.152 135.472 184.81 146 184.09C159.996 183.131 174.015 184.501 188 183.17C198.466 182.174 212.166 185.911 222 181.925C247.626 171.538 268.943 150.713 294 139C288.538 136.708 280.887 138 275 138L234 138L166 138C154.706 138 142.129 136.462 131 138.465C111.82 141.916 92.1063 150.999 75 160M70 165L70 196L71.6034 206.507L80 202.158L104 189L104 187L70 165M79 211C93.1993 219.286 112.904 231.13 129 234.61C144.633 237.989 163.998 235 180 235L287 235C274.9 221.797 254.818 212.739 240 202.656C233.727 198.387 226.44 191.069 219 189.129C213.09 187.588 205.128 189 199 189C182.281 189 165.721 190 149 190C125.338 190 95.1524 190.084 79 211M441 198L342 259L342 260C352.952 272.437 367.213 280.475 381 289.667C396.821 300.214 412.364 311.773 429 321C424.98 313.943 419.877 307.761 417.09 300C409.07 277.664 414.365 253.191 423.427 232C427.829 221.709 439.739 208.719 441 198M73 215C68.3382 224.816 67.9952 235.236 68 246C68.0015 249.426 67.1974 256.184 72.0586 256.758C76.1093 257.238 81.3924 252.592 85 251.003C96.2624 246.043 107.969 240.783 120 238L120 237L73 215M54 255L52 309L103 282C96.8686 277.956 80.4469 265.027 73.1042 266.022C69.2064 266.549 67.4132 271.303 63 272C61.9669 263.826 63.0644 257.627 54 255z"/>
</svg>
