<?xml version="1.0" standalone="no"?>
<!DOCTYPE svg PUBLIC "-//W3C//DTD SVG 20010904//EN"
 "http://www.w3.org/TR/2001/REC-SVG-20010904/DTD/svg10.dtd">
<svg version="1.0" xmlns="http://www.w3.org/2000/svg"
 width="289.000000pt" height="371.000000pt" viewBox="0 0 289.000000 371.000000"
 preserveAspectRatio="xMidYMid meet">
<metadata>
Created by potrace 1.16, written by Peter Selinger 2001-2019
</metadata>
<g transform="translate(0.000000,371.000000) scale(0.100000,-0.100000)"
fill="#000000" stroke="none">
<path d="M785 3396 c-27 -19 -12 -43 34 -56 108 -29 249 -202 390 -479 l62
-121 -108 0 -108 0 -242 145 c-133 80 -243 145 -246 145 -13 0 -18 -412 -20
-1418 -2 -971 0 -1104 13 -1112 24 -15 28 -12 49 29 11 21 42 54 68 74 56 40
201 114 308 157 72 29 82 30 230 30 l155 0 0 -245 0 -245 25 0 25 0 0 245 0
245 445 0 445 0 0 25 0 25 -445 0 -445 0 0 225 0 225 445 0 445 0 0 25 0 25
-445 0 -445 0 0 215 0 215 448 2 447 3 3 23 3 22 -450 0 -451 0 0 200 0 200
445 0 445 0 0 30 0 30 -445 0 -445 0 0 128 0 127 52 77 53 78 398 0 398 0 -3
23 -3 22 -376 5 -376 5 219 319 c120 175 217 320 216 322 -8 7 -626 24 -899
24 -233 0 -299 -3 -314 -14z m1020 -53 l102 -6 -204 -298 -204 -299 -84 0 -83
0 -72 137 c-96 185 -188 323 -277 412 l-74 74 397 -7 c219 -3 443 -9 499 -13z
m-996 -517 l182 -109 -73 -32 c-100 -43 -205 -98 -250 -129 -59 -40 -68 -29
-68 79 0 129 12 306 20 303 4 -2 89 -52 189 -112z m525 -220 c35 -82 36 -89
36 -205 l0 -121 -164 0 -165 0 -178 107 c-98 58 -180 108 -182 110 -13 11 148
97 284 152 97 39 104 41 216 41 l117 0 36 -84z m114 62 c-8 -13 -21 -33 -29
-45 -8 -13 -16 -23 -20 -23 -6 0 -39 66 -39 80 0 6 23 10 51 10 51 0 51 0 37
-22z m-637 -309 c93 -56 167 -105 164 -109 -2 -4 -26 -15 -52 -25 -63 -23
-196 -90 -244 -122 -26 -17 -44 -23 -59 -18 -21 7 -21 11 -18 174 2 124 7 172
17 184 7 10 16 17 18 17 3 0 81 -46 174 -101z m559 -339 l0 -200 -153 0 -154
0 -187 112 c-212 126 -205 112 -91 171 33 17 103 50 155 73 l95 43 168 0 167
1 0 -200z m-507 -140 l131 -80 -34 -11 c-62 -22 -254 -120 -303 -155 -40 -29
-48 -32 -54 -18 -3 9 -3 93 0 186 5 142 8 173 23 189 20 22 -4 33 237 -111z
m507 -325 l0 -215 -157 0 -158 0 -194 117 -195 116 30 23 c40 32 122 76 245
129 l104 45 163 0 162 0 0 -215z m-532 -145 c133 -79 160 -100 130 -100 -24 0
-273 -127 -320 -163 l-48 -37 0 184 c0 107 5 196 11 214 l11 32 37 -23 c21
-12 101 -60 179 -107z m532 -345 l0 -225 -159 0 -160 0 -202 121 -202 122 24
19 c46 36 135 83 254 135 l120 52 163 1 162 0 0 -225z m-583 -127 c93 -55 174
-106 181 -113 10 -9 0 -16 -45 -35 -97 -39 -195 -90 -260 -136 l-63 -43 0 192
c0 172 5 237 16 237 2 0 79 -46 171 -102z"/>
</g>
</svg>
