<?xml version="1.0" standalone="no"?>
<!DOCTYPE svg PUBLIC "-//W3C//DTD SVG 20010904//EN"
 "http://www.w3.org/TR/2001/REC-SVG-20010904/DTD/svg10.dtd">
<svg version="1.0" xmlns="http://www.w3.org/2000/svg"
 width="317.000000pt" height="371.000000pt" viewBox="0 0 317.000000 371.000000"
 preserveAspectRatio="xMidYMid meet">
<metadata>
Created by potrace 1.16, written by Peter Selinger 2001-2019
</metadata>
<g transform="translate(0.000000,371.000000) scale(0.100000,-0.100000)"
fill="#000000" stroke="none">
<path d="M1090 3401 c-15 -4 -25 -14 -25 -25 0 -20 5 -24 75 -52 100 -42 235
-221 378 -501 44 -87 87 -175 96 -195 l15 -38 -268 0 -268 0 -249 185 -249
185 -8 -47 c-15 -92 -32 -2362 -18 -2383 15 -22 43 -1 54 40 17 66 153 173
351 275 l106 55 290 0 290 0 2 -303 3 -302 23 -3 22 -3 0 305 0 306 340 0 340
0 0 25 0 25 -340 0 -340 0 0 255 0 255 340 0 340 0 0 25 0 25 -340 0 -340 0 0
235 0 235 340 0 340 0 0 25 0 25 -340 0 -340 0 2 253 3 252 338 3 337 2 0 25
0 25 -318 2 -318 3 269 393 c148 216 268 394 266 396 -2 2 -179 9 -394 15
-423 12 -765 13 -805 2z m952 -60 l156 -6 -255 -373 -256 -374 -37 84 c-129
289 -286 539 -403 644 l-52 46 345 -7 c190 -4 415 -10 502 -14z m-1190 -636
l187 -139 -112 -62 c-61 -34 -142 -84 -179 -112 l-67 -50 -26 20 -25 19 0 202
c0 219 6 282 24 269 6 -4 95 -71 198 -147z m806 -422 l2 -253 -281 0 -282 0
-183 137 c-101 76 -184 141 -184 145 0 14 154 112 268 170 l112 58 273 -2 272
-3 3 -252z m-792 -145 l175 -131 -98 -52 c-101 -52 -181 -102 -220 -138 l-22
-20 -36 24 -35 24 0 160 c0 88 4 175 10 194 8 29 36 71 47 71 2 0 82 -59 179
-132z m794 -393 l0 -235 -288 0 -287 0 -169 125 c-93 69 -171 127 -173 129 -8
8 144 105 251 161 l106 55 280 0 280 0 0 -235z m-1018 3 c-9 -9 -12 -7 -12 12
0 19 3 21 12 12 9 -9 9 -15 0 -24z m221 -138 c86 -63 157 -117 157 -120 0 -3
-35 -23 -77 -45 -63 -33 -224 -134 -268 -169 -7 -5 -22 -2 -38 9 l-27 17 0
141 c0 124 3 146 22 186 27 58 58 103 68 99 4 -2 78 -55 163 -118z m797 -405
l0 -255 -287 1 -288 0 -183 137 c-101 75 -184 141 -185 147 -1 15 129 99 255
165 l113 60 288 0 287 0 0 -255z m-804 -146 c90 -67 164 -125 164 -128 0 -4
-35 -24 -77 -45 -100 -49 -230 -134 -289 -188 l-46 -42 4 234 c3 228 4 236 27
268 15 21 29 31 38 28 9 -4 89 -61 179 -127z"/>
</g>
</svg>
