<?xml version="1.0" standalone="yes"?>
<svg xmlns="http://www.w3.org/2000/svg" width="317" height="371">
<!-- <path style="fill:#ffffff; stroke:none;" d="M0 0L0 371L317 371L317 0L0 0z"/>
--><path style="fill:#000000; stroke:none;" d="M106 31C106.613 38.8888 122.969 45.3972 128.384 52C142.261 68.9208 154.934 91.2497 162 112L127 112L110 111.062L58 74C58 110.907 58.5716 148.211 56.9606 185C55.8473 210.425 53.4133 236.602 55.8302 262C57.1478 275.845 54.9991 290.094 55 304C55.0002 307.423 53.8049 316.881 58.2454 318.248C61.8053 319.345 63.9383 312.091 65.5332 310.001C71.4982 302.183 80.5946 296.676 89 291.85C95.5244 288.105 102.58 283.232 110 281.529C127.048 277.617 148.503 281 166 281L166 342L172 342L172 281L240 281L240 275L172 275L172 225L240 225L240 220L172 220L172 173L240 173L240 168L172 168L172 118L240 118L240 112L176 112C193.471 86.1071 216.648 60.2244 230 32L143 30L106 31z"/>
<path style="fill:#ffffff; stroke:none;" d="M122 35C125.864 42.634 133.998 48.7965 138.975 56C150.565 72.7776 160.176 91.1829 168 110L170 110L219 38L191 36.9606L122 35M64 86C64 97.6829 63 109.28 63 121C63 124.768 61.7478 131.496 65.3179 134.049C69.0237 136.698 73.1148 132.453 76 130.438C84.5467 124.47 95.0343 120.606 103 114L64 86M166 168L166 132C166 128.684 167.351 121.368 164.397 119.028C160.561 115.99 149.705 118 145 118C125.229 118 109.581 116.747 92 127.012C88.1087 129.284 75.2068 134.722 75.2068 140C75.2068 145.007 88.3477 151.887 92 154.627C97.4735 158.732 103.502 164.952 110 167.272C115.301 169.165 122.44 168 128 168L166 168M68 144C61.0982 155.636 58.3213 181.358 69 191L70 191C79.6163 182.68 91.2664 175.885 103 171C94.866 160.396 79.3256 151.053 68 144M75 195L109 219.272L128 220L166 220L166 173C135.121 173 97.1926 167.741 75 195M63.3333 194.667L63.6667 195.333L63.3333 194.667M101 223L101 221C93.6153 215.695 86.2811 210.319 79 204.873C76.5286 203.025 72.6191 198.987 69.1852 200.255C59.6054 203.793 60.984 224.222 61 232C61.0074 235.596 60.6503 241.194 65.0586 242.518C68.847 243.655 73.174 238.959 76 237.029C83.7849 231.712 92.2916 226.627 101 223M72 247L72 248C81.736 256.425 95.8457 269.932 108 274.272C113.565 276.26 121.158 275 127 275L166 275L166 225C148.447 225 127.142 221.685 110 225.39C96.8937 228.224 82.309 238.824 72 247M66 252C57.8208 266.331 61 287.879 61 304L101 279C96.0094 269.172 76.1007 256.27 66 252z"/>
</svg>
