<?xml version="1.0" standalone="yes"?>
<svg xmlns="http://www.w3.org/2000/svg" width="426" height="371">
<path style="fill:#ffffff; stroke:none;" d="M0 0L0 371L426 371L426 0L0 0z"/>
<path style="fill:#000000; stroke:none;" d="M314 90L185 90L147 90C141.093 90 133.661 91.185 128 89.2979C100.293 80.0621 79.5322 52.08 52 42C52 67.6859 50 93.2944 50 119C50 124.264 47.3328 140.723 52.4985 143.914C55.9934 146.072 65.1046 130.733 68 128.184C83.5834 114.469 105.683 104.775 125 97.6157C138.183 92.7298 157.031 96 171 96L271 96L304 96C308.249 96 314.124 94.9293 317.363 98.3179C325.924 107.276 327 121.492 327 133L327 185L222 185C207.52 185 187.91 188.478 174 184.49C147.815 176.982 128.039 150.243 102 142C99.1413 164.62 100 188.187 100 211C100 215.817 97.5471 230.761 101.738 233.953C105.908 237.13 111.478 224.607 114.04 222.3C126.165 211.387 142.172 204.355 157 198.001C178.443 188.812 200.015 191 223 191L327 191L327 284L194 284C176.009 284 151.258 288.459 134 283.49C126.261 281.262 118.753 274.338 112 270.053C94.3628 258.861 76.8756 244.929 58 236C54.9116 260.438 58.7722 285.655 55.5756 310C54.8631 315.427 52.9885 334.266 57.7269 337.953C61.4677 340.864 69.1897 325.88 72.0147 323.439C87.3917 310.151 107.401 301.222 126 293.424C144.745 285.566 170.882 290 191 290L327 290L327 340L333 340L333 185L333 139L333.702 117L347.999 95L391 31C360.143 27.1003 327.117 28 296 28C288.711 28 281.224 27.4888 274.001 28.5803C271.838 28.9071 267.636 29.0179 267.636 32.0903C267.636 36.0936 281.825 42.016 284.91 45.0903C297.716 57.8502 305.043 74.6543 314 90z"/>
<path style="fill:#ffffff; stroke:none;" d="M282 34L282 35C294.558 43.846 303.23 57.855 310.719 71C314.047 76.8413 317.239 87.8857 324 90L330 109L331 109L363.025 62L380 36L282 34M58 53L56.9853 80L56 130L91 106.309L120 92C101.017 79.2045 79.3769 61.1024 58 53M107 152L105 222C124.48 208.291 143.058 195.761 166 188L166 187L107 152M63 247L61 325C82.2035 310.064 101.404 296.542 126 287L126 286L63 247z"/>
</svg>
