<?xml version="1.0" standalone="yes"?>
<svg xmlns="http://www.w3.org/2000/svg" width="502" height="371">
<path style="fill:#ffffff; stroke:none;" d="M0 0L0 371L502 371L502 0L0 0z"/>
<path style="fill:#000000; stroke:none;" d="M216 86L143 86C132.551 86 119.07 88.2556 109 85.3619C86.4614 78.8852 68.9549 56.2522 46 51C46 70.361 45 89.6096 45 109C45 112.571 42.9501 125.879 48.0401 126.534C51.8112 127.019 60.7327 114.661 64 112L62 253L48 244C48 263.329 47 282.621 47 302C47 308.681 44.1204 320.308 53 321C56.9741 305.277 78.3001 295.557 92 289.576C107.442 282.834 124.323 285 141 285L229 285L229 336L235 336L235 259C235 250.72 232.065 235.46 236.028 228.09C243.346 214.479 269.599 206.297 283 200.579C292.487 196.531 302.843 191.398 313 189.379C330.673 185.866 351.97 189 370 189L460 189L460 183L360 183C345.161 183 326.409 186.095 312 182.582C301.142 179.934 289.693 170.791 280 165.281C269.694 159.422 259.297 153.724 249 147.85C245.195 145.679 238.443 143.397 236.028 139.61C232.882 134.676 234.587 121.727 235.058 116C235.776 107.255 245.142 98.012 249.975 91C259.819 76.7175 269.709 62.4301 279.333 48C283.994 41.0127 290.433 34.0565 293 26C261.295 26 229.719 24 198 24C190.771 24 183.188 23.3499 176.001 24.1744C173.782 24.4289 169.636 25.0297 169.636 28.0355C169.636 31.5864 184.08 38.113 186.985 41.0146C199.059 53.0725 209.424 70.2878 216 86z"/>
<path style="fill:#ffffff; stroke:none;" d="M185 30L205.656 55L232 105L233 105C248.912 81.4129 269.842 57.7013 282 32L185 30M52 61L50 115C55.1345 111.493 62.948 107.506 64 101C72.9355 103.431 92.3538 93.0775 100 88C85.31 79.0093 68.4041 66.1929 52 61M76 105L76 107L131 131.61L163 132L229 132C229 120.753 229.793 100.796 219.301 93.0278C216.749 91.1382 211.98 92 209 92L182 92C158.286 92 131.372 88.4228 108 92.3256C96.9102 94.1775 86.2698 100.724 76 105M70 111L68 157L122 135L99 123.691L70 111M75 160C81.8009 168.229 102.382 182.971 113 184.775C124.726 186.768 137.265 184.143 149 184.004C174.041 183.706 198.952 183 224 183L226 138C195.605 138 162.062 133.968 132 138.3C112.651 141.088 92.1123 150.996 75 160M235 148L235 219L303 186L268 165.576L235 148M70 165L70 208L104 189L104 187L70 165M77 211C83.7337 219.147 100.74 231.536 111 234.49C121.526 237.521 136.058 235 147 235L224 235L224 188L156 190L111 191.789L77 211M72 217C66.0982 229.692 68 244.346 68 258L104 238C96.0262 230.364 82.5338 220.357 72 217M75 263L100 279.298L140 280L229 280L229 241L150 241C137.686 241 123.049 238.828 111 241.39C100.358 243.653 79.8821 253.009 75 263M53 255L52 307L92 283L92 281L70 267L63 272C61.9385 263.601 61.5331 258.592 53 255z"/>
</svg>
