<?xml version="1.0" standalone="no"?>
<!DOCTYPE svg PUBLIC "-//W3C//DTD SVG 20010904//EN"
 "http://www.w3.org/TR/2001/REC-SVG-20010904/DTD/svg10.dtd">
<svg version="1.0" xmlns="http://www.w3.org/2000/svg"
 width="502.000000pt" height="371.000000pt" viewBox="0 0 502.000000 371.000000"
 preserveAspectRatio="xMidYMid meet">
<metadata>
Created by potrace 1.16, written by Peter Selinger 2001-2019
</metadata>
<g transform="translate(0.000000,371.000000) scale(0.100000,-0.100000)"
fill="#000000" stroke="none">
<path d="M1748 3463 c-45 -5 -68 -28 -47 -47 8 -7 36 -21 62 -30 98 -37 219
-186 361 -448 l48 -88 -549 0 -548 0 -300 174 c-297 171 -300 173 -307 148 -4
-14 -10 -174 -14 -356 -7 -342 -4 -376 32 -376 8 0 21 15 29 34 13 30 97 116
114 116 9 0 5 -1327 -4 -1372 -4 -21 -9 -38 -12 -38 -3 0 -31 19 -64 42 -33
22 -61 39 -64 36 -3 -2 -8 -168 -11 -369 -7 -331 -6 -365 9 -378 23 -19 43 -8
50 27 13 65 191 195 391 286 l78 36 644 0 644 0 2 -252 3 -253 25 0 25 0 5
545 5 544 60 49 c74 60 348 196 547 271 l146 56 746 0 746 0 0 30 0 30 -750 0
-750 0 -375 211 -375 211 0 147 0 147 286 418 c157 230 283 420 280 423 -13
13 -1082 37 -1168 26z m702 -59 c195 -3 360 -9 366 -12 10 -6 -142 -235 -470
-710 l-23 -32 -101 202 c-116 236 -218 396 -312 490 -65 65 -66 67 -41 71 14
3 71 3 126 1 55 -2 260 -6 455 -10z m-1652 -454 c117 -67 212 -124 210 -125
-2 -2 -54 -23 -115 -49 -62 -25 -135 -57 -162 -71 -28 -13 -57 -22 -65 -19 -8
3 -17 -2 -20 -13 -3 -10 -20 -27 -38 -37 -17 -11 -49 -35 -71 -55 l-39 -35 7
274 c4 151 9 279 12 283 3 4 19 -1 36 -11 18 -11 128 -75 245 -142z m1445
-255 c46 -103 47 -108 47 -205 l0 -100 -495 0 -495 0 -273 126 c-149 70 -274
128 -277 131 -2 2 2 8 10 13 26 17 198 90 268 115 l67 24 551 1 550 0 47 -105z
m-1266 -212 c136 -63 249 -116 251 -118 1 -1 -59 -24 -135 -50 -166 -57 -281
-107 -350 -151 -28 -18 -54 -30 -57 -27 -8 8 -8 119 1 316 6 144 8 157 24 152
10 -3 129 -58 266 -122z m1278 -305 c-3 -84 -8 -185 -11 -224 l-5 -71 -217 -6
c-119 -4 -373 -10 -564 -13 l-346 -7 -181 118 c-100 65 -181 122 -181 126 0
25 187 108 400 180 l145 48 483 1 482 0 -5 -152z m518 -173 c146 -82 263 -152
259 -156 -4 -3 -68 -29 -142 -58 -185 -73 -359 -158 -458 -224 l-82 -55 0 365
0 365 78 -44 c43 -23 198 -110 345 -193z m-1880 -66 c83 -55 153 -103 154
-107 2 -4 -40 -29 -92 -55 -53 -27 -129 -73 -169 -102 -54 -38 -77 -50 -85
-42 -12 12 -15 191 -5 335 7 85 8 90 26 81 10 -5 87 -55 171 -110z m1347 -344
l0 -235 -570 0 -570 0 -163 111 c-89 60 -162 115 -162 122 0 18 110 91 231
153 l112 57 478 12 c264 7 516 13 562 13 l82 2 0 -235z m-1356 -151 c86 -58
156 -107 156 -110 0 -3 -21 -15 -47 -26 -81 -35 -206 -108 -254 -149 -26 -21
-49 -35 -53 -32 -3 4 -6 81 -6 172 0 147 2 169 21 208 11 24 22 43 24 43 2 0
74 -48 159 -106z m1406 -339 l0 -195 -648 0 -647 0 -127 88 c-70 48 -127 90
-128 94 -1 16 101 81 224 143 l129 65 598 0 599 0 0 -195z m-1664 -52 c11 -69
34 -82 59 -33 15 28 18 30 35 18 11 -7 62 -42 114 -78 53 -36 96 -67 96 -70 0
-3 -35 -23 -77 -44 -121 -60 -208 -113 -273 -167 l-60 -50 0 74 c0 41 3 162 7
270 l6 196 42 -29 c39 -27 43 -34 51 -87z"/>
</g>
</svg>
