<?xml version="1.0" standalone="no"?>
<!DOCTYPE svg PUBLIC "-//W3C//DTD SVG 20010904//EN"
 "http://www.w3.org/TR/2001/REC-SVG-20010904/DTD/svg10.dtd">
<svg version="1.0" xmlns="http://www.w3.org/2000/svg"
 width="502.000000pt" height="371.000000pt" viewBox="0 0 502.000000 371.000000"
 preserveAspectRatio="xMidYMid meet">
<metadata>
Created by potrace 1.16, written by Peter Selinger 2001-2019
</metadata>
<g transform="translate(0.000000,371.000000) scale(0.100000,-0.100000)"
fill="#000000" stroke="none">
<path d="M1748 3443 c-45 -5 -68 -28 -47 -47 8 -7 36 -21 62 -30 98 -37 219
-186 361 -448 l48 -88 -549 0 -548 0 -300 174 c-297 171 -300 173 -307 148 -4
-14 -10 -174 -14 -356 -7 -342 -4 -376 32 -376 8 0 21 15 29 34 13 30 97 116
114 116 9 0 5 -1327 -4 -1372 -4 -21 -9 -38 -12 -38 -3 0 -31 19 -64 42 -33
22 -61 39 -64 36 -3 -2 -8 -168 -11 -369 -7 -331 -6 -365 9 -378 23 -19 43 -8
50 27 13 65 191 195 391 286 l78 36 644 0 644 0 -1 -42 c0 -42 -3 -45 -129
-158 -71 -63 -128 -119 -126 -124 1 -5 9 -14 18 -20 13 -8 37 9 121 87 58 53
107 97 111 97 3 0 7 -78 8 -173 l3 -172 25 0 25 0 5 206 5 207 529 480 530
481 139 51 c330 120 583 167 682 126 30 -13 37 -13 49 0 9 8 13 21 10 28 -6
15 -102 98 -256 220 l-98 77 0 374 0 373 143 85 c78 46 198 117 267 158 l125
74 -325 8 c-179 4 -451 6 -604 3 -153 -2 -375 -2 -492 1 l-213 6 41 59 c22 33
37 62 34 66 -13 12 -1082 36 -1168 25z m701 -59 c195 -3 360 -8 367 -11 10 -3
6 -15 -13 -44 l-26 -39 -96 0 c-120 0 -143 -6 -139 -33 2 -17 15 -23 63 -33
122 -23 131 7 -86 -309 -105 -154 -192 -281 -194 -283 -1 -1 -47 89 -103 200
-116 236 -218 396 -312 490 -65 65 -66 67 -41 71 14 3 71 3 126 1 55 -2 259
-6 454 -10z m740 -154 l266 0 -145 -86 c-80 -47 -166 -97 -191 -111 l-46 -26
-80 65 c-43 35 -107 82 -141 103 -34 21 -62 41 -62 45 0 17 19 22 74 16 32 -3
179 -6 325 -6z m1089 -3 c6 -1 -73 -52 -177 -113 -188 -111 -190 -112 -208
-92 -34 37 -144 120 -222 168 l-79 47 337 -4 c185 -2 342 -5 349 -6z m-553
-135 c39 -28 92 -70 118 -94 l48 -43 -3 -351 -3 -352 -164 125 c-116 87 -167
120 -172 111 -3 -7 -41 -173 -84 -368 -42 -195 -82 -362 -89 -371 -11 -17
-993 -910 -1014 -923 -9 -5 -12 208 -12 872 l0 879 203 296 c138 202 206 295
216 291 27 -9 146 -93 214 -149 l67 -57 0 -379 0 -380 23 3 22 3 5 379 5 380
209 122 209 123 66 -34 c36 -18 98 -56 136 -83z m-2927 -162 c117 -67 212
-124 210 -125 -2 -2 -54 -23 -115 -49 -62 -25 -135 -57 -162 -71 -28 -13 -57
-22 -65 -19 -8 3 -17 -2 -20 -13 -3 -10 -20 -27 -38 -37 -17 -11 -49 -35 -71
-55 l-39 -35 7 274 c4 151 9 279 12 283 3 4 19 -1 36 -11 18 -11 128 -75 245
-142z m1445 -255 c46 -103 47 -108 47 -205 l0 -100 -495 0 -495 0 -273 126
c-149 70 -274 128 -277 131 -2 2 2 8 10 13 26 17 198 90 268 115 l67 24 551 1
550 0 47 -105z m-1266 -212 c136 -63 249 -116 251 -118 1 -1 -59 -24 -135 -50
-166 -57 -281 -107 -350 -151 -28 -18 -54 -30 -57 -27 -8 8 -8 119 1 316 6
144 8 157 24 152 10 -3 129 -58 266 -122z m2761 -165 c218 -165 431 -332 432
-338 0 -3 -30 -6 -68 -8 -99 -4 -273 -46 -476 -113 -98 -33 -179 -59 -181 -57
-1 2 21 109 50 238 29 129 60 270 70 313 9 42 19 77 22 77 2 0 71 -50 151
-112z m-1448 -211 l0 -224 -252 -6 c-139 -4 -404 -10 -590 -13 l-336 -7 -181
118 c-100 65 -181 122 -181 126 0 25 187 108 400 180 l145 48 498 1 497 0 0
-223z m-1397 -168 c83 -55 153 -103 154 -107 2 -4 -40 -29 -92 -55 -53 -27
-129 -73 -169 -102 -54 -38 -77 -50 -85 -42 -12 12 -15 191 -5 335 7 85 8 90
26 81 10 -5 87 -55 171 -110z m1397 -344 l0 -235 -595 0 -595 0 -163 111 c-89
60 -162 115 -162 122 0 18 110 91 231 153 l112 57 478 12 c264 7 527 13 587
13 l107 2 0 -235z m-1406 -151 c86 -58 156 -107 156 -110 0 -3 -21 -15 -47
-26 -81 -35 -206 -108 -254 -149 -26 -21 -49 -35 -53 -32 -3 4 -6 81 -6 172 0
147 2 169 21 208 11 24 22 43 24 43 2 0 74 -48 159 -106z m1406 -339 l0 -195
-648 0 -647 0 -127 88 c-70 48 -127 90 -128 94 -1 16 101 81 224 143 l129 65
598 0 599 0 0 -195z m-1664 -52 c11 -69 34 -82 59 -33 15 28 18 30 35 18 11
-7 62 -42 114 -78 53 -36 96 -67 96 -70 0 -3 -35 -23 -77 -44 -121 -60 -208
-113 -273 -167 l-60 -50 0 74 c0 41 3 162 7 270 l6 196 42 -29 c39 -27 43 -34
51 -87z"/>
</g>
</svg>
