<?xml version="1.0" standalone="yes"?>
<svg xmlns="http://www.w3.org/2000/svg" width="434" height="371">
<!-- <path style="fill:#ffffff; stroke:none;" d="M0 0L0 371L434 371L434 0L0 0z"/>
--><path style="fill:#000000; stroke:none;" d="M312 90L233 90C222.693 90 207.74 92.7508 198 89.2724C178.679 82.3723 165.974 58.192 146 53L145 288C134.251 287.963 125.688 280.42 117 274.667C100.188 263.535 80.1919 246.116 61 240C61 265.693 59 291.316 59 317C59 322.302 56.4463 338.525 61.5733 341.914C65.1174 344.256 73.3888 329.523 76.0008 327.09C91.2476 312.888 113.008 304.222 132 296.285C138.148 293.715 142.673 294.91 149 294.741C163.318 294.359 177.633 294 192 294L325 294L325 340L331 340L331 185L331 139L331.728 117L346.859 94L371.424 58L389 31C380.782 28.571 371.497 30.4924 363 29.9105C340.112 28.3431 316.968 28 294 28C286.785 28 279.158 27.3046 272.001 28.2901C269.845 28.587 265.636 29.0721 265.636 32.0386C265.636 35.5838 280.083 42.1167 282.985 45.0146C295.179 57.1886 305.391 74.1266 312 90z"/>
<path style="fill:#ffffff; stroke:none;" d="M281 34L281 35C304.037 52.5547 315.976 83.6255 328 109L329 109L362.667 60L378 36L281 34M152 64C151.484 76.0198 151 87.9222 151 100C151 103.75 149.795 110.935 154.148 112.839C157.593 114.346 161.433 110.508 164 108.72C172.645 102.697 181.949 98.2828 191 93C180.512 82.3361 165.002 71.4082 152 64M161 119C171.952 126.867 185.188 141.294 198 145.436C209.287 149.085 226.142 146 238 146L325 146C325 132.63 328.45 106.169 315.363 97.0278C312.516 95.0396 307.284 96 304 96L276 96C239.871 96 186.472 85.9959 161 119M191 148C182.9 142.181 174.979 136.11 167 130.127C164.425 128.195 160.522 123.999 157.044 124.167C153.392 124.344 152.031 129.099 151.468 132C150.171 138.691 148.639 154.79 152.028 160.826C158.574 172.485 183.787 153.976 191 148M165 170L165 172L198 195.436L238 196L325 196L325 152L238 152L197 152.637L165 170M152 170L152 173L154 170L152 170M191 199C184.81 191.506 174.815 185.921 167 180.127C164.116 177.989 160.748 174.82 157.185 177.427C148.392 183.858 150.996 198.669 151 208C151.002 211.534 150.252 217.952 155.059 218.828C158.778 219.506 163.152 214.911 166 213.001C173.953 207.666 182.141 202.688 191 199M161 223C168.102 232.259 187.711 248.152 199 251.487C210.568 254.904 226.942 252 239 252L325 252L325 202L238 202L197 202.637L161 223M156 228C146.612 241.342 151 264.356 151 280L190 255C184.753 244.668 166.018 233.708 156 228M67 251L65 328C85.3242 313.739 105.418 297.724 130 291L94 267.308L67 251M154 288L325 288L325 257L235 257C220.085 257 203.601 254.452 190 261.247C177.856 267.314 160.023 275.085 154 288z"/>
</svg>
