<?xml version="1.0" standalone="no"?>
<!DOCTYPE svg PUBLIC "-//W3C//DTD SVG 20010904//EN"
 "http://www.w3.org/TR/2001/REC-SVG-20010904/DTD/svg10.dtd">
<svg version="1.0" xmlns="http://www.w3.org/2000/svg"
 width="434.000000pt" height="371.000000pt" viewBox="0 0 434.000000 371.000000"
 preserveAspectRatio="xMidYMid meet">
<metadata>
Created by potrace 1.16, written by Peter Selinger 2001-2019
</metadata>
<g transform="translate(0.000000,371.000000) scale(0.100000,-0.100000)"
fill="#000000" stroke="none">
<path d="M2740 3423 c-69 -7 -81 -12 -78 -35 2 -15 18 -26 58 -41 71 -26 154
-109 243 -243 60 -91 167 -281 167 -297 0 -4 -259 -7 -575 -7 l-574 0 -253
189 c-158 118 -257 185 -263 179 -6 -5 -10 -366 -12 -996 -1 -543 -2 -1067 -3
-1164 l0 -178 -43 0 c-40 0 -76 21 -411 236 -260 166 -371 232 -376 224 -9
-14 -23 -473 -24 -782 -1 -171 1 -199 16 -214 22 -22 34 -12 59 46 38 88 167
184 404 302 241 121 360 159 393 126 10 -10 17 -10 32 0 15 9 221 12 890 12
l870 0 0 -235 0 -235 25 0 25 0 0 238 c0 130 1 635 1 1122 l-1 885 289 420
288 420 -56 7 c-59 7 -894 29 -996 26 -33 0 -76 -3 -95 -5z m1018 -71 l32 -7
-250 -365 c-137 -201 -252 -365 -255 -365 -3 0 -33 61 -68 135 -120 257 -234
438 -350 554 l-68 69 463 -7 c255 -4 478 -10 496 -14z m-2043 -418 c107 -81
195 -149 195 -153 0 -4 -30 -22 -67 -40 -74 -36 -225 -131 -260 -163 l-22 -20
-32 23 -32 22 7 90 c3 50 6 157 6 239 0 81 2 148 5 148 3 0 93 -66 200 -146z
m1501 -305 l44 -99 0 -140 0 -140 -645 0 -645 0 -186 139 -185 139 63 45 c35
25 115 74 178 108 l115 64 600 5 c489 4 602 3 608 -8 5 -7 29 -58 53 -113z
m-1445 -295 l146 -110 -85 -44 c-47 -25 -120 -68 -162 -96 l-77 -51 -45 33
-45 34 4 138 c5 171 8 193 34 226 l21 27 32 -24 c17 -13 97 -73 177 -133z
m1489 -359 l0 -225 -643 0 -643 0 -166 123 c-92 67 -167 124 -167 127 -1 9
123 85 233 142 l111 57 638 1 637 0 0 -225z m-1720 35 c13 -8 12 -13 -7 -32
l-23 -22 0 32 c0 34 5 38 30 22z m228 -171 l151 -113 -90 -48 c-49 -26 -122
-69 -160 -95 -120 -82 -112 -79 -142 -57 l-26 19 5 135 c3 74 7 149 10 166 6
45 61 117 83 111 10 -2 86 -55 169 -118z m1492 -394 l0 -255 -641 0 -642 0
-184 137 c-100 76 -182 142 -180 148 6 19 130 99 251 162 l121 62 638 1 637 0
0 -255z m-1522 -141 c92 -69 168 -129 170 -133 1 -4 -15 -15 -35 -25 -92 -43
-251 -146 -310 -200 l-64 -59 6 229 c6 199 10 235 27 272 11 23 24 42 29 42 5
0 85 -57 177 -126z m-756 -290 c161 -103 299 -192 306 -199 10 -9 -8 -21 -85
-54 -218 -95 -408 -206 -499 -293 l-54 -51 0 179 c0 98 3 277 7 397 5 176 9
217 20 213 7 -3 145 -89 305 -192z m2278 -29 l0 -155 -865 0 c-837 0 -865 1
-856 18 27 51 157 144 324 232 l112 60 643 0 642 0 0 -155z"/>
</g>
</svg>
