<?xml version="1.0" standalone="no"?>
<!DOCTYPE svg PUBLIC "-//W3C//DTD SVG 20010904//EN"
 "http://www.w3.org/TR/2001/REC-SVG-20010904/DTD/svg10.dtd">
<svg version="1.0" xmlns="http://www.w3.org/2000/svg"
 width="267.000000pt" height="371.000000pt" viewBox="0 0 267.000000 371.000000"
 preserveAspectRatio="xMidYMid meet">
<metadata>
Created by potrace 1.16, written by Peter Selinger 2001-2019
</metadata>
<g transform="translate(0.000000,371.000000) scale(0.100000,-0.100000)"
fill="#000000" stroke="none">
<path d="M1478 2482 c-604 -460 -1096 -841 -1094 -847 7 -24 1379 -958 1596
-1087 165 -98 200 -107 200 -54 0 18 -23 45 -87 103 -226 202 -280 268 -335
409 -45 118 -60 204 -60 359 0 159 17 276 68 462 106 387 383 915 705 1343 96
127 112 150 107 150 -2 0 -497 -377 -1100 -838z m759 442 c-415 -632 -634
-1254 -588 -1674 19 -179 81 -345 170 -458 37 -46 99 -109 186 -187 l30 -27
-35 19 c-59 31 -830 547 -1192 798 -229 158 -344 243 -337 250 17 18 1844
1412 1847 1409 2 -1 -35 -60 -81 -130z"/>
</g>
</svg>
