<?xml version="1.0" standalone="yes"?>
<svg xmlns="http://www.w3.org/2000/svg" width="267" height="371">
<path style="fill:#ffffff; stroke:none;" d="M0 0L0 371L267 371L267 0L0 0z"/>
<path style="fill:#000000; stroke:none;" d="M258 38L109 151.424L37 206C43.1186 217.977 64.9507 227.822 76 235.344C108.262 257.309 139.833 280.587 173 301.192C183.984 308.016 194.591 315.565 206 321.691C208.541 323.055 216.504 327.508 218.124 322.682C219.805 317.674 212.041 312.526 209 309.845C198.016 300.16 187.172 290.951 179.876 278C164.041 249.895 168.973 213.358 178.344 184C190.118 147.112 208.293 112.22 229.667 80C236.219 70.1242 242.895 60.3323 250.21 51C253.026 47.4075 258.24 42.7402 258 38z"/>
<path style="fill:#ffffff; stroke:none;" d="M47 208L155 282L199 310L199 309C131.797 257.797 175.3 160.885 208.281 103C215.078 91.0706 223.337 79.968 230 68C215.285 74.2207 201.783 88.5387 189 98.1266C159.822 120.012 130.788 142.181 102 164.576C85.0097 177.793 59.7588 190.677 47 208z"/>
</svg>
