<?xml version="1.0" standalone="no"?>
<!DOCTYPE svg PUBLIC "-//W3C//DTD SVG 20010904//EN"
 "http://www.w3.org/TR/2001/REC-SVG-20010904/DTD/svg10.dtd">
<svg version="1.0" xmlns="http://www.w3.org/2000/svg"
 width="719.000000pt" height="371.000000pt" viewBox="0 0 719.000000 371.000000"
 preserveAspectRatio="xMidYMid meet">
<metadata>
Created by potrace 1.16, written by Peter Selinger 2001-2019
</metadata>
<g transform="translate(0.000000,371.000000) scale(0.100000,-0.100000)"
fill="#000000" stroke="none">
<path d="M1950 3061 c-360 -219 -656 -397 -658 -396 -8 7 65 202 112 300 58
119 163 285 242 380 85 104 84 102 28 70 -155 -91 -1304 -791 -1303 -795 0 -3
19 -18 42 -34 94 -65 909 -607 1010 -671 59 -37 106 -70 104 -71 -2 -2 -259
-159 -573 -349 -313 -190 -570 -349 -572 -353 -3 -9 940 -638 1117 -746 126
-77 157 -88 167 -62 9 23 -5 39 -101 118 -217 179 -285 307 -285 533 0 168
-43 180 404 -118 438 -294 699 -462 776 -503 45 -24 53 -25 66 -12 23 23 8 43
-87 119 -162 129 -239 235 -275 379 -24 97 -15 296 19 410 36 119 78 218 145
338 l57 103 7 -106 c10 -150 34 -182 82 -107 61 95 349 206 880 338 l219 54
1523 0 1524 0 0 25 0 25 -1520 0 -1521 0 -570 206 c-313 114 -573 204 -576
200 -8 -8 -22 -184 -22 -283 -1 -40 -5 -73 -10 -73 -19 0 -148 149 -178 206
-90 170 -90 408 2 644 69 180 175 364 296 515 39 50 76 96 81 103 6 6 9 12 7
12 -2 -1 -299 -180 -659 -399z m424 172 c-122 -185 -210 -383 -250 -558 -24
-106 -25 -287 -1 -373 21 -78 68 -174 111 -227 18 -22 36 -46 40 -53 11 -19
-870 563 -912 602 -9 9 101 81 500 323 282 172 517 312 522 313 4 0 0 -12 -10
-27z m-909 -52 c-157 -243 -246 -504 -246 -721 0 -179 40 -288 165 -449 9 -12
8 -13 -4 -7 -52 29 -918 611 -914 615 9 9 1029 629 1036 630 4 1 -12 -30 -37
-68z m90 -751 c348 -234 761 -506 808 -532 20 -12 37 -24 37 -27 -1 -9 -1083
-662 -1088 -656 -20 20 128 344 226 492 50 75 66 92 89 95 24 3 28 7 26 32 -2
21 9 42 38 78 23 26 38 48 35 48 -3 0 -31 -15 -62 -34 l-57 -35 -60 47 c-188
147 -263 278 -274 478 -6 100 2 198 15 192 4 -2 124 -82 267 -178z m1422 -337
c271 -97 489 -180 485 -184 -4 -3 -59 -18 -122 -33 -388 -93 -746 -219 -857
-303 l-33 -24 0 123 c1 139 11 169 50 148 18 -10 25 -9 38 3 14 14 14 18 -1
40 -15 23 -14 26 24 72 21 26 39 49 39 51 0 3 -25 -12 -56 -31 -31 -20 -63
-34 -70 -31 -10 4 -14 23 -14 63 0 96 13 283 19 283 3 0 228 -79 498 -177z
m-636 -372 c-169 -270 -264 -568 -246 -771 12 -135 77 -293 152 -372 15 -15
24 -30 22 -32 -5 -5 -894 585 -916 607 -9 9 107 84 510 329 287 174 523 317
525 317 1 1 -20 -34 -47 -78z m-880 -38 c-193 -312 -275 -638 -217 -863 22
-84 68 -183 110 -234 72 -90 109 -112 -473 277 l-414 276 34 20 c19 11 252
153 519 315 267 162 486 293 488 292 1 -2 -19 -39 -47 -83z"/>
</g>
</svg>
