<?xml version="1.0" standalone="no"?>
<!DOCTYPE svg PUBLIC "-//W3C//DTD SVG 20010904//EN"
 "http://www.w3.org/TR/2001/REC-SVG-20010904/DTD/svg10.dtd">
<svg version="1.0" xmlns="http://www.w3.org/2000/svg"
 width="687.000000pt" height="371.000000pt" viewBox="0 0 687.000000 371.000000"
 preserveAspectRatio="xMidYMid meet">
<metadata>
Created by potrace 1.16, written by Peter Selinger 2001-2019
</metadata>
<g transform="translate(0.000000,371.000000) scale(0.100000,-0.100000)"
fill="#000000" stroke="none">
<path d="M2215 3158 c-247 -138 -456 -253 -463 -255 -15 -6 11 64 64 169 47
93 88 158 148 231 26 32 46 60 44 62 -2 2 -226 -120 -498 -270 -272 -151 -496
-273 -497 -271 -2 2 6 33 18 70 43 141 126 295 226 419 29 37 52 67 49 67 -11
0 -1047 -579 -1047 -585 0 -7 195 -150 604 -442 335 -239 436 -305 461 -301
45 6 27 36 -74 123 -141 121 -198 202 -235 330 -17 58 -27 227 -14 240 4 3
105 -65 225 -153 121 -87 314 -225 429 -307 351 -249 384 -267 399 -228 5 12
-10 32 -56 72 -35 31 -93 86 -130 123 -110 111 -169 257 -167 413 1 94 -7 97
254 -92 262 -190 628 -446 688 -482 30 -19 40 -21 52 -11 8 7 15 18 15 25 0 7
-43 50 -95 95 -144 122 -208 212 -240 337 -13 51 -21 203 -11 203 3 0 150
-105 328 -233 443 -320 643 -458 684 -472 l35 -12 -641 -418 c-352 -230 -640
-419 -640 -420 0 -6 717 -528 930 -677 266 -186 310 -208 310 -154 0 18 -27
47 -104 115 -145 127 -213 226 -252 372 -24 91 -23 276 4 395 50 223 182 496
340 703 83 109 82 112 -48 225 -157 138 -217 238 -242 403 -31 209 76 503 267
737 26 33 42 57 34 54 -8 -3 -234 -128 -503 -277 -269 -149 -492 -269 -495
-266 -8 9 25 127 60 210 36 88 112 216 171 292 52 65 72 93 67 92 -2 0 -206
-113 -454 -251z m235 25 c-94 -164 -142 -330 -143 -493 0 -99 3 -126 27 -194
25 -72 49 -121 94 -186 15 -22 10 -20 -33 11 -27 20 -180 130 -340 244 -159
114 -300 215 -312 224 -12 9 -22 21 -23 26 0 7 747 430 767 435 1 0 -15 -30
-37 -67z m-1380 -64 c-92 -179 -139 -369 -126 -510 8 -92 48 -212 91 -278 20
-29 34 -55 33 -57 -3 -2 -144 98 -641 456 -42 30 -77 57 -77 60 1 5 763 429
767 426 1 -1 -20 -45 -47 -97z m720 17 c-22 -40 -58 -120 -79 -176 -30 -80
-45 -107 -65 -117 -31 -16 -33 -29 -7 -43 18 -9 19 -18 14 -98 -9 -144 29
-296 98 -392 16 -22 29 -42 29 -45 0 -10 -720 506 -720 516 0 4 759 429 768
429 1 0 -16 -33 -38 -74z m1365 -4 c-42 -73 -86 -180 -116 -287 -34 -120 -33
-290 4 -400 15 -44 43 -104 63 -133 19 -30 34 -55 32 -57 -2 -2 -486 342 -702
500 -11 8 -18 16 -15 18 12 11 764 425 767 423 1 -2 -13 -31 -33 -64z m18
-1379 c-93 -156 -174 -359 -209 -523 -27 -126 -25 -311 4 -415 25 -85 74 -184
125 -250 18 -22 25 -35 17 -29 -8 6 -55 39 -105 74 -180 127 -774 561 -779
568 -4 7 970 650 986 651 4 1 -14 -34 -39 -76z"/>
<path d="M3793 3131 c-35 -16 -27 -40 20 -60 78 -34 145 -124 247 -330 32 -64
83 -180 114 -258 l56 -143 -2 -215 -3 -215 -295 169 c-265 151 -296 166 -302
149 -10 -25 -23 -717 -14 -751 9 -39 43 -36 61 6 19 45 67 88 163 146 76 46
355 171 381 171 8 0 11 -192 11 -745 l0 -745 25 0 25 0 0 755 c0 595 3 757 13
760 6 3 329 4 716 3 l705 -3 -542 -344 c-298 -189 -542 -346 -542 -350 1 -8
16 -19 535 -366 482 -323 665 -441 739 -477 43 -21 47 -21 63 -5 16 15 15 18
-3 38 -10 12 -62 57 -114 101 -206 173 -274 309 -273 548 0 226 88 476 267
763 59 95 61 97 98 97 34 0 38 3 38 25 0 16 -6 25 -15 25 -21 0 -18 10 15 50
l29 35 1 -827 0 -828 25 0 25 0 1 863 c0 474 0 931 -1 1015 l-1 153 215 373
c118 205 218 379 221 388 8 20 -92 26 -555 34 -303 5 -358 4 -374 -8 -26 -21
-15 -44 31 -63 21 -9 51 -28 66 -43 70 -67 190 -291 293 -547 l49 -120 3 -171
3 -171 -105 -66 -106 -67 -760 0 -760 0 0 229 0 230 224 388 224 388 -86 6
c-168 13 -826 20 -849 10z m769 -59 l77 -7 -184 -320 c-102 -176 -189 -321
-193 -323 -5 -1 -26 42 -47 95 -91 235 -195 428 -277 518 l-53 58 300 -8 c165
-4 335 -10 377 -13z m1774 -1 l82 -6 -107 -185 c-59 -102 -145 -250 -191 -328
l-83 -144 -57 139 c-110 265 -181 398 -266 492 l-48 54 294 -8 c162 -4 332
-10 376 -14z m-2389 -1062 c145 -83 263 -153 261 -154 -2 -2 -49 -22 -106 -44
-183 -73 -351 -164 -414 -225 l-28 -27 0 98 c0 150 13 503 18 503 2 0 124 -68
269 -151z m1881 -201 c-139 -216 -226 -408 -275 -607 -37 -148 -39 -331 -4
-441 31 -99 63 -162 124 -240 28 -36 44 -60 36 -55 -8 6 -233 156 -501 335
-269 179 -488 327 -488 330 1 9 1094 699 1109 700 11 0 11 -4 -1 -22z"/>
<path d="M1020 1609 c-355 -232 -646 -422 -647 -423 -3 -2 514 -381 771 -565
282 -201 419 -291 445 -291 53 0 34 31 -106 168 -121 119 -145 147 -177 213
-114 237 -81 549 96 903 63 125 129 233 208 336 33 44 60 80 58 80 -2 0 -293
-189 -648 -421z m405 159 c-274 -471 -311 -906 -101 -1181 20 -26 36 -49 36
-52 0 -10 -883 630 -888 645 -2 6 973 650 985 650 2 0 -12 -28 -32 -62z"/>
</g>
</svg>
