<?xml version="1.0" standalone="no"?>
<!DOCTYPE svg PUBLIC "-//W3C//DTD SVG 20010904//EN"
 "http://www.w3.org/TR/2001/REC-SVG-20010904/DTD/svg10.dtd">
<svg version="1.0" xmlns="http://www.w3.org/2000/svg"
 width="793.000000pt" height="371.000000pt" viewBox="0 0 793.000000 371.000000"
 preserveAspectRatio="xMidYMid meet">
<metadata>
Created by potrace 1.16, written by Peter Selinger 2001-2019
</metadata>
<g transform="translate(0.000000,371.000000) scale(0.100000,-0.100000)"
fill="#000000" stroke="none">
<path d="M2215 3158 c-247 -138 -456 -253 -463 -255 -15 -6 11 64 64 169 47
93 88 158 148 231 26 32 46 60 44 62 -2 2 -226 -120 -498 -270 -272 -151 -496
-273 -497 -271 -2 2 6 33 18 70 43 141 126 295 226 419 29 37 52 67 49 67 -11
0 -1047 -579 -1047 -585 0 -7 195 -150 604 -442 335 -239 436 -305 461 -301
45 6 27 36 -74 123 -141 121 -198 202 -235 330 -17 58 -27 227 -14 240 4 3
105 -65 225 -153 121 -87 314 -225 429 -307 351 -249 384 -267 399 -228 5 12
-10 32 -56 72 -35 31 -93 86 -130 123 -110 111 -169 257 -167 413 1 94 -7 97
254 -92 262 -190 628 -446 688 -482 30 -19 40 -21 52 -11 8 7 15 18 15 25 0 7
-43 50 -95 95 -144 122 -208 212 -240 337 -13 51 -21 203 -11 203 3 0 150
-105 328 -233 443 -320 643 -458 684 -472 l35 -12 -641 -418 c-352 -230 -640
-419 -640 -420 0 -6 717 -528 930 -677 266 -186 310 -208 310 -154 0 18 -27
47 -104 115 -145 127 -213 226 -252 372 -24 91 -23 276 4 395 50 223 182 496
340 703 83 109 82 112 -48 225 -157 138 -217 238 -242 403 -31 209 76 503 267
737 26 33 42 57 34 54 -8 -3 -234 -128 -503 -277 -269 -149 -492 -269 -495
-266 -8 9 25 127 60 210 36 88 112 216 171 292 52 65 72 93 67 92 -2 0 -206
-113 -454 -251z m235 25 c-94 -164 -142 -330 -143 -493 0 -99 3 -126 27 -194
25 -72 49 -121 94 -186 15 -22 10 -20 -33 11 -27 20 -180 130 -340 244 -159
114 -300 215 -312 224 -12 9 -22 21 -23 26 0 7 747 430 767 435 1 0 -15 -30
-37 -67z m-1380 -64 c-92 -179 -139 -369 -126 -510 8 -92 48 -212 91 -278 20
-29 34 -55 33 -57 -3 -2 -144 98 -641 456 -42 30 -77 57 -77 60 1 5 763 429
767 426 1 -1 -20 -45 -47 -97z m720 17 c-22 -40 -58 -120 -79 -176 -30 -80
-45 -107 -65 -117 -31 -16 -33 -29 -7 -43 18 -9 19 -18 14 -98 -9 -144 29
-296 98 -392 16 -22 29 -42 29 -45 0 -10 -720 506 -720 516 0 4 759 429 768
429 1 0 -16 -33 -38 -74z m1365 -4 c-42 -73 -86 -180 -116 -287 -34 -120 -33
-290 4 -400 15 -44 43 -104 63 -133 19 -30 34 -55 32 -57 -2 -2 -486 342 -702
500 -11 8 -18 16 -15 18 12 11 764 425 767 423 1 -2 -13 -31 -33 -64z m18
-1379 c-93 -156 -174 -359 -209 -523 -27 -126 -25 -311 4 -415 25 -85 74 -184
125 -250 18 -22 25 -35 17 -29 -8 6 -55 39 -105 74 -180 127 -774 561 -779
568 -4 7 970 650 986 651 4 1 -14 -34 -39 -76z"/>
<path d="M3836 3321 c-57 -7 -84 -35 -52 -55 49 -30 67 -52 109 -134 50 -97
127 -313 182 -511 l35 -128 0 -321 c0 -177 -3 -322 -6 -322 -4 0 -145 79 -315
176 -170 97 -311 175 -313 173 -7 -6 -25 -681 -20 -719 10 -68 14 -80 32 -80
12 0 25 15 36 41 25 56 106 117 251 189 101 49 314 140 330 140 3 0 5 -310 5
-690 l0 -690 25 0 25 0 0 695 0 695 225 0 225 0 0 -695 0 -695 25 0 25 0 0
695 0 695 255 0 255 0 0 -700 0 -700 25 0 25 0 0 700 0 700 290 0 c160 0 290
-2 290 -4 0 -2 -61 -55 -135 -118 l-136 -113 32 -25 c78 -61 681 -482 954
-666 441 -297 535 -345 535 -279 0 20 -31 56 -129 153 -116 114 -134 136 -170
212 -61 126 -74 203 -68 390 6 166 24 269 78 445 118 384 421 946 743 1380
107 144 109 147 51 98 -28 -22 -426 -358 -885 -746 -511 -432 -836 -700 -838
-691 -3 12 -53 14 -308 14 l-304 0 0 333 0 334 160 388 c88 213 160 391 160
395 0 4 -24 10 -52 13 -50 6 -949 31 -1068 30 -30 0 -134 -1 -230 -2 -96 -1
-204 1 -240 3 -36 2 -87 1 -114 -3z m467 -66 c10 -4 31 -27 47 -50 l29 -42
-115 -278 c-63 -153 -117 -282 -120 -287 -4 -6 -21 41 -40 103 -70 245 -145
439 -201 521 l-34 51 208 -6 c114 -2 216 -8 226 -12z m549 -11 c16 -8 32 -22
35 -30 4 -12 -228 -597 -246 -616 -4 -4 -26 57 -49 137 -23 80 -60 193 -83
252 -79 206 -74 182 -50 237 l22 49 171 -7 c121 -5 179 -11 200 -22z m-442 -5
c0 -14 -17 -10 -23 5 -4 10 -1 13 9 9 7 -3 14 -9 14 -14z m1027 3 l32 -7 -134
-323 c-73 -178 -136 -326 -138 -329 -3 -2 -12 22 -21 54 -40 147 -130 404
-172 490 -69 143 -78 137 185 128 119 -3 231 -10 248 -13z m-469 -159 c45
-100 87 -217 145 -408 l51 -170 3 -337 4 -338 -255 0 -256 0 0 336 0 335 133
324 c72 179 135 325 138 325 3 0 20 -30 37 -67z m-539 -25 c47 -120 89 -246
132 -397 l49 -173 0 -329 0 -329 -225 0 -225 0 0 333 0 332 122 298 c67 163
125 297 128 297 3 0 11 -15 19 -32z m2802 -209 c-425 -666 -643 -1271 -600
-1663 21 -198 81 -326 214 -458 l80 -80 -55 33 c-138 83 -1107 748 -1237 849
-21 16 -7 29 825 732 466 393 848 714 850 713 1 -1 -33 -58 -77 -126z m-3423
-894 c133 -75 242 -141 242 -145 0 -3 -39 -21 -87 -40 -132 -50 -337 -156
-398 -206 l-55 -44 0 157 c0 87 3 222 7 301 6 141 6 142 27 129 12 -7 130 -76
264 -152z"/>
<path d="M1020 1609 c-355 -232 -646 -422 -647 -423 -3 -2 514 -381 771 -565
282 -201 419 -291 445 -291 53 0 34 31 -106 168 -121 119 -145 147 -177 213
-114 237 -81 549 96 903 63 125 129 233 208 336 33 44 60 80 58 80 -2 0 -293
-189 -648 -421z m405 159 c-274 -471 -311 -906 -101 -1181 20 -26 36 -49 36
-52 0 -10 -883 630 -888 645 -2 6 973 650 985 650 2 0 -12 -28 -32 -62z"/>
</g>
</svg>
