<?xml version="1.0" standalone="no"?>
<!DOCTYPE svg PUBLIC "-//W3C//DTD SVG 20010904//EN"
 "http://www.w3.org/TR/2001/REC-SVG-20010904/DTD/svg10.dtd">
<svg version="1.0" xmlns="http://www.w3.org/2000/svg"
 width="351.000000pt" height="371.000000pt" viewBox="0 0 351.000000 371.000000"
 preserveAspectRatio="xMidYMid meet">
<metadata>
Created by potrace 1.16, written by Peter Selinger 2001-2019
</metadata>
<g transform="translate(0.000000,371.000000) scale(0.100000,-0.100000)"
fill="#000000" stroke="none">
<path d="M2228 3379 c-33 -19 -22 -47 22 -59 22 -6 40 -14 40 -18 0 -4 -215
-97 -477 -206 -966 -402 -1494 -623 -1499 -628 -4 -5 263 -235 566 -488 69
-58 126 -108 128 -112 3 -7 475 -409 657 -558 50 -41 91 -78 93 -82 8 -17 656
-564 773 -652 64 -48 93 -57 103 -31 4 11 -23 47 -82 109 -142 150 -182 267
-149 431 29 143 147 343 276 470 l51 49 0 -562 0 -562 25 0 25 0 0 588 c0 323
0 793 0 1045 l0 458 251 396 c138 217 249 396 247 398 -2 2 -137 8 -300 14
-373 14 -727 14 -750 0z m870 -58 l92 -6 -215 -339 c-118 -186 -216 -340 -218
-342 -2 -2 -14 22 -27 54 -97 239 -234 481 -330 585 l-64 70 334 -8 c184 -4
377 -10 428 -14z m-739 -76 c91 -98 241 -370 335 -606 l36 -90 -2 -456 -3
-456 -435 -183 c-239 -101 -443 -183 -452 -183 -25 -1 -115 105 -151 179 -31
62 -32 70 -32 185 0 112 3 125 33 201 43 107 132 240 228 342 l79 82 58 -45
c65 -50 97 -58 97 -24 0 13 -32 55 -82 108 -97 101 -137 175 -151 276 -18 128
30 282 140 448 51 77 228 267 248 267 7 0 31 -20 54 -45z m-279 -100 c0 -3
-16 -25 -35 -51 -180 -235 -230 -488 -134 -676 l21 -42 -63 53 c-257 213 -501
425 -493 428 5 2 162 69 349 147 343 145 355 150 355 141z m-575 -476 c94 -80
237 -200 318 -268 81 -68 146 -125 145 -127 -2 -1 -199 -85 -438 -184 -320
-134 -438 -180 -450 -172 -28 17 -99 132 -115 184 -57 193 37 444 249 666 79
82 79 82 100 64 12 -11 98 -84 191 -163z m-460 -28 c-147 -222 -186 -432 -110
-599 14 -30 24 -56 23 -57 -3 -3 -404 334 -499 418 -30 27 -49 51 -44 53 36
17 691 292 697 293 3 1 -26 -48 -67 -108z m726 -556 c-63 -84 -123 -201 -152
-295 -39 -129 -27 -290 28 -378 8 -13 13 -25 11 -27 -7 -6 -463 388 -466 403
-2 9 -17 31 -33 48 l-30 31 338 141 c186 78 341 142 345 142 4 0 -14 -29 -41
-65z m789 -580 c0 -3 -20 -33 -46 -67 -140 -191 -201 -399 -160 -555 8 -35 25
-82 37 -104 l21 -42 -74 61 c-203 168 -446 378 -448 387 -1 6 -6 17 -10 25 -6
12 56 42 329 156 339 143 351 148 351 139z"/>
</g>
</svg>
