<?xml version="1.0" standalone="no"?>
<!DOCTYPE svg PUBLIC "-//W3C//DTD SVG 20010904//EN"
 "http://www.w3.org/TR/2001/REC-SVG-20010904/DTD/svg10.dtd">
<svg version="1.0" xmlns="http://www.w3.org/2000/svg"
 width="577.000000pt" height="371.000000pt" viewBox="0 0 577.000000 371.000000"
 preserveAspectRatio="xMidYMid meet">
<metadata>
Created by potrace 1.16, written by Peter Selinger 2001-2019
</metadata>
<g transform="translate(0.000000,371.000000) scale(0.100000,-0.100000)"
fill="#000000" stroke="none">
<path d="M882 3067 c-224 -253 -301 -348 -302 -370 0 -23 28 -33 51 -19 10 7
28 12 39 12 16 0 -7 -31 -99 -132 -173 -193 -332 -380 -344 -406 -16 -35 4
-49 46 -34 78 28 186 0 378 -100 l117 -60 408 -546 c225 -301 416 -554 424
-562 13 -13 15 -53 12 -257 -1 -134 1 -257 6 -275 12 -49 41 -44 70 12 13 25
36 58 50 73 90 96 417 256 782 383 l125 44 1298 0 1298 0 -3 23 -3 22 -1310 5
-1311 5 -242 128 c-133 71 -242 133 -242 138 0 12 172 112 267 156 123 56 328
138 457 182 l118 41 1299 0 1299 0 0 25 0 25 -1301 0 -1302 0 -486 260 c-268
143 -492 260 -498 260 -7 0 -13 -75 -18 -227 -4 -126 -10 -258 -14 -295 l-6
-66 -390 521 -390 521 -52 343 c-28 189 -53 348 -55 354 -2 6 -81 -77 -176
-184z m184 -200 c22 -149 40 -273 40 -274 -1 0 -46 21 -101 48 -102 50 -238
99 -278 99 -52 1 -48 15 30 107 130 151 257 293 263 293 3 0 23 -123 46 -273z
m-207 -217 c42 -17 120 -54 173 -83 l97 -52 411 -548 411 -548 -3 -89 -3 -89
-149 80 c-81 44 -151 78 -154 75 -5 -6 -21 -293 -21 -415 l-1 -75 -407 545
-408 544 -48 330 c-27 182 -51 339 -54 349 -5 17 -1 18 37 12 23 -4 77 -20
119 -36z m-152 -342 c22 -150 40 -274 39 -275 -1 -1 -45 19 -97 45 -111 56
-244 102 -294 102 -19 0 -35 3 -35 8 0 4 71 87 158 186 86 98 161 184 167 192
5 8 12 14 16 14 3 0 24 -123 46 -272z m1754 -515 c236 -126 428 -231 429 -234
0 -3 -26 -13 -57 -23 -197 -61 -565 -227 -687 -309 -38 -26 -73 -47 -78 -47
-5 0 -23 7 -40 16 l-31 16 6 257 c9 331 19 551 25 551 3 0 198 -102 433 -227z
m-598 -567 l87 -47 0 -77 c0 -53 5 -84 15 -99 20 -28 41 -20 55 20 5 18 20 45
33 61 l23 29 241 -129 240 -129 -176 -66 c-358 -134 -563 -240 -673 -347 l-48
-46 0 104 c0 148 20 748 26 788 l5 32 42 -24 c23 -13 81 -44 130 -70z m161
-85 c3 -5 -1 -14 -9 -21 -13 -10 -15 -9 -15 9 0 21 14 28 24 12z"/>
</g>
</svg>
