<?xml version="1.0" standalone="yes"?>
<svg xmlns="http://www.w3.org/2000/svg" width="288" height="371">
<!-- <path style="fill:#ffffff; stroke:none;" d="M0 0L0 371L288 371L288 0L0 0z"/>
--><path style="fill:#000000; stroke:none;" d="M183 204C166.827 186.388 153.257 165.873 138.576 147C130.433 136.532 118.426 125.178 113.085 113C105.389 95.453 106.513 70.8541 103 52C89.9885 61.1655 79.487 76.1251 68.9498 88C66.2338 91.0609 58.225 97.9567 59.7369 102.681C60.9128 106.356 70.7927 103.192 74 103.809C85.0873 105.941 100.772 112.032 108.829 120.105C128.82 140.135 145.325 166.401 162.374 189C168.483 197.097 179.971 207.062 182.57 217C184.393 223.967 183 232.823 183 240L183 287L128.197 220L101.302 186L90 122C75.757 128.642 62.5731 148.495 51.9113 160C48.9104 163.238 40.6156 169.66 41.831 174.836C42.9077 179.422 51.7977 174.953 55 175.316C67.1381 176.689 80.4316 182.919 91 188.796C101.08 194.402 108.236 206.198 115.389 215C129.741 232.661 143.999 250.399 158.424 268C164.708 275.667 173.41 291.909 183 295L183 337L188 337L188 184L188 137L188.51 115L201.999 94L232.72 49L246 27C214.958 27 184.039 25 153 25C147.268 25 126.094 21.9048 123.256 28.2593C121.365 32.4937 132.56 35.4815 135 37.3904C146.407 46.3131 154.48 59.6012 161.573 72C169.065 85.0979 179.076 101.209 182.471 116C184.536 124.999 183 135.792 183 145L183 204z"/>
<path style="fill:#ffffff; stroke:none;" d="M138 31L138 32C160.621 47.9345 174.79 81.1127 185 106L204.025 80L236 33L138 31M98 65L70 97L106 110C104.377 97.1655 104.65 76.084 98 65M85 134L53 169L94 183L88.7531 149L85 134z"/>
</svg>
