<?xml version="1.0" standalone="no"?>
<!DOCTYPE svg PUBLIC "-//W3C//DTD SVG 20010904//EN"
 "http://www.w3.org/TR/2001/REC-SVG-20010904/DTD/svg10.dtd">
<svg version="1.0" xmlns="http://www.w3.org/2000/svg"
 width="470.000000pt" height="371.000000pt" viewBox="0 0 470.000000 371.000000"
 preserveAspectRatio="xMidYMid meet">
<metadata>
Created by potrace 1.16, written by Peter Selinger 2001-2019
</metadata>
<g transform="translate(0.000000,371.000000) scale(0.100000,-0.100000)"
fill="#000000" stroke="none">
<path d="M1470 3359 c-130 -80 -150 -89 -195 -89 -91 -2 -130 -13 -133 -38 -3
-17 2 -25 17 -29 12 -3 21 -9 21 -13 0 -4 -199 -128 -442 -276 -244 -147 -451
-273 -461 -279 -15 -11 48 -56 485 -347 277 -184 536 -355 575 -379 40 -24 73
-46 73 -49 0 -3 -259 -162 -575 -354 -316 -191 -575 -351 -575 -355 0 -13
1127 -757 1227 -810 30 -15 50 -14 57 4 10 26 -3 41 -94 115 -219 176 -290
308 -290 536 0 220 82 451 254 713 67 102 72 108 95 100 18 -7 29 -6 39 5 13
13 13 18 0 38 -14 22 -14 26 8 53 l24 30 -6 -360 c-6 -316 -4 -366 10 -405 13
-38 16 -99 16 -387 l0 -343 25 0 25 0 0 385 c0 317 3 391 14 414 49 95 281
249 599 399 l122 57 1048 3 1047 2 0 25 0 25 -1045 0 -1045 0 -370 251 -370
252 0 111 0 111 221 383 c122 211 220 385 218 387 -2 2 -132 7 -289 11 -157 4
-293 10 -302 13 -14 5 -4 21 53 90 61 74 75 93 67 90 -2 0 -68 -41 -148 -90z
m-102 -156 c-35 -73 -36 -73 -64 -42 -18 20 -18 21 1 35 20 15 69 20 63 7z
m460 0 c152 -5 172 -8 167 -22 -14 -35 -368 -642 -372 -637 -3 3 -27 59 -53
125 -57 142 -125 284 -173 363 l-35 58 39 60 39 60 107 0 c60 0 186 -3 281 -7z
m-530 -121 c-75 -142 -143 -321 -169 -447 -19 -89 -16 -267 5 -344 23 -85 69
-178 117 -236 22 -26 39 -49 39 -51 0 -8 -915 600 -924 614 -2 4 192 127 432
273 l437 266 33 -34 c18 -19 32 -37 30 -41z m116 -192 c30 -58 82 -175 117
-260 l64 -155 -2 -175 c-1 -96 -5 -212 -9 -258 l-6 -83 -40 -25 c-52 -33 -63
-28 -183 91 -142 140 -188 250 -187 445 0 156 45 328 129 495 42 82 36 86 117
-75z m699 -1014 l218 -148 -188 -93 c-201 -100 -369 -205 -445 -279 l-48 -46
0 441 0 440 123 -84 c67 -46 220 -150 340 -231z m-729 -113 c-128 -194 -219
-400 -260 -585 -22 -99 -22 -265 0 -348 21 -83 63 -173 107 -230 55 -71 54
-73 -8 -34 -221 141 -863 578 -861 586 3 7 1021 633 1037 637 2 1 -5 -11 -15
-26z"/>
</g>
</svg>
