<?xml version="1.0" standalone="no"?>
<!DOCTYPE svg PUBLIC "-//W3C//DTD SVG 20010904//EN"
 "http://www.w3.org/TR/2001/REC-SVG-20010904/DTD/svg10.dtd">
<svg version="1.0" xmlns="http://www.w3.org/2000/svg"
 width="328.000000pt" height="371.000000pt" viewBox="0 0 328.000000 371.000000"
 preserveAspectRatio="xMidYMid meet">
<metadata>
Created by potrace 1.16, written by Peter Selinger 2001-2019
</metadata>
<g transform="translate(0.000000,371.000000) scale(0.100000,-0.100000)"
fill="#000000" stroke="none">
<path d="M1509 3346 l-166 -144 -202 -4 c-163 -2 -203 -6 -211 -17 -12 -21 4
-47 35 -55 14 -4 42 -29 64 -59 37 -50 111 -186 111 -206 0 -5 -73 -74 -162
-154 -199 -176 -260 -240 -251 -262 4 -12 13 -15 32 -10 14 3 40 9 56 11 l30
5 -36 -33 c-19 -18 -123 -110 -230 -204 -226 -199 -281 -256 -272 -279 4 -13
13 -15 32 -10 123 33 278 -2 572 -129 23 -9 106 -87 223 -207 l186 -192 2
-566 3 -566 22 -3 23 -3 2 541 3 541 260 -272 260 -271 5 -266 5 -267 23 -3
22 -3 0 258 c0 173 4 263 11 270 8 8 8 13 0 17 -8 5 -11 140 -10 444 l0 437
202 -208 c194 -200 203 -208 219 -190 16 18 7 29 -202 248 l-220 229 1 306 0
305 42 83 42 82 257 -267 258 -268 0 -877 0 -878 25 0 25 0 0 853 1 852 73
-80 c65 -69 76 -78 90 -66 9 7 16 19 16 25 0 6 -40 52 -90 101 l-90 90 0 166
0 166 190 393 c105 216 190 399 190 405 0 15 -210 25 -605 30 -154 2 -361 7
-460 10 l-180 7 -24 126 c-13 70 -27 135 -30 144 -5 15 -38 -9 -172 -126z
m156 -47 c9 -50 15 -92 13 -94 -2 -2 -64 -6 -138 -10 l-134 -8 114 101 c63 56
118 101 121 102 4 0 14 -41 24 -91z m-407 -157 c8 -6 -9 -28 -57 -73 l-70 -64
-17 30 c-9 17 -32 49 -51 73 l-34 42 108 0 c59 0 114 -4 121 -8z m879 -12 c29
-5 64 -16 77 -25 l25 -16 -66 -137 c-36 -75 -85 -179 -109 -230 l-45 -93 -107
112 -107 111 -27 132 c-15 72 -27 138 -27 147 -1 15 16 16 167 12 92 -2 191
-9 219 -13z m-593 -4 c18 -8 46 -30 61 -50 l28 -37 -18 -40 c-10 -22 -22 -42
-27 -45 -4 -3 -49 8 -100 24 -51 17 -129 36 -172 43 l-80 12 58 54 57 53 80 0
c45 0 94 -6 113 -14z m1237 -5 l127 -6 -162 -337 c-88 -185 -164 -334 -167
-330 -4 4 -21 52 -39 107 -69 211 -155 412 -215 499 -22 32 -25 44 -16 62 10
23 11 23 178 17 92 -3 225 -8 294 -12z m-1107 -6 c-4 -8 -10 -15 -14 -15 -4 0
-13 7 -20 15 -11 13 -8 15 13 15 19 0 25 -4 21 -15z m45 -100 c1 -19 0 -18
-14 2 -8 12 -12 29 -8 39 6 16 7 16 14 -2 4 -10 8 -28 8 -39z m616 -87 c57
-112 110 -245 169 -425 46 -141 46 -142 46 -282 l0 -140 -147 152 c-82 84
-193 198 -247 254 l-99 103 108 225 c73 151 111 221 117 213 5 -7 29 -52 53
-100z m-1065 43 c0 -5 -19 -25 -42 -44 l-42 -35 -13 30 c-17 39 -18 36 20 47
43 12 77 13 77 2z m430 -63 c0 -4 -13 -2 -30 3 -35 13 -34 10 -18 44 l12 26
17 -33 c10 -18 18 -36 19 -40z m-224 21 l92 -29 -96 -200 c-53 -110 -98 -198
-100 -195 -3 3 -92 450 -92 464 0 10 113 -13 196 -40z m211 -79 l52 -22 40
-102 c21 -55 57 -158 80 -229 l41 -127 -2 -276 -3 -276 -245 256 c-202 210
-247 262 -253 294 -8 35 -1 54 105 275 62 130 117 235 123 233 5 -2 33 -14 62
-26z m-398 -205 c0 -5 -18 37 -41 94 -39 101 -40 105 -22 118 18 13 20 8 41
-94 12 -59 22 -112 22 -118z m-103 118 c22 -53 133 -387 130 -390 -2 -2 -27 7
-57 21 -118 52 -300 103 -382 107 -46 3 -47 4 -30 20 47 47 309 278 315 278 4
1 15 -16 24 -36z m728 -99 l79 -86 -28 -59 c-16 -32 -31 -59 -35 -59 -3 0 -26
60 -50 133 -50 147 -53 157 -48 157 2 0 39 -39 82 -86z m-904 -239 c52 -14
142 -45 200 -68 l105 -42 3 -420 2 -420 -101 100 c-55 55 -131 134 -169 176
l-69 75 -56 295 c-31 161 -58 302 -61 312 -8 25 31 22 146 -8z m-136 -313 c26
-134 46 -247 44 -252 -2 -4 -55 13 -118 37 -134 53 -284 93 -349 93 l-46 1 36
32 c131 118 382 337 384 335 2 -2 24 -113 49 -246z m768 -102 l257 -265 1
-438 0 -438 -157 163 c-87 90 -206 213 -265 274 l-108 112 0 432 c0 237 3 430
8 428 4 -1 123 -122 264 -268z"/>
</g>
</svg>
