<?xml version="1.0" standalone="yes"?>
<svg xmlns="http://www.w3.org/2000/svg" width="328" height="371">
<path style="fill:#ffffff; stroke:none;" d="M0 0L0 371L328 371L328 0L0 0z"/>
<path style="fill:#000000; stroke:none;" d="M114 86C102.059 92.1933 90.7157 104.745 81 114.039C78.4818 116.448 71.5618 121.528 72.7515 125.681C73.9129 129.735 81.3857 126.443 84 126L84 127C68.5112 134.18 54.7634 151.462 42 162.715C38.6896 165.633 29.6134 171.511 30.8318 176.836C31.414 179.381 34.0301 179.177 36.0046 178.713C45.0888 176.577 53.0905 178.268 62 181.025C72.5444 184.289 84.6924 187.732 94 193.815C105.866 201.569 118.553 217.1 127.695 228C134.933 236.629 132 251.355 132 262L132 345L138 345L138 239L173 275L189.397 294L190 310L190 345L196 345L196 204C205.655 214.482 216.234 224.251 225.576 235C227.419 237.121 233.961 246.199 237.248 241.623C240.074 237.69 231.293 231.317 229.004 229C219.113 218.989 205.078 207.84 197.603 196C194.096 190.444 196 180.348 196 174C196 161.401 193.728 146.318 196.39 134C197.608 128.368 201.401 123.549 203 118L238 154L254.397 173L255 190L255 225L255 346L261 346L261 178L275 192L276 192C281.72 183.117 265.687 175.318 262.028 168C258.447 160.839 260.589 145.928 261.043 138C261.524 129.612 267.702 121.446 271.219 114C280.168 95.0541 294.162 74.3667 299 54L174 51L168 22C154.461 28.2015 146.449 43.8762 133 50.0116C127.245 52.637 118.22 51 112 51C107.861 51 94.2805 48.8322 92.7515 54.1736C91.7533 57.661 97.9316 60.1805 99.9066 62.108C106.378 68.424 110.568 77.7574 114 86z"/>
<path style="fill:#ffffff; stroke:none;" d="M142 52L168 51L165 33C156.66 36.531 147.654 44.9875 142 52M105 57L113 70L126 57L105 57M124 67L124 68L159 76C164.95 61.6599 149.723 52.5445 136 57.6034C131.358 59.3146 128.002 64.1811 124 67M175 57C179.094 78.1086 183.215 93.7664 202 107C207.958 96.5306 212.953 85.0135 217.861 74C219.212 70.9682 223.246 65.7189 221.759 62.2747C219.881 57.9233 212.826 58.1489 209 57.9614C197.642 57.4049 186.412 57 175 57M164 58L166 61L167 58L164 58M258 126L259 126L290 60C276.456 56.7753 259.933 58 246 58C242.683 58 233.029 56.3647 231.457 60.3179C229.801 64.4826 237.872 74.1393 239.742 78C247.19 93.3845 252.72 109.774 258 126M170 65L170 68L171 68L170 65M227 68L212.753 98L207.241 111L217.715 124L255 162C255 136.94 250.025 116.186 240.15 93C236.619 84.7109 233.22 74.6437 227 68M171 69L172 70L171 69M117 76L119 81L127 75L117 76M128 74L137 120L138 120L156 81L128 74M166 74L165 79L169 80L166 74M161 84C156.184 95.5823 149.972 106.499 145 118C143.141 122.3 139.558 127.182 139.657 132C139.809 139.452 147.198 145.197 152 150C164.334 162.339 175.723 177.943 190 188C190 160.971 191.032 136.844 182.333 111C178.144 98.5575 175.551 86.5055 161 84M123 85L126 100L127 100L125 85L123 85M116 91L85 120L131 133C127.927 119.715 123.579 102.413 116 91M184 98L193 124C201.885 113.277 193.685 104.822 184 98M127.333 101.667L127.667 102.333L127.333 101.667M87 126C87.5996 139.929 91.8716 154.337 94.6003 168C95.9181 174.598 96.0108 182.988 99.1644 189C104.986 200.098 121.795 215.751 132 223L132 163L130.972 140.638L119 134.681L87 126M43 171L92 185L83 136C69.9375 142.055 51.3938 159.33 43 171M138 144L138 203C138 210.641 135.946 221.792 138.603 229C140.751 234.826 147.575 239.395 151.576 244C162.763 256.878 176.084 273.198 190 283L190 224L189.397 198L175.17 182L138 144z"/>
</svg>
