<?xml version="1.0" standalone="yes"?>
<svg xmlns="http://www.w3.org/2000/svg" width="622" height="371">
<!-- <path style="fill:#ffffff; stroke:none;" d="M0 0L0 371L622 371L622 0L0 0z"/>
--><path style="fill:#000000; stroke:none;" d="M208 170L125 170C113.713 170 97.748 172.911 87 169.436C67.655 163.182 55.678 138.36 36 133C36 153.047 35 172.942 35 193C35 197.422 32.8588 209.942 36.7269 212.953C40.8397 216.155 44.0554 206.229 45.8233 204.039C54.5652 193.212 68.0542 186.463 80 179.861C91.8856 173.292 107.778 176 121 176L208 176L208 249C208 256.625 210.704 270.791 206 277C208.373 283.993 214.576 289.417 219.246 295C228.833 306.459 238.638 317.714 248.424 329C251.197 332.197 259.574 343.841 264.667 341.593C267.626 340.286 265.015 326.646 265.9 323C269.693 307.36 278.662 291.364 287.44 278.004C293.271 269.13 304.564 263.324 313 257.116C332.867 242.497 354.236 229.003 373 213L373 259L371 280C385.124 296.18 398.524 312.974 412.834 329C416.339 332.925 422.924 343.409 428.852 343.248C433.521 343.122 430.049 329.557 430.899 326C434.751 309.873 443.42 292.457 453.043 279.004C463.098 264.947 483.137 254.957 497 244.849C527.4 222.682 557.071 197.884 589 178C585.247 167.671 563.199 159.153 554 153.424C520.447 132.526 486.702 106.886 451 90L455 83L442 82L422 24C414.019 26.2181 407.228 34.3137 401 39.5756C387.239 51.2027 373.021 62.5524 360 75.01C356.8 78.0717 340.636 81.8164 340.636 85.0008C340.636 88.6681 351.561 95.61 353.957 99C361.983 110.358 372.276 128.903 373 143L330 115.95L286 89L289 82L277.702 79.3966L270.947 63L256 23C248.075 26.0692 241.463 33.347 235 38.7538C221.49 50.0557 208.252 61.688 195 73.2847C191.838 76.0516 175.144 81.393 175.466 83.9761C175.865 87.1807 180.845 89.1143 182.96 91.108C188.16 96.0115 191.915 102.726 195.219 109C206.234 129.915 208 146.828 208 170z"/>
<path style="fill:#ffffff; stroke:none;" d="M202 75L202 76L271 81L254 33L236 46L202 75M368 77L436 82L419 34L396 51.8696L368 77M188 86L210 128L212 128C216.495 120.683 220.982 113.365 225.4 106C227.058 103.236 230.315 99.4426 229.84 96C227.792 81.1764 197.898 86 188 86M253 128L255 128L277 90C267.93 88.1288 239.061 78.5255 238.998 96C238.964 105.491 249.86 118.719 253 128M232 87L235 90L236 87L232 87M353 87L377 130C381.667 122.376 386.203 114.667 390.8 107C392.442 104.261 395.718 100.42 395.122 97C392.591 82.4846 362.997 87 353 87M420 130C427.12 118.369 438.947 104.312 442 91C433.413 89.3348 418.855 83.6966 410.379 87.6034C407.174 89.0807 404.329 94.5501 404.632 98C405.328 105.931 414.957 123.757 420 130M397 88L399 91L400 91L402 88L397 88M282 94C274.313 106.557 261.39 121.802 257.499 136C254.033 148.649 257 165.885 257 179L257 272C265.54 271.999 276.951 272.254 285 269.157C292.502 266.271 299.572 259.384 306 254.629C318.275 245.55 330.725 236.708 343 227.629C351.284 221.502 366.601 214.38 371.972 205.536C374.113 202.01 373 195.962 373 192C373 180.756 376.743 161.542 372.397 151.184C369.444 144.148 355.241 138.856 349 134.95C327.441 121.455 305.342 104.071 282 94M422 274C431.208 272.291 442.313 273.786 451 270.16C461.551 265.757 471.853 255.72 481 248.873C498.511 235.767 516.326 223.038 534 210.151C548.055 199.903 568.37 189.774 579 176C546.265 157.844 514.675 136.643 483 116.681C474.705 111.454 466.361 106.308 458 101.189C455.401 99.5977 451.518 96.0597 448.21 96.8279C445.008 97.5716 443.115 102.477 441.6 105L426.6 130C418.564 143.432 422.491 160.884 422.29 176C421.855 208.655 422 241.333 422 274M234 102L214.499 136L214 181L214 277L251 273L251 167C251 144.82 250.353 119.467 234 102M399 104C393.371 114.576 377.177 131.47 379.149 143.957C379.862 148.471 384.508 150.259 388 152.424C396.982 157.993 406.102 165.254 416 169L415.621 138L401 104L399 104M42 144L41 199L79 174L79 172L42 144M379 154L379 201L414 176C404.917 167.308 390.387 159.323 379 154M415 182C405.078 189.127 386.383 197.999 380.028 208.464C377.178 213.156 379 222.661 379 228L379 278L406 275.285L414.972 273.258L416 251L416 204L415 182M217 282C227.478 297.841 243.46 319.046 259 330C259.868 310.083 272.893 293.365 281 276L217 282M382 283C392.724 298.683 408.506 319.995 424 331L446 277L382 283z"/>
</svg>
