<?xml version="1.0" standalone="yes"?>
<svg xmlns="http://www.w3.org/2000/svg" width="557" height="371">
<path style="fill:#ffffff; stroke:none;" d="M0 0L0 371L557 371L557 0L0 0z"/>
<path style="fill:#000000; stroke:none;" d="M89 88L99 86C88.1317 97.0973 76.911 108.28 66.7184 120C63.345 123.879 54.5026 134.893 66 133C56.151 142.849 46.7196 153.031 37.0147 163C34.4041 165.682 27.7683 171.311 28.9699 175.681C30.0924 179.763 39.0005 176.028 42 176.48C52.4813 178.059 65.4174 183.461 73.9992 189.637C92.8054 203.171 107.509 229.153 122.25 247C130.305 256.753 142.561 267.581 147.987 279C151.78 286.983 147.472 301.995 148.09 311C148.284 313.84 148.211 321.046 152.043 321.534C155.155 321.93 156.802 317.961 158.39 315.996C162.402 311.031 167.514 307.567 173 304.427C192.002 293.55 217.287 282.872 239 279.325C262.113 275.549 288.564 279 312 279L462 279L462 273L310 273C287.194 273 259.26 277.422 237 272.61C222.315 269.435 209.281 257.863 195 253C216.21 240.019 244.292 227.444 269 223.326C294.885 219.012 324.735 223 351 223L491 223L491 218L340 218C317.499 218 289.964 222.351 268 217.61C253.327 214.442 239.782 203.738 226 198C244.501 185.799 273.823 172.874 296 170.184C319.298 167.359 344.519 170 368 170L520 170L520 164L368 164C345.503 164 317.959 168.357 296 163.61C264.904 156.887 238.577 130.809 208 122L206 175C191.538 158.434 178.125 140.922 164.081 124C156.742 115.157 146.017 105.43 141.136 95C134.513 80.851 132.669 55.5923 132 40C119.238 45.9515 106.945 62.4778 97.7153 73C93.5202 77.7827 89.4446 81.3747 89 88z"/>
<path style="fill:#ffffff; stroke:none;" d="M100 81L134 92L128 52C118.938 56.2375 104.218 71.9558 100 81M102 87C106.198 104.042 104.643 124.867 111.51 141C115.809 151.099 126.642 160.541 133.576 169C147.304 185.75 160.826 208.856 178 222L180 176L206 188C203.275 176.538 189.739 165.042 182.389 156C161.072 129.778 139.396 90.0544 102 87M97 97L70 126C82.7267 127.013 93.472 133.2 105 138L97 97M66 132L67 133L66 132M72 132L77.2469 167L80.9738 186L100 210L148 269L149 269L151 232L177 244C177.373 225.922 164.64 215.683 153.424 202C130.761 174.349 110.598 137.202 72 132M214 132C213.357 146.985 211.952 161.974 212.001 177C212.015 181.548 210.523 189.873 215.148 192.539C221.143 195.995 229.732 188.879 235 186.247C250.931 178.286 268.609 171.023 286 167L258 152.742L214 132M66 142L40 170L74 182C71.8536 170.608 72.55 151.533 66 142M185 185C185 200.749 183.974 216.561 183.13 232.285C182.9 236.582 181.194 246.236 186.148 248.41C191.372 250.702 200.403 242.505 205 240.32C220.788 232.816 239.614 223.568 257 221L257 220C248.204 214.866 231.185 203.297 221.004 202.955C215.668 202.776 213.795 213.199 209.235 211.654C203.588 209.741 207.468 199.304 204.972 195.39C201.589 190.086 190.6 187.297 185 185M212.333 198.667L212.667 199.333L212.333 198.667M156 241L154 310C176.946 294.326 201.603 284.589 228 276C220.871 270.24 210.25 266.878 202 262.753C198.817 261.162 194.661 258.08 191.015 257.955C186.422 257.798 184.528 267.089 180.299 264.963C176.28 262.943 178.287 254.828 175.987 251.39C172.635 246.382 161.603 242.614 156 241z"/>
</svg>
