<?xml version="1.0" standalone="no"?>
<!DOCTYPE svg PUBLIC "-//W3C//DTD SVG 20010904//EN"
 "http://www.w3.org/TR/2001/REC-SVG-20010904/DTD/svg10.dtd">
<svg version="1.0" xmlns="http://www.w3.org/2000/svg"
 width="557.000000pt" height="371.000000pt" viewBox="0 0 557.000000 371.000000"
 preserveAspectRatio="xMidYMid meet">
<metadata>
Created by potrace 1.16, written by Peter Selinger 2001-2019
</metadata>
<g transform="translate(0.000000,371.000000) scale(0.100000,-0.100000)"
fill="#000000" stroke="none">
<path d="M1139 3138 c-255 -266 -273 -289 -233 -305 9 -3 25 -1 35 5 10 7 28
12 39 12 16 0 -32 -56 -179 -212 -150 -157 -201 -218 -201 -236 0 -23 2 -24
43 -18 l42 7 -136 -138 c-255 -260 -286 -300 -242 -317 9 -4 21 -2 27 4 17 17
103 11 169 -11 34 -11 106 -41 160 -67 l99 -46 364 -445 364 -445 0 -199 c0
-117 4 -206 10 -218 16 -30 38 -23 59 19 11 22 36 53 55 70 81 71 288 166 575
263 l174 59 1128 0 1129 0 0 25 0 25 -1122 0 -1123 -1 -212 103 c-116 57 -211
107 -209 112 8 31 278 150 536 237 l175 59 1123 0 1122 0 0 25 0 25 -1127 0
-1126 0 -206 100 -205 101 34 21 c97 59 376 172 578 234 l113 34 1110 0 1109
0 0 25 0 25 -1126 0 -1126 0 -421 205 c-231 113 -422 203 -425 200 -5 -5 -19
-259 -24 -443 l-3 -93 -331 404 -331 405 -42 263 c-23 145 -45 272 -49 282 -6
15 -38 -14 -173 -155z m171 -137 c16 -102 30 -193 30 -203 0 -17 -5 -16 -52 8
-75 38 -173 74 -242 88 l-60 12 144 148 c79 81 146 144 147 139 1 -4 16 -91
33 -192z m-140 -198 c36 -14 95 -41 131 -59 64 -32 72 -40 410 -453 212 -259
345 -431 347 -446 3 -25 0 -24 -122 37 -69 34 -127 60 -130 57 -3 -2 -10 -105
-16 -229 -5 -123 -11 -225 -13 -226 -3 -3 -646 779 -661 804 -6 11 -96 525
-96 553 0 10 78 -9 150 -38z m-150 -277 c16 -104 28 -191 26 -193 -2 -3 -30 9
-62 25 -55 28 -175 70 -254 89 l-35 9 140 145 c105 108 142 141 147 129 4 -8
21 -100 38 -204z m1492 -306 l357 -174 -147 -52 c-209 -74 -292 -108 -420
-174 l-114 -59 -35 17 -35 17 6 294 c4 161 9 297 12 302 3 5 8 8 12 6 4 -2
168 -81 364 -177z m-1603 115 c58 -25 120 -53 137 -64 17 -10 189 -212 382
-447 l351 -429 1 -67 0 -67 -132 65 -133 65 -6 -63 c-4 -35 -8 -110 -9 -168
-1 -58 -5 -114 -8 -126 -6 -18 -65 49 -349 398 l-343 418 -40 248 c-22 136
-42 258 -45 271 -6 23 -5 24 41 17 25 -3 94 -26 153 -51z m-205 -212 c15 -98
30 -191 33 -207 5 -23 3 -28 -8 -23 -146 62 -247 99 -292 105 l-56 7 140 148
c78 81 144 147 148 147 3 0 19 -80 35 -177z m1256 -309 l100 -47 1 -46 c1 -85
12 -126 36 -129 17 -3 27 6 41 35 42 81 34 82 252 -24 l195 -95 -60 -20 c-266
-90 -459 -170 -572 -239 -61 -37 -69 -39 -96 -28 l-30 13 7 240 c6 235 15 386
22 386 2 0 49 -21 104 -46z m180 -94 c0 -19 -18 -19 -23 -1 -3 14 -1 18 9 14
8 -3 14 -9 14 -13z m-360 -578 c0 -98 36 -120 75 -46 11 21 27 40 36 42 22 4
406 -186 388 -192 -8 -3 -75 -26 -149 -52 -258 -87 -464 -184 -546 -257 l-47
-42 7 298 c3 164 9 324 13 357 l6 59 108 -55 109 -54 0 -58z"/>
</g>
</svg>
