<?xml version="1.0" standalone="no"?>
<!DOCTYPE svg PUBLIC "-//W3C//DTD SVG 20010904//EN"
 "http://www.w3.org/TR/2001/REC-SVG-20010904/DTD/svg10.dtd">
<svg version="1.0" xmlns="http://www.w3.org/2000/svg"
 width="602.000000pt" height="371.000000pt" viewBox="0 0 602.000000 371.000000"
 preserveAspectRatio="xMidYMid meet">
<metadata>
Created by potrace 1.16, written by Peter Selinger 2001-2019
</metadata>
<g transform="translate(0.000000,371.000000) scale(0.100000,-0.100000)"
fill="#000000" stroke="none">
<path d="M1705 3123 c-3 -136 -10 -319 -13 -406 l-7 -159 -563 -356 -562 -357
27 -23 c25 -20 1017 -684 1083 -724 l25 -16 0 -314 c0 -250 3 -318 14 -331 18
-23 47 -6 54 33 20 96 268 261 608 405 l107 45 912 0 913 0 256 -168 c277
-182 409 -264 465 -287 31 -13 37 -13 50 1 9 8 16 19 16 23 0 14 -64 79 -164
167 -55 48 -116 106 -137 131 -89 103 -156 253 -180 404 -16 107 -6 339 21
474 86 432 388 1034 768 1534 83 109 91 122 56 96 -192 -143 -2174 -1660
-2174 -1664 1 -7 49 -40 564 -395 l379 -261 -881 -3 -880 -2 -366 235 c-201
129 -371 235 -376 235 -6 0 -10 -48 -10 -122 l0 -121 -26 24 c-47 42 -120 164
-145 240 -21 65 -24 92 -24 219 1 126 4 158 28 243 46 169 155 410 195 434 11
7 23 25 27 42 20 94 254 252 578 390 l119 51 979 0 979 0 0 30 0 30 -981 0
-982 0 -360 231 c-198 127 -365 233 -372 235 -10 4 -14 -51 -20 -243z m362
-34 c380 -244 342 -216 311 -228 -111 -42 -293 -134 -473 -239 -5 -3 10 18 34
48 25 30 52 64 60 74 20 24 21 25 -131 -71 -64 -40 -118 -73 -120 -73 -3 0 -1
110 8 458 3 122 8 222 10 222 2 0 137 -86 301 -191z m3097 -130 c-428 -646
-653 -1274 -613 -1706 24 -257 132 -466 323 -622 121 -100 91 -83 -235 131
-220 144 -225 149 -221 178 4 30 4 30 -45 30 -49 0 -59 6 -344 201 -162 111
-378 260 -481 332 l-187 130 82 63 c580 444 1773 1352 1774 1350 2 -1 -22 -40
-53 -87z m-3383 -416 c-5 -10 -16 -27 -25 -38 -15 -20 -15 -20 -16 2 0 12 10
29 22 37 28 20 31 20 19 -1z m-152 -259 c-114 -227 -169 -426 -169 -612 0
-182 55 -338 159 -455 l46 -51 -40 24 c-117 70 -965 644 -963 651 2 5 233 154
513 332 l510 324 5 -41 c4 -36 -3 -58 -61 -172z m466 -1140 l308 -198 -34 -14
c-19 -8 -110 -52 -204 -98 -186 -90 -294 -157 -368 -228 -26 -25 -49 -46 -52
-46 -4 0 6 473 11 478 1 2 29 -11 61 -29 63 -35 93 -34 93 1 0 13 -27 42 -75
81 l-75 62 0 99 c0 80 3 99 13 95 8 -3 153 -94 322 -203z"/>
</g>
</svg>
