<?xml version="1.0" standalone="yes"?>
<svg xmlns="http://www.w3.org/2000/svg" width="374" height="371">
<!-- <path style="fill:#ffffff; stroke:none;" d="M0 0L0 371L374 371L374 0L0 0z"/>
--><path style="fill:#000000; stroke:none;" d="M41 227C66.1972 237.49 90.1831 251.296 115 262.691C126.388 267.92 137.972 274.481 149.999 278.095C154.129 279.336 158.056 277.247 162.015 278.878C190.423 290.585 216.89 307.611 245 320.139C261.102 327.315 276.666 335.727 293 342.397C296.316 343.751 306.886 349.748 309.762 345.396C313.105 340.339 301.089 334.359 298 332.424C280.426 321.421 267.911 307.538 262.898 287C254.092 250.921 268.106 211.155 281.603 178C285.68 167.985 292.018 158.35 295 148C307.425 154.616 314.343 147.786 300 141L308 125C304.023 127.719 298.808 134.584 294 135.245C290.323 135.752 286.349 131.277 284.04 128.961C276.391 121.286 271.331 110.801 270.174 100C267.937 79.1217 275.022 57.4521 284.248 39C288.139 31.2198 293.93 24.111 297 16C276.56 24.652 257.335 46.7334 240 60.6003C197.2 94.8389 153.312 129.467 113.767 166.731C97.7703 181.805 79.0103 194.634 62 208.576C54.9456 214.357 46.3584 219.55 41 227z"/>
<path style="fill:#ffffff; stroke:none;" d="M276 39C261.814 52.0572 246.046 63.7442 231 75.8002C222.02 82.9954 212.576 89.0688 208 100C229.717 112.675 255.199 125.896 279 134C267.323 113.501 261.084 98.0658 265.804 74C267.715 64.2556 277.532 48.1557 276 39M198 103C184.421 115.498 169.199 126.297 155 138.081C145.65 145.841 136.526 152.783 133 165L202 198C189.288 177.587 183.542 161.291 188.4 137C190.274 127.628 199.837 111.875 198 103M205 106C191.929 128.969 185.351 163.957 201.221 187C205.332 192.97 215.816 204.574 224 204.173C230.232 203.868 236.924 194.076 241 190C255.862 175.138 274.896 161.184 287 144L205 106M283 157L230 208L230 209C233.608 215.033 218.888 219.114 214 224C197.518 240.475 179.84 255.867 164 273C201.09 294.648 242.971 315.47 283 331C275.928 321.753 267.301 314.985 262.312 304C247.93 272.328 256.048 234.764 265.721 203C268.932 192.454 273.245 182.126 277.579 172C279.551 167.391 283.159 162.075 283 157M123 167L74 206.8L53 226L127 261C114.674 241.203 109.163 224.585 113.611 201C115.328 191.899 125.353 175.483 123 167M130 170C118.601 194.085 109.763 228.755 127.681 252C135.028 261.532 145.688 265.895 155 273L156 273L199 231L217 211L130 170M284 331L285 332L284 331z"/>
</svg>
