<?xml version="1.0" standalone="yes"?>
<svg xmlns="http://www.w3.org/2000/svg" width="360" height="371">
<!-- <path style="fill:#ffffff; stroke:none;" d="M0 0L0 371L360 371L360 0L0 0z"/>
--><path style="fill:#000000; stroke:none;" d="M29 189L29 191C63.8703 210.433 96.7171 236.188 130 258.333C138.137 263.748 146.377 269.202 155 273.821C157.278 275.041 161.972 277.929 163.914 274.642C165.755 271.524 162.012 268.138 159.981 266.289C152.501 259.484 144.308 254.065 138.015 246C135.566 242.861 133.407 239.553 131.605 236C119.049 211.241 147.724 205.21 165 196L165 239L170 239L170 207C170 203.538 168.865 197.423 171.603 194.742C176.013 190.426 190.184 193 196 193L196 239L201 239L201 193L227 193L227 222L225.972 234.815L209 246.808L169 272L169 274C203.411 295.236 235.705 319.95 270 341.424C277.997 346.432 285.807 351.687 294 356.385C296.345 357.73 300.793 360.715 303.377 358.303C308.041 353.95 296.646 346.594 294 344.424C279.137 332.241 267.156 317.861 265.171 298C261.854 264.827 279.275 231.541 297.344 205C303.178 196.43 310.841 188.969 316 180C306.186 179.067 292.066 163.429 285.924 155.999C283.673 153.277 280.235 149.732 279.952 146C279.636 141.823 284.218 137.578 286 134C266.874 133.947 270.969 112.011 273.611 98C280.45 61.7364 303.384 35.6603 323 6L293 23.6566L238 58.5756L116 134.053L29 189z"/>
<path style="fill:#ffffff; stroke:none;" d="M297 28C262.952 53.9794 223.506 75.5764 187 98L187 100C203.156 108.995 219.247 127.378 237 132.49C246.129 135.119 258.516 133 268 133C261.766 108.906 269.711 81.8019 280.258 60C284.528 51.1742 296.717 37.4977 297 28M175 98L150 134L225 133L225 132L175 98M40 191C72.4617 211.032 102.476 238.668 137 255C131.417 246.826 125.675 239.577 122.519 230C114.93 206.965 121.988 181.572 123 158L129 161L151 120L123 136.947L73 168.657L40 191M220 140L230 157L231 157L241 144C235.941 137.959 227.19 137.875 220 140M251 139C253.263 145.515 260.011 149.167 266 152C276.114 137.696 262.087 139 251 139M146 140C142.763 144.908 133.684 157.507 135.708 163.671C137.894 170.327 158.599 178.974 165 181C165 166.072 160.631 147.611 146 140M157 140L167 158L169 158L180 141L157 140M189 140L198 158L200 158L212 141L189 140M216 146C203.939 159.939 201 169.035 201 187L227 187C227 171.584 227.339 158.071 216 146M184 147C177.002 155.818 170.004 163.364 170 175C169.999 178.341 169.083 183.384 172.318 185.543C177.859 189.241 189.574 187 196 187C196 172.394 196.44 157.308 184 147M245 147L233.728 164L233 187L258 187C258 175.04 260.072 151.459 245 147M274 151L271 156L284 164L274 151M264 187L306 186L306 184C295.673 179.55 286.499 172.368 277 166.424C274.494 164.856 269.608 160.542 266.434 162.161C261.356 164.752 264 182.078 264 187M132 170C126.521 182.732 127 195.441 127 209L165 190L165 188L132 170M233 193L233 232C239.493 228.399 254.544 222.008 257.397 214.907C259.793 208.94 258 199.386 258 193L233 193M264 193L264 212L294 194L264 193M264 238L258 238L258 224C229.841 234.31 207.12 259.173 180 272L180 274L243 316.333L276 337C270.206 328.233 264.339 320.313 261.428 310C250.536 271.405 273.16 235.166 291 203C284.209 205.57 267.642 213.458 264.603 220.326C262.513 225.05 264 232.89 264 238z"/>
</svg>
