<?xml version="1.0" standalone="no"?>
<!DOCTYPE svg PUBLIC "-//W3C//DTD SVG 20010904//EN"
 "http://www.w3.org/TR/2001/REC-SVG-20010904/DTD/svg10.dtd">
<svg version="1.0" xmlns="http://www.w3.org/2000/svg"
 width="360.000000pt" height="371.000000pt" viewBox="0 0 360.000000 371.000000"
 preserveAspectRatio="xMidYMid meet">
<metadata>
Created by potrace 1.16, written by Peter Selinger 2001-2019
</metadata>
<g transform="translate(0.000000,371.000000) scale(0.100000,-0.100000)"
fill="#000000" stroke="none">
<path d="M2490 3186 c-393 -249 -715 -458 -717 -462 -1 -5 108 -83 243 -174
l246 -165 -109 -7 c-114 -7 -653 -11 -659 -5 -6 6 134 208 197 285 33 39 58
72 56 72 -5 0 -1437 -908 -1446 -916 -3 -2 4 -11 15 -19 49 -37 926 -623 1059
-707 218 -138 258 -157 272 -123 7 20 -12 41 -122 133 -143 119 -204 198 -245
321 -18 55 -19 68 -9 95 18 46 46 73 121 118 57 34 237 118 253 118 3 0 5 -97
5 -215 l0 -215 25 0 25 0 0 225 0 225 26 10 c14 6 72 10 130 10 l104 0 0 -235
0 -235 25 0 25 0 0 235 0 235 130 0 130 0 0 -222 -1 -223 -284 -180 c-157 -99
-285 -183 -285 -187 0 -9 1077 -727 1201 -801 101 -59 132 -68 143 -40 8 21
-15 45 -132 140 -190 155 -266 307 -265 533 0 58 5 134 12 170 48 251 219 588
423 836 40 48 65 85 55 81 -9 -3 -20 0 -24 7 -5 8 -51 50 -104 94 -110 92
-182 169 -210 225 l-20 38 35 50 c20 27 36 51 36 54 0 2 -26 5 -57 7 -53 3
-57 5 -66 33 -5 17 -9 84 -9 150 -1 190 47 359 170 599 64 126 184 310 266
409 51 62 61 77 54 77 -2 0 -325 -204 -718 -454z m444 158 c-118 -187 -222
-435 -255 -609 -15 -78 -18 -246 -6 -315 l7 -45 -159 2 -159 1 -246 167 c-135
92 -248 170 -250 174 -4 7 1116 722 1122 717 1 -2 -23 -43 -54 -92z m-1461
-901 c-47 -75 -161 -292 -175 -334 -4 -11 -10 -12 -33 -1 -15 7 -29 11 -31 10
-1 -2 -7 -73 -13 -158 -6 -85 -16 -186 -22 -225 -27 -184 24 -375 139 -528 29
-38 47 -65 40 -61 -22 13 -840 559 -916 612 l-74 51 39 25 c70 46 1097 696
1099 696 2 0 -22 -39 -53 -87z m915 -141 c12 -8 22 -18 22 -23 0 -17 -103
-148 -112 -143 -5 3 -18 24 -30 47 -11 23 -33 60 -49 83 -21 30 -25 44 -17 52
15 15 156 3 186 -16z m262 18 c44 0 49 -3 58 -28 9 -25 6 -34 -23 -67 l-32
-39 -54 34 c-107 69 -126 118 -41 106 25 -3 66 -6 92 -6z m-852 -19 c9 -5 -5
-32 -50 -94 -35 -48 -66 -87 -69 -87 -4 0 -12 13 -19 30 -7 16 -34 62 -61 101
l-49 70 118 -7 c64 -3 123 -10 130 -13z m260 9 c34 0 62 -4 62 -10 0 -11 -118
-173 -129 -178 -4 -1 -15 14 -25 35 -10 20 -33 61 -53 90 -19 29 -31 58 -27
64 4 8 24 9 58 5 28 -3 79 -6 114 -6z m-537 -41 c21 -23 59 -81 84 -130 45
-86 46 -91 43 -168 l-3 -79 -152 86 c-84 47 -153 90 -153 95 0 6 25 61 55 123
37 77 60 114 72 114 9 0 33 -19 54 -41z m403 -142 c35 -70 36 -75 36 -179 l0
-108 -111 0 c-61 0 -119 5 -130 10 -17 9 -19 22 -19 108 l0 97 72 99 72 98 21
-27 c12 -14 38 -59 59 -98z m270 85 c69 -109 76 -134 76 -257 l0 -115 -130 0
-130 0 0 108 0 107 72 98 c39 53 75 97 80 97 4 0 18 -17 32 -38z m288 26 c9
-7 35 -47 57 -88 l41 -75 0 -117 0 -118 -130 0 -130 0 0 111 0 111 68 93 c37
52 70 94 73 94 3 1 12 -5 21 -11z m355 -157 c27 -33 25 -33 -52 19 -44 29 -81
54 -83 55 -1 1 7 14 19 29 l21 27 34 -48 c19 -26 46 -63 61 -82z m-217 58 c0
-6 -4 -7 -10 -4 -5 3 -10 11 -10 16 0 6 5 7 10 4 6 -3 10 -11 10 -16z m225
-139 c95 -60 185 -115 199 -121 30 -14 33 -24 10 -33 -9 -3 -108 -6 -220 -6
l-204 0 0 111 c0 89 3 115 18 134 9 14 19 25 21 25 2 0 81 -49 176 -110z
m-1353 -81 c87 -50 157 -96 156 -101 -2 -6 -53 -32 -113 -58 -121 -52 -171
-79 -227 -123 l-38 -29 0 127 c0 100 5 142 22 201 11 41 25 74 31 74 5 0 81
-41 169 -91z m1088 -252 l0 -124 -117 -74 c-64 -41 -122 -78 -130 -82 -11 -7
-13 30 -13 198 l0 205 130 0 130 0 0 -123z m379 119 c-9 -8 -320 -206 -325
-206 -2 0 -4 47 -4 105 l0 105 167 0 c91 0 164 -2 162 -4z m-86 -172 c-129
-198 -236 -461 -269 -659 -37 -225 13 -431 142 -589 33 -41 40 -55 24 -46 -28
15 -926 616 -958 641 l-23 18 53 35 c29 19 206 131 393 250 l340 216 5 -73 c5
-65 7 -72 28 -75 21 -3 22 -1 22 90 l0 93 143 92 c78 50 145 92 149 92 4 1
-18 -38 -49 -85z"/>
</g>
</svg>
