<?xml version="1.0" standalone="no"?>
<!DOCTYPE svg PUBLIC "-//W3C//DTD SVG 20010904//EN"
 "http://www.w3.org/TR/2001/REC-SVG-20010904/DTD/svg10.dtd">
<svg version="1.0" xmlns="http://www.w3.org/2000/svg"
 width="547.000000pt" height="371.000000pt" viewBox="0 0 547.000000 371.000000"
 preserveAspectRatio="xMidYMid meet">
<metadata>
Created by potrace 1.16, written by Peter Selinger 2001-2019
</metadata>
<g transform="translate(0.000000,371.000000) scale(0.100000,-0.100000)"
fill="#000000" stroke="none">
<path d="M2805 3427 l-49 -31 -191 3 c-117 1 -201 -1 -217 -8 -40 -15 -37 -46
6 -66 36 -17 111 -114 98 -126 -22 -22 -850 -552 -865 -555 -15 -2 -1239 -788
-1270 -814 -13 -11 972 -685 1094 -749 26 -14 53 -22 62 -18 36 14 16 45 -76
123 -110 93 -157 147 -198 230 -41 82 -46 130 -20 172 25 40 105 92 220 143
l86 38 3 -190 2 -190 23 3 c22 3 22 5 25 198 2 140 6 196 15 202 6 4 56 8 110
8 l97 0 0 -206 0 -205 23 3 c22 3 22 4 25 206 l2 202 110 0 110 0 -2 -192 -3
-192 -247 -161 c-136 -88 -248 -163 -248 -166 0 -16 1024 -710 1106 -749 36
-18 47 -20 59 -10 13 10 15 8 15 -14 0 -23 4 -27 23 -24 l22 3 5 490 5 490 28
47 c61 105 234 249 466 388 l134 80 888 0 889 0 0 25 0 25 -887 0 -888 0 -315
276 -315 276 -3 69 -3 69 186 414 c102 228 185 419 185 425 0 7 -21 11 -53 11
-30 0 -102 3 -161 7 l-107 6 19 21 c19 21 36 47 30 45 -2 0 -25 -15 -53 -32z
m-158 -83 c19 -5 12 -13 -53 -55 -41 -27 -79 -50 -84 -52 -4 -1 -27 24 -49 56
l-40 57 102 0 c56 0 112 -3 124 -6z m410 -18 c1 -1 -67 -154 -151 -341 -83
-187 -155 -349 -160 -360 -5 -15 -27 39 -83 205 l-75 225 28 50 c31 57 119
191 143 218 14 17 27 18 156 12 77 -4 141 -8 142 -9z m-450 -136 c-23 -38 -45
-69 -49 -70 -7 0 -30 61 -24 67 4 5 110 72 113 73 1 0 -17 -31 -40 -70z m-100
-86 l20 -45 -48 -112 c-122 -285 -144 -511 -69 -705 16 -42 48 -101 70 -129
22 -29 37 -53 34 -53 -8 0 -274 182 -280 192 -3 4 4 21 15 37 l21 29 -81 7
-81 7 -213 147 c-118 80 -214 148 -215 151 0 6 792 520 801 520 4 0 15 -21 26
-46z m156 -434 l41 -135 -3 -246 c-2 -136 -6 -262 -10 -280 l-7 -33 -85 85
c-132 131 -179 241 -179 426 0 136 28 256 98 422 l36 84 34 -94 c18 -52 52
-155 75 -229z m-859 -191 l208 -144 -88 -6 c-113 -9 -564 -11 -564 -3 0 27
219 320 229 306 3 -5 100 -73 215 -153z m-497 -140 c-34 -58 -77 -140 -96
-182 -29 -67 -35 -75 -51 -67 -36 19 -40 12 -40 -72 0 -46 -7 -128 -15 -183
-8 -55 -14 -129 -15 -165 0 -127 48 -276 117 -368 18 -23 33 -45 33 -48 0 -3
-96 59 -212 138 -401 271 -618 423 -615 432 3 8 950 626 954 622 2 -2 -25 -50
-60 -107z m1756 -277 l279 -244 -74 -42 c-179 -102 -373 -248 -457 -344 l-51
-57 0 242 0 241 27 33 c23 27 24 30 6 21 -11 -6 -23 -8 -27 -5 -3 3 -6 98 -6
210 0 161 3 203 13 197 6 -5 137 -118 290 -252z m-939 196 l25 -23 -46 -64
-46 -63 -15 28 c-8 16 -28 50 -44 76 -16 26 -27 52 -23 58 3 5 33 10 65 10 47
0 64 -5 84 -22z m-526 6 c29 -8 25 -18 -35 -100 l-47 -64 -28 52 c-15 28 -39
66 -53 84 l-26 34 83 0 c46 0 93 -3 106 -6z m288 -2 c8 -5 -7 -33 -44 -84
l-56 -78 -26 49 c-15 27 -37 62 -48 78 -12 17 -19 33 -15 37 9 8 175 7 189 -2z
m-504 -41 c19 -22 51 -73 71 -115 34 -67 38 -81 35 -140 l-3 -65 -129 75 c-72
41 -131 76 -132 77 -2 2 19 49 46 105 29 61 55 102 64 102 8 0 30 -18 48 -39z
m342 -117 c34 -67 36 -77 36 -163 l0 -91 -98 0 c-63 0 -102 4 -110 12 -7 7
-12 44 -12 96 0 91 -4 82 83 200 45 62 40 64 101 -54z m266 15 c38 -75 40 -83
40 -174 l0 -95 -110 0 -110 0 0 98 0 98 60 82 c34 46 65 80 71 77 5 -4 27 -42
49 -86z m415 -49 c105 -70 211 -139 238 -154 30 -18 47 -35 47 -47 0 -18 -12
-19 -305 -19 l-305 0 0 101 0 102 56 78 c33 46 61 76 68 72 6 -4 97 -64 201
-133z m-1055 -151 c77 -45 140 -84 140 -89 0 -4 -21 -15 -47 -25 -72 -27 -221
-105 -256 -134 l-30 -25 5 120 c4 73 13 143 24 177 10 32 19 57 21 57 2 0 66
-36 143 -81z m1260 -123 c0 -2 -21 -18 -47 -34 -27 -16 -146 -93 -265 -170
l-218 -141 0 174 0 175 265 0 c146 0 265 -2 265 -4z m95 -1021 c5 -419 5 -419
-14 -398 -11 12 -58 53 -105 93 -95 80 -164 173 -197 265 -27 74 -37 255 -20
348 33 173 134 409 256 592 l60 90 8 -285 c4 -157 10 -474 12 -705z m-121 933
c-4 -7 -23 -36 -41 -64 -51 -82 -138 -261 -171 -354 -44 -125 -65 -241 -65
-355 0 -152 36 -262 122 -380 l36 -50 -205 139 c-463 313 -640 440 -630 450 9
9 950 623 958 625 2 1 0 -5 -4 -11z"/>
</g>
</svg>
