<?xml version="1.0" standalone="no"?>
<!DOCTYPE svg PUBLIC "-//W3C//DTD SVG 20010904//EN"
 "http://www.w3.org/TR/2001/REC-SVG-20010904/DTD/svg10.dtd">
<svg version="1.0" xmlns="http://www.w3.org/2000/svg"
 width="733.000000pt" height="371.000000pt" viewBox="0 0 733.000000 371.000000"
 preserveAspectRatio="xMidYMid meet">
<metadata>
Created by potrace 1.16, written by Peter Selinger 2001-2019
</metadata>
<g transform="translate(0.000000,371.000000) scale(0.100000,-0.100000)"
fill="#000000" stroke="none">
<path d="M4470 3394 c0 -15 -13 -16 -122 -11 -245 13 -604 18 -648 10 -36 -7
-46 -13 -48 -31 -3 -17 4 -26 30 -36 45 -19 82 -57 136 -140 74 -113 175 -347
256 -589 l36 -107 0 -640 c0 -393 -4 -640 -9 -640 -6 0 -13 6 -18 13 -16 25
-22 -84 -29 -533 -7 -428 -6 -456 10 -473 20 -20 40 -10 51 24 4 10 15 19 26
19 15 0 19 7 19 34 0 27 9 42 48 78 89 83 273 194 470 282 l102 46 300 0 300
0 0 -225 0 -225 25 0 25 0 0 225 0 225 560 0 560 0 2 -222 3 -223 25 0 25 0 3
1123 2 1123 280 409 c154 225 283 415 286 423 6 16 -155 23 -776 33 -381 6
-445 2 -445 -30 0 -20 2 -21 76 -54 26 -11 63 -35 83 -52 33 -29 146 -172 146
-184 0 -3 -126 -6 -280 -6 -182 0 -280 4 -280 10 0 6 34 78 76 161 41 83 74
152 72 154 -6 5 -567 25 -705 25 -78 0 -153 -4 -167 -10 -36 -13 -34 -44 4
-60 44 -18 109 -95 158 -187 23 -44 42 -83 42 -87 0 -3 -21 -6 -46 -6 -42 0
-69 14 -296 152 -168 102 -247 155 -244 165 4 8 -2 13 -17 13 -13 0 -40 9 -62
20 -47 24 -45 24 -45 4z m-220 -60 l215 -6 -6 -67 c-5 -61 -16 -87 -162 -365
-85 -164 -158 -300 -160 -302 -3 -3 -17 30 -32 73 -101 281 -203 500 -284 606
-30 40 -45 68 -38 70 7 3 66 3 132 1 66 -2 217 -7 335 -10z m1413 -13 l108 -6
-67 -137 -68 -138 -198 0 -197 0 -50 98 c-28 53 -69 121 -92 151 l-41 54 249
-8 c136 -4 297 -10 356 -14z m1255 -20 l173 -6 -251 -367 c-138 -203 -255
-368 -258 -368 -4 1 -50 90 -103 198 -115 233 -215 390 -316 491 l-73 73 328
-7 c180 -4 405 -10 500 -14z m-2117 -147 c107 -64 200 -122 207 -129 10 -9 -1
-18 -55 -40 -179 -75 -339 -165 -413 -231 l-42 -38 7 235 c6 225 7 236 32 291
26 56 28 57 48 44 12 -8 109 -67 216 -132z m-346 -303 l0 -239 -98 50 -98 49
98 189 c54 105 98 190 98 190 0 0 0 -107 0 -239z m803 7 c80 -213 122 -353
122 -408 l0 -50 -242 0 -243 0 -200 98 -200 97 20 42 c28 58 49 79 135 135
154 102 422 217 506 218 l52 0 50 -132z m254 -68 c-53 -110 -99 -200 -102
-200 -3 0 -21 46 -39 103 -19 56 -51 146 -71 200 l-38 97 173 0 173 0 -96
-200z m844 98 c101 -180 194 -392 194 -443 l0 -45 -560 0 -560 0 0 54 c0 48
12 77 120 295 l119 241 315 0 315 0 57 -102z m-2133 -994 c-1 -416 -3 -758 -6
-760 -2 -2 -16 5 -30 17 l-27 20 0 675 0 674 32 65 c18 36 32 65 33 65 0 0 -1
-340 -2 -756z m377 593 c127 -62 209 -108 200 -111 -8 -3 -69 -24 -135 -47
-66 -23 -163 -62 -215 -86 -90 -42 -97 -44 -133 -32 -21 7 -40 16 -43 21 -3 5
-2 98 2 207 l7 199 51 -23 c28 -13 148 -71 266 -128z m780 -347 c0 -115 -4
-210 -9 -210 -5 0 -35 77 -67 170 -32 94 -62 170 -65 170 -3 0 -66 -76 -140
-170 -129 -163 -135 -169 -170 -170 -26 0 -104 33 -279 118 l-242 118 83 39
c46 22 152 63 234 92 l150 52 253 0 252 1 0 -210z m1170 0 l0 -210 -560 0
-560 0 0 210 0 210 560 0 560 0 0 -210z m-2255 20 c3 -5 1 -10 -4 -10 -6 0
-11 5 -11 10 0 6 2 10 4 10 3 0 8 -4 11 -10z m974 -112 l41 -118 -142 0 c-133
0 -140 1 -126 18 8 9 52 63 97 120 46 57 84 102 86 100 1 -2 21 -56 44 -120z
m-684 -25 c123 -60 220 -111 217 -114 -4 -3 -56 -23 -117 -44 -135 -47 -265
-103 -332 -144 -89 -55 -87 -59 -80 156 l7 187 32 33 c18 18 36 33 40 33 5 0
109 -48 233 -107z m329 -155 c-4 -7 -24 -35 -45 -63 -58 -79 -65 -96 -44 -111
14 -10 23 -9 51 8 59 35 198 27 417 -23 l87 -21 0 -129 0 -129 -247 0 -248 -1
-262 127 c-145 70 -263 131 -263 136 0 20 213 113 410 179 123 41 156 47 144
27z m441 -69 c15 -44 25 -82 23 -84 -1 -2 -47 7 -100 20 -122 30 -280 49 -332
41 -31 -5 -37 -4 -29 6 5 7 24 32 42 56 l33 42 168 0 168 0 27 -81z m1195
-159 l0 -240 -369 0 -368 0 -184 146 c-103 81 -187 155 -191 167 -3 12 -6 55
-7 95 l-1 72 560 0 560 0 0 -240z m-982 -111 c70 -56 134 -107 142 -115 12
-12 -7 -14 -133 -14 l-147 0 0 115 c0 63 2 115 5 115 3 0 62 -45 133 -101z
m-1011 -29 c136 -66 246 -123 243 -127 -3 -4 -54 -24 -113 -45 -143 -49 -281
-111 -345 -152 -28 -19 -56 -37 -62 -41 -9 -5 -10 53 -4 216 6 201 13 269 28
269 3 0 117 -54 253 -120z m823 -455 l0 -295 -307 0 -308 0 -233 161 -233 161
23 25 c36 38 227 129 398 188 l155 54 253 0 252 1 0 -295z m748 39 c267 -212
325 -254 337 -244 8 7 15 16 15 21 0 8 -133 116 -489 397 l-103 82 331 0 331
0 0 -295 0 -295 -560 0 -560 0 0 295 0 295 188 0 187 0 323 -256z m-1932 -2
c12 -10 27 -28 33 -40 7 -13 20 -22 30 -20 10 2 113 -63 233 -146 l216 -149
-136 -67 c-144 -70 -280 -150 -347 -204 -22 -18 -46 -36 -52 -40 -10 -6 -13
65 -13 338 0 190 3 346 8 346 4 -1 16 -9 28 -18z m-89 -644 c-1 -57 -3 -11 -3
102 0 113 2 159 3 103 2 -57 2 -149 0 -205z"/>
<path d="M1368 2431 c-603 -460 -1096 -840 -1094 -845 7 -27 1347 -939 1602
-1090 146 -87 169 -96 191 -73 15 14 15 18 0 40 -9 14 -51 55 -94 93 -164 143
-236 224 -285 320 -70 134 -89 212 -95 387 -6 168 5 271 48 449 28 113 94 310
141 415 l23 52 -4 -412 c-3 -370 -1 -414 13 -426 13 -11 19 -11 31 -1 8 7 15
19 15 27 0 48 83 148 188 226 69 50 226 144 331 197 l81 40 810 0 811 0 -3 23
-3 22 -820 5 -820 5 -283 218 -283 219 62 116 c129 243 285 488 446 701 52 68
93 124 91 126 -2 1 -497 -374 -1100 -834z m753 432 c-82 -128 -167 -273 -255
-435 -20 -38 -41 -68 -46 -68 -6 0 -10 -10 -10 -23 0 -12 -25 -78 -56 -147
-160 -359 -242 -733 -214 -985 27 -257 104 -413 292 -590 l103 -97 -130 82
c-317 201 -1457 980 -1449 990 11 12 1840 1408 1846 1409 4 1 -33 -61 -81
-136z m42 -832 l226 -175 -127 -70 c-164 -92 -271 -166 -349 -242 l-63 -62 0
178 c0 97 3 272 7 388 l6 211 37 -27 c20 -15 138 -105 263 -201z"/>
</g>
</svg>
