<?xml version="1.0" standalone="yes"?>
<svg xmlns="http://www.w3.org/2000/svg" width="596" height="371">
<path style="fill:#ffffff; stroke:none;" d="M0 0L0 371L596 371L596 0L0 0z"/>
<path style="fill:#000000; stroke:none;" d="M208 57L207 57L199 51C199 54.5742 199.842 59.4937 197.972 62.6999C195.211 67.4333 188.294 70.8788 184 74.1296C174.288 81.483 164.74 89.0567 155 96.3734C124.17 119.534 93.4356 142.9 63 166.576C49.7096 176.914 31.2489 186.608 21 200C36.6681 208.925 51.146 220.736 66 230.975C95.5166 251.32 125.168 271.447 155 291.333C166.706 299.137 178.589 307.042 191 313.691C196.671 316.729 205.808 318.18 201 309C205.862 306.172 207.758 299.142 212.015 295.09C222.129 285.462 236.701 276.409 250 271.955C261.485 268.109 277.933 271 290 271L376 271C375.814 280.018 374.195 288.931 375.285 298C375.536 300.08 375.521 305.408 378.263 305.94C381.8 306.625 387.485 294.964 390.09 292.59C400.64 282.98 416.104 272.581 430 268.637C442.077 265.21 458.463 268 471 268L558 268L558 263L470 263L430 262.437L392 236L392 234L429 213.61L471 213L558 213L558 207L464 207C448.621 207 432.789 209.959 420 200.373L397 183.127C394.883 181.536 390.056 179.04 390.056 175.949C390.056 172.561 395.628 169.46 398 167.745C406.563 161.555 416.266 155.579 426 151.429C438.469 146.114 455.633 149 469 149L559 149L559 144L471 144L431 143.436L393 117C409.329 95.8426 435.941 94 460 94L559 94L559 88L469 88C457.776 88 440.48 91.2632 430 87.1458C410.734 79.5767 396.619 59.2727 378 50L377 89L291 89L252 88.4869L219 66L244 30C232.616 33.8387 215.57 47.7007 208 57z"/>
<path style="fill:#ffffff; stroke:none;" d="M214 59L213 61L214 59M383 61C383 73.6957 382.015 86.3692 382 99C381.995 102.928 381.435 110.239 387.019 110.745C390.807 111.088 395.077 106.631 398 104.671C405.617 99.5609 414.221 93.7781 423 91L423 90L383 61M207 64L204 75L205 75C207.139 71.1318 210.316 67.8251 207 64M215 70C207.562 79.7484 204.977 87.1721 203.424 99C202.899 103 202.024 109.917 207.059 111.542C210.607 112.688 214.35 108.849 217 107.025C225.489 101.184 236.171 97.4872 244 91L215 70M197 72L79 162.116L46 187.21L32 200C81.4304 233.352 129.295 272.943 182 301C174.278 290.037 163.767 282.447 157.784 270C140.122 233.258 150.483 190.267 164.05 154C171.041 135.313 180.15 117.396 189.86 100C194.584 91.538 201.234 82.0913 197 72M214 116L214 118L250 143.436L290 144L377 144L377 95L290 95C277.463 95 261.077 92.2095 249 95.6373C236.624 99.1498 224.316 108.611 214 116M197 98C173.685 152.107 127.693 224.047 171.236 281C178.398 290.368 188.368 299.222 198 306L198 160L198 118L197 98M209 121C199.417 132.883 203 159.173 203 174L243 148L243 146L209 121M382 173L422 147L422 145C413.618 139.78 405.902 133.296 398 127.373C395.482 125.486 391.575 121.356 388.105 121.907C383.059 122.708 383.02 130.247 383.001 134C382.933 147.001 382 159.95 382 173M209 179L250 208.272L289 209L376 209L377 150L288 150C273.085 150 256.601 147.452 243 154.247C232.763 159.361 212.481 167.132 209 179M384 182C379.739 192.097 380.999 208.038 381 219C381 222.877 380.446 229.675 386.019 230.003C389.893 230.231 393.971 225.678 397 223.696C404.746 218.627 413.033 214.65 421 210C412.565 199.639 395.961 187.957 384 182M205 183C202.079 195.27 205.014 208.508 203.83 221C203.452 224.987 202.047 231.514 208.019 232.133C211.932 232.538 215.982 228.062 219 226.079C226.581 221.097 234.622 216.488 243 213C237.278 201.732 215.948 189.238 205 183M214 238C224.877 245.813 238.134 260.686 251 264.487C262.289 267.822 278.235 265 290 265L376 265L376 215L281 215C256.961 215 230.259 216.804 214 238M381 292L421 266L421 264C412.607 258.773 405.018 252.21 397 246.424C394.471 244.599 390.497 240.625 387.108 241.033C382.24 241.619 382.048 249.437 382.004 253C381.844 266.011 381 278.943 381 292M208 242C200.723 256.242 203 278.126 203 294L244 268C235.233 259.06 219.905 245.949 208 242M183 301L185 303L183 301z"/>
</svg>
