<?xml version="1.0" standalone="yes"?>
<svg xmlns="http://www.w3.org/2000/svg" width="652" height="371">
<path style="fill:#ffffff; stroke:none;" d="M0 0L0 371L652 371L652 0L0 0z"/>
<path style="fill:#000000; stroke:none;" d="M333 27L333 47C321.333 46.9987 309.719 45.9442 298 46.0008C294.734 46.0165 287.913 45.5413 286.256 49.2593C284.934 52.2268 298.79 63.552 300.934 67C312.198 85.1073 321.196 108.235 326 129L255 129C244.929 129 231.674 131.265 222 128.351C206.295 123.62 186.293 108.625 173.034 98.9066C164.557 92.6937 176.928 72.7999 180.281 65C181.342 62.5302 186.178 53.948 180.888 53.0602C176.558 52.3335 172.335 61.1322 170.291 64C161.256 76.6776 152.208 89.3459 143.14 102C116.896 138.626 90.7827 175.345 64.5787 212C52.9579 228.255 35.083 246.318 28 265C63.9025 278.929 98.2086 297.071 134 311.4C147.077 316.635 164.601 327.374 179 325C178.153 313.764 163.499 309.437 156.001 302.816C145.718 293.736 140.025 281.236 137.211 268C130.117 234.639 137.755 198.475 145.873 166C148.956 153.671 154.899 140.607 156 128L157 128L157 163C157.001 165.764 156.022 174.177 160.884 173.534C163.719 173.159 164.918 168.961 166.418 166.999C170.18 162.077 183.165 148.973 189.996 153.426C197.905 158.581 197 166.78 197 175L197 226L203 226L203 180L204.028 161.039L217 150L232.424 140.515L246 151.001L255.397 162L256 182L256 226L261 226L261 182L261.603 162.039L276 149.626L296 135.703L326 135L326 251L255 251C245.056 251 231.488 253.394 222 250.301C199.106 242.839 181.505 218.521 158 213C158 233.702 157 254.275 157 275C157 279.472 154.812 292.237 159.274 294.914C163.114 297.217 166.955 288.181 169.044 286.015C177.986 276.742 190.516 271.206 202 265.781C222.24 256.22 240.049 257 262 257L326 257L326 322C326 326.809 324.651 341.78 328.727 344.953C332.58 347.952 337.829 336.247 340.015 334.001C349.516 324.24 367.064 310.339 381 308.213C402.002 305.01 425.739 308 447 308L580 308L580 333L585 333L585 195C585 174.359 581.034 149.151 585.39 129C586.849 122.253 591.683 116.095 594.752 110C601.959 95.6879 609.077 81.3306 616.247 67C619.336 60.825 623.776 54.861 625 48C603.301 48 581.682 46 560 46C555.798 46 540.252 43.8339 539.466 50.0363C539.048 53.3336 550.634 61.711 553 65L413 65L381 65C376.5 64.9908 371.112 64.8622 368.994 59.9807C367.422 56.3573 370.993 51.4938 372 48L356 46.9722L333 27z"/>
<path style="fill:#ffffff; stroke:none;" d="M339 41L339 47L345 47L339 41M298 52C311.467 72.4444 323.417 94.8671 329 119L330 119L332 93L333 53L298 52M551 52C554.657 57.353 559.252 66.9024 566 68C564.509 74.8784 567.942 79.8516 570.573 86C574.969 96.2731 579.478 107.097 582 118L593.247 99L616 54L551 52M338 53L338 92C346.183 86.2355 350.387 78.7402 354.753 70C356.395 66.7139 359.299 62.6997 357.292 59.0046C353.334 51.7202 344.944 53 338 53M364 65L360 73C363.267 70.9577 365.489 68.9378 364 65M380 72L401 110C407.503 103.078 412.136 93.1652 416.999 85C418.557 82.3845 421.654 78.4518 419.342 75.4337C413.591 67.9268 388.477 72 380 72M445 105C449.551 101.241 466.984 80.9847 461.663 75.6381C456.111 70.0605 445.091 71.9517 438.001 72.0008C435.316 72.0193 431.051 71.6908 430.312 75.1481C429.641 78.2936 432.664 81.5307 434.186 84C438.295 90.6666 441.99 97.7708 445 105M398 302L398 212L398 151C398 127.533 396.437 111.118 385.218 90C382.499 84.8812 376.4 71.7506 369 74.3874C357.285 78.5614 350.91 89.6852 345.753 100C341.41 108.686 334.449 118.479 332.39 128C330.249 137.906 332 149.876 332 160L332 234C332 243.063 329.244 257.467 332.603 265.91C334.898 271.677 344.221 276.439 349 280.119C357.501 286.665 367.708 298.108 378 301.436C383.889 303.34 391.848 302 398 302M489 111C494.041 103.521 498.525 95.7065 503.203 88C504.811 85.3511 508.429 81.4295 507.978 78.108C507.554 74.9902 503.606 73.8011 501 73.3295C495.645 72.3606 477.442 70.4989 473.948 75.3179C471.577 78.589 474.516 82.1387 476.128 85C480.819 93.3281 483.756 103.103 489 111M533 106L534 106L555 74C546.449 71.4724 535.892 72.9817 527 73C524.164 73.0058 518.826 72.3683 518.02 76.1481C517.358 79.2544 520.424 82.5871 521.947 85C526.16 91.6781 529.964 98.708 533 106M560 78C552.774 88.0883 540.031 101.09 536.513 113C531.536 129.854 536 154.395 536 172L536 302L580 302L580 164C580 136.134 578.63 101.06 560 78M167 79L159 91L163 93L167 79M425 82C419.428 93.7806 408.407 104.525 404.649 117C399.651 133.59 404 157.659 404 175L404 302L442 302L442 150C442 126.079 444.597 99.9617 425 82M513 83C505.982 93.6065 495.31 106.797 491.649 119C486.749 135.333 491 158.934 491 176L491 302L530 302L530 151C530 127.298 532.343 100.857 513 83M468 84L448.51 113L448 134L448 177L448 302L486 302L486 154C486 130.374 486.627 102.061 468 84M157 93L73.5787 210L37 262L114 296.421L163 316L163 315C141.598 303.562 132.607 282.072 129.845 259C125.377 221.68 134.559 182.726 144.71 147C148.741 132.813 163.028 107.366 157 93M165 102L163 131L212 131L212 130L165 102M163 136L162 161L183 147C177.93 140.43 170.748 138.026 163 136M181 136C188.211 144.906 193.982 140.499 203 137L181 136M239 136L239 137L259 152.883L282 138C270.427 133.144 251.521 136 239 136M194 147L199 154L223 138C214.607 134.512 201.726 143.788 194 147M164 223L162 283C178.804 271.304 194.951 261.815 214 254L214 253L164 223M334 276L333 331L371 306L371 304L334 276z"/>
</svg>
