<?xml version="1.0" standalone="no"?>
<!DOCTYPE svg PUBLIC "-//W3C//DTD SVG 20010904//EN"
 "http://www.w3.org/TR/2001/REC-SVG-20010904/DTD/svg10.dtd">
<svg version="1.0" xmlns="http://www.w3.org/2000/svg"
 width="652.000000pt" height="371.000000pt" viewBox="0 0 652.000000 371.000000"
 preserveAspectRatio="xMidYMid meet">
<metadata>
Created by potrace 1.16, written by Peter Selinger 2001-2019
</metadata>
<g transform="translate(0.000000,371.000000) scale(0.100000,-0.100000)"
fill="#000000" stroke="none">
<path d="M3337 3408 c-4 -12 -7 -56 -7 -96 l0 -72 -212 2 c-117 1 -223 -1
-235 -5 -35 -13 -29 -45 11 -62 19 -8 50 -34 71 -57 68 -80 205 -384 280 -625
l23 -73 -531 0 -530 0 -216 132 c-119 73 -239 147 -268 165 l-51 32 48 123
c26 68 64 161 84 207 37 84 36 100 -1 101 -12 0 -1513 -2092 -1513 -2108 0 -9
524 -245 875 -395 442 -189 606 -243 621 -204 11 29 -16 56 -130 131 -126 83
-168 126 -221 226 -101 194 -118 494 -49 902 27 161 103 471 153 623 l29 90 1
-222 c1 -187 3 -224 17 -237 24 -24 33 -20 53 27 22 51 78 102 175 160 l69 41
44 -48 43 -48 0 -329 0 -329 30 0 30 0 0 328 0 328 123 91 c174 129 157 122
209 88 23 -15 78 -62 121 -103 l77 -75 0 -329 0 -328 25 0 25 0 0 328 1 327
166 123 167 122 163 0 163 0 0 -580 0 -580 -532 0 -533 1 -305 188 -305 188
-7 -36 c-3 -20 -10 -198 -14 -396 -7 -334 -6 -362 10 -378 26 -25 35 -21 55
26 22 49 64 91 141 140 72 45 233 125 343 171 l87 36 530 0 530 0 0 -419 c0
-257 4 -430 10 -446 14 -36 42 -29 55 14 22 77 154 186 356 295 l86 46 1012 0
1011 0 0 -120 0 -120 25 0 25 0 0 1024 0 1023 198 389 198 389 -31 7 c-40 8
-676 26 -745 21 -85 -8 -108 -41 -47 -66 18 -8 52 -36 76 -63 l43 -49 -907 -3
-906 -2 -34 26 -34 26 25 50 c14 27 23 52 21 55 -3 2 -40 7 -84 10 l-78 5
-101 100 c-94 92 -102 98 -107 76z m130 -174 c-1 -2 -21 0 -45 3 -38 5 -42 8
-42 33 0 42 11 43 52 3 21 -20 37 -38 35 -39z m-139 -318 c-2 -201 0 -278 9
-287 9 -9 5 -24 -15 -65 l-26 -54 -46 128 c-99 271 -187 450 -258 525 l-26 27
183 0 182 0 -3 -274z m2825 255 c8 -8 -311 -650 -323 -651 -3 0 -25 55 -49
123 -24 67 -65 173 -92 236 -34 78 -46 118 -39 125 16 16 12 26 -12 26 -17 0
-31 13 -51 48 -15 26 -40 62 -55 81 l-27 34 320 -7 c176 -3 323 -10 328 -15z
m-2592 -27 l38 -37 -59 -116 c-42 -84 -72 -130 -109 -166 l-51 -49 0 202 0
202 72 0 c69 0 74 -1 109 -36z m89 -111 c0 -21 -9 -34 -35 -51 l-35 -22 27 50
c32 56 43 62 43 23z m526 -59 c19 -9 37 -20 40 -25 4 -7 -176 -316 -202 -348
-2 -2 -11 13 -20 35 -41 101 -105 225 -147 287 l-47 67 171 0 c137 0 178 -3
205 -16z m407 2 c18 -7 39 -22 49 -32 15 -18 11 -26 -79 -158 l-96 -138 -58
112 c-32 61 -70 128 -85 147 -22 29 -25 38 -15 59 10 23 13 24 131 24 79 0
132 -5 153 -14z m485 -18 l32 -20 -19 -31 c-10 -18 -58 -97 -106 -176 l-88
-143 -22 53 c-30 73 -103 218 -128 253 -19 28 -20 30 -3 61 l18 32 141 -5
c118 -4 147 -8 175 -24z m491 16 c2 -1 -48 -77 -110 -167 l-114 -165 -52 100
c-28 54 -67 120 -86 147 -31 43 -33 50 -21 73 l13 25 183 -5 c101 -2 185 -6
187 -8z m-1804 -21 c58 -58 133 -193 195 -348 l30 -76 0 -924 0 -925 -99 0
-99 0 -230 178 -231 177 -1 703 0 702 104 208 104 207 83 62 c46 34 91 63 100
63 9 0 29 -12 44 -27z m-2094 -91 c-32 -84 -36 -89 -55 -73 -12 10 -15 0 -21
-66 -5 -53 -25 -135 -65 -259 -285 -881 -303 -1494 -50 -1776 28 -31 85 -80
128 -108 42 -29 68 -49 57 -45 -199 69 -533 212 -1242 531 l-53 24 662 925
c363 509 662 924 664 922 2 -2 -9 -35 -25 -75z m4071 -229 l63 -168 3 -892 2
-893 -220 0 -220 0 0 953 0 954 123 177 122 178 32 -71 c18 -39 60 -146 95
-238z m-1410 164 c22 -38 55 -103 74 -144 l34 -74 0 -950 0 -949 -200 0 -200
0 0 923 0 922 112 187 c127 211 110 203 180 85z m913 -78 l65 -127 0 -956 0
-956 -195 0 -195 0 0 923 0 922 112 183 112 184 18 -24 c9 -12 47 -80 83 -149z
m-509 95 c21 -37 59 -118 86 -181 l48 -114 0 -920 0 -919 -190 0 -190 0 0 956
0 955 100 145 c56 79 103 144 105 144 2 0 21 -30 41 -66z m-2821 -269 c116
-71 214 -132 219 -137 6 -4 -103 -8 -242 -8 l-252 0 0 111 c0 62 5 129 12 150
10 37 13 38 32 26 12 -8 116 -72 231 -142z m-215 -209 c36 -7 140 -70 140 -85
0 -4 -28 -26 -62 -47 -35 -21 -82 -56 -105 -77 l-43 -40 0 137 c0 127 1 136
18 128 9 -5 33 -12 52 -16z m281 -22 c-40 -19 -81 -32 -90 -29 -9 3 -32 19
-51 35 l-34 30 124 -1 125 -1 -74 -34z m262 24 c1 -4 -50 -45 -113 -92 l-115
-84 -38 36 c-44 43 -52 34 108 104 99 44 152 55 158 36z m597 7 c0 -3 -55 -46
-122 -95 l-122 -90 -76 73 c-41 41 -88 84 -104 95 l-29 22 227 0 c124 0 226
-2 226 -5z m-929 -1017 c136 -84 246 -154 244 -156 -2 -2 -54 -26 -116 -53
-158 -69 -288 -143 -355 -202 l-56 -51 6 280 c7 271 11 334 23 334 4 0 118
-69 254 -152z m1637 -523 c100 -77 182 -142 182 -145 0 -3 -26 -18 -57 -34
-85 -41 -241 -147 -294 -200 l-46 -45 4 272 c5 276 6 301 21 295 5 -2 90 -66
190 -143z"/>
</g>
</svg>
