<?xml version="1.0" standalone="yes"?>
<svg xmlns="http://www.w3.org/2000/svg" width="709" height="371">
<path style="fill:#ffffff; stroke:none;" d="M0 0L0 371L709 371L709 0L0 0z"/>
<path style="fill:#000000; stroke:none;" d="M201 31C193.931 47.9786 186.035 69.0478 175.362 84C164.799 98.7988 147.131 110.484 134 123.039C99.7584 155.779 63.8416 186.857 30 220L30 221C56.8151 242.28 85.5611 261.956 114 280.999C119.957 284.988 137.097 299.876 144.678 296.381C148.941 294.416 144.71 289.049 142.891 287C133.917 276.893 125.146 268.912 122.616 255C117.676 227.845 129.046 198.61 139.579 174C143.577 164.657 147.599 153.265 153.954 145.259C171.369 123.32 206.413 121.858 232 118.715C242.14 117.47 254.886 114.903 265 116.34C289.903 119.879 316.034 131.999 340 139.656C386.929 154.65 434.149 168.76 481 184L422 204.333L328 236.333L280 252.667L258 259.374L230 253.65L163 239C167.874 265.252 168.597 293.364 171.075 320C171.597 325.617 171.72 345.066 177.4 347.824C181.067 349.605 187.918 332.033 190.156 329C203.994 310.246 223.911 295.215 242 280.801C271.358 257.409 309.719 249.094 345 237.333C388.496 222.835 432.329 203.334 477 193L477 194C458.818 203.43 440.82 223.816 426 238L426 239C457.219 263.062 490.211 285.474 523 307.333C535.287 315.525 550.668 329.863 566 330C565.658 319.252 555.75 314.154 549.09 306.999C541.234 298.559 536.609 288.283 534.615 277C526.619 231.747 554.123 179.973 575.576 142C583.02 128.824 590.146 114.561 600 103L605.79 122L606 188L606 323L612 323L612 185C612 165.309 607.755 140.1 612.418 121C614.42 112.8 621.389 104.307 625.579 97C635.996 78.8294 648.139 60.9785 657 42C633.343 41.8042 609.738 40 586 40C580.748 40 565.378 37.4055 561.662 41.5988C558.052 45.6726 568.768 50.0363 570.961 52.1049C578.747 59.4506 583.532 69.5707 588.247 79C589.609 81.7238 593.142 86.3742 592.335 89.5717C590.425 97.1424 573.795 106.991 568 112.166C550.738 127.58 533.262 142.753 516 158.166C508.941 164.469 500.139 175.881 491.285 179.356C486.041 181.415 474.244 175.332 469 173.656C449.357 167.38 429.562 161.518 410 155C378.525 144.512 346.684 134.872 315 125.025C300.586 120.546 280.889 117.904 268.09 109.914C259.692 104.673 253.141 92.6757 247 85C232.763 67.2046 216.57 50.0062 204 31L201 31z"/>
<path style="fill:#ffffff; stroke:none;" d="M203 41L188 73C189.816 71.8381 195.446 67.5338 196.245 72.1173C197.02 76.569 189.368 84.4487 187 88C178.243 101.135 168.695 114.677 162 129C193.236 117.823 225.558 111 259 111L234.2 79L203 41M573 45L573 46C584.308 54.3239 594.143 72.6116 598 86L629 60C622.085 69.6264 605.957 84.1586 604.032 96C603.223 100.977 607.429 107.356 609 112L610 112L647 47L573 45M594 97L531 153.166L494.726 187.085L456 219.576L436 239C474.059 264.889 510.294 296.33 551 318C543.839 309.111 536.089 302.138 532.09 291C515.332 244.326 544.477 187.375 565.781 147C572.086 135.051 579.076 123.477 586.192 112C588.909 107.618 594.01 102.292 594 97M167 101C137.739 129.657 106.973 156.99 77 184.91C65.9309 195.222 46.512 207.324 40 221C70.0576 242.528 99.6261 267.044 132 285C127.09 278.002 121.492 272.363 118.749 264C106.382 226.294 128.775 180.944 145.247 148C150.595 137.303 156.264 126.886 161.231 116C163.256 111.56 167.052 105.876 167 101M477 192L478 193L477 192M170 247L175.834 309L180 333C191.968 313.921 209.867 299.194 227 284.92C234.357 278.79 246.635 272.596 251 264L170 247z"/>
</svg>
