<?xml version="1.0" standalone="no"?>
<!DOCTYPE svg PUBLIC "-//W3C//DTD SVG 20010904//EN"
 "http://www.w3.org/TR/2001/REC-SVG-20010904/DTD/svg10.dtd">
<svg version="1.0" xmlns="http://www.w3.org/2000/svg"
 width="709.000000pt" height="371.000000pt" viewBox="0 0 709.000000 371.000000"
 preserveAspectRatio="xMidYMid meet">
<metadata>
Created by potrace 1.16, written by Peter Selinger 2001-2019
</metadata>
<g transform="translate(0.000000,371.000000) scale(0.100000,-0.100000)"
fill="#000000" stroke="none">
<path d="M1966 3289 c-30 -63 -89 -187 -132 -275 l-79 -162 -722 -672 c-397
-370 -720 -676 -718 -680 15 -25 840 -606 983 -693 109 -66 137 -76 158 -55
22 22 9 43 -96 154 -66 69 -93 105 -108 147 -76 203 -44 466 104 834 68 170
183 403 198 403 7 0 28 16 47 36 102 106 412 181 894 215 l170 12 1075 -338
c591 -186 1078 -341 1082 -344 7 -6 -2187 -754 -2227 -759 -13 -2 -231 43
-485 99 -253 56 -463 99 -467 96 -10 -11 63 -762 92 -945 17 -107 28 -132 55
-132 19 0 23 8 35 67 16 81 162 251 370 431 119 103 336 273 400 315 33 21
2194 762 2201 754 1 -1 -113 -103 -253 -227 -140 -124 -259 -230 -264 -237 -7
-8 22 -34 98 -89 296 -214 653 -463 879 -614 332 -221 394 -251 402 -191 3 18
-18 44 -95 120 -115 112 -154 166 -188 256 -130 344 39 925 487 1672 51 84
101 164 113 178 l20 27 38 -101 37 -101 0 -1005 0 -1005 25 0 25 0 0 1019 0
1020 220 382 c122 210 220 383 218 385 -2 1 -120 8 -263 13 -334 14 -641 14
-666 1 -34 -19 -22 -44 32 -68 38 -18 62 -39 100 -90 65 -88 185 -322 173
-338 -7 -9 -887 -790 -1006 -891 -15 -13 -141 24 -1135 337 -615 193 -1124
357 -1131 362 -7 6 -148 180 -314 387 -165 207 -307 382 -314 390 -11 13 -22
-3 -68 -100z m363 -349 c148 -184 269 -336 268 -336 -1 -1 -67 -7 -147 -14
-355 -28 -641 -85 -784 -156 -27 -14 -50 -23 -52 -21 -6 5 198 337 281 458 41
60 75 113 75 118 0 5 -7 14 -15 21 -13 11 -21 8 -50 -20 -19 -19 -35 -31 -35
-27 0 3 36 82 80 174 71 147 82 165 95 152 8 -8 136 -165 284 -349z m3880 310
c140 -5 256 -12 258 -14 3 -2 -80 -151 -183 -330 -115 -199 -191 -321 -195
-314 -5 7 -20 45 -34 85 l-27 72 43 63 c24 35 80 114 127 177 46 62 77 109 70
105 -7 -4 -73 -62 -147 -127 l-134 -119 -61 118 c-66 128 -110 196 -164 256
l-34 38 113 0 c63 0 228 -5 368 -10z m-255 -517 c-142 -218 -273 -447 -385
-677 -114 -235 -189 -430 -234 -611 -101 -401 -60 -671 131 -862 51 -51 64
-68 43 -57 -90 46 -1159 789 -1158 804 0 3 128 118 285 255 190 167 291 249
304 248 14 -2 22 5 26 23 5 17 165 165 503 465 272 241 497 439 499 439 3 0
-4 -12 -14 -27z m-4328 -159 c-35 -76 -102 -213 -149 -304 -345 -666 -407
-1125 -186 -1375 24 -27 37 -45 29 -40 -139 82 -925 638 -925 654 0 7 1288
1210 1292 1207 2 -1 -26 -65 -61 -142z m517 -1424 l390 -86 -109 -84 c-263
-202 -520 -444 -594 -558 -18 -29 -37 -49 -41 -45 -12 13 -89 738 -89 836 0
35 1 37 27 31 14 -4 202 -46 416 -94z"/>
</g>
</svg>
