<?xml version="1.0" standalone="yes"?>
<svg xmlns="http://www.w3.org/2000/svg" width="603" height="371">
<path style="fill:#ffffff; stroke:none;" d="M0 0L0 371L603 371L603 0L0 0z"/>
<path style="fill:#000000; stroke:none;" d="M31 210C69.231 236.006 106.512 263.354 145 289C153.73 294.817 162.657 300.955 172 305.741C174.549 307.046 180.374 310.665 182.802 307.393C186.865 301.916 175.135 293.832 172 290.91C156.187 276.175 148.807 261.303 146.285 240C140.86 194.169 171.37 150.943 188 111L189 111C186.222 122.668 188.138 136.047 187.996 148C187.595 181.717 191.974 217.502 187.576 251C186.169 261.711 186.017 274.257 187.285 285C187.608 287.73 187.208 294.082 190.274 295.338C192.416 296.216 193.907 294.577 194.779 292.852C198.398 285.696 202.106 280.666 208 275.039C225.197 258.622 250.892 245.996 273 237.619C290.13 231.128 316.735 236 335 236L472 236L472 326L477 326L477 236L484 236C476.702 245.653 485.589 250.749 493 257.285C507.203 269.812 519.787 284.178 534 296.715C537.629 299.915 549.145 313.853 554.667 310.863C560.77 307.56 545.225 292.329 543.09 289C526.018 262.38 532.919 232.325 533 203C536.951 205.772 550.096 221.208 555.353 216.954C559.7 213.435 548.257 202.645 546.236 200C529.867 178.578 546.608 159.968 550 137L549 137L533 162C528.723 151.864 530.428 136.755 531.714 126C533.946 107.344 537.076 89.2024 541.884 71C544.27 61.9686 548.633 53.2531 550 44C542.945 49.8307 538.619 59.3976 533.656 67C524.462 81.0823 514.799 94.8615 505.692 109C497.436 121.819 493.497 134 477 134C477.001 122.048 482.954 114.14 488.719 104C499.513 85.0146 514.532 65.5133 522 45C497.645 43.9541 473.443 43 449 43C444.947 43 427.184 40.6219 426.466 46.1705C426.022 49.6046 430.876 50.8342 433.001 52.429C438.178 56.3158 442.158 61.6264 445.655 67C457.275 84.8542 471.986 112.365 472 134L336 134L294 134L274 133.487L255 121.025L204 86L240 33C222.676 40.3352 206.438 59.8512 192 71.9197C156.522 101.576 121.418 131.682 86 161.41L49 192.59C42.9922 197.632 34.4138 202.831 31 210z"/>
<path style="fill:#ffffff; stroke:none;" d="M439 48C453.641 68.866 466.005 89.4708 474 114L476 114C486.94 93.2293 504.925 72.3506 512 50L439 48M207 67L194 78L194 79L199 82L207 67M532 80L499.333 130L488.113 148.961L496 158.015L521 181C527.548 169.237 525.157 162.918 525.004 150C524.845 136.606 525.505 123.246 527.59 110C528.898 101.692 534.443 87.9669 532 80M188 83L118 142.424L40 208L85 240.424L166 295C158.74 284.694 150.133 277.171 145.461 265C132.355 230.86 145.482 188.943 159.15 157C165.681 141.738 172.76 126.428 181.001 112C185.935 103.361 192.316 93.2854 188 83M200 91C189.252 107.314 193 136.942 193 156C193 160.613 190.352 176.925 198.019 176.694C203.636 176.524 212.236 166.511 217 163.333C232.257 153.157 249.056 144.054 266 137L235 114.576L200 91M203 181L249 213.72L274 230.437L294 231L335 231L472 231L472 140L335 140C315.869 140 290.4 135.566 272 140.789C246.952 147.898 223.341 165.558 203 181M477 140L477 231C496.441 231 506.115 201.161 517 187L517 186L479 150L479 149L485 140L477 140M528 180C525.414 184.495 525.879 186.822 530 190L530 180L528 180M199 186C192.597 197.024 194 210.651 194 223C194 242.321 193 261.625 193 281L194 281C211.665 255.922 242.939 249.185 267 233L199 186M521 191L497 227L488.306 242L499 254.985L535 288C527.348 268.271 523.142 247.31 525.17 226C526.289 214.239 532.06 198.884 521 191M535 195L536 196L535 195M167 295L168 296L167 295z"/>
</svg>
