<?xml version="1.0" standalone="no"?>
<!DOCTYPE svg PUBLIC "-//W3C//DTD SVG 20010904//EN"
 "http://www.w3.org/TR/2001/REC-SVG-20010904/DTD/svg10.dtd">
<svg version="1.0" xmlns="http://www.w3.org/2000/svg"
 width="603.000000pt" height="371.000000pt" viewBox="0 0 603.000000 371.000000"
 preserveAspectRatio="xMidYMid meet">
<metadata>
Created by potrace 1.16, written by Peter Selinger 2001-2019
</metadata>
<g transform="translate(0.000000,371.000000) scale(0.100000,-0.100000)"
fill="#000000" stroke="none">
<path d="M1351 2499 c-568 -479 -1031 -875 -1029 -879 6 -17 758 -544 1095
-768 202 -134 300 -194 355 -216 33 -14 38 -14 52 0 9 8 16 20 16 26 0 5 -60
69 -133 142 -114 112 -139 142 -170 206 -50 102 -67 175 -74 310 -13 277 83
621 293 1045 46 94 94 187 106 207 l23 37 -2 -910 c-2 -604 1 -917 8 -930 14
-27 38 -23 50 9 31 77 43 98 89 146 97 103 316 240 577 362 l138 64 987 0 988
0 0 -450 0 -450 25 0 25 0 0 450 0 450 35 0 c41 0 42 -2 13 -43 l-22 -31 154
-149 c243 -234 480 -456 533 -498 47 -37 70 -41 81 -13 3 8 -25 51 -66 101
-138 171 -178 295 -185 574 -5 161 8 383 22 398 3 2 37 -27 77 -64 88 -82 113
-99 133 -91 29 11 15 44 -50 122 -36 44 -80 108 -97 143 l-32 64 17 84 c10 46
39 151 66 233 27 83 48 150 46 150 -1 0 -39 -56 -85 -125 -45 -68 -86 -122
-91 -119 -15 9 -10 351 7 479 26 197 79 430 139 604 14 41 23 76 21 78 -2 2
-134 -196 -295 -439 l-292 -443 -64 3 -65 4 0 56 c1 56 6 66 224 442 l222 385
-75 7 c-42 3 -247 10 -456 14 -393 7 -425 5 -425 -32 0 -8 19 -23 43 -33 73
-31 142 -122 235 -306 107 -214 182 -413 182 -482 l0 -53 -999 0 -1000 0 -338
236 c-186 130 -342 240 -346 244 -10 8 135 228 261 398 51 67 90 122 88 122
-2 0 -468 -392 -1035 -871z m3716 712 l61 -6 -165 -285 c-90 -157 -176 -305
-190 -329 l-25 -43 -43 108 c-95 243 -194 429 -279 521 l-51 56 315 -8 c173
-4 343 -10 377 -14z m-3014 -223 c-65 -103 -65 -103 -97 -83 l-26 17 83 69
c45 38 83 69 84 69 2 0 -18 -33 -44 -72z m3262 -179 c-43 -207 -58 -343 -58
-529 0 -96 5 -198 10 -225 9 -48 7 -53 -27 -108 l-37 -58 -167 162 c-92 89
-166 167 -164 174 4 16 461 706 464 702 2 -2 -7 -55 -21 -118z m-3420 -1 c-6
-75 -12 -92 -58 -173 -84 -151 -215 -423 -268 -560 -167 -427 -202 -771 -106
-1026 35 -93 68 -142 161 -238 l81 -83 -60 37 c-293 184 -1238 841 -1238 860
-1 9 1480 1265 1491 1265 2 0 1 -37 -3 -82z m465 -248 c168 -117 306 -214 307
-214 1 -1 -80 -43 -180 -93 -181 -91 -358 -199 -433 -264 -73 -64 -71 -63 -99
-45 -25 16 -25 19 -25 150 0 73 3 241 7 374 l6 242 29 50 29 51 27 -19 c15
-10 164 -115 332 -232z m2360 -700 l0 -460 -993 0 -994 0 -352 246 -352 247
26 27 c76 79 312 223 545 332 l145 68 988 0 987 0 0 -460z m140 453 c0 -3 -14
-29 -32 -56 l-32 -50 40 -35 c49 -43 334 -324 334 -329 0 -2 -66 -102 -147
-223 l-146 -220 -54 0 -53 0 0 460 0 460 45 0 c25 0 45 -3 45 -7z m446 -427
c3 -19 2 -47 -3 -61 l-8 -26 -27 28 -27 28 20 33 c27 41 37 40 45 -2z m-3003
-247 c166 -117 317 -223 336 -237 l33 -25 -189 -96 c-231 -117 -395 -225 -485
-319 l-68 -70 1 241 c1 418 12 636 34 680 10 20 22 37 27 37 5 0 144 -95 311
-211z m2970 -4 c-21 -147 -21 -439 0 -546 18 -92 54 -204 82 -260 20 -38 21
-40 -310 279 l-179 172 18 35 c11 19 23 35 28 35 4 0 8 4 8 9 0 6 66 110 146
232 l146 221 38 -38 38 -39 -15 -100z m91 119 c3 -8 2 -12 -4 -9 -6 3 -10 10
-10 16 0 14 7 11 14 -7z"/>
</g>
</svg>
