<?xml version="1.0" standalone="no"?>
<!DOCTYPE svg PUBLIC "-//W3C//DTD SVG 20010904//EN"
 "http://www.w3.org/TR/2001/REC-SVG-20010904/DTD/svg10.dtd">
<svg version="1.0" xmlns="http://www.w3.org/2000/svg"
 width="911.000000pt" height="371.000000pt" viewBox="0 0 911.000000 371.000000"
 preserveAspectRatio="xMidYMid meet">
<metadata>
Created by potrace 1.16, written by Peter Selinger 2001-2019
</metadata>
<g transform="translate(0.000000,371.000000) scale(0.100000,-0.100000)"
fill="#000000" stroke="none">
<path d="M7343 3223 c-307 -229 -570 -423 -584 -432 -15 -9 -69 -49 -120 -90
-52 -40 -102 -79 -111 -85 -9 -7 -16 -19 -15 -27 1 -8 -221 -225 -493 -482
l-495 -466 -604 -1 -604 0 -203 152 c-112 84 -204 156 -204 159 0 23 192 154
332 226 l73 38 655 5 655 5 3 23 3 22 -649 0 -649 0 -186 140 c-103 77 -187
142 -187 145 0 12 142 102 252 160 l125 65 646 0 647 0 0 25 0 25 -650 0 -651
0 -250 186 c-137 103 -252 185 -254 183 -2 -3 -7 -89 -11 -192 l-7 -187 -634
0 -634 0 -160 120 -160 121 18 30 c15 25 83 117 212 288 18 24 -24 -3 -137
-90 -89 -68 -171 -130 -180 -136 -15 -11 -25 -8 -60 18 l-41 30 -3 -65 -3 -65
-880 -672 c-484 -369 -881 -674 -882 -677 -1 -4 15 -19 37 -34 21 -15 179
-124 352 -244 644 -447 1253 -848 1351 -889 30 -12 37 -12 53 0 18 13 18 16 2
44 -15 27 -15 29 1 34 10 2 21 18 24 36 14 69 166 189 370 292 l99 49 624 0
624 0 2 -177 c3 -175 3 -178 25 -181 18 -3 24 4 32 36 21 75 150 179 364 291
l97 51 650 0 650 0 0 25 0 25 -650 0 -650 0 -185 138 c-101 75 -184 140 -185
143 0 13 157 114 266 170 l114 59 593 0 594 0 224 -161 c241 -174 493 -345
549 -374 19 -10 175 -116 345 -235 345 -242 662 -453 743 -495 42 -22 55 -25
67 -15 8 7 15 19 15 26 0 8 -42 55 -94 105 -106 102 -149 171 -171 276 -29
134 -11 302 51 493 72 223 240 562 282 568 22 3 22 1 22 -126 0 -103 3 -132
15 -142 18 -15 45 2 45 30 0 40 137 162 260 231 20 11 111 15 455 19 l430 5 3
23 3 22 -425 0 -426 0 -115 101 c-71 62 -113 105 -108 112 4 7 39 55 78 107
39 52 75 102 80 109 5 8 -44 -29 -108 -82 l-116 -97 -30 26 -31 26 0 -50 c0
-34 -5 -54 -16 -63 -15 -12 -23 -7 -66 40 -95 103 -133 215 -132 381 3 300
197 728 506 1117 32 40 56 73 54 73 -3 0 -256 -187 -563 -417z m255 71 c-176
-281 -289 -580 -305 -809 -10 -154 31 -304 111 -409 21 -26 32 -45 24 -40 -37
22 -398 264 -575 386 l-203 139 58 84 57 85 444 330 c244 181 445 330 447 330
1 0 -24 -43 -58 -96z m-5410 -183 c-8 -12 -18 -18 -21 -14 -4 3 0 15 10 25 21
24 29 15 11 -11z m1889 -157 l196 -146 -93 -50 c-76 -40 -181 -108 -255 -162
-7 -5 -22 -2 -38 9 l-27 17 0 133 c0 143 10 345 18 345 2 0 92 -66 199 -146z
m-1941 102 c3 -7 -9 -35 -25 -62 l-31 -48 0 50 c0 50 12 74 37 74 8 0 16 -6
19 -14z m205 -152 l141 -106 -109 -60 c-59 -33 -139 -82 -177 -110 -67 -49
-71 -50 -95 -35 -25 15 -26 20 -29 127 l-3 112 57 89 c30 49 60 89 65 89 5 0
73 -48 150 -106z m-319 19 c-4 -73 -8 -84 -57 -168 -132 -223 -286 -567 -350
-778 -56 -185 -76 -303 -82 -482 -4 -146 -2 -184 15 -267 44 -213 139 -366
327 -528 49 -42 49 -42 10 -19 -203 116 -1537 1025 -1532 1043 3 9 1658 1275
1667 1276 3 0 4 -35 2 -77z m1788 -408 l0 -255 -632 0 -633 0 -188 140 c-103
77 -186 144 -183 149 11 17 156 108 261 163 l110 58 633 0 632 0 0 -255z
m-1787 -827 l2 -1046 -50 41 c-27 23 -95 87 -151 142 -83 83 -108 116 -146
190 -77 149 -93 227 -92 440 0 157 4 197 27 309 53 248 166 539 323 831 43 79
79 143 81 141 2 -2 5 -474 6 -1048z m4551 850 c-84 -136 -161 -274 -224 -403
-133 -272 -197 -473 -207 -650 -8 -137 11 -215 72 -310 23 -34 -36 4 -391 258
-165 118 -210 155 -206 169 2 10 0 24 -6 31 -7 9 114 128 471 465 265 248 485
452 490 452 4 0 5 -5 1 -12z m568 -374 c169 -114 305 -210 303 -214 -3 -4 -36
-33 -73 -64 l-69 -56 -291 0 -291 0 -158 137 c-87 75 -160 138 -163 140 -7 6
76 166 155 300 l66 112 107 -74 c59 -41 245 -168 414 -281z m-3043 217 l172
-129 -103 -57 c-126 -71 -209 -126 -266 -179 l-44 -40 4 234 c3 227 4 236 26
268 13 17 27 32 31 32 4 0 85 -58 180 -129z m-1793 -6 c93 -69 170 -129 171
-133 1 -4 -26 -20 -59 -37 -94 -46 -227 -131 -290 -186 l-58 -50 1 173 c0 95
3 203 7 239 7 62 32 119 51 119 5 0 85 -56 177 -125z m1504 -287 c0 -68 -3
-201 -7 -295 l-6 -173 -631 0 -631 0 -207 155 c-115 85 -208 158 -208 163 0
11 111 100 169 136 24 15 89 52 145 82 l101 54 638 0 637 0 0 -122z m2553
-300 c-4 -224 -3 -266 10 -283 13 -16 17 -17 31 -6 9 7 16 21 16 31 0 31 92
121 184 182 49 32 98 61 110 63 11 3 134 4 272 3 l251 -3 -426 -351 -426 -351
-68 71 c-37 39 -80 95 -94 125 -49 103 -41 278 23 485 24 76 112 296 119 296
2 0 1 -118 -2 -262z m182 127 c133 -114 126 -97 59 -140 -33 -21 -90 -62 -128
-93 l-69 -56 6 139 c4 76 7 165 7 198 l0 60 23 -19 c12 -11 58 -51 102 -89z
m1198 4 c45 -40 88 -77 95 -84 11 -10 -2 -23 -70 -68 -46 -30 -102 -73 -125
-95 l-43 -39 0 96 c0 109 6 141 26 141 23 0 28 28 10 55 -13 19 -14 30 -6 45
6 11 15 20 21 20 6 0 47 -32 92 -71z m-220 -6 c3 -5 -6 -25 -19 -45 -22 -35
-28 -38 -71 -38 -51 0 -51 0 17 54 44 35 65 43 73 29z m-3451 -154 l189 -142
-113 -62 c-62 -35 -143 -85 -179 -112 l-67 -50 -27 22 -28 21 6 205 c6 192 12
259 25 259 3 0 90 -64 194 -141z m-1779 -22 c103 -76 187 -140 187 -142 0 -2
-39 -24 -87 -50 -88 -48 -175 -103 -236 -149 l-33 -25 -28 23 -29 22 8 237 c5
173 10 235 19 230 6 -3 95 -69 199 -146z m5111 -39 c-139 -255 -236 -516 -265
-707 -6 -46 -9 -126 -6 -179 7 -143 35 -220 124 -341 19 -27 -32 5 -272 169
-348 238 -565 394 -558 401 4 4 208 172 452 373 l445 366 62 0 63 0 -45 -82z
m-3604 -388 l0 -250 -630 0 -630 0 -185 139 -184 138 22 20 c40 36 114 82 229
143 l113 60 633 0 632 0 0 -250z m289 -120 c93 -69 170 -127 170 -130 1 -3
-36 -24 -82 -47 -101 -52 -217 -127 -279 -183 l-48 -42 0 204 c0 111 4 220 9
241 10 43 38 90 51 85 5 -2 86 -59 179 -128z m-1781 -21 l175 -131 -79 -43
c-125 -68 -224 -135 -283 -190 l-54 -50 6 238 c6 228 7 241 29 273 13 19 25
34 27 34 2 0 83 -59 179 -131z"/>
</g>
</svg>
