<?xml version="1.0" standalone="yes"?>
<svg xmlns="http://www.w3.org/2000/svg" width="911" height="371">
<!-- <path style="fill:#ffffff; stroke:none;" d="M0 0L0 371L911 371L911 0L0 0z"/>
--><path style="fill:#000000; stroke:none;" d="M790 6L699 73.8843L650 110L652 113C623.808 132.781 600.821 161.511 575 184.285C567.547 190.859 559.513 202.893 550 206.397C541.51 209.524 528.02 207 519 207L458 207C445.83 207 435.161 208.727 425 201.127L401 183.127C398.718 181.413 393.181 178.555 394.207 175C395.112 171.862 399.54 169.309 402 167.478C410.353 161.261 419.657 156.302 429 151.757C440.855 145.99 458.038 149 471 149L563 149L563 143L475 143L434 142.487L397 117C412.567 95.9109 440.389 93 464 93L563 93L563 88L475 88C462.942 88 446.568 90.904 435 87.4869C415.068 81.5992 401.195 58.1145 382 50L381 89L295 89L256 88.436L223 66L248 30C234.779 33.6014 225.314 52.7729 212 54.5494C208.968 54.9539 205.692 52.1281 203 51C203 70.6922 175.618 83.615 161 94.6258C131.553 116.806 102.202 139.15 73 161.651C57.2856 173.759 41.8175 187.492 25 198L25 200C40.7461 208.775 55.156 220.743 70 230.975C99.4901 251.3 128.883 271.91 159 291.308C170.832 298.929 182.589 307.027 195 313.691C200.672 316.736 209.806 318.176 205 309C209.692 305.819 211.744 299.163 216.004 295.039C225.782 285.573 240.079 276.456 253 271.966C264.353 268.021 281.028 271 293 271L379 271L380 306C387.337 305.43 389.646 296.017 395.004 291.439C405.572 282.41 420.342 272.108 434 268.61C446.647 265.37 462.958 268 476 268L562 268L562 263L474 263L434 262.436L396 236C415.524 210.701 447.879 213 476 213L527 213C534.41 213 543.85 211.449 551 213.51C563.549 217.127 576.275 230.963 587 238.341C614.228 257.072 642.073 274.683 669 293.859C686.378 306.234 703.983 318.514 722 329.947C727.076 333.168 736.454 341.386 742.852 340.494C747.799 339.804 744.646 334.128 742.852 332C735.131 322.843 725.773 316.823 721.547 305C711.488 276.857 725.771 243.132 738.248 218C741.831 210.783 746.862 195.539 755 193C755 197.437 752.446 218.726 757.263 220.248C760.962 221.417 763.685 213.199 765.479 211.039C771.523 203.764 782.039 196.158 791 192.969C798.869 190.169 809.724 192 818 192L876 192L876 186L818 186L792 185.4L769 168L786 142C776.059 147.719 768.007 161.828 756 157C755.932 176.177 741.607 155.809 738.453 148C732.899 134.249 734.358 118.084 737.895 104C744.194 78.9192 757.32 55.291 771.67 34C776.052 27.4982 791.039 13.7424 790 6z"/>
<path style="fill:#ffffff; stroke:none;" d="M763 34C738.711 51.448 714.926 69.6823 691 87.6266C683.161 93.5061 668.779 102.064 667.312 112.96C666.558 118.569 679.998 124.993 684 127.667C701.887 139.619 720.742 157.583 741 165C720.802 132.24 730.727 97.8072 746.32 65C750.722 55.7391 761.826 43.9764 763 34M217 60L218 61L217 60M387 61C387 73.3868 385.999 85.648 386 98C386 101.955 385.051 109.014 390.059 110.518C393.847 111.655 398.174 106.958 401 105.029C408.831 99.6805 417.238 94.6479 426 91C417.24 79.5796 399.502 68.1233 387 61M211 64L208 75L209 75L214 67L214 66L211 64M218 70C212.293 82.0634 198.338 100.967 212 113L213 113C222.873 104.458 234.937 97.0238 247 92L247 90L218 70M201 72C166.994 96.4272 134.49 122.999 101 148.127C79.459 164.289 53.8369 179.791 35 199L125 261.025L188 302L188 301C133.891 259.774 152.057 186.817 176.309 134C182.252 121.057 188.89 108.418 195.861 96C200.005 88.6185 204.634 80.6613 201 72M218 116L218 117C227.566 125.278 241.922 139.531 254 143.436C265.287 147.085 282.142 144 294 144L381 144L381 94L295 94C282.758 94 266.795 91.2896 255 94.6373C242.038 98.3161 228.423 107.734 218 116M201 98C176.19 151.138 132.294 224.832 175.236 281C182.398 290.368 192.368 299.222 202 306L201.039 167L201.015 118L201 98M656 117C630.601 137.684 608.569 162.616 584 184.285C578.357 189.263 560.576 201.634 562.037 209.91C563.076 215.793 571.619 219.661 576 222.884C590.519 233.568 605.234 245.223 621 254C604.787 219.109 621.79 181.907 638.258 150C643.138 140.545 654.954 127.442 656 117M391 120C382.821 134.331 386 155.879 386 172L426 146L426 145L391 120M662 120C656.186 129.498 650.259 139.048 645.248 149C643.78 151.915 640.375 156.485 641.418 159.91C643.091 165.402 652.759 170.952 657 174.579C661.492 178.421 666.324 184.375 672 186.4C683.697 190.574 702.576 187 715 187C719.946 187 726.302 188.031 731 186.258C736.157 184.313 740.597 179.264 745 176L711 152.975L662 120M213 121C203.141 133.04 207 158.955 207 174L208 174C216.221 162.832 233.822 152.17 247 148C241.386 137.583 223.019 127.239 213 121M212 178L254 208.272L293 209L380 209C380 190.384 376.686 168.119 381 150L293 150C281.019 150 266.715 147.858 255 150.39C241.174 153.379 220.168 166.644 212 178M636 167L637 168L636 167M635 169C627.057 192.334 610.905 221.293 623.377 246C626.767 252.715 632.759 257.759 638 263L639 263L723 194L723 193C699.964 193 675.356 188.459 656 202.896C649.607 207.664 646.379 212.603 641.792 218.833C640.798 220.182 639.234 221.571 637.585 220.248C634.643 217.889 636 210.312 636 207C636 196.104 639.208 179.027 635 169M642 170L642 207L665 191C661.117 182.845 649.753 174.481 642 170M765 172L764.121 181.791L761.147 188.104L760 207L784 189L784 188L765 172M741 187C746.875 186.931 749.57 185.46 752 180L751 179L741 187M387 182C385.507 193.811 384.999 206.087 385 218C385 221.784 384.012 228.615 389.059 229.758C392.775 230.601 397.157 226.232 400 224.333C407.933 219.036 416.221 213.783 425 210C417.51 200.235 398.692 185.878 387 182M209 183C205.67 194.267 207.281 210.172 207.015 222C206.93 225.775 206.912 231.66 212.019 232.122C215.564 232.442 219.277 228.514 222 226.671C230.059 221.216 238.623 216.889 247 212C238.054 201.01 221.313 190.016 209 183M643 267L643 268C668.992 287.979 697.349 309.049 726 325C721.743 318.102 717.102 311.962 714.921 304C703.72 263.129 730.933 228.906 744 193C728.515 193 719.467 203.775 708 213.25C686.349 231.14 664.157 248.531 643 267M218 236L218 238C228.877 245.813 242.134 260.686 255 264.487C266.289 267.822 282.235 265 294 265L380 265L379 215L294 215L254 215.637L218 236M385 292L386 292C394.934 280.319 411.608 271.576 425 266L425 264C416.618 258.78 408.902 252.296 401 246.373C398.482 244.486 394.575 240.356 391.105 240.907C385.65 241.772 386.088 250.073 385.985 254C385.654 266.663 385 279.276 385 292M212 242C203.823 255.016 207 278.886 207 294L248 267C236.993 259.093 224.9 246.279 212 242z"/>
</svg>
