<?xml version="1.0" standalone="no"?>
<!DOCTYPE svg PUBLIC "-//W3C//DTD SVG 20010904//EN"
 "http://www.w3.org/TR/2001/REC-SVG-20010904/DTD/svg10.dtd">
<svg version="1.0" xmlns="http://www.w3.org/2000/svg"
 width="444.000000pt" height="371.000000pt" viewBox="0 0 444.000000 371.000000"
 preserveAspectRatio="xMidYMid meet">
<metadata>
Created by potrace 1.16, written by Peter Selinger 2001-2019
</metadata>
<g transform="translate(0.000000,371.000000) scale(0.100000,-0.100000)"
fill="#000000" stroke="none">
<path d="M1575 2486 c-600 -458 -1090 -838 -1090 -844 0 -25 1300 -912 1596
-1090 153 -92 199 -105 199 -58 0 23 -62 87 -203 210 -121 106 -213 252 -252
401 -23 85 -41 294 -29 334 l9 33 25 -20 c56 -43 823 -567 1073 -733 456 -303
564 -360 575 -305 5 22 -61 92 -186 198 -141 120 -231 263 -274 435 -19 75
-23 114 -22 258 0 145 5 189 28 299 93 442 385 1027 760 1519 53 71 89 124 79
118 -10 -6 -470 -356 -1023 -779 -553 -423 -1006 -768 -1008 -766 -5 3 34 149
62 235 124 379 401 887 692 1267 52 67 91 122 87 121 -5 0 -498 -375 -1098
-833z m797 502 c-277 -410 -504 -897 -583 -1245 -22 -99 -24 -103 -66 -133
-23 -17 -45 -35 -47 -39 -3 -5 12 -20 33 -34 l39 -26 -6 -90 c-9 -163 30 -365
95 -496 43 -86 109 -170 200 -255 109 -102 99 -97 -272 148 -539 355 -1210
821 -1198 832 16 15 1846 1410 1850 1410 2 0 -18 -33 -45 -72z m1241 -10 c-4
-7 -38 -58 -74 -113 -287 -437 -487 -879 -566 -1250 -24 -115 -27 -152 -27
-315 -1 -211 14 -289 83 -435 59 -124 121 -199 271 -329 41 -35 42 -37 11 -20
-64 35 -845 558 -1178 788 l-331 230 5 35 c3 20 11 42 18 50 13 13 1787 1370
1793 1371 2 0 -1 -6 -5 -12z"/>
</g>
</svg>
