<?xml version="1.0" standalone="yes"?>
<svg xmlns="http://www.w3.org/2000/svg" width="444" height="371">
<!-- <path style="fill:#ffffff; stroke:none;" d="M0 0L0 371L444 371L444 0L0 0z"/>
--><path style="fill:#000000; stroke:none;" d="M47 208C92.4797 238.686 137.278 270.336 183 300.667C193.759 307.805 204.56 315.198 216 321.219C218.761 322.672 225.577 327.011 227.863 322.678C229.523 319.532 225.879 316.031 223.956 314.004C218.428 308.174 211.798 303.506 206 297.961C184.66 277.548 180 253.304 180 225C220.635 248.148 257.786 279.056 297 304.656C311.063 313.837 330.671 331.845 348 332C347.591 319.379 331.109 311.198 323.015 302.996C310.557 290.373 303.182 274.417 300.439 257C291.587 200.786 326.187 137.226 356.003 92C366.282 76.4093 380.573 61.5085 389 45L366 61.3488L327 91.1157L184 200C192.348 159.554 212.931 120.336 235.344 86C245.929 69.7844 259.464 54.737 269 38C251.373 43.9438 233.85 63.4408 219 74.6258C180.486 103.635 142.55 133.414 104 162.373C90.9262 172.195 78.0786 182.313 65 192.127C58.9598 196.659 50.4755 201.14 47 208z"/>
<path style="fill:#ffffff; stroke:none;" d="M240 66L57 206L57 207L150 271.333L208 309C193.167 289.605 178.572 276.775 175 251C173.564 240.637 178.49 220.505 167 216L176.486 204.961L186.344 170L212.78 112L230.667 82L240 66M359 74C316.75 110.561 269.638 143.004 225 176.626C213.956 184.944 202.882 193.26 192 201.79C187.95 204.965 181.562 208.196 181.248 214C180.987 218.813 185.604 221.017 189 223.424C197.599 229.521 206.394 235.339 215 241.424C251.61 267.314 288.758 295.235 328 317C318.675 304.035 306.74 295.52 300.453 280C281.522 233.268 303.14 177.186 324.247 135C331.638 120.228 340.099 106.025 348.808 92C351.983 86.8862 358.8 80.1001 359 74M329 317L330 318L329 317z"/>
</svg>
