<?xml version="1.0" standalone="yes"?>
<svg xmlns="http://www.w3.org/2000/svg" width="326" height="371">
<!-- <path style="fill:#ffffff; stroke:none;" d="M0 0L0 371L326 371L326 0L0 0z"/>
--><path style="fill:#000000; stroke:none;" d="M137 107C142.654 87.077 152.133 69.113 163.67 52C168.733 44.4897 175.861 38.0215 180 30L135 56.1998L43 112C52.0917 123.001 69.1097 131.073 81 139C97.9547 150.303 114.871 161.659 132 172.692C140.642 178.258 149.299 185.448 159 189L159 191L120 213.6L44 260L44 261C76.0945 282.832 108.023 305.32 141 325.808C148.657 330.565 156.074 335.823 164 340.134C166.223 341.343 171.852 344.551 173.338 340.678C174.59 337.416 171.114 334.454 168.981 332.615C162.584 327.102 155.843 322.253 150.093 316C135.546 300.181 135.14 282.025 136 262C165.39 284.59 197.845 304.241 229 324.308C236.232 328.966 243.457 333.816 251 337.96C253.163 339.148 257.817 341.878 259.953 339.218C263.682 334.573 252.729 327.784 250 325.6C235.24 313.786 224.108 299.376 222.171 280C219.356 251.849 234.586 221.332 250.348 199.005C253.385 194.702 257.221 195.365 260.379 192.312C262.318 190.437 261.145 187.321 261.968 185C263.255 181.372 266.419 178.547 268 175C264.292 176.598 259.153 181.21 255 180.562C250.698 179.892 246.047 174.748 243 171.91C232.643 162.264 225.632 150.042 223.439 136C218.866 106.719 235.083 75.3446 251.029 52C256.601 43.8422 264.486 36.7475 269 28L226 53.1891L137 107z"/>
<path style="fill:#ffffff; stroke:none;" d="M244 49L174 91.8002L143 112L232 171C228.627 162.981 222.962 156.417 220.079 148C213.975 130.181 217.138 109.334 223.436 92C226.936 82.3657 231.338 72.8981 236.427 64C238.973 59.5495 243.845 54.1931 244 49M155 51C123.144 72.0789 88.5896 95.8315 54 112L80 130.859L144 173C140.248 166.261 135.364 160.322 132.695 153C124.375 130.174 129.381 106.856 138.201 85C142.086 75.3711 155.019 60.9188 155 51M135 114C134.523 137.121 135.256 155.592 153.001 172.985C156.491 176.407 162.724 183.658 168 183.787C172.307 183.893 176.995 179.466 181 178C176.837 182.769 175.584 189.073 172.09 193.401C170.316 195.598 166.998 195.83 165.04 198.148C152.037 213.544 144.15 234.099 138 253L167 236.2L247 188L247 187C206.904 168.032 174.959 132.903 135 114M142 258L142 259L200 298L232 318C226.36 309.437 221.241 302.025 218.428 292C208.839 257.827 228.131 225.612 244 197L203 220.95L142 258M157 198L86 241.4L55 261L110 298L144 320C140.905 312.642 135.619 306.719 133.004 299C125.67 277.35 130.216 254.706 138.604 234C143.033 223.066 155.676 209.177 157 198z"/>
</svg>
