<?xml version="1.0" standalone="yes"?>
<svg xmlns="http://www.w3.org/2000/svg" width="405" height="371">
<!-- <path style="fill:#ffffff; stroke:none;" d="M0 0L0 371L405 371L405 0L0 0z"/>
--><path style="fill:#000000; stroke:none;" d="M25 136L25 137L96 184.344L133 208L133 209L83 237C91.7431 247.739 107.525 255.016 119 262.667C143.944 279.296 168.798 296.075 194 312.308C202.848 318.007 211.772 323.894 221 328.96C223.349 330.25 229.099 333.224 230.248 328.838C231.145 325.416 227.194 322.628 224.995 320.754C217.672 314.509 209.653 309.192 203.171 302C187.88 285.037 183.196 264.183 186 242C220.677 266.836 256.77 290.684 293 313.192C301.31 318.355 309.37 324.061 318 328.691C320.284 329.916 326.031 333.413 327.824 329.667C329.874 325.384 321.658 319.954 319 317.805C307.938 308.858 296.897 299.909 290.259 287C275.666 258.617 285.63 229.346 297 202C309.803 211.769 324.189 220.315 338 228.6C340.435 230.061 351.401 237.683 353.029 231.686C354.156 227.537 347.579 223.564 345 221.414C335.634 213.605 326.467 205.798 320.44 195C317.543 189.811 312.881 180.045 314.767 174C317.403 165.553 326.544 160.162 330 152L313 161C315.186 133.3 327.898 106.909 343.003 84C349.362 74.3552 359.245 65.3812 364 55L321 81.3079L228 140C234.621 120.6 240.455 102.622 251.425 85C257.906 74.5896 270.116 64.429 274 53L220 83.7191L129 136C135.995 102.11 156.572 78.8593 175 51C157.393 55.0287 138.607 70.5176 123 79.5756C90.5463 98.4109 56.3197 115.341 25 136z"/>
<path style="fill:#ffffff; stroke:none;" d="M151 70L68 118.15L36 137L103 181.667L140 205C135.373 196.877 129.432 189.868 126.066 181C116.781 156.539 122.281 130.383 132.012 107C135.428 98.7903 139.608 90.6099 144.204 83C146.576 79.0719 150.847 74.6618 151 70M250 73L136 139C146.821 149.363 161.542 157.028 174 165.333C178.353 168.235 184.648 174.402 190 174.88C194.072 175.243 198.647 171.191 202 169.281C210.479 164.45 227.911 158.271 217 147C223.711 144.189 223.215 135.326 224.884 129C228.485 115.353 234.431 102.23 241.427 90C244.116 85.2997 250.472 78.4788 250 73M339 77L229 147L229 149L264 172.667L278 180.838L291 174.421L305.976 164.671L309.662 144L322.258 108L339 77M128 142C125.185 157.165 127.69 174.565 135.465 188C137.623 191.73 141.255 199.299 146.015 200.003C149.633 200.539 154.036 196.843 157 195.15C165.913 190.063 174.703 184.34 184 180L163 164.667L128 142M271 186L271 184C260.598 178.203 250.921 170.614 241 164C238.348 162.232 232.8 156.921 229.318 158.306C225.436 159.849 227.428 167.076 227.921 170C229.326 178.338 233.886 195.811 242.326 199.867C248.337 202.757 265.623 189.171 271 186M221 167C217.145 171.456 208.977 179.654 208.817 185.907C208.733 189.22 212.639 190.931 215.001 192.424C221.638 196.62 229.912 205.025 238 205L221 167M208 172L196 180C202.093 183.641 208.642 179.447 208 172M306 172L284 185L295 193L306 172M308 182L300 197L325 213L308 182M151 205C154.221 211.61 161.686 215.291 166.995 220.171C168.745 221.779 172.636 224.838 171.654 227.667C169.869 232.81 158.297 224.121 156 222.681C151.314 219.743 144.717 213.709 139 213.488C134.25 213.305 128.939 217.736 125 220C115.102 225.688 105.34 232.172 95 237C99.7557 246.308 115.411 252.941 124 258.667C148.71 275.14 173.054 293.555 199 308C195.052 300.266 188.94 294.048 185.312 286C177.32 268.272 177.489 247.474 182.71 229C185.755 218.226 189.753 208.019 194.753 198C196.588 194.324 199.533 190.196 195.809 186.765C190.634 181.999 186.172 184.9 181 187.85C171.004 193.551 161.18 199.638 151 205M248 206L248 207C251.193 210.055 254.55 212.839 258 215.6C260.341 217.474 262.693 219.334 264.999 221.25C269.082 224.642 275.421 235.558 265 230.657C257.171 226.975 243.615 213.083 235 213.927C230.307 214.386 225.018 218.857 221 221.15C211.318 226.677 201.307 231.861 192 238L238 269.667L297 308C291.085 299.048 284.774 291.237 281.054 281C270.73 252.592 281.184 224.365 292 198C287.784 195.653 282.872 190.657 278 190.093C270.033 189.169 254.349 201.466 248 206M204 193C196.447 204.453 189.844 219.32 188 233L229 210L229 208L204 193z"/>
</svg>
