<?xml version="1.0" standalone="no"?>
<!DOCTYPE svg PUBLIC "-//W3C//DTD SVG 20010904//EN"
 "http://www.w3.org/TR/2001/REC-SVG-20010904/DTD/svg10.dtd">
<svg version="1.0" xmlns="http://www.w3.org/2000/svg"
 width="405.000000pt" height="371.000000pt" viewBox="0 0 405.000000 371.000000"
 preserveAspectRatio="xMidYMid meet">
<metadata>
Created by potrace 1.16, written by Peter Selinger 2001-2019
</metadata>
<g transform="translate(0.000000,371.000000) scale(0.100000,-0.100000)"
fill="#000000" stroke="none">
<path d="M2016 3024 c-356 -218 -650 -394 -652 -392 -1 2 12 49 31 105 63 189
186 405 329 581 36 45 64 82 61 82 -16 0 -1344 -813 -1340 -820 7 -11 803
-544 998 -668 l159 -101 -54 -34 c-29 -18 -282 -172 -563 -342 -280 -169 -516
-314 -523 -320 -11 -10 49 -55 320 -237 392 -265 731 -486 847 -553 75 -44 83
-47 98 -32 23 23 12 39 -74 108 -234 188 -309 329 -301 571 2 58 6 109 9 112
3 3 217 -135 475 -307 557 -372 715 -470 746 -465 47 6 31 35 -59 110 -234
193 -302 318 -303 550 l0 96 408 -272 c620 -415 789 -520 818 -509 39 15 5 57
-133 168 -290 230 -321 581 -90 1028 33 65 86 155 116 200 45 65 61 82 81 82
21 0 25 5 25 31 0 23 12 47 44 84 47 55 42 55 -42 3 -21 -13 -46 -21 -55 -18
-9 3 -53 36 -97 73 -274 233 -307 558 -100 987 62 129 163 286 259 403 38 46
60 79 50 74 -11 -6 -296 -179 -634 -385 -338 -205 -616 -370 -618 -366 -6 15
60 197 108 294 61 123 171 295 257 398 36 42 61 77 56 76 -4 0 -300 -178 -657
-395z m405 136 c-94 -145 -188 -358 -221 -500 -7 -30 -19 -59 -27 -63 -7 -5
-10 -14 -6 -20 4 -7 8 -68 9 -137 2 -177 41 -294 140 -415 l46 -57 -54 35
c-259 166 -887 592 -881 598 13 13 1028 627 1031 624 2 -1 -15 -31 -37 -65z
m-857 33 c-127 -194 -220 -406 -259 -588 -19 -91 -19 -262 0 -344 21 -86 67
-180 121 -247 34 -41 39 -52 22 -43 -63 33 -908 604 -906 611 3 7 1022 634
1037 637 2 1 -5 -11 -15 -26z m1690 -54 c-60 -91 -156 -293 -188 -392 -96
-296 -67 -544 85 -736 23 -30 35 -50 28 -46 -60 33 -919 611 -917 617 3 8
1019 627 1030 628 4 0 -13 -32 -38 -71z m-920 -1215 c136 -87 138 -88 116
-104 -75 -50 -1066 -647 -1069 -644 -2 2 8 42 24 89 35 109 124 286 204 407
55 83 67 96 90 95 23 -2 26 2 26 31 0 22 10 45 31 70 50 60 48 64 -15 26 -33
-20 -64 -34 -70 -32 -5 1 -43 31 -85 65 -125 104 -200 216 -231 345 -15 64
-20 204 -9 269 l6 36 422 -282 c231 -155 483 -322 560 -371z m356 302 c240
-160 479 -318 533 -351 53 -33 97 -62 97 -65 -1 -13 -1075 -655 -1078 -644 -2
7 13 61 33 121 41 122 123 287 208 415 56 85 58 87 91 81 40 -6 56 19 31 47
-15 17 -14 21 12 51 16 19 35 43 43 53 14 18 14 19 -10 6 -14 -7 -42 -24 -62
-38 l-37 -24 -84 70 c-110 93 -171 177 -213 294 -32 91 -40 299 -11 281 6 -3
207 -137 447 -297z m-287 -553 c-104 -167 -188 -366 -223 -538 -7 -33 -13
-107 -13 -165 0 -162 38 -280 131 -402 l51 -68 -42 27 c-139 86 -896 597 -892
601 8 9 1030 630 1037 631 4 1 -18 -38 -49 -86z m-819 55 c-5 -7 -28 -44 -52
-81 -24 -38 -68 -119 -97 -180 -97 -202 -136 -351 -137 -517 -1 -165 45 -301
138 -416 31 -37 38 -52 24 -44 -12 6 -225 147 -472 312 -312 208 -446 303
-437 309 8 4 244 147 524 318 281 171 511 310 513 311 2 0 0 -6 -4 -12z m1710
-15 c-102 -153 -204 -373 -246 -531 -29 -110 -35 -288 -14 -384 21 -93 69
-196 127 -268 40 -51 41 -53 14 -36 -205 131 -904 603 -902 610 2 7 1023 633
1036 635 2 1 -5 -11 -15 -26z"/>
</g>
</svg>
