<?xml version="1.0" standalone="no"?>
<!DOCTYPE svg PUBLIC "-//W3C//DTD SVG 20010904//EN"
 "http://www.w3.org/TR/2001/REC-SVG-20010904/DTD/svg10.dtd">
<svg version="1.0" xmlns="http://www.w3.org/2000/svg"
 width="590.000000pt" height="371.000000pt" viewBox="0 0 590.000000 371.000000"
 preserveAspectRatio="xMidYMid meet">
<metadata>
Created by potrace 1.16, written by Peter Selinger 2001-2019
</metadata>
<g transform="translate(0.000000,371.000000) scale(0.100000,-0.100000)"
fill="#000000" stroke="none">
<path d="M3837 2839 c-346 -220 -630 -399 -632 -399 -9 0 37 106 96 221 70
137 172 294 262 405 36 43 64 80 63 82 -2 1 -304 -189 -672 -422 -368 -234
-670 -421 -672 -417 -6 17 38 167 73 257 70 173 198 385 320 528 36 42 63 76
61 76 -3 0 -321 -182 -708 -403 -387 -222 -713 -409 -725 -415 l-21 -12 13 58
c51 217 203 505 379 716 36 43 66 81 66 83 0 3 -15 -4 -32 -15 -18 -11 -348
-201 -733 -422 -385 -221 -704 -405 -708 -409 -5 -5 234 -171 532 -369 l540
-359 -250 -143 c-137 -79 -249 -145 -249 -149 0 -3 229 -158 508 -343 884
-587 938 -619 956 -572 9 22 -1 32 -141 146 -171 139 -258 261 -297 419 -18
74 -23 309 -6 309 6 0 205 -130 443 -288 849 -567 963 -635 979 -589 9 23 -4
37 -121 131 -65 51 -141 120 -170 152 -73 82 -136 216 -156 328 -8 49 -15 90
-15 92 0 1 217 -142 483 -320 539 -360 698 -459 730 -454 42 6 30 35 -40 94
-37 33 -104 95 -149 139 -133 132 -188 272 -182 467 l3 98 365 -246 c423 -285
723 -479 815 -530 54 -30 68 -34 81 -23 8 6 14 19 12 28 -2 8 -57 61 -123 116
-198 167 -263 287 -273 503 -5 133 8 228 50 362 33 106 151 360 167 360 5 0
88 -50 183 -112 213 -138 298 -184 321 -175 31 12 18 35 -50 94 -150 129 -228
215 -266 293 -58 119 -58 116 15 207 97 119 98 119 -59 15 l-23 -14 0 95 c0
173 48 348 154 562 67 137 189 329 272 430 84 102 82 100 59 87 -11 -6 -324
-204 -695 -440 -371 -236 -676 -428 -678 -427 -7 6 41 171 69 243 74 186 212
420 343 580 37 46 66 85 64 87 -1 1 -286 -177 -631 -396z m341 75 c-179 -297
-269 -582 -255 -808 3 -50 8 -98 12 -107 5 -12 -14 -29 -75 -68 -50 -32 -88
-50 -98 -46 -10 3 -147 95 -307 203 -288 196 -290 198 -288 231 1 19 7 38 15
42 7 5 249 158 538 342 289 184 526 333 527 332 2 -1 -29 -55 -69 -121z
m-2693 30 c-113 -171 -218 -417 -250 -586 -21 -110 -21 -279 1 -366 22 -90 81
-215 133 -279 31 -39 37 -53 25 -53 -20 0 -1035 672 -1031 683 2 8 1160 676
1165 672 1 -1 -18 -33 -43 -71z m3659 29 c-109 -165 -196 -338 -250 -500 -49
-144 -65 -239 -65 -373 l0 -115 -97 -61 -97 -61 -308 206 c-295 198 -306 207
-285 221 35 25 1113 709 1117 710 2 0 -5 -12 -15 -27z m-2668 -65 c-110 -170
-198 -373 -236 -543 -14 -64 -29 -106 -41 -116 -16 -15 -17 -18 -4 -29 9 -7
15 -30 15 -55 l0 -43 -151 -86 c-84 -47 -155 -86 -158 -86 -4 0 -129 83 -279
184 l-272 184 583 335 c320 184 585 336 589 336 4 1 -17 -36 -46 -81z m870
-61 c-83 -134 -130 -228 -176 -352 -35 -93 -41 -102 -86 -133 -27 -17 -50 -36
-52 -41 -2 -5 13 -19 33 -31 27 -17 34 -27 29 -42 -3 -10 -9 -58 -12 -105 l-7
-86 -149 -85 -148 -85 -249 168 c-137 93 -248 172 -247 177 3 7 1116 718 1125
718 1 0 -26 -46 -61 -103z m-1507 -937 c-8 -5 -97 -56 -199 -114 l-185 -106
-31 36 c-50 59 -93 136 -121 216 -20 58 -26 99 -30 200 -3 70 -3 134 0 143 5
12 68 -25 293 -176 202 -135 283 -194 273 -199z m2311 211 c0 -3 -37 -30 -82
-58 l-83 -53 -9 79 c-5 44 -6 95 -2 115 l7 36 84 -57 c47 -31 85 -59 85 -62z
m-948 78 c56 -36 55 -38 -24 -83 l-48 -27 0 24 c0 38 12 117 18 117 3 0 27
-14 54 -31z m-683 -199 c110 -74 200 -137 201 -140 0 -3 -65 -43 -146 -89
l-145 -84 -17 23 c-48 64 -95 152 -113 210 -39 123 -36 246 6 222 8 -4 104
-68 214 -142z m1195 -160 c-5 -4 -94 -62 -199 -129 l-190 -121 -47 51 c-57 63
-112 170 -133 262 l-16 69 27 36 c16 21 48 60 72 89 l44 52 225 -150 c124 -83
221 -154 217 -159z m863 -8 c2 -6 -303 -202 -327 -210 -16 -6 -98 68 -147 132
-57 75 -98 162 -86 179 5 7 40 51 77 98 l68 87 206 -139 c114 -77 208 -143
209 -147z m-2327 73 c17 -54 73 -162 104 -204 24 -32 26 -51 6 -51 -7 0 -272
171 -289 186 -4 4 50 91 103 164 l40 55 11 -55 c6 -30 17 -73 25 -95z m-181
33 c-23 -35 -43 -65 -45 -67 -2 -2 -19 7 -39 19 l-37 23 74 43 c40 24 77 43
81 44 4 0 -11 -28 -34 -62z m957 -34 c-88 -143 -73 -133 -139 -89 -32 21 -55
40 -53 42 10 10 241 141 244 139 1 -2 -22 -43 -52 -92z m900 -9 c-9 -14 -24
-37 -33 -52 -9 -16 -18 -29 -19 -31 -1 -2 -14 4 -29 14 l-26 17 58 38 c32 21
60 38 62 38 2 1 -4 -10 -13 -24z m879 -2 c-10 -14 -26 -41 -37 -60 -22 -36
-33 -40 -62 -18 -23 17 -22 18 52 66 69 45 68 45 47 12z m-1701 -37 c11 -57
83 -190 134 -247 l47 -53 -40 24 c-22 13 -88 56 -147 95 l-107 71 45 77 c25
43 49 75 53 72 5 -2 12 -20 15 -39z m-1154 -2 c22 -15 40 -31 40 -36 0 -4 -20
-48 -44 -97 -98 -194 -148 -384 -149 -561 -1 -190 55 -348 172 -487 l61 -72
-73 46 c-192 122 -1017 675 -1017 681 0 4 101 65 225 136 l224 128 104 -65
c159 -100 204 -122 222 -107 8 7 15 19 15 26 0 8 -52 55 -115 106 -63 50 -115
94 -115 98 0 8 382 229 398 229 7 1 30 -11 52 -25z m2132 -158 c40 -47 41 -50
12 -31 -17 11 -63 40 -102 65 -39 25 -71 48 -72 53 0 4 12 26 27 48 l26 40 33
-62 c19 -34 53 -85 76 -113z m788 162 c0 -27 49 -116 99 -181 l52 -68 -43 27
c-89 56 -188 125 -188 131 0 3 14 28 31 55 30 47 49 60 49 36z m-2017 -84 c38
-25 66 -51 64 -57 -86 -208 -137 -371 -137 -438 0 -20 -10 -35 -35 -55 l-36
-27 28 -18 c25 -17 29 -27 39 -112 21 -167 77 -291 184 -410 30 -34 48 -57 40
-52 -41 23 -720 471 -893 589 l-198 134 68 40 c217 126 371 212 380 212 5 0
31 -14 59 -32 230 -147 294 -178 307 -144 8 21 -8 39 -133 139 -62 51 -114 96
-114 102 -1 10 281 175 299 175 6 0 41 -21 78 -46z m960 13 l28 -22 -60 -119
c-65 -128 -111 -247 -138 -354 -10 -39 -24 -73 -35 -80 -14 -10 -16 -17 -8
-26 6 -8 11 -79 13 -167 3 -142 5 -160 33 -234 29 -77 73 -153 131 -224 l28
-34 -45 28 c-25 15 -247 163 -493 328 -306 204 -447 304 -445 314 4 21 449
304 463 295 113 -72 208 -123 222 -120 10 2 19 13 21 25 2 16 -16 37 -78 89
-45 37 -78 70 -73 75 18 17 389 249 398 249 6 0 23 -10 38 -23z m860 -13 c21
-14 37 -29 35 -32 -2 -4 -29 -59 -60 -122 -215 -436 -216 -804 -1 -1049 l47
-54 -45 28 c-52 33 -779 518 -892 596 -42 29 -74 56 -70 59 5 4 124 80 265
169 l258 163 59 -36 c65 -40 95 -45 106 -19 4 13 -7 30 -40 62 -35 33 -44 46
-34 52 8 4 84 52 169 107 85 55 157 101 160 101 3 1 22 -11 43 -25z m-2475
-84 c56 -36 101 -68 99 -72 -3 -10 -419 -249 -424 -244 -12 12 94 289 143 374
l25 43 28 -18 c15 -10 73 -47 129 -83z m1826 -41 c69 -45 126 -85 126 -88 0
-9 -451 -293 -457 -288 -17 18 172 457 197 457 5 0 65 -37 134 -81z m-921 -39
c64 -41 117 -77 117 -80 0 -4 -311 -205 -376 -243 -10 -6 -12 1 -7 30 18 115
115 377 137 371 7 -2 64 -37 129 -78z m-662 -7 c13 -15 12 -15 -8 -4 -24 12
-29 21 -14 21 5 0 15 -7 22 -17z"/>
</g>
</svg>
