<?xml version="1.0" standalone="no"?>
<!DOCTYPE svg PUBLIC "-//W3C//DTD SVG 20010904//EN"
 "http://www.w3.org/TR/2001/REC-SVG-20010904/DTD/svg10.dtd">
<svg version="1.0" xmlns="http://www.w3.org/2000/svg"
 width="536.000000pt" height="371.000000pt" viewBox="0 0 536.000000 371.000000"
 preserveAspectRatio="xMidYMid meet">
<metadata>
Created by potrace 1.16, written by Peter Selinger 2001-2019
</metadata>
<g transform="translate(0.000000,371.000000) scale(0.100000,-0.100000)"
fill="#000000" stroke="none">
<path d="M2313 3312 c-109 -92 -111 -93 -84 -49 13 21 22 40 20 42 -7 7 -705
27 -815 24 -121 -4 -152 -16 -133 -50 5 -10 19 -19 30 -19 30 0 114 -84 164
-164 56 -90 168 -323 161 -335 -4 -5 -305 -262 -672 -571 -366 -309 -664 -566
-662 -570 10 -29 1241 -876 1381 -950 l47 -25 0 -72 0 -73 30 0 30 0 0 65 c0
36 4 65 9 65 17 0 21 32 6 53 -12 18 -15 70 -15 310 l0 289 30 42 c17 23 50
59 74 79 105 87 333 218 544 311 l102 46 1040 0 1040 0 0 25 0 25 -1043 0
-1043 0 -372 252 -372 252 0 79 c0 77 2 84 52 176 110 204 279 467 437 679 50
67 89 122 87 122 -3 0 -35 -26 -73 -58z m-468 -43 c170 -5 311 -12 314 -14 2
-2 -14 -34 -35 -70 -33 -57 -66 -89 -228 -226 -104 -87 -191 -157 -194 -154
-3 2 -24 47 -47 99 -54 119 -124 238 -187 316 l-49 60 58 0 c32 0 198 -5 368
-11z m49 -483 c-60 -102 -110 -183 -113 -181 -2 3 -16 36 -31 73 l-26 68 135
116 c75 63 137 114 139 113 2 -2 -45 -86 -104 -189z m-175 -171 c17 -44 31
-94 31 -111 0 -18 -31 -95 -74 -185 -254 -530 -328 -966 -213 -1270 35 -93 68
-142 161 -238 l81 -83 -60 37 c-293 185 -1238 841 -1238 860 0 14 1267 1084
1275 1076 4 -3 21 -42 37 -86z m22 -638 c-14 -439 -14 -705 -1 -743 6 -18 9
-118 8 -249 l-3 -220 -86 86 c-135 134 -185 255 -196 469 -12 247 55 516 225
904 31 71 58 124 60 117 2 -7 -1 -170 -7 -364z m657 -125 c51 -35 92 -65 90
-67 -2 -1 -50 -23 -108 -49 -201 -90 -387 -202 -507 -303 l-63 -54 0 436 0
436 248 -167 c136 -92 289 -196 340 -232z"/>
</g>
</svg>
