<?xml version="1.0" standalone="yes"?>
<svg xmlns="http://www.w3.org/2000/svg" width="709" height="371">
<!-- <path style="fill:#ffffff; stroke:none;" d="M0 0L0 371L709 371L709 0L0 0z"/>
--><path style="fill:#000000; stroke:none;" d="M662 15C630.757 39.7947 597.909 62.697 566 86.6266C552.02 97.1103 532.667 107.094 522 121L524 121C504.692 140.255 484.449 159.249 464 177.285C456.982 183.475 450.542 192.807 442 196.976C437.068 199.383 429.366 198 424 198L383 198L280 198C266.421 198 246.89 201.594 234 197.298C225.627 194.507 217.238 186.964 210 181.975C197.7 173.497 185.386 165.019 173 156.67C168.643 153.733 160.765 150.453 159.318 144.96C156.461 134.116 165.775 122.619 171.061 114C178.886 101.241 190.141 88.5531 196.292 75C197.947 71.3543 194.99 68.6039 195.843 65C197.155 59.4508 201.782 54.2984 204 49C179.359 48.9321 154.73 47 130 47C126.375 47 107.295 44.786 108.176 50.9761C108.711 54.7406 118.194 59.0609 120.816 62.0038C129.892 72.1925 135.927 85.5928 141.281 98C142.926 101.814 146.991 107.802 145.068 111.999C142.995 116.524 137.504 119.689 134 123.039C125.101 131.549 116.234 140.141 107 148.285C80.8234 171.374 54.9359 195.579 30 220L30 221C57.4251 242.765 86.8342 262.975 116 282.333C122.727 286.797 129.681 291.735 137 295.176C139.31 296.262 143.99 298.17 145.928 295.396C148.792 291.298 141.373 285.397 139 283C127.882 271.769 122.77 260.654 121.3 245C118.048 210.356 140.764 177.876 152 147L153 147L151.004 249L153.946 264.015L154 330L159 330L159 276C159 268.716 157.245 258.723 160.442 252C169.502 232.947 198.13 221.542 216 212.756C240.953 200.488 267.746 204 295 204L436 204L421 220C469.813 254.961 519.792 287.896 569 322.28C580.376 330.229 592.009 338.146 604 345.138C606.654 346.686 614.17 352.067 616.953 348.382C620.019 344.322 612.412 338.354 610 336.039C598.187 324.702 591.561 313.589 590.174 297C588.012 271.153 602.382 241.053 614.309 219C619.026 210.278 625.998 201.42 629 192L635.953 192.218L636.768 181.91L658 151C649.983 155.612 643.088 162.342 636 168.247C633.349 170.456 629.624 174.845 626 175.232C615.169 176.389 607.955 151.837 607.171 144C603.906 111.377 621.331 78.8465 637.811 52C643.142 43.3161 649.125 35.0579 655.349 27C657.973 23.603 662.603 19.4936 662 15z"/>
<path style="fill:#ffffff; stroke:none;" d="M635 43C610.034 60.9341 585.592 79.6823 561 98.1266C554.472 103.023 538.533 113.11 539.252 122.907C539.528 126.666 545.317 129.231 548 131.141C560.241 139.858 572.526 138 587 138L572 147L572 148L613 174C592.802 141.24 602.727 106.807 618.32 74C622.722 64.7391 633.826 52.9763 635 43M121 52C132.853 69.3367 144.174 85.8228 151 106C156.935 104.334 160.611 99.1782 165 95.0895C177.229 83.6981 188.141 70.002 194 54L121 52M165 103C160.087 107.526 152.343 111.76 157 119L165 103M149 118C123.336 138.9 100.541 163.625 76 185.83C65.1683 195.631 46.2844 207.802 40 221C70.0576 242.528 99.6261 267.044 132 285C127.305 278.309 121.924 272.899 119.09 265C108.843 236.44 121.504 202.506 132.201 176C138.523 160.333 160.785 133.751 149 118M528 126L462 187.961L430 219L493 263C479.075 233.033 489.902 203.703 502.424 175C507.807 162.663 517.543 151.664 516 138C522.465 137.788 527.348 132.515 528 126M534 129L529 138L547 138L534 129M536 143L536 144C544.695 149.915 551.491 155.926 560 146L536 143M524 145C510.718 175.823 478.621 218.664 494.901 254C498.221 261.207 504.49 266.49 510 272L511 272C520.739 264.096 539.027 253.981 544.972 242.91C546.783 239.539 546 234.694 546 231C546 226.466 547.054 220.33 545.397 216.039C541.642 206.319 525.249 201.194 516 200C517.619 190.083 538.259 194 546 194C546 184.228 549.103 168.217 545.397 159.171C542.569 152.268 530.707 146.932 524 145M552 194L587 195L587 196L562 209.306L552.603 216.213L552 237L574 220.081L617 185C607.439 175.851 593.925 169.504 583 161.975C578.386 158.795 572.656 152.936 567 151.915C563.01 151.195 555.286 155.361 553.028 158.634C548.272 165.525 552 185.657 552 194M159 155L159 242C180.13 227.118 200.398 209.376 226 202L206 186.667L159 155M552 257L546 257L546 251L515 276L515 277C540.992 296.979 569.349 318.049 598 334C593.743 327.102 589.102 320.962 586.921 313C574.458 267.523 607.296 227.764 624 189L623 188C603.838 197.782 586.645 216.932 570 230.576C559.632 239.074 552 243.007 552 257M536 200L536 201L549 208.763L566 201L536 200z"/>
</svg>
