<?xml version="1.0" standalone="no"?>
<!DOCTYPE svg PUBLIC "-//W3C//DTD SVG 20010904//EN"
 "http://www.w3.org/TR/2001/REC-SVG-20010904/DTD/svg10.dtd">
<svg version="1.0" xmlns="http://www.w3.org/2000/svg"
 width="709.000000pt" height="371.000000pt" viewBox="0 0 709.000000 371.000000"
 preserveAspectRatio="xMidYMid meet">
<metadata>
Created by potrace 1.16, written by Peter Selinger 2001-2019
</metadata>
<g transform="translate(0.000000,371.000000) scale(0.100000,-0.100000)"
fill="#000000" stroke="none">
<path d="M6063 3133 c-307 -229 -570 -423 -584 -432 -15 -9 -69 -49 -120 -90
-52 -40 -102 -79 -111 -85 -9 -7 -16 -19 -15 -27 1 -8 -180 -187 -403 -397
l-405 -382 -1043 0 -1043 0 -374 253 -374 252 -1 73 c0 55 5 83 21 114 37 73
190 320 275 446 46 68 84 127 84 131 0 5 -7 14 -15 21 -12 10 -18 10 -30 0 -9
-7 12 35 46 94 34 59 60 109 58 111 -7 7 -532 25 -725 25 -143 0 -195 -3 -208
-13 -27 -20 -16 -38 40 -67 35 -18 64 -45 102 -95 51 -68 165 -286 215 -411
l24 -60 -583 -544 c-321 -298 -581 -546 -579 -550 15 -25 840 -606 983 -693
109 -66 137 -76 158 -55 22 22 9 43 -96 154 -66 69 -93 105 -108 147 -76 203
-43 467 103 832 50 124 174 390 179 383 2 -2 -1 -100 -5 -218 -15 -388 -16
-907 -2 -921 10 -10 13 -97 13 -366 l0 -353 25 0 25 0 0 385 c0 311 3 391 14
413 53 102 319 277 634 416 l102 46 1012 0 1012 0 -74 -76 c-73 -73 -74 -76
-55 -90 188 -144 705 -504 775 -539 19 -10 175 -116 345 -235 345 -242 662
-453 743 -495 42 -22 55 -25 67 -15 8 7 15 19 15 26 0 8 -42 55 -94 105 -106
102 -149 171 -171 276 -54 256 66 651 330 1087 45 73 46 75 80 69 43 -7 55 15
30 53 -16 25 -16 27 21 82 20 32 69 100 109 152 39 52 75 101 80 109 6 11
-176 -134 -299 -238 -17 -15 -21 -13 -68 38 -95 103 -133 215 -132 381 3 300
197 728 506 1117 32 40 56 73 54 73 -3 0 -256 -187 -563 -417z m255 71 c-176
-281 -289 -580 -305 -809 -10 -154 31 -304 111 -409 21 -26 32 -45 24 -40 -7
4 -107 70 -222 147 -234 156 -225 141 -122 194 68 35 48 43 -104 43 l-125 0
-102 71 -103 70 58 84 57 85 444 330 c244 181 445 330 447 330 1 0 -24 -43
-58 -96z m-4477 -31 l107 -6 -87 -148 c-83 -144 -90 -153 -210 -264 -69 -63
-127 -115 -130 -115 -3 0 -28 51 -55 113 -67 155 -159 315 -220 383 l-50 57
269 -7 c149 -3 318 -9 376 -13z m-163 -475 c-8 -13 -36 -60 -62 -105 -26 -46
-49 -83 -51 -83 -2 0 -9 16 -15 35 l-12 35 74 70 c40 38 75 69 77 70 2 0 -3
-10 -11 -22z m-142 -266 c5 -27 -6 -56 -74 -190 -332 -651 -389 -1100 -171
-1347 24 -27 37 -45 29 -40 -139 82 -925 638 -925 654 0 4 248 238 550 519
l550 513 17 -38 c10 -21 20 -53 24 -71z m3739 -14 c-14 -24 -31 -53 -37 -65
-7 -14 -22 -23 -42 -25 -23 -2 -32 -8 -34 -25 -2 -15 2 -23 11 -23 10 0 -15
-61 -82 -192 -149 -298 -218 -506 -228 -693 -8 -137 11 -215 72 -310 23 -34
-100 48 -445 296 -187 135 -198 145 -182 161 155 150 979 918 985 918 4 0 -4
-19 -18 -42z m112 -86 c-49 -1 -92 -1 -94 2 -3 2 7 25 22 50 l26 45 68 -47 68
-47 -90 -3z m197 -71 l28 -19 -23 -14 c-13 -8 -40 -24 -61 -36 l-36 -20 -49
36 c-27 21 -60 45 -73 54 -24 16 -22 17 80 17 87 1 110 -2 134 -18z m-276 -25
c27 -14 72 -43 100 -65 l52 -41 0 -185 0 -184 -147 -3 c-137 -3 -148 -4 -148
-22 0 -14 12 -22 52 -32 67 -17 113 -41 186 -95 l57 -42 0 -146 0 -146 -178
-146 -177 -146 -68 71 c-37 39 -80 95 -94 125 -54 113 -39 307 43 542 55 159
242 539 265 539 5 0 31 -11 57 -24z m855 -366 c6 -6 -478 -415 -630 -533 -10
-7 -13 16 -13 109 l1 119 172 95 172 95 -172 3 -173 2 0 185 0 184 71 39 70
39 247 -165 c136 -90 251 -168 255 -172z m-4225 60 c183 -124 332 -227 332
-230 0 -3 -50 -27 -110 -54 -202 -90 -421 -223 -522 -318 l-48 -44 0 439 c0
241 4 437 8 435 4 -1 157 -104 340 -228z m4305 -106 c3 -3 -13 -36 -35 -72
-124 -203 -218 -400 -284 -597 -58 -173 -77 -291 -71 -425 7 -151 33 -224 124
-349 19 -27 -32 5 -272 169 -431 295 -566 393 -553 405 7 7 79 67 161 134
l147 121 0 -35 c0 -32 2 -35 30 -35 30 0 30 0 30 59 l0 60 347 285 c191 157
352 286 358 286 6 0 14 -3 18 -6z m-657 -164 c-49 -28 -91 -50 -94 -50 -3 0
-28 17 -56 39 -28 21 -60 43 -71 49 -15 9 19 11 145 12 l165 0 -89 -50z"/>
</g>
</svg>
