<?xml version="1.0" standalone="yes"?>
<svg xmlns="http://www.w3.org/2000/svg" width="609" height="371">
<path style="fill:#ffffff; stroke:none;" d="M0 0L0 371L609 371L609 0L0 0z"/>
<path style="fill:#000000; stroke:none;" d="M21 212L21 213C48.4431 234.152 77.1755 254.117 106 273.333C112.869 277.913 119.734 282.617 127 286.557C129.392 287.854 133.665 290.105 136.242 287.968C139.713 285.09 134.913 280.088 132.956 278C124.001 268.443 116.159 260.249 113.45 247C105.24 206.849 132.601 174.098 143 138L144 138L142 240L144 322L150 322L150 267C150 259.813 148.164 249.585 151.457 243C157.966 229.981 174.921 221.488 187 214.579C198.545 207.975 212.847 199.01 226 196.379C236.933 194.192 249.858 196 261 196L333 196L333 256L305 238C305 259.423 305.198 281.682 303.17 303C302.749 307.421 301.545 323.132 305.588 325.914C309.224 328.416 315.65 315.341 318.015 313.09C330.136 301.552 349.778 290.103 366 285.634C371.698 284.065 377.296 285.893 383 285.741C397.983 285.341 412.967 285 428 285L562 285L562 279L548 279L548 172C548 158.339 544.151 137.906 548.589 125C555.893 103.756 581.208 89.7703 590 69C545.374 69 500.608 67 456 67L426 67C421.081 67.0019 416.007 66.2013 415 72C390.044 71.4848 361.513 74.5508 337 70L334 190L259 190C248.821 190 234.69 192.528 225 189.298C210.717 184.537 195.307 170.279 183 161.576C174.762 155.75 154.51 147.283 150.603 137.826C147.87 131.209 151.371 123.611 154.579 118C161.956 105.094 169.793 92.3929 178.004 80C181.474 74.7624 192.646 64.4769 184 60L195 41C187.965 38.9207 180.264 40.408 173 39.9105C155.795 38.7323 138.252 38 121 38C117.414 38 97.8964 36.3626 98.9213 42.8341C99.4402 46.1108 108.51 50.4325 110.907 53.0038C120.401 63.1888 125.855 76.6132 131.745 89C133.4 92.4822 137.94 99.5525 136.018 103.424C130.252 115.036 113.307 125.141 104 134.039C76.5755 160.261 47.8339 185.166 21 212z"/>
<path style="fill:#ffffff; stroke:none;" d="M112 44C123.782 61.2336 135.179 77.9608 142 98C161.557 88.8821 176.193 64.8412 185 46L112 44M430 73L430 74C439.064 80.5195 442.624 94.3198 451.518 99.9722C469.396 111.335 485.216 85.7799 493 74L430 73M500 74L480 101L529 101C523.286 88.9221 513.511 76.8261 500 74M516 74C522.91 83.8112 532.387 100.99 545 101L545 106L540 106L545 117C557.236 107.103 570.208 88.6749 578 75L516 74M352 76L352 77C362.469 83.325 373.179 89.0677 384 94.7809C387.465 96.6103 392.724 101.159 396.91 100.184C403.313 98.6921 413.017 82.8815 415 77L352 76M406 101L444 101C441.447 95.0836 432.452 78.4491 425.039 78.3457C418.836 78.2591 408.511 95.9599 406 101M342 79C342 89.0536 340.995 98.9765 341 109C341.002 113.444 340.52 118.638 346.019 119.816C352.378 121.179 363.939 112.486 370 110C365.241 97.0023 354.811 84.3621 342 79M157 93L145 104L147 111L148 111L157 93M367 93L375 107L386 104L386 102L367 93M457 147C457 136.014 459.316 112.578 446.61 106.603C440.257 103.616 427.978 106 421 106C415.51 106 406.172 104.222 401.289 107.028C392.96 111.814 379.784 130.632 386.028 140.621C390.126 147.178 399.362 147 406 147L457 147M455 106L459 116L461 116L468 106L455 106M462 147L542 147C542 133.768 543.81 117.766 533.046 107.603C528.542 103.351 513.916 106 508 106C499.216 106 484.388 103.126 476.3 106.603C460.685 113.318 462 133.489 462 147M379 112L382 120L392 108L379 112M31 213L123 277C117.558 269.244 111.967 263.28 109.029 254C99.8582 225.036 113.093 190.563 124.427 164C132.141 145.922 146.371 129.685 141 110C132.006 114.188 125.348 123.234 118 129.715C98.5251 146.892 80.2522 165.41 61 182.83C51.5259 191.403 36.4523 201.308 31 213M354 124L380 138C380 132.368 379.865 117.207 371.895 116.213C366.537 115.544 358.444 121.406 354 124M347.044 129.252C338.279 132.35 335.996 168.514 351 164.574C358.398 162.631 365.858 157.545 372.999 154.603C375.464 153.588 378.916 152.724 379.663 149.779C381.651 141.943 361.449 135.085 356 132.219C353.435 130.87 350.118 128.166 347.044 129.252M150 147L150 233C171.965 217.588 192.606 204.559 217 193L217 192L150 147M385.333 148.667L385.667 149.333L385.333 148.667M457 190L457 152L408 152C401.548 152 391.803 151.303 386.603 156.086C384.158 158.335 385 163.024 385 166C384.999 174.682 382.423 184.722 392.001 188.647C398.543 191.329 407.053 190 414 190L457 190M462 152L462 190L542 190L542 152L462 152M379 158L356 169L380 182L379 158M341 169L341 171L343 171L343 169L341 169M339 190L380 190C375.219 185.153 355.91 172.373 349.004 173.956C342.788 175.38 339.847 184.547 339 190M385 198C385 205.981 381.644 223.73 386.028 230.471C389.838 236.329 399.1 235 405 235L457 235L457 195C433.96 195 407.421 192.875 385 198M462 195L462 235L542 235L542 195L462 195M339 196C339 219.282 359.999 201.425 373 197L339 196M353 212L353 214L380 228L380 201L353 212M339 260C349.16 254.967 358.44 248.852 369 244.424C371.931 243.196 378.109 242.094 379.338 238.738C380.64 235.182 376.469 232.884 373.995 231.428C368.393 228.133 351.379 215.892 345.044 218.241C340.13 220.062 340.258 225.749 339.831 230C338.827 239.995 339 249.948 339 260M385 244L385 279L457 279L457 241C433.165 241 408.198 238.633 385 244M462 241L462 279L542 279L542 241L462 241M344 265C357.518 272.526 363.997 279 380 279L380 247C368.902 248.911 351.244 256.258 344 265M311 249L309 312L358 282L358 281L340 269L335.495 270.944L330.686 262.515L311 249z"/>
</svg>
