<?xml version="1.0" standalone="no"?>
<!DOCTYPE svg PUBLIC "-//W3C//DTD SVG 20010904//EN"
 "http://www.w3.org/TR/2001/REC-SVG-20010904/DTD/svg10.dtd">
<svg version="1.0" xmlns="http://www.w3.org/2000/svg"
 width="609.000000pt" height="371.000000pt" viewBox="0 0 609.000000 371.000000"
 preserveAspectRatio="xMidYMid meet">
<metadata>
Created by potrace 1.16, written by Peter Selinger 2001-2019
</metadata>
<g transform="translate(0.000000,371.000000) scale(0.100000,-0.100000)"
fill="#000000" stroke="none">
<path d="M1003 3314 c-28 -13 -13 -44 32 -65 55 -26 106 -84 171 -193 48 -80
174 -350 174 -372 0 -6 -260 -253 -577 -549 -318 -296 -578 -542 -578 -548 0
-21 882 -642 1035 -729 64 -37 85 -41 104 -23 22 23 10 42 -89 145 -45 47 -92
104 -104 128 -90 176 -59 481 85 844 52 131 201 439 190 393 -8 -34 -29 -863
-25 -997 3 -84 8 -131 17 -140 9 -9 12 -96 12 -366 l0 -353 23 3 22 3 5 395
c6 449 -1 413 98 500 104 92 359 238 573 329 l96 41 534 0 534 0 3 -243 c1
-133 0 -272 -4 -309 l-6 -68 -134 92 c-73 50 -136 89 -139 86 -8 -8 -19 -811
-11 -841 11 -46 41 -35 69 26 39 86 153 170 391 288 l140 69 983 0 983 0 0 30
0 30 -65 0 -65 0 0 779 0 779 205 263 c203 262 205 264 177 271 -15 5 -236 10
-492 13 -256 2 -622 7 -815 11 -355 6 -405 3 -405 -30 0 -12 -55 -13 -362 -9
-200 2 -375 5 -390 7 l-26 2 -7 -145 c-4 -79 -9 -291 -10 -470 -1 -179 -6
-383 -10 -453 l-8 -128 -551 0 -551 0 -365 248 -365 248 -3 77 c-2 56 2 85 14
108 36 70 173 292 266 432 54 81 96 152 92 158 -3 6 -14 13 -24 17 -17 6 -13
17 36 102 l54 95 -43 7 c-53 9 -878 20 -894 12z m654 -53 c100 -3 185 -9 188
-12 3 -4 -31 -70 -76 -148 -78 -135 -88 -147 -209 -261 -70 -66 -130 -120
-132 -120 -3 0 -18 30 -33 68 -41 97 -132 279 -171 340 -19 29 -53 73 -75 97
l-42 45 184 -1 c101 0 266 -4 366 -8z m3241 -290 l33 -6 -103 -133 -103 -132
-106 0 -107 0 -57 85 c-31 47 -81 112 -111 145 l-55 58 288 -5 c158 -3 303 -8
321 -12z m254 -78 c27 -27 71 -81 99 -120 l50 -73 -255 0 -256 0 108 139 107
138 49 -18 c29 -11 70 -38 98 -66z m624 68 c7 -4 -53 -88 -150 -213 -88 -113
-164 -210 -168 -213 -4 -4 -21 20 -37 54 l-31 61 30 0 c25 0 30 4 30 25 0 23
-4 25 -44 25 l-44 0 -58 85 c-31 47 -81 110 -111 141 l-54 54 313 -6 c172 -4
318 -9 324 -13z m-1618 -26 c9 -9 -175 -234 -190 -234 -23 -1 -407 204 -433
231 l-20 20 320 -7 c176 -4 322 -8 323 -10z m174 -68 c19 -23 53 -70 77 -104
l42 -63 -202 0 c-160 0 -199 3 -192 13 6 6 49 63 97 124 l87 113 28 -21 c16
-11 44 -39 63 -62z m-846 23 c58 -34 90 -70 171 -193 l52 -81 -117 -58 c-115
-58 -118 -58 -149 -43 l-33 15 0 112 c0 122 10 278 18 278 2 0 29 -14 58 -30z
m313 -168 l84 -45 -64 -23 c-36 -13 -65 -19 -67 -14 -2 6 -26 44 -53 85 l-49
75 33 -16 c17 -9 70 -37 116 -62z m-2266 -29 c-31 -54 -57 -99 -58 -101 -2 -2
-9 13 -15 34 l-13 37 66 64 c35 34 67 63 70 63 4 0 -19 -44 -50 -97z m2991
-127 l46 -83 0 -122 0 -121 -311 0 -311 0 -49 28 -49 27 0 76 0 75 78 102 77
101 237 0 237 1 45 -84z m147 67 c-5 -10 -24 -35 -43 -56 l-33 -39 -27 56 -28
56 70 0 c64 0 70 -2 61 -17z m711 -81 l48 -92 0 -110 0 -110 -405 0 -405 0 0
121 0 120 66 85 66 84 291 -2 291 -3 48 -93z m-1459 75 c-4 -7 -28 -39 -52
-71 l-45 -58 -22 44 c-12 23 -19 44 -16 46 16 6 137 51 140 51 2 1 -1 -5 -5
-12z m-2493 -72 l21 -64 -100 -203 c-197 -400 -281 -677 -281 -922 0 -168 37
-278 128 -385 l47 -55 -60 38 c-128 82 -301 203 -822 576 -34 25 -61 49 -60
54 3 10 1090 1025 1099 1025 3 1 16 -28 28 -64z m2340 -55 c23 -46 30 -73 30
-119 l0 -60 -77 41 c-43 23 -105 56 -137 74 l-60 33 94 45 c51 25 99 46 107
46 7 0 26 -27 43 -60z m-129 -152 l154 -83 0 -39 0 -39 -110 -46 c-60 -26
-128 -57 -151 -70 l-41 -23 -41 21 -42 21 0 125 c0 68 4 135 10 149 10 27 45
66 58 66 5 0 78 -37 163 -82z m-1803 -329 c180 -122 331 -225 336 -230 5 -4
-29 -24 -75 -45 -230 -104 -448 -234 -545 -326 l-54 -51 0 437 c0 240 2 436 5
436 3 0 153 -100 333 -221z m2037 201 c3 -5 -1 -10 -9 -10 -9 0 -16 5 -16 10
0 6 4 10 9 10 6 0 13 -4 16 -10z m695 -220 l0 -190 -315 0 c-304 0 -316 1
-360 22 l-45 22 2 150 3 149 50 18 c43 15 91 18 358 18 l307 1 0 -190z m860 0
l0 -190 -405 0 -405 0 0 190 0 190 405 0 405 0 0 -190z m-1630 10 c0 -66 -3
-120 -7 -120 -5 0 -62 29 -127 64 l-119 64 44 23 c56 28 192 88 202 89 4 0 7
-54 7 -120z m-360 5 c0 -1 -7 -8 -15 -15 -13 -10 -15 -9 -15 8 0 15 5 20 15
16 8 -4 15 -7 15 -9z m318 -168 c23 -11 42 -25 42 -29 0 -4 -92 -8 -205 -8
l-205 0 0 34 c0 21 6 36 15 40 8 3 15 13 15 22 0 9 16 31 36 50 l37 33 111
-60 c61 -33 130 -70 154 -82z m11 -91 c-2 -2 -44 -20 -94 -41 -49 -20 -119
-52 -154 -72 -63 -34 -66 -34 -98 -19 -32 15 -33 18 -33 76 l0 60 192 0 c105
0 189 -2 187 -4z m801 -201 l0 -205 -317 0 c-312 0 -319 1 -358 23 l-40 23 -3
166 -2 166 42 15 c35 13 104 16 361 16 l317 1 0 -205z m860 0 l0 -205 -405 0
-405 0 0 205 0 205 405 0 405 0 0 -205z m-1634 -122 c-6 -6 -276 138 -276 147
0 8 179 94 237 114 l38 13 3 -135 c1 -74 1 -137 -2 -139z m-160 20 c156 -84
164 -89 164 -118 0 -28 -4 -32 -88 -64 -114 -45 -216 -95 -274 -137 l-48 -34
0 174 c0 100 5 187 11 203 13 36 38 63 57 63 8 0 88 -39 178 -87z m934 -343
l0 -190 -360 0 -360 0 0 174 0 174 43 15 c34 12 104 16 360 16 l317 1 0 -190z
m860 0 l0 -190 -405 0 -405 0 0 190 0 190 405 0 405 0 0 -190z m-1630 -25 l0
-165 -77 0 -78 0 -102 71 c-57 39 -103 73 -103 77 0 19 309 177 353 181 4 1 7
-73 7 -164z m-580 67 c119 -82 112 -74 119 -119 7 -42 34 -56 55 -28 11 16 20
12 100 -43 48 -33 86 -64 84 -69 -2 -4 -58 -35 -125 -69 -140 -71 -239 -134
-312 -200 l-51 -46 0 114 c0 251 13 537 24 531 6 -3 54 -35 106 -71z"/>
</g>
</svg>
