<?xml version="1.0" standalone="yes"?>
<svg xmlns="http://www.w3.org/2000/svg" width="383" height="371">
<!-- <path style="fill:#ffffff; stroke:none;" d="M0 0L0 371L383 371L383 0L0 0z"/>
--><path style="fill:#000000; stroke:none;" d="M243 111C228.23 111 205.906 115.221 192 110.272C185.496 107.958 179.466 101.973 174 97.8734C169.63 94.5962 159.529 89.6663 158.407 83.9097C155.416 68.5596 168.793 50.7374 171 36L150.789 60L115.119 105L93 135L138 147L136 250C126.759 239.388 112.347 225.965 106.843 213C104.052 206.427 104.078 198.004 102.92 191C100.017 173.441 98.2575 155.282 94 138C77.9458 149.309 63.4152 167.192 50.5756 182C45.2946 188.09 38.4666 193.477 38 202C42.7968 201.754 47.22 199.229 52 199.522C80.7883 201.286 102.872 220.022 119.803 241C124.76 247.141 133.188 254.304 135.486 262C139.013 273.809 136 290.678 136 303C136 306.392 134.506 314.939 138.274 316.824C140.969 318.172 142.467 314.825 143.424 312.981C147.856 304.446 155.8 300.784 162 294L163 294C171.348 306.62 182.059 318.246 191.611 330C195.628 334.943 199.236 341.957 206 338L206 337L169 290L190 280.39L246 280L246 340L252 340L252 280L320 280L320 274L252 274L252 224L320 224L320 218L252 218L252 172L320 172L320 166L252 166L252 116L320 116L320 111L256 111L291.025 60L310 31C279.143 27.1003 246.117 28 215 28C207.734 28 200.191 27.4133 193.001 28.5911C190.908 28.9339 186.636 29.2072 186.636 32.1705C186.636 35.6974 191.593 36.4162 194 37.5533C199.352 40.0818 203.788 44.536 207.561 49C222.754 66.9766 233.993 89.3665 243 111z"/>
<path style="fill:#ffffff; stroke:none;" d="M202 34L223.305 60L249 109L250 109L283.667 60L299 36L202 34M155 64L156 65L155 64M154 66L146 78L153 81L154 66M144 84C144 93.9397 144.59 104.084 143.91 114C143.345 122.251 141.124 128.944 148 135L149 135C151.154 133.055 154.08 131.065 154.498 127.961C155.099 123.497 152.48 117.478 151.754 113C150.091 102.744 154.863 89.4759 144 84M138 86C126.792 99.9048 109.958 115.541 103 132L138 141L138 86M157 94L160 125L183 114L183 112L157 94M163 131C166.891 139.177 173.819 145.664 182 149.511C186.587 151.667 195.345 152.86 198.248 157.371C202.78 164.412 184.13 159.599 182 159C188.315 166.751 195.829 166 205 166L246 166L246 116C229.33 116 207.028 112.088 191 116.637C181.141 119.436 171.971 126.225 163 131M154 138L154 139L171 150L171 149L159 135L154 138M149 143L149 145L151 145L149 143M89 150L49 194C68.0435 194.013 82.4219 204.938 100 210L93.2716 169L89 150M183 169C176.225 160.678 166.231 155.001 156 152.37C153.207 151.652 147.359 148.797 145.028 151.618C143.206 153.823 144 158.357 144 161C144 167.88 139.199 185.691 149.005 187.758C152.565 188.509 156.271 184.81 159 183.004C166.744 177.877 174.996 173.676 183 169M156 194L189 217.436L208 218L246 218L246 172C220.768 172 195.492 168.152 173 181.001C167.054 184.398 159.215 187.707 156 194M143 192L143 196L144 196L143 192M150 197C141.7 206.835 141.999 216.813 142 229C142 232.664 140.957 240.075 146.059 240.954C149.766 241.594 154.156 237.229 157 235.333C165.066 229.956 173.663 225.866 182 221L182 220L150 197M152 247L189 273.157L208 274L246 274L246 224C214.473 224 174.149 218.302 152 247M182 277C175.597 268.703 164.404 262.629 156 256.374C152.833 254.017 148.092 249.67 144.747 254.167C139.735 260.903 153.707 273.145 157.6 278C159.328 280.154 161.366 283.72 164.171 284.579C168.771 285.987 177.655 278.809 182 277M142 269L142 302L159 290C155.645 282.472 148.534 273.998 142 269z"/>
</svg>
