<?xml version="1.0" standalone="no"?>
<!DOCTYPE svg PUBLIC "-//W3C//DTD SVG 20010904//EN"
 "http://www.w3.org/TR/2001/REC-SVG-20010904/DTD/svg10.dtd">
<svg version="1.0" xmlns="http://www.w3.org/2000/svg"
 width="396.000000pt" height="371.000000pt" viewBox="0 0 396.000000 371.000000"
 preserveAspectRatio="xMidYMid meet">
<metadata>
Created by potrace 1.16, written by Peter Selinger 2001-2019
</metadata>
<g transform="translate(0.000000,371.000000) scale(0.100000,-0.100000)"
fill="#000000" stroke="none">
<path d="M380 3353 c-65 -6 -80 -13 -80 -34 0 -13 11 -25 34 -34 19 -8 49 -33
68 -55 71 -82 187 -336 272 -593 l35 -108 -1 -1057 c0 -759 3 -1065 11 -1085
15 -38 43 -32 56 12 22 77 154 186 356 295 l86 46 129 0 129 0 220 -151 c255
-175 361 -240 381 -232 31 12 11 44 -70 112 -102 86 -164 163 -195 244 -10 27
-10 27 32 27 39 0 65 -16 292 -171 293 -200 379 -253 400 -245 31 12 15 45
-49 95 -92 73 -156 148 -199 229 -20 38 -37 75 -37 81 0 6 12 11 26 11 17 0
90 -44 213 -129 321 -221 494 -332 516 -329 38 6 27 35 -32 84 -127 107 -196
192 -232 287 -10 25 5 17 122 -63 213 -148 509 -346 544 -363 30 -16 33 -16
49 0 16 17 14 21 -47 73 -154 133 -232 245 -263 379 l-14 61 54 0 54 0 0 -120
0 -120 25 0 25 0 0 1024 0 1023 198 389 198 389 -31 7 c-40 8 -676 26 -745 21
-85 -8 -108 -41 -47 -66 18 -8 51 -35 73 -60 37 -42 133 -213 149 -264 l6 -23
-947 0 -947 0 -84 71 c-46 40 -82 75 -81 78 2 3 29 57 61 120 32 62 56 115 53
118 -11 11 -688 34 -766 26z m339 -245 c-1 -106 -4 -240 -8 -298 l-6 -105 -28
79 c-78 216 -171 405 -239 481 l-30 35 156 0 156 0 -1 -192z m329 177 c22 -5
22 -6 -18 -86 l-41 -80 -33 28 c-133 111 -165 139 -165 143 -1 6 225 1 257 -5z
m2545 -4 c8 -8 -311 -650 -323 -651 -3 0 -26 58 -51 128 l-45 127 38 3 c33 3
38 7 38 27 0 22 -5 24 -51 27 l-50 3 -35 79 c-38 86 -99 191 -142 245 l-27 34
320 -7 c176 -3 323 -10 328 -15z m-2633 -214 c0 -15 -175 -347 -182 -347 -9 0
-11 494 -2 503 7 7 184 -143 184 -156z m84 -63 c100 -84 102 -86 82 -98 -62
-36 -208 -134 -244 -163 l-43 -35 80 161 c45 88 84 161 87 161 3 0 20 -12 38
-26z m2131 -271 c56 -151 59 -163 63 -270 l4 -113 -991 0 -991 0 -200 152
c-158 119 -198 154 -189 164 21 26 145 113 239 168 l94 56 957 0 956 0 58
-157z m-2157 -263 c100 -74 181 -137 181 -140 1 -3 -45 -29 -102 -58 -56 -29
-140 -80 -186 -113 l-84 -60 -26 19 -26 19 0 204 c0 186 2 207 20 237 11 18
25 31 31 30 6 -2 92 -64 192 -138z m2222 -425 l0 -255 -1028 0 -1029 0 -124
106 c-68 59 -139 120 -158 136 l-34 30 24 19 c58 46 162 111 259 163 l105 56
993 0 992 0 0 -255z m-2455 16 c3 -5 1 -12 -5 -16 -5 -3 -10 1 -10 9 0 18 6
21 15 7z m198 -167 c81 -69 147 -129 147 -132 0 -4 -40 -30 -88 -59 -48 -28
-120 -79 -161 -111 -73 -58 -75 -60 -98 -44 -22 17 -22 22 -23 184 0 146 2
172 21 214 21 51 37 74 49 74 3 0 73 -57 153 -126z m2257 -289 l0 -126 -137
-139 -136 -140 -129 0 c-70 0 -128 4 -128 9 0 25 53 206 79 271 l31 75 -173
-178 -172 -177 -127 0 -127 0 6 33 c14 77 44 180 76 268 l35 94 -191 -198
-192 -197 -98 0 -99 0 7 43 c11 72 53 223 84 304 17 42 29 78 28 79 -1 1 -94
-95 -206 -212 l-204 -214 -110 0 -110 0 -194 145 c-106 80 -193 150 -193 155
0 16 113 101 222 168 l102 62 1028 0 1028 0 0 -125z m-2240 -283 c91 -69 171
-131 179 -138 11 -10 0 -19 -65 -52 -44 -22 -104 -56 -134 -75 l-54 -35 -36
26 c-20 15 -57 43 -83 62 l-48 35 3 120 c3 105 7 126 27 158 14 22 27 34 34
30 7 -4 86 -63 177 -131z m2240 -2 l0 -120 -41 0 -41 0 7 37 c7 40 64 203 71
203 2 0 4 -54 4 -120z m-1510 9 c-11 -46 -20 -94 -20 -106 0 -22 -4 -23 -86
-23 l-86 0 104 109 c56 60 104 108 106 107 1 -2 -7 -41 -18 -87z m470 20 c-4
-19 -14 -60 -20 -91 l-11 -58 -71 0 -70 0 88 94 c49 51 90 92 91 91 1 0 -2
-17 -7 -36z m471 -79 l-16 -70 -55 0 -54 0 69 70 c38 39 70 70 71 70 0 0 -6
-31 -15 -70z m444 -22 c-9 -42 -17 -50 -46 -46 -23 3 -23 3 10 41 18 20 35 37
38 37 2 0 2 -15 -2 -32z m-1735 -135 c-19 -21 -66 -71 -104 -110 -43 -44 -66
-76 -61 -81 6 -5 47 -35 93 -66 45 -32 82 -59 82 -62 0 -2 -38 -4 -84 -4 l-84
0 -118 91 c-66 50 -123 95 -128 99 -10 10 43 44 180 116 100 52 107 54 181 54
l77 0 -34 -37z m320 -70 c0 -87 -3 -110 -17 -126 -17 -18 -17 -20 6 -38 13
-10 27 -35 31 -54 l8 -35 -117 0 -117 0 -103 71 c-56 39 -101 75 -99 79 2 5
47 54 100 109 l98 101 105 0 105 0 0 -107z m152 50 c-27 -32 -62 -69 -76 -82
l-26 -24 0 81 0 82 76 0 76 0 -50 -57z m306 -80 c0 -76 -4 -143 -9 -150 -7 -8
-5 -14 4 -20 8 -4 18 -18 21 -30 l7 -23 -138 0 -139 0 -73 51 c-51 36 -71 57
-69 69 2 10 51 68 111 129 l107 111 89 0 90 0 -1 -137z m214 80 c-28 -32 -76
-83 -106 -113 l-56 -54 0 105 c0 58 3 109 7 112 3 4 51 7 106 7 l99 0 -50 -57z
m272 35 c-4 -13 -8 -80 -9 -151 -2 -125 -2 -128 -30 -157 l-29 -30 -127 0
-127 0 -47 33 c-27 18 -48 36 -49 39 -1 4 61 70 138 147 l138 141 75 0 c73 0
74 -1 67 -22z m264 13 c-1 -5 -51 -59 -110 -120 l-108 -111 0 89 c0 49 3 103
6 120 l7 31 104 0 c58 0 103 -4 101 -9z m178 -18 c-4 -16 -10 -97 -13 -180
l-6 -153 -182 0 -183 0 -4 23 c-4 20 22 52 145 180 l149 157 50 0 c50 0 50 0
44 -27z m154 -153 l0 -181 -57 3 -58 3 0 120 c0 66 4 146 8 178 l8 57 50 0 49
0 0 -180z m-2405 55 l40 -35 -50 -44 -50 -44 -3 66 c-3 66 1 92 15 92 4 -1 26
-16 48 -35z m211 -162 c62 -49 113 -90 114 -93 0 -3 -26 -18 -57 -34 -86 -41
-241 -147 -296 -202 l-48 -47 7 154 c4 91 12 164 19 179 16 30 119 130 135
130 7 0 63 -39 126 -87z m764 -69 c0 -2 -7 -4 -15 -4 -8 0 -15 4 -15 10 0 5 7
7 15 4 8 -4 15 -8 15 -10z m-52 -87 c6 -18 27 -59 46 -90 19 -31 32 -57 29
-57 -2 0 -64 41 -136 90 l-131 90 90 0 90 0 12 -33z m439 16 c14 -42 63 -141
85 -173 20 -30 2 -21 -137 74 -88 60 -162 111 -164 113 -2 1 44 3 103 3 92 0
107 -2 113 -17z m464 -3 c4 -8 18 -42 30 -75 12 -33 37 -84 56 -112 18 -29 31
-53 29 -53 -5 0 -357 239 -371 252 -6 5 43 7 119 6 102 -2 130 -6 137 -18z
m433 -45 c20 -79 55 -161 96 -221 17 -25 25 -42 20 -39 -18 11 -330 225 -404
277 l-69 48 170 0 171 0 16 -65z"/>
</g>
</svg>
