<?xml version="1.0" standalone="yes"?>
<svg xmlns="http://www.w3.org/2000/svg" width="396" height="371">
<!-- <path style="fill:#ffffff; stroke:none;" d="M0 0L0 371L396 371L396 0L0 0z"/>
--><path style="fill:#000000; stroke:none;" d="M181 297C189.71 297.102 196.151 302.982 203 307.859C214.115 315.773 225.48 323.636 237 330.947C239.174 332.327 253.807 343.096 254.94 336.681C255.728 332.215 247.843 327.469 245.001 325.08C235.589 317.17 230.181 307.934 225 297C232.799 297.863 239.761 304.417 246 308.859C258.14 317.504 270.597 325.736 283 334C285.413 335.608 301.674 347.996 302.534 340.769C303.107 335.959 296.06 332.145 293 329.561C284.671 322.529 278.191 314.064 274 304C290.429 318.003 310.016 329.402 328 341.333C330.468 342.97 344.266 353.654 346.11 347.678C347.133 344.362 343.129 341.409 340.995 339.615C334.592 334.229 328.488 329.175 324 322L329 322L329 184C329 163.359 325.034 138.151 329.39 118C330.849 111.253 335.683 105.095 338.752 99C345.959 84.6879 353.077 70.3306 360.247 56C363.336 49.825 367.776 43.8609 369 37C347.301 37 325.682 35 304 35C299.798 35 284.252 32.8339 283.466 39.0363C282.992 42.7784 290.364 45.6721 292.535 48.0941C300.1 56.5302 303.77 67.1889 309 77L157 77C141.037 77 114.039 81.8906 105.994 62.9854C103.276 56.5986 114.144 43.4432 116 37C94.2953 37 72.6848 35 51 35C46.3618 35 32.6523 32.8808 30.2562 38.2593C28.8286 41.4636 41.5303 50.8755 43.6404 54C54.4565 70.0156 60.9326 89.7942 67 108C72.8747 125.627 70 146.551 70 165L70 274C70 288.32 69.664 302.685 70.0147 317C70.1119 320.968 69.6718 330.237 72.1752 333.392C75.5925 337.699 84.4636 322.465 87 320.039C102.064 305.635 121.898 294.853 143 297.108C149.745 297.829 155.643 303.537 161 307.28C171.513 314.626 182.216 321.759 193 328.692C195.083 330.031 209.042 340.381 209.248 332.856C209.377 328.18 202.039 324.355 199 321.711C191.435 315.127 183.885 306.806 181 297z"/>
<path style="fill:#ffffff; stroke:none;" d="M42 41C53.7112 58.7786 65.0199 77.9846 70 99L71 99L72 41L42 41M295 41C302.741 52.3311 311.131 63.5707 315 77L325 77L325 82L318 82L326 107L337.247 88L360 43L295 41M80 42L80 43L99 58L106 43L80 42M78 49L77 99L78 99L91.2438 74L94.5818 64.0146L78 49M100 68L86 97L114 80L100 68M87 105L87 106C97.1608 114.793 113.063 130.665 126 134.487C131.987 136.255 139.795 135 146 135L188 135L324 135C324 120.743 321.585 109.397 316.576 96C315.179 92.2648 313.956 85.408 310.501 83.0278C306.888 80.539 299.202 82 295 82L254 82L163 82C150.197 82 133.32 79.098 121 82.6381C109.042 86.0744 95.8335 96.5516 87 105M82 110C74.6466 121.303 72.5599 150.79 82 161L83 161C93.5644 151.859 106.109 144.367 119 139L119 137L82 110M88 166L119 191.258L139 192L181 192L324 192L324 141L151 141C131.96 141 120.639 143.217 104 153.011C98.2637 156.387 91.0944 159.906 88 166M77.3333 164.667L77.6667 165.333L77.3333 164.667M113 195C106.405 187.893 98.4036 181.833 91 175.579C88.804 173.725 85.4755 169.841 82.2137 171.176C73.0294 174.934 75.9966 197.431 76 205C76.0015 208.446 75.2294 215.221 80.0586 215.941C83.6891 216.482 87.4316 212.022 90 210.015C97.2324 204.363 105.19 199.781 113 195M86 220L86 222C102.887 232.516 122.399 258.73 145 250.397C150.113 248.511 154.25 242.756 158 239C168.183 228.801 177.149 216.348 189 208C181.892 221.346 178.774 236.278 176 251L194 250.397L207 239L234 211L223 251C229.835 251 239.55 252.775 246 250.397C259.284 245.499 272.077 224.923 282 215L271 251L295.999 250.397L307.039 240L322.972 223L324 198L183 198L140 198L119 198.649L86 220M119 254C111.186 246.032 100.927 239.821 92 233.127C89.4582 231.22 84.7622 226.176 81.2137 227.331C76.5006 228.865 77.1315 236.241 76.9606 240C76.3747 252.889 76.7281 260.019 90 266.432C96.6754 269.658 112.351 256.768 119 254M323 228L316 251L324 251L323 228M173 231L155 251C158.933 251 165.088 252.161 168.682 250.397C172.399 248.572 174.088 234.583 173 231M219 234L204 251L217 251L219 234M267 238L256 251C264.005 250.994 269.035 246.909 267 238M310 245L305 251L310 251L310 245M98 272L98 273C111.379 283.619 119.646 291 137 291L137 290L120 279L140 257C123.603 257 111.346 262.305 98 272M129 278L148 290.157L172 291L167.978 280.91L170 257C163.718 257 154.935 255.415 149 257.603C141.611 260.328 133.428 271.714 129 278M175 271L189 257C176.493 257 175 258.493 175 271M176 282L190 290.49L217 291L214 287L216 257C210.55 257 203.16 255.701 198 257.603C190.737 260.282 178.043 274.721 176 282M222 257L221 277L241 257L222 257M223 284L223 285C230.193 291.11 254.709 296.613 261.397 286.941C265.536 280.956 263.939 264.324 264 257C259.671 257 254.112 256.087 250 257.603C240.303 261.18 230.322 276.678 223 284M270 257L269 279L290 257L270 257M270 291L307 291L309 257C295.377 257.001 272.173 276.908 270 291M313 291L324 291L324 257C308.696 257.012 310.802 279.16 313 291M78 265L77 281L87 273L87 271L78 265M77 320L115 295L115 293C109.108 288.764 100.203 278.285 93 277.174C89.3639 276.614 85.4682 280.815 83.1852 283.17C73.9887 292.657 77 307.85 77 320M158 297L158 298L182 313C174.966 299.631 173.28 297 158 297M199 297L199 298L228 317L217.581 297.603L199 297M241 297L241 298L276 321L264.49 298.179L241 297M275 297L275 298L320 328C314.529 318.133 308.941 308.527 308 297L275 297M314 297C314.734 305.989 318.501 314.292 323 322L324 322L324 297L314 297z"/>
</svg>
