<?xml version="1.0" standalone="no"?>
<!DOCTYPE svg PUBLIC "-//W3C//DTD SVG 20010904//EN"
 "http://www.w3.org/TR/2001/REC-SVG-20010904/DTD/svg10.dtd">
<svg version="1.0" xmlns="http://www.w3.org/2000/svg"
 width="484.000000pt" height="371.000000pt" viewBox="0 0 484.000000 371.000000"
 preserveAspectRatio="xMidYMid meet">
<metadata>
Created by potrace 1.16, written by Peter Selinger 2001-2019
</metadata>
<g transform="translate(0.000000,371.000000) scale(0.100000,-0.100000)"
fill="#000000" stroke="none">
<path d="M508 3421 c-42 -3 -82 -11 -88 -17 -19 -19 0 -41 47 -55 66 -18 168
-118 255 -249 39 -58 118 -202 177 -320 l106 -215 3 -1127 2 -1128 30 0 30 0
0 1123 0 1122 226 330 c125 182 242 353 261 380 l35 50 -6 -150 c-10 -220 -11
-616 -2 -642 13 -40 42 -27 70 32 21 41 43 66 94 104 90 68 237 147 410 220
l142 61 925 0 925 0 0 30 0 30 -928 0 -927 0 -343 211 c-242 149 -346 208
-355 201 -8 -6 -104 -7 -267 -2 -388 13 -736 17 -822 11z m989 -70 l51 -6
-249 -365 c-137 -200 -251 -366 -254 -368 -2 -2 -39 70 -82 160 -132 270 -270
483 -370 567 l-38 32 445 -6 c245 -4 468 -10 497 -14z m481 -216 c143 -88 257
-163 254 -166 -4 -3 -47 -23 -97 -44 -202 -85 -358 -172 -452 -252 l-53 -45 0
154 c0 84 3 244 7 355 l6 202 37 -22 c20 -12 154 -94 298 -182z"/>
</g>
</svg>
