<?xml version="1.0" standalone="yes"?>
<svg xmlns="http://www.w3.org/2000/svg" width="409" height="371">
<!-- <path style="fill:#ffffff; stroke:none;" d="M0 0L0 371L409 371L409 0L0 0z"/>
--><path style="fill:#000000; stroke:none;" d="M71 338L77 338L77 273C77 263.116 74.9317 250.512 77.8002 241C83.528 222.006 109.163 207.533 125 197.811C130.506 194.431 136.589 189.777 143 188.39C150.798 186.704 160.036 188 168 188L164 193L164 194C183.236 213.236 201.829 233.579 222 251.83C224.752 254.32 239.309 270.159 242.864 263.667C245.759 258.38 234.429 248.122 231.927 244C223.071 229.412 223.955 213.257 224 197C241.152 214.152 257.684 232.521 276 248.424C278.352 250.467 292.492 265.808 295.342 258.678C297.609 253.007 287.567 244.341 284.927 240C277.947 228.526 276 215.204 276 202C291.516 217.516 307.27 232.746 323 248.014C326.129 251.051 335.52 262.438 340.677 259.839C345.097 257.611 340.239 251.345 338.571 249C329.786 236.648 323.19 224.619 323.004 209C322.55 170.876 334.056 134.077 348.201 99C353.572 85.6799 362.04 72.7465 366 59L338.789 92L281 165C284.322 139.273 295.436 112.581 305.862 89C310.082 79.4545 316.113 70.0227 319 60C306.527 69.1813 297.252 85.912 287.6 98C274.119 114.885 260.868 131.966 247.576 149C241.039 157.376 232.843 165.512 228 175L227 175C232.075 150.399 239.704 126.164 249.424 103C254.828 90.1216 263.153 77.3545 267 64C257.294 71.1444 250.219 83.5633 242.789 93C227.828 112.002 212.638 130.839 197.881 150C191.048 158.873 182.388 175.323 172.7 180.972C168.657 183.329 161.525 182 157 182C152.111 182 145.65 183.089 141 181.397C135.718 179.475 131.165 173.904 127 170.282C117.317 161.86 107.597 153.47 98 144.95C91.4878 139.169 77.8604 131.39 77.0586 122C76.1609 111.486 83.3558 100.23 87.7446 91C97.1072 71.3102 108.973 49.928 115 29C94.3095 29 73.7313 27 53 27C48.4752 27 35.8057 24.8299 33.0864 29.4182C31.2648 32.4919 44.216 44.2395 46.2184 48C56.926 68.1094 64.8271 90.8442 70.1011 113C72.6081 123.532 70.8181 135.36 70.0895 146C69.0518 161.153 69.3862 176.836 69.0147 192C67.8234 240.625 71 289.243 71 338z"/>
<path style="fill:#ffffff; stroke:none;" d="M44 33C57.6462 55.1131 68.1086 79.5343 74 105L75 105L106 35C86.7428 30.4152 63.7607 33 44 33M340 100C326.45 118.849 311.421 136.81 296.997 155C290.797 162.819 280.337 172.166 278 182L306 182L317.258 180.972L321.881 162L333.576 121L340 100M293 101L230 182C239.474 182 260.461 185.978 268.532 180.972C274.093 177.523 273.991 167.726 275.211 162C278.254 147.709 282.704 133.838 287.333 120C289.171 114.507 294.005 106.735 293 101M241 105L181 182L220 182C221.421 164.15 227.702 145.894 233.333 129C235.653 122.041 241.605 112.272 241 105M77 136L77 228L133 186L117 169.718L77 136M280.333 165.667L280.667 166.333L280.333 165.667M225 245C221.653 235.106 218.13 225.618 218.004 215C217.929 208.693 220.576 195.807 217.512 190.318C215.778 187.21 210.958 188.001 208 188C199.339 187.996 190.66 187.842 182 188.005C178.9 188.063 174.504 188.372 173.497 192.059C172.128 197.071 181.934 203.934 185 207C197.736 219.736 210.243 234.605 225 245M225 188C238.069 206.552 259.469 227.947 278 241C273.662 230.425 271.254 220.389 270.17 209C269.468 201.626 271.286 194.704 264.42 189.603C256.734 183.894 234.462 188 225 188M277 188C276.164 195.577 283.085 200.085 288 205C299.823 216.823 311.33 231.37 325 241C318.358 224.807 313.831 205.511 318 188L277 188z"/>
</svg>
