<?xml version="1.0" standalone="yes"?>
<svg xmlns="http://www.w3.org/2000/svg" width="320" height="371">
<path style="fill:#ffffff; stroke:none;" d="M0 0L0 371L320 371L320 0L0 0z"/>
<path style="fill:#000000; stroke:none;" d="M38 15L37 50C28.0007 50 18.9991 49.9387 10 50.0008C7.40098 50.0187 1.94257 49.7379 2.46605 53.8341C2.98224 57.8733 15.1104 65.0149 17.9599 69C28.0454 83.1052 39.661 103.705 42.6713 121C45.6348 138.026 43 157.712 43 175L43 284C43 297.719 42 311.281 42 325C42 329.197 40.606 337.074 43.8534 340.377C47.8382 344.431 52.8117 333.285 55.0432 331.09C65.2827 321.021 80.0239 314.598 93 308.862C108.613 301.96 128.215 305 145 305L249 305L249 299L246 299L246 183C246 165.845 242.638 144.724 246.394 128C247.948 121.076 253.329 114.201 256.691 108C266.235 90.3955 280.457 71.2416 286 52C242.215 46.4665 196.102 51 152 51C138.116 51 122.722 52.8799 109 50.787C101.944 49.7109 95.166 44.6439 89 41.3087C72.9909 32.6494 55.4848 20.037 38 15z"/>
<path style="fill:#ffffff; stroke:none;" d="M43 24L42 50L89 51L86 58L98 54L98 53L43 24M15 55L35 87C36.9549 82.3413 38.6243 59.3762 34.3966 56.0278C30.5462 52.9782 19.7497 55 15 55M42 56L42 81C49.3199 76.1629 56.042 71.1116 64 67.2585C69.8232 64.439 76.0691 63.2208 79 57L42 56M240 299L240 182C240 157.884 242.566 133.841 234.05 111C228.056 94.9209 221.273 72.8355 207.96 61.2245C202.478 56.4435 195.803 57 189 57L151 57C128.776 57 103.063 53.3171 83.0934 65.4136C75.5271 69.9967 70.8472 82.5874 66.3997 90C61.0762 98.8727 52.2414 108.994 49.4992 119C47.4395 126.516 49 136.235 49 144L49 197L49 247C49 252.143 47.2402 261.353 50.6034 265.621C55.8334 272.259 66.9617 276.749 74 281.344C82.2837 286.752 91.5935 295.162 101 298.298C113.09 302.328 131.27 299 144 299L240 299M213 57C224.579 77.3261 235.672 96.5162 243 119L244 119L276 58L213 57M39 94L46 112L47 112L71 71C56.4062 75.2042 49.7198 84.9014 39 94M49 273L48 328L71 312.781L94 301C80.5325 291.922 64.4512 277.924 49 273z"/>
</svg>
