<?xml version="1.0" standalone="yes"?>
<svg xmlns="http://www.w3.org/2000/svg" width="456" height="371">
<path style="fill:#ffffff; stroke:none;" d="M0 0L0 371L456 371L456 0L0 0z"/>
<path style="fill:#000000; stroke:none;" d="M84 290L40 272C40 294.694 38 317.257 38 340C38 344.788 35.6166 359.068 40.4182 361.914C42.602 363.208 44.4064 361.477 45.6914 359.855C50.5245 353.752 55.9999 349.771 63 346.27C86.5232 334.507 114.25 325.783 140 320.515C149.452 318.581 160.372 320 170 320L227 320L406 320L406 314L365 314L365 180L365 139L365.649 119L379.579 94L410 41C402.965 38.9207 395.264 40.408 388 39.9105C370.795 38.7323 353.252 38 336 38C331.814 38 314.848 36.0852 313.921 42.0903C313.412 45.3864 324.542 51.4267 326.816 54.0008C335.984 64.3795 344.169 79.6954 348 93C304.469 93 260.431 93.0495 217 91.9854C206.66 91.732 196.4 90.95 186 91.0008C183.317 91.0139 176.732 90.4667 176.06 94.2354C175.435 97.7444 181.517 100.323 183.561 102.329C189.791 108.443 194.129 117.077 197.576 125C201.944 135.042 207.863 146.13 209.674 157C212.108 171.601 210 188.196 210 203C178.621 203 157.936 174.512 129 166C129 186.335 127 206.642 127 227C127 231.104 124.915 244.677 130.224 246.248C133.299 247.159 134.823 242.926 136.129 241.01C139.531 236.019 144.881 232.511 150 229.453C168.087 218.649 188.828 209 210 209L210 311L215 311L215 209L259 209L259 311L265 311L265 209L315 209L315 312L321 312L321 209L359 209L359 314L172 314L142 313.621L112 301.603L91.6034 292.351L90 275L90 229L90 154L90.4985 119L102.576 97L135 40C111.002 40 87.0559 38 63 38C58.0588 38 41.9493 35.4303 39.1366 40.4151C37.1128 44.0018 50.7584 51.936 53.1011 55.0008C65.2608 70.9081 73.0285 90.4553 80.189 109C87.3599 127.571 84 150.331 84 170L84 290z"/>
<path style="fill:#ffffff; stroke:none;" d="M52 44L73.6914 78L88 110L125 45L52 44M327 44C341.484 65.1854 353.966 86.3509 362 111L363 111L400 46L327 44M348 93L349 94L348 93M188 97C197.984 112.156 206.339 127.633 212 145L214 145C218.309 135.001 224.451 125.548 229.694 116C231.407 112.881 235.646 107.769 234.579 104.015C232.998 98.4563 226.602 98.2507 222 97.9113C210.646 97.0739 199.408 97 188 97M262 146L263 146C270.411 131.914 283.982 115.65 287 100C277.026 96.8383 265.427 96.9785 255 97C250.466 97.0093 244.783 97.2389 243.981 103.005C243.398 107.194 247.942 112.403 249.752 116C254.499 125.431 259.558 135.694 262 146M295 99L318 147L319 147L345 99C329.337 99 310.171 94.5157 295 99M351 100C341.479 116.296 326.845 135.879 321.638 154C317.532 168.29 321 188.132 321 203L359 203L359 139C359 125.677 359.513 111.26 351 100M291 106L265.498 154L265 203L315 203C315 187.612 317.31 170.157 314.671 155C311.697 137.911 301.012 121.054 293 106L291 106M239 110C232.749 124.935 220.102 138.464 215.638 154C211.532 168.29 215 188.132 215 203L259 203C259 173.094 262.602 133.353 239 110M134 176L133 234C150.083 222.331 167.248 212.682 187 206C174.212 194.889 150.246 180.779 134 176M46 281L43 352C67.8577 335.019 100.919 321.426 131 317L131 316L90 299L90 321L84 321L82.9722 297.394L72 291.576L46 281z"/>
</svg>
