<?xml version="1.0" standalone="yes"?>
<svg xmlns="http://www.w3.org/2000/svg" width="358" height="371">
<!-- <path style="fill:#ffffff; stroke:none;" d="M0 0L0 371L358 371L358 0L0 0z"/>
--><path style="fill:#000000; stroke:none;" d="M66 18L65 41C60.5303 41 40.8682 38.8999 39.9213 45.0934C39.3906 48.5642 45.8954 51.1862 47.9853 53.108C54.2939 58.909 59.9452 67.9238 62.8673 76C65.364 82.9005 63.9967 91.7621 64 99C64.0011 101.543 63.2285 106.187 65.5988 107.953C69.8551 111.125 72.0162 103.605 73 101C84.5924 121.39 82 144.464 82 167L82 285L62 271C62 293.642 60 316.368 60 339C60 343.987 57.8 358.649 62.581 361.914C66.3571 364.492 71.8895 351.335 74.0934 349.039C85.465 337.194 102.108 328.388 117 321.796C129.43 316.294 149.526 320 163 320C199.069 320 235.28 320.945 271 322C271 289.395 272.742 256.252 272.742 224C272.742 190.542 265.981 153.533 271.214 120C273.224 107.116 285.177 91.3518 291.576 80C293.733 76.1725 295.56 69.4711 299.39 67.0278C302.432 65.0876 307.547 66 311 66L311 61L302 61L312 41C305.561 39.0966 298.645 40.3656 292 39.9105C276.114 38.8226 259.93 38 244 38C239.675 38 225.734 36.1706 223.662 41.2731C222.532 44.0562 237.543 57.3879 240 61L152 61C144.869 61 128.004 62.7554 125.665 52.9066C125.017 50.1754 127.253 46.6002 128 44L106 42.1821L66 18z"/>
<path style="fill:#ffffff; stroke:none;" d="M71 29L71 42L92 42L92 41L71 29M235 44C238.156 48.5336 242.718 57.064 247.379 59.9722C254.88 64.6533 274.212 61 283 61C286.285 61 291.515 61.96 294.363 59.9722C298.018 57.4202 300.701 50.1061 302 46L235 44M52 47L63 63L64 63L65 47L52 47M70 47C70 62.4312 70.7988 74.3041 75 89C89.9779 85.1149 112.095 71.0975 115 55C100.105 47.9554 86.6841 47.046 70 47M117.667 49.3333L118.333 49.6667L117.667 49.3333M120 59L117 67L126 64L120 59M265 314L265 227L191 227C180.86 227 166.46 224.409 157 228.363C145.44 233.196 132.294 242.475 124.213 252C122.405 254.131 118.63 264.912 115.26 263.654C112.521 262.632 112.736 257.336 112.424 255C111.179 245.661 113 236.353 113 227C113 189.038 107.174 151.19 112 113L142 138.424L157 150.258L190 151L265 151C265 127.844 262.523 110.634 253.799 89C251.252 82.6826 248.586 72.2079 243.363 67.6034C237.665 62.5812 218.391 66 211 66L155 66C140.715 66 124.284 66.5118 112.39 75.9938C105.706 81.3227 101.63 94.4665 97.7415 102C94.3952 108.483 89.6463 114.922 87.6373 122C84.53 132.948 87 147.643 87 159L87 236L87 273C87 277.568 85.7314 284.427 87.6034 288.675C91.1226 296.66 110.352 308.182 118 312.348C128.384 318.004 149.304 314 161 314L265 314M250 66L268 110L292 66L250 66M101 81C86.3128 89.6615 73.5746 94.8434 85 113C90.0419 105.355 101.098 90.1706 101 81M69 90L69 96L70 96L69 90M117 125L116 179L151 154L151 153L117 125M265 221L265 157L188 157C174.921 157 160.703 154.734 149 161.427C141.848 165.518 120.478 176.466 120.346 185.961C120.304 188.959 124.017 191.273 126.001 193C131.937 198.167 138.012 203.166 144 208.272C148.553 212.154 153.384 217.87 159 220.142C167.642 223.637 181.736 221 191 221L265 221M119 195L118 249L153 224L153 223L119 195M67 282L66 348L67 348C77.1802 334.915 98.0266 321.602 114 317L114 316L87 297L87 325L82 325C82 316.5 85.0682 300.626 80.9722 293.093C78.4242 288.407 71.4213 284.753 67 282z"/>
</svg>
