<?xml version="1.0" standalone="no"?>
<!DOCTYPE svg PUBLIC "-//W3C//DTD SVG 20010904//EN"
 "http://www.w3.org/TR/2001/REC-SVG-20010904/DTD/svg10.dtd">
<svg version="1.0" xmlns="http://www.w3.org/2000/svg"
 width="358.000000pt" height="371.000000pt" viewBox="0 0 358.000000 371.000000"
 preserveAspectRatio="xMidYMid meet">
<metadata>
Created by potrace 1.16, written by Peter Selinger 2001-2019
</metadata>
<g transform="translate(0.000000,371.000000) scale(0.100000,-0.100000)"
fill="#000000" stroke="none">
<path d="M656 3452 c-3 -37 -6 -88 -6 -114 l0 -48 -109 0 c-60 0 -116 -3 -125
-6 -29 -11 -18 -43 23 -63 51 -26 95 -79 154 -184 l47 -85 0 -147 c0 -82 5
-155 10 -166 18 -32 40 -22 61 28 11 26 23 42 28 37 4 -5 24 -55 44 -112 l37
-103 0 -820 0 -819 -96 71 c-53 39 -98 68 -101 65 -3 -2 -6 -204 -6 -448 l-2
-443 24 0 c19 0 26 7 32 29 26 96 192 225 453 352 l90 44 717 0 c628 0 718 -2
723 -15 3 -8 15 -15 26 -15 20 0 20 4 20 475 0 310 3 475 10 475 6 0 10 14 10
30 0 17 -4 30 -10 30 -7 0 -10 177 -10 510 l0 510 141 265 141 265 64 0 c62 0
64 1 64 25 0 23 -3 25 -51 25 l-51 0 52 96 c28 53 49 99 46 101 -20 20 -844
31 -864 11 -20 -20 -13 -38 21 -53 43 -18 137 -119 137 -147 0 -5 -239 -8
-530 -8 l-531 0 -55 35 -54 35 24 49 25 48 -67 7 c-37 3 -88 6 -114 6 -42 0
-64 11 -224 111 -98 61 -186 115 -195 119 -14 8 -17 0 -23 -58z m178 -97 l97
-60 -112 -3 c-61 -1 -114 0 -117 2 -2 3 -1 35 3 71 5 48 10 63 19 58 7 -5 56
-35 110 -68z m2168 -103 l26 -7 -40 -72 -40 -73 -244 0 c-137 0 -244 4 -244 9
0 5 -25 44 -56 87 l-55 77 313 -7 c173 -4 326 -10 340 -14z m-2352 -51 c0 -21
-3 -59 -6 -85 l-7 -47 -35 53 c-19 29 -48 68 -65 86 l-31 32 72 0 72 0 0 -39z
m300 30 c87 -6 100 -9 153 -43 l57 -38 -42 -78 c-42 -78 -44 -80 -126 -122
-45 -23 -117 -64 -159 -92 -41 -27 -76 -48 -78 -46 -1 2 -16 36 -33 76 -31 74
-31 74 -25 213 l6 139 76 -1 c42 -1 119 -4 171 -8z m240 -21 c0 -5 -4 -10 -9
-10 -6 0 -13 5 -16 10 -3 6 1 10 9 10 9 0 16 -4 16 -10z m51 -107 c16 -10 29
-20 29 -24 0 -7 -103 -49 -108 -44 -5 4 37 85 44 85 3 0 19 -8 35 -17z m1246
-160 c28 -60 76 -176 107 -260 l56 -152 0 -166 0 -165 -543 0 -543 0 -218 186
c-120 102 -220 183 -224 179 -4 -4 -9 -180 -11 -391 -2 -301 0 -388 10 -400
10 -12 12 -91 10 -353 -2 -297 -1 -339 13 -350 19 -16 46 1 46 28 0 66 149
202 341 310 l56 31 531 0 532 0 0 -435 0 -435 -726 0 -726 0 -164 121 -164
121 0 841 0 842 121 229 c111 209 124 229 158 244 20 8 72 30 116 48 l80 34
546 0 546 0 50 -107z m360 -35 c-41 -79 -96 -181 -121 -228 l-45 -84 -11 29
c-6 17 -27 73 -47 125 -20 52 -53 136 -75 185 -22 50 -42 96 -45 103 -4 9 41
12 207 12 l212 0 -75 -142z m-1888 -135 c-39 -76 -81 -153 -92 -172 l-20 -33
-33 88 c-19 49 -34 92 -34 96 0 13 227 157 248 158 2 0 -29 -62 -69 -137z
m-251 18 c8 -23 7 -32 -4 -42 -12 -10 -14 -5 -14 30 0 49 4 51 18 12z m639
-473 c153 -131 164 -143 147 -155 -10 -8 -62 -41 -114 -74 -52 -34 -123 -89
-157 -122 l-63 -60 0 209 c0 192 7 344 17 344 2 0 78 -64 170 -142z m1303
-498 l0 -320 -532 0 -533 0 -200 171 c-110 94 -201 172 -203 173 -1 2 16 24
39 50 53 60 137 124 251 192 l92 54 543 0 543 0 0 -320z m-1123 -346 c2 -6 -9
-16 -24 -23 -56 -25 -197 -125 -259 -184 l-64 -59 0 153 c0 85 3 211 7 280 l6
127 165 -142 c91 -78 167 -146 169 -152z m-777 -636 l70 -52 0 -163 0 -163 25
0 25 0 0 140 c0 77 3 140 6 140 3 0 64 -43 135 -96 l130 -96 -115 -64 c-146
-80 -255 -153 -317 -213 l-49 -47 0 160 c0 176 11 506 17 506 2 0 35 -24 73
-52z"/>
</g>
</svg>
