<?xml version="1.0" standalone="yes"?>
<svg xmlns="http://www.w3.org/2000/svg" width="289" height="371">
<path style="fill:#ffffff; stroke:none;" d="M0 0L0 371L289 371L289 0L0 0z"/>
<path style="fill:#000000; stroke:none;" d="M184 67L109 67L111 61C87.3011 61 63.6898 59 40 59C34.8313 59 19.3317 56.4861 16.0864 61.5486C13.6749 65.3105 26.2909 72.3004 28.5355 75.0038C39.7994 88.5703 46.9109 105.779 53.3997 122C61.3831 141.958 60 164.652 60 186C60 219.383 59.9465 252.739 60 286C60.0226 300.059 58.9991 313.97 59 328C59.0002 331.808 57.8934 340.394 61.5841 342.928C66.3518 346.202 68.1482 336.406 69.804 334C76.793 323.846 89.4637 317.023 100 311.154C109.992 305.589 123.845 308 135 308L211 308L211 342L216 342L216.821 184L216 139L216.702 119L232.333 95L275 32C243.718 31.9138 212.304 29.002 181 29C173.584 28.9995 166.37 29.0774 159 29.831C156.473 30.0894 151.903 29.5898 151.466 33.0903C150.923 37.4378 159.265 38.8898 162 40.8002C171.325 47.3133 178.133 57.4566 184 67z"/>
<path style="fill:#ffffff; stroke:none;" d="M166 35L166 36C188.379 53.0515 202.55 84.5279 213 110L215 110L264 37L166 35M29 65C40.2728 83.0412 52.0339 99.5354 59 120L60 120L61 90L80 105L101 67L29 65M85 110L105 125.258L138 126L211 126C210.885 112.328 201.729 98.9512 195.753 87C193.728 82.9499 191.729 76.4881 187.671 74.0278C180.545 69.7068 163.257 73 155 73L121 73C116.604 73 110.303 71.8687 106.185 73.6034C102.558 75.1315 100.851 79.8301 98.9892 83C94.1511 91.2361 86.7123 100.512 85 110M66 102L65 129L66 129C71.882 117.948 80.7184 109.596 66 102M81 114C74.7401 124.615 64.1822 137.084 68 150L99 129L81 114M211 181L211 132L139 132C128.551 132 115.07 129.744 105 132.638C96.7152 135.019 87.7766 141.707 81.0008 146.899C78.8538 148.544 75.2068 150.911 75.2068 153.989C75.2068 160.663 94.062 172.046 99 176.076C108.255 183.627 121.655 181 133 181L211 181M68 159L67 206L99 183L68 159M71 211L71 212C80.4165 220.22 93.2077 235.193 105 239.4C114.109 242.651 128.351 240 138 240L211 240L211 187L140 187C129.53 187 116.098 184.768 106 187.637C93.4123 191.214 80.1567 202.033 71 211M67 217L67 265L98 244C93.3464 234.227 76.5708 221.939 67 217M70 273C80.9383 281.244 92.9962 296.936 106 301.411C115.222 304.585 129.269 302 139 302L211 302L211 246L139 246C128.762 246 114.769 243.527 105 246.699C93.5796 250.407 75.1192 262.024 70 273M67 278L67 326L99 305L67 278z"/>
</svg>
