<?xml version="1.0" standalone="yes"?>
<svg xmlns="http://www.w3.org/2000/svg" width="405" height="371">
<!-- <path style="fill:#ffffff; stroke:none;" d="M0 0L0 371L405 371L405 0L0 0z"/>
--><path style="fill:#000000; stroke:none;" d="M70 19L68 70C60.6447 70 53.2987 69.7141 46.0008 70.7191C43.8829 71.0108 39.6358 70.9557 39.6358 74.0394C39.6358 77.5063 54.9834 84.8948 57.9105 88.0038C63.6927 94.1455 64.7665 101.43 69.1782 107.416C76.145 116.869 84.8419 124.595 88.3627 137C92.509 151.609 87.3846 171.899 87.0147 187C86.2107 219.819 89 252.14 89 285L66 272C65.9375 294.652 64 317.286 64 340C64 344.469 61.6474 359.287 66.4151 361.673C69.8473 363.39 78.1522 349.803 81 347.465C94.9609 336.002 114.727 326.2 132 320.904C147.882 316.035 170.399 320 187 320C228.058 320 269.295 320.798 310 322L310 186C310 165.477 306.359 141.12 310.275 121C312.914 107.438 327.337 91.6529 334.681 80C337.251 75.9234 339.848 69.4956 344.184 67.0278C347.888 64.9204 353.877 66 358 66L358 61L347 61L358 41C350.373 38.7455 341.881 40.4502 334 39.9105C315.804 38.6644 297.246 38 279 38C274.727 38 256.245 35.9963 255.466 42.0401C255.021 45.4915 259.79 46.5994 262.001 47.9938C267.139 51.2355 271.353 56.2132 275 61L191 61C178.76 61 162.792 63.7132 151 60.3627C122.253 52.1944 98.8298 27.3053 70 19z"/>
<path style="fill:#ffffff; stroke:none;" d="M75 28L74 70C87.5423 72.5141 107.445 73.3317 121 70.6211C127.833 69.2546 134.157 65.5831 141 64L121 51.7562L75 28M269 44C272.22 48.5757 278.161 58.1207 283.325 60.3966C293.619 64.9332 313.729 61 325 61C329.062 61 335.148 62.0995 338.79 59.9722C343.106 57.452 346.095 50.4159 348 46L269 44M136 71L136 72L144 72C132.452 86.55 121.253 101.382 109.79 116C105.119 121.958 96.8388 129.401 95.2785 137C91.196 156.884 103.001 161.622 118 170.811C127.486 176.622 138.28 186.416 149 189.49C163.196 193.56 183.218 190 198 190C198 172.012 200.63 151.736 197.674 134C195.632 121.743 189.277 109.346 184.421 98C179.383 86.2277 172.678 70.0819 159 66.4954C151.324 64.4827 143.32 69.3065 136 71M204 190L304 190C304 167.318 307.558 141.328 303.671 119C302.028 109.562 296.443 99.5413 292.244 91C288.982 84.365 285.083 71.0665 278.621 67.0278C272.2 63.0143 256.477 65.9966 249 66C245.973 66.0014 242.095 65.4373 239.637 67.6034C234.474 72.1544 230.879 82.8608 227.756 89C220.507 103.252 208.679 118.547 204.498 134C200.06 150.409 204 172.979 204 190M286 66L308 111L336 66L286 66M173 67C184.475 85.4274 196.025 104.495 201 126L202 126L231 69L173 67M55 76L55 77L68 89L68 76L55 76M74 76L74 96L105 78L74 76M92 129C106.768 114.965 120.765 95.0017 132 78C117.298 75.2706 102.261 84.2954 90 91.8109C86.1725 94.1571 78.6068 97.864 78.2523 103.001C77.7699 109.992 88.4395 122.963 92 129M95 164L95 218L142 193L142 192L95 164M198 314L198 196C182.79 196 164.91 193.397 150 196.379C139.73 198.433 129.278 204.576 120 209.248C112.034 213.259 100.22 218.629 96.0278 227C92.0611 234.921 95 250.223 95 259C95 266.362 91.7201 284.459 96.6034 290.24C100.324 294.645 107.153 297.557 112 300.576C118.678 304.736 126.296 311.675 134 313.581C153.048 318.293 178.346 314 198 314M204 196L204 314L304 314L304 196L204 196M71 282L70 348L95 331.258L126 316L96 297L95 297L89 299C88.705 289.936 78.5668 285.265 71 282z"/>
</svg>
