<?xml version="1.0" standalone="yes"?>
<svg xmlns="http://www.w3.org/2000/svg" width="447" height="371">
<!-- <path style="fill:#ffffff; stroke:none;" d="M0 0L0 371L447 371L447 0L0 0z"/>
--><path style="fill:#000000; stroke:none;" d="M24 25C24.5977 32.6924 39.2167 38.5657 44.3341 45C57.338 61.3503 67.3961 81.6439 75.135 101C81.5329 117.002 77 141.865 77 159C77 201.735 80.7216 246.563 75.7145 289C73.8723 304.613 73.9747 321.27 74 337C74.0056 340.502 73.2333 350.732 77.2994 352.338C80.6517 353.662 93.8471 338.819 98 336.428C118.032 324.897 143.362 315.311 166 310.518C188.726 305.706 216.749 310 240 310L393 310L393 305L374 305L374 170C374 149.684 370.078 124.829 374.39 105C376.044 97.3961 382.103 89.6542 386.011 83C396.433 65.2545 411.793 45.6136 418 26C386.817 26 352.916 19.2607 322 25C322.556 32.1602 331.239 34.816 335.7 40.0008C343.847 49.4705 349.62 61.6089 354.576 73C359.218 83.6704 365.745 95.4467 367.674 107C371.106 127.553 368 151.149 368 172L287 172C275.764 172 260.807 174.602 250 171.49C238.931 168.303 227.484 157.11 218 150.656C208.747 144.36 189.407 135.796 184.028 125.907C181.926 122.042 182.784 115.272 183.044 111C183.55 102.695 190.943 94.8394 195.192 88C206.733 69.4232 225.403 48.8395 232 28C186.14 28 139.898 26.11 94 24.9854C71.3825 24.4312 46.4098 20.8398 24 25z"/>
<path style="fill:#ffffff; stroke:none;" d="M39 30L39 31C61.7783 47.0898 64.4364 77.006 81 97L125 31L39 30M336 30C350.115 50.6453 361.913 71.0961 370 95L372 95C383.78 75.7534 401.642 52.6144 408 31L336 30M142 32L164.691 65L181 99C193.943 77.9289 213.249 56.089 222 33L142 32M177 305C177 258.956 175.456 213.016 176.004 167C176.29 142.941 181.824 115.534 171.694 93C164.503 77.0015 157.25 59.8795 146.331 46C143.431 42.3138 136.817 33.0651 131.184 34.7122C124.24 36.7426 116.262 54.1068 112.333 60C103.453 73.32 88.7646 88.8128 83.7022 104C79.9386 115.291 83 132.12 83 144L83 230C83 239.228 79.6748 256.258 83.6034 264.61C86.2519 270.24 100.572 274.039 106 276.753C127.25 287.378 153.024 305 177 305M183 135L183 210C202.239 196.607 220.059 184.002 242 175L242 174L183 135M183 305L368 305L368 178L288 178C275.686 178 261.049 175.828 249 178.39C239.663 180.375 230.463 186.511 222 190.753C209.375 197.082 191.295 205.787 184.688 219C180.963 226.451 183 237.869 183 246L183 305M83 272L80 341C102.189 327.182 128.572 311.903 155 308L155 307L83 272z"/>
</svg>
