<?xml version="1.0" standalone="no"?>
<!DOCTYPE svg PUBLIC "-//W3C//DTD SVG 20010904//EN"
 "http://www.w3.org/TR/2001/REC-SVG-20010904/DTD/svg10.dtd">
<svg version="1.0" xmlns="http://www.w3.org/2000/svg"
 width="467.000000pt" height="371.000000pt" viewBox="0 0 467.000000 371.000000"
 preserveAspectRatio="xMidYMid meet">
<metadata>
Created by potrace 1.16, written by Peter Selinger 2001-2019
</metadata>
<g transform="translate(0.000000,371.000000) scale(0.100000,-0.100000)"
fill="#000000" stroke="none">
<path d="M3065 3432 c-44 -6 -50 -10 -50 -31 0 -21 7 -27 46 -36 134 -35 293
-219 483 -561 l66 -119 0 -922 0 -923 -540 0 -540 0 0 734 0 735 185 288 185
288 -127 6 c-71 4 -248 7 -394 8 -222 1 -269 -1 -279 -14 -16 -19 -7 -31 45
-54 75 -33 178 -188 280 -420 l45 -104 0 -733 0 -734 -510 0 -510 0 0 921 0
920 291 356 c159 195 288 357 285 360 -8 9 -539 22 -877 23 -250 0 -319 -3
-334 -14 -24 -18 -13 -44 22 -51 136 -28 318 -235 502 -571 l61 -111 0 -917 0
-916 -52 0 c-52 0 -61 5 -421 236 -202 130 -370 235 -372 232 -8 -8 -28 -896
-21 -951 8 -60 24 -79 50 -58 7 6 16 24 19 39 18 92 243 244 570 386 l128 56
1299 0 1300 0 0 30 0 30 -120 0 -120 0 0 929 0 928 290 354 c159 195 290 357
290 360 0 12 -1095 31 -1175 21z m898 -61 l177 -6 -241 -295 c-132 -162 -247
-301 -254 -308 -10 -11 -22 4 -64 83 -91 169 -208 333 -311 438 l-97 97 306
-1 c168 -1 386 -4 484 -8z m-2082 -20 l46 -6 -246 -302 c-135 -166 -249 -302
-252 -302 -3 -1 -39 58 -80 129 -121 213 -264 400 -363 472 l-41 30 445 -7
c245 -4 466 -10 491 -14z m815 -510 l111 -6 -148 -230 c-81 -126 -150 -230
-153 -230 -3 0 -37 64 -75 141 -77 158 -122 233 -177 293 l-36 41 183 -1 c101
-1 234 -4 295 -8z m-1775 -1822 c173 -111 316 -203 318 -205 2 -2 -7 -8 -21
-13 -77 -29 -267 -121 -358 -174 -125 -72 -158 -95 -228 -161 l-54 -51 6 205
c14 482 18 600 21 600 2 0 144 -90 316 -201z"/>
</g>
</svg>
