<?xml version="1.0" standalone="yes"?>
<svg xmlns="http://www.w3.org/2000/svg" width="467" height="371">
<path style="fill:#ffffff; stroke:none;" d="M0 0L0 371L467 371L467 0L0 0z"/>
<path style="fill:#000000; stroke:none;" d="M361 287L253 287L253 188C253 174.108 249.683 155.348 253.51 142C259.826 119.97 283.015 103.919 290 82C270.015 82 249.982 80 230 80C225.417 80 213.085 78.0843 210.086 82.5702C207.645 86.2222 218.798 91.7899 220.907 94.0154C231.647 105.351 238.62 121.684 244.396 136C250.186 150.353 247 169.698 247 185L247 287L145 287L145 158L145 121L145.938 104L161.576 84L204 31C194.818 28.286 183.544 30.1097 174 29.9962C153.114 29.7477 130.746 30.7333 110 28.2855C102.609 27.4134 95.3739 28.9382 88 29.0008C85.6193 29.021 81.4922 28.6013 80.2562 31.2739C78.7397 34.553 96.1931 42.4892 99 45.0903C115.251 60.1491 129.102 81.825 138.201 102C144.799 116.63 140 142.042 140 158L140 287C128.257 286.992 120.636 280.179 111 274.192C92.7507 262.854 74.7206 247.509 55 239C55 264.67 53 290.285 53 316C53 321.198 50.3177 337.854 55.4151 340.914C58.7587 342.92 68.8717 327.031 72 324.465C87.4409 311.798 112.188 297.342 132 293.379C140.792 291.62 151.047 293 160 293L216 293L390 293L390 287L366 287L366 159L366 121C366 115.475 364.796 108.249 366.738 103C369.419 95.7564 377.191 88.8924 382.081 83C395.623 66.6827 416.185 48.2439 425 29C393.987 29 363.031 27 332 27C326.037 27 304.648 23.7881 301.137 29.5455C298.956 33.1212 316.212 40.5081 319 43.0903C335.257 58.1486 346.976 77.5252 357.219 97C365.511 112.765 361 137.486 361 155L361 287z"/>
<path style="fill:#ffffff; stroke:none;" d="M318 33L334.334 50L363 95L382.25 73L413 35L379 33.9962L318 33M96 34L96 35C116.131 47.5918 132.999 75.3864 142 97L166.611 68L192 36L96 34M223 86C233.31 101.602 243.168 116.391 250 134L251 134L280 87L223 86M60 249L59 327C79.9178 312.323 99.8401 300.961 123 290C106.256 273.964 80.2699 260.285 60 249z"/>
</svg>
