<?xml version="1.0" standalone="yes"?>
<svg xmlns="http://www.w3.org/2000/svg" width="337" height="371">
<path style="fill:#ffffff; stroke:none;" d="M0 0L0 371L337 371L337 0L0 0z"/>
<path style="fill:#000000; stroke:none;" d="M79 340L85 340L85 187L85 140L85.51 117L96.9992 99L129 51L131 51C142.056 73.2255 160.076 93.3494 166.39 118C168.288 125.409 167 134.387 167 142L167 189L167 340L173 340L173 189L173 141L173.419 118L186.576 97L216 53C223.927 59.0809 228.541 69.4674 233.421 78C240.352 90.1159 249.86 105.199 252.621 119C254.808 129.933 253 142.858 253 154L253 340L259 340L259 186L259 139L259.513 117L276.576 91L317 31C294.631 28.173 271.539 29.5376 249 28.9854C196.025 27.6873 143.011 29 90 29C72.306 29 54.7236 27.9989 37 28C33.1844 28.0002 21.4708 26.8506 19.662 31.2739C18.7857 33.417 20.422 34.9064 22.1481 35.7793C29.2786 39.3851 34.3784 43.0311 39.9097 49C56.4037 66.7987 70.4262 94.0044 78.0455 117C80.3456 123.942 79 132.757 79 140L79 186L79 340z"/>
<path style="fill:#ffffff; stroke:none;" d="M34 34L34 35C55.7456 50.3179 72.5784 84.2675 81 109L83 109L126 46C116.824 34.0381 103.577 35.0009 90 35C71.3881 34.9988 52.6843 34 34 34M170 109C183.475 96.651 193.434 76.1852 203.67 61C206.479 56.8323 214.426 49.5062 210.512 44.2894C199.845 30.0756 169.702 34 154 34C146.146 34 136.495 33.7574 134.931 44C134.087 49.5196 142.442 57.5483 145.308 62C154.96 76.9928 161.076 93.7072 170 109M255 109L270.424 89L306 36C284.671 36 263.318 34 242 34C233.643 34 222.914 34.8802 221.867 46C221.36 51.3792 229.678 59.4893 232.399 64C240.795 77.9181 250.474 93.2876 255 109M125 36L130 40L132 36L125 36M211 36L217 42L220 36L211 36z"/>
</svg>
