<?xml version="1.0" standalone="no"?>
<!DOCTYPE svg PUBLIC "-//W3C//DTD SVG 20010904//EN"
 "http://www.w3.org/TR/2001/REC-SVG-20010904/DTD/svg10.dtd">
<svg version="1.0" xmlns="http://www.w3.org/2000/svg"
 width="473.000000pt" height="371.000000pt" viewBox="0 0 473.000000 371.000000"
 preserveAspectRatio="xMidYMid meet">
<metadata>
Created by potrace 1.16, written by Peter Selinger 2001-2019
</metadata>
<g transform="translate(0.000000,371.000000) scale(0.100000,-0.100000)"
fill="#000000" stroke="none">
<path d="M1075 3333 c-16 -3 -37 -11 -45 -18 -12 -11 -61 -11 -265 -3 -285 11
-401 6 -424 -18 -18 -17 -16 -19 59 -67 69 -45 162 -223 284 -547 l51 -135 3
-665 c2 -366 -1 -852 -7 -1080 -6 -228 -7 -433 -3 -455 5 -30 12 -41 29 -43
16 -2 24 5 33 32 24 75 172 176 416 284 l129 57 1363 3 1362 2 0 -125 0 -125
25 0 25 0 0 1029 0 1030 196 386 c108 212 194 388 192 391 -19 19 -795 32
-829 14 -30 -16 -23 -38 20 -60 22 -10 53 -36 70 -57 65 -78 173 -314 261
-570 37 -107 40 -123 40 -224 l0 -109 -225 0 -225 0 0 53 0 53 156 193 c86
106 154 195 151 198 -6 5 -542 11 -1384 15 -461 2 -573 0 -586 -10 -20 -17
-12 -39 19 -46 38 -10 89 -61 142 -144 52 -81 122 -214 122 -232 0 -5 -78 51
-172 125 l-173 135 -6 -127 c-9 -171 -11 -547 -3 -567 12 -31 39 -17 62 33 27
59 92 118 212 190 l85 52 3 -181 c1 -100 1 -260 0 -355 l-3 -175 -170 134
-170 133 -8 -81 c-4 -44 -6 -202 -5 -351 3 -268 3 -270 25 -273 17 -3 23 3 28
29 10 46 102 134 205 197 46 29 88 52 92 52 4 0 8 -130 8 -290 l0 -290 -375 0
-375 0 0 936 0 936 196 355 c108 195 194 356 192 358 -4 4 -660 25 -723 24
-27 -1 -63 -4 -80 -6z m573 -60 c99 -4 142 -10 140 -18 -7 -28 -324 -593 -329
-587 -3 4 -23 54 -44 110 -50 136 -162 365 -208 424 -58 75 -52 78 137 78 88
0 225 -3 304 -7z m-550 -28 c7 -7 -57 -139 -215 -444 -65 -125 -114 -210 -117
-201 -101 288 -206 521 -276 609 l-43 54 323 -6 c178 -4 325 -9 328 -12z
m3125 -14 c103 -5 190 -11 192 -13 3 -3 -70 -152 -161 -333 l-167 -328 -42
119 c-89 250 -170 423 -243 512 l-42 52 137 0 c76 -1 223 -5 326 -9z m-3003
-147 c47 -83 134 -280 179 -407 l31 -89 0 -929 c0 -878 -1 -929 -17 -928 -10
0 -153 83 -318 183 l-300 183 -3 703 -2 703 177 349 c203 397 173 371 253 232z
m1215 -378 c19 -8 35 -20 35 -26 0 -12 -192 -289 -200 -290 -3 0 -21 30 -39
68 -47 95 -100 181 -139 224 l-34 38 171 0 c127 0 181 -4 206 -14z m423 -6
c23 -10 42 -24 42 -30 0 -6 -42 -62 -92 -124 l-93 -114 -52 87 c-29 47 -67
105 -84 128 -49 65 -36 73 115 73 98 0 129 -4 164 -20z m362 10 c71 0 92 -4
111 -19 l23 -18 -104 -147 -103 -147 -52 100 c-29 54 -67 119 -85 144 -32 45
-33 47 -15 73 16 25 20 26 78 20 33 -3 99 -6 147 -6z m597 -4 c3 -2 -217 -271
-225 -273 -4 -2 -20 23 -37 55 -16 31 -51 85 -77 120 -82 108 -76 112 156 105
99 -3 182 -6 183 -7z m-1229 -164 c80 -124 102 -175 102 -232 l0 -50 -188 0
c-197 0 -212 3 -212 45 0 12 50 92 111 178 88 125 114 155 125 146 7 -6 35
-45 62 -87z m479 -123 c29 -58 53 -118 53 -133 l0 -26 -190 0 -190 0 0 60 0
61 101 125 101 126 36 -53 c19 -30 59 -101 89 -160z m367 164 c19 -27 55 -84
81 -129 39 -69 45 -89 45 -137 l0 -57 -195 0 -195 0 0 31 c0 24 27 69 108 185
59 85 110 154 114 154 4 0 23 -21 42 -47z m-1194 -334 c0 -4 -26 -22 -57 -40
-87 -49 -173 -108 -220 -152 l-43 -40 0 75 c0 41 3 149 7 240 l6 166 154 -120
c84 -67 153 -124 153 -129z m450 -444 l0 -405 -182 0 c-136 1 -187 4 -200 14
-17 12 -18 44 -18 405 l0 391 200 0 200 0 0 -405z m430 0 l0 -405 -190 0 -190
0 0 405 0 405 190 0 190 0 0 -405z m440 0 l0 -405 -195 0 -195 0 0 405 0 405
195 0 195 0 0 -405z m500 0 l0 -405 -225 0 -225 0 0 405 0 405 225 0 225 0 0
-405z m-1957 -295 c75 -58 136 -112 136 -121 1 -9 -11 -21 -26 -28 -53 -24
-199 -124 -240 -164 l-43 -41 0 169 c0 213 8 307 25 297 7 -4 74 -54 148 -112z
m587 -470 l0 -310 -200 0 -200 0 0 303 c0 167 3 307 7 310 3 4 93 7 200 7
l193 0 0 -310z m430 0 l0 -310 -190 0 -190 0 0 310 0 310 190 0 190 0 0 -310z
m440 0 l0 -310 -195 0 -195 0 0 310 0 310 195 0 195 0 0 -310z m500 0 l0 -310
-225 0 -225 0 0 310 0 310 225 0 225 0 0 -310z m-2763 -316 c2 -6 -27 -23 -64
-39 -183 -76 -358 -175 -427 -241 l-29 -28 6 33 c4 19 7 159 7 312 l0 278 252
-152 c138 -84 253 -158 255 -163z"/>
</g>
</svg>
