<?xml version="1.0" standalone="no"?>
<!DOCTYPE svg PUBLIC "-//W3C//DTD SVG 20010904//EN"
 "http://www.w3.org/TR/2001/REC-SVG-20010904/DTD/svg10.dtd">
<svg version="1.0" xmlns="http://www.w3.org/2000/svg"
 width="467.000000pt" height="371.000000pt" viewBox="0 0 467.000000 371.000000"
 preserveAspectRatio="xMidYMid meet">
<metadata>
Created by potrace 1.16, written by Peter Selinger 2001-2019
</metadata>
<g transform="translate(0.000000,371.000000) scale(0.100000,-0.100000)"
fill="#000000" stroke="none">
<path d="M815 3406 c-24 -18 -13 -44 22 -51 136 -28 318 -235 502 -571 l61
-111 0 -917 0 -916 -52 0 c-52 0 -61 5 -421 236 -202 130 -370 235 -372 232
-8 -8 -28 -896 -21 -951 8 -60 24 -79 50 -58 7 6 16 24 19 39 18 92 243 244
570 386 l128 56 1299 0 1300 0 0 30 0 30 -100 0 -100 0 0 511 0 511 221 385
c121 211 219 387 216 390 -3 2 -96 9 -208 14 -111 4 -203 10 -204 11 -1 2 91
145 206 318 114 173 208 320 209 326 0 20 -908 35 -938 15 -25 -15 -8 -44 33
-58 88 -30 183 -157 311 -418 46 -93 84 -173 84 -177 0 -5 -94 -8 -208 -8
-210 0 -232 -4 -232 -37 0 -8 19 -22 43 -32 100 -43 218 -237 364 -596 l48
-120 3 -517 3 -518 -561 0 -560 0 0 734 0 735 185 288 185 288 -127 6 c-71 4
-248 7 -394 8 -222 1 -269 -1 -279 -14 -16 -19 -7 -31 45 -54 75 -33 178 -188
280 -420 l45 -104 0 -733 0 -734 -510 0 -510 0 0 921 0 920 291 356 c159 195
288 357 285 360 -8 9 -539 22 -877 23 -250 0 -319 -3 -334 -14z m1066 -55 l46
-6 -246 -302 c-135 -166 -249 -302 -252 -302 -3 -1 -39 58 -80 129 -121 213
-264 400 -363 472 l-41 30 445 -7 c245 -4 466 -10 491 -14z m2167 -86 c3 -2
-80 -133 -184 -291 -171 -260 -189 -285 -197 -263 -6 13 -40 87 -77 164 -75
156 -165 297 -230 364 l-43 44 363 -7 c200 -4 366 -9 368 -11z m-1352 -424
l111 -6 -148 -230 c-81 -126 -150 -230 -153 -230 -3 0 -37 64 -75 141 -77 158
-122 233 -177 293 l-36 41 183 -1 c101 -1 234 -4 295 -8z m963 -248 c9 -16 10
-16 16 -2 5 14 24 16 143 12 75 -2 160 -6 188 -9 l51 -5 -184 -322 c-102 -177
-188 -325 -192 -330 -4 -4 -26 44 -50 105 -90 235 -201 440 -284 526 l-41 42
171 0 c153 0 173 -2 182 -17z m-2738 -1574 c173 -111 316 -203 318 -205 2 -2
-7 -8 -21 -13 -77 -29 -267 -121 -358 -174 -125 -72 -158 -95 -228 -161 l-54
-51 6 205 c14 482 18 600 21 600 2 0 144 -90 316 -201z"/>
</g>
</svg>
