<?xml version="1.0" standalone="yes"?>
<svg xmlns="http://www.w3.org/2000/svg" width="274" height="371">
<path style="fill:#ffffff; stroke:none;" d="M0 0L0 371L274 371L274 0L0 0z"/>
<path style="fill:#000000; stroke:none;" d="M79 340L85 340L85 187L85 140L85.51 117L98.3333 97L133 46L134 46L165 109L131 109C128.235 109.001 121.532 108.1 120.921 112.093C120.48 114.978 124.083 116.248 126.005 117.398C131.136 120.471 134.922 125.106 138.254 130C150.244 147.613 160.556 170.435 166.215 191C170.143 205.279 167 224.211 167 239L167 340L172 340L172 238L172.418 190L185.579 166L217 111L174 109L217 33C189.395 33 161.572 31.2468 134 30.0394C113.478 29.1407 92.4379 30.7752 72 28.8302C59.3868 27.6299 46.6827 27.9396 34 28.0008C30.5455 28.0174 22.3882 27.487 20.0471 30.5872C17.3334 34.1808 34.2112 43.1968 36.9961 46.0008C54.1011 63.2226 64.8424 87.1429 74.6944 109C84.0855 129.834 79 159.388 79 182L79 340z"/>
<path style="fill:#ffffff; stroke:none;" d="M34 34L34 35C55.7456 50.3179 72.5784 84.2675 81 109L83 109C95.5577 86.4664 112.269 61.6302 129 42C121.5 33.8396 109.112 35 99 35C77.3388 35 55.7117 34 34 34M170 103L207 38C189.944 38 173.05 37 156 37C152.138 37 141.376 35.155 138.751 38.6034C136.16 42.0059 144.761 51.0347 146.55 54C155.486 68.812 159.394 89.8595 170 103M133 114L133 115C151.362 128.524 161.928 160.095 169 181L170 181L207 116C197.236 116 176.915 111.004 169 117C159.492 111.926 143.644 114 133 114z"/>
</svg>
