<?xml version="1.0" standalone="no"?>
<!DOCTYPE svg PUBLIC "-//W3C//DTD SVG 20010904//EN"
 "http://www.w3.org/TR/2001/REC-SVG-20010904/DTD/svg10.dtd">
<svg version="1.0" xmlns="http://www.w3.org/2000/svg"
 width="274.000000pt" height="371.000000pt" viewBox="0 0 274.000000 371.000000"
 preserveAspectRatio="xMidYMid meet">
<metadata>
Created by potrace 1.16, written by Peter Selinger 2001-2019
</metadata>
<g transform="translate(0.000000,371.000000) scale(0.100000,-0.100000)"
fill="#000000" stroke="none">
<path d="M290 3423 c-41 -2 -80 -9 -87 -15 -21 -17 -15 -38 15 -49 76 -30 118
-58 169 -113 103 -111 237 -337 352 -593 l51 -113 0 -1115 0 -1115 25 0 25 0
0 1118 0 1117 236 345 c130 190 242 351 249 359 20 20 70 -54 160 -234 66
-132 165 -365 165 -387 0 -4 -89 -8 -197 -8 -223 0 -243 -3 -243 -34 0 -16 13
-27 51 -44 38 -18 62 -39 100 -90 63 -85 170 -295 245 -482 l59 -145 3 -757 2
-758 25 0 25 0 0 759 0 760 220 382 c122 210 219 383 217 386 -2 2 -99 6 -216
10 -172 5 -211 9 -207 20 3 7 101 178 217 379 116 201 209 367 208 369 -5 4
-1278 43 -1574 47 -121 2 -254 2 -295 1z m921 -75 c4 -6 22 -16 41 -22 20 -7
33 -18 32 -27 -1 -16 -454 -688 -464 -688 -3 -1 -25 43 -49 97 -119 262 -246
467 -362 586 l-78 79 437 -6 c314 -5 438 -10 443 -19z m662 -14 c108 -3 197
-9 197 -12 0 -16 -374 -652 -380 -645 -3 4 -19 42 -35 83 -76 200 -175 396
-250 494 -38 50 -42 65 -22 85 9 9 45 11 152 7 77 -3 229 -9 338 -12z m-10
-776 c109 -3 200 -8 203 -11 5 -4 -316 -572 -361 -640 -10 -15 -18 -2 -55 90
-94 240 -201 439 -286 533 l-38 41 170 -3 c93 -2 258 -6 367 -10z"/>
</g>
</svg>
