<?xml version="1.0" standalone="yes"?>
<svg xmlns="http://www.w3.org/2000/svg" width="242" height="371">
<path style="fill:#ffffff; stroke:none;" d="M0 0L0 371L242 371L242 0L0 0z"/>
<path style="fill:#000000; stroke:none;" d="M81 172L47 172C44.0194 172 37.1559 170.868 35.662 174.39C33.822 178.728 46.3089 181.862 49 183.789C61.0687 192.427 73.0976 207.566 79.4676 221C84.0968 230.763 81 247.321 81 258L81 342L87 342L87 259C87 248.998 83.5283 230.999 88.0278 222C90.3594 217.337 95.3966 213.679 98.9853 210C104.008 204.851 115.36 187.056 123 187.056C126.416 187.056 129.822 191.756 131.91 194C138.808 201.411 146.43 210.761 150.722 220C155.192 229.619 152 246.487 152 257L152 342L158 342L158 257C158 247.485 154.742 230.571 159.028 222C168.576 202.904 191.904 190.689 204 173L157 172L157 106C157 98.1699 154.51 85.1035 158.027 78C167.68 58.5055 191.446 45.8252 204 28C191.066 24.9207 176.248 27.31 163 26.9854C133.571 26.2643 104.437 27 75 27L45 27C42.5289 27.0041 36.7661 26.2278 35.7515 29.3896C34.4391 33.4796 46.4144 36.8633 49 38.7639C60.9572 47.5534 71.2639 61.1413 78.5316 74C83.225 82.304 81 94.7406 81 104L81 172z"/>
<path style="fill:#ffffff; stroke:none;" d="M155 70C167.531 61.1727 182.183 45.5172 191 33C175.288 33 159.724 32 144 32C141.038 32 129.207 30.3311 129.207 35.1481C129.207 38.8363 134.599 42.5204 136.829 45C143.627 52.5565 150.054 61.1163 155 70M53 33L53 34C65.2581 43.3398 75.5268 56.5766 83 70C94.0889 64.8289 111.836 46.0735 117 35C98.7782 28.3589 72.3327 33 53 33M87 172L151 172L151 101C151 88.165 152.918 75.9883 145.279 65C141.206 59.1408 131.018 41.2068 123 41.2068C115.956 41.2068 103.948 57.9667 99.5756 63C95.8351 67.3058 89.6139 71.5469 87.6034 77C84.6629 84.9753 87 97.5329 87 106L87 172M155 215C167.675 206.071 182.084 190.658 191 178C175.278 178 159.689 177 144 177C140.87 177 130.654 175.385 129.346 179.318C128.203 182.752 133.893 186.85 135.83 189C143.048 197.01 149.36 205.827 155 215M53 178L83 215C94.3906 209.688 111.675 191.421 117 180C96.7722 175.171 73.6868 178 53 178z"/>
</svg>
