<?xml version="1.0" standalone="no"?>
<!DOCTYPE svg PUBLIC "-//W3C//DTD SVG 20010904//EN"
 "http://www.w3.org/TR/2001/REC-SVG-20010904/DTD/svg10.dtd">
<svg version="1.0" xmlns="http://www.w3.org/2000/svg"
 width="782.000000pt" height="371.000000pt" viewBox="0 0 782.000000 371.000000"
 preserveAspectRatio="xMidYMid meet">
<metadata>
Created by potrace 1.16, written by Peter Selinger 2001-2019
</metadata>
<g transform="translate(0.000000,371.000000) scale(0.100000,-0.100000)"
fill="#000000" stroke="none">
<path d="M4637 3273 c-4 -120 -7 -352 -7 -515 l0 -298 -531 0 -532 0 -271 166
c-149 92 -272 168 -274 169 -3 3 101 266 141 357 26 58 26 58 5 69 -15 8 -23
8 -33 -3 -24 -25 -1495 -2089 -1495 -2097 0 -19 986 -452 1270 -558 161 -61
212 -69 224 -36 9 23 -25 56 -134 128 -53 34 -117 86 -143 115 -216 240 -220
756 -12 1490 76 269 73 269 74 10 1 -228 4 -250 38 -250 7 0 20 18 29 40 29
71 148 157 347 250 l88 41 32 -20 c18 -11 65 -53 104 -93 l73 -73 2 -330 3
-330 23 -3 22 -3 0 330 0 330 145 106 145 107 48 -28 c26 -15 82 -63 124 -105
l78 -78 0 -331 0 -331 23 3 22 3 3 330 3 330 163 120 c153 112 206 142 206
116 0 -6 9 -11 20 -11 13 0 22 9 26 28 31 143 124 268 319 430 50 41 91 78 93
82 1 4 -18 33 -43 64 -25 31 -43 56 -40 56 19 0 86 -44 109 -70 43 -51 104
-163 157 -286 l49 -115 0 -924 0 -925 -127 0 -128 0 43 26 c23 14 42 27 42 28
0 6 -512 491 -521 494 -5 2 -9 -6 -9 -17 l0 -21 -531 0 -530 0 -311 191 c-175
107 -314 187 -319 182 -5 -5 -12 -183 -16 -395 -6 -399 -5 -418 32 -418 7 0
23 21 36 47 15 30 45 65 82 94 66 53 242 147 391 208 l98 41 534 0 535 0 -7
-423 c-7 -437 -5 -473 32 -465 9 2 23 26 33 55 21 61 81 142 147 198 59 50
216 165 227 165 4 0 7 -9 7 -20 0 -20 7 -20 1040 -20 l1040 0 0 -125 0 -125
25 0 25 0 0 1029 0 1030 196 386 c108 212 194 388 192 391 -19 19 -795 32
-829 14 -30 -16 -23 -38 20 -60 36 -18 101 -84 101 -102 0 -5 -423 -8 -939 -8
l-940 0 -3 -22 c-2 -17 -40 24 -176 190 -95 117 -175 212 -176 212 -2 0 -6
-98 -9 -217z m224 -124 c90 -110 164 -204 164 -208 0 -4 -27 -30 -60 -58 -82
-68 -213 -207 -253 -267 l-32 -49 0 165 c0 162 11 618 15 618 1 0 76 -90 166
-201z m2452 82 c103 -5 190 -11 192 -13 3 -3 -70 -152 -161 -333 l-167 -328
-43 121 c-23 67 -66 176 -94 242 -42 98 -49 124 -40 135 10 12 9 15 -8 15 -13
0 -29 14 -43 38 -12 20 -40 58 -61 85 l-39 47 138 0 c76 -1 223 -5 326 -9z
m-1812 -201 c20 -6 43 -18 52 -28 14 -16 7 -30 -86 -184 -96 -157 -117 -185
-117 -156 0 26 -140 295 -175 336 l-37 42 164 0 c90 0 179 -5 199 -10z m438
-9 c67 -35 68 -33 -36 -184 l-95 -139 -55 104 c-30 56 -70 123 -87 148 -30 42
-32 47 -18 68 14 21 22 22 134 22 98 0 126 -3 157 -19z m469 -11 c17 -11 32
-24 32 -30 0 -11 -201 -343 -205 -338 -2 2 -23 49 -48 106 -25 57 -64 132 -86
167 l-40 64 20 26 c20 25 23 25 157 25 119 0 141 -3 170 -20z m495 14 c5 -6
-92 -154 -195 -297 l-27 -39 -47 94 c-26 51 -63 118 -84 148 -31 46 -35 59
-27 78 10 22 13 22 192 22 100 0 184 -3 188 -6z m-3874 -61 c-6 -16 -20 -52
-31 -80 -16 -43 -23 -52 -41 -50 -21 2 -22 -3 -27 -78 -4 -57 -18 -116 -49
-205 -220 -647 -293 -1214 -200 -1553 45 -160 143 -295 270 -373 33 -19 59
-37 59 -39 0 -11 -214 74 -530 210 -196 84 -760 334 -768 340 -4 3 1318 1855
1324 1855 2 0 -1 -12 -7 -27z m3954 -40 c39 -89 84 -204 127 -330 l40 -115 0
-874 0 -874 -225 0 -225 0 0 948 0 947 123 177 c67 98 125 178 128 178 4 0 18
-26 32 -57z m-1257 -187 l54 -109 0 -948 0 -949 -200 0 -200 0 0 924 0 924
113 185 112 185 33 -51 c19 -29 58 -101 88 -161z m379 65 c19 -38 50 -108 70
-155 l35 -85 0 -915 0 -916 -190 0 -190 0 0 956 0 956 67 97 c36 53 82 118
101 144 l35 48 18 -31 c11 -17 35 -61 54 -99z m406 97 c13 -17 49 -83 81 -146
l58 -114 0 -954 0 -954 -195 0 -195 0 0 922 0 923 108 177 c59 98 110 178 114
178 4 0 17 -14 29 -32z m-3266 -300 l232 -143 -93 -5 c-51 -3 -96 -9 -100 -13
-14 -13 11 -42 40 -45 14 -2 26 -6 26 -10 0 -4 -40 -26 -89 -50 -108 -52 -203
-112 -255 -160 l-39 -37 7 278 c6 252 13 327 32 327 3 0 111 -64 239 -142z
m573 -206 l84 -7 -122 -89 -123 -89 -32 39 c-18 21 -58 59 -88 84 l-56 44 27
12 c29 13 177 16 310 6z m592 -1 l75 -6 -119 -88 -119 -88 -71 69 c-39 37 -87
80 -106 95 l-35 27 150 -1 c83 -1 184 -4 225 -8z m-1151 -1021 c127 -78 231
-145 231 -150 0 -4 -21 -15 -47 -25 -155 -58 -364 -175 -435 -243 l-38 -36 0
100 c0 56 3 196 7 312 l6 212 22 -14 c13 -8 127 -79 254 -156z m1694 -457
l128 -121 -44 -25 c-87 -51 -213 -151 -291 -231 l-79 -80 6 213 c4 118 7 280
7 359 l0 145 73 -69 c39 -38 130 -124 200 -191z"/>
<path d="M285 3422 c-51 -12 -38 -46 22 -61 93 -24 208 -133 332 -316 l71
-104 0 -483 0 -484 -215 1 c-184 0 -217 -2 -230 -16 -15 -15 -15 -17 0 -33 9
-9 25 -16 36 -16 69 0 221 -141 337 -313 l72 -108 0 -604 0 -605 30 0 30 0 0
601 0 602 47 51 c25 28 116 122 202 209 123 126 159 157 175 153 57 -14 192
-158 297 -314 l69 -103 0 -600 0 -599 25 0 25 0 0 601 0 602 230 237 229 237
-76 7 c-42 3 -145 6 -230 6 l-153 0 0 483 0 482 230 236 230 237 -36 6 c-40 8
-1718 16 -1749 8z m808 -61 c4 -4 -73 -90 -171 -191 l-178 -184 -64 94 c-36
52 -110 140 -165 196 l-100 101 335 -5 c184 -2 338 -7 343 -11z m835 3 c21 -4
4 -25 -154 -187 -97 -100 -180 -183 -184 -185 -4 -1 -28 30 -55 70 -68 103
-155 208 -221 265 l-55 49 323 -3 c178 -2 333 -6 346 -9z m-671 -59 c69 -51
151 -146 240 -278 l63 -92 0 -480 0 -480 -395 -3 -395 -2 0 485 0 485 198 204
c108 113 204 205 214 206 9 0 43 -20 75 -45z m-202 -1393 l50 -7 -183 -185
c-106 -107 -186 -180 -188 -173 -18 42 -143 202 -220 281 l-91 92 291 -1 c160
0 314 -4 341 -7z m833 2 l61 -7 -177 -183 c-97 -101 -179 -184 -182 -184 -4 0
-32 37 -62 83 -73 107 -177 227 -230 266 l-42 31 286 0 c157 0 312 -3 346 -6z"/>
</g>
</svg>
