<?xml version="1.0" standalone="no"?>
<!DOCTYPE svg PUBLIC "-//W3C//DTD SVG 20010904//EN"
 "http://www.w3.org/TR/2001/REC-SVG-20010904/DTD/svg10.dtd">
<svg version="1.0" xmlns="http://www.w3.org/2000/svg"
 width="303.000000pt" height="371.000000pt" viewBox="0 0 303.000000 371.000000"
 preserveAspectRatio="xMidYMid meet">
<metadata>
Created by potrace 1.16, written by Peter Selinger 2001-2019
</metadata>
<g transform="translate(0.000000,371.000000) scale(0.100000,-0.100000)"
fill="#000000" stroke="none">
<path d="M1126 3412 c-4 -4 -194 -7 -422 -7 -346 0 -416 -2 -423 -14 -15 -23
-2 -39 37 -46 88 -16 217 -136 340 -317 l72 -107 -2 -483 -3 -483 -42 -3 c-41
-3 -58 -18 -44 -40 4 -6 40 -16 81 -22 41 -6 104 -20 140 -32 149 -48 370
-179 550 -325 l85 -69 3 -602 2 -602 30 0 30 0 2 603 3 602 430 235 c379 207
426 235 395 238 -19 1 -50 5 -67 8 l-33 5 0 481 0 480 230 238 c169 175 226
239 215 244 -9 3 -303 8 -653 11 -350 3 -707 7 -793 10 -86 3 -159 2 -163 -3z
m-53 -74 c15 -6 27 -13 27 -17 0 -3 -76 -85 -168 -181 l-168 -174 -52 76 c-79
117 -161 213 -241 280 l-44 38 309 -6 c174 -3 321 -10 337 -16z m745 8 c9 -5
-42 -64 -164 -191 l-176 -183 -55 81 c-66 98 -140 188 -196 239 -36 33 -39 39
-27 54 13 15 42 16 310 12 162 -2 301 -7 308 -12z m811 -2 c4 -4 -351 -374
-358 -374 -4 0 -33 42 -66 92 -34 52 -104 137 -160 194 l-101 102 341 -5 c187
-3 342 -7 344 -9z m-677 -67 c67 -54 150 -154 228 -270 l60 -90 0 -484 0 -483
-375 0 -375 0 0 481 0 481 197 204 c108 112 200 204 205 204 4 0 31 -19 60
-43z m-720 -66 c41 -43 102 -120 137 -170 l62 -91 -1 -497 c0 -273 -2 -497 -3
-497 -1 -1 -145 0 -319 2 l-318 3 0 481 0 480 178 184 c97 100 180 183 183
183 4 1 40 -34 81 -78z m938 -1319 l55 -7 -350 -191 -350 -192 -55 48 c-144
124 -344 253 -486 315 l-79 35 605 -1 c333 -1 630 -4 660 -7z"/>
</g>
</svg>
