<?xml version="1.0" standalone="no"?>
<!DOCTYPE svg PUBLIC "-//W3C//DTD SVG 20010904//EN"
 "http://www.w3.org/TR/2001/REC-SVG-20010904/DTD/svg10.dtd">
<svg version="1.0" xmlns="http://www.w3.org/2000/svg"
 width="336.000000pt" height="371.000000pt" viewBox="0 0 336.000000 371.000000"
 preserveAspectRatio="xMidYMid meet">
<metadata>
Created by potrace 1.16, written by Peter Selinger 2001-2019
</metadata>
<g transform="translate(0.000000,371.000000) scale(0.100000,-0.100000)"
fill="#000000" stroke="none">
<path d="M1196 3412 c-4 -3 -170 -5 -369 -4 -291 3 -366 1 -380 -10 -27 -20
-12 -45 32 -52 84 -13 220 -142 341 -323 l70 -104 0 -478 0 -478 -41 -6 c-77
-10 -77 -46 0 -66 91 -23 219 -148 342 -335 l59 -90 0 -603 0 -603 25 0 25 0
0 603 1 602 185 190 185 190 73 -77 c41 -43 108 -128 150 -190 l76 -113 0
-597 0 -598 25 0 25 0 0 603 0 602 227 234 c126 129 222 236 215 239 -9 3 -12
110 -12 486 l0 482 231 240 231 239 -254 6 c-424 11 -1455 19 -1462 11z m-144
-60 c124 -5 191 -11 199 -19 9 -9 -26 -51 -155 -185 -92 -95 -171 -174 -174
-175 -4 -1 -32 37 -62 84 -31 49 -101 133 -160 195 l-106 108 136 -1 c74 0
219 -4 322 -7z m907 2 l31 -6 -21 -27 c-11 -14 -91 -97 -177 -184 -149 -151
-158 -157 -172 -139 -8 11 -43 60 -77 108 -34 49 -92 120 -128 157 -96 99
-102 97 235 97 153 0 291 -3 309 -6z m720 -4 l113 0 -32 -37 c-18 -21 -100
-107 -183 -191 -102 -103 -153 -148 -158 -140 -37 66 -152 211 -227 287 l-93
94 233 -6 c128 -4 284 -7 347 -7z m-570 -70 c61 -48 154 -159 233 -279 l58
-86 0 -480 0 -480 -217 2 c-120 2 -291 6 -380 9 l-163 6 0 467 0 467 201 207
c110 114 204 207 209 207 4 0 31 -18 59 -40z m-733 -52 c68 -70 134 -155 185
-238 l34 -55 -3 -486 -2 -486 -50 -6 c-28 -3 -174 -3 -325 0 l-275 6 0 476 1
476 180 188 c100 103 184 187 188 187 4 0 34 -28 67 -62z m217 -1340 c15 -6
27 -13 27 -15 0 -7 -333 -353 -339 -353 -3 0 -33 42 -66 92 -34 52 -104 137
-162 195 l-101 104 306 -6 c172 -4 319 -11 335 -17z m675 16 l92 -7 -177 -181
c-97 -100 -180 -182 -184 -184 -4 -2 -36 38 -70 89 -35 51 -99 130 -142 176
-110 115 -113 113 168 113 122 0 263 -3 313 -6z"/>
</g>
</svg>
