<?xml version="1.0" standalone="yes"?>
<svg xmlns="http://www.w3.org/2000/svg" width="320" height="371">
<!-- <path style="fill:#ffffff; stroke:none;" d="M0 0L0 371L320 371L320 0L0 0z"/>
--><path style="fill:#000000; stroke:none;" d="M81 172L47 172C44.0194 172 37.1559 170.868 35.662 174.39C33.822 178.728 46.3089 181.862 49 183.789C61.0687 192.427 73.0976 207.566 79.4676 221C84.0968 230.763 81 247.321 81 258L81 342L87 342L87 259C87 248.998 83.5283 230.999 88.0278 222C90.3594 217.337 95.3966 213.679 98.9853 210C104.008 204.851 115.36 187.056 123 187.056C126.416 187.056 129.822 191.756 131.91 194C138.808 201.411 146.43 210.761 150.722 220C155.192 229.619 152 246.487 152 257L152 342L158 342L158 260C158 249.335 154.91 233.017 158.603 223C160.334 218.305 165.362 214.699 168.576 211C174.669 203.985 181.419 197.556 188 191C190.196 188.812 193.447 184.316 197 184.782C206.821 186.072 217.971 206.453 223 214C231.45 226.681 229 241.251 229 256L229 342L234 342L234 257C234 247.485 230.742 230.571 235.028 222C244.631 202.794 270.829 192.666 280 173L233 172L233 106C233 98.1968 230.494 85.0671 234.028 78C243.834 58.387 270.679 47.9884 280 28C217.99 28 155.937 27.0039 94 27L50 27C46.8941 27 37.0211 25.4331 35.7515 29.3896C34.4391 33.4796 46.4144 36.8633 49 38.7639C60.9572 47.5534 71.2639 61.1413 78.5316 74C83.225 82.304 81 94.7406 81 104L81 172z"/>
<path style="fill:#ffffff; stroke:none;" d="M155 70C167.222 61.3909 181.401 46.2068 190 34C174.831 31.1839 158.408 32 143 32C140.126 32 129.207 30.4386 129.207 35.1481C129.207 38.8363 134.599 42.5204 136.829 45C143.627 52.5565 150.054 61.1163 155 70M200 32L231 70C243.992 60.8484 258.027 46.1226 267 33L200 32M53 33L53 34C65.2581 43.3398 75.5268 56.5766 83 70C94.0889 64.8289 111.836 46.0735 117 35C98.7782 28.3589 72.3327 33 53 33M195 37L158.027 77L157 105L157 172L227 172L227 105C227 95.5115 229.098 83.1193 226.351 74C222.348 60.7115 206.716 43.7724 195 37M87 172L151 172L151 101C151 88.165 152.918 75.9883 145.279 65C141.206 59.1408 131.018 41.2068 123 41.2068C115.956 41.2068 103.948 57.9667 99.5756 63C95.8351 67.3058 89.6139 71.5469 87.6034 77C84.6629 84.9753 87 97.5329 87 106L87 172M155 215C167.372 206.285 181.297 191.355 190 179C174.622 177.056 158.511 177 143 177C140.126 177 129.207 175.439 129.207 180.148C129.207 183.787 134.53 187.509 136.714 190C143.537 197.782 149.584 206.191 155 215M200 177L231 215L243.001 204L267 178L200 177M53 178L83 215C94.3906 209.688 111.675 191.421 117 180C96.7722 175.171 73.6868 178 53 178z"/>
</svg>
