<?xml version="1.0" standalone="yes"?>
<svg xmlns="http://www.w3.org/2000/svg" width="336" height="371">
<!-- <path style="fill:#ffffff; stroke:none;" d="M0 0L0 371L336 371L336 0L0 0z"/>
--><path style="fill:#000000; stroke:none;" d="M90 135L56 135C53.2707 135 45.8775 133.759 44.7515 137.259C43.4008 141.458 53.5387 142.296 56 143.232C66.9887 147.412 81.6945 157.197 88.2577 167.09C91.7773 172.395 90 181.902 90 188L90 237C79.9159 237 66.2123 234.567 57 239C59.2717 245.179 65.398 244.178 71 245.503C79.516 247.518 87.5062 251.602 95 256.011C113.471 266.877 129.025 281.848 143.996 297C149.894 302.969 159.254 311.035 162.258 319C164.715 325.513 163 335.098 163 342L169 342C169 335.276 166.858 324.091 170.028 318.039C174.571 309.365 189.255 302.182 197 296.373L247 258.873C255.189 252.732 265.527 246.951 272 239L243 238L243 189L244.028 168.184L259 157.192L292 136L292 135L243 134L243 84L244.603 64.5178L292 32L103 32L59 32C55.9258 32 45.9897 30.3853 44.7515 34.26C43.3514 38.6418 53.4438 39.7772 56 40.6991C67.2063 44.7407 81.9784 54.834 88.3966 65C91.7845 70.3662 90 79.8783 90 86L90 135z"/>
<path style="fill:#ffffff; stroke:none;" d="M138 37L158 53.5741L166 57.5972L196 39L175 38L138 37M213 37L213 38L240 57.5571L249 53.8079L272 39L251 38L213 37M66 38L66 39L92 57.7515L101 54.4236L124 39C107.068 33.995 83.6828 38 66 38M167 134L237 134L237 85C237 78.9232 238.745 69.5436 235.972 64C232.336 56.73 212.897 39.7881 204 41.2338C197.103 42.3545 188.866 50.2265 183 53.9468C178.515 56.7917 169.853 60.241 167.603 65.3256C165.208 70.739 167 80.1401 167 86L167 134M96 135L161 134L161 85C161 78.9257 162.747 69.5402 159.972 64C156.601 57.2683 139.176 41.6761 131 42.8627C124.392 43.8217 116.495 51.0291 111 54.6674C106.838 57.4234 98.7096 60.567 96.6034 65.3256C94.2078 70.7381 96 80.1408 96 86L96 135M65 140L65 141L92 160.579L101 157L124 141L65 140M138 140L138 141C144.885 145.645 156.233 158.773 164 160.122C167.15 160.669 170.529 157.894 173 156.308C179.85 151.91 191.032 147.253 195 140L138 140M214 140L214 141L240 160.172L250 155.667L273 141L254 140L214 140M167 237L237 238L237 189C237 182.561 238.729 173.116 236.258 167.09C233.161 159.538 212.818 142.386 204 143.912C197.128 145.102 189.83 152.186 184 155.808C179.313 158.719 170.866 162.35 168.028 167.21C165.196 172.058 167 181.532 167 187L167 237M96 237L161 237L161 188C161 181.922 162.745 172.545 159.972 167C156.631 160.318 139.253 143.967 131 145.237C124.361 146.258 116.573 153.718 111 157.308C106.67 160.097 98.7066 163.172 96.6034 168.184C94.2622 173.764 96 183.006 96 189L96 237M82 242L82 243C105.174 249.676 126.423 270.403 143 287C148.205 292.211 158.544 309.158 166.004 309.967C172.703 310.693 184.83 297.751 190 293.873C211.701 277.598 232.914 259.249 256 245C245.116 240.433 228.759 244.949 217 243.83C172.744 239.619 126.488 242 82 242z"/>
</svg>
