<?xml version="1.0" standalone="yes"?>
<svg xmlns="http://www.w3.org/2000/svg" width="405" height="371">
<path style="fill:#ffffff; stroke:none;" d="M0 0L0 371L405 371L405 0L0 0z"/>
<path style="fill:#000000; stroke:none;" d="M80 172L46 172C43.047 172 36.7991 170.97 35.1759 174.299C33.1263 178.502 45.4169 181.865 48 183.764C60.151 192.696 71.226 206.655 78.2106 220C83.0781 229.3 80 245.666 80 256L80 342L86 342L86 257C86 247.159 83.1921 232.252 86.6034 223C88.3561 218.246 93.5149 214.485 97 211C103.205 204.795 109.074 198.371 115.09 192.002C117.053 189.923 119.755 186.491 122.999 187.037C132.591 188.651 143.505 209.386 148.304 217C154.875 227.427 152 243.083 152 255L152 342L157 342L157 259C157 248.609 154.004 232.762 157.603 223C159.758 217.155 166.723 212.325 170.996 208C177.134 201.788 182.776 195.149 189 189.002C191.063 186.963 193.737 183.458 197 183.743C207.306 184.645 219.034 205.276 224.255 213C233.361 226.473 231 241.366 231 257L231 342L236 342L236 260C236 249.518 233.072 233.886 236.6 224C242.359 207.857 263.842 200.35 271 185C282.291 190.265 298.167 210.839 301.501 223C304.578 234.224 302 249.37 302 261L302 342L308 342L308 256C308 246.485 304.742 229.571 309.028 221C311.897 215.262 318.515 210.485 323 206C333.332 195.668 345.599 184.927 354 173L306 172L306 106L307.028 78L321 63L354 28C342.99 25.3788 330.282 27 319 27C297.375 27 275.52 27.2018 254 27.3665C223.769 27.5978 193.239 27.7263 163 26.9854C144.053 26.5211 124.891 24.6045 106 27.0849C89.0612 29.3089 70.1366 27 53 27C49.0857 27 37.3026 25.0337 35.1759 29.2739C33.0782 33.4565 43.6377 35.5913 46 37.1049C57.3299 44.3647 65.9271 55.9656 73.3295 67C81.6599 79.4178 80 91.5665 80 106L80 172z"/>
<path style="fill:#ffffff; stroke:none;" d="M154 70C166.535 61.1705 180.178 46.5235 189 34C174.29 30.4978 157.09 32 142 32C139.126 32 128.207 30.4386 128.207 35.1481C128.207 39.153 134.449 43.344 136.91 46C143.355 52.9554 149.937 61.4121 154 70M277 36C288.243 43.9248 296.874 57.4098 304 69C316.851 63.0073 332.214 44.7705 340 33C324.624 33 309.391 32 294 32C288.193 32 280.198 30.2 277 36M52 33L52 34C65.2485 43.3325 73.3348 57.4258 83 70L84 70C94.3743 59.6257 109.817 48.4977 116 35L93 33L52 33M203 33L233 70L245.039 59L267 35C247.958 28.9639 222.908 33 203 33M156 172L231 172L231 113C231 92.6577 232.658 78.0372 220.116 61C215.376 54.5615 205.873 38.5403 197 37.8819C189.492 37.3248 176.174 55.707 171.576 61C167.059 66.199 159.023 71.4385 156.603 78C153.663 85.9753 156 98.533 156 107L156 172M272 39C261.664 49.7995 243.66 62.7348 237.028 76C233.494 83.0671 236 96.1968 236 104L236 172L300 172L300 105C300 95.5985 302.232 83.0527 299.871 74C296.717 61.9052 281.882 45.961 272 39M86 172L150 172L150 101C150 87.6208 151.904 75.3969 143.856 64C139.65 58.0438 130.832 42.0902 123 41.0602C115.798 40.1129 105.545 56.3968 100.996 61C96.4607 65.5901 88.8874 70.8053 86.6034 77C83.6629 84.9753 86 97.5329 86 106L86 172M154 215C166.709 206.047 180.053 191.713 189 179C174.618 175.576 156.804 177 142 177C139.126 177 128.207 175.439 128.207 180.148C128.207 184.134 134.408 188.31 136.829 191C143.348 198.243 149.261 206.488 154 215M305 215L306 215C316.276 203.844 333.626 191.669 340 178C324.277 178 308.696 177 293 177C289.854 177 279.722 175.389 278.346 179.279C277.303 182.225 282.757 186.128 284.424 188.015C291.995 196.585 298.06 205.971 305 215M52 178L52 179C64.8489 188.79 74.6161 202.351 83 216C92.609 208.252 112.659 191.902 116 180C95.792 175.133 72.6827 178 52 178M202 178L202 179C214.491 187.542 226.524 202.31 233 216C243.787 208.401 261.445 191.913 267 180C246.474 175.099 222.994 178 202 178z"/>
</svg>
