<?xml version="1.0" standalone="no"?>
<!DOCTYPE svg PUBLIC "-//W3C//DTD SVG 20010904//EN"
 "http://www.w3.org/TR/2001/REC-SVG-20010904/DTD/svg10.dtd">
<svg version="1.0" xmlns="http://www.w3.org/2000/svg"
 width="336.000000pt" height="371.000000pt" viewBox="0 0 336.000000 371.000000"
 preserveAspectRatio="xMidYMid meet">
<metadata>
Created by potrace 1.16, written by Peter Selinger 2001-2019
</metadata>
<g transform="translate(0.000000,371.000000) scale(0.100000,-0.100000)"
fill="#000000" stroke="none">
<path d="M482 3358 c-20 -20 -13 -37 16 -43 135 -28 232 -83 375 -214 l57 -53
0 -354 0 -354 -227 -2 c-220 -3 -228 -4 -228 -23 0 -15 10 -22 40 -29 113 -24
226 -90 344 -201 l71 -67 0 -344 0 -344 -221 -2 c-200 -3 -223 -5 -233 -21
-13 -21 5 -37 41 -37 70 0 224 -89 345 -200 l68 -61 2 -372 3 -372 23 -3 22
-3 0 373 0 373 172 110 c94 61 176 113 183 117 18 11 122 -56 220 -140 l85
-73 0 -374 0 -375 30 0 30 0 0 373 1 372 186 119 187 118 45 -22 c62 -30 158
-99 231 -167 l60 -55 0 -369 0 -369 25 0 25 0 2 372 3 373 232 149 c128 81
230 152 227 157 -3 5 -108 9 -235 9 l-229 0 0 348 0 348 242 155 241 154 -239
6 c-131 3 -240 6 -242 7 -1 1 -1 160 0 354 l3 352 234 150 c219 141 232 151
205 158 -50 13 -2409 9 -2422 -4z m797 -54 c6 -5 19 4 -163 -112 l-159 -101
-71 65 c-38 36 -104 88 -146 115 l-75 50 305 -7 c168 -3 307 -8 309 -10z m703
8 c13 -5 -22 -32 -138 -107 -86 -55 -160 -101 -165 -103 -5 -2 -39 24 -76 58
-38 33 -98 81 -135 106 -38 25 -68 47 -68 50 0 7 564 3 582 -4z m756 1 c21 -5
6 -18 -110 -92 -73 -48 -147 -95 -165 -106 l-31 -18 -69 62 c-37 35 -101 85
-141 112 l-74 49 284 0 c155 0 294 -3 306 -7z m-610 -47 c59 -30 150 -97 225
-165 l57 -53 0 -347 0 -348 -324 -6 c-178 -4 -338 -4 -355 -1 l-31 7 1 351 0
351 182 117 c100 64 186 117 190 117 4 1 29 -10 55 -23z m-679 -49 c24 -16 76
-58 117 -94 l74 -64 0 -355 0 -354 -148 0 c-82 0 -231 -3 -330 -7 l-182 -6 0
354 0 354 182 117 183 116 30 -15 c16 -9 50 -29 74 -46z m522 -930 c35 -2 29
-7 -133 -110 l-169 -109 -68 64 c-37 36 -98 84 -134 108 -36 24 -64 46 -62 49
3 5 479 4 566 -2z m776 0 c17 -1 -16 -27 -118 -92 -78 -49 -153 -98 -168 -107
-26 -17 -26 -17 -101 49 -41 36 -106 86 -145 112 l-70 46 290 -3 c160 -1 300
-4 312 -5z m-1483 -6 c15 -6 -15 -28 -143 -110 l-161 -103 -56 48 c-93 81
-137 115 -181 141 -24 14 -43 27 -43 29 0 7 565 3 584 -5z m977 -111 c29 -24
80 -68 112 -99 l57 -55 0 -343 0 -343 -355 0 -355 0 0 348 0 349 188 120 187
121 56 -28 c30 -16 80 -47 110 -70z m-809 31 c41 -26 104 -76 141 -111 l67
-62 0 -349 0 -348 -227 -3 c-126 -2 -274 -2 -330 0 l-103 3 0 344 0 343 178
115 c97 64 182 116 188 116 6 1 45 -21 86 -48z m-228 -931 c99 0 102 4 -98
-123 l-150 -95 -70 65 c-39 35 -104 87 -146 115 l-75 50 229 -6 c126 -3 265
-6 310 -6z m783 2 c7 -4 -48 -45 -144 -107 -86 -55 -160 -101 -165 -103 -4 -2
-38 24 -75 58 -38 33 -98 81 -135 106 -38 25 -68 47 -68 50 0 7 575 4 587 -4z
m773 1 c0 -7 -298 -202 -321 -211 -5 -2 -39 24 -76 58 -38 34 -101 84 -141
111 l-74 49 306 0 c168 0 306 -3 306 -7z"/>
</g>
</svg>
