<?xml version="1.0" standalone="no"?>
<!DOCTYPE svg PUBLIC "-//W3C//DTD SVG 20010904//EN"
 "http://www.w3.org/TR/2001/REC-SVG-20010904/DTD/svg10.dtd">
<svg version="1.0" xmlns="http://www.w3.org/2000/svg"
 width="523.000000pt" height="371.000000pt" viewBox="0 0 523.000000 371.000000"
 preserveAspectRatio="xMidYMid meet">
<metadata>
Created by potrace 1.16, written by Peter Selinger 2001-2019
</metadata>
<g transform="translate(0.000000,371.000000) scale(0.100000,-0.100000)"
fill="#000000" stroke="none">
<path d="M1661 3178 l-461 -302 -269 3 c-272 3 -311 -1 -311 -34 0 -8 20 -23
44 -34 80 -35 185 -200 290 -458 l46 -112 0 -576 0 -577 -22 -18 -22 -17 22
-7 c22 -7 22 -10 22 -217 l0 -209 25 0 25 0 2 189 3 189 170 -105 c271 -168
755 -458 814 -487 59 -30 84 -28 79 6 -2 15 -36 47 -98 95 -116 88 -162 138
-205 223 -41 81 -55 148 -55 255 0 129 38 280 105 420 l33 70 1 -103 c1 -57 6
-112 11 -123 18 -33 39 -21 64 34 15 35 42 70 80 103 97 87 336 218 554 305
l73 29 974 0 975 0 0 25 0 25 -979 0 -978 0 -314 201 c-173 111 -347 222 -387
247 -85 53 -122 93 -161 177 -44 92 -54 153 -48 279 11 223 119 481 303 722
35 46 62 84 60 84 -2 0 -211 -136 -465 -302z m203 -2 c-104 -198 -156 -377
-155 -540 0 -150 44 -282 122 -371 17 -19 28 -35 25 -35 -6 0 -231 135 -483
290 -57 34 -103 67 -103 72 0 6 34 67 76 136 41 68 71 128 67 133 -4 4 -33 9
-65 11 l-56 3 306 202 c169 110 310 202 314 202 4 1 -17 -46 -48 -103z m-784
-352 l32 -7 -77 -50 -77 -49 43 -28 c24 -15 77 -49 117 -74 l73 -46 -26 -43
c-14 -23 -49 -81 -77 -129 -48 -81 -68 -104 -68 -78 0 21 -103 248 -150 330
-27 48 -68 108 -91 133 l-41 47 155 0 c85 0 169 -3 187 -6z m248 -26 c-8 -13
-34 -56 -58 -96 -23 -40 -46 -75 -51 -77 -8 -6 -159 84 -159 94 0 3 33 27 73
53 67 43 77 46 141 47 l68 1 -14 -22z m205 -436 c160 -98 312 -189 336 -203
l44 -24 -7 -230 c-5 -163 -10 -232 -19 -237 -7 -4 -196 -128 -422 -275 l-410
-269 -3 553 -2 554 92 154 c50 85 93 155 95 155 2 0 135 -80 296 -178z m576
-315 c15 9 57 -14 254 -140 131 -84 237 -154 237 -157 0 -3 -30 -19 -67 -34
-117 -50 -335 -163 -408 -212 -38 -25 -94 -69 -122 -97 l-53 -51 0 107 c0 107
0 108 36 165 20 31 59 85 85 118 27 34 49 65 49 68 0 3 -37 -18 -83 -47 l-82
-54 3 171 c1 94 5 181 8 193 l4 23 61 -32 c48 -25 64 -30 78 -21z m-209 -446
c0 -4 -24 -57 -54 -117 -95 -192 -137 -346 -138 -506 0 -140 38 -260 117 -362
l37 -49 -48 28 c-46 26 -382 231 -641 391 -62 38 -112 72 -110 76 2 8 818 546
830 547 4 1 7 -3 7 -8z"/>
</g>
</svg>
