<?xml version="1.0" standalone="yes"?>
<svg xmlns="http://www.w3.org/2000/svg" width="443" height="371">
<path style="fill:#ffffff; stroke:none;" d="M0 0L0 371L443 371L443 0L0 0z"/>
<path style="fill:#000000; stroke:none;" d="M37 91L37 93C52.3289 101.947 70.9479 113.088 88 118L88 119L38 155L38 157L82 178L82 180L32 216L32 218L83 244L33 280L33 282C60.2402 293.341 86.4265 308.402 113 321.258C119.16 324.239 125.462 327.803 131.996 329.89C134.131 330.573 138.153 331.274 138.248 327.866C138.343 324.506 134.423 322.343 131.999 320.815C125.41 316.66 118.836 312.841 113.616 306.91C100.598 292.123 100.959 272.932 106 255L120 261C119.097 265.377 111.056 287.37 117.303 289.249C120.868 290.322 133.217 281.369 138 280.236C155.723 276.04 177.809 272.225 196 274.174C214.626 276.169 233.767 282.793 252 287.116C279.299 293.588 306.737 299.508 334 306.13C349.869 309.984 366.713 315.704 383 317L384 312L336 300.349L238 277.374L198 267.776L176 251.884L146 228L208 221.704L253 232.116L349 254.424L393 264L394 259C381.053 254.143 366.458 252.306 353 249.116C320.69 241.456 288.238 234.33 256 226.374C237.529 221.816 215.428 220.532 200 208.87C189.989 201.304 180.041 193.657 170 186.127C167.021 183.893 160.368 180.612 159.207 176.866C157.932 172.752 167.284 167.901 170 166.025C182.332 157.511 195.327 149.008 209 142.792C230.562 132.99 258.862 130.686 282 125.576C319.62 117.266 357.839 105.139 396 100L395 94C349.183 100.17 303.108 114.444 258 124.65C241.94 128.284 224.437 134.637 208 135.621C187.178 136.868 164.836 125.658 144 124L144 123C162.738 113.434 178.212 98.1394 198 89.8766C221.872 79.9084 251.72 77.1593 277 71.5756C311.656 63.9212 346.846 52.7339 382 48C381.336 39.4883 372.882 43.5286 367 44.8812C352.009 48.3283 336.968 51.5682 322 55.1157C293.421 61.8893 264.672 68.0563 236 74.4244C223.08 77.2939 208.23 83.2387 195 83.4105C169.04 83.7476 143.043 70.1212 117 69L119.686 92.9097L108 103C101.96 71.8561 116.453 49.1288 131 23L103 42.1157L37 91z"/>
<path style="fill:#ffffff; stroke:none;" d="M110 44C91.0502 60.3981 68.7698 78.5964 47 91L47 92L78 107.244L93 113.306L103 108C101.3 95.3726 98.9893 84.7858 101.888 72C103.653 64.2167 111.242 51.423 110 44M124 76L126 90L132 86C127.189 96.1886 128.392 102.059 130.6 113C131.217 116.057 131.639 121.99 136.058 121.534C141.306 120.992 146.847 113.748 151 110.745C162.148 102.686 174.173 95.975 186 89L166 84L124 76M122 102C117.043 113.905 113.754 119.343 127 127L122 102M111 109L112 110L111 109M100 118L107 121L106 113L100 118M49 156C58.2197 159.839 67.0669 164.78 76 169.247C79.364 170.929 84.0784 174.466 88 174.046C104.974 172.227 100.984 153.318 102.17 142C102.6 137.89 106.268 130.193 103.357 126.637C100.574 123.237 94.871 121.674 91 123.667C77.7851 130.473 58.3499 144.514 49 156M138 142L143 170L144 170L153 170.542L185 149.061L198 140C184.322 138.911 170.454 134.89 157 132.2C152.603 131.32 144.568 128.054 140.248 129.692C134.739 131.781 144.935 138.287 138 142M110 130L108 160L126 148C121.559 154.108 113.574 163.347 112.526 171C111.127 181.219 127.836 192.399 136 195C141.394 180.909 137.257 168.31 134.4 154C133.569 149.837 133.68 143.083 131.012 139.649C127.462 135.08 115.556 130.99 110 130M95 177L95 179L102 181L105 171L95 177M108 179L107 184L115 188L108 179M151 181C148.87 185.752 144.204 189.5 142.654 194.058C140.992 198.944 145.174 204.024 139 206L135 222C142.297 225.032 149.555 221.544 157 220.25C170.378 217.926 184.422 216.037 198 216L169 193.127L151 181M43 217L74 232.247L88 238.306L98 233C96.5342 222.115 94.7794 213.057 96.1559 202C96.6436 198.082 99.8678 191.038 97.8819 187.39C95.0434 182.177 88.1714 182.362 84 185.174C70.8808 194.02 52.972 204.75 43 217M105 190C100.297 202.466 100.507 215.143 103 228L127 211C120.684 224.351 100.423 243.253 123 252L134 203L105 190M128 256C137.747 261.994 138.548 268.235 126 264L122 279C142.714 272.26 164.203 269 186 269C179.74 257.384 160.467 248.102 150 240.116C146.796 237.671 140.765 230.799 136.225 233.086C130.604 235.915 129.158 250.392 128 256M106.333 234.667L106.667 235.333L106.333 234.667M100 238L95 243L102 246C103.266 242.378 102.733 240.686 100 238M44 281L110 313C95.3848 290.809 97.9529 276.063 100 251L89 247.726L76 256L44 281z"/>
</svg>
