<?xml version="1.0" standalone="no"?>
<!DOCTYPE svg PUBLIC "-//W3C//DTD SVG 20010904//EN"
 "http://www.w3.org/TR/2001/REC-SVG-20010904/DTD/svg10.dtd">
<svg version="1.0" xmlns="http://www.w3.org/2000/svg"
 width="443.000000pt" height="371.000000pt" viewBox="0 0 443.000000 371.000000"
 preserveAspectRatio="xMidYMid meet">
<metadata>
Created by potrace 1.16, written by Peter Selinger 2001-2019
</metadata>
<g transform="translate(0.000000,371.000000) scale(0.100000,-0.100000)"
fill="#000000" stroke="none">
<path d="M832 3133 l-464 -347 260 -131 261 -130 -250 -185 c-137 -102 -249
-189 -249 -193 0 -5 99 -56 220 -115 121 -59 219 -109 219 -112 0 -3 -114 -90
-254 -195 l-255 -190 259 -130 259 -130 -249 -185 c-136 -102 -248 -188 -249
-191 0 -7 850 -427 937 -463 71 -30 98 -32 107 -11 7 20 -12 37 -97 87 -225
134 -301 307 -251 569 9 46 17 85 18 87 2 1 37 -14 78 -33 l76 -36 -23 -92
c-36 -144 -38 -163 -19 -181 15 -15 19 -14 54 18 22 20 62 42 92 51 73 22 260
52 398 65 242 21 187 31 1190 -204 647 -151 917 -210 922 -202 5 6 7 17 5 25
-1 10 -275 78 -934 231 l-932 218 -255 193 c-141 106 -256 197 -256 200 0 18
238 54 465 69 l160 12 902 -211 c496 -116 912 -212 925 -214 29 -3 39 38 11
47 -10 3 -425 100 -923 216 -497 116 -909 214 -915 217 -13 8 -496 372 -510
385 -13 12 22 40 175 142 134 89 326 199 375 215 17 5 435 101 930 212 495
111 904 205 908 209 12 10 -3 40 -21 40 -9 0 -424 -92 -923 -205 -500 -113
-920 -205 -935 -205 -32 0 -590 107 -618 119 -18 7 -13 13 35 51 103 82 366
244 470 289 24 10 449 110 944 221 495 112 904 206 908 210 4 3 4 16 0 27 -8
19 -44 11 -933 -190 l-925 -209 -389 76 c-214 42 -390 75 -392 74 -1 -2 7 -52
17 -113 10 -60 19 -117 19 -125 -1 -8 -30 -36 -65 -62 l-64 -48 -12 43 c-15
55 -6 244 15 320 36 130 106 277 200 420 10 15 17 27 15 27 -2 -1 -213 -157
-467 -347z m264 86 c-71 -162 -105 -347 -85 -464 20 -118 20 -122 -31 -160
l-46 -34 -234 115 c-160 78 -230 118 -223 125 18 18 638 477 641 475 1 -2 -9
-27 -22 -57z m453 -324 c157 -31 295 -59 305 -63 15 -7 1 -18 -75 -61 -124
-71 -258 -160 -344 -230 -47 -38 -77 -55 -92 -53 -23 3 -24 7 -59 188 l-17 91
22 32 c24 33 24 54 1 26 -20 -24 -28 -18 -39 35 -14 65 -14 90 0 90 7 0 141
-25 298 -55z m-295 -329 c14 -71 24 -131 22 -133 -4 -5 -96 68 -115 91 -13 15
-10 26 24 96 21 44 40 79 41 77 1 -1 14 -60 28 -131z m-130 50 c-3 -9 -10 -13
-16 -10 -5 3 -4 12 3 20 15 18 22 13 13 -10z m-49 -55 c14 -29 12 -61 -6 -61
-4 0 -25 8 -44 17 l-36 17 33 28 c18 15 34 28 35 28 1 0 9 -13 18 -29z m-76
-90 l58 -30 -15 -53 c-10 -36 -16 -98 -16 -189 l-1 -135 -63 -48 c-34 -26 -69
-49 -76 -52 -8 -3 -103 39 -211 94 l-198 98 229 171 c126 94 230 172 232 172
1 1 29 -12 61 -28z m146 -1 c3 -5 2 -10 -4 -10 -5 0 -13 5 -16 10 -3 6 -2 10
4 10 5 0 13 -4 16 -10z m840 -162 c14 -2 -10 -20 -80 -60 -119 -67 -281 -174
-345 -228 l-47 -39 -34 25 c-30 22 -34 23 -40 7 -3 -10 -18 44 -32 120 -30
155 -32 168 -16 165 6 -2 16 5 22 15 10 15 7 22 -17 42 -26 21 -28 27 -19 48
l11 24 289 -57 c158 -32 297 -60 308 -62z m-772 62 c91 -43 106 -54 111 -77 3
-16 22 -113 42 -216 l36 -189 -17 -66 c-10 -37 -19 -69 -21 -71 -1 -2 -29 13
-62 33 -63 38 -150 124 -176 173 -15 30 -14 33 16 90 17 32 48 84 69 115 22
31 39 60 39 63 0 3 -36 -21 -79 -55 -44 -33 -85 -60 -92 -60 -8 0 -10 27 -6
103 4 87 22 207 31 207 2 0 51 -22 109 -50z m-163 -375 c0 -12 -28 -92 -35
-103 -5 -6 -75 32 -73 39 4 10 91 78 101 78 4 1 7 -6 7 -14z m92 -148 l21 -29
-52 26 c-48 25 -50 27 -39 52 l12 25 18 -23 c10 -13 28 -36 40 -51z m617 -117
l231 -175 -37 -6 c-21 -4 -98 -12 -172 -18 -147 -13 -270 -33 -345 -58 -46
-15 -49 -14 -68 4 -19 20 -19 20 3 102 17 62 26 81 40 81 23 0 30 21 12 41
-21 24 1 109 28 109 12 0 23 11 29 28 16 44 33 73 41 70 4 -2 111 -82 238
-178z m-810 135 l48 -24 -18 -78 c-23 -96 -25 -259 -4 -328 8 -27 13 -50 12
-50 -1 -1 -24 -18 -50 -38 l-49 -36 -233 117 c-129 64 -232 119 -229 122 25
24 452 339 462 339 7 1 34 -10 61 -24z m246 -119 c75 -35 138 -66 141 -69 3
-3 -8 -60 -25 -127 -17 -67 -31 -139 -31 -159 0 -31 -43 -197 -54 -208 -6 -6
-105 76 -116 97 -8 16 -4 33 25 90 20 39 56 102 80 141 25 38 45 72 45 74 0 3
-51 -33 -112 -79 -99 -74 -114 -83 -123 -68 -26 43 -3 372 25 372 4 0 69 -29
145 -64z m437 -533 l248 -188 -143 -12 c-238 -19 -418 -52 -488 -89 -16 -8
-30 -14 -32 -14 -2 0 5 38 16 83 l20 84 46 -17 c52 -20 71 -17 71 11 0 13 -16
30 -45 47 -24 15 -45 34 -45 43 0 9 13 60 29 113 24 83 48 124 71 126 2 0 116
-84 252 -187z m-558 153 c-3 -9 -10 -13 -16 -10 -5 3 -4 12 3 20 15 18 22 13
13 -10z m-49 -55 c14 -29 12 -61 -6 -61 -4 0 -25 8 -44 17 l-36 17 33 28 c18
15 34 28 35 28 1 0 9 -13 18 -29z m-72 -90 c44 -19 56 -29 52 -41 -66 -207
-34 -439 76 -565 18 -20 30 -37 28 -39 -2 -2 -156 71 -342 163 l-338 166 228
172 c125 94 230 171 233 170 3 -1 31 -13 63 -26z m142 -1 c3 -5 2 -10 -4 -10
-5 0 -13 5 -16 10 -3 6 -2 10 4 10 5 0 13 -4 16 -10z"/>
</g>
</svg>
