<?xml version="1.0" standalone="no"?>
<!DOCTYPE svg PUBLIC "-//W3C//DTD SVG 20010904//EN"
 "http://www.w3.org/TR/2001/REC-SVG-20010904/DTD/svg10.dtd">
<svg version="1.0" xmlns="http://www.w3.org/2000/svg"
 width="696.000000pt" height="371.000000pt" viewBox="0 0 696.000000 371.000000"
 preserveAspectRatio="xMidYMid meet">
<metadata>
Created by potrace 1.16, written by Peter Selinger 2001-2019
</metadata>
<g transform="translate(0.000000,371.000000) scale(0.100000,-0.100000)"
fill="#000000" stroke="none">
<path d="M1531 3178 l-461 -302 -269 3 c-272 3 -311 -1 -311 -34 0 -8 20 -23
44 -34 80 -35 185 -200 290 -458 l46 -112 0 -576 0 -577 -22 -18 -22 -17 22
-7 c22 -7 22 -10 22 -217 l0 -209 25 0 25 0 2 189 3 189 170 -105 c271 -168
755 -458 814 -487 59 -30 84 -28 79 6 -2 15 -36 47 -98 95 -116 88 -162 138
-205 223 -41 81 -55 148 -55 255 0 129 38 280 105 420 l33 70 1 -65 c1 -73 10
-94 36 -88 12 2 22 19 29 48 27 107 167 246 392 389 l81 51 640 0 c532 0 642
-2 646 -14 3 -7 3 -180 0 -384 l-6 -371 -138 94 -137 95 -7 -124 c-4 -68 -8
-296 -9 -505 -1 -319 1 -383 13 -390 23 -15 40 -1 52 41 25 96 183 215 472
359 l180 89 888 0 889 0 2 -222 3 -223 25 0 25 0 3 1122 2 1122 285 415 c157
229 285 420 285 425 0 11 -491 26 -887 26 -281 0 -314 -2 -329 -17 -22 -22 -7
-43 37 -52 41 -8 108 -56 159 -113 98 -111 240 -354 344 -591 46 -101 46 -104
46 -212 l0 -110 -782 0 -781 0 -271 194 c-149 107 -280 201 -291 209 -18 14
-10 19 110 80 72 35 171 81 221 101 l91 36 737 0 736 0 0 25 0 25 -752 0 -753
0 -368 236 c-202 130 -370 235 -372 232 -7 -7 -25 -563 -25 -770 0 -108 4
-208 10 -222 15 -41 38 -31 64 27 13 28 43 71 67 94 45 42 160 126 165 120 2
-2 1 -182 -3 -400 l-6 -397 -641 0 -641 1 -260 246 -260 246 -5 -49 -5 -49
-33 40 c-41 50 -86 143 -102 214 -19 83 -8 256 25 366 51 174 147 359 271 521
35 46 62 84 60 84 -2 0 -211 -136 -465 -302z m2157 -63 l311 -200 -42 -19
c-303 -138 -478 -240 -571 -330 l-49 -48 7 298 c7 343 16 506 26 502 3 -2 147
-93 318 -203z m2217 194 c231 -6 421 -12 423 -14 2 -2 -111 -169 -250 -373
-139 -204 -256 -367 -259 -364 -4 4 -28 54 -53 112 -110 244 -242 457 -357
573 l-77 77 77 0 c42 0 265 -5 496 -11z m-4171 -133 c-104 -198 -156 -377
-155 -540 0 -150 44 -282 122 -371 17 -19 28 -35 25 -35 -6 0 -231 135 -483
290 -57 34 -103 67 -103 72 0 6 34 67 76 136 41 68 71 128 67 133 -4 4 -33 9
-65 11 l-56 3 306 202 c169 110 310 202 314 202 4 1 -17 -46 -48 -103z m-784
-352 l32 -7 -77 -50 -77 -49 43 -28 c24 -15 77 -49 117 -74 l73 -46 -26 -43
c-14 -23 -49 -81 -77 -129 -48 -81 -68 -104 -68 -78 0 21 -103 248 -150 330
-27 48 -68 108 -91 133 l-41 47 155 0 c85 0 169 -3 187 -6z m248 -26 c-8 -13
-34 -56 -58 -96 -23 -40 -46 -75 -51 -77 -8 -6 -159 84 -159 94 0 3 33 27 73
53 67 43 77 46 141 47 l68 1 -14 -22z m2720 -369 c133 -96 242 -176 242 -179
0 -3 -52 -31 -115 -63 -142 -72 -281 -162 -351 -229 l-54 -51 0 125 c0 278 13
579 25 574 6 -2 120 -82 253 -177z m-2515 -67 c160 -98 310 -189 333 -201 l40
-23 -4 -231 c-3 -157 -8 -234 -16 -239 -6 -4 -195 -128 -421 -275 l-410 -269
-3 553 -2 554 92 154 c50 85 93 155 95 155 2 0 135 -80 296 -178z m492 -184
l60 -61 -62 47 c-35 26 -63 54 -63 62 0 8 1 14 3 14 1 0 29 -28 62 -62z m3895
-338 l0 -380 -783 0 -782 0 -273 196 c-149 108 -272 201 -272 207 0 19 93 101
181 160 47 31 148 88 225 127 l139 70 783 0 782 0 0 -380z m-3893 230 c67 -36
81 -37 92 -8 7 20 18 12 132 -96 68 -65 125 -121 126 -124 1 -4 -46 -38 -104
-77 -67 -44 -147 -110 -215 -175 l-108 -106 0 44 c0 47 33 107 121 218 27 34
49 65 49 68 0 3 -38 -19 -85 -49 l-85 -55 0 74 c0 92 12 316 17 316 2 0 29
-13 60 -30z m2014 -447 c137 -98 249 -180 249 -183 0 -3 -51 -31 -113 -62
-144 -73 -284 -164 -353 -230 l-54 -51 0 125 c0 185 12 578 18 578 3 0 117
-80 253 -177z m-2141 -22 c0 -4 -24 -57 -54 -117 -95 -192 -137 -346 -138
-506 0 -140 38 -260 117 -362 l37 -49 -48 28 c-46 26 -382 231 -641 391 -62
38 -112 72 -110 76 2 8 818 546 830 547 4 1 7 -3 7 -8z m4020 -521 l0 -330
-892 0 -893 0 -176 122 -176 123 10 30 c26 74 174 185 412 307 l150 77 783 1
782 0 0 -330z m-2123 -158 l281 -194 -161 -82 c-188 -94 -310 -173 -392 -253
l-58 -57 7 320 c8 379 14 476 30 467 6 -4 138 -94 293 -201z"/>
</g>
</svg>
