<?xml version="1.0" standalone="yes"?>
<svg xmlns="http://www.w3.org/2000/svg" width="696" height="371">
<!-- <path style="fill:#ffffff; stroke:none;" d="M0 0L0 371L696 371L696 0L0 0z"/>
--><path style="fill:#000000; stroke:none;" d="M199 22C178.042 38.1073 154.327 51.8852 132 66.0532C123.574 71.4001 113.2 81.8804 103 82.8951C89.4431 84.2436 75.3458 80.7323 62 82.2855C59.2189 82.6092 50.7523 81.9598 49.7515 85.2994C48.5702 89.2415 56.7121 92.824 58.9599 95.044C66.8843 102.87 72.0947 113.988 76.6914 124C91.7156 156.725 87 192.592 87 228C87 237.846 90.773 256.997 83 264L83 266C91.5482 273.701 87 298.032 87 309L93 309L93 272C118.007 290.181 146.189 305.758 173 321.15C179.207 324.713 185.325 328.995 191.999 331.647C194.051 332.463 198.159 333.758 199.11 330.685C200.115 327.434 196.105 324.703 193.995 323.015C186.801 317.258 179.405 312.4 173.68 305C160.282 287.684 161.471 265.766 168.001 246C170.108 239.622 172.173 231.817 177 227C177 229.303 176.123 241.572 181.455 238.673C184.963 236.766 187.142 226.478 190.185 223C200.896 210.759 215.184 198.557 230 191.532C240.211 186.691 257.818 190 269 190L359 190L358.961 241L359 266L331 248C327.815 273.204 329 299.581 329 325C329 329.718 326.399 347.439 331.299 349.824C334.636 351.449 343.08 336.126 346.015 333.59C361.465 320.24 381.898 309.471 401 302.324C416.172 296.647 439.84 301 456 301L579 301L579 346L585 346L585 193L585 146L585.51 123L598.333 103L626.424 62L643 36C611.322 36 579.731 34 548 34C543.432 34 519.636 31.2935 519.636 37.9753C519.636 41.869 529.333 44.1871 532 46.3403C542.217 54.5876 549.218 65.9591 556 77L453 77C439.35 77 419.986 80.5335 407 76.3009C399.313 73.7954 391.719 67.4242 385 62.9969C367.849 51.6952 349.851 37.1334 331 29C330.785 54.9866 329 80.9297 329 107C329 111.195 326.532 130.786 332.12 131.534C335.883 132.037 337.536 125.378 339.108 123.001C343.968 115.648 352.417 110.222 360 106L358 184L268 184C257.961 184 240.049 187.454 231 182.973C210.576 172.859 196.682 148.148 178 135L178 144C152.148 116.911 165.364 79.5807 181.309 51C185.328 43.7957 200.098 30.0103 199 22z"/>
<path style="fill:#ffffff; stroke:none;" d="M336 39L334 118C355.216 103.057 374.412 89.5393 399 80L399 79L336 39M535 40L535 41C558.186 57.333 570.287 90.2796 582 115L609.344 76L632 42C601.227 36.2871 566.293 40 535 40M177 44L117 83L117 84L130 84L115.302 110.907L128 121.05L171 147C157.095 122.024 153.872 101.592 163.692 74C166.89 65.0143 176.728 53.1998 177 44M556 77L556 83L455 83C439.622 83 421.003 80.1386 406 83.5286C392.503 86.5783 377.876 95.0685 366 102L366 103C377.999 111.619 390.1 120.128 402 128.884C407.968 133.276 414.876 140.156 422 142.437C435.758 146.84 456.54 143 471 143L579 143C579 120.075 571.144 95.0888 556 77M62 88L90 139L91 139L105 113L83 98L97 90C87.4126 85.977 72.3611 88 62 88M94 98L94 100L109 109L120 90C108.357 89.0811 104.015 92.4241 94 98M366 111C361.959 132.768 364 157.84 364 180L365 180C375.828 164.671 398.034 154.064 415 147L415 145L366 111M93 257C115.169 248.597 136.074 229.527 156 216.692C161.628 213.067 174.803 207.796 176.682 200.907C179.235 191.545 177 178.703 177 169C177 165.601 177.909 160.527 175.972 157.529C173.61 153.872 167.664 151.552 164 149.424C155.26 144.349 146.641 139.043 138 133.797C132.932 130.721 116.159 116.459 110.379 119.16C107.674 120.425 106.05 124.584 104.6 127C99.9815 134.694 93.1327 142.726 93.0039 152C92.5179 186.985 93 222.011 93 257M183 148L189 154L183 148M368 186C386.44 196.504 403.023 217.162 423 224.272C436.123 228.943 457.072 225 471 225L579 225L579 149L471 149C452.164 149 431.42 145.975 414 153.576C399.25 160.011 375.122 170.728 368 186M183 161L182 199L200 188C193.551 199.32 182.047 208.167 182 222L224 188C219.857 179.116 207.961 169.608 200 164C194.415 169.207 188.771 163.487 183 161M366 192L364 261L365 261C375.791 245.723 398.083 235.043 415 228L415 226L366 192M175 211L94 264L94 266L170 312C161.017 290.64 154.205 276.931 159.884 253C162.176 243.344 165.646 233.97 169.889 225C171.928 220.69 176.35 215.923 175 211M366 272C377.148 278.88 388.594 291.121 401 295.297C416.233 300.425 439.913 296 456 296L579 296L579 230L470 230C449.176 230 428.933 227.286 410 236.753C395.804 243.851 369.168 254.508 366 272M336 258L334 336L362 314.861L394 298L336 258z"/>
</svg>
