<?xml version="1.0" standalone="no"?>
<!DOCTYPE svg PUBLIC "-//W3C//DTD SVG 20010904//EN"
 "http://www.w3.org/TR/2001/REC-SVG-20010904/DTD/svg10.dtd">
<svg version="1.0" xmlns="http://www.w3.org/2000/svg"
 width="608.000000pt" height="371.000000pt" viewBox="0 0 608.000000 371.000000"
 preserveAspectRatio="xMidYMid meet">
<metadata>
Created by potrace 1.16, written by Peter Selinger 2001-2019
</metadata>
<g transform="translate(0.000000,371.000000) scale(0.100000,-0.100000)"
fill="#000000" stroke="none">
<path d="M2080 3338 l0 -77 -300 2 c-250 2 -302 0 -309 -12 -13 -20 -3 -39 22
-47 35 -10 96 -74 138 -145 21 -36 39 -68 39 -71 0 -2 -182 -133 -405 -289
-222 -156 -404 -286 -404 -289 0 -7 46 -38 461 -316 l347 -233 -459 -323
c-252 -178 -459 -325 -459 -328 0 -6 42 -35 459 -315 348 -233 397 -262 425
-251 29 11 14 35 -69 110 -97 89 -139 157 -157 260 -13 80 -2 192 32 304 48
156 250 512 299 525 11 3 20 13 20 24 0 10 14 35 31 56 36 43 29 47 -18 11
-18 -14 -38 -24 -43 -22 -5 2 -37 28 -72 59 -146 130 -180 304 -107 547 23 75
141 323 163 341 12 10 22 -10 64 -116 81 -208 76 -162 69 -618 -6 -396 8
-1727 18 -1772 9 -41 43 -29 56 19 21 79 178 206 377 307 l61 31 591 0 590 0
0 -110 0 -110 25 0 25 0 0 1018 1 1017 188 385 188 385 -86 6 c-197 15 -676
21 -704 10 -35 -14 -33 -41 5 -59 37 -17 96 -88 136 -161 l33 -61 -449 0 -448
0 -92 94 c-65 66 -90 98 -86 110 4 11 1 16 -12 16 -10 0 -56 37 -101 82 l-83
83 0 -77z m80 -79 c0 -5 -7 -6 -15 -3 -8 4 -15 13 -15 21 0 13 3 13 15 3 8 -7
15 -16 15 -21z m1646 -8 l80 -6 -159 -325 -159 -325 -52 150 c-84 239 -160
401 -228 488 l-32 39 235 -7 c129 -4 270 -10 315 -14z m-1829 -41 l93 0 0
-125 0 -124 -91 -168 c-50 -92 -93 -170 -95 -172 -2 -2 -6 5 -10 15 -3 10 -31
81 -61 157 -63 160 -68 131 49 280 38 48 66 87 63 87 -4 0 -50 -31 -104 -70
-54 -38 -101 -70 -104 -70 -4 0 -15 17 -26 38 -10 20 -40 66 -66 101 l-47 64
152 -6 c84 -4 195 -7 247 -7z m186 -79 c-21 -38 -38 -69 -39 -68 -1 1 1 32 4
70 l4 67 34 0 34 0 -37 -69z m166 -45 l83 -83 -69 -49 c-37 -26 -103 -83 -145
-126 l-78 -77 0 96 0 96 61 113 c33 63 61 114 62 114 2 0 40 -38 86 -84z
m1094 -233 c24 -65 61 -169 81 -230 l36 -113 0 -310 0 -310 -603 0 -603 0
-212 168 -211 167 -1 167 0 167 78 142 77 142 3 -116 c2 -86 6 -118 17 -127
20 -16 45 4 45 35 0 59 109 180 260 288 l64 47 462 0 461 0 46 -117z m-1750
40 c-111 -160 -213 -448 -213 -603 0 -72 25 -174 56 -229 13 -24 23 -46 21
-48 -5 -4 -587 390 -586 397 0 8 732 520 737 516 2 -3 -5 -17 -15 -33z m445
-897 l162 -128 -88 -50 c-105 -61 -128 -76 -214 -145 l-68 -54 0 271 0 271 23
-18 c13 -10 96 -76 185 -147z m1422 -696 l0 -540 -593 0 -594 0 -221 176 -222
177 0 209 0 209 51 54 c61 65 168 140 292 206 l92 49 598 0 597 0 0 -540z
m-1969 408 c-90 -137 -173 -333 -202 -472 -31 -150 -23 -247 31 -361 16 -33
28 -61 26 -62 -1 -1 -105 68 -231 153 -127 86 -258 175 -292 197 -35 23 -63
44 -62 47 0 5 740 529 747 530 2 0 -6 -15 -17 -32z m717 -966 c1 -4 -19 -18
-45 -32 -87 -45 -225 -141 -279 -192 l-54 -51 0 159 c0 87 3 216 7 285 l6 127
181 -145 c100 -80 182 -148 184 -151z"/>
<path d="M4712 2360 c-596 -455 -1090 -834 -1099 -842 -13 -14 14 -36 264
-209 824 -573 1407 -957 1480 -975 22 -6 53 10 53 26 0 17 -56 74 -168 172
-63 56 -135 129 -160 162 -54 73 -113 197 -137 286 -23 88 -31 313 -15 437 55
449 359 1089 777 1641 52 68 93 125 91 127 -2 1 -490 -370 -1086 -825z m821
547 c-4 -7 -39 -60 -77 -117 -227 -346 -422 -750 -512 -1062 -95 -330 -102
-614 -20 -848 42 -122 98 -205 220 -324 61 -61 104 -106 96 -101 -196 112
-1545 1032 -1545 1053 0 11 1822 1409 1838 1411 4 1 4 -5 0 -12z"/>
<path d="M318 3083 c-9 -2 -19 -11 -22 -18 -6 -16 19 -45 38 -45 21 0 90 -81
130 -152 50 -90 110 -228 162 -376 l44 -123 0 -914 0 -915 30 0 30 0 0 919 0
918 181 342 c100 188 179 344 177 347 -14 14 -722 30 -770 17z m649 -62 l42
-6 -152 -287 c-83 -157 -155 -284 -158 -282 -4 2 -10 16 -14 31 -29 117 -160
401 -232 502 l-46 63 259 -7 c143 -4 278 -10 301 -14z"/>
</g>
</svg>
