<?xml version="1.0" standalone="no"?>
<!DOCTYPE svg PUBLIC "-//W3C//DTD SVG 20010904//EN"
 "http://www.w3.org/TR/2001/REC-SVG-20010904/DTD/svg10.dtd">
<svg version="1.0" xmlns="http://www.w3.org/2000/svg"
 width="509.000000pt" height="371.000000pt" viewBox="0 0 509.000000 371.000000"
 preserveAspectRatio="xMidYMid meet">
<metadata>
Created by potrace 1.16, written by Peter Selinger 2001-2019
</metadata>
<g transform="translate(0.000000,371.000000) scale(0.100000,-0.100000)"
fill="#000000" stroke="none">
<path d="M3718 3420 c-30 -18 -20 -39 28 -62 57 -26 116 -103 185 -240 l49
-98 -497 0 -497 0 -89 88 c-50 48 -91 83 -93 77 -1 -5 -5 -45 -9 -87 l-7 -78
-629 0 -629 0 -471 185 c-259 102 -473 184 -475 183 -5 -5 -22 -315 -30 -523
-4 -131 -2 -192 7 -225 16 -59 16 -95 0 -423 -14 -304 -10 -391 20 -407 13 -7
21 -6 28 2 6 7 22 28 37 45 37 47 175 112 372 177 179 59 544 156 587 156 l25
0 0 -280 0 -280 25 0 25 0 0 280 0 280 270 0 270 0 0 -280 0 -280 25 0 25 0 0
280 0 280 260 0 260 0 0 -552 -1 -553 -118 124 -118 124 -6 -183 c-4 -101 -7
-330 -7 -510 0 -279 2 -329 15 -340 22 -18 41 2 49 48 14 88 152 243 331 372
l83 60 571 0 571 0 0 -230 0 -230 25 0 25 0 0 238 c0 130 1 635 1 1122 l-1
885 220 420 219 420 -62 7 c-123 13 -851 20 -869 8z m640 -49 c107 -5 196 -12
199 -14 3 -3 -79 -169 -183 -368 l-187 -362 -13 34 c-7 19 -36 97 -64 174 -68
187 -177 405 -239 483 l-51 62 173 0 c94 -1 259 -5 365 -9z m-3296 -222 c202
-79 364 -147 360 -150 -4 -3 -54 -18 -112 -34 -273 -71 -536 -169 -642 -237
l-61 -40 7 274 c3 150 9 292 12 315 l7 42 31 -13 c17 -7 196 -77 398 -157z
m1818 -104 l23 -25 -26 0 c-22 0 -27 5 -27 25 0 14 1 25 3 25 2 0 14 -11 27
-25z m-90 -440 l0 -365 -260 0 -260 0 0 23 c1 17 42 52 185 157 l183 135 -61
6 c-97 10 -1270 10 -1286 0 -21 -13 -6 -40 26 -46 63 -13 141 -63 226 -144 61
-59 87 -91 87 -107 0 -20 -5 -24 -32 -24 -18 0 -245 80 -505 178 -430 161
-472 179 -467 197 21 74 307 197 725 309 l164 45 638 0 637 1 0 -365z m265
275 c49 -49 87 -91 84 -93 -2 -2 -35 -26 -74 -53 -38 -27 -97 -75 -131 -106
-58 -55 -62 -57 -78 -40 -14 16 -16 46 -16 200 l0 182 63 0 62 0 90 -90z m977
16 c15 -38 28 -73 28 -78 0 -4 -195 -8 -433 -8 l-432 0 -80 80 -80 80 484 -2
484 -3 29 -69z m91 -248 c36 -109 37 -118 37 -250 l0 -138 -488 0 -487 0 -138
138 -139 139 63 57 c35 31 99 81 143 111 l80 55 446 0 446 0 37 -112z m-2678
-418 c29 -12 24 -14 -98 -46 -368 -96 -634 -196 -716 -268 l-24 -21 7 265 c3
146 9 290 12 321 l6 56 392 -148 c215 -81 405 -153 421 -159z m398 281 l59 -6
-120 -87 -120 -88 -64 63 c-34 35 -83 78 -107 95 l-44 32 169 -1 c93 -1 195
-4 227 -8z m582 0 l60 -6 -119 -88 -119 -87 -71 68 c-39 37 -87 80 -106 95
l-35 27 165 -1 c91 -1 192 -4 225 -8z m-399 -52 c68 -44 194 -172 194 -198 0
-21 -2 -21 -270 -21 -335 0 -330 -6 -127 144 78 58 144 106 148 106 3 0 27
-14 55 -31z m984 -94 l125 -125 -149 0 -149 0 5 98 c5 87 21 152 37 152 4 0
62 -56 131 -125z m60 -178 c0 -3 -65 -57 -147 -121 -24 -18 -24 -18 -54 10
-23 22 -29 36 -29 71 l0 43 115 0 c63 0 115 -2 115 -3z m1090 -212 l0 -215
-485 0 -484 0 -126 122 -126 121 33 34 c17 18 70 60 116 93 l85 60 493 0 494
0 0 -215z m-1295 36 c3 -5 1 -12 -5 -16 -5 -3 -10 1 -10 9 0 18 6 21 15 7z
m159 -160 l118 -118 -68 -48 c-37 -27 -99 -75 -136 -108 -98 -84 -101 -80 -96
133 3 160 4 167 31 213 15 26 29 47 30 47 1 0 56 -53 121 -119z m1136 -401 l0
-250 -482 0 -483 0 -141 140 -142 140 64 60 c35 33 97 82 137 109 l72 50 488
0 487 1 0 -250z m-1149 -142 c71 -67 129 -125 129 -128 0 -3 -33 -29 -72 -56
-40 -28 -97 -73 -126 -99 l-53 -48 -25 24 -26 24 4 175 c3 120 8 184 18 203 7
15 15 27 17 27 3 0 63 -55 134 -122z m-219 -415 c3 -106 5 -118 22 -121 21 -4
36 13 36 42 0 10 10 34 22 54 l21 35 39 -41 c21 -23 38 -45 38 -49 -1 -4 -33
-30 -72 -58 -82 -58 -238 -202 -280 -259 l-28 -39 0 190 c0 104 3 272 7 373
l6 184 93 -97 93 -97 3 -117z m1368 102 l0 -155 -568 0 -568 0 -49 51 -50 51
50 44 c28 25 88 71 135 104 l85 59 483 1 482 0 0 -155z m-1305 -54 c3 -5 1
-12 -5 -16 -5 -3 -10 1 -10 9 0 18 6 21 15 7z"/>
</g>
</svg>
