<?xml version="1.0" standalone="no"?>
<!DOCTYPE svg PUBLIC "-//W3C//DTD SVG 20010904//EN"
 "http://www.w3.org/TR/2001/REC-SVG-20010904/DTD/svg10.dtd">
<svg version="1.0" xmlns="http://www.w3.org/2000/svg"
 width="624.000000pt" height="371.000000pt" viewBox="0 0 624.000000 371.000000"
 preserveAspectRatio="xMidYMid meet">
<metadata>
Created by potrace 1.16, written by Peter Selinger 2001-2019
</metadata>
<g transform="translate(0.000000,371.000000) scale(0.100000,-0.100000)"
fill="#000000" stroke="none">
<path d="M2584 2774 c-285 -201 -525 -371 -532 -378 -13 -13 18 -35 467 -338
l235 -158 -242 0 -242 0 -432 160 c-286 107 -434 157 -438 150 -14 -23 -36
-584 -26 -652 10 -65 29 -68 80 -14 70 76 264 151 629 246 l194 50 284 -2 284
-3 -436 -307 c-240 -169 -446 -316 -459 -326 -22 -18 -21 -18 264 -212 378
-257 556 -370 584 -370 12 0 25 7 29 17 5 11 -19 40 -85 102 -103 97 -134 148
-152 253 -23 132 20 316 120 513 69 136 163 279 205 311 l32 24 329 -2 329 -3
-390 -275 c-215 -151 -423 -298 -463 -326 l-73 -53 133 -91 c239 -166 663
-445 702 -464 20 -10 44 -15 52 -12 31 12 12 45 -57 104 -139 118 -174 197
-167 375 6 136 40 249 122 411 66 130 182 306 201 306 8 0 18 7 22 15 8 13 62
15 422 13 l412 -3 -76 -57 -76 -56 228 -158 c309 -214 870 -589 968 -647 93
-55 123 -66 136 -46 16 26 9 38 -68 106 -137 120 -181 170 -223 257 -52 110
-64 176 -57 343 3 102 11 163 30 233 79 300 261 652 502 972 79 104 97 134 73
117 -18 -13 -329 -243 -691 -511 l-658 -488 -441 0 c-390 0 -439 2 -428 15 16
19 1 19 -24 0 -11 -8 -34 -15 -51 -15 -43 0 -142 96 -181 176 -28 56 -29 65
-29 194 1 125 3 142 33 231 58 174 174 379 310 549 33 41 59 77 57 78 -2 3
-1017 -707 -1063 -743 -5 -4 86 -67 392 -273 160 -107 295 -199 300 -204 6 -4
-109 -8 -254 -8 l-263 0 19 22 19 22 -36 -22 c-20 -12 -45 -22 -56 -22 -32 0
-145 111 -175 172 -110 224 -9 563 284 951 48 64 87 117 85 117 -2 0 -237
-165 -523 -366z m263 89 c-86 -136 -166 -333 -193 -471 -26 -137 -10 -259 47
-360 l30 -54 -301 203 c-243 164 -298 205 -288 215 22 21 723 513 726 509 2
-2 -8 -21 -21 -42z m758 5 c-150 -246 -232 -512 -206 -677 6 -46 24 -102 44
-143 28 -58 30 -65 12 -56 -27 15 -547 367 -562 382 -9 8 81 76 360 273 205
144 373 263 375 263 2 0 -9 -19 -23 -42z m2097 -255 c-177 -262 -331 -606
-383 -857 -28 -129 -30 -310 -5 -411 23 -96 77 -201 139 -271 29 -32 45 -54
37 -49 -121 72 -1033 695 -1027 701 2 3 37 29 78 59 41 29 86 63 101 74 57 45
1093 811 1096 811 1 0 -15 -26 -36 -57z m-3875 -603 c199 -74 361 -136 359
-138 -2 -1 -70 -20 -152 -42 -271 -70 -530 -167 -586 -217 -10 -9 -21 -13 -24
-10 -4 4 -2 116 5 249 6 134 11 256 11 272 0 18 4 27 13 24 6 -3 175 -65 374
-138z m910 -347 c-86 -136 -166 -333 -193 -471 -26 -137 -10 -259 47 -361 l30
-53 -301 203 c-242 163 -298 205 -288 215 22 21 723 513 726 509 2 -2 -8 -21
-21 -42z m758 5 c-52 -85 -133 -255 -159 -333 -67 -200 -68 -354 -3 -487 18
-36 28 -64 22 -61 -19 11 -339 225 -463 311 -111 76 -121 86 -105 97 172 122
729 514 731 515 2 0 -9 -19 -23 -42z"/>
<path d="M990 2245 c-371 -272 -675 -499 -675 -505 0 -18 875 -611 1019 -690
54 -30 74 -36 88 -29 31 17 20 36 -64 110 -134 116 -184 190 -213 311 -32 135
-8 329 62 518 76 205 243 496 389 680 59 74 78 100 72 100 -2 -1 -307 -223
-678 -495z m367 138 c-192 -320 -285 -602 -274 -833 6 -130 32 -217 92 -304
l44 -65 -87 56 c-76 49 -432 291 -652 442 -41 29 -75 57 -75 62 0 8 1007 755
1021 759 1 0 -30 -53 -69 -117z"/>
</g>
</svg>
