<?xml version="1.0" standalone="yes"?>
<svg xmlns="http://www.w3.org/2000/svg" width="513" height="371">
<path style="fill:#ffffff; stroke:none;" d="M0 0L0 371L513 371L513 0L0 0z"/>
<path style="fill:#000000; stroke:none;" d="M91 125L111 93C91.1347 91.4322 70.9481 91 51 91C46.4452 91 33.8501 88.8308 31.0864 93.4144C28.7659 97.263 40.2876 102.474 42.561 105.04C52.9371 116.751 61.0075 132.419 66.5324 147C71.4435 159.961 68 179.234 68 193L68 293L74 293L74 251C97.3475 263.998 118.414 281.614 141 295.947C144.465 298.146 160.266 310.74 163.953 306.215C166.68 302.867 161.101 298.288 158.995 296.424C150.674 289.057 143.505 281.319 141.465 270C137.667 248.938 148.596 226.697 158.72 209C162.825 201.824 167.403 193.092 174 188L174 232C174 235.083 172.651 244.351 177.17 245.079C180.305 245.584 187.57 227.975 190.184 225C202.886 210.544 223.601 193.516 242 186.969C256.636 181.761 279.481 186 295 186L413 186L413 180L295 180C280.438 180 257.658 184.367 244 179.397C236.03 176.497 228.129 166.735 222 161.025C207.696 147.697 192.568 131.363 176 121L174 180C167.592 174.098 160.528 168.834 156.324 161C141.311 133.025 164.22 95.4839 180.036 73C184.543 66.594 190.43 60.9941 194 54L162 75.2801L91 125M363 135L418 172L443 187L443 189C418.95 199.117 396.469 221.108 375 235.975C368.262 240.642 354.483 246.926 352 255C375.014 267.813 395.601 285.276 418 299.192C422.026 301.693 435.542 313.431 440.392 309.929C444.139 307.224 438.957 302.35 436.981 300.579C427.512 292.096 419.074 283.414 418.09 270C416.206 244.317 430.381 219.466 444.344 199C449.429 191.547 456.273 185.364 460 177C457.21 178.173 453.511 181.677 450.424 181.439C436.871 180.393 429.052 156.812 429.001 146C428.885 121.597 441.98 98.6299 455.344 79C460.305 71.7139 467.419 65.0351 471 57C461.614 60.9481 453.368 68.5845 445 74.3411C426.526 87.049 408.237 100.095 390 113.14C382.477 118.522 365.788 125.936 363 135z"/>
<path style="fill:#ffffff; stroke:none;" d="M167 79L96 129L96 131L153 169C144.02 147.403 144.91 128.722 153.861 107C157.16 98.9944 167.017 87.374 167 79M373 134L431 173C414.192 141.048 429.538 112.051 445 83C428.494 89.3492 412.421 104.735 398 115C389.801 120.836 379.381 126.163 373 134M44 97L71 142L72 142L101 98L44 97M90 125L89 127L90 125M86 131L74.51 149L74 181L74 249C95.7526 240.753 116.999 219.874 136 206.424C145.665 199.583 158.505 193.206 166 184L86 131M181 134L180 175L183 174C175.181 186.868 180 212.162 180 227L181 227C194.964 207.578 215.957 195.269 236 183L200 149.715L181 134M157 198C135.264 216.538 109.313 233.994 85 249L85 251L142 289C133.787 266.397 133.706 248.651 143.284 226C146.864 217.534 156.112 206.869 157 198M362 254L420 293C403.192 261.048 418.538 232.051 434 203C417.806 209.14 402.109 224.237 388 234.291C379.505 240.344 368.612 245.879 362 254z"/>
</svg>
