<?xml version="1.0" standalone="no"?>
<!DOCTYPE svg PUBLIC "-//W3C//DTD SVG 20010904//EN"
 "http://www.w3.org/TR/2001/REC-SVG-20010904/DTD/svg10.dtd">
<svg version="1.0" xmlns="http://www.w3.org/2000/svg"
 width="513.000000pt" height="371.000000pt" viewBox="0 0 513.000000 371.000000"
 preserveAspectRatio="xMidYMid meet">
<metadata>
Created by potrace 1.16, written by Peter Selinger 2001-2019
</metadata>
<g transform="translate(0.000000,371.000000) scale(0.100000,-0.100000)"
fill="#000000" stroke="none">
<path d="M1453 2832 c-254 -180 -489 -347 -524 -371 l-62 -44 121 179 122 179
-83 7 c-45 3 -223 8 -395 10 -270 3 -314 1 -322 -12 -16 -24 -12 -30 32 -49
82 -35 183 -174 291 -398 l42 -88 5 -730 5 -730 25 0 25 0 5 725 5 725 55 82
c30 46 59 83 63 83 4 0 80 -50 167 -110 88 -61 268 -182 400 -270 l240 -158
-459 -324 c-253 -178 -460 -325 -460 -328 0 -6 42 -35 459 -315 348 -233 397
-262 425 -251 29 11 14 35 -69 110 -55 51 -93 95 -114 133 -83 156 -61 352 68
618 59 122 193 335 210 335 6 0 10 -101 10 -264 0 -153 4 -276 10 -291 13 -35
42 -29 54 10 20 67 31 90 72 145 73 99 301 276 495 383 l66 37 846 0 847 0 0
25 0 25 -856 0 -855 0 -325 291 c-179 160 -328 289 -331 286 -3 -3 -7 -132
-10 -287 -4 -154 -10 -283 -15 -286 -17 -11 -141 111 -174 171 -82 148 -64
347 55 600 61 129 142 258 236 379 41 53 72 96 68 95 -5 0 -216 -147 -470
-327z m231 81 c-127 -193 -224 -463 -224 -623 0 -72 25 -174 56 -229 13 -24
23 -46 21 -48 -5 -4 -587 390 -586 397 0 5 740 529 748 530 2 0 -5 -12 -15
-27z m-679 -185 c4 -3 -61 -106 -143 -227 l-149 -220 -52 107 c-66 135 -111
210 -175 291 l-50 63 282 -4 c154 -2 284 -7 287 -10z m1080 -588 c132 -117
250 -223 263 -235 l23 -21 -88 -52 c-188 -112 -394 -280 -472 -387 l-22 -30 5
259 c4 169 10 264 17 272 9 10 9 14 0 14 -13 0 -15 164 -4 323 5 88 8 96 22
84 9 -7 124 -109 256 -227z m-514 -432 c-90 -137 -173 -333 -202 -472 -31
-150 -23 -247 31 -361 16 -33 28 -61 26 -62 -1 -1 -105 68 -231 153 -127 86
-258 175 -292 197 -35 23 -63 44 -62 47 0 5 740 529 747 530 2 0 -6 -15 -17
-32z"/>
<path d="M4170 2760 c-288 -204 -528 -374 -532 -378 -10 -10 744 -527 795
-545 6 -2 10 -6 7 -9 -3 -3 -211 -150 -463 -328 -252 -177 -455 -326 -450
-330 13 -12 344 -237 523 -356 309 -206 352 -228 367 -188 4 12 -20 41 -85
103 -105 98 -136 150 -152 258 -28 177 55 427 229 696 35 53 76 106 92 118 16
11 29 29 29 39 0 10 4 21 10 25 5 3 19 20 32 37 23 33 15 31 -38 -9 l-31 -23
-74 69 c-87 80 -123 145 -139 249 -33 211 103 550 338 847 73 93 75 95 71 95
-2 0 -240 -167 -529 -370z m257 73 c-155 -257 -223 -515 -183 -688 9 -38 30
-94 47 -123 l30 -53 -28 18 c-153 95 -571 389 -565 395 18 18 727 516 731 512
2 -1 -13 -29 -32 -61z m-110 -1200 c-155 -257 -223 -515 -183 -688 9 -38 30
-93 46 -122 l30 -52 -73 47 c-238 154 -526 357 -518 365 18 18 726 515 730
512 2 -2 -13 -30 -32 -62z"/>
</g>
</svg>
