<?xml version="1.0" standalone="no"?>
<!DOCTYPE svg PUBLIC "-//W3C//DTD SVG 20010904//EN"
 "http://www.w3.org/TR/2001/REC-SVG-20010904/DTD/svg10.dtd">
<svg version="1.0" xmlns="http://www.w3.org/2000/svg"
 width="539.000000pt" height="371.000000pt" viewBox="0 0 539.000000 371.000000"
 preserveAspectRatio="xMidYMid meet">
<metadata>
Created by potrace 1.16, written by Peter Selinger 2001-2019
</metadata>
<g transform="translate(0.000000,371.000000) scale(0.100000,-0.100000)"
fill="#000000" stroke="none">
<path d="M3853 3410 c-40 -16 -25 -51 27 -63 76 -18 196 -183 313 -428 75
-156 163 -367 156 -372 -5 -4 -609 -439 -757 -545 l-114 -82 -374 0 -374 0 0
306 0 306 250 414 c138 228 250 418 250 423 0 16 -984 39 -1040 24 -28 -7 -35
-14 -35 -33 0 -19 7 -26 33 -34 51 -14 120 -82 185 -181 68 -103 184 -337 251
-506 l46 -116 0 -301 0 -302 -125 0 -124 0 -292 278 c-160 152 -295 279 -300
280 -5 2 -9 -29 -9 -70 0 -40 -3 -137 -7 -216 -6 -134 -7 -141 -23 -127 -35
32 -79 131 -90 202 -34 218 104 558 348 863 33 41 59 76 57 78 -2 2 -332 -229
-1029 -721 -20 -14 7 32 93 159 l122 179 -103 7 c-57 3 -232 8 -390 10 -260 3
-289 1 -304 -14 -14 -14 -15 -20 -4 -32 7 -9 22 -16 33 -16 53 0 187 -183 290
-397 l42 -88 5 -730 5 -730 25 0 25 0 5 725 5 725 55 82 c30 46 58 83 62 83 5
0 79 -49 165 -109 87 -59 258 -175 380 -256 200 -133 223 -151 223 -176 0 -24
-42 -57 -439 -335 -242 -170 -440 -311 -440 -314 -1 -11 761 -522 822 -551 46
-23 77 -21 77 5 0 8 -38 48 -84 90 -99 91 -140 159 -156 263 -14 86 -1 197 36
311 25 78 130 298 162 340 18 23 18 20 15 -120 -2 -79 -1 -177 4 -218 7 -67
10 -75 30 -78 17 -3 24 3 29 25 14 66 28 96 68 150 75 102 221 225 400 337
l89 56 123 0 124 0 2 -792 3 -793 25 0 25 0 3 793 2 792 337 0 c196 0 333 -4
327 -9 -5 -5 -70 -53 -144 -106 -74 -54 -136 -98 -137 -100 -7 -5 870 -670
1037 -787 108 -75 132 -85 149 -64 18 22 3 43 -94 131 -95 87 -140 144 -184
231 -80 162 -90 369 -28 610 l23 89 172 3 172 2 0 -785 0 -785 25 0 25 0 0
1123 0 1123 255 423 c141 233 254 425 253 426 -2 2 -145 8 -318 14 -372 13
-716 13 -747 1z m657 -51 c173 -6 316 -12 317 -13 3 -3 -424 -716 -436 -729
-4 -4 -20 25 -36 65 -101 260 -240 517 -338 624 l-59 64 119 0 c65 0 260 -5
433 -11z m-1518 -28 l156 -6 -221 -367 c-122 -202 -225 -364 -229 -360 -3 4
-27 59 -53 122 -106 261 -217 459 -318 567 l-61 65 284 -7 c157 -4 356 -10
442 -14z m-1124 -363 c-40 -62 -109 -192 -141 -268 -102 -242 -111 -447 -26
-599 l30 -53 -243 164 c-355 241 -357 243 -357 248 0 5 739 528 748 529 2 1
-3 -9 -11 -21z m-682 -191 c5 -5 -77 -131 -233 -359 l-60 -87 -66 132 c-72
144 -126 231 -181 291 l-36 39 285 -5 c157 -3 288 -8 291 -11z m3174 -557 l0
-300 -161 0 -160 0 6 23 c31 101 155 344 247 482 35 52 64 95 66 95 1 0 2
-135 2 -300z m-2177 -144 c97 -93 177 -172 177 -176 0 -3 -43 -35 -96 -70
-159 -105 -283 -212 -365 -313 l-39 -49 0 177 c0 161 2 181 20 210 11 18 29
35 40 38 11 3 20 13 20 22 0 9 14 35 31 56 36 45 31 49 -15 14 -40 -31 -47
-31 -74 -2 -21 23 -22 28 -15 205 l6 182 66 -63 c36 -34 146 -138 244 -231z
m1955 195 c-28 -51 -75 -149 -104 -219 l-53 -127 -203 -3 c-157 -2 -200 0
-190 10 16 16 596 435 599 433 2 -1 -20 -43 -49 -94z m-181 -423 c-3 -13 -15
-66 -28 -118 -32 -137 -33 -352 -1 -463 26 -91 60 -161 110 -232 20 -27 30
-45 22 -39 -365 272 -846 640 -854 653 -3 4 61 55 142 114 l147 106 234 1 233
0 -5 -22z m-2199 -80 c-81 -125 -165 -309 -198 -433 -44 -170 -36 -297 25
-419 l33 -66 -241 164 c-133 90 -268 181 -299 202 -32 22 -57 41 -57 44 0 5
740 528 748 529 2 1 -3 -9 -11 -21z"/>
</g>
</svg>
