<?xml version="1.0" standalone="no"?>
<!DOCTYPE svg PUBLIC "-//W3C//DTD SVG 20010904//EN"
 "http://www.w3.org/TR/2001/REC-SVG-20010904/DTD/svg10.dtd">
<svg version="1.0" xmlns="http://www.w3.org/2000/svg"
 width="479.000000pt" height="371.000000pt" viewBox="0 0 479.000000 371.000000"
 preserveAspectRatio="xMidYMid meet">
<metadata>
Created by potrace 1.16, written by Peter Selinger 2001-2019
</metadata>
<g transform="translate(0.000000,371.000000) scale(0.100000,-0.100000)"
fill="#000000" stroke="none">
<path d="M3443 3263 c-73 -4 -98 -17 -87 -46 3 -9 18 -18 33 -22 74 -16 165
-137 276 -369 109 -226 148 -329 153 -408 l4 -68 -651 0 -651 0 0 49 c0 45 15
73 226 431 124 210 223 385 220 387 -16 16 -910 32 -949 17 -32 -12 -20 -44
26 -63 83 -36 160 -142 268 -366 92 -193 150 -340 156 -402 l6 -53 -85 0 -85
0 -264 226 c-145 124 -275 236 -288 249 l-24 23 48 78 c26 42 80 118 120 168
96 124 97 126 29 78 -32 -23 -268 -190 -524 -370 -256 -181 -467 -328 -469
-326 -2 2 49 79 113 172 83 122 111 172 101 175 -7 3 -182 9 -387 13 -310 5
-376 4 -391 -8 -25 -19 -12 -45 26 -54 68 -15 175 -161 283 -388 l54 -114 0
-721 0 -721 30 0 30 0 0 720 0 721 60 90 61 89 137 -95 c75 -52 248 -168 384
-257 231 -152 247 -165 247 -193 0 -28 -25 -48 -440 -339 -347 -245 -437 -312
-427 -322 44 -40 740 -504 811 -541 38 -19 52 -22 63 -12 25 20 15 37 -56 96
-180 148 -219 315 -134 584 46 146 187 409 219 409 14 0 15 -53 9 -492 -5
-413 -4 -496 8 -511 21 -28 43 -12 57 41 28 112 195 262 468 420 66 39 77 42
142 42 l71 0 0 -435 0 -435 25 0 25 0 0 435 0 435 650 0 650 0 0 -425 0 -425
30 0 30 0 0 425 0 425 220 0 220 0 0 30 0 30 -220 0 -220 0 0 480 0 480 220 0
220 0 0 25 0 25 -220 0 -220 0 0 63 0 62 224 380 224 380 -37 7 c-20 3 -166 9
-326 12 -159 4 -326 8 -370 9 -44 2 -112 2 -152 0z m776 -71 c17 -6 -2 -43
-172 -334 -106 -179 -195 -323 -198 -320 -3 4 -21 45 -39 92 -46 120 -161 354
-209 427 -22 35 -60 84 -83 109 l-43 47 363 -7 c199 -4 371 -10 381 -14z
m-1522 -11 c94 -3 174 -9 178 -12 5 -6 -351 -624 -375 -652 -3 -4 -24 37 -45
90 -88 227 -214 458 -297 546 l-35 37 201 -1 c110 -1 278 -4 373 -8z m-981
-253 c-86 -135 -162 -321 -192 -470 -28 -137 -4 -294 57 -380 l23 -31 -33 19
c-62 36 -564 380 -565 387 -1 7 723 524 736 526 4 1 -7 -23 -26 -51z m-657
-154 c4 -4 -289 -444 -295 -444 -2 0 -28 51 -59 114 -62 127 -134 243 -191
306 l-38 42 289 -7 c160 -4 292 -9 294 -11z m630 -363 c-5 -200 -11 -366 -13
-368 -7 -8 -69 89 -87 137 -39 104 -34 230 16 389 24 76 84 215 90 209 2 -2
-1 -167 -6 -367z m324 121 l237 -204 -90 -54 c-133 -78 -246 -160 -327 -237
-40 -38 -77 -66 -83 -62 -6 4 -10 95 -10 263 0 325 9 514 24 505 6 -4 118 -99
249 -211z m457 -712 l0 -480 -72 0 -73 0 -260 226 c-143 124 -273 238 -289
254 l-29 28 30 29 c17 15 34 38 37 50 18 59 194 200 401 320 88 51 91 52 173
53 l82 0 0 -480z m1350 0 l0 -480 -650 0 -650 0 0 480 0 480 650 0 650 0 0
-480z m-2214 -92 c-86 -135 -162 -321 -192 -470 -28 -136 -8 -274 53 -371 20
-32 21 -37 6 -28 -55 29 -578 389 -576 396 1 8 723 522 735 524 4 1 -7 -23
-26 -51z m315 -105 c68 -59 177 -153 241 -209 l117 -102 -72 -43 c-142 -83
-263 -174 -351 -262 l-89 -89 6 287 c4 159 7 342 7 407 0 65 4 118 9 118 5 0
64 -48 132 -107z"/>
</g>
</svg>
