<?xml version="1.0" standalone="yes"?>
<svg xmlns="http://www.w3.org/2000/svg" width="473" height="371">
<path style="fill:#ffffff; stroke:none;" d="M0 0L0 371L473 371L473 0L0 0z"/>
<path style="fill:#000000; stroke:none;" d="M20 82L20 84L62 104L62 106L24 129L24 131L61 148L22 174L22 175L65 196L65 197L26 221L26 222C45.3696 233.801 67.4069 243.216 88 252.75C93.6753 255.377 107.082 258.52 110.278 264.083C117.172 276.085 111 299.756 111 313C111 317.073 109.409 328.024 114.111 330.194C117.543 331.779 124.128 321.909 127 320.028C140 311.511 156.341 307.118 171 302.333C192.055 295.461 213.065 297 235 297L329 297L367 297C370.985 297 377.987 298.727 379 294C399.076 305.718 420.998 314.867 442 324.781C444.852 326.127 461.101 335.803 461.963 328.944C462.615 323.756 443.678 314.789 440.093 310.985C429.797 300.062 430.408 288.791 431 275C437.656 277.767 444.134 281.71 450.999 283.89C453.775 284.772 459.106 284.582 456.914 280.166C453.161 272.606 438.897 272.357 436.665 263.424C435.081 257.085 446.064 247.077 448 241L428 253L428 224C436.052 227.348 443.762 231.906 452 234.756C454.287 235.547 461.512 236.969 459.593 232.046C455.969 222.752 437.109 222.652 435.587 210.999C434.861 205.434 442.315 199.278 444 194L429 202L429 179C435.045 182.528 442.21 186.395 448.999 188.207C451.664 188.918 457.141 188.524 454.914 184.309C451.075 177.046 436.626 176.974 434.666 167.985C433.188 161.209 443.667 152.064 446 146L426 158C420.794 132.764 432.849 120.754 442 99L420 111.947L366 146L366 148L408 169L380 188C374.086 183.858 363.027 186 356 186L298 186L223 186C211.636 186 198.115 188.009 187 185.61C166.721 181.232 149.25 165.81 129 161L129 159L189 138.325L251 138L377 138L377 133L251 133L189 132.671L168 124L113 100L111 164C104.934 160.805 86.9246 152.293 88.4938 143.576C89.6121 137.363 96.2145 131.6 99 126L83 135L84 115C90.09 118.466 97.2527 122.122 103.996 124.091C106.621 124.857 111.964 124.538 109.863 120.309C106.204 112.945 90.0615 112.587 89.2407 102.996C88.6032 95.5463 98.4464 87.6388 101 81L80 93C78.1576 78.4979 78.6884 67.4814 85.2593 54C88.4479 47.4579 93.4299 41.7806 96 35L73 48.6559L20 82z"/>
<path style="fill:#ffffff; stroke:none;" d="M77 53L32 82L32 83C42.9481 89.39 64.2973 104.024 76 97C72.6634 88.0485 71.7516 79.4279 73.463 70C74.4001 64.8372 78.3937 58.0253 77 53M78 102L76 105L81 106L78 102M36 129C44.2459 135.832 67.6155 150.506 76.3573 139.391C78.3489 136.859 77.0857 132.952 77.0147 130C76.8501 123.156 80.9856 110.072 70.9992 108.863C67.0724 108.387 63.1049 111.697 60 113.692C52.0178 118.821 44.0839 124.035 36 129M119 109C116.882 120.41 116.999 133.39 117 145C117 148.21 115.892 154.958 120.148 156.033C124.504 157.134 132.008 151.286 136 149.579C148.427 144.264 162.58 137.982 176 136L160 127.14L119 109M423 117L378 146L378 148C390.394 153.16 407.834 167.8 421 162L418.439 137L423 117M79 145L74 148L79 150L79 145M34 175C42.8298 178.676 51.4445 182.97 60 187.247C63.4308 188.962 67.9456 192.234 71.9807 191.381C74.2529 190.901 76.1406 189.243 76.5085 186.906C77.6083 179.918 74.4768 171.439 75.1698 164C75.4316 161.189 76.4838 158.021 74.3927 155.639C71.5765 152.43 67.4375 152.643 64 154.484C54.5182 159.561 40.8486 166.734 34 175M84 152L86 154L84 152M82 159C79.8234 167.835 79.3925 176.464 83 185L103 173C99.2108 178.616 90.441 187.71 90.7083 194.91C90.9551 201.556 105.659 208.045 111 210L112 172L82 159M177 189C166.221 180.292 148.752 175.505 136 170C132.314 168.409 125.248 163.419 121.228 165.813C114.971 169.541 116.986 192.308 117 199C117.007 202.32 116.53 206.368 120.148 207.975C125.163 210.203 131.517 205.496 136 203.579C149.389 197.853 163.442 194.191 177 189M421 168L421 169L426 171L425 167L421 168M382 193L382 194C391.512 199.552 401.86 204.884 412 209.199C415.732 210.787 420.631 210.631 422.933 206.62C424.782 203.398 422.512 198.419 422.171 195C421.518 188.47 423.173 182.403 424 176C409.085 170.256 394.26 184.887 382 193M131 212L131 213C149.072 220.514 167.93 233.094 187 237.471C199.876 240.426 215.801 238 229 238L314 238L355 238C361.231 238 368.977 239.224 375 237.49C385.836 234.37 401.891 222.766 410 215L370 195L372 193C366.049 190.503 357.42 192 351 192L305 192L228 192C214.996 192 200.874 190.445 188 192.3C168.574 195.099 148.955 204.535 131 212M78 195L78 196L82 198L81 194L78 195M39 220L39 222L87 245C83.8871 236.773 79.2435 230.195 79.0147 221C78.9033 216.525 81.6635 206.301 78.3958 202.97C69.8883 194.298 46.5905 214.977 39 220M86 207C80.7521 228.982 91.9596 244.864 111 255L111 217L86 207M425 213L423 214L423 215L425 213M176 241C173.287 236.894 167.415 235.345 163 233.424C153.305 229.207 143.697 224.79 134 220.576C129.406 218.579 124.504 215.446 120.434 220.149C115.243 226.146 116.985 244.242 117 252C117.006 254.954 116.392 260.039 120.148 261.044C124.538 262.219 131.994 256.448 136 254.719C148.786 249.202 162.329 243.829 176 241M379 242L379 243C390.656 247.853 411.233 264.55 423 257C419.984 243.813 420.274 234.213 423 221C411.249 214.701 389.484 236.185 379 242M129 264L129 266C148.105 272.505 165.605 284.883 185 290.363C202.172 295.214 226.141 291 244 291L330 291C342.251 291 357.95 293.645 369.83 290.697C374.048 289.65 378.363 285.646 382 283.308C390.931 277.565 403.211 272.194 410 264C395.977 258.162 381.844 246.599 367 243.39C344.74 238.578 316.806 243 294 243L224 243C212.368 243 199.485 241.448 188 243.325C167.668 246.647 147.842 256.166 129 264M425 262L424 265L428 266L425 262M384 290L433 313C425.133 298.814 423.013 288.034 426 272C413.756 265.041 392.292 279.991 384 290M117 319L177 294C166.053 284.964 148.032 280.244 135 274.576C131.236 272.938 124.277 267.959 120.434 271.422C116.973 274.54 118 280.852 118 285C117.999 296.331 117 307.621 117 319z"/>
</svg>
