<?xml version="1.0" standalone="no"?>
<!DOCTYPE svg PUBLIC "-//W3C//DTD SVG 20010904//EN"
 "http://www.w3.org/TR/2001/REC-SVG-20010904/DTD/svg10.dtd">
<svg version="1.0" xmlns="http://www.w3.org/2000/svg"
 width="473.000000pt" height="371.000000pt" viewBox="0 0 473.000000 371.000000"
 preserveAspectRatio="xMidYMid meet">
<metadata>
Created by potrace 1.16, written by Peter Selinger 2001-2019
</metadata>
<g transform="translate(0.000000,371.000000) scale(0.100000,-0.100000)"
fill="#000000" stroke="none">
<path d="M583 3122 c-205 -130 -373 -239 -373 -242 0 -3 94 -52 210 -110 116
-58 210 -107 210 -110 0 -3 -85 -59 -190 -125 -104 -66 -190 -122 -190 -125 0
-3 83 -46 184 -95 102 -50 185 -92 185 -95 1 -3 -87 -61 -194 -128 -107 -68
-195 -126 -195 -128 0 -2 97 -52 215 -111 l214 -108 -195 -124 c-107 -68 -192
-127 -187 -132 9 -9 572 -284 741 -362 l102 -47 1 -57 c1 -32 1 -173 -1 -314
-1 -141 1 -266 5 -278 10 -32 39 -25 66 16 13 21 48 52 78 70 95 57 303 137
515 198 l88 25 959 0 c874 0 959 1 959 16 0 9 5 14 13 11 6 -3 170 -82 362
-175 406 -196 428 -205 444 -189 22 22 10 36 -71 86 -115 69 -159 110 -198
182 -36 68 -49 162 -36 252 l7 45 120 -54 c96 -44 124 -53 135 -43 27 22 14
39 -64 83 -43 25 -96 61 -117 79 -38 33 -39 34 -25 67 8 18 35 66 62 107 26
40 48 76 48 78 0 3 -42 -22 -92 -55 l-93 -59 -12 27 c-15 34 -15 196 0 243
l12 36 135 -63 c143 -66 167 -73 176 -49 9 22 -11 41 -85 82 -76 43 -171 128
-171 153 0 10 20 47 45 83 25 37 45 68 45 71 0 3 -29 -13 -65 -36 -36 -22 -69
-37 -73 -33 -8 8 -10 221 -1 229 3 4 55 -16 115 -44 118 -54 139 -59 148 -34
8 22 2 30 -52 61 -87 49 -172 114 -172 130 0 19 48 107 91 166 16 22 27 42 25
44 -2 3 -43 -21 -91 -52 -51 -33 -91 -53 -97 -47 -4 4 -13 35 -18 67 -21 130
32 307 134 449 19 28 34 52 32 53 -2 2 -171 -103 -376 -234 l-372 -237 218
-109 217 -109 -104 -67 c-57 -36 -120 -77 -141 -89 l-36 -23 -969 1 -968 0
-297 132 c-164 73 -298 135 -298 139 0 20 298 135 504 194 l88 25 949 0 949 0
0 25 0 25 -953 0 -953 0 -359 160 c-197 88 -362 157 -366 152 -9 -9 -30 -581
-23 -609 4 -13 3 -23 -1 -23 -11 0 -127 70 -160 97 -36 30 -85 92 -85 108 0 6
25 48 55 93 30 45 53 82 50 82 -3 0 -36 -20 -75 -45 l-69 -44 -7 35 c-6 34 2
164 11 173 3 2 57 -19 121 -48 64 -29 123 -50 130 -47 8 3 14 14 14 25 0 13
-28 37 -97 79 -54 33 -106 69 -116 80 -18 19 -18 21 3 64 13 23 39 68 59 98
54 80 56 85 40 75 -8 -5 -51 -33 -96 -62 -46 -29 -85 -53 -87 -53 -2 0 -10 23
-16 52 -31 129 19 320 124 468 37 52 48 70 44 70 -2 0 -170 -107 -375 -238z
m181 -13 c-34 -96 -43 -241 -20 -314 l16 -50 -27 -22 c-16 -13 -33 -23 -39
-23 -16 0 -387 180 -382 185 11 11 473 303 475 301 2 -1 -9 -36 -23 -77z m40
-442 c15 -23 3 -30 -28 -16 -20 10 -23 15 -14 26 13 16 28 13 42 -10z m-53
-58 c32 -16 39 -24 33 -37 -4 -9 -8 -71 -9 -136 l-1 -119 -48 -33 -49 -33
-163 82 c-90 45 -162 83 -160 84 16 16 334 213 344 213 7 0 31 -9 53 -21z
m732 -116 c158 -70 287 -130 287 -134 0 -3 -28 -14 -62 -24 -109 -30 -310
-105 -405 -152 -128 -62 -133 -59 -133 66 0 138 12 371 19 371 3 0 135 -57
294 -127z m2748 4 c-24 -55 -51 -181 -51 -234 0 -22 7 -65 15 -96 19 -75 20
-72 -16 -95 l-31 -20 -189 91 c-104 50 -188 94 -187 98 4 10 471 309 475 305
2 -2 -5 -24 -16 -49z m-3421 -231 c0 -1 -5 -17 -11 -34 -10 -29 -12 -30 -40
-20 l-30 10 33 24 c31 21 48 29 48 20z m50 -86 c9 -16 8 -18 -5 -14 -8 4 -15
12 -15 20 0 20 7 17 20 -6z m-129 -11 c31 -15 39 -24 34 -37 -22 -53 -16 -227
10 -293 4 -12 -4 -23 -28 -38 l-34 -21 -194 94 -193 93 40 25 c21 14 100 64
174 112 74 47 139 86 143 86 4 0 26 -9 48 -21z m226 -108 c71 -32 137 -61 148
-65 19 -5 20 -13 18 -118 -2 -62 -6 -150 -9 -195 l-6 -82 -76 45 c-43 25 -91
59 -109 76 l-32 31 26 51 c14 28 43 77 65 109 21 31 36 57 33 57 -3 0 -44 -25
-90 -55 -47 -30 -90 -55 -94 -55 -12 0 -31 80 -31 128 0 59 12 132 21 132 5 0
66 -26 136 -59z m556 -116 c147 -65 264 -122 260 -126 -4 -4 -42 -17 -83 -29
-113 -33 -285 -98 -377 -141 -81 -39 -84 -39 -115 -23 l-31 16 6 196 c6 164
10 198 24 214 10 11 24 17 33 15 8 -2 136 -57 283 -122z m2747 69 c0 -17 -2
-17 -34 -2 -24 10 -24 12 -8 24 19 14 42 2 42 -22z m-47 -51 c31 -15 31 -15
16 -103 -9 -59 -2 -154 16 -202 3 -7 -14 -25 -37 -40 l-42 -26 -179 89 c-98
50 -177 92 -174 95 2 3 78 52 168 109 170 108 172 109 232 78z m-496 -186
c-16 -11 9 -25 187 -112 113 -55 205 -102 205 -105 1 -3 -79 -56 -176 -117
l-176 -113 -944 0 -944 0 -252 111 c-139 62 -268 118 -287 126 l-35 15 38 19
c71 37 213 91 367 139 l155 49 939 0 c761 1 937 -1 923 -12z m-2887 -39 c0
-11 -18 -10 -41 3 -20 10 -20 11 -2 24 15 12 20 12 31 -2 6 -9 12 -20 12 -25z
m-65 -40 c38 -18 45 -26 40 -43 -3 -11 -8 -54 -12 -95 -7 -99 15 -186 66 -262
l39 -56 -132 62 c-232 111 -386 190 -384 198 3 6 328 218 335 218 1 0 23 -10
48 -22z m213 -102 c56 -25 111 -46 121 -46 24 0 27 -34 22 -243 l-3 -155 -55
32 c-88 50 -149 110 -185 184 -30 60 -33 75 -33 157 0 89 8 131 22 122 5 -3
54 -26 111 -51z m3285 -27 c-4 -12 -11 -18 -20 -15 -8 3 -17 6 -21 6 -8 0 31
29 40 30 3 0 4 -9 1 -21z m-2759 -134 c141 -63 262 -118 268 -121 6 -4 -36
-21 -93 -39 -152 -46 -298 -102 -386 -147 -52 -26 -85 -37 -100 -33 -22 5 -23
8 -22 123 1 202 11 277 38 306 14 14 27 26 31 26 3 0 122 -52 264 -115z m2821
95 c3 -5 2 -10 -4 -10 -5 0 -13 5 -16 10 -3 6 -2 10 4 10 5 0 13 -4 16 -10z
m-120 -12 c30 -13 29 -12 9 -108 -17 -81 -13 -161 11 -230 l14 -39 -35 -22
-36 -22 -186 90 c-103 49 -187 94 -186 99 1 9 362 243 376 244 4 0 19 -5 33
-12z m-305 -347 l214 -108 -84 -54 c-47 -30 -133 -85 -192 -123 -60 -37 -108
-72 -108 -76 0 -5 6 -11 13 -13 6 -3 -410 -6 -927 -6 l-938 -1 -299 133 c-164
72 -299 135 -299 138 0 18 249 116 445 176 l140 42 910 0 910 0 215 -108z
m379 -100 c14 -25 4 -32 -25 -19 -26 12 -31 24 -11 31 21 9 26 7 36 -12z m-54
-58 l36 -17 -7 -56 c-18 -136 1 -242 61 -328 l35 -51 -93 43 c-50 24 -168 81
-261 128 l-170 85 84 54 c47 30 121 77 165 106 44 28 88 52 97 52 10 1 33 -7
53 -16z m-2719 -115 c151 -67 271 -125 267 -129 -4 -4 -61 -23 -127 -44 -168
-52 -344 -125 -417 -174 l-62 -42 6 232 c5 185 10 236 22 255 8 13 20 24 26
24 6 0 135 -55 285 -122z"/>
</g>
</svg>
