<?xml version="1.0" standalone="yes"?>
<svg xmlns="http://www.w3.org/2000/svg" width="605" height="371">
<!-- <path style="fill:#ffffff; stroke:none;" d="M0 0L0 371L605 371L605 0L0 0z"/>
--><path style="fill:#000000; stroke:none;" d="M491 65L406 65L366 64.5008L313 34L310.697 56L265 118L264 118C264.219 91.5239 274.955 66.6832 283 42C275.959 46.1369 270.976 55.5345 266.127 62C255.567 76.0796 244.753 89.9691 234.13 104C229.351 110.311 224.505 119.903 217.91 124.397C209.597 130.059 187.92 126 178 126L132 126C125.557 126 117.044 127.441 111 124.914C88.6807 115.585 69.5995 91.543 46 86C46 108.002 44 130.01 44 152C44 158.949 41.6777 171.274 51 172C54.1505 159.536 77.9435 138.785 85.3966 159C87.5809 164.924 86 173.738 86 180L86 226L92 226L92 178L93.0278 158.174L106 147.373L122 137.519L137 149L145.397 159L146 180L146 226L152 226L152 180L152.603 159.09L167 146.627L188 131.728L214 131C215.084 137.331 222.328 141.288 227 145.272C240.033 156.384 253.708 171.194 269 179C254.179 196.018 241.202 214.976 227.626 233C223.615 238.325 214.291 246.011 217 253L146 253C135.637 253 121.976 255.35 112 252.49C88.0322 245.618 69.5293 221.614 46 213C46 234.328 44.0014 255.692 44 277C43.9997 281.809 41.931 295.624 46.5841 298.762C50.4681 301.382 55.7514 290.263 58.0154 288.04C69.3009 276.961 85.5845 270.006 100 264.012C125.009 253.612 158.168 259 185 259C196.737 259 211.592 256.525 223 259.178C228.852 260.539 234.493 267.32 239 271.08C250.92 281.026 262.868 290.915 275 300.6C277.943 302.95 284.365 309.668 288.667 307.607C292.555 305.745 288.525 300.847 286.891 299C278.129 289.098 270.007 279.591 268 266C279.1 275.008 289.906 284.374 301 293.389C305.601 297.128 312.977 301.078 315.972 306.289C319.267 312.023 316.913 323.52 317.004 330C317.041 332.672 316.873 337.304 320.174 338.248C323.434 339.182 330.915 328.698 334 326.699C346.916 318.33 363.892 310.722 379 307.518C393.252 304.495 410.438 307 425 307L518 307L518 340L523 340L523 186L523 140L523.563 118L539.33 94L582 31C550.608 28.5225 518.51 28 487 28C482.195 28 459.328 25.376 458.466 32.0394C457.932 36.1682 466.401 37.7891 469 39.6381C478.248 46.2169 484.22 56.1792 491 65z"/>
<path style="fill:#ffffff; stroke:none;" d="M473 34L473 35C495.172 51.8935 510.102 83.4868 520 109L522 109L571 36L473 34M318 44L318 47L320 46L320 45L318 44M321 46C315.065 59.4053 317 74.6706 317 89L357 67L321 46M345 79L345 81L393 109.351L431 110L514 110C511.196 100.266 505.757 90.8263 500.861 82C499.102 78.8291 497.643 74.0865 494.471 72.0278C491.48 70.0873 486.393 71 483 71L456 71C419.616 71 378.901 65.0915 345 79M265 73L266 74L265 73M264 75L221 132L267 170C263.166 160.655 261.363 141.419 252 137L257.567 126L261.25 93L264 75M310 76C304.886 110.755 295.517 140.772 313 174L314 174L322 162L323 162C321.858 166.819 317.639 173.058 318.212 178C318.509 180.555 333.169 199.046 319.025 190.818C317.336 189.835 315.752 188.868 314 188C303.998 223.245 297.141 261.011 317 294L318 294L319 271L337 280L338 83C331.519 85.7126 324.892 89.499 320.39 95.0139C319.005 96.7103 317.019 101.657 314.123 100.654C307.718 98.4363 312.168 81.1665 310 76M303 77C293.123 89.4456 283.66 102.288 274.127 115C270.595 119.709 263.801 125.815 263.724 132C263.63 139.45 268.758 142.704 274 147.08C284.409 155.769 294.487 165.8 306 173C294.917 151.336 295.223 128.557 298.156 105C299.188 96.7118 304.833 85.022 303 77M344 87C344 97.3875 342.999 107.621 343 118C343 121.796 342.068 127.509 346.148 129.627C350.175 131.719 354.729 127.548 358 125.604C366.54 120.527 375.751 116.588 385 113C376.087 102.526 356.451 92.8889 344 87M52 96L51 127L101 127L101 126L52 96M355 134L355 136L389 157.298L429 158L518 158L518 128C518 124.938 518.982 119.232 516.258 117.028C513.694 114.953 508.073 116 505 116L475 116L420 116C411.083 116 400.722 114.558 392 116.529C379.484 119.357 365.631 126.989 355 134M50 133L50 159L71 144L71 142C64.4766 137.368 58.1118 133.663 50 133M69 133L69 134C78.4487 140.216 81.0753 138.132 91 134L69 133M82 144L89 152L90 152L114 134C104.863 130.203 90.4855 140.708 82 144M129 133L129 134L149 152L150 152L174 134C162.299 129.09 141.742 133 129 133M382 162C379.476 157.518 374.219 155.146 370 152.333C365.718 149.479 353.456 138.484 348.189 140.306C344.466 141.593 344.061 146.763 343.58 150C342.449 157.618 339.78 175.979 352 175.98C361.159 175.981 372.832 164.641 382 162M266 148L274 170C287.984 162.898 273.779 153.319 266 148M283 164C279.755 173.956 280.346 175.376 286.093 183.999C287.129 185.553 288.838 188.496 286.508 189.839C283.601 191.514 277.968 186.769 275 186L266 236L267 236L307 183C301.922 176.101 291.334 166.316 283 164M358 180C364.089 187.367 381.543 199.812 391 201.722C402.467 204.039 416.3 202 428 202L518 202L518 164L432 164L390 164.61L358 180M344 180L344 183L346 180L344 180M383 205C376.413 198.692 367.598 194.346 360 189.334C356.677 187.142 353.094 184.318 349.185 186.912C341.415 192.068 342.984 204.048 343 212C343.007 215.545 342.609 220.804 347.059 221.914C350.836 222.857 354.996 218.793 358 217.015C365.667 212.475 374.428 207.469 383 205M267 191L223 250L269 287L260.772 261.039L255.541 251.985L259.697 243L263.25 211L267 191M305 194C296.051 208.371 284.542 221.464 274.373 235C270.122 240.66 263.595 247.15 266.603 254.961C269.758 263.151 283.386 270.735 290 276.247C295.358 280.712 300.595 286.145 307 289C299.1 269.74 296.813 250.665 299.285 230C300.458 220.198 307.773 203.131 305 194M354 226C360.809 234.219 379.52 247.023 390 249.582C402.35 252.597 418.289 250 431 250L518 250L518 208L431 208L389 208.61L354 226M52 224C47.4938 242.927 50 266.52 50 286C67.2336 274.218 83.9607 262.821 104 256C91.0372 244.697 68.372 229.217 52 224M343 276C355.315 267.862 367.539 258.166 382 254C377.033 245.813 363.913 240.515 356 235.333C352.82 233.251 348.931 230.206 345.894 234.167C339.067 243.07 343 265.323 343 276M345 285L377 301.502L422 302L518 302L518 256L428 256C411.809 256 394.913 253.653 380 260.745C368.085 266.41 350.953 272.236 345 285M324 280L323.692 299L329 311L323 310L323 326L368 304L324 280z"/>
</svg>
