<?xml version="1.0" standalone="no"?>
<!DOCTYPE svg PUBLIC "-//W3C//DTD SVG 20010904//EN"
 "http://www.w3.org/TR/2001/REC-SVG-20010904/DTD/svg10.dtd">
<svg version="1.0" xmlns="http://www.w3.org/2000/svg"
 width="605.000000pt" height="371.000000pt" viewBox="0 0 605.000000 371.000000"
 preserveAspectRatio="xMidYMid meet">
<metadata>
Created by potrace 1.16, written by Peter Selinger 2001-2019
</metadata>
<g transform="translate(0.000000,371.000000) scale(0.100000,-0.100000)"
fill="#000000" stroke="none">
<path d="M4680 3423 c-41 -2 -80 -9 -87 -15 -21 -17 -15 -38 15 -49 76 -31 97
-43 141 -84 43 -40 161 -193 161 -209 0 -3 -285 -6 -634 -6 l-635 0 -255 154
-254 155 -7 -97 c-3 -53 -7 -105 -8 -115 -2 -15 -477 -651 -482 -645 -1 2 2
41 6 88 18 172 72 394 142 580 20 51 35 95 34 96 -1 2 -144 -184 -317 -412
l-315 -414 -537 0 -538 0 -321 200 c-177 110 -324 199 -326 197 -2 -3 -6 -191
-10 -418 -6 -377 -5 -415 10 -428 23 -19 44 -8 52 28 8 38 99 122 186 174 l64
38 47 -50 48 -50 0 -345 0 -346 25 0 25 0 0 343 0 342 149 112 150 112 58 -39
c32 -21 89 -70 126 -108 l67 -70 0 -346 0 -346 25 0 25 0 0 343 0 342 177 133
177 132 138 0 c97 0 138 -3 138 -11 0 -7 6 -17 14 -23 196 -158 534 -451 529
-460 -5 -8 -413 -549 -516 -683 -6 -9 -5 -18 3 -28 11 -13 -49 -15 -528 -15
l-540 0 -312 195 c-171 107 -315 195 -319 195 -16 0 -30 -796 -15 -834 12 -31
42 -18 62 27 36 82 187 183 434 292 l148 65 558 0 c336 0 562 4 568 9 5 6 96
-63 244 -186 282 -234 385 -313 410 -313 41 0 28 31 -45 116 -41 47 -86 104
-99 127 -21 37 -66 164 -66 188 0 5 93 -68 208 -163 114 -94 227 -188 252
-209 l45 -37 0 -149 c0 -109 4 -154 13 -166 18 -21 36 -13 55 28 28 58 177
142 404 229 l122 46 706 0 705 0 0 -165 0 -165 25 0 25 0 0 165 c0 103 4 165
10 165 6 0 10 11 10 25 0 14 -4 25 -10 25 -7 0 -10 316 -10 928 l0 928 291
425 290 424 -68 6 c-37 4 -207 9 -378 13 -170 3 -377 8 -460 10 -82 1 -184 1
-225 -1z m773 -62 c136 -5 250 -11 254 -14 4 -5 -354 -537 -465 -690 l-34 -48
-98 198 c-115 232 -231 413 -323 501 l-65 62 241 0 c133 -1 354 -5 490 -9z
m-1895 -335 c-93 -37 -292 -141 -336 -175 l-52 -41 0 175 c0 134 4 184 15 212
17 40 20 66 5 43 -8 -12 -10 -9 -10 12 0 27 6 24 201 -95 180 -109 198 -122
177 -131z m1444 -118 c31 -57 76 -147 101 -200 l46 -98 -612 0 -612 0 -242
148 c-133 81 -242 150 -243 153 0 4 6 9 13 12 6 3 55 24 107 46 l95 40 646 1
646 0 55 -102z m-1887 -53 c0 -119 3 -148 15 -155 24 -15 28 -12 50 29 23 47
72 89 153 132 l59 31 -7 -73 c-4 -41 -8 -484 -9 -986 0 -501 -4 -914 -8 -918
-4 -4 -45 13 -91 39 l-85 46 -7 -117 -7 -117 -20 24 c-144 177 -156 566 -33
997 l15 53 42 -31 c44 -31 81 -35 86 -9 1 9 -20 41 -48 72 l-50 56 29 79 30
78 -27 -34 c-15 -19 -37 -46 -48 -60 l-22 -25 -21 34 c-32 53 -61 136 -78 225
-17 90 -13 353 7 460 11 62 71 315 73 315 1 0 2 -65 2 -145z m-480 14 c-26
-111 -55 -310 -55 -387 0 -36 -7 -56 -31 -87 l-30 -39 35 -31 c28 -24 36 -41
45 -92 14 -76 44 -165 71 -210 11 -19 14 -31 8 -27 -14 9 -432 356 -458 381
-9 8 -11 16 -5 21 6 4 16 18 24 32 21 38 413 551 418 547 2 -2 -8 -51 -22
-108z m400 31 c-53 -199 -78 -432 -64 -596 9 -105 45 -242 80 -301 10 -18 16
-33 13 -33 -16 0 -417 346 -425 367 -22 59 -15 71 197 352 114 149 208 270
210 268 2 -2 -3 -27 -11 -57z m612 -181 c109 -66 201 -124 206 -128 4 -4 -46
-31 -110 -59 -65 -29 -149 -72 -188 -96 -68 -44 -70 -44 -97 -28 l-28 16 0
141 c0 132 9 275 16 275 2 0 93 -54 201 -121z m-2864 -126 c136 -85 247 -155
247 -156 0 -1 -120 -2 -266 -2 l-266 0 6 59 c3 32 6 106 6 163 0 80 3 103 13
97 6 -4 123 -76 260 -161z m4395 -255 l2 -218 -639 0 -640 0 -180 118 c-100
64 -179 121 -178 126 5 16 193 112 302 156 l100 39 615 -2 615 -2 3 -217z
m-4588 25 c37 -14 130 -74 130 -83 0 -3 -24 -20 -54 -38 -30 -18 -79 -53 -110
-78 l-56 -45 0 136 0 135 28 -6 c15 -4 43 -13 62 -21z m274 17 l70 0 -79 -38
-80 -39 -45 36 c-25 19 -49 39 -55 44 -6 6 14 7 54 3 35 -3 96 -6 135 -6z
m865 -3 c12 -2 -221 -187 -236 -187 -4 0 -43 35 -87 78 -45 43 -94 87 -110 98
l-28 20 223 -3 c123 -2 230 -5 238 -6z m-589 -1 c0 -5 -228 -176 -243 -182
-17 -6 -84 63 -71 75 25 24 242 111 277 111 20 0 37 -2 37 -4z m2529 -166
c149 -97 178 -120 151 -120 -11 0 -190 -88 -265 -131 l-41 -22 -43 28 -43 29
4 137 c3 130 4 139 28 164 13 14 29 24 36 23 6 -2 84 -50 173 -108z m-800
-148 c103 -85 190 -159 195 -166 6 -9 -52 -94 -193 -279 -111 -147 -205 -267
-208 -267 -10 0 6 155 27 258 26 126 60 252 69 252 3 0 25 -14 49 -30 82 -55
98 -7 25 71 l-47 51 23 64 c13 36 21 67 19 70 -3 2 -19 -16 -37 -41 -18 -25
-36 -45 -41 -45 -13 0 -64 104 -84 169 -20 69 -20 77 1 60 9 -8 100 -83 202
-167z m2311 -182 l0 -190 -643 0 -643 0 -153 100 c-85 54 -158 103 -163 108
-12 12 67 58 211 123 l106 49 643 0 642 0 0 -190z m-1713 17 c-6 -20 -27 -19
-27 2 0 14 5 19 15 14 9 -3 14 -10 12 -16z m216 -131 c82 -54 147 -99 145
-101 -2 -3 -58 -31 -124 -63 -65 -33 -142 -75 -170 -94 -50 -34 -53 -34 -78
-19 -26 15 -26 17 -26 138 0 67 5 134 11 150 13 34 70 95 84 90 5 -3 77 -48
158 -101z m-1024 -60 c-29 -119 -59 -325 -59 -403 0 -35 -7 -54 -30 -83 l-30
-38 33 -29 c27 -23 35 -42 49 -105 9 -43 29 -105 43 -140 14 -35 29 -70 32
-78 4 -10 -2 -8 -18 6 -13 11 -120 101 -236 198 -117 98 -213 180 -213 182 0
5 452 604 456 604 1 0 -11 -51 -27 -114z m386 -22 c-37 -153 -55 -298 -55
-448 0 -160 17 -258 64 -368 l34 -77 -82 67 c-45 37 -141 116 -214 177 -127
107 -131 111 -137 157 l-7 47 209 274 c114 151 209 274 210 273 2 -1 -8 -47
-22 -102z m2135 -264 l0 -220 -640 0 -640 0 -186 122 -186 121 54 34 c57 37
234 125 295 148 31 11 158 14 671 14 l632 1 0 -220z m-4398 -101 c143 -89 255
-165 251 -170 -4 -4 -37 -19 -73 -34 -175 -73 -340 -167 -415 -236 l-45 -42 0
140 c0 182 12 503 18 503 3 0 122 -73 264 -161z m2902 -39 c80 -52 146 -97
146 -100 0 -3 -40 -23 -88 -45 -110 -51 -237 -127 -280 -168 l-33 -32 3 205
c3 196 4 206 26 238 l24 33 28 -18 c15 -10 93 -61 174 -113z m1496 -360 l0
-230 -706 0 -707 0 -123 65 c-67 36 -142 76 -166 90 l-43 24 50 48 c57 55 176
127 315 189 l95 43 643 0 642 1 0 -230z m-1864 -47 c37 -21 117 -64 178 -96
61 -32 131 -70 155 -84 l44 -25 -119 -48 c-144 -57 -211 -90 -286 -141 l-58
-39 0 84 0 85 27 -2 c40 -3 42 31 3 68 -22 21 -30 38 -30 64 0 46 12 171 16
171 2 0 33 -17 70 -37z"/>
</g>
</svg>
