<?xml version="1.0" standalone="no"?>
<!DOCTYPE svg PUBLIC "-//W3C//DTD SVG 20010904//EN"
 "http://www.w3.org/TR/2001/REC-SVG-20010904/DTD/svg10.dtd">
<svg version="1.0" xmlns="http://www.w3.org/2000/svg"
 width="552.000000pt" height="371.000000pt" viewBox="0 0 552.000000 371.000000"
 preserveAspectRatio="xMidYMid meet">
<metadata>
Created by potrace 1.16, written by Peter Selinger 2001-2019
</metadata>
<g transform="translate(0.000000,371.000000) scale(0.100000,-0.100000)"
fill="#000000" stroke="none">
<path d="M4377 3079 c-670 -407 -677 -411 -655 -428 37 -28 707 -477 903 -604
l180 -117 -902 0 c-497 0 -903 4 -903 8 0 5 11 19 25 32 38 36 24 34 -40 -5
l-58 -34 -31 21 c-17 12 -68 58 -112 102 -161 160 -212 340 -169 588 38 222
194 531 375 746 34 40 60 75 59 77 -2 1 -296 -174 -653 -391 -357 -217 -651
-392 -654 -390 -2 3 8 44 23 91 57 179 205 438 343 603 34 41 62 76 62 78 0 2
-17 -6 -37 -19 -21 -13 -312 -191 -648 -394 -335 -204 -625 -379 -643 -391
l-34 -20 527 -351 526 -351 -76 0 c-75 0 -92 6 -646 206 -314 113 -572 204
-575 201 -21 -20 -44 -829 -25 -865 17 -31 48 -28 66 7 21 41 66 73 166 120
158 74 443 163 779 242 142 33 181 39 280 39 112 0 156 -9 135 -28 -6 -5 -262
-161 -570 -347 -308 -186 -564 -341 -568 -345 -13 -11 1075 -734 1211 -805 47
-24 55 -26 68 -13 21 21 11 37 -58 93 -178 143 -258 244 -300 380 -18 56 -22
94 -22 192 0 67 3 125 6 128 3 4 228 -141 500 -322 657 -438 735 -483 750
-441 9 23 -3 37 -90 107 -163 130 -232 220 -275 356 -31 99 -30 274 2 399 43
168 148 390 257 542 39 56 47 62 76 60 27 -1 34 3 36 22 l3 22 912 0 912 -1
-36 -22 c-19 -12 -272 -166 -561 -341 -515 -312 -526 -320 -505 -336 41 -32
812 -546 978 -652 92 -59 190 -119 219 -134 45 -24 53 -25 66 -12 23 22 10 40
-86 118 -224 181 -294 311 -293 545 0 206 78 427 239 684 80 129 87 136 112
122 18 -10 25 -8 39 9 13 15 30 20 70 20 50 0 53 1 53 25 0 24 -3 25 -60 25
-55 0 -75 10 -50 25 5 3 19 20 32 38 l23 31 -40 -24 c-22 -13 -50 -30 -63 -38
-20 -13 -26 -11 -75 26 -128 100 -210 210 -250 337 -31 99 -30 274 2 398 57
224 190 473 363 683 38 46 68 84 66 84 -2 0 -308 -185 -681 -411z m418 142
c-60 -92 -156 -293 -190 -396 -98 -299 -65 -539 106 -758 16 -21 -9 -8 -97 49
-198 128 -804 536 -809 544 -5 7 1026 640 1033 635 2 -2 -18 -35 -43 -74z
m-1971 32 c-178 -270 -274 -539 -274 -766 0 -148 44 -286 121 -387 54 -70 56
-75 22 -55 -94 55 -888 593 -888 601 0 7 1021 634 1034 634 2 0 -5 -12 -15
-27z m-908 -50 c-106 -165 -184 -340 -227 -508 -33 -130 -33 -310 0 -415 29
-94 47 -128 107 -210 43 -58 44 -63 18 -46 -113 72 -904 602 -904 606 0 4
1038 637 1047 640 2 0 -17 -30 -41 -67z m342 -930 l514 -343 -311 0 c-171 0
-311 3 -311 7 0 3 8 15 18 26 14 16 8 15 -29 -6 -72 -42 -105 -37 -186 28
-165 132 -237 284 -236 501 0 104 6 139 21 132 4 -2 238 -157 520 -345z
m-1141 -184 c266 -96 483 -176 483 -179 0 -4 -27 -12 -60 -18 -109 -23 -452
-120 -590 -167 -156 -54 -303 -122 -342 -160 l-28 -26 0 131 c0 139 17 513 26
568 3 20 10 32 17 30 7 -3 229 -83 494 -179z m1713 -218 c-8 -5 -253 -154
-544 -330 -291 -177 -530 -320 -532 -318 -2 1 10 42 26 89 63 186 249 512 288
502 25 -7 49 21 33 39 -6 8 -8 17 -4 20 3 4 173 7 377 7 219 0 365 -4 356 -9z
m1971 -99 c-99 -146 -192 -355 -233 -520 -28 -115 -31 -298 -5 -391 23 -85 69
-177 118 -235 21 -27 39 -50 39 -52 0 -9 -915 600 -924 615 -4 5 1029 641
1042 641 1 0 -15 -26 -37 -58z m-2025 -55 c-204 -326 -281 -660 -206 -902 22
-71 86 -191 115 -215 9 -7 20 -22 26 -32 10 -19 -248 148 -665 430 -256 173
-259 176 -236 191 57 39 1015 619 1018 616 1 -1 -22 -41 -52 -88z m-868 -19
c-67 -108 -149 -281 -182 -387 -97 -309 -66 -535 105 -754 21 -28 20 -27 -37
9 -127 80 -863 575 -868 583 -5 7 1008 630 1027 631 4 0 -16 -37 -45 -82z"/>
</g>
</svg>
