<?xml version="1.0" standalone="yes"?>
<svg xmlns="http://www.w3.org/2000/svg" width="162" height="371">
<!-- <path style="fill:#ffffff; stroke:none;" d="M0 0L0 371L162 371L162 0L0 0z"/>
--><path style="fill:#000000; stroke:none;" d="M77 231L83 231L83 146C83 136.483 79.7437 119.575 84.0278 111C93.5534 91.9341 116.722 79.4991 129 62C104.647 62 80.3885 61 56 61C51.4014 61 34.9034 58.4949 32.0864 62.588C29.0409 67.013 40.6667 69.8881 43 71.3881C55.1001 79.167 64.2168 92.17 71.9969 104C79.6343 115.613 77 130.593 77 144L77 231z"/>
<path style="fill:#ffffff; stroke:none;" d="M49 67L49 68C61.1641 77.2682 71.5779 90.6684 79 104C91.4691 98.1853 107.107 79.2056 115 68L49 67z"/>
</svg>
