<?xml version="1.0" standalone="no"?>
<!DOCTYPE svg PUBLIC "-//W3C//DTD SVG 20010904//EN"
 "http://www.w3.org/TR/2001/REC-SVG-20010904/DTD/svg10.dtd">
<svg version="1.0" xmlns="http://www.w3.org/2000/svg"
 width="162.000000pt" height="371.000000pt" viewBox="0 0 162.000000 371.000000"
 preserveAspectRatio="xMidYMid meet">
<metadata>
Created by potrace 1.16, written by Peter Selinger 2001-2019
</metadata>
<g transform="translate(0.000000,371.000000) scale(0.100000,-0.100000)"
fill="#000000" stroke="none">
<path d="M326 3088 c-28 -21 -14 -44 31 -53 98 -17 257 -175 378 -374 l35 -59
0 -601 0 -601 25 0 25 0 0 603 0 602 231 238 c127 131 230 240 228 242 -3 2
-214 7 -469 10 -400 6 -468 5 -484 -7z m833 -54 c4 -3 -347 -367 -358 -371 -3
-1 -33 39 -66 89 -33 50 -106 138 -161 195 l-101 104 341 -7 c187 -4 343 -8
345 -10z"/>
</g>
</svg>
